<svg xmlns="http://www.w3.org/2000/svg" xmlns:xlink="http://www.w3.org/1999/xlink" width="113" height="113" viewBox="0 0 113 113">
  <defs>
    <filter id="Trazado_982547" x="0" y="0" width="113" height="113" filterUnits="userSpaceOnUse">
      <feOffset dy="3" input="SourceAlpha"/>
      <feGaussianBlur stdDeviation="3" result="blur"/>
      <feFlood flood-opacity="0.161"/>
      <feComposite operator="in" in2="blur"/>
      <feComposite in="SourceGraphic"/>
    </filter>
  </defs>
  <g id="Grupo_1241871" data-name="Grupo 1241871" transform="translate(-586.146 -4891.963)">
    <g id="Grupo_1241017" data-name="Grupo 1241017" transform="translate(-84.344 -7791.204)">
      <g id="Grupo_1240427" data-name="Grupo 1240427" transform="translate(679.49 12689.167)">
        <g id="Grupo_1239780" data-name="Grupo 1239780" transform="translate(0 0)">
          <g id="Grupo_1236603" data-name="Grupo 1236603">
            <g id="Grupo_1236145" data-name="Grupo 1236145">
              <g id="Grupo_1235107" data-name="Grupo 1235107">
                <g id="Grupo_1223796" data-name="Grupo 1223796">
                  <g id="Grupo_1208038" data-name="Grupo 1208038">
                    <g id="Grupo_1202104" data-name="Grupo 1202104">
                      <g id="Grupo_1201923" data-name="Grupo 1201923">
                        <g id="Grupo_1176928" data-name="Grupo 1176928" transform="translate(0)">
                          <g id="Grupo_1172322" data-name="Grupo 1172322">
                            <g id="Grupo_1164700" data-name="Grupo 1164700">
                              <g id="Grupo_1160931" data-name="Grupo 1160931">
                                <g id="Grupo_1160749" data-name="Grupo 1160749">
                                  <g id="Grupo_1158891" data-name="Grupo 1158891">
                                    <g id="Grupo_1157406" data-name="Grupo 1157406">
                                      <g id="Grupo_1155793" data-name="Grupo 1155793">
                                        <g id="Grupo_1154704" data-name="Grupo 1154704">
                                          <g id="Grupo_1150790" data-name="Grupo 1150790">
                                            <g id="Grupo_1154214" data-name="Grupo 1154214" transform="translate(0)">
                                              <g id="Grupo_1152583" data-name="Grupo 1152583">
                                                <g id="Grupo_1146973" data-name="Grupo 1146973">
                                                  <g id="Grupo_1146954" data-name="Grupo 1146954">
                                                    <g transform="matrix(1, 0, 0, 1, -9, -6)" filter="url(#Trazado_982547)">
                                                      <g id="Trazado_982547-2" data-name="Trazado 982547" transform="translate(9 6)" fill="#d6f5fb">
                                                        <path d="M 47.50000762939453 93.49986267089844 C 41.28937911987305 93.49986267089844 35.26534271240234 92.28383636474609 29.59519386291504 89.88558197021484 C 24.11772727966309 87.56880950927734 19.19814109802246 84.25183868408203 14.97310066223145 80.02679443359375 C 10.74804782867432 75.8017578125 7.431074142456055 70.88218688964844 5.114300727844238 65.40471649169922 C 2.716034412384033 59.73458480834961 1.500007629394531 53.71054458618164 1.500007629394531 47.49993133544922 C 1.500007629394531 41.2893180847168 2.716034412384033 35.26527786254883 5.114300727844238 29.59514427185059 C 7.431074142456055 24.11767768859863 10.74804782867432 19.19810485839844 14.97310066223145 14.97306442260742 C 19.19814109802246 10.74802494049072 24.11772727966309 7.431051254272461 29.59519386291504 5.114277839660645 C 35.26534271240234 2.71602463722229 41.28937911987305 1.499997973442078 47.50000762939453 1.499997973442078 C 53.71063613891602 1.499997973442078 59.73467254638672 2.71602463722229 65.40482330322266 5.114277839660645 C 70.88228607177734 7.431051254272461 75.80187225341797 10.74802494049072 80.02691650390625 14.97306442260742 C 84.25196838378906 19.19810485839844 87.56893920898438 24.11767768859863 89.88571166992188 29.59514427185059 C 92.28398132324219 35.26527786254883 93.50000762939453 41.2893180847168 93.50000762939453 47.49993133544922 C 93.50000762939453 53.71054458618164 92.28398132324219 59.73458480834961 89.88571166992188 65.40471649169922 C 87.56893920898438 70.88218688964844 84.25196838378906 75.8017578125 80.02691650390625 80.02679443359375 C 75.80187225341797 84.25183868408203 70.88228607177734 87.56880950927734 65.40482330322266 89.88558197021484 C 59.73467254638672 92.28383636474609 53.71063613891602 93.49986267089844 47.50000762939453 93.49986267089844 Z" stroke="none"/>
                                                        <path d="M 47.50000762939453 2.999992370605469 C 41.4912223815918 2.999992370605469 35.66377639770508 4.1761474609375 30.17951202392578 6.495796203613281 C 24.88085174560547 8.736930847167969 20.12152862548828 11.94596099853516 16.03376007080078 16.03372955322266 C 11.94597625732422 20.12148284912109 8.736961364746094 24.88080596923828 6.495803833007812 30.17946624755859 C 4.176162719726562 35.66371536254883 3.000007629394531 41.49116134643555 3.000007629394531 47.49993133544922 C 3.000007629394531 53.50870132446289 4.176162719726562 59.33614730834961 6.495803833007812 64.82038879394531 C 8.736961364746094 70.11905670166016 11.94597625732422 74.87836456298828 16.03376007080078 78.96613311767578 C 20.12152862548828 83.05390167236328 24.88085174560547 86.26291656494141 30.17951202392578 88.50406646728516 C 35.66377639770508 90.82369995117188 41.4912223815918 91.99985504150391 47.50000762939453 91.99985504150391 C 53.50879287719727 91.99985504150391 59.33623886108398 90.82369995117188 64.82049560546875 88.50406646728516 C 70.11916351318359 86.26291656494141 74.87848663330078 83.05390167236328 78.96625518798828 78.96613311767578 C 83.05403900146484 74.87836456298828 86.26305389404297 70.11905670166016 88.50421142578125 64.82038879394531 C 90.8238525390625 59.33614730834961 92.00000762939453 53.50870132446289 92.00000762939453 47.49993133544922 C 92.00000762939453 41.49116134643555 90.8238525390625 35.66371536254883 88.50421142578125 30.17946624755859 C 86.26305389404297 24.88080596923828 83.05403900146484 20.12148284912109 78.96625518798828 16.03372955322266 C 74.87848663330078 11.94596099853516 70.11916351318359 8.736930847167969 64.82049560546875 6.495796203613281 C 59.33623886108398 4.1761474609375 53.50879287719727 2.999992370605469 47.50000762939453 2.999992370605469 M 47.50000762939453 -7.62939453125e-06 C 73.73352813720703 -7.62939453125e-06 95.00000762939453 21.26644134521484 95.00000762939453 47.49993133544922 C 95.00000762939453 73.73342132568359 73.73352813720703 94.99985504150391 47.50000762939453 94.99985504150391 C 21.26648712158203 94.99985504150391 7.62939453125e-06 73.73342132568359 7.62939453125e-06 47.49993133544922 C 7.62939453125e-06 21.26644134521484 21.26648712158203 -7.62939453125e-06 47.50000762939453 -7.62939453125e-06 Z" stroke="none" fill="#1d7083"/>
                                                      </g>
                                                    </g>
                                                  </g>
                                                </g>
                                              </g>
                                            </g>
                                          </g>
                                        </g>
                                      </g>
                                    </g>
                                  </g>
                                </g>
                              </g>
                            </g>
                          </g>
                        </g>
                      </g>
                    </g>
                  </g>
                </g>
              </g>
            </g>
          </g>
        </g>
      </g>
    </g>
    <g id="resultados-de-la-encuesta" transform="translate(603.237 4916.071)">
      <g id="Grupo_1241845" data-name="Grupo 1241845" transform="translate(15.002 0.861)">
        <path id="Trazado_1239343" data-name="Trazado 1239343" d="M62,64.562H23.964a2.32,2.32,0,0,1-2.32-2.32V9.82a2.32,2.32,0,0,1,2.32-2.32h27.8a2.32,2.32,0,0,1,1.64.679L63.645,18.418a2.32,2.32,0,0,1,.679,1.64V62.242A2.319,2.319,0,0,1,62,64.562Z" transform="translate(-21.644 -7.5)" fill="#edf6ff"/>
      </g>
      <g id="Grupo_1241846" data-name="Grupo 1241846" transform="translate(43.301 0.861)">
        <path id="Trazado_1239344" data-name="Trazado 1239344" d="M281.825,18.419,271.586,8.179a2.32,2.32,0,0,0-1.64-.679h-1.823v9.278a5.1,5.1,0,0,0,5.1,5.1h5.335a1.16,1.16,0,0,1,1.16,1.16V62.358a2.32,2.32,0,0,1-1.6,2.2h2.062a2.32,2.32,0,0,0,2.32-2.32V20.059a2.319,2.319,0,0,0-.679-1.64Z" transform="translate(-268.123 -7.5)" fill="#ddebfd"/>
      </g>
      <g id="Grupo_1241847" data-name="Grupo 1241847" transform="translate(46.085 1.072)">
        <path id="Trazado_1239345" data-name="Trazado 1239345" d="M294.688,20.727h9.067a2.316,2.316,0,0,0-.468-.679L293.047,9.808a2.314,2.314,0,0,0-.679-.468v9.067A2.319,2.319,0,0,0,294.688,20.727Z" transform="translate(-292.368 -9.34)" fill="#bed9fd"/>
      </g>
      <g id="Grupo_1241863" data-name="Grupo 1241863" transform="translate(18.714 4.573)">
        <g id="Grupo_1241849" data-name="Grupo 1241849" transform="translate(0 27.371)">
          <g id="Grupo_1241848" data-name="Grupo 1241848">
            <circle id="Elipse_12336" data-name="Elipse 12336" cx="1.856" cy="1.856" r="1.856" fill="#f7e365"/>
          </g>
        </g>
        <g id="Grupo_1241852" data-name="Grupo 1241852" transform="translate(0 11.598)">
          <g id="Grupo_1241851" data-name="Grupo 1241851">
            <g id="Grupo_1241850" data-name="Grupo 1241850">
              <circle id="Elipse_12337" data-name="Elipse 12337" cx="1.856" cy="1.856" r="1.856" fill="#a2f5c3"/>
            </g>
          </g>
        </g>
        <g id="Grupo_1241855" data-name="Grupo 1241855" transform="translate(0 19.02)">
          <g id="Grupo_1241854" data-name="Grupo 1241854">
            <g id="Grupo_1241853" data-name="Grupo 1241853">
              <circle id="Elipse_12338" data-name="Elipse 12338" cx="1.856" cy="1.856" r="1.856" fill="#e175a5"/>
            </g>
          </g>
        </g>
        <g id="Grupo_1241856" data-name="Grupo 1241856" transform="translate(7.423 11.598)">
          <path id="Trazado_1239346" data-name="Trazado 1239346" d="M145.527,144.553H119.548a.928.928,0,0,1-.928-.928V141.77a.928.928,0,0,1,.928-.928h25.979a.928.928,0,0,1,.928.928v1.856A.928.928,0,0,1,145.527,144.553Z" transform="translate(-118.62 -140.842)" fill="#4172ca"/>
        </g>
        <g id="Grupo_1241857" data-name="Grupo 1241857" transform="translate(0)">
          <path id="Trazado_1239347" data-name="Trazado 1239347" d="M66.959,43.537H54.9a.928.928,0,0,1-.928-.928V40.754a.928.928,0,0,1,.928-.928H66.959a.928.928,0,0,1,.928.928V42.61A.928.928,0,0,1,66.959,43.537Z" transform="translate(-53.969 -39.826)" fill="#e175a5"/>
        </g>
        <g id="Grupo_1241858" data-name="Grupo 1241858" transform="translate(7.423 11.598)">
          <path id="Trazado_1239348" data-name="Trazado 1239348" d="M133.929,144.553H119.548a.928.928,0,0,1-.928-.928V141.77a.928.928,0,0,1,.928-.928h14.381a.928.928,0,0,1,.928.928v1.856A.928.928,0,0,1,133.929,144.553Z" transform="translate(-118.62 -140.842)" fill="#e69642"/>
        </g>
        <g id="Grupo_1241859" data-name="Grupo 1241859" transform="translate(7.423 19.02)">
          <path id="Trazado_1239349" data-name="Trazado 1239349" d="M145.527,209.2H119.548a.928.928,0,0,1-.928-.928V206.42a.928.928,0,0,1,.928-.928h25.979a.928.928,0,0,1,.928.928v1.856A.928.928,0,0,1,145.527,209.2Z" transform="translate(-118.62 -205.492)" fill="#4172ca"/>
        </g>
        <g id="Grupo_1241860" data-name="Grupo 1241860" transform="translate(7.423 19.02)">
          <path id="Trazado_1239350" data-name="Trazado 1239350" d="M140.888,209.2h-21.34a.928.928,0,0,1-.928-.928V206.42a.928.928,0,0,1,.928-.928h21.34a.928.928,0,0,1,.928.928v1.856A.928.928,0,0,1,140.888,209.2Z" transform="translate(-118.62 -205.492)" fill="#e69642"/>
        </g>
        <g id="Grupo_1241861" data-name="Grupo 1241861" transform="translate(7.423 27.371)">
          <path id="Trazado_1239351" data-name="Trazado 1239351" d="M145.527,281.935H119.548a.928.928,0,0,1-.928-.928v-1.856a.928.928,0,0,1,.928-.928h25.979a.928.928,0,0,1,.928.928v1.856A.928.928,0,0,1,145.527,281.935Z" transform="translate(-118.62 -278.224)" fill="#4172ca"/>
        </g>
        <g id="Grupo_1241862" data-name="Grupo 1241862" transform="translate(7.423 27.371)">
          <path id="Trazado_1239352" data-name="Trazado 1239352" d="M130.45,281.935h-10.9a.928.928,0,0,1-.928-.928v-1.856a.928.928,0,0,1,.928-.928h10.9a.928.928,0,0,1,.928.928v1.856A.928.928,0,0,1,130.45,281.935Z" transform="translate(-118.62 -278.224)" fill="#e69642"/>
        </g>
      </g>
      <g id="Grupo_1241869" data-name="Grupo 1241869" transform="translate(46.549 35.655)">
        <g id="Grupo_1241866" data-name="Grupo 1241866">
          <g id="Grupo_1241864" data-name="Grupo 1241864">
            <circle id="Elipse_12339" data-name="Elipse 12339" cx="11.134" cy="11.134" r="11.134" fill="#a2f5c3"/>
          </g>
          <g id="Grupo_1241865" data-name="Grupo 1241865" transform="translate(2.243 2.243)">
            <path id="Trazado_1239353" data-name="Trazado 1239353" d="M331.535,330.083a11.134,11.134,0,0,1-15.593,15.593,11.134,11.134,0,1,0,15.593-15.593Z" transform="translate(-315.942 -330.083)" fill="#88f2a9"/>
          </g>
        </g>
        <g id="Grupo_1241868" data-name="Grupo 1241868" transform="translate(5.129 5.129)">
          <g id="Grupo_1241867" data-name="Grupo 1241867">
            <circle id="Elipse_12340" data-name="Elipse 12340" cx="6.005" cy="6.005" r="6.005" fill="#77d192"/>
          </g>
        </g>
      </g>
      <g id="Grupo_1241870" data-name="Grupo 1241870" transform="translate(14.141 0)">
        <path id="Trazado_1239354" data-name="Trazado 1239354" d="M15,48.54a.861.861,0,0,0,.861-.861V3.18a1.46,1.46,0,0,1,1.459-1.458h27.8c.033,0,.066,0,.1,0v8.412A3.184,3.184,0,0,0,48.4,13.32h8.412c0,.033.005.066.005.1v2.072a.861.861,0,0,0,1.722,0V13.419a3.2,3.2,0,0,0-.932-2.248L47.373.932A3.16,3.16,0,0,0,45.124,0h-27.8a3.184,3.184,0,0,0-3.181,3.18v44.5A.861.861,0,0,0,15,48.54ZM55.6,11.6H48.4a1.46,1.46,0,0,1-1.458-1.458v-7.2Z" transform="translate(-14.141 0)"/>
        <path id="Trazado_1239355" data-name="Trazado 1239355" d="M49.186,276.158a2.717,2.717,0,1,0-2.717-2.717A2.72,2.72,0,0,0,49.186,276.158Zm0-3.711a.995.995,0,1,1-.995.995A1,1,0,0,1,49.186,272.446Z" transform="translate(-42.757 -239.642)"/>
        <path id="Trazado_1239356" data-name="Trazado 1239356" d="M49.186,138.775a2.717,2.717,0,1,0-2.717-2.717A2.72,2.72,0,0,0,49.186,138.775Zm0-3.711a.995.995,0,1,1-.995.995A1,1,0,0,1,49.186,135.064Z" transform="translate(-42.757 -118.033)"/>
        <path id="Trazado_1239357" data-name="Trazado 1239357" d="M49.186,203.425a2.717,2.717,0,1,0-2.717-2.717A2.72,2.72,0,0,0,49.186,203.425Zm0-3.711a.995.995,0,1,1-.995.995A1,1,0,0,1,49.186,199.714Z" transform="translate(-42.757 -175.26)"/>
        <path id="Trazado_1239358" data-name="Trazado 1239358" d="M48.258,37.758H60.32a1.791,1.791,0,0,0,1.789-1.789V34.114a1.791,1.791,0,0,0-1.789-1.789H48.258a1.791,1.791,0,0,0-1.789,1.789V35.97A1.791,1.791,0,0,0,48.258,37.758Zm-.067-3.645a.067.067,0,0,1,.067-.067H60.32a.067.067,0,0,1,.067.067V35.97a.067.067,0,0,1-.067.067H48.258a.067.067,0,0,1-.067-.067Z" transform="translate(-42.757 -28.614)"/>
        <path id="Trazado_1239359" data-name="Trazado 1239359" d="M47.33,98.7h2.783a.861.861,0,1,0,0-1.722H47.33a.861.861,0,0,0,0,1.722Z" transform="translate(-42.757 -85.842)"/>
        <path id="Trazado_1239360" data-name="Trazado 1239360" d="M112.183,97.837a.861.861,0,0,0-.861-.861H103.9a.861.861,0,1,0,0,1.722h7.423A.861.861,0,0,0,112.183,97.837Z" transform="translate(-92.832 -85.842)"/>
        <path id="Trazado_1239361" data-name="Trazado 1239361" d="M140.677,135.131a1.791,1.791,0,0,0-1.789-1.789H112.909a1.791,1.791,0,0,0-1.789,1.789v1.856a1.791,1.791,0,0,0,1.789,1.789h25.979a1.791,1.791,0,0,0,1.789-1.789Zm-27.835,1.856v-1.856a.067.067,0,0,1,.067-.067H127.29a.067.067,0,0,1,.067.067v1.856a.067.067,0,0,1-.067.067H112.909A.067.067,0,0,1,112.842,136.986Zm26.113,0a.067.067,0,0,1-.067.067h-9.812c0-.022,0-.044,0-.067v-1.856c0-.023,0-.044,0-.067h9.812a.067.067,0,0,1,.067.067v1.856Z" transform="translate(-99.986 -118.033)"/>
        <path id="Trazado_1239362" data-name="Trazado 1239362" d="M112.909,203.425h25.979a1.791,1.791,0,0,0,1.789-1.789v-1.856a1.791,1.791,0,0,0-1.789-1.789H112.909a1.791,1.791,0,0,0-1.789,1.789v1.856A1.791,1.791,0,0,0,112.909,203.425Zm26.046-3.645v1.856a.067.067,0,0,1-.067.067h-2.854c0-.022,0-.044,0-.067v-1.856c0-.023,0-.044,0-.067h2.854A.067.067,0,0,1,138.955,199.781Zm-26.113,0a.067.067,0,0,1,.067-.067h21.34a.067.067,0,0,1,.067.067v1.856a.067.067,0,0,1-.067.067h-21.34a.067.067,0,0,1-.067-.067Z" transform="translate(-99.986 -175.26)"/>
        <path id="Trazado_1239363" data-name="Trazado 1239363" d="M58.543,178.606V163.291a.861.861,0,1,0-1.722,0v15.315a11.934,11.934,0,0,0-2.041.325,1.782,1.782,0,0,0,.053-.423v-1.856a1.791,1.791,0,0,0-1.789-1.789H27.064a1.791,1.791,0,0,0-1.789,1.789v1.856a1.791,1.791,0,0,0,1.789,1.789H51.5a11.989,11.989,0,0,0,0,20.546H17.322a1.46,1.46,0,0,1-1.459-1.458v-3.906a.861.861,0,0,0-1.722,0v3.906a3.184,3.184,0,0,0,3.181,3.18h40.36a12,12,0,0,0,.861-23.959Zm-5.433-1.954v1.856a.067.067,0,0,1-.067.067H39.752c0-.022,0-.044,0-.067v-1.856c0-.023,0-.044,0-.067H53.044A.067.067,0,0,1,53.11,176.652ZM27,178.508v-1.856a.067.067,0,0,1,.067-.067h10.9a.067.067,0,0,1,.067.067v1.856a.067.067,0,0,1-.067.067h-10.9A.067.067,0,0,1,27,178.508Zm30.685,22.335a10.273,10.273,0,0,1,0-20.546h0a10.273,10.273,0,0,1,0,20.546Z" transform="translate(-14.141 -143.781)"/>
        <path id="Trazado_1239364" data-name="Trazado 1239364" d="M375.223,390.834l-1.56,1.56-.475-.475a.861.861,0,1,0-1.218,1.218l1.084,1.084a.861.861,0,0,0,1.218,0l2.168-2.168a.861.861,0,1,0-1.218-1.218Z" transform="translate(-330.664 -345.738)"/>
        <path id="Trazado_1239365" data-name="Trazado 1239365" d="M346.508,354.341a.86.86,0,0,0-.943.77,5.144,5.144,0,1,1-.784-3.3.861.861,0,1,0,1.45-.929,6.867,6.867,0,1,0,1.048,4.4A.861.861,0,0,0,346.508,354.341Z" transform="translate(-296.906 -307.797)"/>
        <path id="Trazado_1239366" data-name="Trazado 1239366" d="M219.582,362.35a.861.861,0,1,0,0-1.722h-3.555a.861.861,0,1,0,0,1.722Z" transform="translate(-192.086 -319.224)"/>
        <path id="Trazado_1239367" data-name="Trazado 1239367" d="M110.462,393.814a.861.861,0,0,0,.861.861H126.9a.861.861,0,1,0,0-1.722H111.323A.861.861,0,0,0,110.462,393.814Z" transform="translate(-99.403 -347.837)"/>
        <path id="Trazado_1239368" data-name="Trazado 1239368" d="M47.33,394.675h3.6a.861.861,0,1,0,0-1.722h-3.6a.861.861,0,1,0,0,1.722Z" transform="translate(-42.757 -347.837)"/>
        <path id="Trazado_1239369" data-name="Trazado 1239369" d="M62.987,360.628H47.33a.861.861,0,1,0,0,1.722H62.987a.861.861,0,1,0,0-1.722Z" transform="translate(-42.757 -319.224)"/>
        <path id="Trazado_1239370" data-name="Trazado 1239370" d="M47.33,427H61.4a.861.861,0,1,0,0-1.722H47.33a.861.861,0,1,0,0,1.722Z" transform="translate(-42.757 -376.451)"/>
      </g>
    </g>
  </g>
</svg>
