<svg xmlns="http://www.w3.org/2000/svg" xmlns:xlink="http://www.w3.org/1999/xlink" width="113" height="113" viewBox="0 0 113 113">
  <defs>
    <filter id="Trazado_982547" x="0" y="0" width="113" height="113" filterUnits="userSpaceOnUse">
      <feOffset dy="3" input="SourceAlpha"/>
      <feGaussianBlur stdDeviation="3" result="blur"/>
      <feFlood flood-opacity="0.161"/>
      <feComposite operator="in" in2="blur"/>
      <feComposite in="SourceGraphic"/>
    </filter>
  </defs>
  <g id="Grupo_1241890" data-name="Grupo 1241890" transform="translate(-901.292 -4891.964)">
    <g id="Grupo_1241018" data-name="Grupo 1241018" transform="translate(545.948 -7791.204)">
      <g id="Grupo_1240425" data-name="Grupo 1240425" transform="translate(364.344 12689.168)">
        <g id="Grupo_1239772" data-name="Grupo 1239772" transform="translate(0 0)">
          <g id="Grupo_1236602" data-name="Grupo 1236602">
            <g id="Grupo_1236144" data-name="Grupo 1236144">
              <g id="Grupo_1235105" data-name="Grupo 1235105">
                <g id="Grupo_1223793" data-name="Grupo 1223793">
                  <g id="Grupo_1208028" data-name="Grupo 1208028">
                    <g id="Grupo_1177675" data-name="Grupo 1177675">
                      <g id="Grupo_1176928" data-name="Grupo 1176928" transform="translate(0)">
                        <g id="Grupo_1172322" data-name="Grupo 1172322">
                          <g id="Grupo_1164700" data-name="Grupo 1164700">
                            <g id="Grupo_1160931" data-name="Grupo 1160931">
                              <g id="Grupo_1160749" data-name="Grupo 1160749">
                                <g id="Grupo_1158891" data-name="Grupo 1158891">
                                  <g id="Grupo_1157406" data-name="Grupo 1157406">
                                    <g id="Grupo_1155793" data-name="Grupo 1155793">
                                      <g id="Grupo_1154704" data-name="Grupo 1154704">
                                        <g id="Grupo_1150790" data-name="Grupo 1150790">
                                          <g id="Grupo_1154214" data-name="Grupo 1154214" transform="translate(0)">
                                            <g id="Grupo_1152583" data-name="Grupo 1152583">
                                              <g id="Grupo_1146973" data-name="Grupo 1146973">
                                                <g id="Grupo_1146954" data-name="Grupo 1146954">
                                                  <g transform="matrix(1, 0, 0, 1, -9, -6)" filter="url(#Trazado_982547)">
                                                    <g id="Trazado_982547-2" data-name="Trazado 982547" transform="translate(9 6)" fill="#d6f5fb">
                                                      <path d="M 47.50000762939453 93.49986267089844 C 41.28937911987305 93.49986267089844 35.26534271240234 92.28383636474609 29.59519386291504 89.88558197021484 C 24.11772727966309 87.56880950927734 19.19814109802246 84.25183868408203 14.97310066223145 80.02679443359375 C 10.74804782867432 75.8017578125 7.431074142456055 70.88218688964844 5.114300727844238 65.40471649169922 C 2.716034412384033 59.73458480834961 1.500007629394531 53.71054458618164 1.500007629394531 47.49993133544922 C 1.500007629394531 41.2893180847168 2.716034412384033 35.26527786254883 5.114300727844238 29.59514427185059 C 7.431074142456055 24.11767768859863 10.74804782867432 19.19810485839844 14.97310066223145 14.97306442260742 C 19.19814109802246 10.74802494049072 24.11772727966309 7.431051254272461 29.59519386291504 5.114277839660645 C 35.26534271240234 2.71602463722229 41.28937911987305 1.499997973442078 47.50000762939453 1.499997973442078 C 53.71063613891602 1.499997973442078 59.73467254638672 2.71602463722229 65.40482330322266 5.114277839660645 C 70.88228607177734 7.431051254272461 75.80187225341797 10.74802494049072 80.02691650390625 14.97306442260742 C 84.25196838378906 19.19810485839844 87.56893920898438 24.11767768859863 89.88571166992188 29.59514427185059 C 92.28398132324219 35.26527786254883 93.50000762939453 41.2893180847168 93.50000762939453 47.49993133544922 C 93.50000762939453 53.71054458618164 92.28398132324219 59.73458480834961 89.88571166992188 65.40471649169922 C 87.56893920898438 70.88218688964844 84.25196838378906 75.8017578125 80.02691650390625 80.02679443359375 C 75.80187225341797 84.25183868408203 70.88228607177734 87.56880950927734 65.40482330322266 89.88558197021484 C 59.73467254638672 92.28383636474609 53.71063613891602 93.49986267089844 47.50000762939453 93.49986267089844 Z" stroke="none"/>
                                                      <path d="M 47.50000762939453 2.999992370605469 C 41.4912223815918 2.999992370605469 35.66377639770508 4.1761474609375 30.17951202392578 6.495796203613281 C 24.88085174560547 8.736930847167969 20.12152862548828 11.94596099853516 16.03376007080078 16.03372955322266 C 11.94597625732422 20.12148284912109 8.736961364746094 24.88080596923828 6.495803833007812 30.17946624755859 C 4.176162719726562 35.66371536254883 3.000007629394531 41.49116134643555 3.000007629394531 47.49993133544922 C 3.000007629394531 53.50870132446289 4.176162719726562 59.33614730834961 6.495803833007812 64.82038879394531 C 8.736961364746094 70.11905670166016 11.94597625732422 74.87836456298828 16.03376007080078 78.96613311767578 C 20.12152862548828 83.05390167236328 24.88085174560547 86.26291656494141 30.17951202392578 88.50406646728516 C 35.66377639770508 90.82369995117188 41.4912223815918 91.99985504150391 47.50000762939453 91.99985504150391 C 53.50879287719727 91.99985504150391 59.33623886108398 90.82369995117188 64.82049560546875 88.50406646728516 C 70.11916351318359 86.26291656494141 74.87848663330078 83.05390167236328 78.96625518798828 78.96613311767578 C 83.05403900146484 74.87836456298828 86.26305389404297 70.11905670166016 88.50421142578125 64.82038879394531 C 90.8238525390625 59.33614730834961 92.00000762939453 53.50870132446289 92.00000762939453 47.49993133544922 C 92.00000762939453 41.49116134643555 90.8238525390625 35.66371536254883 88.50421142578125 30.17946624755859 C 86.26305389404297 24.88080596923828 83.05403900146484 20.12148284912109 78.96625518798828 16.03372955322266 C 74.87848663330078 11.94596099853516 70.11916351318359 8.736930847167969 64.82049560546875 6.495796203613281 C 59.33623886108398 4.1761474609375 53.50879287719727 2.999992370605469 47.50000762939453 2.999992370605469 M 47.50000762939453 -7.62939453125e-06 C 73.73352813720703 -7.62939453125e-06 95.00000762939453 21.26644134521484 95.00000762939453 47.49993133544922 C 95.00000762939453 73.73342132568359 73.73352813720703 94.99985504150391 47.50000762939453 94.99985504150391 C 21.26648712158203 94.99985504150391 7.62939453125e-06 73.73342132568359 7.62939453125e-06 47.49993133544922 C 7.62939453125e-06 21.26644134521484 21.26648712158203 -7.62939453125e-06 47.50000762939453 -7.62939453125e-06 Z" stroke="none" fill="#1d7083"/>
                                                    </g>
                                                  </g>
                                                </g>
                                              </g>
                                            </g>
                                          </g>
                                        </g>
                                      </g>
                                    </g>
                                  </g>
                                </g>
                              </g>
                            </g>
                          </g>
                        </g>
                      </g>
                    </g>
                  </g>
                </g>
              </g>
            </g>
          </g>
        </g>
      </g>
    </g>
    <g id="gestion-de-equipos_5_" data-name="gestion-de-equipos (5)" transform="translate(925.285 4912.956)">
      <g id="Grupo_1241872" data-name="Grupo 1241872" transform="translate(0.952 0.952)">
        <path id="Trazado_1239371" data-name="Trazado 1239371" d="M70.61,42V36.11l-6.684-1.392a25.07,25.07,0,0,0-1.16-4.345l5.089-4.545-2.945-5.1-6.488,2.137a25.4,25.4,0,0,0-3.176-3.176L57.384,13.2l-5.1-2.945-4.545,5.089a25.063,25.063,0,0,0-4.345-1.16L42,7.5H36.11l-1.392,6.684a25.077,25.077,0,0,0-4.345,1.16l-4.545-5.089-5.1,2.945,2.137,6.488a25.391,25.391,0,0,0-3.176,3.176L13.2,20.727l-2.945,5.1,5.089,4.545a25.052,25.052,0,0,0-1.16,4.345L7.5,36.11V42l6.684,1.392a25.07,25.07,0,0,0,1.16,4.345l-5.089,4.545,2.945,5.1,6.488-2.137a25.391,25.391,0,0,0,3.176,3.176L20.727,64.91l5.1,2.945,4.545-5.089a25.064,25.064,0,0,0,4.345,1.16l1.392,6.684H42l1.392-6.684a25.08,25.08,0,0,0,4.345-1.16l4.545,5.089,5.1-2.945-2.137-6.488a25.391,25.391,0,0,0,3.176-3.176l6.488,2.137,2.945-5.1-5.089-4.545a25.052,25.052,0,0,0,1.16-4.345ZM39.055,60.22A21.165,21.165,0,1,1,60.22,39.055,21.165,21.165,0,0,1,39.055,60.22Z" transform="translate(-7.5 -7.5)" fill="#d3effd"/>
      </g>
      <g id="Grupo_1241874" data-name="Grupo 1241874" transform="translate(14.179 14.179)">
        <g id="Grupo_1241873" data-name="Grupo 1241873">
          <path id="Trazado_1239372" data-name="Trazado 1239372" d="M161.547,132.936v-5.89l-6.684-1.392a25.07,25.07,0,0,0-1.16-4.345l5.089-4.545-2.945-5.1-6.012,1.98a28.533,28.533,0,0,1,1.195,14.025,21.387,21.387,0,0,1,.127,2.323,21.165,21.165,0,0,1-21.165,21.165,21.385,21.385,0,0,1-2.323-.127,28.534,28.534,0,0,1-14.025-1.195l-1.98,6.012,5.1,2.945,4.545-5.089a25.065,25.065,0,0,0,4.345,1.16l1.392,6.684h5.89l1.392-6.684a25.081,25.081,0,0,0,4.345-1.16l4.545,5.089,5.1-2.945-2.137-6.488a25.389,25.389,0,0,0,3.176-3.176l6.488,2.137,2.945-5.1-5.089-4.545a25.05,25.05,0,0,0,1.16-4.345Z" transform="translate(-111.664 -111.663)" fill="#b2e5fb"/>
        </g>
      </g>
      <g id="Grupo_1241888" data-name="Grupo 1241888" transform="translate(13.486 21.255)">
        <g id="Grupo_1241878" data-name="Grupo 1241878" transform="translate(21.433 2.947)">
          <g id="Grupo_1241875" data-name="Grupo 1241875" transform="translate(0 10.717)">
            <path id="Trazado_1239373" data-name="Trazado 1239373" d="M291.6,281.852v-2.041a4.822,4.822,0,0,0-4.822-4.822H279.81a4.822,4.822,0,0,0-4.822,4.822V293.6A21.214,21.214,0,0,0,291.6,281.852Z" transform="translate(-274.988 -274.989)" fill="#88f2a9"/>
          </g>
          <g id="Grupo_1241876" data-name="Grupo 1241876" transform="translate(2.947)">
            <circle id="Elipse_12341" data-name="Elipse 12341" cx="5.358" cy="5.358" r="5.358" fill="#fed2a4"/>
          </g>
          <g id="Grupo_1241877" data-name="Grupo 1241877" transform="translate(3.576 0.629)">
            <path id="Trazado_1239374" data-name="Trazado 1239374" d="M310.4,195.547a5.359,5.359,0,0,1-7.249,7.249,5.358,5.358,0,1,0,7.249-7.249Z" transform="translate(-303.149 -195.547)" fill="#ffbd86"/>
          </g>
        </g>
        <g id="Grupo_1241882" data-name="Grupo 1241882" transform="translate(0 2.947)">
          <g id="Grupo_1241879" data-name="Grupo 1241879" transform="translate(0 10.717)">
            <path id="Trazado_1239375" data-name="Trazado 1239375" d="M106.2,281.852v-2.041a4.822,4.822,0,0,1,4.822-4.822h6.966a4.822,4.822,0,0,1,4.822,4.822V293.6A21.214,21.214,0,0,1,106.2,281.852Z" transform="translate(-106.202 -274.989)" fill="#88f2a9"/>
          </g>
          <g id="Grupo_1241880" data-name="Grupo 1241880" transform="translate(2.947)">
            <circle id="Elipse_12342" data-name="Elipse 12342" cx="5.358" cy="5.358" r="5.358" fill="#fed2a4"/>
          </g>
          <g id="Grupo_1241881" data-name="Grupo 1241881" transform="translate(3.576 0.629)">
            <path id="Trazado_1239376" data-name="Trazado 1239376" d="M134.362,202.8a5.359,5.359,0,0,0,7.249-7.249,5.358,5.358,0,1,1-7.249,7.249Z" transform="translate(-134.362 -195.547)" fill="#ffbd86"/>
          </g>
        </g>
        <g id="Grupo_1241887" data-name="Grupo 1241887" transform="translate(10.716)">
          <g id="Grupo_1241883" data-name="Grupo 1241883" transform="translate(0 10.716)">
            <path id="Trazado_1239377" data-name="Trazado 1239377" d="M207.206,256.6a4.822,4.822,0,0,0-4.822-4.822h-6.966a4.822,4.822,0,0,0-4.822,4.822v15.18a21.153,21.153,0,0,0,16.611,0Z" transform="translate(-190.595 -251.78)" fill="#62a4fb"/>
          </g>
          <g id="Grupo_1241884" data-name="Grupo 1241884" transform="translate(8.305 10.716)">
            <path id="Trazado_1239378" data-name="Trazado 1239378" d="M259.483,251.78H256a4.822,4.822,0,0,1,4.822,4.822v16.324a20.994,20.994,0,0,0,3.483-1.144V256.6A4.822,4.822,0,0,0,259.483,251.78Z" transform="translate(-256 -251.78)" fill="#5392f9"/>
          </g>
          <g id="Grupo_1241885" data-name="Grupo 1241885" transform="translate(2.947)">
            <circle id="Elipse_12343" data-name="Elipse 12343" cx="5.358" cy="5.358" r="5.358" fill="#fed2a4"/>
          </g>
          <g id="Grupo_1241886" data-name="Grupo 1241886" transform="translate(3.576 0.629)">
            <path id="Trazado_1239379" data-name="Trazado 1239379" d="M226,172.339a5.359,5.359,0,0,1-7.249,7.249A5.358,5.358,0,1,0,226,172.339Z" transform="translate(-218.755 -172.339)" fill="#ffbd86"/>
          </g>
        </g>
      </g>
      <g id="Grupo_1241889" data-name="Grupo 1241889" transform="translate(0 0)">
        <path id="Trazado_1239380" data-name="Trazado 1239380" d="M64.257,28.63,58.2,27.368a26.071,26.071,0,0,0-.87-3.257l4.613-4.12a.953.953,0,0,0,.19-1.187l-2.945-5.1a.952.952,0,0,0-1.123-.428l-5.883,1.938A26.429,26.429,0,0,0,49.8,12.833L51.74,6.951a.952.952,0,0,0-.428-1.123l-5.1-2.945a.953.953,0,0,0-1.187.19L40.9,7.686a26.128,26.128,0,0,0-3.257-.87L36.385.758A.953.953,0,0,0,35.453,0h-5.89a.952.952,0,0,0-.932.758L27.368,6.817a26.084,26.084,0,0,0-3.257.87l-4.12-4.613a.953.953,0,0,0-1.187-.19L13.7,5.828a.952.952,0,0,0-.428,1.123l1.938,5.883a26.428,26.428,0,0,0-2.379,2.379L6.951,13.275a.952.952,0,0,0-1.123.428L2.883,18.8a.953.953,0,0,0,.19,1.187l4.613,4.12a26.114,26.114,0,0,0-.87,3.257L.758,28.63A.953.953,0,0,0,0,29.562v5.89a.952.952,0,0,0,.758.932l6.058,1.262a26.07,26.07,0,0,0,.87,3.257l-4.613,4.12a.953.953,0,0,0-.19,1.187l2.945,5.1a.952.952,0,0,0,1.123.428L12.833,49.8a26.428,26.428,0,0,0,2.379,2.379l-1.938,5.883a.952.952,0,0,0,.428,1.123l5.1,2.945a.953.953,0,0,0,1.187-.19l4.12-4.613a26.128,26.128,0,0,0,3.257.87l1.262,6.058a.952.952,0,0,0,.932.758h5.89a.952.952,0,0,0,.932-.758L37.647,58.2a26.084,26.084,0,0,0,3.257-.87l4.12,4.613a.952.952,0,0,0,1.187.19l5.1-2.945a.952.952,0,0,0,.428-1.123L49.8,52.182A26.428,26.428,0,0,0,52.182,49.8l5.883,1.938a.952.952,0,0,0,1.123-.428l2.945-5.1a.953.953,0,0,0-.19-1.187L57.329,40.9a26.114,26.114,0,0,0,.87-3.257l6.058-1.262a.952.952,0,0,0,.758-.932v-5.89a.952.952,0,0,0-.758-.933ZM63.11,34.678l-5.925,1.234a.952.952,0,0,0-.744.77,24.175,24.175,0,0,1-1.116,4.18.952.952,0,0,0,.26,1.038L60.1,45.929l-2.171,3.76-5.753-1.895a.952.952,0,0,0-1.028.293,24.527,24.527,0,0,1-3.057,3.057.952.952,0,0,0-.293,1.028l1.895,5.753L45.929,60.1,41.9,55.585a.952.952,0,0,0-1.038-.26,24.176,24.176,0,0,1-4.18,1.116.952.952,0,0,0-.77.744L34.678,63.11H30.337L29.1,57.185a.952.952,0,0,0-.77-.744,24.173,24.173,0,0,1-4.18-1.116.952.952,0,0,0-1.038.26L19.086,60.1l-3.76-2.171,1.895-5.753a.952.952,0,0,0-.293-1.028,24.527,24.527,0,0,1-3.057-3.057.953.953,0,0,0-1.028-.293L7.09,49.689l-2.171-3.76L9.431,41.9a.952.952,0,0,0,.26-1.038,24.175,24.175,0,0,1-1.116-4.18.952.952,0,0,0-.744-.77L1.9,34.678V30.337L7.83,29.1a.952.952,0,0,0,.744-.77,24.175,24.175,0,0,1,1.116-4.18.952.952,0,0,0-.26-1.038L4.919,19.086l2.171-3.76,5.753,1.895a.951.951,0,0,0,1.028-.293,24.527,24.527,0,0,1,3.057-3.057.952.952,0,0,0,.293-1.028L15.326,7.09l3.76-2.171,4.029,4.511a.953.953,0,0,0,1.038.26,24.176,24.176,0,0,1,4.18-1.116.952.952,0,0,0,.77-.744L30.337,1.9h4.341L35.913,7.83a.952.952,0,0,0,.77.744,24.173,24.173,0,0,1,4.18,1.116.953.953,0,0,0,1.038-.26l4.029-4.511,3.76,2.171-1.895,5.753a.952.952,0,0,0,.293,1.028,24.526,24.526,0,0,1,3.057,3.057.953.953,0,0,0,1.028.293l5.753-1.895,2.171,3.76-4.511,4.029a.952.952,0,0,0-.26,1.038,24.175,24.175,0,0,1,1.116,4.18.952.952,0,0,0,.744.77l5.925,1.234Z" transform="translate(0 0)"/>
        <path id="Trazado_1239381" data-name="Trazado 1239381" d="M126.056,103.938a22.158,22.158,0,0,0-4.925-13.914.952.952,0,0,0-1.48,1.2,20.227,20.227,0,0,1,3.849,17.81,5.791,5.791,0,0,0-4.412-3.557,6.306,6.306,0,1,0-9-8.836,6.309,6.309,0,0,0-12.3,0,6.306,6.306,0,1,0-9,8.836,5.792,5.792,0,0,0-4.412,3.557,20.214,20.214,0,0,1,32.277-20.809.952.952,0,1,0,1.2-1.48,22.115,22.115,0,0,0-33.784,26.9l.013.027a22.112,22.112,0,0,0,39.714,0l.013-.027A21.983,21.983,0,0,0,126.056,103.938Zm-11.4-7.353a4.406,4.406,0,1,1-4.406,4.406A4.411,4.411,0,0,1,114.654,96.585Zm-10.717-2.947a4.406,4.406,0,1,1-4.406,4.406A4.411,4.411,0,0,1,103.938,93.638ZM93.221,96.585a4.406,4.406,0,1,1-4.406,4.406A4.411,4.411,0,0,1,93.221,96.585Zm7.65,27.334V110.77a.952.952,0,1,0-1.9,0v12.762a20.038,20.038,0,0,1-2.381-.765v-7.33a.952.952,0,1,0-1.9,0V121.9a20.309,20.309,0,0,1-4.526-3.195v-5.26a.952.952,0,1,0-1.9,0v3.22a20.274,20.274,0,0,1-2.382-3.679v-1.818a3.874,3.874,0,0,1,3.87-3.87h5.017a5.794,5.794,0,0,0-.075.923v2.767a.952.952,0,1,0,1.9,0v-2.767a3.874,3.874,0,0,1,3.869-3.87h6.966a3.874,3.874,0,0,1,3.869,3.87v6.855a.952.952,0,1,0,1.9,0v-6.855a5.794,5.794,0,0,0-.075-.923h5.017a3.874,3.874,0,0,1,3.87,3.87v1.818a20.275,20.275,0,0,1-2.382,3.679v-3.22a.952.952,0,0,0-1.9,0v5.26A20.308,20.308,0,0,1,113.2,121.9v-2.379a.952.952,0,1,0-1.9,0v3.243a20.041,20.041,0,0,1-2.381.765V110.77a.952.952,0,0,0-1.9,0v13.149a20.359,20.359,0,0,1-6.133,0Z" transform="translate(-71.43 -71.43)"/>
      </g>
    </g>
  </g>
</svg>
