<svg xmlns="http://www.w3.org/2000/svg" xmlns:xlink="http://www.w3.org/1999/xlink" width="103" height="103" viewBox="0 0 103 103">
  <defs>
    <filter id="Trazado_978624" x="0" y="0" width="103" height="103" filterUnits="userSpaceOnUse">
      <feOffset dy="3" input="SourceAlpha"/>
      <feGaussianBlur stdDeviation="3" result="blur"/>
      <feFlood flood-opacity="0.161"/>
      <feComposite operator="in" in2="blur"/>
      <feComposite in="SourceGraphic"/>
    </filter>
  </defs>
  <g id="Grupo_1241491" data-name="Grupo 1241491" transform="translate(-723 -4859)">
    <g id="Grupo_1235109" data-name="Grupo 1235109" transform="translate(552 594)">
      <g id="Grupo_1233827" data-name="Grupo 1233827" transform="translate(0 2673)">
        <g id="Grupo_1228308" data-name="Grupo 1228308" transform="translate(0 579)">
          <g id="Grupo_1220654" data-name="Grupo 1220654" transform="translate(180 1019)">
            <g id="Grupo_1176881" data-name="Grupo 1176881">
              <g id="Grupo_1175148" data-name="Grupo 1175148">
                <g id="Grupo_1173798" data-name="Grupo 1173798">
                  <g id="Grupo_1171925" data-name="Grupo 1171925">
                    <g id="Grupo_1164524" data-name="Grupo 1164524">
                      <g id="Grupo_1144123" data-name="Grupo 1144123">
                        <g transform="matrix(1, 0, 0, 1, -9, -6)" filter="url(#Trazado_978624)">
                          <g id="Trazado_978624-2" data-name="Trazado 978624" transform="translate(9 6)" fill="#f2f7e5">
                            <path d="M 42.5 83.5 C 36.96437835693359 83.5 31.59512901306152 82.41617584228516 26.54141235351562 80.27863311767578 C 21.65934181213379 78.21369171142578 17.27447128295898 75.25723266601562 13.50862312316895 71.49137878417969 C 9.742764472961426 67.72553253173828 6.786305904388428 63.34066009521484 4.721364498138428 58.45858764648438 C 2.583823442459106 53.40486907958984 1.5 48.03562164306641 1.5 42.5 C 1.5 36.96437835693359 2.583823442459106 31.59512901306152 4.721364498138428 26.54141235351562 C 6.786305904388428 21.65934181213379 9.742764472961426 17.27447128295898 13.50862312316895 13.50862312316895 C 17.27447128295898 9.742764472961426 21.65934181213379 6.786305904388428 26.54141235351562 4.721364498138428 C 31.59512901306152 2.583823442459106 36.96437835693359 1.5 42.5 1.5 C 48.03562164306641 1.5 53.40486907958984 2.583823442459106 58.45858764648438 4.721364498138428 C 63.34066009521484 6.786305904388428 67.72553253173828 9.742764472961426 71.49137878417969 13.50862312316895 C 75.25723266601562 17.27447128295898 78.21369171142578 21.65934181213379 80.27863311767578 26.54141235351562 C 82.41617584228516 31.59512901306152 83.5 36.96437835693359 83.5 42.5 C 83.5 48.03562164306641 82.41617584228516 53.40486907958984 80.27863311767578 58.45858764648438 C 78.21369171142578 63.34066009521484 75.25723266601562 67.72553253173828 71.49137878417969 71.49137878417969 C 67.72553253173828 75.25723266601562 63.34066009521484 78.21369171142578 58.45858764648438 80.27863311767578 C 53.40486907958984 82.41617584228516 48.03562164306641 83.5 42.5 83.5 Z" stroke="none"/>
                            <path d="M 42.5 3 C 37.16621398925781 3 31.99356079101562 4.043960571289062 27.125732421875 6.102882385253906 C 22.42246627807617 8.092185974121094 18.19785308837891 10.94070434570312 14.56928253173828 14.56928253173828 C 10.94070434570312 18.19785308837891 8.092185974121094 22.42246627807617 6.102882385253906 27.125732421875 C 4.043960571289062 31.99356079101562 3 37.16621398925781 3 42.5 C 3 47.83378601074219 4.043960571289062 53.00643920898438 6.102882385253906 57.87425231933594 C 8.092185974121094 62.57753372192383 10.94070434570312 66.80213165283203 14.56928253173828 70.43071746826172 C 18.19786834716797 74.05929565429688 22.42246627807617 76.90781402587891 27.125732421875 78.89711761474609 C 31.99356079101562 80.95603942871094 37.16621398925781 82 42.5 82 C 47.83378601074219 82 53.00642395019531 80.95603942871094 57.87425231933594 78.89711761474609 C 62.57753372192383 76.90781402587891 66.80213165283203 74.05929565429688 70.43071746826172 70.43071746826172 C 74.05929565429688 66.80213165283203 76.90781402587891 62.57753372192383 78.89711761474609 57.87425231933594 C 80.95603942871094 53.00642395019531 82 47.83378601074219 82 42.5 C 82 37.16621398925781 80.95603942871094 31.99356079101562 78.89711761474609 27.125732421875 C 76.90781402587891 22.42246627807617 74.05929565429688 18.19786834716797 70.43071746826172 14.56928253173828 C 66.80213165283203 10.94070434570312 62.57753372192383 8.092185974121094 57.87425231933594 6.102882385253906 C 53.00643920898438 4.043960571289062 47.83378601074219 3 42.5 3 M 42.5 0 C 65.97209167480469 0 85 19.02789306640625 85 42.5 C 85 65.97209167480469 65.97209167480469 85 42.5 85 C 19.02789306640625 85 0 65.97209167480469 0 42.5 C 0 19.02789306640625 19.02789306640625 0 42.5 0 Z" stroke="none" fill="#496406"/>
                          </g>
                        </g>
                      </g>
                    </g>
                  </g>
                </g>
              </g>
            </g>
          </g>
        </g>
      </g>
    </g>
    <g id="servicios_1_" data-name="servicios (1)" transform="translate(747.079 4878.623)">
      <path id="Trazado_1238670" data-name="Trazado 1238670" d="M81.109,302.651l-11.785,7.887-3.512-.2-.137-1.383a4.488,4.488,0,0,0-3.837-4l-9.41-1.084a16.86,16.86,0,0,1-6.153-2.141,16.87,16.87,0,0,0-8.517-2.308H30.972v15.487L48.9,321.7a4.876,4.876,0,0,0,2.085.139l.013,0,18.053-2.6a7.983,7.983,0,0,0,3.789-1.7l11.668-10.494a2.786,2.786,0,0,0-3.4-4.4Zm0,0" transform="translate(-27.411 -264.991)" fill="#ffe8c2"/>
      <path id="Trazado_1238671" data-name="Trazado 1238671" d="M84.71,331.137l-11.865,8.378a7.986,7.986,0,0,1-3.789,1.7L51,343.815l-.013,0a4.884,4.884,0,0,1-2.085-.139l-17.932-6.791v6.09L48.9,349.768a4.877,4.877,0,0,0,2.085.139l.013,0,18.053-2.6a7.982,7.982,0,0,0,3.789-1.7L84.513,335.11a2.786,2.786,0,0,0,.453-3.65,2.846,2.846,0,0,0-.257-.323Zm0,0" transform="translate(-27.411 -293.055)" fill="#efd5af"/>
      <path id="Trazado_1238672" data-name="Trazado 1238672" d="M13.538,296.558H8.3a.949.949,0,0,1-.949-.949v-21.12a.949.949,0,0,1,.949-.949h5.234a.949.949,0,0,1,.949.949v21.121A.949.949,0,0,1,13.538,296.558Zm0,0" transform="translate(-6.51 -242.081)" fill="#ff9248"/>
      <path id="Trazado_1238673" data-name="Trazado 1238673" d="M7.355,425.883a.949.949,0,0,0,.949.949h5.234a.949.949,0,0,0,.949-.949v-5.141H7.355Zm0,0" transform="translate(-6.51 -372.355)" fill="#f97c28"/>
      <path id="Trazado_1238674" data-name="Trazado 1238674" d="M141,23.98A16.625,16.625,0,1,1,124.378,7.355,16.625,16.625,0,0,1,141,23.98Zm0,0" transform="translate(-95.361 -6.509)" fill="#88dbfd"/>
      <path id="Trazado_1238675" data-name="Trazado 1238675" d="M228.884,7.355a16.7,16.7,0,0,0-3.045.279,16.627,16.627,0,0,1,0,32.691,16.626,16.626,0,1,0,3.045-32.971Zm0,0" transform="translate(-199.867 -6.509)" fill="#5abfe9"/>
      <path id="Trazado_1238676" data-name="Trazado 1238676" d="M117.869,34.942A17.471,17.471,0,1,0,100.4,17.471,17.491,17.491,0,0,0,117.869,34.942ZM103.3,23.544h6.759a25.263,25.263,0,0,0,1.759,6.029,13.3,13.3,0,0,0,1.894,3.123A15.852,15.852,0,0,1,103.3,23.544ZM117.869,1.692c1.615,0,3.256,1.593,4.5,4.37a23.247,23.247,0,0,1,1.587,5.337H111.781a23.247,23.247,0,0,1,1.587-5.337c1.246-2.777,2.886-4.37,4.5-4.37Zm6.345,11.4a36.156,36.156,0,0,1,0,8.762H111.523a36.216,36.216,0,0,1,0-8.762Zm9.433,4.381a15.727,15.727,0,0,1-.619,4.381h-7.111a37.8,37.8,0,0,0,0-8.761h7.111A15.724,15.724,0,0,1,133.648,17.471ZM117.869,33.25c-1.615,0-3.256-1.593-4.5-4.37a23.247,23.247,0,0,1-1.587-5.337h12.176a23.247,23.247,0,0,1-1.587,5.337C121.125,31.657,119.484,33.25,117.869,33.25Zm-8.049-11.4h-7.111a15.82,15.82,0,0,1,0-8.761h7.111a37.8,37.8,0,0,0,0,8.761ZM122.02,32.7a13.286,13.286,0,0,0,1.894-3.123,25.264,25.264,0,0,0,1.759-6.029h6.759A15.85,15.85,0,0,1,122.02,32.7Zm10.412-21.3h-6.759a25.268,25.268,0,0,0-1.759-6.029,13.286,13.286,0,0,0-1.894-3.123A15.851,15.851,0,0,1,132.433,11.4ZM113.718,2.246a13.3,13.3,0,0,0-1.894,3.123,25.269,25.269,0,0,0-1.76,6.029h-6.759a15.85,15.85,0,0,1,10.412-9.152Zm0,0" transform="translate(-88.852)"/>
      <path id="Trazado_1238677" data-name="Trazado 1238677" d="M7.029,266.184H1.8A1.8,1.8,0,0,0,0,267.979V289.1a1.8,1.8,0,0,0,1.8,1.8H7.029a1.8,1.8,0,0,0,1.8-1.8V267.979A1.8,1.8,0,0,0,7.029,266.184Zm.1,22.916a.1.1,0,0,1-.1.1H1.8a.1.1,0,0,1-.1-.1V267.979a.1.1,0,0,1,.1-.1H7.029a.1.1,0,0,1,.1.1Zm0,0" transform="translate(0 -235.572)"/>
      <path id="Trazado_1238678" data-name="Trazado 1238678" d="M139.3,296.654a3.64,3.64,0,0,0-5.027-.973l-11.55,7.73-2.507-.141-.066-.662a5.32,5.32,0,0,0-4.56-4.753l-.022,0-9.4-1.082a15.94,15.94,0,0,1-5.834-2.033,17.8,17.8,0,0,0-7.862-2.391.846.846,0,0,0-.1,1.689,16.1,16.1,0,0,1,7.11,2.162,17.63,17.63,0,0,0,6.462,2.249l.022,0,9.4,1.082a3.633,3.633,0,0,1,3.1,3.244l.059.591L105.2,305.523l-5.784-1.42a.846.846,0,0,0-.4,1.643l5.951,1.46a.85.85,0,0,0,.336.013l14.19-2.3,3.42.192a.844.844,0,0,0,.518-.142l11.786-7.888a1.94,1.94,0,0,1,2.366,3.064l-11.653,10.48a7.147,7.147,0,0,1-3.367,1.5l-18.046,2.6H104.5l-.013,0a3.991,3.991,0,0,1-1.689-.108l-9.494-3.6a.846.846,0,1,0-.6,1.582l9.53,3.609a.627.627,0,0,0,.07.023,5.867,5.867,0,0,0,1.6.227,5.477,5.477,0,0,0,.849-.066h.007l18.048-2.6.013,0a8.846,8.846,0,0,0,4.191-1.878l.031-.027,11.664-10.49a3.641,3.641,0,0,0,.591-4.759Zm0,0" transform="translate(-81.041 -258.725)"/>
    </g>
  </g>
</svg>
