<svg xmlns="http://www.w3.org/2000/svg" xmlns:xlink="http://www.w3.org/1999/xlink" width="108" height="108" viewBox="0 0 108 108">
  <defs>
    <filter id="Trazado_904820" x="0" y="0" width="108" height="108" filterUnits="userSpaceOnUse">
      <feOffset dy="3" input="SourceAlpha"/>
      <feGaussianBlur stdDeviation="3" result="blur"/>
      <feFlood flood-opacity="0.161"/>
      <feComposite operator="in" in2="blur"/>
      <feComposite in="SourceGraphic"/>
    </filter>
  </defs>
  <g id="Grupo_1241290" data-name="Grupo 1241290" transform="translate(-621 -868)">
    <g id="Grupo_1235058" data-name="Grupo 1235058" transform="translate(4 48.545)">
      <g id="Grupo_1233818" data-name="Grupo 1233818" transform="translate(0 13.455)">
        <g id="Grupo_1228307" data-name="Grupo 1228307" transform="translate(0 -3017.921)">
          <g id="Grupo_1228100" data-name="Grupo 1228100" transform="translate(626 3829.921)">
            <g id="Grupo_1221597" data-name="Grupo 1221597" transform="translate(0 0)">
              <g id="Grupo_1219744" data-name="Grupo 1219744">
                <g id="Grupo_1202418" data-name="Grupo 1202418">
                  <g id="Grupo_1177315" data-name="Grupo 1177315">
                    <g id="Grupo_1173585" data-name="Grupo 1173585">
                      <g id="Grupo_1173428" data-name="Grupo 1173428">
                        <g id="Grupo_1171958" data-name="Grupo 1171958">
                          <g id="Grupo_1167341" data-name="Grupo 1167341">
                            <g id="Grupo_1166792" data-name="Grupo 1166792">
                              <g transform="matrix(1, 0, 0, 1, -9, -6)" filter="url(#Trazado_904820)">
                                <g id="Trazado_904820-2" data-name="Trazado 904820" transform="translate(9 6)" fill="#f6f3ef">
                                  <path d="M 44.99999618530273 88.49995422363281 C 39.12687301635742 88.49995422363281 33.43022155761719 87.35002899169922 28.06829643249512 85.08213043212891 C 22.88852119445801 82.89126586914062 18.23629570007324 79.75455474853516 14.24084663391113 75.75910186767578 C 10.24540901184082 71.76364898681641 7.108683586120605 67.11144256591797 4.917821407318115 61.93166351318359 C 2.649921178817749 56.56974029541016 1.499996185302734 50.87310028076172 1.499996185302734 44.99997711181641 C 1.499996185302734 39.12685394287109 2.649921178817749 33.43021392822266 4.917821407318115 28.06828880310059 C 7.108683586120605 22.88851547241211 10.24540901184082 18.23630142211914 14.24084663391113 14.24085235595703 C 18.23629570007324 10.24540233612061 22.88852119445801 7.108689785003662 28.06829643249512 4.917827129364014 C 33.43022155761719 2.649927139282227 39.12687301635742 1.500002145767212 44.99999618530273 1.500002145767212 C 50.87311935424805 1.500002145767212 56.56977081298828 2.649927139282227 61.93169784545898 4.917827129364014 C 67.11147308349609 7.108689785003662 71.76369476318359 10.24540233612061 75.75914764404297 14.24085235595703 C 79.75458526611328 18.23630142211914 82.89131164550781 22.88851547241211 85.08216857910156 28.06828880310059 C 87.35007476806641 33.43021392822266 88.5 39.12685394287109 88.5 44.99997711181641 C 88.5 50.87310028076172 87.35007476806641 56.56974029541016 85.08216857910156 61.93166351318359 C 82.89131164550781 67.11144256591797 79.75458526611328 71.76364898681641 75.75914764404297 75.75910186767578 C 71.76369476318359 79.75455474853516 67.11147308349609 82.89126586914062 61.93169784545898 85.08213043212891 C 56.56977081298828 87.35002899169922 50.87311935424805 88.49995422363281 44.99999618530273 88.49995422363281 Z" stroke="none"/>
                                  <path d="M 44.99999618530273 2.999992370605469 C 39.32870864868164 2.999992370605469 33.82865142822266 4.11004638671875 28.65262603759766 6.299331665039062 C 23.65165710449219 8.414566040039062 19.15968322753906 11.44333648681641 15.301513671875 15.30150604248047 C 11.44333648681641 19.15967559814453 8.414566040039062 23.65163421630859 6.299339294433594 28.65260696411133 C 4.110054016113281 33.82864761352539 2.999992370605469 39.32868957519531 2.999992370605469 44.99997711181641 C 2.999992370605469 50.6712646484375 4.110054016113281 56.17130661010742 6.299339294433594 61.34733581542969 C 8.414566040039062 66.34830474853516 11.44333648681641 70.84026336669922 15.301513671875 74.69844818115234 C 19.15968322753906 78.55661773681641 23.65165710449219 81.58537292480469 28.65262603759766 83.70062255859375 C 33.82865142822266 85.889892578125 39.32870864868164 86.99994659423828 44.99999618530273 86.99994659423828 C 50.67128372192383 86.99994659423828 56.17134094238281 85.889892578125 61.34736633300781 83.70062255859375 C 66.34834289550781 81.58537292480469 70.84030914306641 78.55661773681641 74.69847869873047 74.69844818115234 C 78.55665588378906 70.84026336669922 81.58542633056641 66.34830474853516 83.70065307617188 61.34733581542969 C 85.88993835449219 56.17130661010742 87 50.6712646484375 87 44.99997711181641 C 87 39.32868957519531 85.88993835449219 33.82864761352539 83.70065307617188 28.65260696411133 C 81.58542633056641 23.65163421630859 78.55665588378906 19.15967559814453 74.69847869873047 15.30150604248047 C 70.84030914306641 11.44333648681641 66.34834289550781 8.414566040039062 61.34736633300781 6.299331665039062 C 56.17134094238281 4.11004638671875 50.67128372192383 2.999992370605469 44.99999618530273 2.999992370605469 M 44.99999618530273 -7.62939453125e-06 C 69.85281372070312 -7.62939453125e-06 90 20.14717864990234 90 44.99997711181641 C 90 69.85277557373047 69.85281372070312 89.99994659423828 44.99999618530273 89.99994659423828 C 20.14717864990234 89.99994659423828 -7.62939453125e-06 69.85277557373047 -7.62939453125e-06 44.99997711181641 C -7.62939453125e-06 20.14717864990234 20.14717864990234 -7.62939453125e-06 44.99999618530273 -7.62939453125e-06 Z" stroke="none" fill="#7b776f"/>
                                </g>
                              </g>
                            </g>
                          </g>
                        </g>
                      </g>
                    </g>
                  </g>
                </g>
              </g>
            </g>
          </g>
        </g>
      </g>
    </g>
    <g id="inteligencia_1_" data-name="inteligencia (1)" transform="translate(645 893)">
      <path id="Trazado_1238143" data-name="Trazado 1238143" d="M124,176.67c-1.77-.26-3.76-.45-5.89-.56-1.32-.07-2.7-.11-4.11-.11s-2.79.04-4.11.11c-2.13.11-4.12.3-5.89.56-4.82.72-8,1.94-8,3.33,0,2.21,8.06,4,18,4s18-1.79,18-4C132,178.609,128.82,177.39,124,176.67Zm0,0" transform="translate(-84 -154)" fill="#ffb655"/>
      <path id="Trazado_1238144" data-name="Trazado 1238144" d="M444,10a2,2,0,1,1-2-2A2,2,0,0,1,444,10Zm0,0" transform="translate(-385 -7)" fill="#ff5023"/>
      <path id="Trazado_1238145" data-name="Trazado 1238145" d="M444,106a2,2,0,1,1-2-2A2,2,0,0,1,444,106Zm0,0" transform="translate(-385 -91)" fill="#ff5023"/>
      <path id="Trazado_1238146" data-name="Trazado 1238146" d="M383.792,232a4,4,0,0,1,0,8h-.03c.02-.33.03-.67.03-1Zm0,0" transform="translate(-335.792 -203)" fill="#ffb655"/>
      <path id="Trazado_1238147" data-name="Trazado 1238147" d="M132,211v7c0,.33-.01.67-.03,1A17.99,17.99,0,0,1,104,232.96a17.729,17.729,0,0,1-2.73-2.23A17.988,17.988,0,0,1,96.03,219c-.02-.33-.03-.67-.03-1V208c0,2.21,8.06,4,18,4s18-1.79,18-4Zm0,0" transform="translate(-84 -182)" fill="#ffc477"/>
      <path id="Trazado_1238148" data-name="Trazado 1238148" d="M180,407.68v8.04H160v-8.04A17.966,17.966,0,0,0,180,407.68Zm0,0" transform="translate(-140 -356.72)" fill="#ffc477"/>
      <path id="Trazado_1238149" data-name="Trazado 1238149" d="M251,17V13l-2-2h-3l-1-3h-3l-2,2V32l2,2h3l1-3,4-1V28l3-3V20Zm0,0" transform="translate(-210 -7)" fill="#ed539d"/>
      <path id="Trazado_1238150" data-name="Trazado 1238150" d="M147,8h-3l-1,3h-3l-2,2v4l-2,3v5l3,3v2l4,1,1,3h3l2-2V10Zm0,0" transform="translate(-119 -7)" fill="#ea348b"/>
      <path id="Trazado_1238151" data-name="Trazado 1238151" d="M68.03,240H68a4,4,0,0,1,0-8v7C68,239.33,68.01,239.67,68.03,240Zm0,0" transform="translate(-56 -203)" fill="#ffb655"/>
      <path id="Trazado_1238152" data-name="Trazado 1238152" d="M12,10a2,2,0,1,1-2-2A2,2,0,0,1,12,10Zm0,0" transform="translate(-7 -7)" fill="#ff5023"/>
      <path id="Trazado_1238153" data-name="Trazado 1238153" d="M12,106a2,2,0,1,1-2-2A2,2,0,0,1,12,106Zm0,0" transform="translate(-7 -91)" fill="#ff5023"/>
      <path id="Trazado_1238154" data-name="Trazado 1238154" d="M219,289a3,3,0,0,0,3-3v-6h-2v6a1,1,0,0,1-2,0v-6h-2v6A3,3,0,0,0,219,289Zm0,0" transform="translate(-189 -245)"/>
      <path id="Trazado_1238155" data-name="Trazado 1238155" d="M291,264a3,3,0,0,0-3,3h2a1,1,0,0,1,2,0h2A3,3,0,0,0,291,264Zm0,0" transform="translate(-252 -231)"/>
      <path id="Trazado_1238156" data-name="Trazado 1238156" d="M147,264a3,3,0,0,0-3,3h2a1,1,0,0,1,2,0h2A3,3,0,0,0,147,264Zm0,0" transform="translate(-126 -231)"/>
      <path id="Trazado_1238157" data-name="Trazado 1238157" d="M98.019,183.912v-2.1c0-1.616-1.889-2.84-5.774-3.741l-.452,1.949c3.247.752,4.163,1.579,4.228,1.774-.3,1.054-6.4,3.018-17,3.018s-16.692-1.96-17-2.979v-.007c.071-.234.991-1.056,4.226-1.806l-.452-1.949c-3.887.9-5.776,2.125-5.776,3.741v2.1a5,5,0,0,0,.1,9.808,19,19,0,0,0,7.9,13.555v7.537a1,1,0,0,0,1,1h20a1,1,0,0,0,1-1v-7.537a19,19,0,0,0,7.9-13.554,5,5,0,0,0,.1-9.809Zm-40,4.9a3,3,0,0,1,2-2.816v5.632A3,3,0,0,1,58.019,188.812Zm30,25h-18v-5.273a18.954,18.954,0,0,0,18,0Zm-9-5a17.019,17.019,0,0,1-17-17V184.27c3.7,1.952,11.718,2.542,17,2.542s13.3-.59,17-2.542v7.542A17.019,17.019,0,0,1,79.019,208.812Zm19-17.184V186a2.982,2.982,0,0,1,0,5.632Zm0,0" transform="translate(-49.019 -155.812)"/>
      <path id="Trazado_1238158" data-name="Trazado 1238158" d="M191,355c-2.71,0-5-1.374-5-3h-2c0,2.8,3.075,5,7,5s7-2.2,7-5h-2C196,353.626,193.71,355,191,355Zm0,0" transform="translate(-161 -308)"/>
      <path id="Trazado_1238159" data-name="Trazado 1238159" d="M266.293,77.707l1.414-1.414L266,74.586V72h-2v3a1,1,0,0,0,.293.707Zm0,0" transform="translate(-231 -63)"/>
      <path id="Trazado_1238160" data-name="Trazado 1238160" d="M275.758,130.344l-1.414,1.414.707.707v1.586h2v-2a1,1,0,0,0-.293-.707Zm0,0" transform="translate(-240.051 -114.051)"/>
      <path id="Trazado_1238161" data-name="Trazado 1238161" d="M131,21.415V23a1,1,0,0,0,.757.97l3.468.867.826,2.479A1,1,0,0,0,137,28h3a1,1,0,0,0,.707-.293L142,26.415l1.293,1.293A1,1,0,0,0,144,28h3a1,1,0,0,0,.949-.684l.826-2.479,3.468-.867A1,1,0,0,0,153,23V21.415l2.707-2.707A1,1,0,0,0,156,18V13a1.008,1.008,0,0,0-.168-.555L154,9.7V6a1,1,0,0,0-.293-.707l-2-2A1,1,0,0,0,151,3h-2.279L147.949.685A1,1,0,0,0,147,0h-3a1,1,0,0,0-.707.293L142,1.586,140.707.293A1,1,0,0,0,140,0h-3a1,1,0,0,0-.949.684L135.279,3H133a1,1,0,0,0-.707.293l-2,2A1,1,0,0,0,130,6V9.7l-1.832,2.748A1,1,0,0,0,128,13v5a1,1,0,0,0,.293.707ZM144.414,2h1.865l.577,1.73-1.563,1.563A1,1,0,0,0,145,6V7h2V6.414L148.414,5h2.172L152,6.414V9.586l-1.707,1.707A1,1,0,0,0,150,12v1h2v-.586l.845-.844L154,13.3v4.283l-1,1V17h-2V22.22l-2.693.674L147,21.586V21h-2v1a1,1,0,0,0,.293.707l1.563,1.563L146.279,26h-1.865L143,24.586V3.414ZM130,13.3l1.155-1.733.845.844V13h2V12a1,1,0,0,0-.293-.707L132,9.586V6.414L133.414,5h2.172L137,6.414V7h2V6a1,1,0,0,0-.293-.707L137.144,3.73,137.721,2h1.865L141,3.414V24.586L139.586,26h-1.865l-.577-1.73,1.563-1.563A1,1,0,0,0,139,22V21h-2v.586l-1.307,1.307L133,22.22V17h-2v1.586l-1-1Zm0,0" transform="translate(-112 0)"/>
      <path id="Trazado_1238162" data-name="Trazado 1238162" d="M189.758,75.707A1,1,0,0,0,190.05,75V72h-2v2.586l-1.707,1.707,1.414,1.414Zm0,0" transform="translate(-163.051 -63)"/>
      <path id="Trazado_1238163" data-name="Trazado 1238163" d="M186,132.465l.707-.707-1.414-1.414-1,1a1,1,0,0,0-.293.707v2h2Zm0,0" transform="translate(-161 -114.051)"/>
      <path id="Trazado_1238164" data-name="Trazado 1238164" d="M435,6a3,3,0,1,0-3-3A3,3,0,0,0,435,6Zm0-4a1,1,0,1,1-1,1A1,1,0,0,1,435,2Zm0,0" transform="translate(-378)"/>
      <path id="Trazado_1238165" data-name="Trazado 1238165" d="M435,96a3,3,0,1,0,3,3A3,3,0,0,0,435,96Zm0,4a1,1,0,1,1,1-1A1,1,0,0,1,435,100Zm0,0" transform="translate(-378 -84)"/>
      <path id="Trazado_1238166" data-name="Trazado 1238166" d="M367.465,18h1.586V16h-2a1,1,0,0,0-.707.293l-4,4,1.414,1.414Zm0,0" transform="translate(-317.051 -14)"/>
      <path id="Trazado_1238167" data-name="Trazado 1238167" d="M368,112h6v2h-6Zm0,0" transform="translate(-322 -98)"/>
      <path id="Trazado_1238168" data-name="Trazado 1238168" d="M3,0A3,3,0,1,0,6,3,3,3,0,0,0,3,0ZM3,4A1,1,0,1,1,4,3,1,1,0,0,1,3,4ZM3,4"/>
      <path id="Trazado_1238169" data-name="Trazado 1238169" d="M3,96a3,3,0,1,0,3,3A3,3,0,0,0,3,96Zm0,4a1,1,0,1,1,1-1A1,1,0,0,1,3,100Zm0,0" transform="translate(0 -84)"/>
      <path id="Trazado_1238170" data-name="Trazado 1238170" d="M69.293,21.707l1.414-1.414-4-4A1,1,0,0,0,66,16H64v2h1.586Zm0,0" transform="translate(-56 -14)"/>
      <path id="Trazado_1238171" data-name="Trazado 1238171" d="M64,112h6v2H64Zm0,0" transform="translate(-56 -98)"/>
    </g>
  </g>
</svg>
