<svg xmlns="http://www.w3.org/2000/svg" xmlns:xlink="http://www.w3.org/1999/xlink" width="295" height="196" viewBox="0 0 295 196">
  <defs>
    <clipPath id="clip-path">
      <rect id="Rectángulo_423917" data-name="Rectángulo 423917" width="295" height="196" transform="translate(285 767)" fill="#fff" stroke="#707070" stroke-width="1"/>
    </clipPath>
  </defs>
  <g id="Grupo_1241642" data-name="Grupo 1241642" transform="translate(-285 -767)">
    <rect id="Rectángulo_423967" data-name="Rectángulo 423967" width="183" height="196" transform="translate(349 767)" fill="#e6f0cd"/>
    <g id="Enmascarar_grupo_1211519" data-name="Enmascarar grupo 1211519" clip-path="url(#clip-path)">
      <g id="OBJECTS" transform="translate(234.581 710.381)">
        <g id="Grupo_1241641" data-name="Grupo 1241641" transform="translate(53.83 76.619)">
          <g id="Grupo_1241534" data-name="Grupo 1241534" transform="translate(0)">
            <g id="Grupo_1241512" data-name="Grupo 1241512" transform="translate(132.472 12.197)">
              <g id="Grupo_1241497" data-name="Grupo 1241497">
                <g id="Grupo_1241495" data-name="Grupo 1241495">
                  <path id="Trazado_1238689" data-name="Trazado 1238689" d="M472.485,81.557v74.38a5.122,5.122,0,0,1-5.29,4.942H351.076a5.123,5.123,0,0,1-5.29-4.942V81.557a5.122,5.122,0,0,1,5.29-4.938H467.2A5.122,5.122,0,0,1,472.485,81.557Z" transform="translate(-345.787 -76.619)" fill="#79dee8"/>
                  <path id="Trazado_1238690" data-name="Trazado 1238690" d="M472.485,81.557V83.3h-126.7V81.557a5.122,5.122,0,0,1,5.29-4.938H467.2A5.122,5.122,0,0,1,472.485,81.557Z" transform="translate(-345.787 -76.619)" fill="#6193c9"/>
                </g>
                <g id="Grupo_1241496" data-name="Grupo 1241496" transform="translate(103.966 2.273)">
                  <path id="Trazado_1238691" data-name="Trazado 1238691" d="M588.91,82.931a1.7,1.7,0,1,1-1.7-1.614A1.656,1.656,0,0,1,588.91,82.931Z" transform="translate(-573.522 -81.317)" fill="#d1132f"/>
                  <path id="Trazado_1238692" data-name="Trazado 1238692" d="M576.69,82.931a1.7,1.7,0,1,1-1.7-1.614A1.656,1.656,0,0,1,576.69,82.931Z" transform="translate(-567.213 -81.317)" fill="#f9e26b"/>
                  <path id="Trazado_1238693" data-name="Trazado 1238693" d="M564.106,82.931a1.7,1.7,0,1,1-1.7-1.614A1.656,1.656,0,0,1,564.106,82.931Z" transform="translate(-560.716 -81.317)" fill="#a4c9ea"/>
                </g>
              </g>
              <g id="Grupo_1241511" data-name="Grupo 1241511" transform="translate(3.693 10.476)">
                <g id="Grupo_1241505" data-name="Grupo 1241505" transform="translate(0)">
                  <g id="Grupo_1241500" data-name="Grupo 1241500" transform="translate(0 2.937)">
                    <g id="Grupo_1241498" data-name="Grupo 1241498" transform="translate(3.839 10.479)">
                      <rect id="Rectángulo_423929" data-name="Rectángulo 423929" width="3.52" height="15.086" transform="translate(0 35.566)" fill="#d2f9f3"/>
                      <rect id="Rectángulo_423930" data-name="Rectángulo 423930" width="3.52" height="20.796" transform="translate(9.476 29.856)" fill="#d2f9f3"/>
                      <rect id="Rectángulo_423931" data-name="Rectángulo 423931" width="3.52" height="31.338" transform="translate(18.844 19.314)" fill="#d2f9f3"/>
                      <rect id="Rectángulo_423932" data-name="Rectángulo 423932" width="3.52" height="37.103" transform="translate(39.744 13.549)" fill="#d2f9f3"/>
                      <rect id="Rectángulo_423933" data-name="Rectángulo 423933" width="3.52" height="44.637" transform="translate(51.809 5.887)" fill="#d2f9f3"/>
                      <rect id="Rectángulo_423934" data-name="Rectángulo 423934" width="3.52" height="50.678" transform="translate(62.611)" fill="#d2f9f3"/>
                      <rect id="Rectángulo_423935" data-name="Rectángulo 423935" width="3.52" height="26.884" transform="translate(30.373 23.768)" fill="#d2f9f3"/>
                    </g>
                    <g id="Grupo_1241499" data-name="Grupo 1241499">
                      <rect id="Rectángulo_423936" data-name="Rectángulo 423936" width="0.724" height="61.158" transform="translate(77.965 61.158) rotate(180)" fill="#d2f9f3"/>
                      <rect id="Rectángulo_423937" data-name="Rectángulo 423937" width="0.703" height="77.965" transform="translate(77.965 60.455) rotate(90)" fill="#d2f9f3"/>
                    </g>
                  </g>
                  <g id="Grupo_1241501" data-name="Grupo 1241501" transform="translate(5.599)">
                    <path id="Trazado_1238694" data-name="Trazado 1238694" d="M485.228,99.56l5.384-1.283-2.8,6.009Z" transform="translate(-427.069 -98.277)" fill="#d2f9f3"/>
                    <path id="Trazado_1238695" data-name="Trazado 1238695" d="M425.046,104.488l-30.486,21.605L383.84,121.7,365,135.85" transform="translate(-364.996 -101.484)" fill="none" stroke="#d2f9f3" stroke-linecap="round" stroke-linejoin="round" stroke-miterlimit="10" stroke-width="1"/>
                  </g>
                  <g id="Grupo_1241504" data-name="Grupo 1241504" transform="translate(4.251 2.937)">
                    <g id="Grupo_1241502" data-name="Grupo 1241502" transform="translate(74.82)">
                      <rect id="Rectángulo_423938" data-name="Rectángulo 423938" width="1.77" height="0.727" transform="translate(0 59.729)" fill="#d2f9f3"/>
                      <rect id="Rectángulo_423939" data-name="Rectángulo 423939" width="1.77" height="0.727" transform="translate(0 47.783)" fill="#d2f9f3"/>
                      <rect id="Rectángulo_423940" data-name="Rectángulo 423940" width="1.77" height="0.727" transform="translate(0 35.837)" fill="#d2f9f3"/>
                      <rect id="Rectángulo_423941" data-name="Rectángulo 423941" width="1.77" height="0.727" transform="translate(0 23.892)" fill="#d2f9f3"/>
                      <rect id="Rectángulo_423942" data-name="Rectángulo 423942" width="1.77" height="0.727" transform="translate(0 11.946)" fill="#d2f9f3"/>
                      <rect id="Rectángulo_423943" data-name="Rectángulo 423943" width="1.77" height="0.727" fill="#d2f9f3"/>
                    </g>
                    <g id="Grupo_1241503" data-name="Grupo 1241503" transform="translate(0 62.626)">
                      <rect id="Rectángulo_423944" data-name="Rectángulo 423944" width="2.695" height="1.05" fill="#d2f9f3"/>
                      <rect id="Rectángulo_423945" data-name="Rectángulo 423945" width="2.695" height="1.05" transform="translate(9.476)" fill="#d2f9f3"/>
                      <rect id="Rectángulo_423946" data-name="Rectángulo 423946" width="2.695" height="1.05" transform="translate(18.844)" fill="#d2f9f3"/>
                      <rect id="Rectángulo_423947" data-name="Rectángulo 423947" width="2.695" height="1.05" transform="translate(29.565)" fill="#d2f9f3"/>
                      <rect id="Rectángulo_423948" data-name="Rectángulo 423948" width="2.695" height="1.05" transform="translate(39.744)" fill="#d2f9f3"/>
                      <rect id="Rectángulo_423949" data-name="Rectángulo 423949" width="2.695" height="1.05" transform="translate(51)" fill="#d2f9f3"/>
                      <rect id="Rectángulo_423950" data-name="Rectángulo 423950" width="2.695" height="1.05" transform="translate(62.721)" fill="#d2f9f3"/>
                    </g>
                  </g>
                </g>
                <g id="Grupo_1241510" data-name="Grupo 1241510" transform="translate(88.269 5.957)">
                  <g id="Grupo_1241506" data-name="Grupo 1241506" transform="translate(0.677)">
                    <path id="Trazado_1238696" data-name="Trazado 1238696" d="M560.871,126.005l-11.544-3.39,1.6,11.919a11.534,11.534,0,0,1-1.6.11,12.021,12.021,0,1,1,11.544-8.638Z" transform="translate(-537.299 -110.591)" fill="#b9e6ed"/>
                    <path id="Trazado_1238697" data-name="Trazado 1238697" d="M560.046,147.367a11.534,11.534,0,0,1-1.6.11,11.986,11.986,0,0,1-3.482-.512c1.3-4.342,3.482-11.516,3.482-11.516Z" transform="translate(-546.421 -123.425)" fill="#87bbd8"/>
                    <path id="Trazado_1238698" data-name="Trazado 1238698" d="M576.009,141.971a12.028,12.028,0,0,1-9.947,8.529l-1.6-11.919Z" transform="translate(-551.324 -125.042)" fill="#d2f9f3"/>
                  </g>
                  <g id="Grupo_1241509" data-name="Grupo 1241509" transform="translate(0 31.396)">
                    <g id="Grupo_1241507" data-name="Grupo 1241507">
                      <rect id="Rectángulo_423951" data-name="Rectángulo 423951" width="20.695" height="1.403" transform="translate(4.715)" fill="#d2f9f3"/>
                      <rect id="Rectángulo_423952" data-name="Rectángulo 423952" width="25.409" height="1.403" transform="translate(0 3.249)" fill="#d2f9f3"/>
                      <rect id="Rectángulo_423953" data-name="Rectángulo 423953" width="25.409" height="1.403" transform="translate(0 6.498)" fill="#d2f9f3"/>
                      <rect id="Rectángulo_423954" data-name="Rectángulo 423954" width="25.409" height="1.403" transform="translate(0 9.747)" fill="#d2f9f3"/>
                    </g>
                    <g id="Grupo_1241508" data-name="Grupo 1241508" transform="translate(0 13.466)">
                      <rect id="Rectángulo_423955" data-name="Rectángulo 423955" width="20.695" height="1.403" transform="translate(4.715)" fill="#d2f9f3"/>
                      <rect id="Rectángulo_423956" data-name="Rectángulo 423956" width="25.409" height="1.403" transform="translate(0 3.249)" fill="#d2f9f3"/>
                      <rect id="Rectángulo_423957" data-name="Rectángulo 423957" width="25.409" height="1.403" transform="translate(0 6.498)" fill="#d2f9f3"/>
                      <rect id="Rectángulo_423958" data-name="Rectángulo 423958" width="25.409" height="1.403" transform="translate(0 9.747)" fill="#d2f9f3"/>
                    </g>
                  </g>
                </g>
              </g>
            </g>
            <g id="Grupo_1241520" data-name="Grupo 1241520" transform="translate(243.327 106.85)">
              <g id="Grupo_1241518" data-name="Grupo 1241518">
                <g id="Grupo_1241514" data-name="Grupo 1241514" transform="translate(17.521)">
                  <path id="Trazado_1238699" data-name="Trazado 1238699" d="M663.427,297.513c-6.832.21-9.54,12.191-10.235,19.587-1.192,12.675,1.813,25.092,5.134,36.78a.554.554,0,0,0-.181.581q.3,1.265.7,2.481c.171.567.822.541.829-.153.146-14.063,4.877-26.587,7.869-39.762C669.012,310.542,671.7,297.259,663.427,297.513Z" transform="translate(-652.926 -297.51)" fill="#40337c"/>
                  <g id="Grupo_1241513" data-name="Grupo 1241513" transform="translate(3.064 7.052)">
                    <path id="Trazado_1238700" data-name="Trazado 1238700" d="M668.65,312.088a142.767,142.767,0,0,0-3.946,39.489" transform="translate(-662.013 -312.088)" fill="none" stroke="#d7ceea" stroke-linecap="round" stroke-linejoin="round" stroke-miterlimit="10" stroke-width="1"/>
                    <path id="Trazado_1238701" data-name="Trazado 1238701" d="M668.017,318.553a26.4,26.4,0,0,1-2.273-4.1" transform="translate(-662.607 -313.309)" fill="none" stroke="#d7ceea" stroke-linecap="round" stroke-linejoin="round" stroke-miterlimit="10" stroke-width="1"/>
                    <path id="Trazado_1238702" data-name="Trazado 1238702" d="M669.595,328.633a7.639,7.639,0,0,1,3.717-.779" transform="translate(-664.596 -320.223)" fill="none" stroke="#d7ceea" stroke-linecap="round" stroke-linejoin="round" stroke-miterlimit="10" stroke-width="1"/>
                    <path id="Trazado_1238703" data-name="Trazado 1238703" d="M663.212,340.246l-3.237-2.147" transform="translate(-659.629 -325.517)" fill="none" stroke="#d7ceea" stroke-linecap="round" stroke-linejoin="round" stroke-miterlimit="10" stroke-width="1"/>
                    <path id="Trazado_1238704" data-name="Trazado 1238704" d="M666.573,348.933a16.23,16.23,0,0,1,4.013-.684" transform="translate(-663.036 -330.757)" fill="none" stroke="#d7ceea" stroke-linecap="round" stroke-linejoin="round" stroke-miterlimit="10" stroke-width="1"/>
                    <path id="Trazado_1238705" data-name="Trazado 1238705" d="M661.91,361.567l-2.65-2.106" transform="translate(-659.26 -336.546)" fill="none" stroke="#d7ceea" stroke-linecap="round" stroke-linejoin="round" stroke-miterlimit="10" stroke-width="1"/>
                    <path id="Trazado_1238706" data-name="Trazado 1238706" d="M665.356,366.01a18.352,18.352,0,0,1,3.076-1.149" transform="translate(-662.407 -339.333)" fill="none" stroke="#d7ceea" stroke-linecap="round" stroke-linejoin="round" stroke-miterlimit="10" stroke-width="1"/>
                  </g>
                </g>
                <g id="Grupo_1241517" data-name="Grupo 1241517" transform="translate(0 11.45)">
                  <path id="Trazado_1238707" data-name="Trazado 1238707" d="M662.736,331.673c-5.254-2.89-12.342,1.96-16.253,7.288-4.143,5.645-6.493,13.753-6.657,22.162-.052-.168-.1-.34-.154-.505a70.658,70.658,0,0,0-6.546-26.637c-2.757-5.664-8.115-15.248-13.4-12.225-5.448,3.118-2.484,11.59.7,15.468,3.439,4.191,7.037,8.1,10.55,12.142,3.5,4.023,7.061,7.75,8.612,14.106.014.309.032.616.042.925.006.167.159.173.172.019.036.178.067.363.1.544.024.4.044.792.078,1.188.023.273.293.294.285,0,0-.094,0-.189,0-.283.187.046.4-.122.374-.473-.013-.177-.038-.344-.056-.518.1.075.237.053.3-.141,3.723-12.439,11.5-16.809,19.133-21.738,1.917-1.238,4.5-2.577,4.907-6.217C665.2,334.231,664.224,332.491,662.736,331.673Z" transform="translate(-616.704 -321.18)" fill="#a194c9"/>
                  <g id="Grupo_1241516" data-name="Grupo 1241516" transform="translate(3.378 3.897)">
                    <path id="Trazado_1238708" data-name="Trazado 1238708" d="M663.927,341.34c-8.945,5.392-16.562,15.675-20.184,27.03-3.724-12.776-11.2-27.266-20.055-37.077" transform="translate(-623.688 -330.298)" fill="none" stroke="#d7ceea" stroke-linecap="round" stroke-linejoin="round" stroke-miterlimit="10" stroke-width="1"/>
                    <g id="Grupo_1241515" data-name="Grupo 1241515" transform="translate(1.131)">
                      <path id="Trazado_1238709" data-name="Trazado 1238709" d="M696.63,348.518c.067,1.747.048,3.5-.057,5.242" transform="translate(-662.448 -339.191)" fill="none" stroke="#d7ceea" stroke-linecap="round" stroke-linejoin="round" stroke-miterlimit="10" stroke-width="1"/>
                      <path id="Trazado_1238710" data-name="Trazado 1238710" d="M686.262,364.764a30.428,30.428,0,0,0-.17-4.434" transform="translate(-657.037 -345.29)" fill="none" stroke="#d7ceea" stroke-linecap="round" stroke-linejoin="round" stroke-miterlimit="10" stroke-width="1"/>
                      <path id="Trazado_1238711" data-name="Trazado 1238711" d="M690.655,365.145a6.871,6.871,0,0,1,3.7,1.124" transform="translate(-659.393 -347.775)" fill="none" stroke="#d7ceea" stroke-linecap="round" stroke-linejoin="round" stroke-miterlimit="10" stroke-width="1"/>
                      <path id="Trazado_1238712" data-name="Trazado 1238712" d="M678.128,375.627q-.224-1.814-.447-3.628" transform="translate(-652.695 -351.314)" fill="none" stroke="#d7ceea" stroke-linecap="round" stroke-linejoin="round" stroke-miterlimit="10" stroke-width="1"/>
                      <path id="Trazado_1238713" data-name="Trazado 1238713" d="M683.145,373.689a8.152,8.152,0,0,1,2.541,1.521" transform="translate(-655.516 -352.187)" fill="none" stroke="#d7ceea" stroke-linecap="round" stroke-linejoin="round" stroke-miterlimit="10" stroke-width="1"/>
                      <path id="Trazado_1238714" data-name="Trazado 1238714" d="M631.729,329.237q-.535,2.354-.972,4.74" transform="translate(-628.469 -329.237)" fill="none" stroke="#d7ceea" stroke-linecap="round" stroke-linejoin="round" stroke-miterlimit="10" stroke-width="1"/>
                      <path id="Trazado_1238715" data-name="Trazado 1238715" d="M629.794,344.406a12.5,12.5,0,0,0-3.767,1.984" transform="translate(-626.027 -337.068)" fill="none" stroke="#d7ceea" stroke-linecap="round" stroke-linejoin="round" stroke-miterlimit="10" stroke-width="1"/>
                      <path id="Trazado_1238716" data-name="Trazado 1238716" d="M643.268,344.564a24.109,24.109,0,0,0-2.047,4.586" transform="translate(-633.871 -337.15)" fill="none" stroke="#d7ceea" stroke-linecap="round" stroke-linejoin="round" stroke-miterlimit="10" stroke-width="1"/>
                      <path id="Trazado_1238717" data-name="Trazado 1238717" d="M640.043,367.9a6.36,6.36,0,0,1,3.88-.917" transform="translate(-633.263 -348.71)" fill="none" stroke="#d7ceea" stroke-linecap="round" stroke-linejoin="round" stroke-miterlimit="10" stroke-width="1"/>
                      <path id="Trazado_1238718" data-name="Trazado 1238718" d="M654.932,369.146a10.047,10.047,0,0,0-2.051,3.086" transform="translate(-639.891 -349.841)" fill="none" stroke="#d7ceea" stroke-linecap="round" stroke-linejoin="round" stroke-miterlimit="10" stroke-width="1"/>
                      <path id="Trazado_1238719" data-name="Trazado 1238719" d="M651.919,383.558a4.656,4.656,0,0,1,1.844-.408" transform="translate(-639.394 -357.071)" fill="none" stroke="#d7ceea" stroke-linecap="round" stroke-linejoin="round" stroke-miterlimit="10" stroke-width="1"/>
                    </g>
                  </g>
                </g>
              </g>
              <g id="Grupo_1241519" data-name="Grupo 1241519" transform="translate(10.72 43.938)">
                <path id="Trazado_1238720" data-name="Trazado 1238720" d="M665.677,388.343c0,.9-.016,1.772-.04,2.6q-.072,2.761-.328,5.081c-1.41,13.256-6.707,16.3-13.037,16.3s-11.626-3.045-13.037-16.3q-.252-2.32-.328-5.081c-.024-.832-.04-1.7-.04-2.6Z" transform="translate(-638.866 -388.343)" fill="#fdc15e"/>
                <path id="Trazado_1238721" data-name="Trazado 1238721" d="M665.68,393.727q-.072,2.761-.328,5.081H639.278q-.253-2.32-.328-5.081Z" transform="translate(-638.909 -391.123)" fill="#f9ea93"/>
              </g>
            </g>
            <g id="Grupo_1241527" data-name="Grupo 1241527" transform="translate(8.261 114.684)">
              <g id="Grupo_1241525" data-name="Grupo 1241525">
                <g id="Grupo_1241523" data-name="Grupo 1241523" transform="translate(11.909 5.702)">
                  <g id="Grupo_1241521" data-name="Grupo 1241521" transform="translate(16.566 0.911)">
                    <path id="Trazado_1238722" data-name="Trazado 1238722" d="M107.435,350.333c-2.941-13.95,1.915-28.774,13.093-39.971a71.132,71.132,0,0,0-7.443,40.158" transform="translate(-106.592 -310.362)" fill="#40337c"/>
                    <path id="Trazado_1238723" data-name="Trazado 1238723" d="M119.259,329.559s-7.02,12.28-6.125,32.869" transform="translate(-110.344 -321.506)" fill="none" stroke="#d7ceea" stroke-linecap="round" stroke-linejoin="round" stroke-miterlimit="10" stroke-width="1"/>
                  </g>
                  <g id="Grupo_1241522" data-name="Grupo 1241522">
                    <path id="Trazado_1238724" data-name="Trazado 1238724" d="M82.628,350.022c-.274-14.674-5.692-29.271-15.526-41.832a235.83,235.83,0,0,1,11.746,41.828" transform="translate(-67.102 -308.19)" fill="#40337c"/>
                    <path id="Trazado_1238725" data-name="Trazado 1238725" d="M74.757,323.34S84.428,343.4,85.27,358.817" transform="translate(-71.546 -316.985)" fill="none" stroke="#d7ceea" stroke-linecap="round" stroke-linejoin="round" stroke-miterlimit="10" stroke-width="1"/>
                  </g>
                </g>
                <g id="Grupo_1241524" data-name="Grupo 1241524">
                  <path id="Trazado_1238726" data-name="Trazado 1238726" d="M61.441,345.921s-10.073-29.754-22.728-38.687c0,0,17.563,4.16,25.827,33.015,0,0-5.546-28.5,3.693-45.653,0,0-1.243,31.187,1.534,45.258,0,0,2.2-18.785,22.893-32.146,0,0-17.147,18.016-18.057,38.212Z" transform="translate(-38.713 -294.597)" fill="#a194c9"/>
                  <path id="Trazado_1238727" data-name="Trazado 1238727" d="M54.479,336.643s13.232,12.947,17.013,30.544" transform="translate(-47.865 -319.005)" fill="none" stroke="#d7ceea" stroke-linecap="round" stroke-linejoin="round" stroke-miterlimit="10" stroke-width="1"/>
                  <path id="Trazado_1238728" data-name="Trazado 1238728" d="M103.675,317.979s-3.059,26.2,1.333,38.373" transform="translate(-75.822 -308.171)" fill="none" stroke="#d7ceea" stroke-linecap="round" stroke-linejoin="round" stroke-miterlimit="10" stroke-width="1"/>
                  <path id="Trazado_1238729" data-name="Trazado 1238729" d="M132.191,341.115s-13.5,14.29-14.54,28.668" transform="translate(-84.538 -321.601)" fill="none" stroke="#d7ceea" stroke-linecap="round" stroke-linejoin="round" stroke-miterlimit="10" stroke-width="1"/>
                </g>
              </g>
              <g id="Grupo_1241526" data-name="Grupo 1241526" transform="translate(15.528 45.258)">
                <path id="Trazado_1238730" data-name="Trazado 1238730" d="M104.1,402.487l-.6,1.877-1.321,4.09-2.941,9.13H80.6l-2.941-9.13-1.321-4.09-.6-1.877Z" transform="translate(-75.731 -402.487)" fill="#fdc15e"/>
                <path id="Trazado_1238731" data-name="Trazado 1238731" d="M104.331,406.962l-1.321,4.09H78.49l-1.321-4.09Z" transform="translate(-76.566 -405.085)" fill="#f9ea93"/>
              </g>
            </g>
            <g id="Grupo_1241530" data-name="Grupo 1241530" transform="translate(24.98 36.345)">
              <g id="Grupo_1241528" data-name="Grupo 1241528">
                <ellipse id="Elipse_12318" data-name="Elipse 12318" cx="18.615" cy="11.412" rx="18.615" ry="11.412" fill="#f2819f"/>
                <path id="Trazado_1238732" data-name="Trazado 1238732" d="M168.925,184l9.488,15.908L162.3,188.2Z" transform="translate(-143.564 -168.404)" fill="#f2819f"/>
              </g>
              <g id="Grupo_1241529" data-name="Grupo 1241529" transform="translate(8.064 10.524)">
                <circle id="Elipse_12319" data-name="Elipse 12319" cx="1.486" cy="1.486" r="1.486" fill="#fff"/>
                <circle id="Elipse_12320" data-name="Elipse 12320" cx="1.486" cy="1.486" r="1.486" transform="translate(9.291)" fill="#fff"/>
                <path id="Trazado_1238733" data-name="Trazado 1238733" d="M180.691,175a1.486,1.486,0,1,1-1.485-1.486A1.486,1.486,0,0,1,180.691,175Z" transform="translate(-159.591 -173.512)" fill="#fff"/>
              </g>
            </g>
            <g id="Grupo_1241533" data-name="Grupo 1241533" transform="translate(72.777 16.433)">
              <g id="Grupo_1241531" data-name="Grupo 1241531">
                <ellipse id="Elipse_12321" data-name="Elipse 12321" cx="18.615" cy="11.412" rx="18.615" ry="11.412" fill="#ffe3a6"/>
                <path id="Trazado_1238734" data-name="Trazado 1238734" d="M267.737,142.84l8.989,22.294-15.616-18.1Z" transform="translate(-242.375 -127.24)" fill="#ffe3a6"/>
              </g>
              <g id="Grupo_1241532" data-name="Grupo 1241532" transform="translate(7.79 10.406)">
                <path id="Trazado_1238735" data-name="Trazado 1238735" d="M241.534,133.628a1.524,1.524,0,1,1-1.524-1.524A1.524,1.524,0,0,1,241.534,133.628Z" transform="translate(-238.486 -132.104)" fill="#fff"/>
                <path id="Trazado_1238736" data-name="Trazado 1238736" d="M261.239,133.628a1.524,1.524,0,1,1-1.524-1.524A1.524,1.524,0,0,1,261.239,133.628Z" transform="translate(-248.659 -132.104)" fill="#fff"/>
                <path id="Trazado_1238737" data-name="Trazado 1238737" d="M279.986,133.628a1.524,1.524,0,1,1-1.524-1.524A1.524,1.524,0,0,1,279.986,133.628Z" transform="translate(-258.338 -132.104)" fill="#fff"/>
              </g>
            </g>
          </g>
          <g id="Grupo_1241640" data-name="Grupo 1241640" transform="translate(41.302 39.872)">
            <g id="Grupo_1241613" data-name="Grupo 1241613" transform="translate(0 21.732)">
              <g id="Grupo_1241536" data-name="Grupo 1241536" transform="translate(110.794 40.117)">
                <rect id="Rectángulo_423959" data-name="Rectángulo 423959" width="39.794" height="1.528" transform="translate(0 18.173)" fill="#6a9abf"/>
                <g id="Grupo_1241535" data-name="Grupo 1241535" transform="translate(12.756)">
                  <path id="Trazado_1238738" data-name="Trazado 1238738" d="M446.073,286.907,445.8,288l-4.4,17.5h-28.67l4.678-18.589Z" transform="translate(-412.725 -286.907)" fill="#a2d1dd"/>
                  <path id="Trazado_1238739" data-name="Trazado 1238739" d="M447.155,289.167l-4.4,17.5h-27.4l4.4-17.5Z" transform="translate(-414.083 -288.074)" fill="#87bbd8"/>
                  <path id="Trazado_1238740" data-name="Trazado 1238740" d="M449.363,307.352c0,.845-1.034,1.53-2.309,1.53s-2.309-.685-2.309-1.53,1.034-1.53,2.309-1.53S449.363,306.507,449.363,307.352Z" transform="translate(-429.256 -296.672)" fill="#a2d1dd"/>
                </g>
              </g>
              <g id="Grupo_1241612" data-name="Grupo 1241612">
                <rect id="Rectángulo_423960" data-name="Rectángulo 423960" width="2.839" height="51.845" transform="translate(128.206 61.903)" fill="#7868ad"/>
                <g id="Grupo_1241568" data-name="Grupo 1241568" transform="translate(59.29)">
                  <g id="Grupo_1241543" data-name="Grupo 1241543" transform="translate(0 42.119)">
                    <g id="Grupo_1241539" data-name="Grupo 1241539">
                      <g id="Grupo_1241537" data-name="Grupo 1241537" transform="translate(7.808 20.195)">
                        <path id="Trazado_1238741" data-name="Trazado 1238741" d="M301.514,350l-3.183.237-1.4-10.294-.909-6.656,3.009-.489,1.03,7.145Z" transform="translate(-296.024 -332.796)" fill="#fac0cd"/>
                        <path id="Trazado_1238742" data-name="Trazado 1238742" d="M300.063,339.941h-3.13l-.909-6.656,3.009-.489Z" transform="translate(-296.024 -332.796)" fill="#db8ca8"/>
                      </g>
                      <g id="Grupo_1241538" data-name="Grupo 1241538">
                        <path id="Trazado_1238743" data-name="Trazado 1238743" d="M282.534,315.542l-2.564-16.306a7.09,7.09,0,0,1,7-8.189h13.772a7.088,7.088,0,0,1,7,5.988l2.907,18.507H282.534Z" transform="translate(-279.883 -291.046)" fill="#db8ca8"/>
                        <path id="Trazado_1238744" data-name="Trazado 1238744" d="M287.274,315.542l-2.564-16.306a7.09,7.09,0,0,1,7-8.189h13.772a7.088,7.088,0,0,1,7,5.988l2.907,18.507H287.274Z" transform="translate(-282.33 -291.046)" fill="#fac0cd"/>
                      </g>
                    </g>
                    <g id="Grupo_1241542" data-name="Grupo 1241542" transform="translate(5.496 35.67)">
                      <g id="Grupo_1241540" data-name="Grupo 1241540" transform="translate(12.398 3.42)">
                        <path id="Trazado_1238745" data-name="Trazado 1238745" d="M316.874,404.475l5.055-32.429,3.086.343-4.958,32.09Z" transform="translate(-316.874 -371.954)" fill="#db8ca8"/>
                        <path id="Trazado_1238746" data-name="Trazado 1238746" d="M384.828,404.246l-4.808-32.39-3.086.363,4.711,32.056Z" transform="translate(-347.882 -371.856)" fill="#db8ca8"/>
                      </g>
                      <path id="Trazado_1238747" data-name="Trazado 1238747" d="M291.244,367.243v-.01a2.447,2.447,0,0,1,2.448-2.448H336.23a2.447,2.447,0,0,1,2.448,2.448v.01a2.447,2.447,0,0,1-2.448,2.448H293.692A2.447,2.447,0,0,1,291.244,367.243Z" transform="translate(-291.244 -364.786)" fill="#fac0cd"/>
                      <g id="Grupo_1241541" data-name="Grupo 1241541" transform="translate(2.559 3.42)">
                        <path id="Trazado_1238748" data-name="Trazado 1238748" d="M296.534,404.663l5.1-32.627,3.086.339-5.006,32.293Z" transform="translate(-296.534 -371.949)" fill="#fac0cd"/>
                        <path id="Trazado_1238749" data-name="Trazado 1238749" d="M355.695,404.449l-4.765-32.593-3.086.363,4.668,32.255Z" transform="translate(-323.024 -371.856)" fill="#fac0cd"/>
                      </g>
                    </g>
                  </g>
                  <g id="Grupo_1241567" data-name="Grupo 1241567" transform="translate(6.136)">
                    <g id="Grupo_1241552" data-name="Grupo 1241552" transform="translate(5.362 53.46)">
                      <g id="Grupo_1241547" data-name="Grupo 1241547" transform="translate(13.7 7.853)">
                        <g id="Grupo_1241546" data-name="Grupo 1241546" transform="translate(33.993 46.413)">
                          <g id="Grupo_1241544" data-name="Grupo 1241544">
                            <path id="Trazado_1238750" data-name="Trazado 1238750" d="M420.468,432.4H402.42a3.221,3.221,0,0,1-.169-1.059,7.907,7.907,0,0,1,1.572-4.634l7.706-.034s5.916.169,8.4,4.566A8,8,0,0,1,420.468,432.4Z" transform="translate(-402.248 -426.676)" fill="#1186ad"/>
                            <path id="Trazado_1238751" data-name="Trazado 1238751" d="M420.471,437.277H402.423a3.221,3.221,0,0,1-.169-1.059l17.68-.1A8,8,0,0,1,420.471,437.277Z" transform="translate(-402.251 -431.55)" fill="#89c0cc"/>
                          </g>
                          <g id="Grupo_1241545" data-name="Grupo 1241545" transform="translate(8.521 0.005)">
                            <path id="Trazado_1238752" data-name="Trazado 1238752" d="M419.864,428.069a5.854,5.854,0,0,1,1.862-1.383" transform="translate(-419.864 -426.686)" fill="none" stroke="#89c0cc" stroke-linecap="round" stroke-miterlimit="10" stroke-width="2"/>
                            <path id="Trazado_1238753" data-name="Trazado 1238753" d="M422.944,429.119a5.853,5.853,0,0,1,1.862-1.383" transform="translate(-421.454 -427.228)" fill="none" stroke="#89c0cc" stroke-linecap="round" stroke-miterlimit="10" stroke-width="2"/>
                            <path id="Trazado_1238754" data-name="Trazado 1238754" d="M425.794,430.109a5.853,5.853,0,0,1,1.862-1.383" transform="translate(-422.926 -427.739)" fill="none" stroke="#89c0cc" stroke-linecap="round" stroke-miterlimit="10" stroke-width="2"/>
                          </g>
                        </g>
                        <path id="Trazado_1238755" data-name="Trazado 1238755" d="M341.392,330.726s21.356,2.762,24.312,7.29,9.844,39.177,9.844,39.177l-8.383.653-9.229-28.936-25.961-8.5Z" transform="translate(-331.974 -330.726)" fill="#22355c"/>
                      </g>
                      <g id="Grupo_1241551" data-name="Grupo 1241551">
                        <g id="Grupo_1241550" data-name="Grupo 1241550" transform="translate(35.895 54.504)">
                          <g id="Grupo_1241548" data-name="Grupo 1241548">
                            <path id="Trazado_1238756" data-name="Trazado 1238756" d="M396.078,432.893H378.03a3.223,3.223,0,0,1-.169-1.059,7.908,7.908,0,0,1,1.572-4.634l7.706-.034s5.916.169,8.4,4.566A7.085,7.085,0,0,1,396.078,432.893Z" transform="translate(-377.858 -427.166)" fill="#149fbe"/>
                            <path id="Trazado_1238757" data-name="Trazado 1238757" d="M396.081,437.767H378.033a3.221,3.221,0,0,1-.169-1.059l17.68-.1A7.091,7.091,0,0,1,396.081,437.767Z" transform="translate(-377.861 -432.04)" fill="#a8e1e6"/>
                          </g>
                          <g id="Grupo_1241549" data-name="Grupo 1241549" transform="translate(8.526 0.005)">
                            <path id="Trazado_1238758" data-name="Trazado 1238758" d="M395.484,428.559a5.853,5.853,0,0,1,1.862-1.383" transform="translate(-395.484 -427.176)" fill="none" stroke="#a8e1e6" stroke-linecap="round" stroke-miterlimit="10" stroke-width="2"/>
                            <path id="Trazado_1238759" data-name="Trazado 1238759" d="M398.554,429.609a5.854,5.854,0,0,1,1.862-1.383" transform="translate(-397.069 -427.718)" fill="none" stroke="#a8e1e6" stroke-linecap="round" stroke-miterlimit="10" stroke-width="2"/>
                            <path id="Trazado_1238760" data-name="Trazado 1238760" d="M401.414,430.6a5.853,5.853,0,0,1,1.862-1.383" transform="translate(-398.546 -428.229)" fill="none" stroke="#a8e1e6" stroke-linecap="round" stroke-miterlimit="10" stroke-width="2"/>
                          </g>
                        </g>
                        <path id="Trazado_1238761" data-name="Trazado 1238761" d="M303.716,314.5s-1.064,22.406,5.519,23.611,22.217,2.835,22.217,2.835l8.673,29.362,8.939-1.292s-4.9-33.982-7.29-37.484c-1.906-2.791-15.852-3.889-15.852-3.889a7.654,7.654,0,0,0,3.168-8.093C328,314,303.716,314.5,303.716,314.5Z" transform="translate(-303.653 -314.491)" fill="#2e4a78"/>
                      </g>
                    </g>
                    <g id="Grupo_1241566" data-name="Grupo 1241566">
                      <path id="Trazado_1238762" data-name="Trazado 1238762" d="M338.244,267.1l1.209-6.167s4.634.706,7.009,4.257,5.263,14.42,5.263,14.42l-9.96,1.6Z" transform="translate(-316.15 -233.382)" fill="#15a9bf"/>
                      <g id="Grupo_1241553" data-name="Grupo 1241553" transform="translate(1.311 26.466)">
                        <path id="Trazado_1238763" data-name="Trazado 1238763" d="M295.412,265.521c.851-2.709,4.881-6.835,14.043-6.835s11.237,2.167,12.635,5.161c.8,1.712,3.226,30.059,3.226,30.059-6.888,2.312-17.438,3.58-25.986,1.969C299.33,295.875,294.415,268.709,295.412,265.521Z" transform="translate(-295.278 -258.686)" fill="#149fbe"/>
                        <rect id="Rectángulo_423961" data-name="Rectángulo 423961" width="5.679" height="1.422" transform="translate(21.531 12.294) rotate(-3.457)" fill="#58b8c4"/>
                      </g>
                      <g id="Grupo_1241560" data-name="Grupo 1241560" transform="translate(5.064)">
                        <g id="Grupo_1241554" data-name="Grupo 1241554" transform="translate(4.371 19.428)">
                          <path id="Trazado_1238764" data-name="Trazado 1238764" d="M321.444,256.253c-.919.232-9.37-3.962-9.37-3.962a15.482,15.482,0,0,0,1.026-6.153,20.053,20.053,0,0,0-.251-2l8.131,1.069a21.6,21.6,0,0,0,.8,4.441,23.459,23.459,0,0,0,1.18,3.2S322.527,255.982,321.444,256.253Z" transform="translate(-312.074 -244.136)" fill="#f4ac96"/>
                          <path id="Trazado_1238765" data-name="Trazado 1238765" d="M322.6,249.646c-3.942.537-7.29-2.157-8.688-3.507a20.037,20.037,0,0,0-.252-2l8.131,1.069a18.9,18.9,0,0,0,.551,3.512C322.434,249.041,322.521,249.346,322.6,249.646Z" transform="translate(-312.895 -244.136)" fill="#e0776e"/>
                        </g>
                        <g id="Grupo_1241559" data-name="Grupo 1241559">
                          <g id="Grupo_1241557" data-name="Grupo 1241557">
                            <path id="Trazado_1238766" data-name="Trazado 1238766" d="M337.339,230.339c1.475-.41,2.891.053,3.164,1.034s-.7,2.108-2.177,2.517-2.891-.053-3.164-1.034S335.864,230.748,337.339,230.339Z" transform="translate(-319.599 -217.508)" fill="#e0776e"/>
                            <g id="Grupo_1241555" data-name="Grupo 1241555" transform="translate(2.274 3.786)">
                              <path id="Trazado_1238767" data-name="Trazado 1238767" d="M319.094,231.094c-5.084.822-10.777-3.367-11.295-8.818s2.293-9.941,7-10.386c5.863-.556,7.711,1.514,8.625,4.8a17.373,17.373,0,0,1,.532,3.222C324.328,224.675,323.8,230.334,319.094,231.094Z" transform="translate(-307.738 -211.8)" fill="#f4ac96"/>
                              <path id="Trazado_1238768" data-name="Trazado 1238768" d="M311.64,223.29a15.725,15.725,0,0,0,1.824-4.436,5.262,5.262,0,0,0,2.23-2.017,9.743,9.743,0,0,0,3.705,1.393,3.027,3.027,0,0,0,1.785-.14,1.258,1.258,0,0,0,.745-1.451,8.392,8.392,0,0,1,2.859,1.219c.387,1.209.769,2.414,1.156,3.623q.138-2.968,0-5.94a28.373,28.373,0,0,1-8.03-3.386,1.01,1.01,0,0,0-.672-.218.967.967,0,0,0-.377.193q-2.815,2.017-5.635,4.034C311.282,218.226,311.331,220.281,311.64,223.29Z" transform="translate(-309.543 -211.866)" fill="#e0776e"/>
                            </g>
                            <g id="Grupo_1241556" data-name="Grupo 1241556" transform="translate(0.63)">
                              <path id="Trazado_1238769" data-name="Trazado 1238769" d="M324.716,212.561a1.733,1.733,0,0,1-.977,1.166,1.217,1.217,0,0,1-.706.082,31.71,31.71,0,0,1-.687,5.34,29.592,29.592,0,0,0-.769-5.916,10.733,10.733,0,0,0-4.3-1.8,1.178,1.178,0,0,1,.5.871.993.993,0,0,1-.489.89,1.911,1.911,0,0,1-1.461,0,27.2,27.2,0,0,1-4.208-1.577,3.994,3.994,0,0,1-2.264,2.53,18.746,18.746,0,0,1-1.669,6.811,12.529,12.529,0,0,0-2.157-.6c-1.364-2.868-1.688-6.767-.087-9.515-.44.044-.866.01-1.035-.3a.937.937,0,0,1,.237-.987,5.571,5.571,0,0,1,4.537-2.153,9.215,9.215,0,0,1,1.572-1.587,8.421,8.421,0,0,1,7.74-1.456c.46.14.982.421,1.006.9a.869.869,0,0,1-.561.788,2.545,2.545,0,0,1-1.011.15,7.684,7.684,0,0,1,6.375,4.145A3.349,3.349,0,0,1,324.716,212.561Z" transform="translate(-304.339 -203.973)" fill="#2d245d"/>
                              <path id="Trazado_1238770" data-name="Trazado 1238770" d="M331.559,212.566a1.733,1.733,0,0,1-.977,1.166,2.757,2.757,0,0,0,.145-1.664,4.974,4.974,0,0,0-1.234-2.182,9.609,9.609,0,0,0-6.753-3.13,3.664,3.664,0,0,0,1.292-.813,1.01,1.01,0,0,0,.092-1.248,1.431,1.431,0,0,0-1.18-.314,13.651,13.651,0,0,0-5.35,1.432,8.421,8.421,0,0,1,7.74-1.456c.46.14.982.421,1.006.9a.869.869,0,0,1-.561.788,2.545,2.545,0,0,1-1.011.15,7.684,7.684,0,0,1,6.375,4.146A3.305,3.305,0,0,1,331.559,212.566Z" transform="translate(-311.182 -203.978)" fill="#554678"/>
                            </g>
                            <path id="Trazado_1238771" data-name="Trazado 1238771" d="M303.062,236.411c.2-1.055,1.586-1.675,3.09-1.385s2.557,1.379,2.354,2.434-1.586,1.675-3.09,1.385S302.859,237.466,303.062,236.411Z" transform="translate(-303.037 -219.968)" fill="#f4ac96"/>
                          </g>
                          <g id="Grupo_1241558" data-name="Grupo 1241558" transform="translate(9.015 11.768)">
                            <path id="Trazado_1238772" data-name="Trazado 1238772" d="M325.194,233.188a.642.642,0,1,1-.454.7A.591.591,0,0,1,325.194,233.188Z" transform="translate(-323.254 -230.823)" fill="#283547"/>
                            <path id="Trazado_1238773" data-name="Trazado 1238773" d="M338.386,232.095a.642.642,0,1,1-.438.706A.592.592,0,0,1,338.386,232.095Z" transform="translate(-330.072 -230.257)" fill="#283547"/>
                            <path id="Trazado_1238774" data-name="Trazado 1238774" d="M321.674,230.02a2.814,2.814,0,0,1,2.83-.614" transform="translate(-321.674 -228.794)" fill="none" stroke="#2d245d" stroke-linecap="round" stroke-miterlimit="10" stroke-width="1"/>
                            <path id="Trazado_1238775" data-name="Trazado 1238775" d="M332.444,235.416a5.683,5.683,0,0,1,.3,2.438" transform="translate(-327.234 -231.975)" fill="none" stroke="#bd4a51" stroke-linecap="round" stroke-miterlimit="10" stroke-width="1"/>
                            <path id="Trazado_1238776" data-name="Trazado 1238776" d="M329.264,242.974a7.566,7.566,0,0,1-3.41-1.088" transform="translate(-323.832 -235.315)" fill="none" stroke="#bd4a51" stroke-linecap="round" stroke-miterlimit="10" stroke-width="1"/>
                            <path id="Trazado_1238777" data-name="Trazado 1238777" d="M335.574,228.763a2.622,2.622,0,0,1,2.5-.256" transform="translate(-328.85 -228.302)" fill="none" stroke="#2d245d" stroke-linecap="round" stroke-miterlimit="10" stroke-width="1"/>
                          </g>
                        </g>
                      </g>
                      <g id="Grupo_1241561" data-name="Grupo 1241561" transform="translate(6.765 26.284)">
                        <path id="Trazado_1238778" data-name="Trazado 1238778" d="M318.584,263.708a26.067,26.067,0,0,1-9.055-5.152,4.345,4.345,0,0,0-2.975,1.78l4.165,7.677A10.581,10.581,0,0,1,318.584,263.708Z" transform="translate(-306.554 -258.437)" fill="#52c0d1"/>
                        <path id="Trazado_1238779" data-name="Trazado 1238779" d="M331.374,263.58c1.3-1.3,1.021-4.31.822-5.268,0,0,2.288-.1,3.347.851l2.544,5.118A9.511,9.511,0,0,0,331.374,263.58Z" transform="translate(-319.368 -258.309)" fill="#52c0d1"/>
                      </g>
                      <g id="Grupo_1241565" data-name="Grupo 1241565" transform="translate(0 31.167)">
                        <path id="Trazado_1238780" data-name="Trazado 1238780" d="M340.945,299.676s1.5,6.666.053,8.117-20.815-4.915-20.815-4.915l3.8-3.5,13.094.938Z" transform="translate(-306.826 -284.395)" fill="#e69583"/>
                        <g id="Grupo_1241562" data-name="Grupo 1241562" transform="translate(1.599 13.196)">
                          <path id="Trazado_1238781" data-name="Trazado 1238781" d="M317.022,295.686s3.284,2.646,2.936,2.941c-4.982,4.247-15.063,12.054-18.5,12.025-1.383,0-2.728-3.207-3.749-6.535-.455-1.466-.842-2.956-1.142-4.2-.435-1.8-.692-3.105-.692-3.105l8.48-.9.261,1.083.861,3.57.1.411Z" transform="translate(-295.874 -295.686)" fill="#f4ac96"/>
                          <path id="Trazado_1238782" data-name="Trazado 1238782" d="M306.229,301.946l-7.773,3.56c-.455-1.466-.842-2.956-1.142-4.2l8.054-2.927Z" transform="translate(-296.617 -297.075)" fill="#e0776e"/>
                        </g>
                        <path id="Trazado_1238783" data-name="Trazado 1238783" d="M295.2,268.793c-5.021,3.144-1.321,19.692-1.321,19.692l10.952-2.685S300.673,265.368,295.2,268.793Z" transform="translate(-292.568 -268.406)" fill="#15a9bf"/>
                        <path id="Trazado_1238784" data-name="Trazado 1238784" d="M334.584,295.76a26.637,26.637,0,0,1,4.324-2.69c1.49-.455,5.645,3.957,5.645,3.957l-4.576.135Z" transform="translate(-314.26 -281.123)" fill="#f4ac96"/>
                        <g id="Grupo_1241564" data-name="Grupo 1241564" transform="translate(6.551 10.956)">
                          <path id="Trazado_1238785" data-name="Trazado 1238785" d="M317.533,295.327a.674.674,0,0,1-.029.213l-4.344,2.065a5.828,5.828,0,0,1-1.233-1.05s-1.78,2.1-2.525,1.858c-.508-.169-.092-1.175-.044-1.282-.024.029-.092.111-.184.218-.252.266-.706.639-1.137.377-.6-.363.024-1.412.092-1.524-.106.111-1.146,1.171-1.5.668-.508-.711,1.156-2.419,1.645-3.081a5.284,5.284,0,0,1,2.2-1.113,10.707,10.707,0,0,0-1.775.223c-.914.334-1.959,1.809-2.525,1.243-.329-.329.88-2.172,2.2-2.651a7.766,7.766,0,0,1,2.98-.4C312.9,291.539,317.533,295.327,317.533,295.327Z" transform="translate(-306.111 -291.055)" fill="#e69583"/>
                          <g id="Grupo_1241563" data-name="Grupo 1241563" transform="translate(2.299 2.733)">
                            <path id="Trazado_1238786" data-name="Trazado 1238786" d="M310.864,298.825a5.147,5.147,0,0,1,2.157-2.119" transform="translate(-310.864 -296.706)" fill="none" stroke="#bd4a51" stroke-linecap="round" stroke-miterlimit="10" stroke-width="0.5"/>
                            <path id="Trazado_1238787" data-name="Trazado 1238787" d="M313.484,300.978a8.7,8.7,0,0,1,1.882-1.862" transform="translate(-312.217 -297.95)" fill="none" stroke="#bd4a51" stroke-linecap="round" stroke-miterlimit="10" stroke-width="0.5"/>
                          </g>
                        </g>
                      </g>
                    </g>
                  </g>
                </g>
                <g id="Grupo_1241608" data-name="Grupo 1241608" transform="translate(0 3.016)">
                  <g id="Grupo_1241575" data-name="Grupo 1241575" transform="translate(0 39.103)">
                    <g id="Grupo_1241571" data-name="Grupo 1241571">
                      <g id="Grupo_1241569" data-name="Grupo 1241569" transform="translate(7.813 20.195)">
                        <path id="Trazado_1238788" data-name="Trazado 1238788" d="M178.953,350l-3.188.237-1.4-10.294-.9-6.656,3-.489,1.03,7.145Z" transform="translate(-173.463 -332.796)" fill="#fac0cd"/>
                        <path id="Trazado_1238789" data-name="Trazado 1238789" d="M177.5,339.941h-3.13l-.9-6.656,3-.489Z" transform="translate(-173.463 -332.796)" fill="#db8ca8"/>
                      </g>
                      <g id="Grupo_1241570" data-name="Grupo 1241570">
                        <path id="Trazado_1238790" data-name="Trazado 1238790" d="M159.963,315.542,157.4,299.235a7.09,7.09,0,0,1,7-8.189h13.772a7.088,7.088,0,0,1,7,5.988l2.907,18.507H159.963Z" transform="translate(-157.312 -291.046)" fill="#db8ca8"/>
                        <path id="Trazado_1238791" data-name="Trazado 1238791" d="M164.7,315.542l-2.564-16.306a7.09,7.09,0,0,1,7-8.189h13.772a7.088,7.088,0,0,1,7,5.988l2.907,18.507H164.7Z" transform="translate(-159.759 -291.046)" fill="#fac0cd"/>
                      </g>
                    </g>
                    <g id="Grupo_1241574" data-name="Grupo 1241574" transform="translate(5.501 35.67)">
                      <g id="Grupo_1241572" data-name="Grupo 1241572" transform="translate(12.393 3.42)">
                        <path id="Trazado_1238792" data-name="Trazado 1238792" d="M194.3,404.475l5.06-32.429,3.081.343-4.958,32.09Z" transform="translate(-194.303 -371.954)" fill="#db8ca8"/>
                        <path id="Trazado_1238793" data-name="Trazado 1238793" d="M262.262,404.246l-4.808-32.39-3.091.363,4.716,32.056Z" transform="translate(-225.311 -371.856)" fill="#db8ca8"/>
                      </g>
                      <path id="Trazado_1238794" data-name="Trazado 1238794" d="M168.683,367.243v-.01a2.447,2.447,0,0,1,2.448-2.448h42.539a2.447,2.447,0,0,1,2.448,2.448v.01a2.447,2.447,0,0,1-2.448,2.448H171.131A2.444,2.444,0,0,1,168.683,367.243Z" transform="translate(-168.683 -364.786)" fill="#fac0cd"/>
                      <g id="Grupo_1241573" data-name="Grupo 1241573" transform="translate(2.554 3.42)">
                        <path id="Trazado_1238795" data-name="Trazado 1238795" d="M173.963,404.663l5.1-32.627,3.086.339-5.007,32.293Z" transform="translate(-173.963 -371.949)" fill="#fac0cd"/>
                        <path id="Trazado_1238796" data-name="Trazado 1238796" d="M233.129,404.449l-4.765-32.593-3.091.363,4.673,32.255Z" transform="translate(-200.453 -371.856)" fill="#fac0cd"/>
                      </g>
                    </g>
                  </g>
                  <g id="Grupo_1241607" data-name="Grupo 1241607" transform="translate(10.701)">
                    <g id="Grupo_1241581" data-name="Grupo 1241581" transform="translate(24.22 26.516)">
                      <g id="Grupo_1241579" data-name="Grupo 1241579" transform="translate(15.17 15.674)">
                        <g id="Grupo_1241576" data-name="Grupo 1241576" transform="translate(0 4.014)">
                          <path id="Trazado_1238797" data-name="Trazado 1238797" d="M271.829,310.689l-2.636,1.04-3.028,1.2-4.291,1.7-1.011-6.409,4.344-1.088,2.056-.518,3.551-.89Z" transform="translate(-260.863 -305.726)" fill="#f4ac96"/>
                          <path id="Trazado_1238798" data-name="Trazado 1238798" d="M273.829,312.679l-3.028,1.2-.958-5.8,2.056-.518Z" transform="translate(-265.499 -306.676)" fill="#e0776e"/>
                        </g>
                        <g id="Grupo_1241578" data-name="Grupo 1241578" transform="translate(9.142)">
                          <path id="Trazado_1238799" data-name="Trazado 1238799" d="M279.763,302.182q1.074-1.589,2.143-3.173a7.1,7.1,0,0,1,.967-1.238,1.331,1.331,0,0,1,1.064-.324c.377.073.542.421.624.861a1.136,1.136,0,0,1,1.117-.073,1.626,1.626,0,0,0,1.408,1.625,1.324,1.324,0,0,1,.106,1.088c.377.111.484.595.464.987a4.482,4.482,0,0,1-1.238,2.9,1.11,1.11,0,0,1-.464.324.457.457,0,0,1-.513-.155.683.683,0,0,1,0-.551c.068-.218.595-1.011.7-1.2.068-.126-.082-.16-.3-.223a4.69,4.69,0,0,1-3.976,3.463,1.227,1.227,0,0,1-.88-.164,1.427,1.427,0,0,1-.411-.764A30.465,30.465,0,0,1,279.763,302.182Z" transform="translate(-279.763 -297.429)" fill="#f4ac96"/>
                          <g id="Grupo_1241577" data-name="Grupo 1241577" transform="translate(2.515 1.102)">
                            <path id="Trazado_1238800" data-name="Trazado 1238800" d="M287.69,299.706a6.078,6.078,0,0,1-.638,2.341c-.135.271-.348.566-.653.566a.624.624,0,0,1-.551-.488,1.865,1.865,0,0,1,.024-.784c.087-.484.174-.963.266-1.446" transform="translate(-285.402 -299.706)" fill="none" stroke="#bd4a51" stroke-linecap="round" stroke-miterlimit="10" stroke-width="0.5"/>
                            <path id="Trazado_1238801" data-name="Trazado 1238801" d="M290.179,301.876a4.534,4.534,0,0,1-1.514,2.631.69.69,0,0,1-.556.223.5.5,0,0,1-.348-.45,2.932,2.932,0,0,1,.15-.837" transform="translate(-286.406 -300.826)" fill="none" stroke="#bd4a51" stroke-linecap="round" stroke-miterlimit="10" stroke-width="0.5"/>
                            <path id="Trazado_1238802" data-name="Trazado 1238802" d="M292.368,305.116a4.026,4.026,0,0,1-1.388,1.92.748.748,0,0,1-.643.135.6.6,0,0,1-.343-.566,2.663,2.663,0,0,1,.247-.842" transform="translate(-287.56 -302.499)" fill="none" stroke="#bd4a51" stroke-linecap="round" stroke-miterlimit="10" stroke-width="0.5"/>
                            <path id="Trazado_1238803" data-name="Trazado 1238803" d="M285.461,302.314l-.5-.218" transform="translate(-284.963 -300.94)" fill="none" stroke="#bd4a51" stroke-linecap="round" stroke-miterlimit="10" stroke-width="0.5"/>
                          </g>
                          <path id="Trazado_1238804" data-name="Trazado 1238804" d="M282.643,303.291a14.5,14.5,0,0,1,3.328-1.78c.227-.082.508-.155.682.01a.44.44,0,0,1,.1.44,1.158,1.158,0,0,1-.232.411,9.145,9.145,0,0,1-1.6,1.582,3.079,3.079,0,0,1-1.8,2.946" transform="translate(-281.25 -299.49)" fill="#f4ac96" stroke="#bd4a51" stroke-linecap="round" stroke-miterlimit="10" stroke-width="0.5"/>
                        </g>
                      </g>
                      <g id="Grupo_1241580" data-name="Grupo 1241580">
                        <path id="Trazado_1238805" data-name="Trazado 1238805" d="M229.5,273.583l4.286-8.557s2.68.677,3.609,2.66,4.939,16.732,6.883,18.677c.44.44,5.872-.682,5.872-.682l.967,7.512s-8.112,2.786-10.289,2.157C233.324,293.188,229.5,273.583,229.5,273.583Z" transform="translate(-229.503 -265.026)" fill="#f28d44"/>
                        <path id="Trazado_1238806" data-name="Trazado 1238806" d="M266.063,307.551l1.412,8.663,4.194-1.446-2.128-7.962Z" transform="translate(-248.378 -286.596)" fill="#fcb365"/>
                      </g>
                    </g>
                    <g id="Grupo_1241591" data-name="Grupo 1241591" transform="translate(0 51.143)">
                      <g id="Grupo_1241585" data-name="Grupo 1241585" transform="translate(7.826 6.791)">
                        <g id="Grupo_1241584" data-name="Grupo 1241584" transform="translate(37.278 47.487)">
                          <g id="Grupo_1241582" data-name="Grupo 1241582">
                            <path id="Trazado_1238807" data-name="Trazado 1238807" d="M289.359,433.636H272.835a3.277,3.277,0,0,1-.155-1.016,7.861,7.861,0,0,1,1.437-4.445l7.053-.029s5.418.164,7.691,4.378A6.471,6.471,0,0,1,289.359,433.636Z" transform="translate(-272.678 -428.146)" fill="#f89d4c"/>
                            <path id="Trazado_1238808" data-name="Trazado 1238808" d="M289.362,438.309H272.838a3.277,3.277,0,0,1-.155-1.016l16.185-.1A6.85,6.85,0,0,1,289.362,438.309Z" transform="translate(-272.681 -432.818)" fill="#ffe0a3"/>
                          </g>
                          <g id="Grupo_1241583" data-name="Grupo 1241583" transform="translate(7.81)">
                            <path id="Trazado_1238809" data-name="Trazado 1238809" d="M288.823,429.476a5.489,5.489,0,0,1,1.7-1.33" transform="translate(-288.823 -428.146)" fill="none" stroke="#ffe0a3" stroke-linecap="round" stroke-miterlimit="10" stroke-width="2"/>
                            <path id="Trazado_1238810" data-name="Trazado 1238810" d="M291.633,430.476a5.488,5.488,0,0,1,1.7-1.33" transform="translate(-290.274 -428.662)" fill="none" stroke="#ffe0a3" stroke-linecap="round" stroke-miterlimit="10" stroke-width="2"/>
                            <path id="Trazado_1238811" data-name="Trazado 1238811" d="M294.243,431.426a5.487,5.487,0,0,1,1.7-1.33" transform="translate(-291.621 -429.153)" fill="none" stroke="#ffe0a3" stroke-linecap="round" stroke-miterlimit="10" stroke-width="2"/>
                          </g>
                        </g>
                        <path id="Trazado_1238812" data-name="Trazado 1238812" d="M211.711,329.976s23.635,3.425,25.405,7.628,4.649,39.762,4.649,39.762l-8.876,1.708s-5.224-28.486-6.477-29.923c-1.92-2.2-30.8-11.469-30.8-11.469Z" transform="translate(-195.613 -329.976)" fill="#28255c"/>
                      </g>
                      <g id="Grupo_1241590" data-name="Grupo 1241590">
                        <g id="Grupo_1241588" data-name="Grupo 1241588" transform="translate(18.56 51.115)">
                          <g id="Grupo_1241586" data-name="Grupo 1241586">
                            <path id="Trazado_1238813" data-name="Trazado 1238813" d="M232.755,433.036,217.8,426a3.388,3.388,0,0,1,.29-.987,7.853,7.853,0,0,1,3.193-3.41l6.395,2.975s4.832,2.452,5.094,7.237A6.455,6.455,0,0,1,232.755,433.036Z" transform="translate(-217.803 -421.606)" fill="#f89d4c"/>
                            <path id="Trazado_1238814" data-name="Trazado 1238814" d="M232.755,436.676,217.8,429.643a3.388,3.388,0,0,1,.29-.987l14.686,6.8A6.9,6.9,0,0,1,232.755,436.676Z" transform="translate(-217.803 -425.246)" fill="#ffe0a3"/>
                          </g>
                          <g id="Grupo_1241587" data-name="Grupo 1241587" transform="translate(8.697 3.41)">
                            <path id="Trazado_1238815" data-name="Trazado 1238815" d="M235.783,429.13a5.383,5.383,0,0,1,2.109-.474" transform="translate(-235.783 -428.656)" fill="none" stroke="#ffe0a3" stroke-linecap="round" stroke-miterlimit="10" stroke-width="2"/>
                            <path id="Trazado_1238816" data-name="Trazado 1238816" d="M237.893,431.24a5.385,5.385,0,0,1,2.109-.474" transform="translate(-236.872 -429.745)" fill="none" stroke="#ffe0a3" stroke-linecap="round" stroke-miterlimit="10" stroke-width="2"/>
                            <path id="Trazado_1238817" data-name="Trazado 1238817" d="M239.853,433.21a5.384,5.384,0,0,1,2.109-.474" transform="translate(-237.884 -430.762)" fill="none" stroke="#ffe0a3" stroke-linecap="round" stroke-miterlimit="10" stroke-width="2"/>
                          </g>
                        </g>
                        <g id="Grupo_1241589" data-name="Grupo 1241589">
                          <path id="Trazado_1238818" data-name="Trazado 1238818" d="M208.3,370.268l-7.889-2.607s7.59-24.573,6.912-25.961c-.726-1.5-21.206.343-24.941-2.273-3.343-2.346-3.2-11.043-2.641-15.4.256-2.007.547-3.381.547-3.381l3.125-3.018,1.751-1.693,19.2,5.984-.126.266-.111.232L201.36,328.3s19.049,3.27,19.4,6.472C221.493,341.68,208.3,370.268,208.3,370.268Z" transform="translate(-179.434 -315.936)" fill="#40337a"/>
                          <path id="Trazado_1238819" data-name="Trazado 1238819" d="M204.854,324.055s-.135.063-.4.169c-2.191.919-13.152,5.074-24.384,1.6.256-2.007.547-3.381.547-3.381l3.125-3.018,20.829,4.562Z" transform="translate(-179.764 -317.738)" fill="#28255c"/>
                        </g>
                      </g>
                    </g>
                    <g id="Grupo_1241601" data-name="Grupo 1241601" transform="translate(0.164)">
                      <g id="Grupo_1241592" data-name="Grupo 1241592" transform="translate(0 25.544)">
                        <path id="Trazado_1238820" data-name="Trazado 1238820" d="M204.946,295.019c-2.511,1.974-15.629,2.864-25.173.387,0,0,3.652-20.229,6.8-26.677.895-1.828,2.825-3.2,5.877-4.262a27.809,27.809,0,0,1,9-1.451,25.626,25.626,0,0,1,3.551.218c4.344.59,5.394,2.036,5.514,4.508C210.654,270.668,204.946,295.019,204.946,295.019Z" transform="translate(-179.773 -263.016)" fill="#f89d4c"/>
                        <path id="Trazado_1238821" data-name="Trazado 1238821" d="M217.5,271.273c-3.773.561-9.96-4.958-11.522-6.8a27.808,27.808,0,0,1,9-1.451,25.626,25.626,0,0,1,3.551.218C220.552,266.19,219.667,270.949,217.5,271.273Z" transform="translate(-193.299 -263.021)" fill="#ffe3a6"/>
                      </g>
                      <g id="Grupo_1241600" data-name="Grupo 1241600" transform="translate(11.652)">
                        <g id="Grupo_1241593" data-name="Grupo 1241593" transform="translate(3.551 19.715)">
                          <path id="Trazado_1238822" data-name="Trazado 1238822" d="M221.356,262.445s.01,1.533-2.341,1.533c-2.39,0-7.812-5.514-7.812-5.514a12.426,12.426,0,0,0,2.317-3.628,16.628,16.628,0,0,0,1-3.86l7.372,3.594a18.18,18.18,0,0,0-.585,3.507A24.421,24.421,0,0,0,221.356,262.445Z" transform="translate(-211.203 -250.971)" fill="#f4ac96"/>
                          <path id="Trazado_1238823" data-name="Trazado 1238823" d="M224.366,254.56a18.185,18.185,0,0,0-.585,3.507,8.274,8.274,0,0,1-7.788-3.241,16.627,16.627,0,0,0,1-3.86Z" transform="translate(-213.676 -250.966)" fill="#e0776e"/>
                        </g>
                        <g id="Grupo_1241599" data-name="Grupo 1241599">
                          <path id="Trazado_1238824" data-name="Trazado 1238824" d="M240.142,240.125c1.475-.41,2.891.053,3.164,1.034s-.7,2.108-2.177,2.517-2.891-.053-3.164-1.034S238.667,240.534,240.142,240.125Z" transform="translate(-221.444 -225.577)" fill="#e0776e"/>
                          <path id="Trazado_1238825" data-name="Trazado 1238825" d="M240.757,227.366a12.39,12.39,0,0,1-.706,8.533,20.708,20.708,0,0,0-2.612-6.032.67.67,0,0,1-.155-.547.663.663,0,0,1,.31-.31A18.923,18.923,0,0,1,240.757,227.366Z" transform="translate(-221.107 -219.067)" fill="#2d245d"/>
                          <g id="Grupo_1241594" data-name="Grupo 1241594" transform="translate(3.224 5.501)">
                            <path id="Trazado_1238826" data-name="Trazado 1238826" d="M221.883,240.874a9.706,9.706,0,0,1-11.295-8.818c-.518-5.452,2.293-9.941,7-10.386,5.863-.556,7.711,1.514,8.625,4.8a17.374,17.374,0,0,1,.532,3.222C227.121,234.455,226.6,240.177,221.883,240.874Z" transform="translate(-210.527 -221.58)" fill="#f4ac96"/>
                            <path id="Trazado_1238827" data-name="Trazado 1238827" d="M226.608,227.891c-.977.426-2.66-.4-3.376-.252-.832.174-.426,1.088-2.312,1.785s-3.6-1.084-4.2-.493a3.022,3.022,0,0,1-2.53.813,10.42,10.42,0,0,1-1.229,4.687l-1.669-3.052,1.6-4.9,11.672-2.148A6.881,6.881,0,0,1,226.608,227.891Z" transform="translate(-210.922 -223.003)" fill="#e0776e"/>
                          </g>
                          <g id="Grupo_1241597" data-name="Grupo 1241597" transform="translate(4.911 11.369)">
                            <g id="Grupo_1241595" data-name="Grupo 1241595" transform="translate(0 1.603)">
                              <circle id="Elipse_12322" data-name="Elipse 12322" cx="2.772" cy="2.772" r="2.772" transform="translate(3.57 0.827)" fill="none" stroke="#15a0bf" stroke-miterlimit="10" stroke-width="1"/>
                              <ellipse id="Elipse_12323" data-name="Elipse 12323" cx="2.627" cy="2.772" rx="2.627" ry="2.772" transform="translate(10.444)" fill="none" stroke="#15a0bf" stroke-miterlimit="10" stroke-width="1"/>
                              <path id="Trazado_1238828" data-name="Trazado 1238828" d="M231.873,241.033s.614-.658,2.061-.237" transform="translate(-223.234 -238.9)" fill="none" stroke="#15a0bf" stroke-miterlimit="10" stroke-width="1"/>
                              <line id="Línea_625" data-name="Línea 625" x1="3.647" y2="0.735" transform="translate(0 2.772)" fill="none" stroke="#15a0bf" stroke-miterlimit="10" stroke-width="1"/>
                            </g>
                            <g id="Grupo_1241596" data-name="Grupo 1241596" transform="translate(3.246)">
                              <ellipse id="Elipse_12324" data-name="Elipse 12324" cx="0.537" cy="0.634" rx="0.537" ry="0.634" transform="translate(3.299 4.472)" fill="#283547"/>
                              <ellipse id="Elipse_12325" data-name="Elipse 12325" cx="0.537" cy="0.634" rx="0.537" ry="0.634" transform="translate(9.679 3.935)" fill="#283547"/>
                              <path id="Trazado_1238829" data-name="Trazado 1238829" d="M237.783,234.173a2.622,2.622,0,0,1,2.5-.256" transform="translate(-229.531 -233.712)" fill="none" stroke="#2d245d" stroke-linecap="round" stroke-miterlimit="10" stroke-width="1"/>
                              <path id="Trazado_1238830" data-name="Trazado 1238830" d="M220.723,236.012a2.824,2.824,0,0,1,2.748-.919" transform="translate(-220.723 -234.39)" fill="none" stroke="#2d245d" stroke-linecap="round" stroke-miterlimit="10" stroke-width="1"/>
                              <path id="Trazado_1238831" data-name="Trazado 1238831" d="M235,243.956a6.931,6.931,0,0,1,.426,3.043" transform="translate(-228.095 -239.001)" fill="none" stroke="#bd4a51" stroke-linecap="round" stroke-miterlimit="10" stroke-width="1"/>
                              <path id="Trazado_1238832" data-name="Trazado 1238832" d="M231.668,252.39a5.31,5.31,0,0,1-3.555-.924" transform="translate(-224.538 -242.878)" fill="none" stroke="#bd4a51" stroke-linecap="round" stroke-miterlimit="10" stroke-width="1"/>
                            </g>
                          </g>
                          <g id="Grupo_1241598" data-name="Grupo 1241598">
                            <path id="Trazado_1238833" data-name="Trazado 1238833" d="M224.938,217.783a2.523,2.523,0,0,1-.726,1.62,3.48,3.48,0,0,1-3.318.735,2.548,2.548,0,0,0-1.775-.334c-.653.227-.938,1-1.514,1.388a2.751,2.751,0,0,1-2.452-.015,4.716,4.716,0,0,0-2.457-.508,6.607,6.607,0,0,0-1.538.682,2.651,2.651,0,0,1-1.611.266,13.976,13.976,0,0,1-.7,7.106,25.78,25.78,0,0,0-2.685-.513,14.705,14.705,0,0,1-2.095-10.163,2.382,2.382,0,0,1,1.4-1.553,7.1,7.1,0,0,1,.672-2.336,2.962,2.962,0,0,1,1.833-1.533c1.122-.271,2.346.314,3.43-.068a4.786,4.786,0,0,0,1.664-1.321,3.364,3.364,0,0,1,1.321-.924c1.18-.368,2.37.426,3.58.692a17.193,17.193,0,0,0,3.081.1,3.376,3.376,0,0,1,2.728,1.166,5.211,5.211,0,0,1,.609,2.051A12.845,12.845,0,0,1,224.938,217.783Z" transform="translate(-203.861 -210.214)" fill="#2d245d"/>
                            <path id="Trazado_1238834" data-name="Trazado 1238834" d="M234.758,217.778a2.523,2.523,0,0,1-.726,1.62,10.669,10.669,0,0,0-.155-4.092,4.406,4.406,0,0,0-3.609-3.381c-1.025-.068-2.041.353-3.072.281a7.123,7.123,0,0,1-2.017-.58,4.875,4.875,0,0,0-2.046-.431c-.087.01-.169.019-.252.034a3.364,3.364,0,0,1,1.321-.924c1.18-.368,2.37.426,3.58.692a17.193,17.193,0,0,0,3.081.1,3.376,3.376,0,0,1,2.728,1.166,5.211,5.211,0,0,1,.609,2.051A12.911,12.911,0,0,1,234.758,217.778Z" transform="translate(-213.682 -210.208)" fill="#554678"/>
                          </g>
                          <ellipse id="Elipse_12326" data-name="Elipse 12326" cx="2.772" cy="1.945" rx="2.772" ry="1.945" transform="translate(0.451 16.571)" fill="#f4ac96"/>
                        </g>
                      </g>
                    </g>
                    <g id="Grupo_1241606" data-name="Grupo 1241606" transform="translate(6.252 29.776)">
                      <g id="Grupo_1241604" data-name="Grupo 1241604" transform="translate(19.985 7.515)">
                        <g id="Grupo_1241602" data-name="Grupo 1241602" transform="translate(0 6.039)">
                          <path id="Trazado_1238835" data-name="Trazado 1238835" d="M246.018,303.515l-1.688,1.412-.576.484-6.051,5.069-1.292,1.084-2.738-6.879,3.376-1.708,3.038-1.533.711-.358,2.569-1.3Z" transform="translate(-233.673 -299.786)" fill="#f4ac96"/>
                          <path id="Trazado_1238836" data-name="Trazado 1238836" d="M247.357,307.177l-6.051,5.069-.653-7.5,3.038-1.538v0Z" transform="translate(-237.277 -301.552)" fill="#e0776e"/>
                        </g>
                        <g id="Grupo_1241603" data-name="Grupo 1241603" transform="translate(9.021)">
                          <path id="Trazado_1238837" data-name="Trazado 1238837" d="M252.323,294.506c.88-1.92,1.93-5.273,2.617-5.863a10.287,10.287,0,0,1,3.662-1.34,5.128,5.128,0,0,1,1.993,1.316,1.137,1.137,0,0,1,.4.643c.029.256-.058.508-.29.474a7.272,7.272,0,0,1-2.211-.972,4.168,4.168,0,0,0-1.843.818,12.788,12.788,0,0,1,2.7.189,1.3,1.3,0,0,1,.876,1.33,1.137,1.137,0,0,1,.788,1.635c.5.092.88.3.929.6a5.252,5.252,0,0,1-.46,1.524c-.547,1.33-1.035,2.728-1.654,2.481-.455-.184.145-2.143.29-2.588.039-.116-.4-.237-.445-.131-.489,1.132-3.023,2.685-4.968,2.685C254,296.238,253.058,295.527,252.323,294.506Z" transform="translate(-252.323 -287.302)" fill="#f4ac96"/>
                          <path id="Trazado_1238838" data-name="Trazado 1238838" d="M266.778,298.223c-.837-.073-1.717-.1-2.675-.1" transform="translate(-258.405 -292.89)" fill="none" stroke="#bd4a51" stroke-linecap="round" stroke-miterlimit="10" stroke-width="0.5"/>
                          <path id="Trazado_1238839" data-name="Trazado 1238839" d="M264.821,294.892a9.936,9.936,0,0,0-3.028-.053" transform="translate(-257.212 -291.146)" fill="none" stroke="#bd4a51" stroke-linecap="round" stroke-miterlimit="10" stroke-width="0.5"/>
                        </g>
                      </g>
                      <g id="Grupo_1241605" data-name="Grupo 1241605">
                        <path id="Trazado_1238840" data-name="Trazado 1238840" d="M193.807,273.091c1.3-1.4,3.193-2.849,7.024,2.22,3.555,4.707,8.291,12.843,9.945,13.423,1.916.677,6.313-1.746,6.313-1.746l3.372,7.865s-7.623,4.46-11.15,3.986c-5.36,0-12.964-12.127-15.426-16.8C192.419,279.258,191.384,275.7,193.807,273.091Z" transform="translate(-192.358 -271.765)" fill="#fcb365"/>
                        <path id="Trazado_1238841" data-name="Trazado 1238841" d="M239.333,303.12l2.888,8.959,3.7-2.419L242.5,301.6Z" transform="translate(-216.61 -287.166)" fill="#ffe3a6"/>
                      </g>
                    </g>
                  </g>
                </g>
                <g id="Grupo_1241611" data-name="Grupo 1241611" transform="translate(4.596 59.819)">
                  <g id="Grupo_1241609" data-name="Grupo 1241609" transform="translate(5.239 3.744)">
                    <rect id="Rectángulo_423962" data-name="Rectángulo 423962" width="2.839" height="50.752" fill="#7868ad"/>
                    <rect id="Rectángulo_423963" data-name="Rectángulo 423963" width="2.839" height="50.752" transform="translate(29.58)" fill="#7868ad"/>
                  </g>
                  <rect id="Rectángulo_423964" data-name="Rectángulo 423964" width="2.839" height="51.845" transform="translate(161.278 2.085)" fill="#a193cc"/>
                  <g id="Grupo_1241610" data-name="Grupo 1241610">
                    <rect id="Rectángulo_423965" data-name="Rectángulo 423965" width="169.922" height="4.175" fill="#a193cc"/>
                    <rect id="Rectángulo_423966" data-name="Rectángulo 423966" width="42.597" height="4.175" fill="#7868ad"/>
                  </g>
                </g>
              </g>
            </g>
            <g id="Grupo_1241639" data-name="Grupo 1241639" transform="translate(172.982)">
              <g id="Grupo_1241615" data-name="Grupo 1241615" transform="translate(1.818 25.757)">
                <path id="Trazado_1238842" data-name="Trazado 1238842" d="M556.174,227.493l-3.7-11.048a9.925,9.925,0,0,0-3.855,4.073c-.919,1.9-3.507,10.144-4.528,10.656-1.3.648-8.862-8.209-8.862-8.209l-3.913,2.153s10.4,16.684,14.052,15.3S556.174,227.493,556.174,227.493Z" transform="translate(-525.202 -214.438)" fill="#f4ac96"/>
                <g id="Grupo_1241614" data-name="Grupo 1241614">
                  <path id="Trazado_1238843" data-name="Trazado 1238843" d="M529.294,222.062v-7.667a1.986,1.986,0,0,0-.077-.677.618.618,0,0,0-.455-.431c-.392-.039-.595.479-.672.9-.218,1.156-.387,2.322-.672,3.623-1.548-1.969-2.491-3.091-4.039-5.065-.189-.237-.435-.5-.711-.44a.6.6,0,0,0-.363.668,1.956,1.956,0,0,0,.334.779c.687,1.1.774,1.354,1.461,2.656-1.175-1.045-1.751-1.49-2.989-2.443a2.147,2.147,0,0,0-.8-.445.7.7,0,0,0-.779.324.893.893,0,0,0,.266.948.7.7,0,0,0-.793.271c-.15.266.024.672.222,1.04a.439.439,0,0,0-.547.339,1.24,1.24,0,0,0,.184.682,15.487,15.487,0,0,0,7.251,7.488A12.908,12.908,0,0,1,529.294,222.062Z" transform="translate(-518.676 -212.296)" fill="#f4ac96"/>
                  <path id="Trazado_1238844" data-name="Trazado 1238844" d="M521.386,217.635c1.127,1.1,1.872,1.761,3.057,2.806" transform="translate(-520.075 -215.052)" fill="none" stroke="#bd4a51" stroke-linecap="round" stroke-miterlimit="10" stroke-width="0.5"/>
                  <path id="Trazado_1238845" data-name="Trazado 1238845" d="M520.076,220.375c1.093,1.238,1.611,1.737,2.641,2.985" transform="translate(-519.399 -216.467)" fill="none" stroke="#bd4a51" stroke-linecap="round" stroke-miterlimit="10" stroke-width="0.5"/>
                  <path id="Trazado_1238846" data-name="Trazado 1238846" d="M535.537,224.125a3.454,3.454,0,0,0-.953,3.454" transform="translate(-526.821 -218.403)" fill="none" stroke="#bd4a51" stroke-linecap="round" stroke-miterlimit="10" stroke-width="0.5"/>
                </g>
              </g>
              <g id="Grupo_1241622" data-name="Grupo 1241622" transform="translate(0 73.665)">
                <g id="Grupo_1241618" data-name="Grupo 1241618" transform="translate(0 2.061)">
                  <g id="Grupo_1241616" data-name="Grupo 1241616" transform="translate(9.635)">
                    <path id="Trazado_1238847" data-name="Trazado 1238847" d="M561.247,318.077l-.329.885v0l-4.073,10.971-15.421,41.547h-6.588l9.728-43.424,2.791-12.466,13.593,2.428Z" transform="translate(-534.836 -315.595)" fill="#f4ac96"/>
                    <path id="Trazado_1238848" data-name="Trazado 1238848" d="M569.569,321.8a33.74,33.74,0,0,0,.324-4.029L557.737,315.6l-2.791,12.466a64.553,64.553,0,0,1,6.685.668c1.258.2,3.231.7,5.6,1.209l2.733-7.367A.8.8,0,0,1,569.569,321.8Z" transform="translate(-545.218 -315.595)" fill="#e0776e"/>
                  </g>
                  <g id="Grupo_1241617" data-name="Grupo 1241617" transform="translate(0 52.228)">
                    <path id="Trazado_1238849" data-name="Trazado 1238849" d="M533.076,430.7h-4.4l-.242-1.04-1.456,1.04H514.922c-.087-1.867,1.229-3.284,3.018-4.344,3.536-2.1,8.915-2.791,8.915-2.791l4.537.5a9.067,9.067,0,0,1,1,1.9A13.025,13.025,0,0,1,533.076,430.7Z" transform="translate(-514.918 -423.565)" fill="#f4ac96"/>
                    <path id="Trazado_1238850" data-name="Trazado 1238850" d="M533.076,433.261h-4.4l-.242-1.04-1.456,1.04H514.922c-.087-1.867,1.229-3.284,3.018-4.344,1.325,2.032,10.676.372,14.454-.392A13.025,13.025,0,0,1,533.076,433.261Z" transform="translate(-514.918 -426.126)" fill="#2e4a78"/>
                  </g>
                </g>
                <g id="Grupo_1241621" data-name="Grupo 1241621" transform="translate(32.994)">
                  <g id="Grupo_1241619" data-name="Grupo 1241619" transform="translate(1.166)">
                    <path id="Trazado_1238851" data-name="Trazado 1238851" d="M601.4,311.335l-.435,2.438-2.69,15.1-7.193,40.41h-5.548l1.209-40.821.348-11.7v0l.029-.938.068-2.361.053-1.775Z" transform="translate(-585.536 -311.335)" fill="#f4ac96"/>
                    <path id="Trazado_1238852" data-name="Trazado 1238852" d="M588.486,315.735l-.01.368a.834.834,0,0,1,.193.416,13.051,13.051,0,0,1-.14,5.606.835.835,0,0,1-.242.411l-.242,8.2a36.075,36.075,0,0,0,11.532.411l2.689-15.1Z" transform="translate(-586.832 -313.607)" fill="#e0776e"/>
                  </g>
                  <g id="Grupo_1241620" data-name="Grupo 1241620" transform="translate(0 54.288)">
                    <path id="Trazado_1238853" data-name="Trazado 1238853" d="M583.126,430.7h4.4l.242-1.04,1.456,1.04H601.28c.087-1.867-1.229-3.284-3.018-4.344-3.536-2.1-8.915-2.791-8.915-2.791l-4.537.5a9.073,9.073,0,0,0-1,1.9A13.026,13.026,0,0,0,583.126,430.7Z" transform="translate(-583.126 -423.565)" fill="#f4ac96"/>
                    <path id="Trazado_1238854" data-name="Trazado 1238854" d="M583.126,433.261h4.4l.242-1.04,1.456,1.04H601.28c.087-1.867-1.229-3.284-3.018-4.344-1.325,2.032-10.676.372-14.454-.392A13.027,13.027,0,0,0,583.126,433.261Z" transform="translate(-583.126 -426.126)" fill="#2e4a78"/>
                  </g>
                </g>
              </g>
              <g id="Grupo_1241623" data-name="Grupo 1241623" transform="translate(18.627 47.791)">
                <path id="Trazado_1238855" data-name="Trazado 1238855" d="M586.087,299.721c-8.9,1.156-25.908-1.722-32.661-2.714l1.775-8.059,6.782-30.794,16.321-.31s6.487,5.519,7,11.44c.213,2.419.368,5.635.479,9.075C586.106,288.145,586.087,299.721,586.087,299.721Z" transform="translate(-553.426 -257.845)" fill="#f2819f"/>
                <path id="Trazado_1238856" data-name="Trazado 1238856" d="M586.087,321.616c-8.9,1.156-25.908-1.722-32.661-2.714l1.775-8.059c17.578,2.878,26.377-4.407,30.586-10.589C586.106,310.041,586.087,321.616,586.087,321.616Z" transform="translate(-553.426 -279.74)" fill="#ed7498"/>
              </g>
              <g id="Grupo_1241624" data-name="Grupo 1241624" transform="translate(25.851 25.242)">
                <path id="Trazado_1238857" data-name="Trazado 1238857" d="M592.036,225.647c-1.282,4.233-2.956,8.649-3.875,11-.421,1.079-.687,1.722-.687,1.722l-18.188-1.113s-.039-.3-.1-.822c-.116-1.016-.31-2.883-.484-5.108-.421-5.389-.7-12.9.658-15.61.788-1.582,5.423-4.015,11.44-4.45,5.616-.406,12.045,2.665,12.775,4.45C594.228,217.308,593.328,221.385,592.036,225.647Z" transform="translate(-568.36 -211.229)" fill="#f2819f"/>
                <path id="Trazado_1238858" data-name="Trazado 1238858" d="M569.076,237.994c17.641,8.538,19.736-13.849,19.736-13.849l3.594,8.17c-1.282,4.233-2.956,8.649-3.875,11a38.4,38.4,0,0,1-18.972-.213" transform="translate(-568.73 -217.897)" fill="#ed7498"/>
                <path id="Trazado_1238859" data-name="Trazado 1238859" d="M587.116,226.365a.74.74,0,1,1-.74.74A.74.74,0,0,1,587.116,226.365Z" transform="translate(-577.661 -219.044)" fill="#ffd4e3"/>
                <path id="Trazado_1238860" data-name="Trazado 1238860" d="M587.116,234.365a.74.74,0,1,1-.74.74A.74.74,0,0,1,587.116,234.365Z" transform="translate(-577.661 -223.174)" fill="#ffd4e3"/>
              </g>
              <g id="Grupo_1241628" data-name="Grupo 1241628" transform="translate(28.102 28.194)">
                <path id="Trazado_1238861" data-name="Trazado 1238861" d="M599.8,224.445c0-3.85,1.635-8.049,4.765-6.927,3.623,1.3,7.594,23.2,6.608,24.946-1.451,2.559-17.757,3.28-17.757,3.28l-1.161-4.16s10.951-2.341,11.2-3.352C603.783,236.847,599.8,229.983,599.8,224.445Z" transform="translate(-582.948 -217.333)" fill="#f4ac96"/>
                <g id="Grupo_1241627" data-name="Grupo 1241627" transform="translate(0 19.777)">
                  <path id="Trazado_1238862" data-name="Trazado 1238862" d="M576.328,262.91s-3.217-.372-3.313.406,4.358,2.2,4.358,2.2Z" transform="translate(-573.013 -260.594)" fill="#eb9a88"/>
                  <g id="Grupo_1241626" data-name="Grupo 1241626" transform="translate(1.728)">
                    <path id="Trazado_1238863" data-name="Trazado 1238863" d="M586.26,262.667a17.18,17.18,0,0,0-4.465-4.3,8.494,8.494,0,0,0-3.85.184,2.991,2.991,0,0,0-1.316,2.022,1.533,1.533,0,0,0,0,.74c.082.237.339.334.938.363a.817.817,0,0,0-.184.953c.145.329.455.547,1.141.547a.991.991,0,0,0-.116,1.267,1.062,1.062,0,0,0,1.209.464.842.842,0,0,0,.169,1.108,2.231,2.231,0,0,0,2.661-.024,2.59,2.59,0,0,0,1.65.948,2.524,2.524,0,0,0,1.969-.223C586.052,265.351,586.183,263.992,586.26,262.667Z" transform="translate(-576.586 -258.218)" fill="#f4ac96"/>
                    <g id="Grupo_1241625" data-name="Grupo 1241625" transform="translate(1.161 1.542)">
                      <path id="Trazado_1238864" data-name="Trazado 1238864" d="M578.986,263.209a15.472,15.472,0,0,1,3.062-1.8" transform="translate(-578.986 -261.405)" fill="none" stroke="#bd4a51" stroke-linecap="round" stroke-miterlimit="10" stroke-width="0.5"/>
                      <path id="Trazado_1238865" data-name="Trazado 1238865" d="M580.836,266.364a10.559,10.559,0,0,1,3.391-1.969" transform="translate(-579.941 -262.949)" fill="none" stroke="#bd4a51" stroke-linecap="round" stroke-miterlimit="10" stroke-width="0.5"/>
                      <path id="Trazado_1238866" data-name="Trazado 1238866" d="M583.246,269.86a8.859,8.859,0,0,1,2.956-1.635" transform="translate(-581.185 -264.926)" fill="none" stroke="#bd4a51" stroke-linecap="round" stroke-miterlimit="10" stroke-width="0.5"/>
                      <path id="Trazado_1238867" data-name="Trazado 1238867" d="M588.36,272.894a2.019,2.019,0,0,1-.324-1.059" transform="translate(-583.658 -266.79)" fill="none" stroke="#bd4a51" stroke-linecap="round" stroke-miterlimit="10" stroke-width="0.5"/>
                      <path id="Trazado_1238868" data-name="Trazado 1238868" d="M587.306,273.185a1.161,1.161,0,0,1-.9.01" transform="translate(-582.817 -267.487)" fill="none" stroke="#bd4a51" stroke-linecap="round" stroke-miterlimit="10" stroke-width="0.5"/>
                    </g>
                  </g>
                </g>
              </g>
              <g id="Grupo_1241638" data-name="Grupo 1241638" transform="translate(27.631)">
                <g id="Grupo_1241632" data-name="Grupo 1241632" transform="translate(1.786 18.941)">
                  <g id="Grupo_1241629" data-name="Grupo 1241629" transform="translate(0 7.686)">
                    <path id="Trazado_1238869" data-name="Trazado 1238869" d="M589.766,217.292s5.969,3.27,6.874,2.82c1.422-.706,1.872-6.018,1.872-6.018Z" transform="translate(-582.977 -214.095)" fill="#e0608f"/>
                    <path id="Trazado_1238870" data-name="Trazado 1238870" d="M582.181,217.986s-5.5,2.254-6.143,1.761c-1-.769.764-4.121.764-4.121Z" transform="translate(-575.731 -214.885)" fill="#e0608f"/>
                  </g>
                  <g id="Grupo_1241631" data-name="Grupo 1241631" transform="translate(0.309)">
                    <g id="Grupo_1241630" data-name="Grupo 1241630" transform="translate(3.012)">
                      <path id="Trazado_1238871" data-name="Trazado 1238871" d="M585.9,208.992c2.989,0,6.6-3.357,6.6-3.357a13.5,13.5,0,0,1-1.2-5.427c.034-.614.106-1.277.208-2l-6.68,1.069a25.623,25.623,0,0,1-.663,4.441,3.747,3.747,0,0,1-1.572,2.477S583.2,208.992,585.9,208.992Z" transform="translate(-582.596 -198.205)" fill="#f4ac96"/>
                      <path id="Trazado_1238872" data-name="Trazado 1238872" d="M585.836,203.715c3.241.537,5.988-2.157,7.135-3.507.034-.614.106-1.277.208-2l-6.68,1.069a21.868,21.868,0,0,1-.455,3.512C585.976,203.105,585.9,203.415,585.836,203.715Z" transform="translate(-584.269 -198.205)" fill="#e0776e"/>
                    </g>
                    <path id="Trazado_1238873" data-name="Trazado 1238873" d="M589.066,215.327s5.1-1.8,6.366-4.852c0,0,2.472.793,2.7,1.316s-1.18,5.645-2.124,5.645S589.066,215.327,589.066,215.327Z" transform="translate(-582.924 -204.54)" fill="#ffd4e3"/>
                    <path id="Trazado_1238874" data-name="Trazado 1238874" d="M582.5,216.091s-2.254-2.965-2.124-4.117c0,0-2.423.334-2.98,1.069s-1.369,3.671-.866,4.286S582.5,216.091,582.5,216.091Z" transform="translate(-576.37 -205.314)" fill="#ffd4e3"/>
                  </g>
                </g>
                <g id="Grupo_1241637" data-name="Grupo 1241637">
                  <path id="Trazado_1238875" data-name="Trazado 1238875" d="M572.084,186.67c.272-.98,1.689-1.443,3.164-1.034s2.45,1.537,2.177,2.517-1.689,1.443-3.164,1.034S571.812,187.651,572.084,186.67Z" transform="translate(-572.039 -172.698)" fill="#e0776e"/>
                  <g id="Grupo_1241633" data-name="Grupo 1241633" transform="translate(2.253 3.286)">
                    <path id="Trazado_1238876" data-name="Trazado 1238876" d="M582.32,185.385c4.058,0,9.882-3.647,10.4-9.1s-1.9-9.762-6.588-10.347c-7.677-.963-8.847,5.321-9.157,8.02C576.3,179.831,577.555,185.385,582.32,185.385Z" transform="translate(-576.752 -165.84)" fill="#f4ac96"/>
                    <path id="Trazado_1238877" data-name="Trazado 1238877" d="M591.227,178.36c-.934-.73-1.712-2.554-2.336-3.4a5.9,5.9,0,0,1-2.336-2.153,12.339,12.339,0,0,1-2.52,1.021,4.074,4.074,0,0,1-2.67-.169,1.629,1.629,0,0,1-.7-.551,1.459,1.459,0,0,1-.2-.866,7.694,7.694,0,0,0-2.462,1c-.435.876-.871,1.746-1.311,2.622q.385-2.373.764-4.75,6.327-2.1,12.828-3.594a13.457,13.457,0,0,0,1.988,5.292,2.111,2.111,0,0,1,.469,1.151,1.98,1.98,0,0,1-.213.711C592.117,175.584,591.827,177.127,591.227,178.36Z" transform="translate(-576.696 -166.705)" fill="#e0776e"/>
                  </g>
                  <g id="Grupo_1241634" data-name="Grupo 1241634" transform="translate(3.119 11.539)">
                    <path id="Trazado_1238878" data-name="Trazado 1238878" d="M591.69,189.179a.544.544,0,1,1,.454.7A.591.591,0,0,1,591.69,189.179Z" transform="translate(-585.3 -185.85)" fill="#273a52"/>
                    <path id="Trazado_1238879" data-name="Trazado 1238879" d="M579.047,187.2a.544.544,0,1,1,.438.706A.591.591,0,0,1,579.047,187.2Z" transform="translate(-578.772 -184.835)" fill="#273a52"/>
                    <path id="Trazado_1238880" data-name="Trazado 1238880" d="M593.986,185.479a2.814,2.814,0,0,0-2.83-.614" transform="translate(-585.027 -183.837)" fill="none" stroke="#2d245d" stroke-linecap="round" stroke-miterlimit="10" stroke-width="1"/>
                    <path id="Trazado_1238881" data-name="Trazado 1238881" d="M583.822,189.455a5.739,5.739,0,0,0-.082,2.457" transform="translate(-581.142 -186.285)" fill="none" stroke="#bd4a51" stroke-linecap="round" stroke-miterlimit="10" stroke-width="1"/>
                    <path id="Trazado_1238882" data-name="Trazado 1238882" d="M580.987,183.362a2.622,2.622,0,0,0-2.5-.256" transform="translate(-578.486 -182.901)" fill="none" stroke="#2d245d" stroke-linecap="round" stroke-miterlimit="10" stroke-width="1"/>
                    <path id="Trazado_1238883" data-name="Trazado 1238883" d="M585.542,196.033a15.62,15.62,0,0,0,3.449-.958,1.947,1.947,0,0,1-2.162,2.951A1.853,1.853,0,0,1,585.542,196.033Z" transform="translate(-582.127 -189.186)" fill="#bd4a51"/>
                  </g>
                  <g id="Grupo_1241636" data-name="Grupo 1241636" transform="translate(1.813)">
                    <path id="Trazado_1238884" data-name="Trazado 1238884" d="M605.83,159.4a5.571,5.571,0,1,1-2.852,7.106A5.419,5.419,0,0,1,605.83,159.4Z" transform="translate(-589.613 -159.047)" fill="#241e57"/>
                    <g id="Grupo_1241635" data-name="Grupo 1241635" transform="translate(0 1.725)">
                      <path id="Trazado_1238885" data-name="Trazado 1238885" d="M592.59,176.986c-1.171.179-.721-.048-1.412.29a19.843,19.843,0,0,1-2.477-5.49,4,4,0,0,1-1.959-2.748,10.276,10.276,0,0,1-4.576,1.49c-.469.039-1.04-.019-1.234-.445a.833.833,0,0,1,.077-.745,5.188,5.188,0,0,1,.585-.687,21.431,21.431,0,0,0-4.334,1.562,19.915,19.915,0,0,0-1.006,4.707,12.7,12.7,0,0,1-.16-6.172,11.6,11.6,0,0,1,.6-1.8,8.518,8.518,0,0,1,7.943-4.32,15.951,15.951,0,0,1,4.358.73,6.708,6.708,0,0,1,4.639,4.6A12.986,12.986,0,0,1,592.59,176.986Z" transform="translate(-575.786 -162.614)" fill="#2c2460"/>
                      <path id="Trazado_1238886" data-name="Trazado 1238886" d="M589.327,163.355a15.561,15.561,0,0,0-7.831,1.267,13.117,13.117,0,0,0-5.069,4.126,11.6,11.6,0,0,1,.6-1.8,8.518,8.518,0,0,1,7.943-4.32A15.951,15.951,0,0,1,589.327,163.355Z" transform="translate(-576.116 -162.614)" fill="#554678"/>
                    </g>
                  </g>
                  <path id="Trazado_1238887" data-name="Trazado 1238887" d="M604.6,188.912c1.5-.289,2.886.331,3.09,1.385s-.851,2.144-2.354,2.434-2.886-.331-3.089-1.385S603.1,189.2,604.6,188.912Z" transform="translate(-587.622 -174.429)" fill="#f4ac96"/>
                </g>
              </g>
            </g>
          </g>
        </g>
      </g>
    </g>
  </g>
</svg>
