<svg xmlns="http://www.w3.org/2000/svg" xmlns:xlink="http://www.w3.org/1999/xlink" width="103" height="103" viewBox="0 0 103 103">
  <defs>
    <filter id="Trazado_978624" x="0" y="0" width="103" height="103" filterUnits="userSpaceOnUse">
      <feOffset dy="3" input="SourceAlpha"/>
      <feGaussianBlur stdDeviation="3" result="blur"/>
      <feFlood flood-opacity="0.161"/>
      <feComposite operator="in" in2="blur"/>
      <feComposite in="SourceGraphic"/>
    </filter>
  </defs>
  <g id="Grupo_1241718" data-name="Grupo 1241718" transform="translate(-171 -1211)">
    <g id="Grupo_1235110" data-name="Grupo 1235110" transform="translate(0 -3054)">
      <g id="Grupo_1233827" data-name="Grupo 1233827" transform="translate(0 2673)">
        <g id="Grupo_1228308" data-name="Grupo 1228308" transform="translate(0 579)">
          <g id="Grupo_1220654" data-name="Grupo 1220654" transform="translate(180 1019)">
            <g id="Grupo_1176881" data-name="Grupo 1176881">
              <g id="Grupo_1175148" data-name="Grupo 1175148">
                <g id="Grupo_1173798" data-name="Grupo 1173798">
                  <g id="Grupo_1171925" data-name="Grupo 1171925">
                    <g id="Grupo_1164524" data-name="Grupo 1164524">
                      <g id="Grupo_1144123" data-name="Grupo 1144123">
                        <g transform="matrix(1, 0, 0, 1, -9, -6)" filter="url(#Trazado_978624)">
                          <g id="Trazado_978624-2" data-name="Trazado 978624" transform="translate(9 6)" fill="#e9f9fd">
                            <path d="M 42.5 83.5 C 36.96437835693359 83.5 31.59512901306152 82.41617584228516 26.54141235351562 80.27863311767578 C 21.65934181213379 78.21369171142578 17.27447128295898 75.25723266601562 13.50862312316895 71.49137878417969 C 9.742764472961426 67.72553253173828 6.786305904388428 63.34066009521484 4.721364498138428 58.45858764648438 C 2.583823442459106 53.40486907958984 1.5 48.03562164306641 1.5 42.5 C 1.5 36.96437835693359 2.583823442459106 31.59512901306152 4.721364498138428 26.54141235351562 C 6.786305904388428 21.65934181213379 9.742764472961426 17.27447128295898 13.50862312316895 13.50862312316895 C 17.27447128295898 9.742764472961426 21.65934181213379 6.786305904388428 26.54141235351562 4.721364498138428 C 31.59512901306152 2.583823442459106 36.96437835693359 1.5 42.5 1.5 C 48.03562164306641 1.5 53.40486907958984 2.583823442459106 58.45858764648438 4.721364498138428 C 63.34066009521484 6.786305904388428 67.72553253173828 9.742764472961426 71.49137878417969 13.50862312316895 C 75.25723266601562 17.27447128295898 78.21369171142578 21.65934181213379 80.27863311767578 26.54141235351562 C 82.41617584228516 31.59512901306152 83.5 36.96437835693359 83.5 42.5 C 83.5 48.03562164306641 82.41617584228516 53.40486907958984 80.27863311767578 58.45858764648438 C 78.21369171142578 63.34066009521484 75.25723266601562 67.72553253173828 71.49137878417969 71.49137878417969 C 67.72553253173828 75.25723266601562 63.34066009521484 78.21369171142578 58.45858764648438 80.27863311767578 C 53.40486907958984 82.41617584228516 48.03562164306641 83.5 42.5 83.5 Z" stroke="none"/>
                            <path d="M 42.5 3 C 37.16621398925781 3 31.99356079101562 4.043960571289062 27.125732421875 6.102882385253906 C 22.42246627807617 8.092185974121094 18.19785308837891 10.94070434570312 14.56928253173828 14.56928253173828 C 10.94070434570312 18.19785308837891 8.092185974121094 22.42246627807617 6.102882385253906 27.125732421875 C 4.043960571289062 31.99356079101562 3 37.16621398925781 3 42.5 C 3 47.83378601074219 4.043960571289062 53.00643920898438 6.102882385253906 57.87425231933594 C 8.092185974121094 62.57753372192383 10.94070434570312 66.80213165283203 14.56928253173828 70.43071746826172 C 18.19786834716797 74.05929565429688 22.42246627807617 76.90781402587891 27.125732421875 78.89711761474609 C 31.99356079101562 80.95603942871094 37.16621398925781 82 42.5 82 C 47.83378601074219 82 53.00642395019531 80.95603942871094 57.87425231933594 78.89711761474609 C 62.57753372192383 76.90781402587891 66.80213165283203 74.05929565429688 70.43071746826172 70.43071746826172 C 74.05929565429688 66.80213165283203 76.90781402587891 62.57753372192383 78.89711761474609 57.87425231933594 C 80.95603942871094 53.00642395019531 82 47.83378601074219 82 42.5 C 82 37.16621398925781 80.95603942871094 31.99356079101562 78.89711761474609 27.125732421875 C 76.90781402587891 22.42246627807617 74.05929565429688 18.19786834716797 70.43071746826172 14.56928253173828 C 66.80213165283203 10.94070434570312 62.57753372192383 8.092185974121094 57.87425231933594 6.102882385253906 C 53.00643920898438 4.043960571289062 47.83378601074219 3 42.5 3 M 42.5 0 C 65.97209167480469 0 85 19.02789306640625 85 42.5 C 85 65.97209167480469 65.97209167480469 85 42.5 85 C 19.02789306640625 85 0 65.97209167480469 0 42.5 C 0 19.02789306640625 19.02789306640625 0 42.5 0 Z" stroke="none" fill="#36ceef"/>
                          </g>
                        </g>
                      </g>
                    </g>
                  </g>
                </g>
              </g>
            </g>
          </g>
        </g>
      </g>
    </g>
    <g id="publico-objetivo_1_" data-name="publico-objetivo (1)" transform="translate(191.234 1228.234)">
      <g id="Grupo_1241716" data-name="Grupo 1241716" transform="translate(0.916 0.916)">
        <circle id="Elipse_12329" data-name="Elipse 12329" cx="25.773" cy="25.773" r="25.773" transform="translate(4.577 4.577)" fill="#f2fbff"/>
        <path id="Trazado_1239053" data-name="Trazado 1239053" d="M264.014,70.753a25.773,25.773,0,0,1-25.773,25.773q-1.251,0-2.471-.117a25.774,25.774,0,0,0,0-51.311q1.22-.117,2.471-.117A25.773,25.773,0,0,1,264.014,70.753Z" transform="translate(-207.89 -40.402)" fill="#deecf1"/>
        <path id="Trazado_1239054" data-name="Trazado 1239054" d="M237.2,18.62h-6.077V10.538a3.038,3.038,0,1,1,6.077,0Z" transform="translate(-203.811 -7.5)" fill="#fe93bb"/>
        <path id="Trazado_1239055" data-name="Trazado 1239055" d="M248.118,10.539V18.62h-3.039V10.539a3.045,3.045,0,0,0-1.519-2.632,3.04,3.04,0,0,1,4.558,2.632Z" transform="translate(-214.729 -7.5)" fill="#fe76a8"/>
        <path id="Trazado_1239056" data-name="Trazado 1239056" d="M413.449,237.2v-6.077h8.082a3.038,3.038,0,1,1,0,6.077h-8.082Z" transform="translate(-363.869 -203.811)" fill="#fe93bb"/>
        <path id="Trazado_1239057" data-name="Trazado 1239057" d="M460.817,234.159a3.04,3.04,0,0,1-3.039,3.039H454.74a3.039,3.039,0,0,0,0-6.077h3.039A3.039,3.039,0,0,1,460.817,234.159Z" transform="translate(-400.117 -203.808)" fill="#fe76a8"/>
        <path id="Trazado_1239058" data-name="Trazado 1239058" d="M231.121,413.449H237.2v8.082a3.038,3.038,0,0,1-6.077,0v-8.082Z" transform="translate(-203.809 -363.869)" fill="#fe93bb"/>
        <path id="Trazado_1239059" data-name="Trazado 1239059" d="M248.118,413.45v8.082a3.039,3.039,0,0,1-4.558,2.632,3.036,3.036,0,0,0,1.519-2.632V413.45Z" transform="translate(-214.729 -363.87)" fill="#fe76a8"/>
        <path id="Trazado_1239060" data-name="Trazado 1239060" d="M18.62,231.12V237.2H10.539a3.039,3.039,0,0,1,0-6.077Z" transform="translate(-7.5 -203.808)" fill="#fe93bb"/>
        <path id="Trazado_1239061" data-name="Trazado 1239061" d="M66.85,231.12V237.2H62.661a21,21,0,0,1,0-6.077Z" transform="translate(-55.73 -203.808)" fill="#fe76a8"/>
        <path id="Trazado_1239062" data-name="Trazado 1239062" d="M127.1,106.276a20.81,20.81,0,0,1-8.791,17c-.377.267-.765.524-1.161.766a20.845,20.845,0,0,1-21.757,0c-.288-.176-.57-.359-.849-.548A20.831,20.831,0,1,1,127.1,106.276Z" transform="translate(-75.921 -75.925)" fill="#ffe177"/>
        <path id="Trazado_1239063" data-name="Trazado 1239063" d="M231.122,278.261H237.2v4.905h-6.077Z" transform="translate(-203.81 -245.192)" fill="#ffb09e"/>
        <path id="Trazado_1239064" data-name="Trazado 1239064" d="M212.978,192.322h-3.032a4.68,4.68,0,0,1-4.68-4.68v-8.521h12.393v8.521A4.68,4.68,0,0,1,212.978,192.322Z" transform="translate(-181.112 -158.16)" fill="#ffcebf"/>
        <path id="Trazado_1239065" data-name="Trazado 1239065" d="M181.585,212.343h.764v-4.849h-.764a2.425,2.425,0,0,0,0,4.849Z" transform="translate(-158.195 -183.068)" fill="#ffb09e"/>
        <path id="Trazado_1239066" data-name="Trazado 1239066" d="M307.5,212.343h-.764v-4.849h.764a2.425,2.425,0,0,1,0,4.849Z" transform="translate(-270.186 -183.068)" fill="#ffb09e"/>
        <path id="Trazado_1239067" data-name="Trazado 1239067" d="M326.774,333.974a20.916,20.916,0,0,1-6.391,7.287c-.377.267-.765.524-1.161.766-.6-.757-1.229-1.578-1.786-2.322-1.02-1.365-1.81-2.474-1.81-2.474l.3-1.65a2.227,2.227,0,0,1,2.189-1.825h7.7a.85.85,0,0,1,.1,0A2.179,2.179,0,0,1,326.774,333.974Z" transform="translate(-277.993 -293.908)" fill="#60b7ff"/>
        <path id="Trazado_1239068" data-name="Trazado 1239068" d="M354.246,304.555h3.25v3.566h-3.25Z" transform="translate(-311.896 -268.274)" fill="#ffdfcf"/>
        <path id="Trazado_1239069" data-name="Trazado 1239069" d="M347.875,256.3v1.65a3.18,3.18,0,0,1-6.36,0V256.3a2.119,2.119,0,0,1,2.119-2.118h2.121a2.12,2.12,0,0,1,2.119,2.118Z" transform="translate(-300.721 -224.056)" fill="#ffeee6"/>
        <g id="Grupo_1241715" data-name="Grupo 1241715" transform="translate(11.92 30.129)">
          <path id="Trazado_1239070" data-name="Trazado 1239070" d="M116.247,337.23s-1.886,2.647-3.6,4.795c-.288-.176-.57-.359-.849-.548a20.9,20.9,0,0,1-6.7-7.5,2.192,2.192,0,0,1,.859-.214.836.836,0,0,1,.1,0h7.7a2.227,2.227,0,0,1,2.189,1.825Z" transform="translate(-105.1 -324.037)" fill="#9be69d"/>
          <path id="Trazado_1239071" data-name="Trazado 1239071" d="M0,0H3.251V3.566H0Z" transform="translate(6.431 9.718) rotate(180)" fill="#ffb09e"/>
          <path id="Trazado_1239072" data-name="Trazado 1239072" d="M121.6,261.132a3.179,3.179,0,0,1-3.179-3.179V256.3a2.118,2.118,0,0,1,2.118-2.118h2.122a2.118,2.118,0,0,1,2.118,2.118v1.649A3.179,3.179,0,0,1,121.6,261.132Z" transform="translate(-116.792 -254.185)" fill="#ffcebf"/>
        </g>
        <path id="Trazado_1239073" data-name="Trazado 1239073" d="M183.743,327.8a20.741,20.741,0,0,1-12.04,3.829,20.955,20.955,0,0,1-2.443-.142,20.7,20.7,0,0,1-9.285-3.471l.562-4.179a5.119,5.119,0,0,1,3.179-3.569l4.948-1.845h6.077l4.948,1.845a5.119,5.119,0,0,1,3.179,3.569l.042.189Z" transform="translate(-141.353 -280.45)" fill="#925cb4"/>
        <path id="Trazado_1239074" data-name="Trazado 1239074" d="M192.992,147.1s-2.228-2.135-1.594-4.625c.508-1.994,2.248-3.644,5.779-2.545,1.613.5,3.2-.529,4.759-1.083,1.5-.533,3.127.4,2.669,2.321,0,0,1.866-.963,2.751.688,1.267,2.364-1.971,5.244-1.971,5.244a9.819,9.819,0,0,1-8.139-1.737S195.273,147.739,192.992,147.1Z" transform="translate(-168.838 -122.676)" fill="#678d98"/>
        <path id="Trazado_1239075" data-name="Trazado 1239075" d="M371.416,24.3H356.769a1.214,1.214,0,0,0-.733.246l-1.368,1.035a.267.267,0,0,1-.428-.213V8.677A1.177,1.177,0,0,1,355.418,7.5h16a1.177,1.177,0,0,1,1.177,1.177V23.119a1.177,1.177,0,0,1-1.177,1.177Z" transform="translate(-311.892 -7.5)" fill="#9be69d"/>
        <path id="Trazado_1239076" data-name="Trazado 1239076" d="M460.932,8.676V23.12a1.176,1.176,0,0,1-1.176,1.176H454.87a1.176,1.176,0,0,0,1.176-1.176V8.676A1.176,1.176,0,0,0,454.87,7.5h4.885A1.176,1.176,0,0,1,460.932,8.676Z" transform="translate(-400.231 -7.5)" fill="#6fd7a3"/>
        <path id="Trazado_1239077" data-name="Trazado 1239077" d="M391.649,54.4a8,8,0,0,1-11.115,0,1.4,1.4,0,0,1,0-2.007,8,8,0,0,1,11.117,0A1.4,1.4,0,0,1,391.649,54.4Z" transform="translate(-334.6 -44.941)" fill="#f2fbff"/>
        <path id="Trazado_1239078" data-name="Trazado 1239078" d="M465.734,63.534a8.028,8.028,0,0,1-1.234.978V60.55a8.02,8.02,0,0,1,1.234.977A1.4,1.4,0,0,1,465.734,63.534Z" transform="translate(-408.685 -54.071)" fill="#deecf1"/>
        <circle id="Elipse_12330" data-name="Elipse 12330" cx="2.462" cy="2.462" r="2.462" transform="translate(49.029 5.998)" fill="#678d98"/>
      </g>
      <g id="Grupo_1241717" data-name="Grupo 1241717" transform="translate(0 0)">
        <path id="Trazado_1239079" data-name="Trazado 1239079" d="M238.766,246.22a2.958,2.958,0,0,0,1.813.687,2.821,2.821,0,0,0,1.773-.6l.06-.042a.916.916,0,0,0-1.036-1.511l-.066.046a1.046,1.046,0,0,1-.731.271,1.14,1.14,0,0,1-.646-.267.916.916,0,1,0-1.167,1.413Z" transform="translate(-209.312 -214.724)"/>
        <path id="Trazado_1239080" data-name="Trazado 1239080" d="M60.44,18.628a2.1,2.1,0,0,0,2.093-2.093V2.093A2.1,2.1,0,0,0,60.44,0H55.555a.916.916,0,1,0,0,1.832H60.44a.261.261,0,0,1,.261.261V16.535a.261.261,0,0,1-.261.261H45.793a2.46,2.46,0,0,0-1.612.679V2.093a.261.261,0,0,1,.261-.261H51.09A.916.916,0,0,0,51.09,0H44.442a2.1,2.1,0,0,0-2.093,2.093V6.982A26.417,26.417,0,0,0,35.221,4.87V3.954a3.954,3.954,0,1,0-7.909,0V4.87A26.7,26.7,0,0,0,4.87,27.312H3.954a3.954,3.954,0,0,0,0,7.909H4.87A26.7,26.7,0,0,0,27.312,57.663v.915a3.954,3.954,0,1,0,7.909,0v-.915A26.7,26.7,0,0,0,57.663,35.221h.915a3.954,3.954,0,0,0,0-7.909h-.914a26.333,26.333,0,0,0-2.886-8.684Zm-16.194,1.1,1.368-1.035c.1-.115.907-.041,1.044-.06a19.91,19.91,0,0,1,2.561,21.256,3.417,3.417,0,0,0-.477-.037H47.432V38.02a4.089,4.089,0,0,0,1.554-3.207V33.163a3.038,3.038,0,0,0-3.034-3.034H43.83A3.038,3.038,0,0,0,40.8,33.163v1.649a4.089,4.089,0,0,0,1.554,3.207v1.827H41.04a3.141,3.141,0,0,0-1.084.195.916.916,0,0,0-.69,1.694,4.187,4.187,0,0,1,2.274,2.779l.737,3.339a19.977,19.977,0,0,1-21.752.177L21,44.479a4.2,4.2,0,0,1,2.6-2.884l4.793-1.788H34.14l1.131.422a.916.916,0,0,0,.64-1.716l-.69-.257v-2.82a5.609,5.609,0,0,0,3.112-4.33,3.34,3.34,0,0,0,1-6.489c.927-1.252,1.868-3.155.906-4.951a2.632,2.632,0,0,0-2.614-1.442,2.6,2.6,0,0,0-.822-1.486,3.077,3.077,0,0,0-3.1-.511c-.387.138-.77.3-1.14.457a4.688,4.688,0,0,1-3.04.615,5.91,5.91,0,0,0-4.745.189,4.68,4.68,0,0,0-2.193,3,5.359,5.359,0,0,0,.743,4.081A3.34,3.34,0,0,0,24.2,31.1a5.609,5.609,0,0,0,3.112,4.33v2.82L22.96,39.878c-.132.049-.261.1-.388.162a3.142,3.142,0,0,0-1.078-.193H20.184V38.02a4.089,4.089,0,0,0,1.554-3.207V33.163A3.038,3.038,0,0,0,18.7,30.129H16.581a3.038,3.038,0,0,0-3.034,3.034v1.649A4.089,4.089,0,0,0,15.1,38.02v1.827H13.791a3.436,3.436,0,0,0-.477.037A19.916,19.916,0,0,1,42.349,14.718V18.78a1.182,1.182,0,0,0,1.9.943Zm-.356,26.935-.563-2.551-.005-.022a6.032,6.032,0,0,0-1.212-2.406h6.127A20.071,20.071,0,0,1,43.889,46.658Zm3.264-11.846a2.263,2.263,0,0,1-4.526,0V33.163a1.2,1.2,0,0,1,1.2-1.2h2.122a1.2,1.2,0,0,1,1.2,1.2v1.649Zm-2.263,4.1a4.106,4.106,0,0,0,.71-.063v1H44.181v-1A4.1,4.1,0,0,0,44.891,38.907ZM14.3,41.679h6.131a6.033,6.033,0,0,0-1.217,2.406.912.912,0,0,0-.019.1l-.354,2.633A20.07,20.07,0,0,1,14.3,41.679Zm5.608-6.867a2.263,2.263,0,0,1-4.526,0V33.163a1.2,1.2,0,0,1,1.2-1.2H18.7a1.2,1.2,0,0,1,1.2,1.2v1.649Zm-2.263,4.1a4.106,4.106,0,0,0,.71-.063v1H16.933v-1A4.1,4.1,0,0,0,17.642,38.907Zm6.512-9.64a1.509,1.509,0,0,1,0-3Zm11.96-9.135a.911.911,0,0,0,.981.094c.253-.125,1.113-.475,1.53.3.765,1.427-1.053,3.412-1.614,3.974a8.9,8.9,0,0,1-7.112-1.61.91.91,0,0,0-.575-.2.919.919,0,0,0-.7.327c-.015.018-1.489,1.739-3.076,1.492a4.258,4.258,0,0,1-1.181-3.567,2.876,2.876,0,0,1,1.312-1.857,4.2,4.2,0,0,1,3.307-.039,6.153,6.153,0,0,0,4.3-.678c.361-.153.7-.3,1.037-.417a1.276,1.276,0,0,1,1.261.149,1.1,1.1,0,0,1,.21,1.1A.917.917,0,0,0,36.114,20.133Zm2.264,6.133a1.509,1.509,0,0,1,0,3ZM25.986,30.191V26.365a5.643,5.643,0,0,0,3.427-1.552,10.233,10.233,0,0,0,5.777,1.7,11.639,11.639,0,0,0,1.356-.079v3.759a3.782,3.782,0,0,1-3.764,3.971H29.75A3.782,3.782,0,0,1,25.986,30.191Zm3.764,5.8h3.032a5.622,5.622,0,0,0,.607-.033v2.013H29.144V35.961A5.647,5.647,0,0,0,29.75,35.994Zm12.6-26.983v3.54a21.529,21.529,0,0,0-7.128-2.673V6.723A24.6,24.6,0,0,1,42.349,9.011ZM31.266,1.832a2.125,2.125,0,0,1,2.122,2.122V9.621a21.985,21.985,0,0,0-4.245,0V3.954a2.125,2.125,0,0,1,2.122-2.122ZM13.67,13.71A24.937,24.937,0,0,1,27.312,6.723V9.881A21.806,21.806,0,0,0,9.881,27.312H6.723A24.939,24.939,0,0,1,13.67,13.71ZM1.832,31.266a2.125,2.125,0,0,1,2.122-2.122H9.623q-.1,1.048-.1,2.122t.1,2.122H3.954a2.125,2.125,0,0,1-2.122-2.122ZM13.656,48.809A24.939,24.939,0,0,1,6.723,35.221H9.881a21.9,21.9,0,0,0,9.142,14.02,21.577,21.577,0,0,0,8.289,3.413v3.156a24.939,24.939,0,0,1-13.656-7ZM31.266,60.7a2.125,2.125,0,0,1-2.122-2.122V52.91a22.192,22.192,0,0,0,4.245,0v5.667A2.125,2.125,0,0,1,31.266,60.7ZM48.819,48.866a24.945,24.945,0,0,1-13.6,6.943V52.654A21.875,21.875,0,0,0,52.652,35.221h3.157A24.944,24.944,0,0,1,48.819,48.866ZM60.7,31.266a2.125,2.125,0,0,1-2.122,2.122H52.91q.1-1.048.1-2.122t-.105-2.122h5.67A2.125,2.125,0,0,1,60.7,31.266Zm-4.892-3.954H52.65a21.75,21.75,0,0,0-3.685-8.684h3.708A24.541,24.541,0,0,1,55.809,27.312Z" transform="translate(0 0)"/>
        <path id="Trazado_1239081" data-name="Trazado 1239081" d="M372.607,46.813a2.292,2.292,0,0,0,.7,1.661,8.912,8.912,0,0,0,12.39,0,2.312,2.312,0,0,0,0-3.323,8.91,8.91,0,0,0-12.39,0,2.291,2.291,0,0,0-.7,1.661Zm6.9-1.546a1.546,1.546,0,1,1-1.546,1.546A1.547,1.547,0,0,1,379.506,45.267Zm5.067,1.546a.476.476,0,0,1-.146.345,7.079,7.079,0,0,1-2.01,1.366,3.367,3.367,0,0,0,0-3.421,7.082,7.082,0,0,1,2.011,1.366A.477.477,0,0,1,384.573,46.813Zm-9.988-.345A7.075,7.075,0,0,1,376.6,45.1a3.367,3.367,0,0,0,0,3.422,7.075,7.075,0,0,1-2.011-1.366.481.481,0,0,1,0-.689Z" transform="translate(-327.099 -37.437)"/>
      </g>
    </g>
  </g>
</svg>
