<svg xmlns="http://www.w3.org/2000/svg" xmlns:xlink="http://www.w3.org/1999/xlink" width="108" height="108" viewBox="0 0 108 108">
  <defs>
    <filter id="Trazado_904820" x="0" y="0" width="108" height="108" filterUnits="userSpaceOnUse">
      <feOffset dy="3" input="SourceAlpha"/>
      <feGaussianBlur stdDeviation="3" result="blur"/>
      <feFlood flood-opacity="0.161"/>
      <feComposite operator="in" in2="blur"/>
      <feComposite in="SourceGraphic"/>
    </filter>
  </defs>
  <g id="Grupo_1242002" data-name="Grupo 1242002" transform="translate(-618 -317.149)">
    <g id="Grupo_1241793" data-name="Grupo 1241793" transform="translate(0 -4335.851)">
      <g id="Grupo_1235116" data-name="Grupo 1235116" transform="translate(627 4659)">
        <g id="Grupo_1233829" data-name="Grupo 1233829" transform="translate(0 0)">
          <g id="Grupo_1228307" data-name="Grupo 1228307" transform="translate(0 0)">
            <g id="Grupo_1228100" data-name="Grupo 1228100">
              <g id="Grupo_1221597" data-name="Grupo 1221597">
                <g id="Grupo_1219744" data-name="Grupo 1219744">
                  <g id="Grupo_1202418" data-name="Grupo 1202418">
                    <g id="Grupo_1177315" data-name="Grupo 1177315">
                      <g id="Grupo_1173585" data-name="Grupo 1173585">
                        <g id="Grupo_1173428" data-name="Grupo 1173428">
                          <g id="Grupo_1171958" data-name="Grupo 1171958">
                            <g id="Grupo_1167341" data-name="Grupo 1167341">
                              <g id="Grupo_1166792" data-name="Grupo 1166792">
                                <g transform="matrix(1, 0, 0, 1, -9, -6)" filter="url(#Trazado_904820)">
                                  <g id="Trazado_904820-2" data-name="Trazado 904820" transform="translate(9 6)" fill="#e9f9fd">
                                    <path d="M 44.99999237060547 88.49993133544922 C 39.12686920166016 88.49993133544922 33.43022918701172 87.35000610351562 28.06829261779785 85.08209991455078 C 22.88853073120117 82.89124298095703 18.23630523681641 79.75453186035156 14.24085521697998 75.75907897949219 C 10.24540519714355 71.76364135742188 7.108692169189453 67.11141204833984 4.917829990386963 61.9316520690918 C 2.649929761886597 56.56972885131836 1.500004887580872 50.87307739257812 1.500004887580872 44.99996566772461 C 1.500004887580872 39.1268424987793 2.649929761886597 33.43020248413086 4.917829990386963 28.06827735900879 C 7.108692169189453 22.88850402832031 10.24540519714355 18.23628997802734 14.24085521697998 14.24084091186523 C 18.23630523681641 10.24540328979492 22.88853073120117 7.108690738677979 28.06829261779785 4.91782808303833 C 33.43022918701172 2.649928092956543 39.12686920166016 1.500003218650818 44.99999237060547 1.500003218650818 C 50.87311553955078 1.500003218650818 56.56976699829102 2.649928092956543 61.93169403076172 4.91782808303833 C 67.11146545410156 7.108690738677979 71.76369476318359 10.24540328979492 75.75914001464844 14.24084091186523 C 79.75457763671875 18.23628997802734 82.89130401611328 22.88850402832031 85.08216857910156 28.06827735900879 C 87.35006713867188 33.43020248413086 88.49999237060547 39.1268424987793 88.49999237060547 44.99996566772461 C 88.49999237060547 50.87307739257812 87.35006713867188 56.56972885131836 85.08216857910156 61.9316520690918 C 82.89130401611328 67.11141204833984 79.75457763671875 71.76364135742188 75.75914001464844 75.75907897949219 C 71.76369476318359 79.75453186035156 67.11146545410156 82.89124298095703 61.93169403076172 85.08209991455078 C 56.56976699829102 87.35000610351562 50.87311553955078 88.49993133544922 44.99999237060547 88.49993133544922 Z" stroke="none"/>
                                    <path d="M 44.99999237060547 2.999992370605469 C 39.32870483398438 2.999992370605469 33.82866287231445 4.110054016113281 28.65262222290039 6.299324035644531 C 23.65164947509766 8.414566040039062 19.15969085693359 11.44332122802734 15.30150604248047 15.30149078369141 C 11.44333648681641 19.15968322753906 8.414566040039062 23.65163421630859 6.299331665039062 28.65260696411133 C 4.11004638671875 33.82863616943359 2.999992370605469 39.32867813110352 2.999992370605469 44.99996566772461 C 2.999992370605469 50.67123794555664 4.11004638671875 56.17129516601562 6.299331665039062 61.34732055664062 C 8.414566040039062 66.34829711914062 11.44333648681641 70.84025573730469 15.30150604248047 74.69842529296875 C 19.15969085693359 78.55659484863281 23.65164947509766 81.58535003662109 28.65262222290039 83.70059204101562 C 33.82866287231445 85.88986206054688 39.32870483398438 86.99992370605469 44.99999237060547 86.99992370605469 C 50.67127990722656 86.99992370605469 56.17132186889648 85.88986206054688 61.34736633300781 83.70059204101562 C 66.34833526611328 81.58535003662109 70.84029388427734 78.55659484863281 74.69846343994141 74.69842529296875 C 78.55663299560547 70.84025573730469 81.58540344238281 66.34829711914062 83.70063781738281 61.34732055664062 C 85.88992309570312 56.17129516601562 86.99997711181641 50.67123794555664 86.99997711181641 44.99996566772461 C 86.99997711181641 39.32867813110352 85.88992309570312 33.82863616943359 83.70063781738281 28.65260696411133 C 81.58540344238281 23.65163421630859 78.55663299560547 19.15968322753906 74.69846343994141 15.30149078369141 C 70.84029388427734 11.44332122802734 66.34833526611328 8.414566040039062 61.34736633300781 6.299324035644531 C 56.17132186889648 4.110054016113281 50.67127990722656 2.999992370605469 44.99999237060547 2.999992370605469 M 44.99999237060547 -7.62939453125e-06 C 69.85279083251953 -7.62939453125e-06 89.99997711181641 20.14716339111328 89.99997711181641 44.99996566772461 C 89.99997711181641 69.85275268554688 69.85279083251953 89.99992370605469 44.99999237060547 89.99992370605469 C 20.14719390869141 89.99992370605469 -7.62939453125e-06 69.85275268554688 -7.62939453125e-06 44.99996566772461 C -7.62939453125e-06 20.14716339111328 20.14719390869141 -7.62939453125e-06 44.99999237060547 -7.62939453125e-06 Z" stroke="none" fill="#1d7083"/>
                                  </g>
                                </g>
                              </g>
                            </g>
                          </g>
                        </g>
                      </g>
                    </g>
                  </g>
                </g>
              </g>
            </g>
          </g>
        </g>
      </g>
    </g>
    <g id="resolucion-de-problemas_2_" data-name="resolucion-de-problemas (2)" transform="translate(617.015 338.118)">
      <path id="Trazado_1239203" data-name="Trazado 1239203" d="M341.961,132H336.3a9.615,9.615,0,0,1-4.3,3.743v6.22a.712.712,0,0,0,.712.712h9.252a.712.712,0,0,0,.712-.712v-9.252A.712.712,0,0,0,341.961,132Z" transform="translate(-268.098 -116.514)" fill="#cb97e7"/>
      <g id="Grupo_1241989" data-name="Grupo 1241989" transform="translate(63.9 16.279)">
        <path id="Trazado_1239204" data-name="Trazado 1239204" d="M335.753,147.941v-9.169A9.607,9.607,0,0,1,332,141.721v6.22a.712.712,0,0,0,.712.712h3.754A.712.712,0,0,1,335.753,147.941Z" transform="translate(-331.999 -138.772)" fill="#bd80e1"/>
      </g>
      <g id="Grupo_1242000" data-name="Grupo 1242000" transform="translate(29.15 0.88)">
        <path id="Trazado_1239205" data-name="Trazado 1239205" d="M108.1,273.485l2.011-5.471a13.739,13.739,0,0,1-13.058,0l2.011,5.471Z" transform="translate(-89.867 -237.454)" fill="#fff0ad"/>
        <path id="Trazado_1239206" data-name="Trazado 1239206" d="M104.01,273.485l-1.417-3.857a13.634,13.634,0,0,1-5.535-1.614l2.011,5.471Z" transform="translate(-89.868 -237.454)" fill="#ffe177"/>
        <path id="Trazado_1239207" data-name="Trazado 1239207" d="M126,393.588v1.831a1.76,1.76,0,0,0,1.76,1.76h2.749a1.76,1.76,0,0,0,1.76-1.76v-1.831Z" transform="translate(-115.415 -348.297)" fill="#02c7dd"/>
        <path id="Trazado_1239208" data-name="Trazado 1239208" d="M128.933,395.419v-1.831H126v1.831a1.76,1.76,0,0,0,1.76,1.76h2.749c.031,0,.061,0,.092,0A1.758,1.758,0,0,1,128.933,395.419Z" transform="translate(-115.415 -348.297)" fill="#07b2cd"/>
        <path id="Trazado_1239209" data-name="Trazado 1239209" d="M113.43,362.995v3.12a.587.587,0,0,0,.587.587h8.044a.587.587,0,0,0,.587-.587v-3.12Z" transform="translate(-104.32 -321.292)" fill="#a6e7f0"/>
        <path id="Trazado_1239210" data-name="Trazado 1239210" d="M116.363,366.115v-3.12H113.43v3.12a.587.587,0,0,0,.587.587h2.933A.587.587,0,0,1,116.363,366.115Z" transform="translate(-104.32 -321.292)" fill="#6bd9e7"/>
        <path id="Trazado_1239211" data-name="Trazado 1239211" d="M57.093,53a9.6,9.6,0,0,1,.282-2.311,13.719,13.719,0,1,0,5.832,11.241A9.579,9.579,0,0,1,57.093,53Z" transform="translate(-35.77 -43.419)" fill="#ffe177"/>
        <g id="Grupo_1241990" data-name="Grupo 1241990" transform="translate(0 4.774)">
          <path id="Trazado_1239212" data-name="Trazado 1239212" d="M41.674,61.913a13.723,13.723,0,0,1,10.766-13.4,13.719,13.719,0,1,0,0,26.8A13.723,13.723,0,0,1,41.674,61.913Z" transform="translate(-35.769 -48.194)" fill="#ffd15b"/>
        </g>
        <g id="Grupo_1241991" data-name="Grupo 1241991" transform="translate(7.351 36.031)">
          <path id="Trazado_1239213" data-name="Trazado 1239213" d="M109.992,320.439H99.6a1.173,1.173,0,0,1-1.173-1.173v-3.442a1.173,1.173,0,0,1,1.173-1.173h10.39a1.173,1.173,0,0,1,1.173,1.173v3.442A1.173,1.173,0,0,1,109.992,320.439Z" transform="translate(-98.429 -314.651)" fill="#eaf9fa"/>
        </g>
        <path id="Trazado_1239214" data-name="Trazado 1239214" d="M102.368,319.266v-3.442a1.173,1.173,0,0,1,1.173-1.173H99.6a1.173,1.173,0,0,0-1.173,1.173v3.442a1.173,1.173,0,0,0,1.173,1.173h3.938A1.173,1.173,0,0,1,102.368,319.266Z" transform="translate(-91.079 -278.62)" fill="#d4f2f6"/>
        <g id="Grupo_1241992" data-name="Grupo 1241992" transform="translate(24.793 31.425)">
          <path id="Trazado_1239215" data-name="Trazado 1239215" d="M270.149,289.435a4.119,4.119,0,0,1-2.625-.715.353.353,0,0,0-.557.286v5.641a.587.587,0,0,1-.587.587H260.74a.353.353,0,0,0-.286.557,4.135,4.135,0,1,1-6.814-.01.351.351,0,0,0-.293-.547h-5.641a.587.587,0,0,1-.587-.587v-4.43a.583.583,0,0,1,.632-.585,4.225,4.225,0,0,0,.658.012,4.135,4.135,0,0,0-.256-8.262q-.195,0-.386.018a.588.588,0,0,1-.648-.583v-4.844a.587.587,0,0,1,.587-.587h4.619a.584.584,0,0,1,.585.6c0,.041,0,.082,0,.124a4.135,4.135,0,0,0,8.27,0c0-.041,0-.083,0-.124a.584.584,0,0,1,.585-.6h4.619a.587.587,0,0,1,.587.587v5.641a.351.351,0,0,0,.547.293,4.135,4.135,0,1,1,2.635,7.529Z" transform="translate(-247.12 -275.386)" fill="#fe9738"/>
        </g>
        <g id="Grupo_1241993" data-name="Grupo 1241993" transform="translate(24.793 31.425)">
          <path id="Trazado_1239216" data-name="Trazado 1239216" d="M270.149,289.435a4.119,4.119,0,0,1-2.625-.715.353.353,0,0,0-.557.286v5.641a.587.587,0,0,1-.587.587H260.74a.353.353,0,0,0-.286.557,4.135,4.135,0,1,1-6.814-.01.351.351,0,0,0-.293-.547h-5.641a.587.587,0,0,1-.587-.587v-4.43a.583.583,0,0,1,.632-.585,4.225,4.225,0,0,0,.658.012,4.135,4.135,0,0,0-.256-8.262q-.195,0-.386.018a.588.588,0,0,1-.648-.583v-4.844a.587.587,0,0,1,.587-.587h4.619a.584.584,0,0,1,.585.6c0,.041,0,.082,0,.124a4.135,4.135,0,0,0,8.27,0c0-.041,0-.083,0-.124a.584.584,0,0,1,.585-.6h4.619a.587.587,0,0,1,.587.587v5.641a.351.351,0,0,0,.547.293,4.135,4.135,0,1,1,2.635,7.529Z" transform="translate(-247.12 -275.386)" fill="#fe9738"/>
        </g>
        <g id="Grupo_1241996" data-name="Grupo 1241996" transform="translate(24.793 31.425)">
          <g id="Grupo_1241994" data-name="Grupo 1241994" transform="translate(0 0)">
            <path id="Trazado_1239217" data-name="Trazado 1239217" d="M247.766,281.4q.19-.018.386-.018a4.126,4.126,0,0,1,3.162,1.471v-6.88a.586.586,0,0,1,.586-.587h-4.2a.587.587,0,0,0-.587.587v4.844A.588.588,0,0,0,247.766,281.4Z" transform="translate(-247.118 -275.388)" fill="#fe860a"/>
          </g>
          <g id="Grupo_1241995" data-name="Grupo 1241995" transform="translate(0 12.788)">
            <path id="Trazado_1239218" data-name="Trazado 1239218" d="M251.314,390.871V384.4a4.132,4.132,0,0,1-2.906,1.47,4.211,4.211,0,0,1-.658-.012.583.583,0,0,0-.632.585v4.43a.587.587,0,0,0,.587.587h4.2A.586.586,0,0,1,251.314,390.871Z" transform="translate(-247.118 -384.398)" fill="#fe860a"/>
          </g>
        </g>
        <g id="Grupo_1241999" data-name="Grupo 1241999" transform="translate(21.323)">
          <g id="Grupo_1241997" data-name="Grupo 1241997">
            <circle id="Elipse_11552" data-name="Elipse 11552" cx="9.578" cy="9.578" r="9.578" fill="#05e39c"/>
          </g>
          <g id="Grupo_1241998" data-name="Grupo 1241998" transform="translate(0 0)">
            <path id="Trazado_1239219" data-name="Trazado 1239219" d="M222.483,17.078a9.581,9.581,0,0,1,7.1-9.254,9.578,9.578,0,1,0,0,18.507,9.58,9.58,0,0,1-7.1-9.254Z" transform="translate(-217.536 -7.5)" fill="#0ed290"/>
          </g>
        </g>
      </g>
      <g id="Grupo_1242001" data-name="Grupo 1242001" transform="translate(28.27 0)">
        <path id="Trazado_1239220" data-name="Trazado 1239220" d="M266.907,275.269a5.019,5.019,0,0,0-5.681-1.172v-4.744a1.468,1.468,0,0,0-1.466-1.466h-4.619a1.475,1.475,0,0,0-1.054.446,1.448,1.448,0,0,0-.411,1.061c0,.032,0,.065,0,.1a3.255,3.255,0,1,1-6.51,0c0-.032,0-.065,0-.1a1.448,1.448,0,0,0-.411-1.061,1.475,1.475,0,0,0-1.053-.446h-4.619a1.468,1.468,0,0,0-1.466,1.466V274.2a1.465,1.465,0,0,0,.477,1.081,1.481,1.481,0,0,0,1.132.378c.1-.009.2-.014.3-.014a3.255,3.255,0,0,1,.2,6.5,3.352,3.352,0,0,1-.521-.009,1.453,1.453,0,0,0-1.114.371,1.474,1.474,0,0,0-.482,1.089v4.43a1.468,1.468,0,0,0,1.466,1.466h4.744a5.016,5.016,0,0,0,4.588,7.029c.119,0,.238,0,.358-.012a5.018,5.018,0,0,0,4.241-7.017h4.743a1.468,1.468,0,0,0,1.466-1.466v-4.743a5.015,5.015,0,0,0,5.68-8.016Zm-.419,3.654a3.258,3.258,0,0,1-3.019,3.015h0a3.228,3.228,0,0,1-2.067-.562,1.233,1.233,0,0,0-1.935,1.011v5.347h-5.348a1.232,1.232,0,0,0-1.011,1.935,3.255,3.255,0,1,1-5.365-.008,1.231,1.231,0,0,0-1.016-1.927h-5.348v-3.825c.154,0,.309,0,.463-.007a5.015,5.015,0,0,0-.463-10.018v-4.238h4.032a5.015,5.015,0,0,0,10.025,0h4.032v5.348a1.231,1.231,0,0,0,1.927,1.016,3.255,3.255,0,0,1,5.094,2.912Z" transform="translate(-214.826 -236.462)"/>
        <path id="Trazado_1239221" data-name="Trazado 1239221" d="M48.619,36.11l1.491-4.056a14.639,14.639,0,0,0,4.156-3.559.88.88,0,0,0-1.373-1.1,12.79,12.79,0,0,1-7.06,4.473V24.593h1.725a3.485,3.485,0,1,0-3.485-3.485v1.725H41.664V21.109a3.485,3.485,0,1,0-3.485,3.485H39.9v7.272A12.838,12.838,0,1,1,49.768,8.55a10.46,10.46,0,0,0,5.926,11.414,12.75,12.75,0,0,1-.87,4.1.88.88,0,0,0,1.638.643,14.484,14.484,0,0,0,.955-4.125,10.471,10.471,0,0,0,5.6-.094v4.963a1.593,1.593,0,0,0,1.591,1.591h9.252a1.593,1.593,0,0,0,1.591-1.591V22.64a.88.88,0,1,0-1.76,0V25.28H64.779v-5.5a10.532,10.532,0,0,0,3.9-3.418h5.02v2.17a.88.88,0,1,0,1.76,0V16.2A1.593,1.593,0,0,0,73.863,14.6H69.649A10.457,10.457,0,1,0,50.258,6.788,14.594,14.594,0,1,0,35.623,32.042l1.495,4.067a2.055,2.055,0,0,0-1.5,1.975v3.442a2.054,2.054,0,0,0,1.76,2.029V45.7a1.468,1.468,0,0,0,1.466,1.466h.008V48a2.642,2.642,0,0,0,2.639,2.639h2.749A2.642,2.642,0,0,0,46.882,48v-.834h.008A1.468,1.468,0,0,0,48.357,45.7V43.556a2.054,2.054,0,0,0,1.76-2.029V38.084a2.055,2.055,0,0,0-1.5-1.975Zm-2.786-15a1.725,1.725,0,1,1,1.725,1.725H45.832ZM60.05,1.76a8.7,8.7,0,1,1-8.7,8.7A8.708,8.708,0,0,1,60.05,1.76ZM45.832,33.669a14.516,14.516,0,0,0,2.018-.57l-1.078,2.932h-.941Zm-4.168-9.076h2.408v7.561c-.4.037-.8.057-1.2.057s-.808-.02-1.2-.057V24.593Zm0,9.327c.4.033.8.05,1.2.05s.806-.017,1.2-.049v2.11H41.664ZM38.18,22.834A1.725,1.725,0,1,1,39.9,21.109v1.725ZM39.9,33.668v2.363h-.941l-1.08-2.937A14.47,14.47,0,0,0,39.9,33.668ZM45.122,48a.881.881,0,0,1-.88.88H41.494a.881.881,0,0,1-.88-.88v-.834h4.508Zm3.234-6.475a.294.294,0,0,1-.293.293h-2.7a.88.88,0,0,0,0,1.76H46.6v1.829H39.14V43.579h2.12a.88.88,0,1,0,0-1.76H37.673a.294.294,0,0,1-.293-.293V38.084a.294.294,0,0,1,.293-.293h10.39a.294.294,0,0,1,.293.293Z" transform="translate(-28.27 0)"/>
        <path id="Trazado_1239222" data-name="Trazado 1239222" d="M254.48,66.825a.88.88,0,0,0,.662.313h.011a.879.879,0,0,0,.658-.3l5.764-6.5a.88.88,0,0,0-1.317-1.167l-5.088,5.74-3.28-3.9a.88.88,0,1,0-1.346,1.133Z" transform="translate(-224.287 -51.97)"/>
      </g>
    </g>
  </g>
</svg>
