<svg xmlns="http://www.w3.org/2000/svg" xmlns:xlink="http://www.w3.org/1999/xlink" width="295" height="225" viewBox="0 0 295 225">
  <defs>
    <clipPath id="clip-path">
      <rect id="Rectángulo_423938" data-name="Rectángulo 423938" width="295" height="225" transform="translate(180 1960)" fill="#fff" stroke="#707070" stroke-width="1"/>
    </clipPath>
    <clipPath id="clip-path-2">
      <rect id="Rectángulo_423945" data-name="Rectángulo 423945" width="339" height="298" transform="translate(0 -0.451)" fill="none"/>
    </clipPath>
  </defs>
  <g id="Enmascarar_grupo_1211524" data-name="Enmascarar grupo 1211524" transform="translate(-180 -1960)" clip-path="url(#clip-path)">
    <g id="Grupo_1242011" data-name="Grupo 1242011" transform="translate(165.666 1906.175)">
      <g id="Grupo_1242010" data-name="Grupo 1242010" transform="translate(0.334 0.276)" clip-path="url(#clip-path-2)">
        <path id="Trazado_1239226" data-name="Trazado 1239226" d="M3072.805,637.024c.025-.081.048-.163.071-.244l-14.551-6.251q-.066.108-.128.219Z" transform="translate(-2841.809 -586.087)" fill="#4f69e1"/>
        <path id="Trazado_1239227" data-name="Trazado 1239227" d="M3099.452,603.735c-.009-.1-.02-.193-.032-.288l-12.658-5.438q-.117.086-.231.175Z" transform="translate(-2868.133 -555.872)" fill="#4f69e1"/>
        <path id="Trazado_1239228" data-name="Trazado 1239228" d="M3080.147,625.244q.023-.128.041-.257l-14.183-6.093c-.053.068-.106.137-.158.206Z" transform="translate(-2848.917 -575.277)" fill="#4f69e1"/>
        <path id="Trazado_1239229" data-name="Trazado 1239229" d="M3088.97,614.113q.006-.136.008-.271l-13.564-5.827q-.1.094-.191.192Z" transform="translate(-2857.627 -565.169)" fill="#4f69e1"/>
        <path id="Trazado_1239230" data-name="Trazado 1239230" d="M3111.953,594.28c-.025-.1-.053-.207-.082-.31l-11.4-4.9q-.142.074-.281.154Z" transform="translate(-2880.826 -547.57)" fill="#4f69e1"/>
        <path id="Trazado_1239231" data-name="Trazado 1239231" d="M3052.145,643.094l14.689,6.311c.018-.038.035-.077.051-.115s.032-.078.048-.116l-14.689-6.31c-.017.038-.035.077-.051.115s-.032.078-.048.116" transform="translate(-2836.185 -597.546)" fill="#4f69e1"/>
        <path id="Trazado_1239232" data-name="Trazado 1239232" d="M3126.981,585.762l-9.652-4.146q-.178.057-.353.123l10.159,4.364q-.073-.172-.154-.341" transform="translate(-2896.422 -540.641)" fill="#4f69e1"/>
        <path id="Trazado_1239233" data-name="Trazado 1239233" d="M3146.305,579.739l-7.065-3.035q-.247.024-.492.063l7.849,3.372c-.094-.136-.191-.27-.293-.4" transform="translate(-2916.651 -536.077)" fill="#4f69e1"/>
        <path id="Trazado_1239234" data-name="Trazado 1239234" d="M3062.448,737.592q.179-.057.354-.123l-10.159-4.364q.073.172.154.341Z" transform="translate(-2836.647 -681.393)" fill="#4f69e1"/>
        <path id="Trazado_1239235" data-name="Trazado 1239235" d="M3058.294,720.7c.094-.049.188-.1.281-.154l-11.761-5.053c.025.1.053.207.082.31Z" transform="translate(-2831.231 -665.033)" fill="#4f69e1"/>
        <path id="Trazado_1239236" data-name="Trazado 1239236" d="M3175.611,578.052a8.019,8.019,0,0,0-1.937-.558l3.676,1.579a8.011,8.011,0,0,0-1.738-1.021" transform="translate(-2949.101 -536.811)" fill="#4f69e1"/>
        <path id="Trazado_1239237" data-name="Trazado 1239237" d="M3070.816,756.293q.248-.024.492-.063l-7.849-3.372c.094.136.191.27.293.4Z" transform="translate(-2846.698 -699.746)" fill="#4f69e1"/>
        <path id="Trazado_1239238" data-name="Trazado 1239238" d="M3091.1,779.839l-3.675-1.579a8.058,8.058,0,0,0,3.675,1.579" transform="translate(-2868.967 -723.348)" fill="#4f69e1"/>
        <path id="Trazado_1239239" data-name="Trazado 1239239" d="M3058.948,675.9q.081-.1.158-.206l-14.3-6.143c-.015.086-.028.171-.041.257Z" transform="translate(-2829.328 -622.339)" fill="#4f69e1"/>
        <path id="Trazado_1239240" data-name="Trazado 1239240" d="M3062.2,662.355q.066-.108.128-.219l-14.608-6.276q-.037.122-.071.244Z" transform="translate(-2832.004 -609.623)" fill="#4f69e1"/>
        <path id="Trazado_1239241" data-name="Trazado 1239241" d="M3056.8,704.954q.117-.086.232-.175l-12.922-5.551c.009.1.02.193.032.288Z" transform="translate(-2828.719 -649.918)" fill="#4f69e1"/>
        <path id="Trazado_1239242" data-name="Trazado 1239242" d="M3057.213,690.07c.065-.063.128-.127.191-.192l-13.748-5.906c0,.09-.007.181-.008.271Z" transform="translate(-2828.292 -635.743)" fill="#4f69e1"/>
        <path id="Trazado_1239243" data-name="Trazado 1239243" d="M3031.4,509.085a11.439,11.439,0,0,1-17.333,13.5l-3.513,5.3a17.794,17.794,0,1,0,19.656-29.651l-3.513,5.3a11.387,11.387,0,0,1,4.7,5.548" transform="translate(-2797.543 -463.173)" fill="#4f69e1"/>
        <path id="Trazado_1239244" data-name="Trazado 1239244" d="M431.907,2222.705a15.186,15.186,0,0,1,3.794,3.95c-1.7.731-3.793,4.133-3.544,8.461a12.141,12.141,0,0,0,3.92,7.714q-.342.573-.74,1.125a15.221,15.221,0,1,1-3.43-21.251" transform="translate(-379.232 -2062.742)" fill="#40b6f4"/>
        <path id="Trazado_1239245" data-name="Trazado 1239245" d="M414.9,2246.281a15.49,15.49,0,1,1,17.468-23.353l.177.269-.3.127a5.558,5.558,0,0,0-2.368,2.75,11.175,11.175,0,0,0-1.013,5.448,11.606,11.606,0,0,0,3.841,7.538l.15.148-.108.181c-.233.39-.486.776-.753,1.145a15.487,15.487,0,0,1-17.1,5.747m8.92-29.115a14.957,14.957,0,1,0,7.741,23.053c.217-.3.425-.612.619-.928a12.02,12.02,0,0,1-3.85-7.74,11.717,11.717,0,0,1,1.065-5.71,6.561,6.561,0,0,1,2.354-2.869,15.026,15.026,0,0,0-7.929-5.807" transform="translate(-375.676 -2059.163)" fill="#40b6f4"/>
        <path id="Trazado_1239246" data-name="Trazado 1239246" d="M3778.017,1637.633a18.873,18.873,0,1,0,18.872,18.873,18.894,18.894,0,0,0-18.872-18.873m0,37.451a18.579,18.579,0,1,1,18.579-18.579,18.6,18.6,0,0,1-18.579,18.579" transform="translate(-3493.076 -1521.814)" fill="#4f69e1"/>
        <path id="Trazado_1239247" data-name="Trazado 1239247" d="M3793.471,1654.266a17.694,17.694,0,1,0,17.694,17.694,17.714,17.714,0,0,0-17.694-17.694m0,35.094a17.4,17.4,0,1,1,17.4-17.4,17.42,17.42,0,0,1-17.4,17.4" transform="translate(-3508.531 -1537.268)" fill="#4f69e1"/>
        <path id="Trazado_1239248" data-name="Trazado 1239248" d="M3810.775,1670.985a16.779,16.779,0,0,0-1.9-.109,16.516,16.516,0,0,0-1.858,32.924,16.777,16.777,0,0,0,1.9.109,16.516,16.516,0,0,0,1.858-32.924m14.238,18.253a16.2,16.2,0,0,1-16.1,14.378,16.442,16.442,0,0,1-1.865-.107,16.222,16.222,0,0,1,1.824-32.339,16.465,16.465,0,0,1,1.865.107,16.24,16.24,0,0,1,14.271,17.961" transform="translate(-3523.957 -1552.702)" fill="#4f69e1"/>
        <path id="Trazado_1239249" data-name="Trazado 1239249" d="M3824.379,1687.532a15.336,15.336,0,1,0,15.336,15.336,15.354,15.354,0,0,0-15.336-15.336m0,30.378a15.042,15.042,0,1,1,15.042-15.042,15.059,15.059,0,0,1-15.042,15.042" transform="translate(-3539.439 -1568.176)" fill="#4f69e1"/>
        <path id="Trazado_1239250" data-name="Trazado 1239250" d="M3839.834,1704.165a14.157,14.157,0,1,0,14.157,14.157,14.173,14.173,0,0,0-14.157-14.157m0,28.021a13.863,13.863,0,1,1,13.863-13.863,13.879,13.879,0,0,1-13.863,13.863" transform="translate(-3554.894 -1583.631)" fill="#4f69e1"/>
        <path id="Trazado_1239251" data-name="Trazado 1239251" d="M3855.288,1720.8a12.979,12.979,0,1,0,12.979,12.979,12.993,12.993,0,0,0-12.979-12.979m0,25.663a12.685,12.685,0,1,1,12.684-12.684,12.7,12.7,0,0,1-12.684,12.684" transform="translate(-3570.348 -1599.084)" fill="#4f69e1"/>
        <path id="Trazado_1239252" data-name="Trazado 1239252" d="M1619.995,2403.535a15.761,15.761,0,1,1-1.295-25.856,1.831,1.831,0,0,0,2.812-1.64l-1.218-24.435-73.765,3.676,1.218,24.435a1.841,1.841,0,0,0,2.975,1.352,15.762,15.762,0,1,1,1.284,25.857,1.839,1.839,0,0,0-2.821,1.644l1.214,24.348,73.765-3.676-1.214-24.348a1.829,1.829,0,0,0-2.956-1.356" transform="translate(-1437.279 -2185.183)" fill="#ff8906"/>
        <path id="Trazado_1239253" data-name="Trazado 1239253" d="M2187.759,812a13.821,13.821,0,0,0,5.644,5.83,1.559,1.559,0,0,1,.712.774l-18.785,9.908.493.935.178.337,9,17.071a1.575,1.575,0,0,0,2.788-.033,13.373,13.373,0,1,1,10.242,19.431,1.573,1.573,0,0,0-1.6,2.282l8.973,17.012.186.353.521.988,18.785-9.908a1.589,1.589,0,0,1,.219.991,13.742,13.742,0,0,0,1.613,7.929c3.454,6.385,11.205,8.972,17.339,5.795,6.278-3.252,8.558-11.25,5.1-17.811a13.694,13.694,0,0,0-5.562-5.666,1.584,1.584,0,0,1-.692-.738l18.949-9.994-9.68-18.353a1.6,1.6,0,0,1,1.625-2.3,13.373,13.373,0,1,0-10.245-19.43,1.6,1.6,0,0,1-2.814.047l-9.675-18.344-18.948,9.994a1.55,1.55,0,0,1-.236-1.02,13.8,13.8,0,0,0-1.55-7.818c-3.46-6.561-11.347-9.2-17.576-5.851-6.086,3.268-8.326,11.131-5.007,17.587" transform="translate(-2021.513 -737.005)" fill="#fe554e"/>
        <path id="Trazado_1239254" data-name="Trazado 1239254" d="M1491.331,1414.3c2.2-.125.674,4.592.113,5.622a15.356,15.356,0,0,1-3.7,4.207,1.894,1.894,0,0,1-.995.537c-.679.062-1.21-.59-1.447-1.229-1.424-3.841,2-8.906,6.029-9.137" transform="translate(-1380.086 -1314.309)" fill="#e3795b"/>
        <path id="Trazado_1239255" data-name="Trazado 1239255" d="M1236.039,1053.714a14.862,14.862,0,0,0-8.315,3.615,1.752,1.752,0,0,1-2.9-1.093l-2.6-22.926-69.639,7.9,2.6,22.926a1.736,1.736,0,0,0,2.881,1.1,14.865,14.865,0,1,1,2.748,24.261,1.735,1.735,0,0,0-2.557,1.715l2.592,22.845,69.639-7.9-2.592-22.845a1.751,1.751,0,0,1,2.578-1.718,14.869,14.869,0,1,0,5.567-27.876" transform="translate(-1071.252 -960.321)" fill="#6283f4"/>
        <path id="Trazado_1239256" data-name="Trazado 1239256" d="M1704.534,1761.272a5,5,0,0,1-2.306-.555,5.893,5.893,0,0,1-2.982-4.359,12.773,12.773,0,0,1,.623-5.025c.177-.669.338-1.412.508-2.2.71-3.283,1.593-7.369,4.475-9.1a5.137,5.137,0,0,1,5.489.073,5.874,5.874,0,0,1,1.585,1.805,8.811,8.811,0,0,1,1.237,4.39c.031,2.5-1.011,4.9-1.93,7.012l-1.531,3.517a8.6,8.6,0,0,1-2.254,3.476,4.693,4.693,0,0,1-2.915.969m3.074-21.469a4.839,4.839,0,0,0-2.48.684c-2.684,1.616-3.541,5.577-4.229,8.759-.172.794-.334,1.543-.514,2.224a12.368,12.368,0,0,0-.611,4.812,5.35,5.35,0,0,0,2.7,3.963,4.388,4.388,0,0,0,4.642-.359,8.19,8.19,0,0,0,2.1-3.272l1.53-3.517c.9-2.063,1.916-4.4,1.886-6.792a8.28,8.28,0,0,0-1.161-4.124,5.351,5.351,0,0,0-1.438-1.644,4.17,4.17,0,0,0-2.424-.734" transform="translate(-1579.107 -1616.249)" fill="#fff"/>
        <path id="Trazado_1239257" data-name="Trazado 1239257" d="M1544.1,1142.208a4.5,4.5,0,0,1-.865-.085c-2.337-.458-4-2.383-5.181-4.009-2.035-2.793-4.629-6.9-5.433-10.615a5.7,5.7,0,0,1,.982-4.347,7.261,7.261,0,0,1,4.482-3.125,7.056,7.056,0,0,1,7.939,5.622,13.347,13.347,0,0,1,.05,2.785c-.013.254-.027.516-.036.773a22.638,22.638,0,0,0,.722,6.532l.021.082c.478,1.827,1.073,4.1-.342,5.511a3.275,3.275,0,0,1-2.339.876m-5.615-4.409c1.127,1.547,2.7,3.378,4.853,3.8a3.014,3.014,0,0,0,2.725-.645c1.2-1.194.669-3.215.2-5l-.022-.082a23.174,23.174,0,0,1-.739-6.686c.009-.261.023-.526.036-.782a12.944,12.944,0,0,0-.044-2.674,6.525,6.525,0,0,0-7.316-5.181,6.712,6.712,0,0,0-4.135,2.9,5.172,5.172,0,0,0-.9,3.938c.785,3.622,3.339,7.662,5.343,10.413" transform="translate(-1424.257 -1040.803)" fill="#fff"/>
        <path id="Trazado_1239258" data-name="Trazado 1239258" d="M1902.693,1320.8a2.706,2.706,0,0,1-1.306-.316c-1.681-.919-1.625-3.263-1.523-4.228l.265.028-.265-.028a15.217,15.217,0,0,1,2.212-6.271,12.026,12.026,0,0,1,4.827-4.583,7.378,7.378,0,0,1,6.053-.221,5.787,5.787,0,0,1,3.276,3.623,7.15,7.15,0,0,1,.09,4.311,4.912,4.912,0,0,1-2.943,3.142,8.041,8.041,0,0,1-1.606.318c-.218.028-.443.057-.66.092a8.955,8.955,0,0,0-3.769,1.567c-.331.239-.655.508-.969.769a11.787,11.787,0,0,1-1.637,1.207,4.164,4.164,0,0,1-2.046.591m7.537-15.633a7.119,7.119,0,0,0-3.094.714c-3.9,1.892-6.345,6.68-6.742,10.431-.091.859-.151,2.939,1.248,3.7a2.949,2.949,0,0,0,2.832-.27,11.228,11.228,0,0,0,1.561-1.154c.32-.266.651-.541,1-.791a9.489,9.489,0,0,1,3.994-1.661c.227-.037.457-.067.679-.095a7.535,7.535,0,0,0,1.5-.293,4.372,4.372,0,0,0,2.609-2.8,6.623,6.623,0,0,0-.091-3.986,5.2,5.2,0,0,0-2.979-3.294,6.367,6.367,0,0,0-2.516-.5" transform="translate(-1765.532 -1212.421)" fill="#fff"/>
        <path id="Trazado_1239259" data-name="Trazado 1239259" d="M2257.367,1415.771a5.483,5.483,0,0,1-2.2-.48,6.391,6.391,0,0,1-2.562-2.062,8.889,8.889,0,0,1-1.429-6.23,13.942,13.942,0,0,1,2.719-6.9,7.565,7.565,0,0,1,6.542-3.185,5.928,5.928,0,0,1,3.907,9.988,12.046,12.046,0,0,1-1.188,1.035,5.888,5.888,0,0,0-1.791,1.9,6.678,6.678,0,0,0-.471,2.153,4.234,4.234,0,0,1-1.184,3.086,3.08,3.08,0,0,1-1.308.585,4.818,4.818,0,0,1-1.032.111m-5.929-8.742.265.029a8.364,8.364,0,0,0,1.33,5.858,5.567,5.567,0,0,0,4.356,2.319,4.162,4.162,0,0,0,.9-.1,2.606,2.606,0,0,0,1.088-.479,3.8,3.8,0,0,0,.988-2.728,7.062,7.062,0,0,1,.521-2.327,6.361,6.361,0,0,1,1.938-2.089,11.621,11.621,0,0,0,1.136-.988,5.37,5.37,0,0,0-3.554-9.086c-4.933-.289-8.163,4.738-8.7,9.615Z" transform="translate(-2091.919 -1298.14)" fill="#fff"/>
        <path id="Trazado_1239260" data-name="Trazado 1239260" d="M1159.112,1221.26l-.46-.269c.112-.192.23-.4.355-.623.8-1.422,1.8-3.192,3.117-3.9a3.4,3.4,0,0,1,1.8-.345c.265,0,.539,0,.845-.026a3.633,3.633,0,0,0,2.626-1.735,6.818,6.818,0,0,0,.952-3.2,4.357,4.357,0,0,0-.3-2.293c-.581-1.15-1.944-1.708-3.292-2.18-3.1-1.087-4.865-.735-7.565,1.508l-.341-.41c2.843-2.362,4.807-2.751,8.082-1.6,1.45.509,2.921,1.117,3.591,2.443a4.839,4.839,0,0,1,.359,2.577,7.327,7.327,0,0,1-1.035,3.442,4.167,4.167,0,0,1-3.026,1.978,8.967,8.967,0,0,1-.9.028,2.9,2.9,0,0,0-1.546.281c-1.18.633-2.177,2.4-2.9,3.69-.126.223-.245.434-.359.63" transform="translate(-1075.215 -1120.371)" fill="#fff"/>
        <path id="Trazado_1239261" data-name="Trazado 1239261" d="M1154.243,1395.41a5.156,5.156,0,0,0,1.5-1.744c.3-.719.463-1.484.75-2.207a8.142,8.142,0,0,1,1.928-2.864,20.687,20.687,0,0,0,2.137-1.888,9.266,9.266,0,0,1,.3,1.033,3.871,3.871,0,0,1-.85,2.433,3.46,3.46,0,0,0-.74,1.078,2.853,2.853,0,0,0-.079.5c-.029.259-.073.515-.126.77-.079.378-.177.751-.277,1.124a4.521,4.521,0,0,0,.007,1.742,5.677,5.677,0,0,1-.258,3.186,10.115,10.115,0,0,1-1.721,2.19c-1.562,1.573-3.3,2.944-4.884,4.473q-2.28,2.2-4.724,4.212c-1.214,1-2.458,1.966-3.683,2.953-.858.692-1.946,1.111-2,2.361a4.376,4.376,0,0,0,.08.867c.776,4.868,1.642,9.7,2.416,14.571a2.245,2.245,0,0,1,.018.916,2.2,2.2,0,0,1-1.183,1.2,28.344,28.344,0,0,1-8.649,3.178,1.454,1.454,0,0,1-1.2-.131,1.391,1.391,0,0,1-.387-.725,23.371,23.371,0,0,1-.644-5.693q-.205-6.694-.41-13.388a10.424,10.424,0,0,1,.264-3.368c.741-2.431,3.722-3.891,5.69-5.214l6.973-4.685,5.6-3.761a36.472,36.472,0,0,0,4.157-3.115" transform="translate(-1051.702 -1288.672)" fill="#ffbcad"/>
        <path id="Trazado_1239262" data-name="Trazado 1239262" d="M1200.2,1766.308a4.625,4.625,0,0,1,2.409-1.02,3.128,3.128,0,0,1,2.443.8q-2.429,0-4.852.215" transform="translate(-1115.496 -1640.41)" fill="#e3795b"/>
        <path id="Trazado_1239263" data-name="Trazado 1239263" d="M619.486,3539.462l-2.947,4.026-.669,4.589-4.891-2.465-3.058-5.924,7.679-7.244Z" transform="translate(-565.195 -3282.332)" fill="#ffbcad"/>
        <path id="Trazado_1239264" data-name="Trazado 1239264" d="M557.889,3626.852l-19.743-12.524,2.407-3.885a2.267,2.267,0,0,1,.825-.788l2.61-1.447,5.113,3.711.957,4.53-.137-3.775a.613.613,0,0,1,.843-.6l2.336.967.726,5.116,3.077,3.78,2.006,4.079a.7.7,0,0,1-1.019.832" transform="translate(-500.364 -3352.726)" fill="#051320"/>
        <rect id="Rectángulo_423940" data-name="Rectángulo 423940" width="0.281" height="23.084" transform="matrix(0.546, -0.838, 0.838, 0.546, 38.746, 260.039)" fill="#fff"/>
        <path id="Trazado_1239265" data-name="Trazado 1239265" d="M714.587,3744.717l.131-.248c-.1-.052-2.438-1.268-3.91-.415l.141.243c1.338-.775,3.616.408,3.638.42" transform="translate(-660.788 -3478.662)" fill="#fff"/>
        <path id="Trazado_1239266" data-name="Trazado 1239266" d="M701.924,3705.339l.127-.251c-.094-.047-2.308-1.144-4.08-.364l.113.257c1.652-.728,3.818.346,3.84.357" transform="translate(-648.861 -3442.143)" fill="#fff"/>
        <path id="Trazado_1239267" data-name="Trazado 1239267" d="M1165.735,3655.069l-.479,5.188,1.875,4.446-5.732.479-5.95-3.6,3-10.634Z" transform="translate(-1073.916 -3392.439)" fill="#ffbcad"/>
        <path id="Trazado_1239268" data-name="Trazado 1239268" d="M713.5,2451.758l-14.269,43.185-18.65,32.993-8.632-5.349,10.251-26.429,6-6.882,5.478-27.186-.518-4.736,7.21-14.132Z" transform="translate(-624.681 -2270.307)" fill="#4f69e1"/>
        <path id="Trazado_1239269" data-name="Trazado 1239269" d="M1112.585,1854.407a36.825,36.825,0,0,0,9.9-2.581c.233,2.505.41,5.016.7,7.516a14.054,14.054,0,0,1,.437,3.029,6.409,6.409,0,0,1-1.565,2.428,16.187,16.187,0,0,1-10.088,5.733,1.116,1.116,0,0,1-.558-.018c-.4-.152-.5-.658-.537-1.082-.468-4.924-1.061-9.875-1.319-14.8q1.519-.049,3.031-.225" transform="translate(-1031.274 -1720.827)" fill="#8b98f3"/>
        <path id="Trazado_1239270" data-name="Trazado 1239270" d="M1502.6,1745.855a2.021,2.021,0,0,1,.793-2.156,1.8,1.8,0,0,1,1.283-.016,3.778,3.778,0,0,1,2.534,2.679,9.275,9.275,0,0,1,.1,2.418,18.7,18.7,0,0,0,.18,3.14l-2.1-1.673a11.954,11.954,0,0,1-1.114-.963,6.06,6.06,0,0,1-1.67-3.43" transform="translate(-1396.439 -1620.245)" fill="#832d3b"/>
        <path id="Trazado_1239271" data-name="Trazado 1239271" d="M1350.829,1913.707q-.017.312-.028.625a71.615,71.615,0,0,1-7.783-4.048,9.063,9.063,0,0,1-1.244-.851.4.4,0,0,1-.184-.307.418.418,0,0,1,.086-.192l4.083-6.08a4.113,4.113,0,0,1,2.339-2.042,3.86,3.86,0,0,1,3.844,2.417c.591,1.754.027,3.637-.378,5.365a29.593,29.593,0,0,0-.736,5.113" transform="translate(-1246.865 -1766.303)" fill="#ffbcad"/>
        <path id="Trazado_1239272" data-name="Trazado 1239272" d="M1424.844,1907.328a8.154,8.154,0,0,1-1.9-5.123,1.923,1.923,0,0,1,.415-1.3,2.12,2.12,0,0,1,.327-.092,3.432,3.432,0,0,1,2.647.823,5.466,5.466,0,0,1,.568.544c.043.048.084.1.124.147a3.063,3.063,0,0,1,.505.9c.59,1.754.027,3.637-.378,5.365-.063.27-.121.541-.177.812a12.657,12.657,0,0,1-2.133-2.079" transform="translate(-1322.453 -1766.304)" fill="#e3795b"/>
        <path id="Trazado_1239273" data-name="Trazado 1239273" d="M1436.2,1797.262c-1.861,1.7-5.355-.531-6.763-1.913a9.962,9.962,0,0,1-2.7-4.958,7.542,7.542,0,0,1-.1-3,11.3,11.3,0,0,1,1.6-3.289,5.64,5.64,0,0,1,1.982-2.154,3.8,3.8,0,0,1,1.938-.55c.633,0,.834.249,1.276.635a10,10,0,0,1,2.564,3.376,5.076,5.076,0,0,0,2.008,2.146.866.866,0,0,1,.39.381.693.693,0,0,1-.05.484,2.4,2.4,0,0,1-.335.584.622.622,0,0,0-.142.243.549.549,0,0,0,0,.184,12.613,12.613,0,0,1-.613,6.158,4.594,4.594,0,0,1-.9,1.517q-.075.079-.155.152" transform="translate(-1325.776 -1655.394)" fill="#ffbcad"/>
        <path id="Trazado_1239274" data-name="Trazado 1239274" d="M1371.105,1719.307a4.1,4.1,0,0,0,.155-.555,1.29,1.29,0,0,0-.12-1.026c-.208-.319-.491-.58-.708-.891a4.564,4.564,0,0,1-.5-1.807,5.91,5.91,0,0,1,.078-3.614,3.309,3.309,0,0,1,2.439-1.774,5.092,5.092,0,0,1,1.253-2.224c.464-.484,1.4-1.321,2.136-.966a.6.6,0,0,0,.282.1c.211-.014.269-.29.3-.5a2.154,2.154,0,0,1,2.1-1.695,2.68,2.68,0,0,1,2.322,1.532,2.76,2.76,0,0,0-.632-1.857,5.917,5.917,0,0,1,2.224,2.913,4.819,4.819,0,0,1-.51,3.9c-.687.869-1.9,1.23-2.484,2.174q-.028-.454-.056-.909a3.179,3.179,0,0,0-.655,1.846,5.254,5.254,0,0,0,.481,1.543,3.407,3.407,0,0,1,.032,2.7,6.9,6.9,0,0,1-1.04,1.315,2.794,2.794,0,0,0-.7,1.258,14.937,14.937,0,0,1-.425,1.707,4.138,4.138,0,0,1-.294.729c-.183.336-.55.659-.909.527s-.43-.6-.439-.99a.605.605,0,0,1-.868.381,1.167,1.167,0,0,1-.545-.922,3.086,3.086,0,0,1-2.205.133.918.918,0,0,1-.348-.179,1.092,1.092,0,0,1-.236-.828c-.171.129-.4.262-.583.151s-.171-.367-.124-.569a16.238,16.238,0,0,1,.582-1.61" transform="translate(-1272.965 -1583.509)" fill="#832d3b"/>
        <path id="Trazado_1239275" data-name="Trazado 1239275" d="M1452.369,1873.609a1.933,1.933,0,0,1-1.649-.79,3.339,3.339,0,0,1-.8-2.162,1.815,1.815,0,0,1,.79-1.59c.686-.337,1.658.279,2.1.765a3.188,3.188,0,0,1,.833,2.046,1.675,1.675,0,0,1-1.273,1.731" transform="translate(-1347.517 -1736.756)" fill="#ffbcad"/>
        <path id="Trazado_1239276" data-name="Trazado 1239276" d="M1458.225,1880.073c-.094-.435,0-.9.541-.788.6.124,1.054.1,1.462.594a2.19,2.19,0,0,1,.531,1.435.853.853,0,0,1-.276.677.615.615,0,0,1-.65.03.819.819,0,0,1-.387-.543,1.31,1.31,0,0,0-.138-.511c-.193-.264-.625-.2-.865-.423a.865.865,0,0,1-.217-.47" transform="translate(-1355.203 -1746.323)" fill="#e3795b"/>
        <path id="Trazado_1239277" data-name="Trazado 1239277" d="M1493.931,1782.823c.76-.713,1.812-.983,2.448-1.841a.122.122,0,0,1,.2.143c-.655.882-1.715,1.158-2.494,1.889-.115.108-.268-.083-.153-.191" transform="translate(-1388.371 -1654.958)" fill="#051320"/>
        <path id="Trazado_1239278" data-name="Trazado 1239278" d="M1460.927,1804.864c.1-.12.3.022.2.143a5.593,5.593,0,0,0-1.5,3.666c0,.158-.245.133-.243-.024a5.791,5.791,0,0,1,1.543-3.785" transform="translate(-1356.31 -1677.15)" fill="#051320"/>
        <path id="Trazado_1239279" data-name="Trazado 1239279" d="M1435.577,1779.187a6.684,6.684,0,0,1,2.417-2.233c.141-.07.24.154.1.224a6.423,6.423,0,0,0-2.317,2.152.122.122,0,0,1-.2-.143" transform="translate(-1334.168 -1651.249)" fill="#051320"/>
        <path id="Trazado_1239280" data-name="Trazado 1239280" d="M1424.023,1871.541a.122.122,0,0,1,.229.085,8.582,8.582,0,0,0-.371,3.463c.008.156-.233.2-.241.039a8.9,8.9,0,0,1,.383-3.587" transform="translate(-1323.074 -1739.073)" fill="#051320"/>
        <path id="Trazado_1239281" data-name="Trazado 1239281" d="M1464.254,1878.051a2.364,2.364,0,0,1,2.246,2.357.123.123,0,0,1-.217.065,1.751,1.751,0,0,0-.586-.562c-.137-.073-.053-.3.085-.229a1.748,1.748,0,0,1,.469.365,2.219,2.219,0,0,0-2.021-1.753c-.155-.024-.132-.267.024-.243" transform="translate(-1360.714 -1745.191)" fill="#051320"/>
        <path id="Trazado_1239282" data-name="Trazado 1239282" d="M1531.542,1854.707a.245.245,0,0,1,.321-.144.708.708,0,0,1,.486.629.461.461,0,0,1,.027.27c-.033.141-.227.155-.335.111a.955.955,0,0,1-.379-.415.611.611,0,0,1-.12-.451" transform="translate(-1423.343 -1723.359)" fill="#051320"/>
        <path id="Trazado_1239283" data-name="Trazado 1239283" d="M1513.822,1832.191a.444.444,0,0,1-.347.048.389.389,0,0,1-.213-.416,1.141,1.141,0,0,1,.2-.456l.271-.426a1.031,1.031,0,0,1,.52-.5.531.531,0,0,1,.645.422.387.387,0,0,1-.009.159.578.578,0,0,1-.071.143,3.527,3.527,0,0,1-.709.821,1.532,1.532,0,0,1-.29.2" transform="translate(-1406.366 -1700.943)" fill="#051320"/>
        <path id="Trazado_1239284" data-name="Trazado 1239284" d="M1546.823,1782.392a2.094,2.094,0,0,1,.95,1.667.122.122,0,0,1-.241.039,3.752,3.752,0,0,0-.211-.861,1.491,1.491,0,0,0-.64-.647c-.134-.083.01-.28.143-.2" transform="translate(-1437.369 -1656.295)" fill="#051320"/>
        <path id="Trazado_1239285" data-name="Trazado 1239285" d="M1387.4,1817.438c.071-.139.3-.055.229.085a2.169,2.169,0,0,0-.089,2.106c.073.14-.151.238-.224.1a2.377,2.377,0,0,1,.083-2.291" transform="translate(-1289.115 -1688.809)" fill="#051320"/>
        <path id="Trazado_1239286" data-name="Trazado 1239286" d="M1541.471,1807.652a9.782,9.782,0,0,1,1.428,1.956c.211.375.387.767.623,1.128a3.884,3.884,0,0,0,.956.9c.422.32.8.534.67,1.111a1.768,1.768,0,0,1-.743,1.189c-.143.067-.241-.156-.1-.224.349-.165.8-1.057.581-1.422a2.364,2.364,0,0,0-.627-.513,6.412,6.412,0,0,1-.693-.591,7.216,7.216,0,0,1-.964-1.608,8.987,8.987,0,0,0-1.325-1.777c-.108-.114.083-.267.191-.153" transform="translate(-1432.372 -1679.745)" fill="#051320"/>
        <path id="Trazado_1239287" data-name="Trazado 1239287" d="M1532.622,1947.675a1.763,1.763,0,0,0,2.565.4c.125-.095.279.095.153.191a2.009,2.009,0,0,1-2.908-.438c-.1-.124.094-.278.191-.153" transform="translate(-1424.156 -1809.839)" fill="#051320"/>
        <path id="Trazado_1239288" data-name="Trazado 1239288" d="M1509.271,1894.354a.948.948,0,0,1-.459.214,1.478,1.478,0,0,1-1.306-.426.858.858,0,0,1-.024-1.3,1.444,1.444,0,0,1,1.322-.162,2.1,2.1,0,0,1,.526.272.8.8,0,0,1,.316.486,1.006,1.006,0,0,1-.375.911" transform="translate(-1400.733 -1758.704)" fill="#f19392"/>
        <path id="Trazado_1239289" data-name="Trazado 1239289" d="M1128.749,2550.358l-.63,43.542-5.032,36.263-10.133-1.415.425-29.405,2.586-9.861-7.839-42.618Z" transform="translate(-1029.948 -2366.604)" fill="#4f69e1"/>
        <path id="Trazado_1239290" data-name="Trazado 1239290" d="M1456.092,1735.53a2.932,2.932,0,0,1,2.231-1.212c.18-.016.226.261.045.277a2.66,2.66,0,0,0-2.048,1.1c-.111.142-.34-.021-.228-.164" transform="translate(-1353.224 -1611.646)" fill="#051320"/>
        <path id="Trazado_1239291" data-name="Trazado 1239291" d="M1040.806,1976.472a1.849,1.849,0,0,0-.286-.633,8.6,8.6,0,0,0-1.711-1.8,85.708,85.708,0,0,0-11.312-8.222q-1.51-.919-3.057-1.775c-.828-.458-1.679-1.225-2.637-.893-1.228.425-2.42,1.113-3.6,1.655l-7.4,3.4-4.536,26.43-4.936,7.726,28.9,7.947.124-8.571,4.281-10.191c1.944-4.629,3.724-9.374,5.848-13.923a1.87,1.87,0,0,0,.317-1.145" transform="translate(-930.725 -1824.181)" fill="#8b98f3"/>
        <path id="Trazado_1239292" data-name="Trazado 1239292" d="M1640.259,1859.047c.873-.745,1.7-1.536,2.552-2.31a23.111,23.111,0,0,1,2.5-1.808,3.214,3.214,0,0,1,1.637-.777.714.714,0,0,1,.751.426.806.806,0,0,1,1.314.615c0,.249.094.3.28.448a.744.744,0,0,1,.11.1.6.6,0,0,1-.018.663.261.261,0,0,0-.056.192.27.27,0,0,0,.067.1c.29.33.156.721.063,1.095a3.809,3.809,0,0,1-.582,1.148c-.491.725-1.11,1.35-1.64,2.046a31.6,31.6,0,0,1-2.74,3.2,9.837,9.837,0,0,1-3.556,2.178c-2.755,1.06-4.246,3.316-5.58,5.756-.806,1.474-1.553,3.015-2.486,4.4a58.753,58.753,0,0,1-9.886,11.26,4.617,4.617,0,0,1-1.657,1.067,4.542,4.542,0,0,1-1.7.073,42.52,42.52,0,0,1-10.181-2.2.856.856,0,0,1-.7-1.1,28.665,28.665,0,0,1,1.952-8.39,31.261,31.261,0,0,1,5.154,1.027c1.363.3,2.044-.259,3.058-1.131,2.71-2.33,5.332-4.767,7.9-7.255a95.7,95.7,0,0,1,9.547-7.708q2-1.492,3.9-3.117" transform="translate(-1495.077 -1722.985)" fill="#ffbcad"/>
        <path id="Trazado_1239293" data-name="Trazado 1239293" d="M1615.187,2181.188a79.194,79.194,0,0,0-1.038,9.962,42.474,42.474,0,0,1-4.7-1.339.856.856,0,0,1-.7-1.1q.073-.939.209-1.871a35.543,35.543,0,0,1,2.228-6.48,28.738,28.738,0,0,1,4,.832" transform="translate(-1495.077 -2026.073)" fill="#e3795b"/>
        <path id="Trazado_1239294" data-name="Trazado 1239294" d="M1416.064,2120.56a124.828,124.828,0,0,0-2.311,14.05,141.147,141.147,0,0,1-14.122-2.718c-1.977-.486-3.42-.488-3.74-2.678a10.932,10.932,0,0,1,1.058-6.258,9.251,9.251,0,0,1,3.405-3.881c4.586-2.8,10.924.8,15.71,1.486" transform="translate(-1297.225 -1968.157)" fill="#8b98f3"/>
        <path id="Trazado_1239295" data-name="Trazado 1239295" d="M1472.874,2132.6a8.107,8.107,0,0,1,2.144-4.065c.118-.135.347.028.228.165a7.863,7.863,0,0,0-2.092,3.927c-.029.178-.309.152-.28-.027" transform="translate(-1368.842 -1977.875)" fill="#051320"/>
        <path id="Trazado_1239296" data-name="Trazado 1239296" d="M1456.419,2248.105c.07.843.06,1.689.151,2.531.019.18-.258.225-.277.045-.091-.841-.08-1.688-.151-2.531-.015-.18.262-.226.277-.045" transform="translate(-1353.297 -2088.913)" fill="#051320"/>
        <path id="Trazado_1239297" data-name="Trazado 1239297" d="M1233.805,1977.368a6.472,6.472,0,0,1,2.423-1.791c.157-.09.27.167.114.257a6.164,6.164,0,0,0-2.309,1.7c-.1.152-.327-.013-.228-.164" transform="translate(-1146.696 -1835.789)" fill="#051320"/>
        <path id="Trazado_1239298" data-name="Trazado 1239298" d="M1227.5,1960.331a10.7,10.7,0,0,1,3.24-1.752c.167-.067.282.189.114.257a10.487,10.487,0,0,0-3.178,1.714c-.135.12-.311-.1-.176-.219" transform="translate(-1140.815 -1820.003)" fill="#051320"/>
        <path id="Trazado_1239299" data-name="Trazado 1239299" d="M1118.752,2393.6a19.556,19.556,0,0,0,6.562,3.73.141.141,0,0,1-.1.264,19.779,19.779,0,0,1-6.628-3.766c-.13-.123.033-.352.164-.228" transform="translate(-1039.623 -2224.173)" fill="#051320"/>
        <path id="Trazado_1239300" data-name="Trazado 1239300" d="M1106.879,2383.1a15.624,15.624,0,0,0,6.14,6.026c.154.095-.011.322-.164.228a15.885,15.885,0,0,1-6.233-6.14c-.08-.163.177-.276.257-.114" transform="translate(-1028.536 -2214.375)" fill="#051320"/>
        <path id="Trazado_1239301" data-name="Trazado 1239301" d="M1734.045,2198.2a3.972,3.972,0,0,0-.906-4.834,24.119,24.119,0,0,1,.723,4.273.84.84,0,0,0,.183.561" transform="translate(-1610.663 -2038.165)" fill="#e3795b"/>
        <path id="Trazado_1239302" data-name="Trazado 1239302" d="M1024.125,2693.96a16.517,16.517,0,0,0,1.756-.051l-.03-.279a30.375,30.375,0,0,1-16.292-3.966l-.136.245a32.519,32.519,0,0,0,11.477,3.811,28.138,28.138,0,0,0,3.225.24" transform="translate(-938.239 -2499.283)" fill="#051320"/>
        <path id="Trazado_1239303" data-name="Trazado 1239303" d="M1156.64,2876.468l.281,0,.425-29.386,2.59-9.876-.006-.034-4.358-23.693-.276.057,4.352,23.659-2.582,9.846Z" transform="translate(-1073.774 -2614.326)" fill="#051320"/>
        <path id="Trazado_1239304" data-name="Trazado 1239304" d="M1293.238,2719.864l4.439-38.65v-.011l-.862-37.555-.281.007.861,37.545-4.437,38.629Z" transform="translate(-1201.68 -2456.529)" fill="#051320"/>
        <path id="Trazado_1239305" data-name="Trazado 1239305" d="M1188.5,3642.359l.037-.293c-.061-.008-6.139-.853-10.264-1.218l-.024.294c4.118.365,10.19,1.208,10.251,1.217" transform="translate(-1095.096 -3383.053)" fill="#051320"/>
        <path id="Trazado_1239306" data-name="Trazado 1239306" d="M763.245,2887.948l17.411-31.553,0-.008,9.646-23.8-.258-.115-9.643,23.791L763,2887.8Z" transform="translate(-709.284 -2631.969)" fill="#051320"/>
        <path id="Trazado_1239307" data-name="Trazado 1239307" d="M702.944,3515.755l.168-.237a70.925,70.925,0,0,0-8.784-5.889l-.12.267a70.688,70.688,0,0,1,8.737,5.859" transform="translate(-645.364 -3261.134)" fill="#051320"/>
        <path id="Trazado_1239308" data-name="Trazado 1239308" d="M1992.2,1873.972a3.027,3.027,0,0,1-.189-1.134,5.032,5.032,0,0,1,1.341-2.885c.479-.568.91-1.174,1.339-1.781a9.479,9.479,0,0,0,.666-1.034c.19-.359.333-.741.489-1.115.095-.226.323-1,.63-.905.24.074.373.528.434.735a2.546,2.546,0,0,1,.025,1.247,5.288,5.288,0,0,1-.552,1.387,3.714,3.714,0,0,0-.464,1.093,8.349,8.349,0,0,0,.093,1.584c.038,1.733-1.479,2.855-2.815,3.649a.477.477,0,0,1-.385.094.449.449,0,0,1-.193-.167,3,3,0,0,1-.42-.767" transform="translate(-1851.188 -1733.169)" fill="#ffbcad"/>
        <path id="Trazado_1239309" data-name="Trazado 1239309" d="M2131.3,1895.5a19.83,19.83,0,0,0,3.236-3.835l-.157-.1a19.645,19.645,0,0,1-3.206,3.8Z" transform="translate(-1980.491 -1757.744)" fill="#051320"/>
        <path id="Trazado_1239310" data-name="Trazado 1239310" d="M2116.369,1875.25a41.157,41.157,0,0,0,4.052-3.668l-.137-.127a41.017,41.017,0,0,1-4.034,3.651Z" transform="translate(-1966.621 -1739.064)" fill="#051320"/>
        <rect id="Rectángulo_423941" data-name="Rectángulo 423941" width="4.768" height="0.187" transform="matrix(0.736, -0.677, 0.677, 0.736, 148.762, 134.905)" fill="#051320"/>
        <path id="Trazado_1239311" data-name="Trazado 1239311" d="M2010.155,2028.9a1.367,1.367,0,0,1-1.4-.893,6.947,6.947,0,0,0,1.247.31c.245.008,1.509.063,1.651-.138a1.932,1.932,0,0,1-1.135.654,2.013,2.013,0,0,1-.358.066" transform="translate(-1866.741 -1884.518)" fill="#051320"/>
        <path id="Trazado_1239312" data-name="Trazado 1239312" d="M1149.506,3770.716l-24.531-.355.069-4.769a2.365,2.365,0,0,1,.318-1.151l1.568-2.712,6.606.508,3.306,3.505-2.161-3.282a.644.644,0,0,1,.437-.99l2.625-.416,3.415,4.153,4.81,1.68,4.008,2.532a.729.729,0,0,1-.468,1.3" transform="translate(-1045.602 -3494.741)" fill="#051320"/>
        <rect id="Rectángulo_423942" data-name="Rectángulo 423942" width="0.281" height="24.22" transform="translate(79.399 273.706) rotate(-88.513)" fill="#fff"/>
        <path id="Trazado_1239313" data-name="Trazado 1239313" d="M1309.579,3822.67c.788-1.424,3.482-1.616,3.509-1.617l-.018-.28c-.117.007-2.874.2-3.737,1.761Z" transform="translate(-1216.894 -3550.225)" fill="#fff"/>
        <path id="Trazado_1239314" data-name="Trazado 1239314" d="M1276.61,3792.653c1.1-1.551,3.63-1.781,3.656-1.783l-.023-.28c-.109.009-2.69.242-3.862,1.9Z" transform="translate(-1186.277 -3522.182)" fill="#fff"/>
        <path id="Trazado_1239315" data-name="Trazado 1239315" d="M2309,2321.181a16.834,16.834,0,0,0,10.019-2.244,1.984,1.984,0,0,1,2.994,1.835l-2,26.053,79.137,6.091,2.005-26.053a1.966,1.966,0,0,0-2.97-1.834,16.835,16.835,0,1,1,2.127-27.569,1.965,1.965,0,0,0,3.21-1.361l2-25.961-79.137-6.09-2,25.961a1.983,1.983,0,0,1-3.235,1.359A16.839,16.839,0,1,0,2309,2321.181" transform="translate(-2131.448 -2103.831)" fill="#6283f4"/>
        <path id="Trazado_1239316" data-name="Trazado 1239316" d="M2867.909,2390.174a3.58,3.58,0,0,1-1.974-.616c-2.6-1.7-3.837-6.477-3.031-9.192a22.148,22.148,0,0,1,2.519-5.471,18.168,18.168,0,0,1,3.972-4.529c3.78-2.97,9.239-6.2,13.224-6.364a7.1,7.1,0,0,1,5.757,2.643,8.265,8.265,0,0,1,1.729,7.071,10.239,10.239,0,0,1-3.317,5.364,13.8,13.8,0,0,1-5.709,2.963c-.584.145-1.2.264-1.787.38-1.956.381-3.978.774-5.3,2.167a9.567,9.567,0,0,0-1.3,1.926,8.182,8.182,0,0,1-1.735,2.359,4.746,4.746,0,0,1-3.042,1.3m15-25.645c-.089,0-.179,0-.269.006-3.859.157-9.2,3.331-12.917,6.25a20.5,20.5,0,0,0-6.309,9.732c-.74,2.49.437,7.036,2.813,8.594,1.346.883,2.82.666,4.38-.646a7.671,7.671,0,0,0,1.614-2.213,9.937,9.937,0,0,1,1.379-2.031c1.443-1.516,3.55-1.926,5.589-2.323.584-.114,1.189-.232,1.761-.374,4.395-1.091,7.784-4.2,8.635-7.928a7.727,7.727,0,0,0-1.619-6.612,6.5,6.5,0,0,0-5.056-2.456" transform="translate(-2660.13 -2196.698)" fill="#fff"/>
        <path id="Trazado_1239317" data-name="Trazado 1239317" d="M2622.309,2839.711a6.687,6.687,0,0,1-.741-.042,9.174,9.174,0,0,1-3.71-1.332c-.166-.1-.334-.211-.5-.316a5.621,5.621,0,0,0-2.369-1.066,5.515,5.515,0,0,0-2.929.86c-.3.151-.617.308-.93.445a8.225,8.225,0,0,1-8.372-.844,6.02,6.02,0,0,1-2.6-5.458c.278-2,1.844-3.653,4.41-4.654,5.025-1.96,12.181-3.258,17.2-1.02a9.441,9.441,0,0,1,5.15,5.495,7.115,7.115,0,0,1,.324,3.842,4.809,4.809,0,0,1-4.936,4.089m-7.589-3.3c.108,0,.216.005.326.016a6.014,6.014,0,0,1,2.606,1.149c.16.1.325.21.487.31,1.861,1.151,4.768,1.972,6.837.5,2-1.421,2.241-4.3,1.448-6.418a8.928,8.928,0,0,0-4.868-5.2c-4.865-2.171-11.861-.891-16.786,1.03-2.377.927-3.825,2.43-4.075,4.23a5.491,5.491,0,0,0,2.39,4.96,7.7,7.7,0,0,0,7.837.781c.3-.131.608-.285.906-.433a6.635,6.635,0,0,1,2.894-.93" transform="translate(-2416.199 -2625.127)" fill="#fff"/>
        <path id="Trazado_1239318" data-name="Trazado 1239318" d="M3008.2,2982.275h-.05a4.946,4.946,0,0,1-2.513-.618c-1.4-.828-2.251-2.605-2.341-4.875-.171-4.327,2.008-8.879,5.829-12.176a40.7,40.7,0,0,1,7.646-4.912c2.768-1.379,6.731-2.927,9.889-2.471a5.315,5.315,0,0,1,3.9,2.41,4.8,4.8,0,0,1,.592,2.4c.121,2.458-.218,5.765-2.515,7.562-1.5,1.173-3.435,1.408-5.308,1.636s-3.668.446-5.049,1.531a9.577,9.577,0,0,0-2.473,3.694,15.4,15.4,0,0,1-1.6,2.861,7.7,7.7,0,0,1-6,2.959m1.274-17.266c-3.7,3.192-5.809,7.585-5.645,11.751.039.987.319,3.395,2.08,4.438a4.424,4.424,0,0,0,2.245.544h.046a7.159,7.159,0,0,0,5.577-2.75,14.976,14.976,0,0,0,1.543-2.764,10.121,10.121,0,0,1,2.625-3.886c1.5-1.177,3.438-1.413,5.314-1.641s3.663-.445,5.044-1.526c2.118-1.656,2.425-4.784,2.311-7.116a4.347,4.347,0,0,0-.508-2.139,4.8,4.8,0,0,0-3.524-2.171c-5.685-.821-14.531,5.033-17.11,7.259" transform="translate(-2790.786 -2747.802)" fill="#fff"/>
        <path id="Trazado_1239319" data-name="Trazado 1239319" d="M3407.037,2383.284c-3.144,0-6.584-.61-8.718-2.021a7.935,7.935,0,0,1-3.178-4.548,11,11,0,0,1-.09-5.6c.515-2.074,4.006-6.373,7-6.658a2.942,2.942,0,0,1,3.06,2.017,5.077,5.077,0,0,1,.351,1.463,2.814,2.814,0,0,0,.592,1.691,2.43,2.43,0,0,0,1,.515,20.109,20.109,0,0,0,3.028.595c2.1.3,4.273.618,5.73,2.2a4.612,4.612,0,0,1,1.145,4.9,7.746,7.746,0,0,1-2.76,3.478,9.417,9.417,0,0,1-4.062,1.76,21.67,21.67,0,0,1-3.1.212m-4.682-18.313c-.082,0-.166,0-.25.012-2.74.261-6.063,4.356-6.536,6.256-.778,3.129-.157,7.462,3.045,9.58,2.762,1.827,7.848,2.25,11.445,1.726,2.366-.345,5.484-2.312,6.4-4.888a4.129,4.129,0,0,0-1.034-4.364c-1.329-1.44-3.313-1.728-5.414-2.031a20.568,20.568,0,0,1-3.108-.613,2.9,2.9,0,0,1-1.216-.645,3.238,3.238,0,0,1-.745-2,4.612,4.612,0,0,0-.307-1.312,2.5,2.5,0,0,0-2.275-1.723" transform="translate(-3154.491 -2197.107)" fill="#fff"/>
        <path id="Trazado_1239320" data-name="Trazado 1239320" d="M3457.4,3305.582c-.206,0-.413-.009-.62-.03a5.777,5.777,0,0,1-4.84-7.753,7.69,7.69,0,0,1,2.247-3.285,7.863,7.863,0,0,1,3.309-1.6,15.815,15.815,0,0,1,8.43.767,20.094,20.094,0,0,1,6.992,3.986,11.9,11.9,0,0,1,2.378,2.878,2.87,2.87,0,0,1-.264,3.558c-1.171,1.272-3.041.869-4.543.544-.413-.089-.8-.173-1.144-.216a21.438,21.438,0,0,0-7.616.335c-.329.077-.666.164-.992.249a13.421,13.421,0,0,1-3.337.571m-4.96-7.6h0a5.244,5.244,0,0,0,4.393,7.038,10.923,10.923,0,0,0,3.771-.526c.328-.085.668-.173,1-.252a21.966,21.966,0,0,1,7.8-.345c.365.046.765.132,1.189.224,1.441.311,3.075.663,4.039-.385,1.64-1.782-.406-4.1-2.088-5.687-3.325-3.141-10.12-5.748-14.935-4.621a6.9,6.9,0,0,0-5.177,4.555" transform="translate(-3207.322 -3059.514)" fill="#fff"/>
        <path id="Trazado_1239321" data-name="Trazado 1239321" d="M2566.571,1903.927a8.858,8.858,0,0,0-1.518-1.393l-2.742-1.916-3.8-2.653c-1.162-2.046-2.328-4.047-3.4-6.141a1.4,1.4,0,0,1,.052-1.884l2.552-3.518a.22.22,0,0,1,.388-.05c1.4,1.176,2.457,2.557,3.882,3.7a34.95,34.95,0,0,1,2.926,2.345c2.276,3.091,4.616,6.1,6.919,9.167a.319.319,0,0,1-.04.533l-3.432,3.1a.417.417,0,0,1-.722-.063c-.372-.416-.714-.83-1.068-1.224" transform="translate(-2374.078 -1752.835)" fill="#ffbcad"/>
        <path id="Trazado_1239322" data-name="Trazado 1239322" d="M2683.405,1893.278c-.544-.891.166-1.779.408-2.711a4.235,4.235,0,0,0-.482-2.481,12.33,12.33,0,0,1-.61-2.345,4.419,4.419,0,0,1,.006-1.772,1.962,1.962,0,0,1,1.066-1.351c.022-.009.755,2.523.838,2.742.808,2.107,2.707,4.032,2.749,6.371.022,1.233-.454,2.424-.535,3.655a5.162,5.162,0,0,1-2.025-.278c-.588-.322-.983-1.208-1.359-1.744-.02-.028-.038-.057-.055-.085" transform="translate(-2492.863 -1749.435)" fill="#ffbcad"/>
        <path id="Trazado_1239323" data-name="Trazado 1239323" d="M2986.682,3749.31l1.942,2.219.986,5.507-3.331,1.643-5.048-.142-2.323-1.049-6.87-.025a32.722,32.722,0,0,1-3.318.143c-2.266-.254-3.694-1.716-5-3.333.267-.366,1.109-2.007,1.512-2.079l7.921-1.419,8.069-3.957Z" transform="translate(-2754.031 -3481.513)" fill="#832d3b"/>
        <path id="Trazado_1239324" data-name="Trazado 1239324" d="M3339.05,3709.462l1.521,2.527v4.512c-2.08.552-4.664,1.938-6.827,1.176-3.057-1.078-3.926-4.507-6.661-5.825-1.707-.823-3.439-1.594-5.159-2.39l-2.581-5.317,2.581-1.129,5.83,2.16,4.4,2.3,2.527-1.264Z" transform="translate(-3084.447 -3440.815)" fill="#832d3b"/>
        <path id="Trazado_1239325" data-name="Trazado 1239325" d="M3340.687,2549.116l3.379,11.586-1.69,7.7-1.69,26.843,3.379,6.3,4.3,34.5-4.236,2.719-7.549-1.508-7.448-40.293.17-34.866-1.04-14.239Z" transform="translate(-3092.733 -2367.533)" fill="#4f69e1"/>
        <path id="Trazado_1239326" data-name="Trazado 1239326" d="M3163.586,2526.181l2.08,12.747-.759,6.455-7.351,25.524,2.5,10.063-2.088,34.241-6.646.2-5.664-2.856.88-32.611-.83-7.246,1.289-48.3Z" transform="translate(-2923.066 -2345.725)" fill="#4f69e1"/>
        <path id="Trazado_1239327" data-name="Trazado 1239327" d="M3270.5,1833.75c1.177-.537,2.347-1.172,3.57-1.594.639-.22,3.16-1.895,3.369-1.639a1.213,1.213,0,0,0,.146.2c.066.052.195.032.2-.052.778,3.745,1.166,7.588,1.717,11.387l-9,.519Z" transform="translate(-3039.064 -1701.002)" fill="#ffbcad"/>
        <path id="Trazado_1239328" data-name="Trazado 1239328" d="M3270.5,1835.584c1.177-.537,2.347-1.173,3.57-1.594.481-.165,2.028-1.155,2.853-1.526a8.656,8.656,0,0,1-1.489,2.714,11.858,11.858,0,0,1-4.934,4.144Z" transform="translate(-3039.064 -1702.838)" fill="#e3795b"/>
        <path id="Trazado_1239329" data-name="Trazado 1239329" d="M3180.2,1652.745c-1.579.118-2.579-2.1-3.04-3.288a9.832,9.832,0,0,1-.447-1.5c-.076-.353-.06-.977-.336-1.229a1.055,1.055,0,0,0-.362-.182,5.185,5.185,0,0,1-.728-.332,1.041,1.041,0,0,1-.609-.688,1.16,1.16,0,0,1,.238-.714,9.286,9.286,0,0,0,1.605-3.33,5.193,5.193,0,0,0-.011-.769,8.582,8.582,0,0,1,.434-2.386,11.091,11.091,0,0,1,.574-1.942c.739-1.7,3.027-2.709,4.806-2.757a10.234,10.234,0,0,1,6.243,2.028,4.686,4.686,0,0,1,1.708,4.723,9.4,9.4,0,0,1-1.984,4.808,19.325,19.325,0,0,1-2.759,2.616,5.725,5.725,0,0,0-1.221,1.149,17,17,0,0,1-1.217,1.573,8.069,8.069,0,0,1-2.043,1.922,2.02,2.02,0,0,1-.854.3" transform="translate(-2950.027 -1518.084)" fill="#ffbcad"/>
        <path id="Trazado_1239330" data-name="Trazado 1239330" d="M3135.955,1973.422l4.766,8.569-3.461,29.047s-14.444,6.578-27.545,1.8l-2.681-35.921,6.512-5.43Z" transform="translate(-2887.184 -1832.002)" fill="#ff8906"/>
        <path id="Trazado_1239331" data-name="Trazado 1239331" d="M3107.2,1992.648q.256-.307.52-.6l3.817-3.183c2.345-1.209,4.678-.84,6.256,2.971a4.158,4.158,0,0,1,.205.646,8.616,8.616,0,0,1,.183,1.741c.247,9.079-3.344,18-8.989,25.135Z" transform="translate(-2887.34 -1847.578)" fill="#c6680a"/>
        <path id="Trazado_1239332" data-name="Trazado 1239332" d="M3208.063,1577.708a14.762,14.762,0,0,1,2.26,1.037,5.052,5.052,0,0,1,1.412,1.636c2.532,4.322.335,11.105-.572,15.638a1.356,1.356,0,0,1-.125.431c-.265.478-.944.466-1.485.389l-5.432-.769q-.005-3.2-.01-6.407a.872.872,0,0,0-.628-.977c-1.361-.7-2.608-1.171-3.473-2.448a33.247,33.247,0,0,1-2.7-4.148,1.978,1.978,0,0,1-.264-1.313c.115-.442.667-.782,1.043-.524a28.3,28.3,0,0,1-.793-2.878c-.062-.281-.1-.622.116-.811.26-.228.661-.054.957.125l2.718,1.652q-.159-1.341-.318-2.683c-.071-.6-.03-1.388.546-1.572.633-.2,1.142.563,1.78.749.542.158,1.124-.125,1.682-.042,1.076.16,1.485,1.472,2.261,2.235a3.61,3.61,0,0,0,1.032.681" transform="translate(-2970.778 -1462.74)" fill="#051320"/>
        <path id="Trazado_1239333" data-name="Trazado 1239333" d="M3158.364,2515.088l3.287,14.755-9.707,5-3.914-9.151-1.854,9.151-8.241.852-8.24-3.076,1.16-16.738Z" transform="translate(-2908.239 -2337.08)" fill="#ff8906"/>
        <path id="Trazado_1239334" data-name="Trazado 1239334" d="M2712.748,1981.92c-.264-.264,5.865-5.841,5.544-6.161l14.444,11.3a.776.776,0,0,0,.574.233.766.766,0,0,0,.421-.325,38.622,38.622,0,0,0,4.96-8.345c1.544-3.345,2.624-6.3,5.645-8.568a4.566,4.566,0,0,1,1.1-.676,4.759,4.759,0,0,1,6.076,2.608,10.956,10.956,0,0,1,.346,6.5c-.76,3.779-2.811,7.148-4.921,10.315-2.206,3.31-4.577,6.522-6.766,9.885a11.228,11.228,0,0,1-3.41,3.806c-2.04,1.2-3.154.525-4.625-.855-2.673-2.509-4.977-5.2-7.54-7.785l-10.544-10.617-1.309-1.318" transform="translate(-2520.835 -1829.76)" fill="#ff8906"/>
        <path id="Trazado_1239335" data-name="Trazado 1239335" d="M3402.274,2078.311h0a.137.137,0,0,0,.137-.138,65.818,65.818,0,0,1,.9-9.634c.211-1.466.428-2.982.595-4.478.417-3.734.73-9.255-1.344-14.063a.137.137,0,0,0-.252.109c2.048,4.748,1.736,10.22,1.323,13.924-.166,1.491-.384,3.005-.594,4.469a66.134,66.134,0,0,0-.907,9.675.138.138,0,0,0,.137.136" transform="translate(-3161.371 -1904.876)" fill="#051320"/>
        <path id="Trazado_1239336" data-name="Trazado 1239336" d="M3005.888,2246.077a.138.138,0,0,0,.137-.137l.01-4.781a.137.137,0,0,0-.137-.138h0a.137.137,0,0,0-.137.137l-.01,4.782a.137.137,0,0,0,.137.137Z" transform="translate(-2793.079 -2082.438)" fill="#051320"/>
        <path id="Trazado_1239337" data-name="Trazado 1239337" d="M2984.929,2254.2a.137.137,0,0,0,.136-.122l.43-3.7a.138.138,0,0,0-.121-.153.136.136,0,0,0-.152.121l-.43,3.7a.138.138,0,0,0,.121.152h.016" transform="translate(-2773.605 -2090.995)" fill="#051320"/>
        <path id="Trazado_1239338" data-name="Trazado 1239338" d="M3206.312,1944.919a17.5,17.5,0,0,1,9.151-3.877,12.381,12.381,0,0,1,9.354,2.911,12.285,12.285,0,0,0,2.734,2.274c-.862-.408-2.369.093-3.3.021-2.138-.164-4.221-.546-6.346-.662q-5.8-.316-11.594-.667" transform="translate(-2979.426 -1803.669)" fill="#ff8906"/>
        <path id="Trazado_1239339" data-name="Trazado 1239339" d="M3325.208,1978.71a.137.137,0,0,0,.031-.271,36.938,36.938,0,0,0-9.273-.946.137.137,0,0,0-.134.141.134.134,0,0,0,.141.134,36.677,36.677,0,0,1,9.2.939.138.138,0,0,0,.031,0" transform="translate(-3081.184 -1837.575)" fill="#051320"/>
        <path id="Trazado_1239340" data-name="Trazado 1239340" d="M3011.572,1987.366a.138.138,0,0,0,.119-.069c.569-.988,1.179-1.995,1.77-2.969a53.1,53.1,0,0,0,4.706-9.007c.988-2.7,3.6-5.6,7.014-5.6h.034c.837,0,1.688.086,2.512.165s1.651.158,2.483.166h0a.137.137,0,0,0,0-.275c-.82-.008-1.654-.087-2.46-.165-.829-.079-1.687-.161-2.536-.166h-.035c-3.544,0-6.252,2.993-7.271,5.784a52.934,52.934,0,0,1-4.683,8.959c-.591.975-1.2,1.984-1.772,2.974a.138.138,0,0,0,.119.206" transform="translate(-2798.36 -1830.107)" fill="#051320"/>
        <path id="Trazado_1239341" data-name="Trazado 1239341" d="M2743.4,2146.317a.138.138,0,0,0,.091-.241l-5.436-4.779a.137.137,0,0,0-.181.206l5.436,4.779a.135.135,0,0,0,.091.034" transform="translate(-2544.147 -1989.75)" fill="#051320"/>
        <path id="Trazado_1239342" data-name="Trazado 1239342" d="M3271.313,1746.135c-.2-1.366,1.212-3.9,2.844-3.62a2.52,2.52,0,0,1,1.859,1.514,3.72,3.72,0,0,1-.213,3.41,2.766,2.766,0,0,1-1.308,1.229,1.9,1.9,0,0,1-.95.151c-1.214-.135-2.039-1.54-2.225-2.64,0-.015,0-.03-.007-.044" transform="translate(-3039.802 -1619.242)" fill="#ffbcad"/>
        <path id="Trazado_1239343" data-name="Trazado 1239343" d="M3375.982,1763.387a.135.135,0,0,0,.119-.071,7.117,7.117,0,0,0,.886-2.661c.026-.267.031-.538.036-.8a6.38,6.38,0,0,1,.562-2.723,7.177,7.177,0,0,0,.554-2.295.135.135,0,0,0-.27,0,6.879,6.879,0,0,1-.538,2.208,8.874,8.874,0,0,0-.527,1.88,8.736,8.736,0,0,0-.051.929c0,.256-.01.521-.035.778a6.863,6.863,0,0,1-.855,2.56.135.135,0,0,0,.118.2" transform="translate(-3136.946 -1630.585)" fill="#fff"/>
        <path id="Trazado_1239344" data-name="Trazado 1239344" d="M3352.491,1760.768a.135.135,0,0,0,.125-.086l.434-1.11a4.412,4.412,0,0,0,.437-2c0-.164.006-.334.02-.5a7.611,7.611,0,0,1,.446-1.763c.066-.2.133-.392.194-.589a4.066,4.066,0,0,0,.123-2.51.135.135,0,0,0-.254.091,3.82,3.82,0,0,1-.126,2.34c-.06.195-.126.388-.192.582a7.816,7.816,0,0,0-.459,1.826c-.015.173-.018.347-.021.516a5.5,5.5,0,0,1-.039.664,5.584,5.584,0,0,1-.379,1.243l-.434,1.111a.135.135,0,0,0,.125.184" transform="translate(-3115.12 -1628.189)" fill="#fff"/>
        <path id="Trazado_1239345" data-name="Trazado 1239345" d="M3367.644,1657.489a.132.132,0,0,0,.042-.007.135.135,0,0,0,.086-.17l-.671-2.027a1.322,1.322,0,0,0-.651-.907.135.135,0,0,0-.1.25c.266.107.4.439.5.742l.671,2.027a.135.135,0,0,0,.128.093" transform="translate(-3128.043 -1537.363)" fill="#fff"/>
        <path id="Trazado_1239346" data-name="Trazado 1239346" d="M3327.286,1645.516a.135.135,0,0,0,.115-.2,8.3,8.3,0,0,0-2.3-2.489.135.135,0,0,0-.156.22,8.028,8.028,0,0,1,2.224,2.407.135.135,0,0,0,.116.066" transform="translate(-3089.6 -1526.613)" fill="#fff"/>
        <path id="Trazado_1239347" data-name="Trazado 1239347" d="M3288.759,1669.443a.135.135,0,0,0,.087-.238c-.641-.534-1.273-1.1-1.878-1.672-.1-.1-.153-.18-.135-.228a.135.135,0,1,0-.253-.094c-.089.24.13.448.2.517.609.579,1.245,1.145,1.891,1.683a.134.134,0,0,0,.086.031" transform="translate(-3053.985 -1549.214)" fill="#fff"/>
        <path id="Trazado_1239348" data-name="Trazado 1239348" d="M3242.962,1680.222a.135.135,0,0,0,.083-.241,12.121,12.121,0,0,1-1.845-1.808.135.135,0,1,0-.208.171,12.383,12.383,0,0,0,1.886,1.849.134.134,0,0,0,.084.029" transform="translate(-3011.619 -1559.436)" fill="#fff"/>
        <path id="Trazado_1239349" data-name="Trazado 1239349" d="M3272.933,1592.681a.135.135,0,0,0,.106-.218,11.763,11.763,0,0,1-.957-1.419.135.135,0,0,0-.234.134,12.088,12.088,0,0,0,.979,1.451.134.134,0,0,0,.106.051" transform="translate(-3040.3 -1478.464)" fill="#fff"/>
        <path id="Trazado_1239350" data-name="Trazado 1239350" d="M3281.957,1762.62c-.475-.2-.225-1.086-.09-1.416a4.088,4.088,0,0,1,.705-.985,1.315,1.315,0,0,1,1.16-.335,1.11,1.11,0,0,1,.152.029,1.5,1.5,0,0,1,1.082,1.49,1.091,1.091,0,0,1-.385.73.906.906,0,0,1-.8.175c-.315-.089-.613-.366-.923-.259a1.111,1.111,0,0,0-.413.376.489.489,0,0,1-.468.2l-.023-.009" transform="translate(-3049.452 -1635.386)" fill="#e3795b"/>
        <path id="Trazado_1239351" data-name="Trazado 1239351" d="M3278.937,1762.252h.008a.135.135,0,0,0,.127-.142,3.091,3.091,0,0,1,.535-2.255,1.394,1.394,0,0,1,.829-.4,2.686,2.686,0,0,1,.971.073.135.135,0,1,0,.062-.263,2.941,2.941,0,0,0-1.069-.077,1.66,1.66,0,0,0-.989.478,3.32,3.32,0,0,0-.608,2.454.135.135,0,0,0,.134.127" transform="translate(-3046.766 -1634.739)" fill="#051320"/>
        <path id="Trazado_1239352" data-name="Trazado 1239352" d="M3217.994,1747.1a.221.221,0,0,1-.3.042.3.3,0,0,1-.075-.137c-.017-.052-.032-.1-.044-.157a1.719,1.719,0,0,1-.047-.7.352.352,0,0,1,.3-.286.344.344,0,0,1,.307.252.854.854,0,0,1,0,.421c-.036.187-.014.416-.149.564" transform="translate(-2989.832 -1622.375)" fill="#051320"/>
        <path id="Trazado_1239353" data-name="Trazado 1239353" d="M3213.052,1723.9a2.059,2.059,0,0,1-.889-.8.449.449,0,0,1,.079-.525.44.44,0,0,1,.425-.026,1.593,1.593,0,0,1,.614.544l.437.55a.38.38,0,0,1,.1.21.252.252,0,0,1-.219.233.62.62,0,0,1-.339-.062,2.6,2.6,0,0,1-.848-.568Z" transform="translate(-2984.819 -1600.673)" fill="#051320"/>
        <path id="Trazado_1239354" data-name="Trazado 1239354" d="M3188.038,1804.051a.135.135,0,0,0,.093-.233,2.147,2.147,0,0,0-1.12-.624.135.135,0,1,0-.049.265,1.9,1.9,0,0,1,.983.555.135.135,0,0,0,.093.037" transform="translate(-2961.344 -1675.639)" fill="#051320"/>
        <path id="Trazado_1239355" data-name="Trazado 1239355" d="M3209.442,1842.027l.025,0a1.486,1.486,0,0,0,1.026-.751.135.135,0,1,0-.238-.127,1.231,1.231,0,0,1-.838.614.135.135,0,0,0,.025.267" transform="translate(-2982.209 -1710.837)" fill="#051320"/>
        <path id="Trazado_1239356" data-name="Trazado 1239356" d="M3328.516,2809.993a.133.133,0,0,0,.039-.006,80.14,80.14,0,0,0,12.353-4.739.138.138,0,0,0,.064-.184.136.136,0,0,0-.183-.064,79.983,79.983,0,0,1-12.311,4.724.137.137,0,0,0,.038.269" transform="translate(-3092.841 -2606.432)" fill="#051320"/>
        <path id="Trazado_1239357" data-name="Trazado 1239357" d="M2565.9,1945.389a.135.135,0,0,0,.085-.03.137.137,0,0,0,.022-.193,30.82,30.82,0,0,1-4.067-6.75.137.137,0,0,0-.252.11,31.124,31.124,0,0,0,4.1,6.811.137.137,0,0,0,.108.052" transform="translate(-2380.48 -1801.203)" fill="#051320"/>
        <path id="Trazado_1239358" data-name="Trazado 1239358" d="M2574.665,1932.978a.137.137,0,0,0,.106-.225,43.016,43.016,0,0,1-3.7-5.183.137.137,0,1,0-.234.143,43.232,43.232,0,0,0,3.723,5.216.137.137,0,0,0,.105.05" transform="translate(-2388.97 -1791.141)" fill="#051320"/>
        <path id="Trazado_1239359" data-name="Trazado 1239359" d="M2590.516,1914.728a.138.138,0,0,0,.109-.221l-3.4-4.371a.137.137,0,0,0-.217.169l3.4,4.371a.138.138,0,0,0,.109.053" transform="translate(-2403.992 -1774.954)" fill="#051320"/>
        <path id="Trazado_1239360" data-name="Trazado 1239360" d="M2662.1,1996.384a.136.136,0,0,0,.09-.034l.879-.773a.137.137,0,1,0-.181-.206l-.879.773a.137.137,0,0,0,.091.24" transform="translate(-2473.655 -1854.165)" fill="#051320"/>
        <path id="Trazado_1239361" data-name="Trazado 1239361" d="M2702.885,1895.12a.137.137,0,0,0,.1-.232l-.3-.308a14.233,14.233,0,0,1-1.708-1.985,1.923,1.923,0,0,1-.074-1.422,4.234,4.234,0,0,0-.94-3.719l-.178-.283a11.2,11.2,0,0,1-1.3-2.505c-.093-.3-.191-.589-.288-.881a19.269,19.269,0,0,1-.694-2.431.137.137,0,0,0-.27.052,19.762,19.762,0,0,0,.7,2.466c.1.29.194.582.287.876a11.428,11.428,0,0,0,1.332,2.569l.178.282a3.974,3.974,0,0,1,.9,3.524,2.142,2.142,0,0,0,.115,1.623,14.469,14.469,0,0,0,1.739,2.025l.3.307a.138.138,0,0,0,.1.042" transform="translate(-2506.424 -1748.158)" fill="#f8936d"/>
        <path id="Trazado_1239362" data-name="Trazado 1239362" d="M2612.5,2032.943a.137.137,0,0,0,.107-.051l.914-1.125a.137.137,0,1,0-.213-.173l-.914,1.125a.137.137,0,0,0,.106.224" transform="translate(-2427.569 -1887.807)" fill="#051320"/>
        <path id="Trazado_1239363" data-name="Trazado 1239363" d="M3230.384,1774.992a.387.387,0,0,1-.108-.195,1.527,1.527,0,0,1,.224-1.177,2.278,2.278,0,0,1,.673-.712.932.932,0,0,1,.442-.177.786.786,0,0,1,.762.842,1.873,1.873,0,0,1-.823,1.269c-.263.169-.912.371-1.171.15" transform="translate(-3001.652 -1647.335)" fill="#f19392"/>
        <path id="Trazado_1239364" data-name="Trazado 1239364" d="M3311.791,2911.667a.138.138,0,0,0,.131-.1l6.289-20.394a.137.137,0,0,0-.263-.081l-6.288,20.394a.137.137,0,0,0,.091.171.13.13,0,0,0,.041.006" transform="translate(-3077.302 -2686.348)" fill="#051320"/>
        <path id="Trazado_1239365" data-name="Trazado 1239365" d="M3236,3188.98h.019l4.021-.543a.137.137,0,1,0-.037-.272l-4.021.544a.137.137,0,0,0,.018.273" transform="translate(-3006.883 -2962.45)" fill="#051320"/>
        <path id="Trazado_1239366" data-name="Trazado 1239366" d="M3438.338,3232.766a.136.136,0,0,0,.055-.011l3.479-1.52a.137.137,0,1,0-.11-.252l-3.478,1.52a.137.137,0,0,0,.055.263" transform="translate(-3194.879 -3002.226)" fill="#051320"/>
        <path id="Trazado_1239367" data-name="Trazado 1239367" d="M3422.972,3212.717a.149.149,0,0,0,.044-.007,27.167,27.167,0,0,1,4.658-1.162.137.137,0,0,0,.114-.157.138.138,0,0,0-.156-.115,27.461,27.461,0,0,0-4.705,1.174.137.137,0,0,0,.045.267" transform="translate(-3180.603 -2983.925)" fill="#051320"/>
        <path id="Trazado_1239368" data-name="Trazado 1239368" d="M3144.435,3782.915l.023,0a.137.137,0,0,0,.113-.158l-.434-2.608a.137.137,0,0,0-.271.045l.435,2.608a.138.138,0,0,0,.135.115" transform="translate(-2921.403 -3512.373)" fill="#fff"/>
        <path id="Trazado_1239369" data-name="Trazado 1239369" d="M3112.017,3805.7h.012a.138.138,0,0,0,.125-.149l-.217-2.391a.138.138,0,1,0-.274.025l.218,2.391a.138.138,0,0,0,.137.125" transform="translate(-2891.485 -3533.742)" fill="#fff"/>
        <path id="Trazado_1239370" data-name="Trazado 1239370" d="M3006.557,3850.788a8.463,8.463,0,0,0,4.444-1.028.138.138,0,0,0-.14-.237,8.939,8.939,0,0,1-5.164.968c-.667-.034-1.345-.1-2-.165a25.643,25.643,0,0,0-3.409-.181l-.4.014c-3.833.14-7.8.283-10.89-2.364a.137.137,0,0,0-.178.209c3.176,2.717,7.193,2.57,11.078,2.43l.4-.015a25.589,25.589,0,0,1,3.372.18c.659.064,1.341.131,2.014.166q.452.023.874.022" transform="translate(-2777.304 -3575.304)" fill="#fff"/>
        <path id="Trazado_1239371" data-name="Trazado 1239371" d="M3380.137,3731.109a.136.136,0,0,0,.1-.041l2.934-2.934a.137.137,0,1,0-.194-.194l-2.934,2.934a.138.138,0,0,0,.1.235" transform="translate(-3140.804 -3463.936)" fill="#fff"/>
        <path id="Trazado_1239372" data-name="Trazado 1239372" d="M3366.336,3726.52a.135.135,0,0,0,.072-.021l2.282-1.413a.137.137,0,0,0-.144-.234l-2.282,1.413a.137.137,0,0,0,.073.254" transform="translate(-3127.981 -3461.084)" fill="#fff"/>
        <path id="Trazado_1239373" data-name="Trazado 1239373" d="M3344,3733.681a3.961,3.961,0,0,0,.662-.071,23.958,23.958,0,0,0,4.008-1.051.137.137,0,0,0-.093-.259,23.661,23.661,0,0,1-3.962,1.039,2.371,2.371,0,0,1-.974.026c-1.614-.411-3.211-1.8-4.621-3.022-.488-.424-.949-.825-1.391-1.169a3.983,3.983,0,0,0-2.025-.771c-.262-.044-.533-.09-.822-.162-3.248-.816-4.458-3.536-5.629-6.166a.137.137,0,1,0-.251.112c1.142,2.565,2.436,5.471,5.813,6.321.3.075.576.122.843.166a3.724,3.724,0,0,1,1.9.718c.437.34.895.738,1.38,1.16,1.433,1.245,3.056,2.655,4.734,3.082a1.709,1.709,0,0,0,.426.05" transform="translate(-3093.314 -3458.446)" fill="#fff"/>
        <path id="Trazado_1239374" data-name="Trazado 1239374" d="M3381.451,1886.784h.012a.135.135,0,0,0,.122-.147c-.132-1.442-.321-2.9-.561-4.326a.135.135,0,1,0-.266.045c.239,1.422.426,2.87.558,4.306a.135.135,0,0,0,.134.123" transform="translate(-3141.507 -1749.046)" fill="#051320"/>
        <path id="Trazado_1239375" data-name="Trazado 1239375" d="M3275.1,1854.92a.136.136,0,0,0,.091-.035,10.06,10.06,0,0,0,2.1-2.683.135.135,0,0,0-.237-.128,9.777,9.777,0,0,1-2.042,2.611.135.135,0,0,0,.091.235" transform="translate(-3043.216 -1720.991)" fill="#051320"/>
        <path id="Trazado_1239376" data-name="Trazado 1239376" d="M3307.764,2536.049c4.8-.908,9.625-2,14.346-3.252l-.094-.358c-4.712,1.247-9.531,2.34-14.32,3.247Z" transform="translate(-3073.624 -2353.201)" fill="#051320"/>
        <rect id="Rectángulo_423943" data-name="Rectángulo 423943" width="8.823" height="0.37" transform="translate(238.915 178.239) rotate(-5.711)" fill="#051320"/>
        <path id="Trazado_1239377" data-name="Trazado 1239377" d="M3221.894,2160.164c1.3-1.08,2.639-2.147,3.98-3.174l-.187-.245c-1.344,1.029-2.686,2.1-3.99,3.181Z" transform="translate(-2993.721 -2004.134)" fill="#051320"/>
        <rect id="Rectángulo_423944" data-name="Rectángulo 423944" width="4.676" height="0.308" transform="translate(226.801 157.248) rotate(-20.051)" fill="#051320"/>
        <path id="Trazado_1239378" data-name="Trazado 1239378" d="M3517.257,2048.968l-3.345-13.762,0-.036,3.454-28.983-4.734-8.512.349-.194,4.8,8.625-3.465,29.075,3.329,13.692Z" transform="translate(-3264.039 -1856.157)" fill="#051320"/>
      </g>
    </g>
  </g>
</svg>
