<svg id="negocio" xmlns="http://www.w3.org/2000/svg" width="31.348" height="31.348" viewBox="0 0 31.348 31.348">
  <g id="Grupo_1242004" data-name="Grupo 1242004">
    <g id="Grupo_1242003" data-name="Grupo 1242003">
      <path id="Trazado_1239223" data-name="Trazado 1239223" d="M30.77,12.413l-3.236-.359a12.287,12.287,0,0,0-.914-2.2l2.034-2.542a.653.653,0,0,0-.048-.869l-3.7-3.691a.653.653,0,0,0-.869-.048L21.5,4.732a12.283,12.283,0,0,0-2.2-.914L18.935.581A.653.653,0,0,0,18.286,0H13.062a.653.653,0,0,0-.649.581l-.359,3.233a12.287,12.287,0,0,0-2.2.914L7.307,2.695a.653.653,0,0,0-.869.048l-3.7,3.7a.653.653,0,0,0-.048.869L4.732,9.849a12.283,12.283,0,0,0-.914,2.2l-3.236.359A.653.653,0,0,0,0,13.062v5.225a.653.653,0,0,0,.581.649l3.233.359a12.287,12.287,0,0,0,.914,2.2L2.695,24.041a.653.653,0,0,0,.048.869l3.7,3.7a.653.653,0,0,0,.869.044l2.542-2.033a12.283,12.283,0,0,0,2.2.914l.359,3.236a.653.653,0,0,0,.649.581h5.225a.653.653,0,0,0,.649-.578l.359-3.236a12.287,12.287,0,0,0,2.2-.914l2.542,2.034a.653.653,0,0,0,.869-.048l3.691-3.7a.653.653,0,0,0,.048-.869L26.616,21.5a12.283,12.283,0,0,0,.914-2.2l3.236-.359a.653.653,0,0,0,.581-.649V13.062A.653.653,0,0,0,30.77,12.413ZM30.042,17.7h0l-3.087.344a.653.653,0,0,0-.559.481,11.036,11.036,0,0,1-1.121,2.71.653.653,0,0,0,.055.736L27.271,24.4,24.4,27.267l-2.427-1.942a.653.653,0,0,0-.736-.055,11.039,11.039,0,0,1-2.71,1.121.653.653,0,0,0-.481.559l-.344,3.09H13.649l-.347-3.09a.653.653,0,0,0-.481-.559,11.036,11.036,0,0,1-2.71-1.121.653.653,0,0,0-.736.055L6.948,27.267,4.081,24.4l1.942-2.424a.653.653,0,0,0,.055-.736,11.039,11.039,0,0,1-1.121-2.71.653.653,0,0,0-.559-.481l-3.09-.344V13.649L4.4,13.3a.653.653,0,0,0,.559-.481,11.036,11.036,0,0,1,1.121-2.71.653.653,0,0,0-.055-.736L4.081,6.948,6.948,4.081l2.43,1.942a.653.653,0,0,0,.736.055,11.039,11.039,0,0,1,2.71-1.121.653.653,0,0,0,.481-.559l.344-3.09H17.7l.344,3.09a.653.653,0,0,0,.481.559,11.036,11.036,0,0,1,2.71,1.121.653.653,0,0,0,.736-.055L24.4,4.081l2.868,2.871L25.326,9.378a.653.653,0,0,0-.055.736,11.039,11.039,0,0,1,1.121,2.71.653.653,0,0,0,.559.481l3.09.344Z"/>
    </g>
  </g>
  <g id="Grupo_1242006" data-name="Grupo 1242006" transform="translate(6.528 6.529)">
    <g id="Grupo_1242005" data-name="Grupo 1242005">
      <path id="Trazado_1239224" data-name="Trazado 1239224" d="M123.738,111.32a9.143,9.143,0,1,0-15.958,8.929.653.653,0,0,0,1.031.143l4.267-4.267,1.507,2.01a.653.653,0,0,0,.984.07l4.11-4.11v2.342h1.306v-3.918h0a.653.653,0,0,0-.653-.653h-3.918v1.306h2.342l-3.578,3.578-1.507-2.01a.653.653,0,0,0-.476-.261.665.665,0,0,0-.508.191l-4.152,4.152a7.818,7.818,0,1,1,12.451,2.779v-3.856h-1.306v4.811a7.787,7.787,0,0,1-1.306.606v-4.11h-1.306V123.5a7.865,7.865,0,0,1-1.306.112v-2.6h-1.306v2.5a7.778,7.778,0,0,1-1.306-.336V119.7h-1.306v2.867a7.883,7.883,0,0,1-1.055-.729l-.83,1.009a9.143,9.143,0,0,0,13.781-11.53Z" transform="translate(-106.614 -106.64)"/>
    </g>
  </g>
</svg>
