<svg xmlns="http://www.w3.org/2000/svg" xmlns:xlink="http://www.w3.org/1999/xlink" width="108" height="108" viewBox="0 0 108 108">
  <defs>
    <filter id="Trazado_904820" x="0" y="0" width="108" height="108" filterUnits="userSpaceOnUse">
      <feOffset dy="3" input="SourceAlpha"/>
      <feGaussianBlur stdDeviation="3" result="blur"/>
      <feFlood flood-opacity="0.161"/>
      <feComposite operator="in" in2="blur"/>
      <feComposite in="SourceGraphic"/>
    </filter>
  </defs>
  <g id="Grupo_1242030" data-name="Grupo 1242030" transform="translate(-621 -3884.867)">
    <g id="Grupo_1241869" data-name="Grupo 1241869" transform="translate(4 3065.412)">
      <g id="Grupo_1233818" data-name="Grupo 1233818" transform="translate(0 13.455)">
        <g id="Grupo_1228307" data-name="Grupo 1228307" transform="translate(0 -3017.921)">
          <g id="Grupo_1228100" data-name="Grupo 1228100" transform="translate(626 3829.921)">
            <g id="Grupo_1221597" data-name="Grupo 1221597" transform="translate(0 0)">
              <g id="Grupo_1219744" data-name="Grupo 1219744">
                <g id="Grupo_1202418" data-name="Grupo 1202418">
                  <g id="Grupo_1177315" data-name="Grupo 1177315">
                    <g id="Grupo_1173585" data-name="Grupo 1173585">
                      <g id="Grupo_1173428" data-name="Grupo 1173428">
                        <g id="Grupo_1171958" data-name="Grupo 1171958">
                          <g id="Grupo_1167341" data-name="Grupo 1167341">
                            <g id="Grupo_1166792" data-name="Grupo 1166792">
                              <g transform="matrix(1, 0, 0, 1, -9, -6)" filter="url(#Trazado_904820)">
                                <g id="Trazado_904820-2" data-name="Trazado 904820" transform="translate(9 6)" fill="#f2f7e5">
                                  <path d="M 44.99999618530273 88.49995422363281 C 39.12687301635742 88.49995422363281 33.43022155761719 87.35002899169922 28.06829643249512 85.08213043212891 C 22.88852119445801 82.89126586914062 18.23629570007324 79.75455474853516 14.24084663391113 75.75910186767578 C 10.24540901184082 71.76364898681641 7.108683586120605 67.11144256591797 4.917821407318115 61.93166351318359 C 2.649921178817749 56.56974029541016 1.499996185302734 50.87310028076172 1.499996185302734 44.99997711181641 C 1.499996185302734 39.12685394287109 2.649921178817749 33.43021392822266 4.917821407318115 28.06828880310059 C 7.108683586120605 22.88851547241211 10.24540901184082 18.23630142211914 14.24084663391113 14.24085235595703 C 18.23629570007324 10.24540233612061 22.88852119445801 7.108689785003662 28.06829643249512 4.917827129364014 C 33.43022155761719 2.649927139282227 39.12687301635742 1.500002145767212 44.99999618530273 1.500002145767212 C 50.87311935424805 1.500002145767212 56.56977081298828 2.649927139282227 61.93169784545898 4.917827129364014 C 67.11147308349609 7.108689785003662 71.76369476318359 10.24540233612061 75.75914764404297 14.24085235595703 C 79.75458526611328 18.23630142211914 82.89131164550781 22.88851547241211 85.08216857910156 28.06828880310059 C 87.35007476806641 33.43021392822266 88.5 39.12685394287109 88.5 44.99997711181641 C 88.5 50.87310028076172 87.35007476806641 56.56974029541016 85.08216857910156 61.93166351318359 C 82.89131164550781 67.11144256591797 79.75458526611328 71.76364898681641 75.75914764404297 75.75910186767578 C 71.76369476318359 79.75455474853516 67.11147308349609 82.89126586914062 61.93169784545898 85.08213043212891 C 56.56977081298828 87.35002899169922 50.87311935424805 88.49995422363281 44.99999618530273 88.49995422363281 Z" stroke="none"/>
                                  <path d="M 44.99999618530273 2.999992370605469 C 39.32870864868164 2.999992370605469 33.82865142822266 4.11004638671875 28.65262603759766 6.299331665039062 C 23.65165710449219 8.414566040039062 19.15968322753906 11.44333648681641 15.301513671875 15.30150604248047 C 11.44333648681641 19.15967559814453 8.414566040039062 23.65163421630859 6.299339294433594 28.65260696411133 C 4.110054016113281 33.82864761352539 2.999992370605469 39.32868957519531 2.999992370605469 44.99997711181641 C 2.999992370605469 50.6712646484375 4.110054016113281 56.17130661010742 6.299339294433594 61.34733581542969 C 8.414566040039062 66.34830474853516 11.44333648681641 70.84026336669922 15.301513671875 74.69844818115234 C 19.15968322753906 78.55661773681641 23.65165710449219 81.58537292480469 28.65262603759766 83.70062255859375 C 33.82865142822266 85.889892578125 39.32870864868164 86.99994659423828 44.99999618530273 86.99994659423828 C 50.67128372192383 86.99994659423828 56.17134094238281 85.889892578125 61.34736633300781 83.70062255859375 C 66.34834289550781 81.58537292480469 70.84030914306641 78.55661773681641 74.69847869873047 74.69844818115234 C 78.55665588378906 70.84026336669922 81.58542633056641 66.34830474853516 83.70065307617188 61.34733581542969 C 85.88993835449219 56.17130661010742 87 50.6712646484375 87 44.99997711181641 C 87 39.32868957519531 85.88993835449219 33.82864761352539 83.70065307617188 28.65260696411133 C 81.58542633056641 23.65163421630859 78.55665588378906 19.15967559814453 74.69847869873047 15.30150604248047 C 70.84030914306641 11.44333648681641 66.34834289550781 8.414566040039062 61.34736633300781 6.299331665039062 C 56.17134094238281 4.11004638671875 50.67128372192383 2.999992370605469 44.99999618530273 2.999992370605469 M 44.99999618530273 -7.62939453125e-06 C 69.85281372070312 -7.62939453125e-06 90 20.14717864990234 90 44.99997711181641 C 90 69.85277557373047 69.85281372070312 89.99994659423828 44.99999618530273 89.99994659423828 C 20.14717864990234 89.99994659423828 -7.62939453125e-06 69.85277557373047 -7.62939453125e-06 44.99997711181641 C -7.62939453125e-06 20.14717864990234 20.14717864990234 -7.62939453125e-06 44.99999618530273 -7.62939453125e-06 Z" stroke="none" fill="#496406"/>
                                </g>
                              </g>
                            </g>
                          </g>
                        </g>
                      </g>
                    </g>
                  </g>
                </g>
              </g>
            </g>
          </g>
        </g>
      </g>
    </g>
    <g id="liderazgo-intelectual_4_" data-name="liderazgo-intelectual (4)" transform="translate(612.157 3903.452)">
      <g id="Grupo_1242028" data-name="Grupo 1242028" transform="translate(35.789 0.95)">
        <path id="Trazado_1239515" data-name="Trazado 1239515" d="M176.906,126.619l-4.019-5.639a4.749,4.749,0,0,1-.882-2.758,18.937,18.937,0,0,0-7.538-15.137,4.223,4.223,0,0,1-1.43.814l-.078.026-.008.082a2.985,2.985,0,0,1-1.092,2.043l-.011.009-.008.011a10,10,0,0,1-17.741-4.6,18.91,18.91,0,0,0-4.247,3.084,6.752,6.752,0,0,1,.21,1.675c0,.1,0,.207-.008.31l0,.059.044.04a10,10,0,0,1-5.164,17.246,18.878,18.878,0,0,0,2.21,4.686,10,10,0,1,1,6.2,17.855,10.2,10.2,0,0,1-1.152-.066v5.068a1.266,1.266,0,0,0,1.266,1.266h17.812a1.266,1.266,0,0,0,1.266-1.266V143.47a1.9,1.9,0,0,1,1.9-1.9h3.775a3.8,3.8,0,0,0,3.8-3.8v-6.4a1.266,1.266,0,0,1,1.266-1.266h1.838a2.206,2.206,0,0,0,1.8-3.486Z" transform="translate(-123.207 -89.57)" fill="#ffb09e"/>
        <path id="Trazado_1239516" data-name="Trazado 1239516" d="M226.706,132.938l-4.023-5.645a4.754,4.754,0,0,1-.883-2.761,18.969,18.969,0,0,0-8.449-15.8,31.576,31.576,0,0,1-21.4,45.287v3.748a1.267,1.267,0,0,0,1.268,1.267h17.83a1.267,1.267,0,0,0,1.268-1.267v-7.964a1.9,1.9,0,0,1,1.9-1.9H218a3.8,3.8,0,0,0,3.8-3.8v-6.407a1.267,1.267,0,0,1,1.268-1.267h1.84a2.208,2.208,0,0,0,1.8-3.489Z" transform="translate(-173.008 -95.916)" fill="#f89580"/>
        <path id="Trazado_1239517" data-name="Trazado 1239517" d="M59.189,138.333a6.586,6.586,0,0,1-2.086,4.639,4.707,4.707,0,0,0-1.5,3.4v3.276a1.775,1.775,0,0,1-1.773,1.773H51.251a1.775,1.775,0,0,1-1.773-1.773v-3.277a4.522,4.522,0,0,0-1.437-3.335,6.666,6.666,0,0,1-2.155-4.821,10.129,10.129,0,1,0,13.3.12Z" transform="translate(-42.339 -121.662)" fill="#05e39c"/>
        <path id="Trazado_1239518" data-name="Trazado 1239518" d="M147.316,296a10.109,10.109,0,0,0-7.832,3.706h8.465a3.043,3.043,0,0,1,3.039,3.039v6.769a3.042,3.042,0,0,1-3.039,3.039h-4.9a.5.5,0,0,0-.358.148l-1.5,1.5a10.129,10.129,0,1,0,6.121-18.2Z" transform="translate(-127.183 -259.469)" fill="#ffe177"/>
        <g id="Grupo_1242023" data-name="Grupo 1242023" transform="translate(3.419 9.687)">
          <path id="Trazado_1239519" data-name="Trazado 1239519" d="M76.338,84a6.846,6.846,0,0,0-7,6.72,6.762,6.762,0,0,0,2.2,5.056,4.39,4.39,0,0,1,1.4,3.242v.17h6.375v-.17a4.552,4.552,0,0,1,1.464-3.305A6.781,6.781,0,0,0,76.338,84Z" transform="translate(-69.339 -84)" fill="#ffe177"/>
          <path id="Trazado_1239520" data-name="Trazado 1239520" d="M76.338,84a6.846,6.846,0,0,0-7,6.72,6.762,6.762,0,0,0,2.2,5.056,4.39,4.39,0,0,1,1.4,3.242v.17h6.375v-.17a4.552,4.552,0,0,1,1.464-3.305A6.781,6.781,0,0,0,76.338,84Z" transform="translate(-69.339 -84)" fill="#ffe177"/>
          <path id="Trazado_1239521" data-name="Trazado 1239521" d="M90.069,89.46a7.095,7.095,0,0,1-8.175,10.449,6.843,6.843,0,0,0,.609.639,4.391,4.391,0,0,1,1.4,3.242v.17h6.375v-.17a4.552,4.552,0,0,1,1.464-3.305A6.78,6.78,0,0,0,90.069,89.46Z" transform="translate(-80.304 -88.769)" fill="#ffd15b"/>
          <path id="Trazado_1239522" data-name="Trazado 1239522" d="M102.2,208.971H99.623a1.9,1.9,0,0,1-1.9-1.9v-3.107H104.1v3.107A1.9,1.9,0,0,1,102.2,208.971Z" transform="translate(-94.13 -188.775)" fill="#cbc4cc"/>
          <path id="Trazado_1239523" data-name="Trazado 1239523" d="M101.454,204.539a1.9,1.9,0,0,1-1.9,1.9h-1.83v.633a1.9,1.9,0,0,0,1.9,1.9H102.2a1.9,1.9,0,0,0,1.9-1.9v-3.107h-2.645v.574Z" transform="translate(-94.13 -188.775)" fill="#b5adb6"/>
        </g>
        <g id="Grupo_1242026" data-name="Grupo 1242026" transform="translate(20.639)">
          <path id="Trazado_1239524" data-name="Trazado 1239524" d="M221.45,24.467a3.011,3.011,0,0,1-3.007-3.007V13.8a3.01,3.01,0,0,1,4.988-2.266v-.161a10.13,10.13,0,1,0,0,12.515v-.161A3,3,0,0,1,221.45,24.467Z" transform="translate(-205.339 -7.5)" fill="#ffe177"/>
          <g id="Grupo_1242025" data-name="Grupo 1242025" transform="translate(3.75 3.166)">
            <path id="Trazado_1239525" data-name="Trazado 1239525" d="M241.048,32.5a3.134,3.134,0,0,0-3.119,2.835,4.353,4.353,0,0,0,0,8.258,3.133,3.133,0,0,0,6.253-.3V35.634A3.134,3.134,0,0,0,241.048,32.5Z" transform="translate(-234.954 -32.5)" fill="#fd8087"/>
            <g id="Grupo_1242024" data-name="Grupo 1242024" transform="translate(3.519 0.022)">
              <path id="Trazado_1239526" data-name="Trazado 1239526" d="M265.679,32.67V42.1a3.134,3.134,0,0,1-2.937,3.127,3.131,3.131,0,0,0,5.709-1.78V35.783A3.134,3.134,0,0,0,265.679,32.67Z" transform="translate(-262.742 -32.67)" fill="#fe646f"/>
            </g>
            <path id="Trazado_1239527" data-name="Trazado 1239527" d="M310.963,32.5a3.133,3.133,0,0,1,3.119,2.835,4.353,4.353,0,0,1,0,8.258,3.133,3.133,0,0,1-6.253-.3V35.634A3.134,3.134,0,0,1,310.963,32.5Z" transform="translate(-298.601 -32.5)" fill="#fd8087"/>
            <path id="Trazado_1239528" data-name="Trazado 1239528" d="M310.963,32.5a3.133,3.133,0,0,1,3.119,2.835,4.353,4.353,0,0,1,0,8.258,3.133,3.133,0,0,1-6.253-.3V35.634A3.134,3.134,0,0,1,310.963,32.5Z" transform="translate(-298.601 -32.5)" fill="#fd8087"/>
            <path id="Trazado_1239529" data-name="Trazado 1239529" d="M318.556,57.864a5.2,5.2,0,0,1-2.95,5.8,1.034,1.034,0,0,0-.577.708,3.743,3.743,0,0,1-3.023,2.817,3.133,3.133,0,0,0,5.724-1.444,4.351,4.351,0,0,0,.825-7.881Z" transform="translate(-302.25 -54.652)" fill="#fe646f"/>
          </g>
        </g>
        <g id="Grupo_1242027" data-name="Grupo 1242027" transform="translate(6.85 40.11)">
          <path id="Trazado_1239530" data-name="Trazado 1239530" d="M110.35,324.27H99.6a3.166,3.166,0,0,0-3.166,3.166V334.2A3.166,3.166,0,0,0,99.6,337.37h1.464a.38.38,0,0,1,.38.38v2.556a.38.38,0,0,0,.648.269l3.093-3.093a.38.38,0,0,1,.269-.111h4.9a3.166,3.166,0,0,0,3.166-3.166v-6.769A3.166,3.166,0,0,0,110.35,324.27Z" transform="translate(-96.434 -324.27)" fill="#26a6fe"/>
          <path id="Trazado_1239531" data-name="Trazado 1239531" d="M110.35,324.27v8.036a1.9,1.9,0,0,1-1.9,1.9H96.434A3.166,3.166,0,0,0,99.6,337.37h1.464a.38.38,0,0,1,.38.38v2.556a.38.38,0,0,0,.648.269l3.093-3.093a.38.38,0,0,1,.269-.111h4.9a3.166,3.166,0,0,0,3.166-3.166v-6.769A3.165,3.165,0,0,0,110.35,324.27Z" transform="translate(-96.434 -324.27)" fill="#0593fc"/>
        </g>
      </g>
      <g id="Grupo_1242029" data-name="Grupo 1242029" transform="translate(34.839 0)">
        <path id="Trazado_1239532" data-name="Trazado 1239532" d="M90.261,37.257l-4.019-5.639a3.779,3.779,0,0,1-.705-2.207,19.769,19.769,0,0,0-7-15.162A5.3,5.3,0,0,0,76.5,6.265a4.056,4.056,0,0,0-1.437-2.232l.025-.02a11.075,11.075,0,0,0-14.92-1.985.95.95,0,0,0,1.1,1.551,9.171,9.171,0,0,1,10.184-.266,4.093,4.093,0,0,0-2.046,1.321,4.082,4.082,0,0,0-7.1,1.631,5.3,5.3,0,0,0,0,9.628,4.082,4.082,0,0,0,7.1,1.631,4.094,4.094,0,0,0,2.049,1.322A9.18,9.18,0,0,1,58.547,6.6a.979.979,0,0,0-.305-1.313.95.95,0,0,0-1.326.339,11.09,11.09,0,0,0-1.38,6.586,19.858,19.858,0,0,0-2.6,1.814,7.736,7.736,0,0,0-6.7-4.335,7.64,7.64,0,0,0-4.113,1.058.95.95,0,1,0,.962,1.638,5.738,5.738,0,0,1,3.091-.8A5.831,5.831,0,0,1,49.988,21.66a5.6,5.6,0,0,0-1.7,3.216H46.939V19.452h.486a.95.95,0,1,0,0-1.9H44.553a.95.95,0,0,0,0,1.9h.486v5.425H43.7a5.307,5.307,0,0,0-1.648-3.162,5.842,5.842,0,0,1-1.891-4.348,5.656,5.656,0,0,1,.418-2.084.95.95,0,0,0-1.76-.713,7.549,7.549,0,0,0-.552,2.624,11.076,11.076,0,0,0,7.655,19.085c.333,0,.661-.016.987-.044a19.832,19.832,0,0,0,1.518,3.224q-.338.311-.652.653H45.8a4.12,4.12,0,0,0-4.115,4.115v.852a.95.95,0,0,0,1.9,0v-.852A2.218,2.218,0,0,1,45.8,42.01H56.555a2.218,2.218,0,0,1,2.216,2.216v6.769a2.218,2.218,0,0,1-2.216,2.216h-4.9a1.321,1.321,0,0,0-.94.389L48.6,55.721V54.54a1.331,1.331,0,0,0-1.33-1.33H45.8a2.218,2.218,0,0,1-2.216-2.216V49.509a.95.95,0,1,0-1.9,0v1.485A4.12,4.12,0,0,0,45.8,55.11H46.7V57.1a1.329,1.329,0,0,0,2.27.94l1.051-1.051a10.957,10.957,0,0,0,3.8,1.5v4.125a2.218,2.218,0,0,0,2.216,2.216H73.847a2.218,2.218,0,0,0,2.216-2.216V54.659a.951.951,0,0,1,.95-.95h3.775a4.754,4.754,0,0,0,4.748-4.748v-6.4a.317.317,0,0,1,.317-.317h1.838a3.156,3.156,0,0,0,2.57-4.987ZM68.456,14.91a2.184,2.184,0,0,1-4.225.778l1.292-.736a.95.95,0,1,0-.94-1.651l-1.5.855a3.4,3.4,0,0,1,0-6.153l1.021.582v.971a.95.95,0,1,0,1.9,0V8.539a1.824,1.824,0,0,0-.92-1.582l-.853-.485a2.184,2.184,0,0,1,4.225.778Zm1.9,0V7.249a2.184,2.184,0,0,1,4.225-.778l-.853.485a1.824,1.824,0,0,0-.92,1.582V9.556a.95.95,0,1,0,1.9,0V8.585L75.729,8a3.4,3.4,0,0,1,0,6.153l-1.5-.855a.95.95,0,1,0-.94,1.651l1.292.736a2.184,2.184,0,0,1-4.225-.778Zm-26.6,11.866h4.475v2.157a.951.951,0,0,1-.95.95H44.7a.951.951,0,0,1-.95-.95Zm2.167,7.6A9.174,9.174,0,0,1,38.6,19.669a7.741,7.741,0,0,0,2.168,3.446,3.444,3.444,0,0,1,1.088,2.542v3.277A2.852,2.852,0,0,0,44.7,31.782h2.576a2.852,2.852,0,0,0,2.849-2.849V25.657a3.58,3.58,0,0,1,1.165-2.614A7.753,7.753,0,0,0,53.34,19.8a9.175,9.175,0,0,1-7.421,14.578ZM51.894,55.11h4.661a4.12,4.12,0,0,0,4.115-4.115V44.225a4.12,4.12,0,0,0-4.115-4.115h-5.92A9.177,9.177,0,1,1,51.4,55.6Zm35.8-14.765H85.853a2.218,2.218,0,0,0-2.216,2.216v6.4a2.852,2.852,0,0,1-2.849,2.849H77.013a2.852,2.852,0,0,0-2.849,2.849v7.956a.317.317,0,0,1-.317.317H56.036a.317.317,0,0,1-.317-.317V58.686c.067,0,.135,0,.2,0a11.079,11.079,0,1,0-5.982-20.4,17.956,17.956,0,0,1-1.133-2.391,11.077,11.077,0,0,0,4.911-18.563,7.8,7.8,0,0,0-.134-1.36A17.967,17.967,0,0,1,55.926,14.2,11.077,11.077,0,0,0,75.183,18.03,4.055,4.055,0,0,0,76.5,15.894a5.307,5.307,0,0,0,.626-.343,17.888,17.888,0,0,1,6.508,13.86A5.669,5.669,0,0,0,84.7,32.72l4.019,5.639a1.256,1.256,0,0,1-1.023,1.985Z" transform="translate(-34.839 0)"/>
        <path id="Trazado_1239533" data-name="Trazado 1239533" d="M131.2,356h-8.864a.95.95,0,1,0,0,1.9H131.2a.95.95,0,1,0,0-1.9Z" transform="translate(-110.428 -310.922)"/>
        <path id="Trazado_1239534" data-name="Trazado 1239534" d="M122.337,382.9h1.476a.95.95,0,1,0,0-1.9h-1.476a.95.95,0,1,0,0,1.9Z" transform="translate(-110.428 -332.757)"/>
        <path id="Trazado_1239535" data-name="Trazado 1239535" d="M160.592,381h-4.6a.95.95,0,1,0,0,1.9h4.6a.95.95,0,1,0,0-1.9Z" transform="translate(-139.82 -332.757)"/>
      </g>
    </g>
  </g>
</svg>
