<svg xmlns="http://www.w3.org/2000/svg" xmlns:xlink="http://www.w3.org/1999/xlink" width="108" height="108" viewBox="0 0 108 108">
  <defs>
    <filter id="Trazado_904820" x="0" y="0" width="108" height="108" filterUnits="userSpaceOnUse">
      <feOffset dy="3" input="SourceAlpha"/>
      <feGaussianBlur stdDeviation="3" result="blur"/>
      <feFlood flood-opacity="0.161"/>
      <feComposite operator="in" in2="blur"/>
      <feComposite in="SourceGraphic"/>
    </filter>
  </defs>
  <g id="Grupo_1241831" data-name="Grupo 1241831" transform="translate(-619 -3113.638)">
    <g id="Grupo_1235139" data-name="Grupo 1235139" transform="translate(628 3119.638)">
      <g id="Grupo_1233829" data-name="Grupo 1233829" transform="translate(0 0)">
        <g id="Grupo_1228307" data-name="Grupo 1228307">
          <g id="Grupo_1228100" data-name="Grupo 1228100">
            <g id="Grupo_1221597" data-name="Grupo 1221597">
              <g id="Grupo_1219744" data-name="Grupo 1219744">
                <g id="Grupo_1202418" data-name="Grupo 1202418">
                  <g id="Grupo_1177315" data-name="Grupo 1177315">
                    <g id="Grupo_1173585" data-name="Grupo 1173585">
                      <g id="Grupo_1173428" data-name="Grupo 1173428">
                        <g id="Grupo_1171958" data-name="Grupo 1171958">
                          <g id="Grupo_1167341" data-name="Grupo 1167341">
                            <g id="Grupo_1166792" data-name="Grupo 1166792">
                              <g transform="matrix(1, 0, 0, 1, -9, -6)" filter="url(#Trazado_904820)">
                                <g id="Trazado_904820-2" data-name="Trazado 904820" transform="translate(9 6)" fill="#f2f7e5">
                                  <path d="M 44.99999237060547 88.49993133544922 C 39.12686920166016 88.49993133544922 33.43022918701172 87.35000610351562 28.06829261779785 85.08209991455078 C 22.88853073120117 82.89124298095703 18.23630523681641 79.75453186035156 14.24085521697998 75.75907897949219 C 10.24540519714355 71.76364135742188 7.108692169189453 67.11141204833984 4.917829990386963 61.9316520690918 C 2.649929761886597 56.56972885131836 1.500004887580872 50.87307739257812 1.500004887580872 44.99996566772461 C 1.500004887580872 39.1268424987793 2.649929761886597 33.43020248413086 4.917829990386963 28.06827735900879 C 7.108692169189453 22.88850402832031 10.24540519714355 18.23628997802734 14.24085521697998 14.24084091186523 C 18.23630523681641 10.24540328979492 22.88853073120117 7.108690738677979 28.06829261779785 4.91782808303833 C 33.43022918701172 2.649928092956543 39.12686920166016 1.500003218650818 44.99999237060547 1.500003218650818 C 50.87311553955078 1.500003218650818 56.56976699829102 2.649928092956543 61.93169403076172 4.91782808303833 C 67.11146545410156 7.108690738677979 71.76369476318359 10.24540328979492 75.75914001464844 14.24084091186523 C 79.75457763671875 18.23628997802734 82.89130401611328 22.88850402832031 85.08216857910156 28.06827735900879 C 87.35006713867188 33.43020248413086 88.49999237060547 39.1268424987793 88.49999237060547 44.99996566772461 C 88.49999237060547 50.87307739257812 87.35006713867188 56.56972885131836 85.08216857910156 61.9316520690918 C 82.89130401611328 67.11141204833984 79.75457763671875 71.76364135742188 75.75914001464844 75.75907897949219 C 71.76369476318359 79.75453186035156 67.11146545410156 82.89124298095703 61.93169403076172 85.08209991455078 C 56.56976699829102 87.35000610351562 50.87311553955078 88.49993133544922 44.99999237060547 88.49993133544922 Z" stroke="none"/>
                                  <path d="M 44.99999237060547 2.999992370605469 C 39.32870483398438 2.999992370605469 33.82866287231445 4.110054016113281 28.65262222290039 6.299324035644531 C 23.65164947509766 8.414566040039062 19.15969085693359 11.44332122802734 15.30150604248047 15.30149078369141 C 11.44333648681641 19.15968322753906 8.414566040039062 23.65163421630859 6.299331665039062 28.65260696411133 C 4.11004638671875 33.82863616943359 2.999992370605469 39.32867813110352 2.999992370605469 44.99996566772461 C 2.999992370605469 50.67123794555664 4.11004638671875 56.17129516601562 6.299331665039062 61.34732055664062 C 8.414566040039062 66.34829711914062 11.44333648681641 70.84025573730469 15.30150604248047 74.69842529296875 C 19.15969085693359 78.55659484863281 23.65164947509766 81.58535003662109 28.65262222290039 83.70059204101562 C 33.82866287231445 85.88986206054688 39.32870483398438 86.99992370605469 44.99999237060547 86.99992370605469 C 50.67127990722656 86.99992370605469 56.17132186889648 85.88986206054688 61.34736633300781 83.70059204101562 C 66.34833526611328 81.58535003662109 70.84029388427734 78.55659484863281 74.69846343994141 74.69842529296875 C 78.55663299560547 70.84025573730469 81.58540344238281 66.34829711914062 83.70063781738281 61.34732055664062 C 85.88992309570312 56.17129516601562 86.99997711181641 50.67123794555664 86.99997711181641 44.99996566772461 C 86.99997711181641 39.32867813110352 85.88992309570312 33.82863616943359 83.70063781738281 28.65260696411133 C 81.58540344238281 23.65163421630859 78.55663299560547 19.15968322753906 74.69846343994141 15.30149078369141 C 70.84029388427734 11.44332122802734 66.34833526611328 8.414566040039062 61.34736633300781 6.299324035644531 C 56.17132186889648 4.110054016113281 50.67127990722656 2.999992370605469 44.99999237060547 2.999992370605469 M 44.99999237060547 -7.62939453125e-06 C 69.85279083251953 -7.62939453125e-06 89.99997711181641 20.14716339111328 89.99997711181641 44.99996566772461 C 89.99997711181641 69.85275268554688 69.85279083251953 89.99992370605469 44.99999237060547 89.99992370605469 C 20.14719390869141 89.99992370605469 -7.62939453125e-06 69.85275268554688 -7.62939453125e-06 44.99996566772461 C -7.62939453125e-06 20.14716339111328 20.14719390869141 -7.62939453125e-06 44.99999237060547 -7.62939453125e-06 Z" stroke="none" fill="#496406"/>
                                </g>
                              </g>
                            </g>
                          </g>
                        </g>
                      </g>
                    </g>
                  </g>
                </g>
              </g>
            </g>
          </g>
        </g>
      </g>
    </g>
    <g id="lider_4_" data-name="lider (4)" transform="translate(643.5 3123.794)">
      <g id="Grupo_1241829" data-name="Grupo 1241829" transform="translate(0.864 9.07)">
        <g id="Grupo_1241825" data-name="Grupo 1241825" transform="translate(0 11.978)">
          <g id="Grupo_1241819" data-name="Grupo 1241819" transform="translate(0 13.795)">
            <g id="Grupo_1241811" data-name="Grupo 1241811" transform="translate(38.485)">
              <g id="Grupo_1241810" data-name="Grupo 1241810">
                <g id="Grupo_1241809" data-name="Grupo 1241809">
                  <g id="Grupo_1241808" data-name="Grupo 1241808">
                    <path id="Trazado_1239280" data-name="Trazado 1239280" d="M360.257,357.327H341.47v-7.473a6.524,6.524,0,0,1,6.524-6.524h5.74a6.524,6.524,0,0,1,6.524,6.524v7.473Z" transform="translate(-341.47 -331.349)" fill="#27d1b3"/>
                    <g id="Grupo_1241805" data-name="Grupo 1241805" transform="translate(6.462 11.981)">
                      <g id="Grupo_1241804" data-name="Grupo 1241804">
                        <path id="Trazado_1239281" data-name="Trazado 1239281" d="M403.177,352.083l-2.243,1.972a.688.688,0,0,1-.908,0l-2.243-1.972a.688.688,0,0,1-.212-.687l2.066-8.065h1.687l2.066,8.065a.688.688,0,0,1-.212.687Z" transform="translate(-397.548 -343.331)" fill="#fb4a59"/>
                      </g>
                    </g>
                    <path id="Trazado_1239282" data-name="Trazado 1239282" d="M428.343,349.854v7.473h-3.4v-7.473a6.525,6.525,0,0,0-6.524-6.524h3.4A6.525,6.525,0,0,1,428.343,349.854Z" transform="translate(-409.556 -331.349)" fill="#20b69f"/>
                    <g id="Grupo_1241807" data-name="Grupo 1241807" transform="translate(4.075)">
                      <g id="Grupo_1241806" data-name="Grupo 1241806">
                        <path id="Trazado_1239283" data-name="Trazado 1239283" d="M382.151,251.916a5.318,5.318,0,0,1-5.318-5.318v-1.92a5.318,5.318,0,1,1,10.637,0v1.92A5.318,5.318,0,0,1,382.151,251.916Z" transform="translate(-376.833 -239.36)" fill="#ffcec0"/>
                        <path id="Trazado_1239284" data-name="Trazado 1239284" d="M415.381,244.683V246.6a5.322,5.322,0,0,1-7,5.046,5.321,5.321,0,0,0,3.634-5.046v-1.919a5.323,5.323,0,0,0-3.634-5.046,5.319,5.319,0,0,1,7,5.046Z" transform="translate(-404.745 -239.364)" fill="#fdb0a0"/>
                      </g>
                    </g>
                  </g>
                </g>
              </g>
            </g>
            <g id="Grupo_1241818" data-name="Grupo 1241818">
              <g id="Grupo_1241817" data-name="Grupo 1241817">
                <g id="Grupo_1241816" data-name="Grupo 1241816">
                  <path id="Trazado_1239285" data-name="Trazado 1239285" d="M26.287,357.327H7.5v-7.473a6.524,6.524,0,0,1,6.524-6.524h5.74a6.524,6.524,0,0,1,6.524,6.524v7.473Z" transform="translate(-7.5 -331.349)" fill="#fb4a59"/>
                  <g id="Grupo_1241813" data-name="Grupo 1241813" transform="translate(6.462 11.981)">
                    <g id="Grupo_1241812" data-name="Grupo 1241812">
                      <path id="Trazado_1239286" data-name="Trazado 1239286" d="M69.207,352.083l-2.243,1.972a.688.688,0,0,1-.908,0l-2.243-1.972a.688.688,0,0,1-.212-.687l2.066-8.065h1.687l2.066,8.065A.688.688,0,0,1,69.207,352.083Z" transform="translate(-63.578 -343.331)" fill="#f8f3f1"/>
                    </g>
                  </g>
                  <path id="Trazado_1239287" data-name="Trazado 1239287" d="M94.373,349.854v7.473h-3.4v-7.473a6.525,6.525,0,0,0-6.524-6.524h3.4A6.525,6.525,0,0,1,94.373,349.854Z" transform="translate(-75.586 -331.349)" fill="#f82f40"/>
                  <g id="Grupo_1241815" data-name="Grupo 1241815" transform="translate(4.075)">
                    <g id="Grupo_1241814" data-name="Grupo 1241814">
                      <path id="Trazado_1239288" data-name="Trazado 1239288" d="M48.181,251.916a5.318,5.318,0,0,1-5.318-5.318v-1.92a5.318,5.318,0,0,1,10.637,0v1.92A5.318,5.318,0,0,1,48.181,251.916Z" transform="translate(-42.863 -239.36)" fill="#ffcec0"/>
                      <path id="Trazado_1239289" data-name="Trazado 1239289" d="M81.411,244.683V246.6a5.322,5.322,0,0,1-7,5.046,5.321,5.321,0,0,0,3.634-5.046v-1.919a5.323,5.323,0,0,0-3.634-5.046,5.319,5.319,0,0,1,7,5.046Z" transform="translate(-70.775 -239.364)" fill="#fdb0a0"/>
                    </g>
                  </g>
                </g>
              </g>
            </g>
          </g>
          <g id="Grupo_1241824" data-name="Grupo 1241824" transform="translate(15.437)">
            <path id="Trazado_1239290" data-name="Trazado 1239290" d="M167.856,337.753h-26.4V326.271a9.167,9.167,0,0,1,9.167-9.167h8.065a9.167,9.167,0,0,1,9.167,9.167v11.482Z" transform="translate(-141.458 -294.35)" fill="#0d5f7f"/>
            <path id="Trazado_1239291" data-name="Trazado 1239291" d="M263.528,326.271v11.482h-4.771V326.271a9.168,9.168,0,0,0-9.167-9.167h4.771A9.168,9.168,0,0,1,263.528,326.271Z" transform="translate(-237.129 -294.35)" fill="#094c66"/>
            <path id="Trazado_1239292" data-name="Trazado 1239292" d="M208.994,317.616l-7.039,13.407-7.039-13.407a9.178,9.178,0,0,1,3.007-.5h8.063A9.178,9.178,0,0,1,208.994,317.616Z" transform="translate(-188.756 -294.356)" fill="#fff"/>
            <path id="Trazado_1239293" data-name="Trazado 1239293" d="M232.011,324.179l-3.592,6.843-3.592-6.843,2.587-7.068h2.01Z" transform="translate(-215.219 -294.356)" fill="#fb4a59"/>
            <g id="Grupo_1241823" data-name="Grupo 1241823" transform="translate(1.08)">
              <g id="Grupo_1241820" data-name="Grupo 1241820" transform="translate(0 11.133)">
                <circle id="Elipse_12331" data-name="Elipse 12331" cx="2.83" cy="2.83" r="2.83" fill="#fdb0a0"/>
              </g>
              <g id="Grupo_1241821" data-name="Grupo 1241821" transform="translate(18.578 11.133)">
                <circle id="Elipse_12332" data-name="Elipse 12332" cx="2.83" cy="2.83" r="2.83" fill="#f69583"/>
              </g>
              <g id="Grupo_1241822" data-name="Grupo 1241822" transform="translate(4.646 5.918)">
                <path id="Trazado_1239294" data-name="Trazado 1239294" d="M198.622,188.652a7.473,7.473,0,0,1-7.473-7.473v-2.7a7.473,7.473,0,0,1,14.946,0v2.7A7.473,7.473,0,0,1,198.622,188.652Z" transform="translate(-191.149 -171.008)" fill="#ffcec0"/>
                <path id="Trazado_1239295" data-name="Trazado 1239295" d="M249.691,178.479v2.7a7.473,7.473,0,0,1-7.473,7.473,7.4,7.4,0,0,1-1.8-.218,7.473,7.473,0,0,0,5.676-7.255v-2.7a7.477,7.477,0,0,0-5.676-7.255,7.472,7.472,0,0,1,9.268,7.255Z" transform="translate(-234.745 -171.006)" fill="#fdb0a0"/>
              </g>
              <path id="Trazado_1239296" data-name="Trazado 1239296" d="M264.478,142.263a20.957,20.957,0,0,1-7.04-.388,4.192,4.192,0,0,1-3.067-4.054v-2.852a2.618,2.618,0,0,1,2.618-2.618h1.97a6.478,6.478,0,0,1,6.478,6.478V141.2A1.064,1.064,0,0,1,264.478,142.263Z" transform="translate(-242.44 -130.887)" fill="#7a7179"/>
              <path id="Trazado_1239297" data-name="Trazado 1239297" d="M279.028,138.826V141.2a1.064,1.064,0,0,1-.961,1.059,24.476,24.476,0,0,1-4.59.038c.152-.013.292-.025.422-.038a1.064,1.064,0,0,0,.959-1.059v-2.374a6.477,6.477,0,0,0-5.127-6.337,2.578,2.578,0,0,1,.848-.142h1.97a6.478,6.478,0,0,1,6.479,6.479Z" transform="translate(-256.03 -130.884)" fill="#685e67"/>
              <path id="Trazado_1239298" data-name="Trazado 1239298" d="M162.547,131.317a24.944,24.944,0,0,0,8.479-.438,4.941,4.941,0,0,0,3.615-4.779v-3.362a3.087,3.087,0,0,0-3.087-3.087h-2.322a7.636,7.636,0,0,0-7.636,7.636v2.971A1.064,1.064,0,0,0,162.547,131.317Z" transform="translate(-160.356 -119.651)" fill="#9b8f99"/>
              <path id="Trazado_1239299" data-name="Trazado 1239299" d="M190.027,122.733V126.1a4.941,4.941,0,0,1-3.614,4.78,23.534,23.534,0,0,1-7.426.531,17.728,17.728,0,0,0,3.224-.531,4.941,4.941,0,0,0,3.615-4.78v-3.362a3.088,3.088,0,0,0-2.361-3,7.626,7.626,0,0,1,1.153-.086h2.323A3.087,3.087,0,0,1,190.027,122.733Z" transform="translate(-175.742 -119.647)" fill="#8b8088"/>
            </g>
          </g>
        </g>
        <g id="Grupo_1241828" data-name="Grupo 1241828" transform="translate(4.735 0)">
          <g id="Grupo_1241826" data-name="Grupo 1241826">
            <circle id="Elipse_12333" data-name="Elipse 12333" cx="10.538" cy="10.538" r="10.538" fill="#27d1b3"/>
            <path id="Trazado_1239300" data-name="Trazado 1239300" d="M129.092,26.247A10.546,10.546,0,0,1,115.758,36.41a10.162,10.162,0,0,0,0-20.325,10.548,10.548,0,0,1,13.336,10.162Z" transform="translate(-108.016 -15.71)" fill="#20b69f"/>
          </g>
          <g id="Grupo_1241827" data-name="Grupo 1241827" transform="translate(3.78 5.323)">
            <path id="Trazado_1239301" data-name="Trazado 1239301" d="M85.326,72.271l-3.782-3.782a.542.542,0,0,1,0-.767l1.562-1.562a.542.542,0,0,1,.767,0l2.22,2.22,6.322-6.322a.542.542,0,0,1,.767,0l1.562,1.562a.542.542,0,0,1,0,.767l-7.883,7.883A1.084,1.084,0,0,1,85.326,72.271Z" transform="translate(-81.385 -61.9)" fill="#bcea73"/>
          </g>
        </g>
      </g>
      <g id="Grupo_1241830" data-name="Grupo 1241830" transform="translate(0 8.206)">
        <path id="Trazado_1239302" data-name="Trazado 1239302" d="M53.372,46.173a6.156,6.156,0,0,0,1.553-4.092v-1.92a6.183,6.183,0,0,0-12.365,0v1.92a6.155,6.155,0,0,0,1.554,4.093,7.39,7.39,0,0,0-2.366,1.046,10.079,10.079,0,0,0-4.879-3.711.857.857,0,0,0-.093-.033,9.95,9.95,0,0,0-1.454-.378,8.325,8.325,0,0,0,2.394-4.552,3.694,3.694,0,0,0,3.372-6.425,1.932,1.932,0,0,0,.154-.756V28.99A7.35,7.35,0,0,0,33.9,21.648h-1.97c-.092,0-.184,0-.276.012a3.945,3.945,0,0,0-3.076-1.476H27.523c.01-.191.016-.383.016-.576a11.4,11.4,0,1,0-9.781,11.287v.76a1.94,1.94,0,0,0,.074.53,3.694,3.694,0,0,0,3.453,6.361,8.325,8.325,0,0,0,2.4,4.553,9.934,9.934,0,0,0-1.43.372.865.865,0,0,0-.143.05,10.107,10.107,0,0,0-4.851,3.706,7.353,7.353,0,0,0-2.368-1.053,6.155,6.155,0,0,0,1.553-4.092v-1.92a6.183,6.183,0,1,0-12.365,0v1.92a6.156,6.156,0,0,0,1.553,4.092A7.4,7.4,0,0,0,0,53.348v7.473a.864.864,0,0,0,1.729,0V53.348a5.666,5.666,0,0,1,5.659-5.659h.269a6.166,6.166,0,0,0,.583.236l-1.73,6.751a1.545,1.545,0,0,0,.479,1.551L9.233,58.2a1.556,1.556,0,0,0,2.049,0l2.244-1.972A1.545,1.545,0,0,0,14,54.675l-1.73-6.751a6.167,6.167,0,0,0,.583-.236h.269a5.627,5.627,0,0,1,3.258,1.035,9.946,9.946,0,0,0-.947,4.177.864.864,0,0,0,.858.87H16.3a.864.864,0,0,0,.864-.859A8.324,8.324,0,0,1,22.061,45.4l6.575,12.523v6.517a.864.864,0,0,0,1.729,0V57.927L36.941,45.4a8.312,8.312,0,0,1,4.894,7.568V64.451a.864.864,0,1,0,1.729,0V52.969a9.972,9.972,0,0,0-.946-4.25,5.663,5.663,0,0,1,3.256-1.03h.269a6.147,6.147,0,0,0,.583.236L45,54.674a1.545,1.545,0,0,0,.479,1.551L47.718,58.2a1.556,1.556,0,0,0,2.049,0l2.243-1.972a1.545,1.545,0,0,0,.479-1.551L52.213,53.6a.864.864,0,1,0-1.674.429l.249.973-2.046,1.8L46.7,55l1.728-6.743q.158.008.318.008t.318-.008L49.5,49.97a.864.864,0,0,0,1.674-.429l-.414-1.617a6.124,6.124,0,0,0,.587-.238l.039,0h.226a5.666,5.666,0,0,1,5.659,5.659v7.473a.864.864,0,0,0,1.729,0V53.348a7.4,7.4,0,0,0-5.629-7.175ZM5.8,40.161a4.454,4.454,0,1,1,8.908,0v1.92a4.454,4.454,0,1,1-8.908,0v-1.92ZM12.3,55l-2.046,1.8L8.212,55,9.94,48.256q.158.008.318.008t.318-.008ZM38.789,36.977a1.951,1.951,0,0,1-.952-.247V34.44a8.362,8.362,0,0,0-.066-1.04c.672-.024,1.267-.07,1.733-.116.06-.006.119-.015.177-.026a1.966,1.966,0,0,1-.892,3.719ZM33.9,23.376a5.62,5.62,0,0,1,5.613,5.613v2.374a.2.2,0,0,1-.181.2,20.036,20.036,0,0,1-6.728-.361,3.255,3.255,0,0,1-1.036-.494,5.846,5.846,0,0,0,.96-3.211V24.135a3.958,3.958,0,0,0-.074-.759H33.9Zm-11.42,5.707a.864.864,0,0,0-.963-1.435,9.675,9.675,0,1,1,2.7-2.727.864.864,0,0,0,1.444.951A11.335,11.335,0,0,0,27.3,21.913h1.276A2.225,2.225,0,0,1,30.8,24.135V27.5a4.079,4.079,0,0,1-2.978,3.945,24.386,24.386,0,0,1-8.162.413.2.2,0,0,1-.177-.2V30.51A11.338,11.338,0,0,0,22.481,29.083Zm-4.236,5.928A1.963,1.963,0,0,1,19,33.459a1.932,1.932,0,0,0,.476.114c.474.05,1.057.1,1.715.134-.022.245-.034.49-.034.732V36.73a1.965,1.965,0,0,1-2.918-1.72Zm4.646,2.126v-2.7a6.554,6.554,0,0,1,.038-.69,21.135,21.135,0,0,0,5.349-.64A5.7,5.7,0,0,0,30.413,32a4.993,4.993,0,0,0,1.739.87,17.166,17.166,0,0,0,3.874.533,6.665,6.665,0,0,1,.083,1.036v2.7a6.609,6.609,0,1,1-13.218,0ZM29.5,55.855l-2.649-5.046,1.964-5.364c.226.019.455.031.686.031s.459-.012.686-.031l1.964,5.364ZM25.468,44.666h.454a8.28,8.28,0,0,0,1.171.453l-1.327,3.624-2.042-3.89A8.258,8.258,0,0,1,25.468,44.666Zm7.766,4.077-1.327-3.624a8.28,8.28,0,0,0,1.173-.453h.452a8.3,8.3,0,0,1,1.744.186Zm11.055-6.662v-1.92a4.454,4.454,0,0,1,8.908,0v1.92a4.454,4.454,0,1,1-8.908,0Z" transform="translate(0 -8.206)"/>
        <path id="Trazado_1239303" data-name="Trazado 1239303" d="M134.822,424.906a.864.864,0,0,0-.864.864v7.362a.864.864,0,0,0,1.729,0V425.77A.864.864,0,0,0,134.822,424.906Z" transform="translate(-118.521 -376.888)"/>
        <path id="Trazado_1239304" data-name="Trazado 1239304" d="M277.42,445.24H277.4a.864.864,0,0,0,0,1.729h.022a.864.864,0,0,0,0-1.729Z" transform="translate(-244.667 -394.878)"/>
        <path id="Trazado_1239305" data-name="Trazado 1239305" d="M88.723,56.374l-1.562-1.562a1.406,1.406,0,0,0-1.989,0l-5.711,5.71-1.609-1.609a1.406,1.406,0,0,0-1.989,0L74.3,60.475a1.408,1.408,0,0,0,0,1.989l3.782,3.782a1.951,1.951,0,0,0,2.756,0l7.883-7.883A1.408,1.408,0,0,0,88.723,56.374Zm-9.106,8.65a.22.22,0,0,1-.311,0L75.752,61.47l1.106-1.106,1.992,1.992a.864.864,0,0,0,1.222,0l6.094-6.094,1.106,1.106Z" transform="translate(-65.376 -49.077)"/>
      </g>
    </g>
  </g>
</svg>
