<svg xmlns="http://www.w3.org/2000/svg" xmlns:xlink="http://www.w3.org/1999/xlink" width="103" height="103" viewBox="0 0 103 103">
  <defs>
    <filter id="Trazado_978624" x="0" y="0" width="103" height="103" filterUnits="userSpaceOnUse">
      <feOffset dy="3" input="SourceAlpha"/>
      <feGaussianBlur stdDeviation="3" result="blur"/>
      <feFlood flood-opacity="0.161"/>
      <feComposite operator="in" in2="blur"/>
      <feComposite in="SourceGraphic"/>
    </filter>
  </defs>
  <g id="Grupo_1241789" data-name="Grupo 1241789" transform="translate(-171 -3318)">
    <g id="Grupo_1235112" data-name="Grupo 1235112" transform="translate(0 -947)">
      <g id="Grupo_1233827" data-name="Grupo 1233827" transform="translate(0 2673)">
        <g id="Grupo_1228308" data-name="Grupo 1228308" transform="translate(0 579)">
          <g id="Grupo_1220654" data-name="Grupo 1220654" transform="translate(180 1019)">
            <g id="Grupo_1176881" data-name="Grupo 1176881">
              <g id="Grupo_1175148" data-name="Grupo 1175148">
                <g id="Grupo_1173798" data-name="Grupo 1173798">
                  <g id="Grupo_1171925" data-name="Grupo 1171925">
                    <g id="Grupo_1164524" data-name="Grupo 1164524">
                      <g id="Grupo_1144123" data-name="Grupo 1144123">
                        <g transform="matrix(1, 0, 0, 1, -9, -6)" filter="url(#Trazado_978624)">
                          <g id="Trazado_978624-2" data-name="Trazado 978624" transform="translate(9 6)" fill="#e9f9fd">
                            <path d="M 42.5 83.5 C 36.96437835693359 83.5 31.59512901306152 82.41617584228516 26.54141235351562 80.27863311767578 C 21.65934181213379 78.21369171142578 17.27447128295898 75.25723266601562 13.50862312316895 71.49137878417969 C 9.742764472961426 67.72553253173828 6.786305904388428 63.34066009521484 4.721364498138428 58.45858764648438 C 2.583823442459106 53.40486907958984 1.5 48.03562164306641 1.5 42.5 C 1.5 36.96437835693359 2.583823442459106 31.59512901306152 4.721364498138428 26.54141235351562 C 6.786305904388428 21.65934181213379 9.742764472961426 17.27447128295898 13.50862312316895 13.50862312316895 C 17.27447128295898 9.742764472961426 21.65934181213379 6.786305904388428 26.54141235351562 4.721364498138428 C 31.59512901306152 2.583823442459106 36.96437835693359 1.5 42.5 1.5 C 48.03562164306641 1.5 53.40486907958984 2.583823442459106 58.45858764648438 4.721364498138428 C 63.34066009521484 6.786305904388428 67.72553253173828 9.742764472961426 71.49137878417969 13.50862312316895 C 75.25723266601562 17.27447128295898 78.21369171142578 21.65934181213379 80.27863311767578 26.54141235351562 C 82.41617584228516 31.59512901306152 83.5 36.96437835693359 83.5 42.5 C 83.5 48.03562164306641 82.41617584228516 53.40486907958984 80.27863311767578 58.45858764648438 C 78.21369171142578 63.34066009521484 75.25723266601562 67.72553253173828 71.49137878417969 71.49137878417969 C 67.72553253173828 75.25723266601562 63.34066009521484 78.21369171142578 58.45858764648438 80.27863311767578 C 53.40486907958984 82.41617584228516 48.03562164306641 83.5 42.5 83.5 Z" stroke="none"/>
                            <path d="M 42.5 3 C 37.16621398925781 3 31.99356079101562 4.043960571289062 27.125732421875 6.102882385253906 C 22.42246627807617 8.092185974121094 18.19785308837891 10.94070434570312 14.56928253173828 14.56928253173828 C 10.94070434570312 18.19785308837891 8.092185974121094 22.42246627807617 6.102882385253906 27.125732421875 C 4.043960571289062 31.99356079101562 3 37.16621398925781 3 42.5 C 3 47.83378601074219 4.043960571289062 53.00643920898438 6.102882385253906 57.87425231933594 C 8.092185974121094 62.57753372192383 10.94070434570312 66.80213165283203 14.56928253173828 70.43071746826172 C 18.19786834716797 74.05929565429688 22.42246627807617 76.90781402587891 27.125732421875 78.89711761474609 C 31.99356079101562 80.95603942871094 37.16621398925781 82 42.5 82 C 47.83378601074219 82 53.00642395019531 80.95603942871094 57.87425231933594 78.89711761474609 C 62.57753372192383 76.90781402587891 66.80213165283203 74.05929565429688 70.43071746826172 70.43071746826172 C 74.05929565429688 66.80213165283203 76.90781402587891 62.57753372192383 78.89711761474609 57.87425231933594 C 80.95603942871094 53.00642395019531 82 47.83378601074219 82 42.5 C 82 37.16621398925781 80.95603942871094 31.99356079101562 78.89711761474609 27.125732421875 C 76.90781402587891 22.42246627807617 74.05929565429688 18.19786834716797 70.43071746826172 14.56928253173828 C 66.80213165283203 10.94070434570312 62.57753372192383 8.092185974121094 57.87425231933594 6.102882385253906 C 53.00643920898438 4.043960571289062 47.83378601074219 3 42.5 3 M 42.5 0 C 65.97209167480469 0 85 19.02789306640625 85 42.5 C 85 65.97209167480469 65.97209167480469 85 42.5 85 C 19.02789306640625 85 0 65.97209167480469 0 42.5 C 0 19.02789306640625 19.02789306640625 0 42.5 0 Z" stroke="none" fill="#36ceef"/>
                          </g>
                        </g>
                      </g>
                    </g>
                  </g>
                </g>
              </g>
            </g>
          </g>
        </g>
      </g>
    </g>
    <g id="Layer_1" data-name="Layer 1" transform="translate(191.714 3333.051)">
      <path id="Trazado_1239214" data-name="Trazado 1239214" d="M381.533,18.414v14.9a1.889,1.889,0,0,1-1.889,1.889h-7.077V18.123a4.4,4.4,0,0,1,4.483-4.266,4.267,4.267,0,0,1,4.482,4.557Z" transform="translate(-329.34 -6.253)" fill="#bfbfbf"/>
      <path id="Trazado_1239215" data-name="Trazado 1239215" d="M53.963,13.857a4.488,4.488,0,0,0-4.488,4.488V61.222a2.741,2.741,0,0,1-2.74,2.74H13.617a2.741,2.741,0,0,1-2.741-2.741V18.345a4.488,4.488,0,0,1,4.488-4.488Z" transform="translate(-6.253 -6.253)" fill="#f5f5f5"/>
      <path id="Trazado_1239216" data-name="Trazado 1239216" d="M16.712,63.963h-3.1a2.741,2.741,0,0,1-2.741-2.741V18.345a4.488,4.488,0,0,1,4.488-4.488h3.1a4.488,4.488,0,0,0-4.488,4.488V61.222a2.741,2.741,0,0,0,2.74,2.74Z" transform="translate(-6.253 -6.253)" fill="#e6e6e6"/>
      <path id="Trazado_1239217" data-name="Trazado 1239217" d="M57.97,102.666A4.275,4.275,0,1,1,53.7,98.391a4.275,4.275,0,0,1,4.275,4.275ZM53.7,110.79a4.275,4.275,0,1,0,4.275,4.275A4.275,4.275,0,0,0,53.7,110.79Zm0,12.4a4.275,4.275,0,1,0,4.275,4.275,4.275,4.275,0,0,0-4.275-4.275Z" transform="translate(-40.684 -81.764)" fill="#80eaff"/>
      <path id="Trazado_1239218" data-name="Trazado 1239218" d="M49.421,102.665a4.277,4.277,0,0,1,5.121-4.191,4.275,4.275,0,0,0,0,8.381,4.276,4.276,0,0,1-5.121-4.19Zm1.692,24.8a4.276,4.276,0,0,1,3.428-4.19,4.275,4.275,0,1,0,0,8.381,4.276,4.276,0,0,1-3.429-4.19Zm2.582-8.124a4.294,4.294,0,0,0,.847-.084,4.275,4.275,0,0,1,0-8.381,4.275,4.275,0,1,0-.847,8.465Z" transform="translate(-40.684 -81.763)" fill="#6cf"/>
      <path id="Trazado_1239219" data-name="Trazado 1239219" d="M299.408,267.894a4.924,4.924,0,0,0-1.309-.472.957.957,0,0,1-.7-.618,10.012,10.012,0,0,0-.414-1,.974.974,0,0,1,.052-.951,5.184,5.184,0,0,0,.592-1.227.953.953,0,0,0-.237-.965l-2.008-2.008a.955.955,0,0,0-.951-.242,4.92,4.92,0,0,0-1.259.592.957.957,0,0,1-.936.06,10.016,10.016,0,0,0-1-.413.973.973,0,0,1-.635-.709,5.188,5.188,0,0,0-.449-1.286.954.954,0,0,0-.851-.515h-2.839a.956.956,0,0,0-.844.5,4.928,4.928,0,0,0-.472,1.309.957.957,0,0,1-.618.7,10,10,0,0,0-1,.414.974.974,0,0,1-.951-.052,5.185,5.185,0,0,0-1.227-.592.953.953,0,0,0-.965.237l-2.009,2.008a.955.955,0,0,0-.242.951,4.92,4.92,0,0,0,.593,1.259.957.957,0,0,1,.06.936,10,10,0,0,0-.413,1,.974.974,0,0,1-.709.635,5.185,5.185,0,0,0-1.286.449.954.954,0,0,0-.515.851v2.839a.956.956,0,0,0,.5.844,4.925,4.925,0,0,0,1.309.471.957.957,0,0,1,.7.618,10.019,10.019,0,0,0,.414,1,.973.973,0,0,1-.052.951,5.188,5.188,0,0,0-.592,1.227.953.953,0,0,0,.237.965l2.008,2.008a.955.955,0,0,0,.951.242,4.924,4.924,0,0,0,1.259-.593.957.957,0,0,1,.936-.06,10.023,10.023,0,0,0,1,.413.973.973,0,0,1,.635.709,5.185,5.185,0,0,0,.449,1.286.954.954,0,0,0,.851.515h2.839a.956.956,0,0,0,.844-.5,4.927,4.927,0,0,0,.472-1.309.957.957,0,0,1,.618-.7,10.037,10.037,0,0,0,1-.414.973.973,0,0,1,.951.052,5.192,5.192,0,0,0,1.227.592.953.953,0,0,0,.965-.237l2.008-2.008a.955.955,0,0,0,.242-.951,4.924,4.924,0,0,0-.593-1.259.957.957,0,0,1-.059-.936,10,10,0,0,0,.413-1,.974.974,0,0,1,.709-.634,5.186,5.186,0,0,0,1.286-.45.953.953,0,0,0,.515-.851v-2.839A.956.956,0,0,0,299.408,267.894Zm-11.519,8.23a5.96,5.96,0,1,1,5.96-5.96,5.96,5.96,0,0,1-5.96,5.96Z" transform="translate(-242.96 -224.466)" fill="#80eaff"/>
      <path id="Trazado_1239220" data-name="Trazado 1239220" d="M287.894,282.188h-1.413a.954.954,0,0,1-.851-.515,5.185,5.185,0,0,1-.449-1.286.973.973,0,0,0-.635-.709,10.023,10.023,0,0,1-1-.413.957.957,0,0,0-.936.06,4.926,4.926,0,0,1-1.259.593.955.955,0,0,1-.951-.242l-2.008-2.008a.953.953,0,0,1-.238-.965,5.188,5.188,0,0,1,.592-1.227.973.973,0,0,0,.052-.951,10.019,10.019,0,0,1-.414-1,.957.957,0,0,0-.7-.618,4.926,4.926,0,0,1-1.309-.471.956.956,0,0,1-.5-.844v-2.839a.954.954,0,0,1,.515-.851,5.184,5.184,0,0,1,1.286-.449.974.974,0,0,0,.709-.635,10,10,0,0,1,.413-1,.957.957,0,0,0-.06-.936,4.922,4.922,0,0,1-.593-1.259.955.955,0,0,1,.242-.951l2.008-2.008a.953.953,0,0,1,.965-.237,5.185,5.185,0,0,1,1.227.592.974.974,0,0,0,.951.052,10,10,0,0,1,1-.414.957.957,0,0,0,.618-.7,4.926,4.926,0,0,1,.472-1.309.956.956,0,0,1,.844-.5h1.427v6.062a5.96,5.96,0,1,0,0,11.919Z" transform="translate(-242.965 -224.468)" fill="#6cf"/>
      <path id="Trazado_1239221" data-name="Trazado 1239221" d="M298.524,198.716,288,224.123l-4.132,5.339.853-6.7,10.524-25.406Z" transform="translate(-250.107 -170.168)" fill="#ff5959"/>
      <path id="Trazado_1239222" data-name="Trazado 1239222" d="M296.9,198.044l-13.032,31.419.853-6.7,10.524-25.406Z" transform="translate(-250.108 -170.168)" fill="#e63a57"/>
      <path id="Trazado_1239223" data-name="Trazado 1239223" d="M288,436.751l-4.132,5.339.853-6.7Z" transform="translate(-250.11 -382.796)" fill="#ffd9b3"/>
      <path id="Trazado_1239224" data-name="Trazado 1239224" d="M286.367,436.073l-2.5,6.017.853-6.7Z" transform="translate(-250.11 -382.796)" fill="#fb9"/>
      <path id="Trazado_1239225" data-name="Trazado 1239225" d="M393.74,173.653l-3.279-1.358,1.24-2.995,3.279,1.358Z" transform="translate(-345.323 -145.105)" fill="#393939"/>
      <path id="Trazado_1239226" data-name="Trazado 1239226" d="M392.116,172.98l-1.655-.686,1.24-2.995,1.655.686Z" transform="translate(-345.323 -145.105)" fill="#343434"/>
      <path id="Trazado_1239227" data-name="Trazado 1239227" d="M17.763,16.329l-1.115,1.114a5.007,5.007,0,1,0,.87,1.244l1.3-1.3a.747.747,0,0,0-1.057-1.057ZM16.539,20.9a3.533,3.533,0,1,1-.948-2.4l-2.58,2.579-1.288-1.289a.747.747,0,1,0-1.057,1.057l1.817,1.817a.747.747,0,0,0,1.057,0l2.833-2.833a3.516,3.516,0,0,1,.166,1.07Zm1.223,7.826-1.115,1.114a5.007,5.007,0,1,0,.87,1.244l1.3-1.3a.747.747,0,0,0-1.057-1.057ZM16.539,33.3a3.533,3.533,0,1,1-.948-2.4l-2.58,2.58L11.724,32.19a.747.747,0,0,0-1.057,1.057l1.817,1.817a.747.747,0,0,0,1.057,0l2.833-2.833a3.516,3.516,0,0,1,.166,1.07Zm1.223,7.826L16.648,42.24a5.006,5.006,0,1,0,.87,1.244l1.3-1.3a.747.747,0,1,0-1.057-1.057ZM16.539,45.7a3.533,3.533,0,1,1-.948-2.4l-2.58,2.58-1.288-1.289a.747.747,0,1,0-1.057,1.057l1.817,1.817a.747.747,0,0,0,1.057,0l2.833-2.833a3.515,3.515,0,0,1,.166,1.07Zm4.547-28.257a.747.747,0,0,1,.747-.747H36.762a.747.747,0,1,1,0,1.494H21.833a.747.747,0,0,1-.747-.747Zm0,3.459a.747.747,0,0,1,.747-.747H36.762a.747.747,0,1,1,0,1.494H21.833a.747.747,0,0,1-.747-.747Zm0,3.459a.747.747,0,0,1,.747-.747H36.762a.747.747,0,1,1,0,1.494H21.833a.747.747,0,0,1-.747-.747Zm0,5.48a.747.747,0,0,1,.747-.747H36.762a.747.747,0,1,1,0,1.494H21.833a.747.747,0,0,1-.747-.747Zm0,3.459a.747.747,0,0,1,.747-.747H36.762a.747.747,0,1,1,0,1.494H21.833a.747.747,0,0,1-.747-.747Zm0,3.459a.747.747,0,0,1,.747-.747H33.481a.747.747,0,1,1,0,1.494H21.833a.747.747,0,0,1-.747-.747Zm9.569,5.48a.747.747,0,0,1-.747.747H21.833a.747.747,0,1,1,0-1.494h8.074a.747.747,0,0,1,.747.748Zm0,3.459a.747.747,0,0,1-.747.747H21.833a.747.747,0,1,1,0-1.494h8.074a.747.747,0,0,1,.747.748Zm0,3.459a.747.747,0,0,1-.747.747H21.833a.747.747,0,1,1,0-1.494h8.074a.747.747,0,0,1,.747.748ZM56.8,42.769a5.7,5.7,0,0,0-1.507-.543.209.209,0,0,1-.153-.136,10.8,10.8,0,0,0-.445-1.071A.228.228,0,0,1,54.7,40.8a5.966,5.966,0,0,0,.676-1.4,1.692,1.692,0,0,0-.42-1.724l-2.008-2.008a1.7,1.7,0,0,0-1.7-.428,5.7,5.7,0,0,0-1.45.681.209.209,0,0,1-.205.012,10.845,10.845,0,0,0-1.072-.444.227.227,0,0,1-.152-.159,5.961,5.961,0,0,0-.515-1.47,1.682,1.682,0,0,0-.566-.635L48.749,29.7H50.3a2.639,2.639,0,0,0,2.636-2.636v-14.9a5.48,5.48,0,0,0-1.324-3.7,5.086,5.086,0,0,0-3.906-1.6H9.112a5.241,5.241,0,0,0-5.235,5.235V54.97a3.492,3.492,0,0,0,3.488,3.488H33.115l-.095.742a.747.747,0,0,0,1.332.552l1-1.294h5.128a3.5,3.5,0,0,0,1.808-.507,1.7,1.7,0,0,0,1.226.517h2.839a1.7,1.7,0,0,0,1.5-.9,5.7,5.7,0,0,0,.543-1.507.211.211,0,0,1,.137-.153,10.8,10.8,0,0,0,1.071-.445.228.228,0,0,1,.221.005,5.963,5.963,0,0,0,1.4.676,1.692,1.692,0,0,0,1.724-.42l2.008-2.008a1.7,1.7,0,0,0,.428-1.7,5.7,5.7,0,0,0-.681-1.45.209.209,0,0,1-.012-.206,10.82,10.82,0,0,0,.443-1.072.227.227,0,0,1,.16-.152,5.962,5.962,0,0,0,1.47-.515,1.692,1.692,0,0,0,.922-1.516V44.272a1.7,1.7,0,0,0-.9-1.5Zm-16,6.114,1.672-4.036V50.3A5.211,5.211,0,0,1,40.8,48.883Zm3.166-7.644.294-.71a5.29,5.29,0,0,1,.665-.043,5.212,5.212,0,1,1-.959,10.336Zm-6.48,11.74-1.9-.787L46.783,25.171l1.9.787ZM36.4,40.011a4.2,4.2,0,0,1-.5-1.069.207.207,0,0,1,.055-.206l2.008-2.008a.207.207,0,0,1,.207-.055,4.469,4.469,0,0,1,1.051.508,1.7,1.7,0,0,0,.866.269L35.662,48.116a1.7,1.7,0,0,0-.788-.406,4.2,4.2,0,0,1-1.112-.4.21.21,0,0,1-.107-.185V44.286a.207.207,0,0,1,.107-.185,4.475,4.475,0,0,1,1.1-.384A1.729,1.729,0,0,0,36.122,42.6a9.321,9.321,0,0,1,.382-.923,1.715,1.715,0,0,0-.107-1.665Zm-1.164,13.65,1.473.61-1.855,2.4ZM47.711,8.351a3.548,3.548,0,0,1,3.736,3.809v14.9A1.143,1.143,0,0,1,50.3,28.206h-.937l.98-2.367a.747.747,0,0,0-.4-.976l-3.279-1.358a.747.747,0,0,0-.976.4l-1.718,4.15V12.092a3.745,3.745,0,0,1,3.741-3.741ZM7.364,56.963A2,2,0,0,1,5.37,54.969V12.092A3.745,3.745,0,0,1,9.111,8.351h34.94a5.22,5.22,0,0,0-1.576,3.741V31.667l-1.663,4.015c-.191.078-.379.162-.564.251a.228.228,0,0,1-.221-.005,5.957,5.957,0,0,0-1.4-.676,1.691,1.691,0,0,0-1.724.42l-2.008,2.008a1.7,1.7,0,0,0-.428,1.7,5.7,5.7,0,0,0,.681,1.45.209.209,0,0,1,.012.206,10.792,10.792,0,0,0-.443,1.072.227.227,0,0,1-.16.152,5.964,5.964,0,0,0-1.47.515,1.692,1.692,0,0,0-.922,1.516v2.839a1.7,1.7,0,0,0,.9,1.5,5.7,5.7,0,0,0,1.507.544.211.211,0,0,1,.153.136q.1.283.217.563l-1.009,2.44a.75.75,0,0,0-.051.191l-.568,4.461Zm29.147,0L37.254,56a1.693,1.693,0,0,0,1.352.162,5.694,5.694,0,0,0,1.45-.681.209.209,0,0,1,.206-.012,10.771,10.771,0,0,0,1.072.443.227.227,0,0,1,.152.16c.039.181.087.356.14.529a1.972,1.972,0,0,1-1.143.359ZM56.2,47.111a.207.207,0,0,1-.107.185,4.468,4.468,0,0,1-1.1.384A1.73,1.73,0,0,0,53.735,48.8a9.319,9.319,0,0,1-.382.923,1.715,1.715,0,0,0,.107,1.665,4.2,4.2,0,0,1,.5,1.069.207.207,0,0,1-.055.206L51.9,54.669a.207.207,0,0,1-.207.055,4.473,4.473,0,0,1-1.051-.508,1.73,1.73,0,0,0-1.681-.1,9.307,9.307,0,0,1-.922.383,1.714,1.714,0,0,0-1.1,1.253,4.2,4.2,0,0,1-.4,1.112.211.211,0,0,1-.185.107H43.515a.207.207,0,0,1-.185-.107,4.474,4.474,0,0,1-.384-1.1A1.73,1.73,0,0,0,41.829,54.5a9.274,9.274,0,0,1-.923-.382,1.715,1.715,0,0,0-1.666.107,4.233,4.233,0,0,1-.982.474l.226-.292a.751.751,0,0,0,.1-.171l1.582-3.82a6.707,6.707,0,1,0,4.763-11.428H44.9l1.743-4.209a4.593,4.593,0,0,1,.267.851,1.729,1.729,0,0,0,1.117,1.258,9.336,9.336,0,0,1,.923.382,1.715,1.715,0,0,0,1.665-.107,4.206,4.206,0,0,1,1.069-.5.208.208,0,0,1,.206.055L53.9,38.727a.207.207,0,0,1,.055.207,4.471,4.471,0,0,1-.508,1.051,1.73,1.73,0,0,0-.1,1.681,9.291,9.291,0,0,1,.383.922,1.715,1.715,0,0,0,1.253,1.1,4.208,4.208,0,0,1,1.112.4.21.21,0,0,1,.107.185Z"/>
    </g>
  </g>
</svg>
