<svg xmlns="http://www.w3.org/2000/svg" xmlns:xlink="http://www.w3.org/1999/xlink" width="108" height="108" viewBox="0 0 108 108">
  <defs>
    <filter id="Trazado_904820" x="0" y="0" width="108" height="108" filterUnits="userSpaceOnUse">
      <feOffset dy="3" input="SourceAlpha"/>
      <feGaussianBlur stdDeviation="3" result="blur"/>
      <feFlood flood-opacity="0.161"/>
      <feComposite operator="in" in2="blur"/>
      <feComposite in="SourceGraphic"/>
    </filter>
  </defs>
  <g id="Grupo_1241793" data-name="Grupo 1241793" transform="translate(-618 -4653)">
    <g id="Grupo_1235116" data-name="Grupo 1235116" transform="translate(627 4659)">
      <g id="Grupo_1233829" data-name="Grupo 1233829" transform="translate(0 0)">
        <g id="Grupo_1228307" data-name="Grupo 1228307" transform="translate(0 0)">
          <g id="Grupo_1228100" data-name="Grupo 1228100">
            <g id="Grupo_1221597" data-name="Grupo 1221597">
              <g id="Grupo_1219744" data-name="Grupo 1219744">
                <g id="Grupo_1202418" data-name="Grupo 1202418">
                  <g id="Grupo_1177315" data-name="Grupo 1177315">
                    <g id="Grupo_1173585" data-name="Grupo 1173585">
                      <g id="Grupo_1173428" data-name="Grupo 1173428">
                        <g id="Grupo_1171958" data-name="Grupo 1171958">
                          <g id="Grupo_1167341" data-name="Grupo 1167341">
                            <g id="Grupo_1166792" data-name="Grupo 1166792">
                              <g transform="matrix(1, 0, 0, 1, -9, -6)" filter="url(#Trazado_904820)">
                                <g id="Trazado_904820-2" data-name="Trazado 904820" transform="translate(9 6)" fill="#f2f7e5">
                                  <path d="M 44.99999237060547 88.49993133544922 C 39.12686920166016 88.49993133544922 33.43022918701172 87.35000610351562 28.06829261779785 85.08209991455078 C 22.88853073120117 82.89124298095703 18.23630523681641 79.75453186035156 14.24085521697998 75.75907897949219 C 10.24540519714355 71.76364135742188 7.108692169189453 67.11141204833984 4.917829990386963 61.9316520690918 C 2.649929761886597 56.56972885131836 1.500004887580872 50.87307739257812 1.500004887580872 44.99996566772461 C 1.500004887580872 39.1268424987793 2.649929761886597 33.43020248413086 4.917829990386963 28.06827735900879 C 7.108692169189453 22.88850402832031 10.24540519714355 18.23628997802734 14.24085521697998 14.24084091186523 C 18.23630523681641 10.24540328979492 22.88853073120117 7.108690738677979 28.06829261779785 4.91782808303833 C 33.43022918701172 2.649928092956543 39.12686920166016 1.500003218650818 44.99999237060547 1.500003218650818 C 50.87311553955078 1.500003218650818 56.56976699829102 2.649928092956543 61.93169403076172 4.91782808303833 C 67.11146545410156 7.108690738677979 71.76369476318359 10.24540328979492 75.75914001464844 14.24084091186523 C 79.75457763671875 18.23628997802734 82.89130401611328 22.88850402832031 85.08216857910156 28.06827735900879 C 87.35006713867188 33.43020248413086 88.49999237060547 39.1268424987793 88.49999237060547 44.99996566772461 C 88.49999237060547 50.87307739257812 87.35006713867188 56.56972885131836 85.08216857910156 61.9316520690918 C 82.89130401611328 67.11141204833984 79.75457763671875 71.76364135742188 75.75914001464844 75.75907897949219 C 71.76369476318359 79.75453186035156 67.11146545410156 82.89124298095703 61.93169403076172 85.08209991455078 C 56.56976699829102 87.35000610351562 50.87311553955078 88.49993133544922 44.99999237060547 88.49993133544922 Z" stroke="none"/>
                                  <path d="M 44.99999237060547 2.999992370605469 C 39.32870483398438 2.999992370605469 33.82866287231445 4.110054016113281 28.65262222290039 6.299324035644531 C 23.65164947509766 8.414566040039062 19.15969085693359 11.44332122802734 15.30150604248047 15.30149078369141 C 11.44333648681641 19.15968322753906 8.414566040039062 23.65163421630859 6.299331665039062 28.65260696411133 C 4.11004638671875 33.82863616943359 2.999992370605469 39.32867813110352 2.999992370605469 44.99996566772461 C 2.999992370605469 50.67123794555664 4.11004638671875 56.17129516601562 6.299331665039062 61.34732055664062 C 8.414566040039062 66.34829711914062 11.44333648681641 70.84025573730469 15.30150604248047 74.69842529296875 C 19.15969085693359 78.55659484863281 23.65164947509766 81.58535003662109 28.65262222290039 83.70059204101562 C 33.82866287231445 85.88986206054688 39.32870483398438 86.99992370605469 44.99999237060547 86.99992370605469 C 50.67127990722656 86.99992370605469 56.17132186889648 85.88986206054688 61.34736633300781 83.70059204101562 C 66.34833526611328 81.58535003662109 70.84029388427734 78.55659484863281 74.69846343994141 74.69842529296875 C 78.55663299560547 70.84025573730469 81.58540344238281 66.34829711914062 83.70063781738281 61.34732055664062 C 85.88992309570312 56.17129516601562 86.99997711181641 50.67123794555664 86.99997711181641 44.99996566772461 C 86.99997711181641 39.32867813110352 85.88992309570312 33.82863616943359 83.70063781738281 28.65260696411133 C 81.58540344238281 23.65163421630859 78.55663299560547 19.15968322753906 74.69846343994141 15.30149078369141 C 70.84029388427734 11.44332122802734 66.34833526611328 8.414566040039062 61.34736633300781 6.299324035644531 C 56.17132186889648 4.110054016113281 50.67127990722656 2.999992370605469 44.99999237060547 2.999992370605469 M 44.99999237060547 -7.62939453125e-06 C 69.85279083251953 -7.62939453125e-06 89.99997711181641 20.14716339111328 89.99997711181641 44.99996566772461 C 89.99997711181641 69.85275268554688 69.85279083251953 89.99992370605469 44.99999237060547 89.99992370605469 C 20.14719390869141 89.99992370605469 -7.62939453125e-06 69.85275268554688 -7.62939453125e-06 44.99996566772461 C -7.62939453125e-06 20.14716339111328 20.14719390869141 -7.62939453125e-06 44.99999237060547 -7.62939453125e-06 Z" stroke="none" fill="#496406"/>
                                </g>
                              </g>
                            </g>
                          </g>
                        </g>
                      </g>
                    </g>
                  </g>
                </g>
              </g>
            </g>
          </g>
        </g>
      </g>
    </g>
    <g id="proceso-de-trabajo_3_" data-name="proceso-de-trabajo (3)" transform="translate(637 4670)">
      <g id="Grupo_1241791" data-name="Grupo 1241791" transform="translate(1.08 1.08)">
        <path id="Trazado_1239228" data-name="Trazado 1239228" d="M60.718,10.769h0a30.729,30.729,0,0,0-30.57,27.625l8.112-.38A22.768,22.768,0,0,1,60.718,18.771l-.036.013v3.106l7.842-6.336L60.682,8v2.781" transform="translate(-27.157 -8)" fill="#ffe27a"/>
        <path id="Trazado_1239229" data-name="Trazado 1239229" d="M110.86,75.3l5.907-4.772A22.737,22.737,0,0,0,88.161,91.436l.277-.013A22.768,22.768,0,0,1,110.9,72.179l-.036.013Z" transform="translate(-77.335 -61.409)" fill="#f9cf58"/>
        <path id="Trazado_1239230" data-name="Trazado 1239230" d="M173.308,156.806l-2.569-.386a11.989,11.989,0,0,0-1.89-4.56l1.544-2.091a.919.919,0,0,0-.089-1.2l-1.33-1.33a.919.919,0,0,0-1.2-.089l-2.091,1.544a11.989,11.989,0,0,0-4.56-1.89l-.386-2.569a.919.919,0,0,0-.909-.783h-1.881a.919.919,0,0,0-.909.783l-.386,2.569a11.988,11.988,0,0,0-4.56,1.89l-2.091-1.544a.919.919,0,0,0-1.2.089l-1.33,1.33a.919.919,0,0,0-.089,1.2l1.544,2.091a11.988,11.988,0,0,0-1.89,4.56l-2.569.386a.919.919,0,0,0-.783.909V159.6a.919.919,0,0,0,.783.909l2.569.386a11.989,11.989,0,0,0,1.89,4.56l-1.544,2.091a.919.919,0,0,0,.089,1.2l1.33,1.33a.919.919,0,0,0,1.2.089l2.091-1.544a11.989,11.989,0,0,0,4.56,1.89l.386,2.569a.919.919,0,0,0,.909.783h1.881a.919.919,0,0,0,.909-.783l.386-2.569a11.988,11.988,0,0,0,4.56-1.89l2.091,1.544a.919.919,0,0,0,1.2-.089l1.33-1.33a.919.919,0,0,0,.089-1.2l-1.544-2.091a11.989,11.989,0,0,0,1.89-4.56l2.569-.386a.919.919,0,0,0,.783-.909v-1.881A.919.919,0,0,0,173.308,156.806Zm-14.417,7.934a6.084,6.084,0,1,1,6.084-6.084A6.084,6.084,0,0,1,158.891,164.74Z" transform="translate(-125.366 -125.162)" fill="#ff4755"/>
        <path id="Trazado_1239231" data-name="Trazado 1239231" d="M10.8,205.542c0,.01,0,.021,0,.031a30.729,30.729,0,0,0,27.627,30.57l-.476-8.128A22.729,22.729,0,0,1,18.8,205.574c0-.01,0-.021,0-.031h3.087L15.553,197.7,8,205.542h2.781" transform="translate(-8 -172.08)" fill="#8bcaff"/>
        <path id="Trazado_1239232" data-name="Trazado 1239232" d="M205.542,298.116h.063a22.729,22.729,0,0,0,22.442-19.143l8.135-.553a30.728,30.728,0,0,1-30.577,27.7h-.063v2.77l-7.842-7.553L205.542,295V298.1Z" transform="translate(-172.08 -241.899)" fill="#98db7c"/>
        <path id="Trazado_1239233" data-name="Trazado 1239233" d="M223.353,266.216a6.109,6.109,0,0,0-.122-1.216,6.085,6.085,0,0,1-11.924,0,6.084,6.084,0,1,0,12.046,1.216Z" transform="translate(-183.743 -230.29)" fill="#fc2b3a"/>
        <path id="Trazado_1239234" data-name="Trazado 1239234" d="M217.23,303.688a30.865,30.865,0,0,1-6.09-.6l6.027,5.8v-2.77h.063a30.728,30.728,0,0,0,30.577-27.7l-.418.434A30.734,30.734,0,0,1,217.23,303.688Z" transform="translate(-183.705 -241.9)" fill="#82d361"/>
        <path id="Trazado_1239235" data-name="Trazado 1239235" d="M53.368,283.489a30.741,30.741,0,0,1-24.541-27.721h-.094c0,.01,0,.021,0,.031A30.729,30.729,0,0,0,56.36,286.37Z" transform="translate(-25.933 -222.305)" fill="#6cc4ff"/>
        <path id="Trazado_1239236" data-name="Trazado 1239236" d="M306.359,60.21c0-.01,0-.021,0-.031a30.728,30.728,0,0,0-27.7-30.577l4.813,4.635-4.32,3.49a22.729,22.729,0,0,1,19.2,22.451c0,.01,0,.021,0,.031h-3.149l6.336,7.842L309.1,60.21Z" transform="translate(-242.109 -26.685)" fill="#ffba57"/>
        <g id="Grupo_1241790" data-name="Grupo 1241790" transform="translate(37.048 9.116)">
          <path id="Trazado_1239237" data-name="Trazado 1239237" d="M284.7,75.5l-2.384,1.926a22.73,22.73,0,0,1,19.168,21.242q.032-.607.033-1.221A22.732,22.732,0,0,0,284.7,75.5Z" transform="translate(-282.316 -75.501)" fill="#ffac3e"/>
        </g>
      </g>
      <g id="Grupo_1241792" data-name="Grupo 1241792" transform="translate(0 0)">
        <path id="Trazado_1239238" data-name="Trazado 1239238" d="M210.682,203.347A7.115,7.115,0,0,0,204,212.9a1.015,1.015,0,1,0,1.906-.7,5.081,5.081,0,1,1,2.156,2.61,1.015,1.015,0,0,0-1.048,1.739,7.111,7.111,0,1,0,3.666-13.206Z" transform="translate(-176.077 -175.884)"/>
        <path id="Trazado_1239239" data-name="Trazado 1239239" d="M166.784,149.1l-1.882-.283a12.929,12.929,0,0,0-1.5-3.63l1.131-1.532a1.925,1.925,0,0,0-.188-2.519l-1.333-1.333a1.925,1.925,0,0,0-2.519-.188l-1.532,1.131a12.923,12.923,0,0,0-3.63-1.5l-.283-1.882a1.925,1.925,0,0,0-1.915-1.648h-1.885a1.925,1.925,0,0,0-1.915,1.648l-.283,1.882a12.925,12.925,0,0,0-3.63,1.5l-1.532-1.131a1.925,1.925,0,0,0-2.519.188l-1.332,1.333a1.924,1.924,0,0,0-.188,2.52l1.131,1.531a12.915,12.915,0,0,0-1.5,3.63l-1.882.283a1.924,1.924,0,0,0-1.648,1.915V152.9a1.924,1.924,0,0,0,1.648,1.915l1.882.283a12.925,12.925,0,0,0,1.5,3.63l-1.131,1.531a1.924,1.924,0,0,0,.188,2.52l1.333,1.333a1.925,1.925,0,0,0,2.519.188l1.531-1.131a12.922,12.922,0,0,0,3.63,1.5l.283,1.882a1.925,1.925,0,0,0,1.915,1.648h1.884a1.925,1.925,0,0,0,1.915-1.648l.283-1.882a12.923,12.923,0,0,0,3.63-1.5l1.532,1.131a1.925,1.925,0,0,0,2.519-.188l1.333-1.333a1.925,1.925,0,0,0,.188-2.52l-1.131-1.531a12.92,12.92,0,0,0,1.5-3.63l1.882-.283a1.924,1.924,0,0,0,1.648-1.915v-1.885a1.924,1.924,0,0,0-1.648-1.915Zm-.382,3.719-2.495.375a1.015,1.015,0,0,0-.847.817,10.943,10.943,0,0,1-1.734,4.184,1.015,1.015,0,0,0,.022,1.176l1.5,2.03-1.219,1.218-2.03-1.5a1.016,1.016,0,0,0-1.176-.021,10.942,10.942,0,0,1-4.183,1.734,1.015,1.015,0,0,0-.817.847l-.375,2.495h-1.723l-.375-2.495a1.015,1.015,0,0,0-.817-.847,10.943,10.943,0,0,1-4.183-1.734,1.014,1.014,0,0,0-1.176.022l-2.03,1.5-1.219-1.218,1.5-2.03a1.015,1.015,0,0,0,.021-1.176,10.941,10.941,0,0,1-1.734-4.183,1.015,1.015,0,0,0-.847-.817l-2.495-.375V151.1l2.495-.375a1.015,1.015,0,0,0,.847-.817,10.942,10.942,0,0,1,1.734-4.183,1.014,1.014,0,0,0-.021-1.176l-1.5-2.03,1.219-1.218,2.03,1.5a1.015,1.015,0,0,0,1.176.022,10.945,10.945,0,0,1,4.183-1.734,1.015,1.015,0,0,0,.817-.847l.375-2.495h1.723l.375,2.495a1.015,1.015,0,0,0,.817.847,10.94,10.94,0,0,1,4.183,1.734,1.015,1.015,0,0,0,1.176-.021l2.03-1.5,1.219,1.218-1.5,2.03a1.015,1.015,0,0,0-.022,1.176,10.942,10.942,0,0,1,1.734,4.184,1.015,1.015,0,0,0,.847.817l2.495.375Z" transform="translate(-117.583 -117.384)"/>
        <path id="Trazado_1239240" data-name="Trazado 1239240" d="M69.068,34.208a1.015,1.015,0,0,0-.934-.618H66.391a31.8,31.8,0,0,0-28.3-30.626L35.308.281a1.022,1.022,0,0,0-1.719.731V2.788A31.576,31.576,0,0,0,16.3,8.566a1.015,1.015,0,0,0,1.17,1.659A29.578,29.578,0,0,1,34.6,4.8,1.015,1.015,0,0,0,35.62,3.787V3.4L40.93,8.514,35.619,12.8v-1A1.015,1.015,0,0,0,34.6,10.79a23.791,23.791,0,0,0-23.06,17.949L9.369,26.047a1.021,1.021,0,0,0-1.521-.066L5.465,28.456a29.735,29.735,0,0,1,8.951-15.763A1.015,1.015,0,1,0,13.039,11.2,31.738,31.738,0,0,0,3,31.013L.281,33.839a1.022,1.022,0,0,0,.731,1.719H2.818A31.8,31.8,0,0,0,31.044,66.177l2.794,2.69a1.021,1.021,0,0,0,1.719-.731V66.363A31.557,31.557,0,0,0,53.125,60.43a1.015,1.015,0,0,0-1.184-1.649,29.566,29.566,0,0,1-17.349,5.566h-.051a1.015,1.015,0,0,0-1.015,1.015v.389l-5.311-5.115,5.311-4.291v1a1.015,1.015,0,0,0,1.008,1.015H34.6A23.791,23.791,0,0,0,57.649,40.468L59.777,43.1a1.021,1.021,0,0,0,1.521.066l2.462-2.557a29.752,29.752,0,0,1-8.782,15.672,1.015,1.015,0,0,0,1.389,1.48,31.757,31.757,0,0,0,9.846-19.7l2.652-2.754a1.014,1.014,0,0,0,.2-1.1ZM26.046,59.779A1.021,1.021,0,0,0,25.98,61.3l2.508,2.416A29.781,29.781,0,0,1,4.833,34.578v-.035a1.015,1.015,0,0,0-1.015-1.015H3.4l5.114-5.311L12.8,33.528h-.968a1.012,1.012,0,0,0-1.015,1.011v.035a23.792,23.792,0,0,0,17.9,23.047ZM48.8,51.061a21.743,21.743,0,0,1-13.241,5.247V54.219a1.022,1.022,0,0,0-1.653-.79l-3.163,2.556A21.761,21.761,0,0,1,12.873,35.558h2.056a1.022,1.022,0,0,0,.79-1.653l-2.535-3.138A21.76,21.76,0,0,1,33.589,12.843v2.086a1.022,1.022,0,0,0,1.653.79l3.175-2.565A21.761,21.761,0,0,1,56.336,33.591H54.217a1.022,1.022,0,0,0-.79,1.653l2.586,3.2A21.765,21.765,0,0,1,48.8,51.061ZM60.633,40.932l-4.291-5.311h1.031a1.012,1.012,0,0,0,1.015-1.011v-.035A23.792,23.792,0,0,0,40.446,11.515L43.1,9.37a1.021,1.021,0,0,0,.066-1.521L40.642,5.418A29.78,29.78,0,0,1,64.376,34.571v.035a1.015,1.015,0,0,0,1.015,1.015h.357Z" transform="translate(0 0)"/>
      </g>
    </g>
  </g>
</svg>
