<svg xmlns="http://www.w3.org/2000/svg" xmlns:xlink="http://www.w3.org/1999/xlink" width="113" height="113" viewBox="0 0 113 113">
  <defs>
    <filter id="Trazado_982547" x="0" y="0" width="113" height="113" filterUnits="userSpaceOnUse">
      <feOffset dy="3" input="SourceAlpha"/>
      <feGaussianBlur stdDeviation="3" result="blur"/>
      <feFlood flood-opacity="0.161"/>
      <feComposite operator="in" in2="blur"/>
      <feComposite in="SourceGraphic"/>
    </filter>
  </defs>
  <g id="Grupo_1241844" data-name="Grupo 1241844" transform="translate(-271 -4891.964)">
    <g id="Grupo_1241013" data-name="Grupo 1241013" transform="translate(-84.344 -7791.204)">
      <g id="Grupo_1240425" data-name="Grupo 1240425" transform="translate(364.344 12689.168)">
        <g id="Grupo_1239772" data-name="Grupo 1239772" transform="translate(0 0)">
          <g id="Grupo_1236602" data-name="Grupo 1236602">
            <g id="Grupo_1236144" data-name="Grupo 1236144">
              <g id="Grupo_1235105" data-name="Grupo 1235105">
                <g id="Grupo_1223793" data-name="Grupo 1223793">
                  <g id="Grupo_1208028" data-name="Grupo 1208028">
                    <g id="Grupo_1177675" data-name="Grupo 1177675">
                      <g id="Grupo_1176928" data-name="Grupo 1176928" transform="translate(0)">
                        <g id="Grupo_1172322" data-name="Grupo 1172322">
                          <g id="Grupo_1164700" data-name="Grupo 1164700">
                            <g id="Grupo_1160931" data-name="Grupo 1160931">
                              <g id="Grupo_1160749" data-name="Grupo 1160749">
                                <g id="Grupo_1158891" data-name="Grupo 1158891">
                                  <g id="Grupo_1157406" data-name="Grupo 1157406">
                                    <g id="Grupo_1155793" data-name="Grupo 1155793">
                                      <g id="Grupo_1154704" data-name="Grupo 1154704">
                                        <g id="Grupo_1150790" data-name="Grupo 1150790">
                                          <g id="Grupo_1154214" data-name="Grupo 1154214" transform="translate(0)">
                                            <g id="Grupo_1152583" data-name="Grupo 1152583">
                                              <g id="Grupo_1146973" data-name="Grupo 1146973">
                                                <g id="Grupo_1146954" data-name="Grupo 1146954">
                                                  <g transform="matrix(1, 0, 0, 1, -9, -6)" filter="url(#Trazado_982547)">
                                                    <g id="Trazado_982547-2" data-name="Trazado 982547" transform="translate(9 6)" fill="#d6f5fb">
                                                      <path d="M 47.50000762939453 93.49986267089844 C 41.28937911987305 93.49986267089844 35.26534271240234 92.28383636474609 29.59519386291504 89.88558197021484 C 24.11772727966309 87.56880950927734 19.19814109802246 84.25183868408203 14.97310066223145 80.02679443359375 C 10.74804782867432 75.8017578125 7.431074142456055 70.88218688964844 5.114300727844238 65.40471649169922 C 2.716034412384033 59.73458480834961 1.500007629394531 53.71054458618164 1.500007629394531 47.49993133544922 C 1.500007629394531 41.2893180847168 2.716034412384033 35.26527786254883 5.114300727844238 29.59514427185059 C 7.431074142456055 24.11767768859863 10.74804782867432 19.19810485839844 14.97310066223145 14.97306442260742 C 19.19814109802246 10.74802494049072 24.11772727966309 7.431051254272461 29.59519386291504 5.114277839660645 C 35.26534271240234 2.71602463722229 41.28937911987305 1.499997973442078 47.50000762939453 1.499997973442078 C 53.71063613891602 1.499997973442078 59.73467254638672 2.71602463722229 65.40482330322266 5.114277839660645 C 70.88228607177734 7.431051254272461 75.80187225341797 10.74802494049072 80.02691650390625 14.97306442260742 C 84.25196838378906 19.19810485839844 87.56893920898438 24.11767768859863 89.88571166992188 29.59514427185059 C 92.28398132324219 35.26527786254883 93.50000762939453 41.2893180847168 93.50000762939453 47.49993133544922 C 93.50000762939453 53.71054458618164 92.28398132324219 59.73458480834961 89.88571166992188 65.40471649169922 C 87.56893920898438 70.88218688964844 84.25196838378906 75.8017578125 80.02691650390625 80.02679443359375 C 75.80187225341797 84.25183868408203 70.88228607177734 87.56880950927734 65.40482330322266 89.88558197021484 C 59.73467254638672 92.28383636474609 53.71063613891602 93.49986267089844 47.50000762939453 93.49986267089844 Z" stroke="none"/>
                                                      <path d="M 47.50000762939453 2.999992370605469 C 41.4912223815918 2.999992370605469 35.66377639770508 4.1761474609375 30.17951202392578 6.495796203613281 C 24.88085174560547 8.736930847167969 20.12152862548828 11.94596099853516 16.03376007080078 16.03372955322266 C 11.94597625732422 20.12148284912109 8.736961364746094 24.88080596923828 6.495803833007812 30.17946624755859 C 4.176162719726562 35.66371536254883 3.000007629394531 41.49116134643555 3.000007629394531 47.49993133544922 C 3.000007629394531 53.50870132446289 4.176162719726562 59.33614730834961 6.495803833007812 64.82038879394531 C 8.736961364746094 70.11905670166016 11.94597625732422 74.87836456298828 16.03376007080078 78.96613311767578 C 20.12152862548828 83.05390167236328 24.88085174560547 86.26291656494141 30.17951202392578 88.50406646728516 C 35.66377639770508 90.82369995117188 41.4912223815918 91.99985504150391 47.50000762939453 91.99985504150391 C 53.50879287719727 91.99985504150391 59.33623886108398 90.82369995117188 64.82049560546875 88.50406646728516 C 70.11916351318359 86.26291656494141 74.87848663330078 83.05390167236328 78.96625518798828 78.96613311767578 C 83.05403900146484 74.87836456298828 86.26305389404297 70.11905670166016 88.50421142578125 64.82038879394531 C 90.8238525390625 59.33614730834961 92.00000762939453 53.50870132446289 92.00000762939453 47.49993133544922 C 92.00000762939453 41.49116134643555 90.8238525390625 35.66371536254883 88.50421142578125 30.17946624755859 C 86.26305389404297 24.88080596923828 83.05403900146484 20.12148284912109 78.96625518798828 16.03372955322266 C 74.87848663330078 11.94596099853516 70.11916351318359 8.736930847167969 64.82049560546875 6.495796203613281 C 59.33623886108398 4.1761474609375 53.50879287719727 2.999992370605469 47.50000762939453 2.999992370605469 M 47.50000762939453 -7.62939453125e-06 C 73.73352813720703 -7.62939453125e-06 95.00000762939453 21.26644134521484 95.00000762939453 47.49993133544922 C 95.00000762939453 73.73342132568359 73.73352813720703 94.99985504150391 47.50000762939453 94.99985504150391 C 21.26648712158203 94.99985504150391 7.62939453125e-06 73.73342132568359 7.62939453125e-06 47.49993133544922 C 7.62939453125e-06 21.26644134521484 21.26648712158203 -7.62939453125e-06 47.50000762939453 -7.62939453125e-06 Z" stroke="none" fill="#1d7083"/>
                                                    </g>
                                                  </g>
                                                </g>
                                              </g>
                                            </g>
                                          </g>
                                        </g>
                                      </g>
                                    </g>
                                  </g>
                                </g>
                              </g>
                            </g>
                          </g>
                        </g>
                      </g>
                    </g>
                  </g>
                </g>
              </g>
            </g>
          </g>
        </g>
      </g>
    </g>
    <g id="cultura-en-el-lugar-de-trabajo" transform="translate(275.324 4908.149)">
      <g id="Grupo_1241842" data-name="Grupo 1241842" transform="translate(21.187 1.018)">
        <g id="Grupo_1241841" data-name="Grupo 1241841" transform="translate(0)">
          <path id="Trazado_1239306" data-name="Trazado 1239306" d="M125.234,92.586H111.254a1.357,1.357,0,0,0-1.357,1.357v7.466a.679.679,0,0,1-.679.679H105.9a1.357,1.357,0,0,0-1.357,1.357v28.637h5.694a4.554,4.554,0,0,1,2.864,1l.124.1.078-.138a5.629,5.629,0,0,1,4.885-2.847h7.045Z" transform="translate(-94.11 -81.038)" fill="#a79ba7"/>
          <path id="Trazado_1239307" data-name="Trazado 1239307" d="M231.382,92.586h3.477V130.2h-3.477Z" transform="translate(-203.734 -81.038)" fill="#918291"/>
          <path id="Trazado_1239308" data-name="Trazado 1239308" d="M262.909,56.657a5.629,5.629,0,0,1,4.885,2.847l.078.138.124-.1a4.554,4.554,0,0,1,2.864-1h6.188V31.952a1.357,1.357,0,0,0-1.357-1.357h-3.486a.679.679,0,0,1-.679-.679V8.857A1.357,1.357,0,0,0,270.17,7.5H257.357A1.357,1.357,0,0,0,256,8.857v47.8Z" transform="translate(-225.011 -7.5)" fill="#e2dee2"/>
          <g id="Grupo_1241833" data-name="Grupo 1241833" transform="translate(42.974 0)">
            <path id="Trazado_1239309" data-name="Trazado 1239309" d="M345.668,30.6h2.863a.679.679,0,0,1-.679-.679V8.857A1.357,1.357,0,0,0,346.5,7.5h-2.184V29.238A1.357,1.357,0,0,0,345.668,30.6Z" transform="translate(-344.311 -7.5)" fill="#cbc4cc"/>
            <g id="Grupo_1241832" data-name="Grupo 1241832" transform="translate(5.522 23.095)">
              <path id="Trazado_1239310" data-name="Trazado 1239310" d="M388.048,193.737c.166,0,.331.009.493.022v-14.73a1.357,1.357,0,0,0-1.357-1.357H385v16.916A5.846,5.846,0,0,1,388.048,193.737Z" transform="translate(-385 -177.672)" fill="#cbc4cc"/>
            </g>
          </g>
          <g id="Grupo_1241838" data-name="Grupo 1241838" transform="translate(0 39.16)">
            <g id="Grupo_1241835" data-name="Grupo 1241835" transform="translate(42.901)">
              <g id="Grupo_1241834" data-name="Grupo 1241834">
                <path id="Trazado_1239311" data-name="Trazado 1239311" d="M358.109,382.6H346.721a4.718,4.718,0,0,0-2.949,1.031,5.722,5.722,0,0,1,.748,2.834v9.676h16.136a2.193,2.193,0,0,0,2.193-2.193v-6.609A4.739,4.739,0,0,0,358.109,382.6Z" transform="translate(-343.772 -370.848)" fill="#fdb97e"/>
                <path id="Trazado_1239312" data-name="Trazado 1239312" d="M363.6,383v8.112a1.357,1.357,0,0,1-1.357,1.357H349.283v4.017h16.136a2.193,2.193,0,0,0,2.193-2.193v-6.609A4.74,4.74,0,0,0,363.6,383Z" transform="translate(-348.535 -371.199)" fill="#fea95c"/>
                <circle id="Elipse_12334" data-name="Elipse 12334" cx="5.874" cy="5.874" r="5.874" transform="translate(2.77)" fill="#bb5d4c"/>
              </g>
            </g>
            <g id="Grupo_1241837" data-name="Grupo 1241837">
              <g id="Grupo_1241836" data-name="Grupo 1241836">
                <path id="Trazado_1239313" data-name="Trazado 1239313" d="M46,386.461a5.722,5.722,0,0,1,.748-2.834A4.717,4.717,0,0,0,43.8,382.6H32.407a4.739,4.739,0,0,0-4.739,4.739v6.609a2.193,2.193,0,0,0,2.193,2.193H46Z" transform="translate(-27.668 -370.849)" fill="#86e8d0"/>
                <path id="Trazado_1239314" data-name="Trazado 1239314" d="M46,386.812a5.721,5.721,0,0,1,.748-2.835A4.716,4.716,0,0,0,44.52,383v8.112a1.357,1.357,0,0,1-1.357,1.357H27.668V394.3a2.193,2.193,0,0,0,2.193,2.193H46Z" transform="translate(-27.668 -371.2)" fill="#5de1c4"/>
                <circle id="Elipse_12335" data-name="Elipse 12335" cx="5.874" cy="5.874" r="5.874" transform="translate(4.56)" fill="#ffdfcf"/>
              </g>
            </g>
          </g>
          <g id="Grupo_1241839" data-name="Grupo 1241839" transform="translate(18.329 32.224)">
            <path id="Trazado_1239315" data-name="Trazado 1239315" d="M216.567,288.481a3.744,3.744,0,0,1-3.058-1.59.514.514,0,0,0-.841,0,3.744,3.744,0,0,1-3.058,1.59h-5.64l-.185.129v2.109a7.086,7.086,0,1,0,14.173,0V288.61l-.137-.129Z" transform="translate(-198.211 -281.008)" fill="#ffdfcf"/>
            <path id="Trazado_1239316" data-name="Trazado 1239316" d="M239.273,292.951H238.02a3.742,3.742,0,0,1-2.652-1.106v2.3a7.086,7.086,0,0,1-6.762,7.078,7.086,7.086,0,0,0,10.8-6.033V293.08Z" transform="translate(-219.664 -285.478)" fill="#ffcebf"/>
            <path id="Trazado_1239317" data-name="Trazado 1239317" d="M185.845,387.133H164.911a2.193,2.193,0,0,1-2.193-2.193V374.454a5.751,5.751,0,0,1,5.751-5.751h13.819a5.751,5.751,0,0,1,5.751,5.751V384.94A2.193,2.193,0,0,1,185.845,387.133Z" transform="translate(-162.718 -351.905)" fill="#b3dafe"/>
            <path id="Trazado_1239318" data-name="Trazado 1239318" d="M184,370.627v11.945a2.193,2.193,0,0,1-2.193,2.193H162.718V386.6a2.193,2.193,0,0,0,2.193,2.193h20.935a2.193,2.193,0,0,0,2.193-2.193V376.117A5.753,5.753,0,0,0,184,370.627Z" transform="translate(-162.718 -353.568)" fill="#8ac9fe"/>
            <path id="Trazado_1239319" data-name="Trazado 1239319" d="M237.533,373.532h2.452l.186-.164,1.3-4.664h-5.412l1.3,4.664Z" transform="translate(-226.109 -351.905)" fill="#d9b1ee"/>
            <path id="Trazado_1239320" data-name="Trazado 1239320" d="M239.207,416.838l-1.726-13.766h-2.809l-1.72,13.766Z" transform="translate(-223.419 -381.61)" fill="#cb97e7"/>
            <path id="Trazado_1239321" data-name="Trazado 1239321" d="M233.455,474.8l-.5,4.031h6.256L238.7,474.8Z" transform="translate(-223.419 -443.6)" fill="#bd80e1"/>
            <path id="Trazado_1239322" data-name="Trazado 1239322" d="M217.957,252.536h-1.39a3.861,3.861,0,0,1-3.164-1.644.385.385,0,0,0-.63,0,3.861,3.861,0,0,1-3.164,1.644h-5.825v-.9a6.7,6.7,0,0,1,6.7-6.7h.773a6.7,6.7,0,0,1,6.7,6.7v.9Z" transform="translate(-198.211 -244.934)" fill="#685e68"/>
            <path id="Trazado_1239323" data-name="Trazado 1239323" d="M255.98,244.934h-.45a6.693,6.693,0,0,1,3.108,5.655v.892a3.849,3.849,0,0,0,2.652,1.056h1.39v-.9A6.7,6.7,0,0,0,255.98,244.934Z" transform="translate(-242.934 -244.934)" fill="#554e56"/>
          </g>
          <g id="Grupo_1241840" data-name="Grupo 1241840" transform="translate(20.911 7.162)">
            <path id="Trazado_1239324" data-name="Trazado 1239324" d="M201.9,70.352a10.078,10.078,0,1,0-12.42,9.8,1.746,1.746,0,0,1,1.033.691l.888,1.269a.514.514,0,0,0,.842,0l.888-1.27a1.735,1.735,0,0,1,1.027-.688,10.079,10.079,0,0,0,7.741-9.8Z" transform="translate(-181.747 -60.275)" fill="#fedf30"/>
          </g>
          <path id="Trazado_1239325" data-name="Trazado 1239325" d="M215.617,64.3a10.073,10.073,0,0,1-10.129,16.915A10.057,10.057,0,0,0,210,83.633a1.746,1.746,0,0,1,1.033.691l.888,1.269a.514.514,0,0,0,.842,0l.888-1.27a1.735,1.735,0,0,1,1.027-.688,10.077,10.077,0,0,0,.937-19.333Z" transform="translate(-181.355 -56.592)" fill="#fed402"/>
          <path id="Trazado_1239326" data-name="Trazado 1239326" d="M382.352,296.226a5.872,5.872,0,0,1-4.026,10.148c-.18,0-.357-.009-.533-.025a5.873,5.873,0,1,0,4.559-10.123Z" transform="translate(-330.275 -257.041)" fill="#a44f3e"/>
          <path id="Trazado_1239327" data-name="Trazado 1239327" d="M79.437,296.226a5.872,5.872,0,0,1-4.026,10.148c-.18,0-.357-.009-.533-.025a5.873,5.873,0,1,0,4.559-10.123Z" transform="translate(-68.471 -257.041)" fill="#ffcebf"/>
        </g>
      </g>
      <g id="Grupo_1241843" data-name="Grupo 1241843" transform="translate(20.169 0)">
        <path id="Trazado_1239328" data-name="Trazado 1239328" d="M289.822,220.793h2.036v2.847h-2.036Z" transform="translate(-253.225 -190.828)"/>
        <path id="Trazado_1239329" data-name="Trazado 1239329" d="M324.287,220.793h2.036v2.847h-2.036Z" transform="translate(-283.013 -190.828)"/>
        <path id="Trazado_1239330" data-name="Trazado 1239330" d="M358.752,220.793h2.036v2.847h-2.036Z" transform="translate(-312.8 -190.828)"/>
        <path id="Trazado_1239331" data-name="Trazado 1239331" d="M324.287,261.123h2.036v2.848h-2.036Z" transform="translate(-283.013 -225.684)"/>
        <path id="Trazado_1239332" data-name="Trazado 1239332" d="M358.752,261.123h2.036v2.848h-2.036Z" transform="translate(-312.8 -225.684)"/>
        <path id="Trazado_1239333" data-name="Trazado 1239333" d="M324.287,46.312h2.036V49.16h-2.036Z" transform="translate(-283.013 -40.027)"/>
        <path id="Trazado_1239334" data-name="Trazado 1239334" d="M137.229,220.793h2.036v2.847h-2.036Z" transform="translate(-121.342 -190.828)"/>
        <path id="Trazado_1239335" data-name="Trazado 1239335" d="M171.694,220.793h2.036v2.847h-2.036Z" transform="translate(-151.129 -190.828)"/>
        <path id="Trazado_1239336" data-name="Trazado 1239336" d="M206.16,220.793H208.2v2.847H206.16Z" transform="translate(-180.918 -190.828)"/>
        <path id="Trazado_1239337" data-name="Trazado 1239337" d="M137.229,261.123h2.036v2.848h-2.036Z" transform="translate(-121.342 -225.684)"/>
        <path id="Trazado_1239338" data-name="Trazado 1239338" d="M171.694,261.123h2.036v2.848h-2.036Z" transform="translate(-151.129 -225.684)"/>
        <path id="Trazado_1239339" data-name="Trazado 1239339" d="M225.872,109.693a1.018,1.018,0,0,0,1.018-1.018v-.783a1.018,1.018,0,1,0-2.036,0v.783A1.018,1.018,0,0,0,225.872,109.693Z" transform="translate(-197.075 -92.37)"/>
        <path id="Trazado_1239340" data-name="Trazado 1239340" d="M273.164,109.693a1.018,1.018,0,0,0,1.018-1.018v-.783a1.018,1.018,0,1,0-2.036,0v.783A1.018,1.018,0,0,0,273.164,109.693Z" transform="translate(-237.948 -92.37)"/>
        <path id="Trazado_1239341" data-name="Trazado 1239341" d="M228.149,147.544a1.018,1.018,0,0,0,0,1.439,4.978,4.978,0,0,0,7.044,0,1.018,1.018,0,1,0-1.439-1.439,2.943,2.943,0,0,1-4.165,0A1.018,1.018,0,0,0,228.149,147.544Z" transform="translate(-199.665 -127.262)"/>
        <path id="Trazado_1239342" data-name="Trazado 1239342" d="M78.425,50.907h-.809a6.886,6.886,0,0,0-3.374-11.578V35.694a1.018,1.018,0,1,0-2.036,0v3.488a6.886,6.886,0,0,0-4.361,11.725h-.809a5.774,5.774,0,0,0-2.669.659,6.758,6.758,0,0,0-5.283-2.545H57.538a8.085,8.085,0,0,0,2.741-6.069V39.941a7.727,7.727,0,0,0-7.086-7.69V30.868a1.525,1.525,0,0,0,.237-.266l.888-1.27a.719.719,0,0,1,.428-.281,11.11,11.11,0,0,0,7.911-14.444h.821V11.759H61.443v.395a11.218,11.218,0,0,0-2.951-3.021H58.8V6.285H56.765V8.152a11,11,0,0,0-3.572-.943V2.375a.34.34,0,0,1,.339-.339H66.345a.34.34,0,0,1,.339.339v21.06a1.7,1.7,0,0,0,1.7,1.7h3.486a.34.34,0,0,1,.339.339v5.473a1.018,1.018,0,0,0,2.036,0V25.47A2.378,2.378,0,0,0,71.867,23.1H68.72V2.375A2.378,2.378,0,0,0,66.345,0H53.532a2.378,2.378,0,0,0-2.375,2.375V7.21a11.171,11.171,0,0,0-7.793,4.338H38.331a2.378,2.378,0,0,0-2.375,2.375v7.126H32.977A2.378,2.378,0,0,0,30.6,23.424V39.236a6.887,6.887,0,0,0-3.867,11.671h-.809a5.764,5.764,0,0,0-5.757,5.757v6.609a3.214,3.214,0,0,0,3.211,3.21H25.3a1.018,1.018,0,0,0,0-2.036H23.379A1.176,1.176,0,0,1,22.2,63.273V56.664a3.725,3.725,0,0,1,3.721-3.721H37.314a3.679,3.679,0,0,1,1.648.387,6.73,6.73,0,0,0-.465,2.46v8.658H30.053a1.018,1.018,0,0,0,0,2.036H38.5a3.214,3.214,0,0,0,3.2,3H62.643a3.214,3.214,0,0,0,3.2-3H80.972a3.214,3.214,0,0,0,3.21-3.21V56.664a5.764,5.764,0,0,0-5.757-5.757ZM58.244,42.953a6.069,6.069,0,1,1-12.137,0V41.861h4.807A4.892,4.892,0,0,0,54.393,40.4a4.891,4.891,0,0,0,3.479,1.457h.372Zm-4.7,8.1L52.8,53.686H51.541l-.732-2.629Zm4.7-11.232h-.369a2.853,2.853,0,0,1-2.331-1.212,1.4,1.4,0,0,0-2.3,0,2.854,2.854,0,0,1-2.331,1.212h-4.8a5.688,5.688,0,0,1,5.679-5.566h.773a5.688,5.688,0,0,1,5.679,5.566ZM31.62,50.907a4.856,4.856,0,1,1,4.856-4.856,4.861,4.861,0,0,1-4.856,4.856Zm8.363.659a5.774,5.774,0,0,0-2.669-.659H36.5a6.887,6.887,0,0,0-3.867-11.671V23.424a.34.34,0,0,1,.339-.339h3.318a1.7,1.7,0,0,0,1.7-1.7V13.923a.34.34,0,0,1,.339-.339h3.792a10.883,10.883,0,0,0-.856,2.653,1.018,1.018,0,0,0,2,.371,9.128,9.128,0,0,1,8.477-7.4A9.06,9.06,0,0,1,54.277,27.07a2.751,2.751,0,0,0-1.626,1.1l-.475.68-.475-.679a2.765,2.765,0,0,0-1.632-1.1A9.08,9.08,0,0,1,43.5,20.878a1.018,1.018,0,0,0-1.949.588A11.122,11.122,0,0,0,49.6,29.049a.732.732,0,0,1,.435.284l.888,1.27a1.523,1.523,0,0,0,.237.265v1.384a7.727,7.727,0,0,0-7.086,7.69v3.011a8.085,8.085,0,0,0,2.741,6.069H45.266a6.757,6.757,0,0,0-5.283,2.545Zm8.166,15.885H41.708a1.176,1.176,0,0,1-1.175-1.175V55.79a4.738,4.738,0,0,1,4.733-4.733H48.7l1.036,3.723Zm2.052,0,1.466-11.73h1.013l1.471,11.73Zm13.617-1.175a1.176,1.176,0,0,1-1.175,1.175H56.2L54.612,54.781l1.041-3.723h3.431a4.738,4.738,0,0,1,4.733,4.733ZM72.731,41.2a4.856,4.856,0,1,1-4.856,4.856A4.861,4.861,0,0,1,72.731,41.2Zm9.415,22.077a1.176,1.176,0,0,1-1.175,1.175H65.853V55.79a6.732,6.732,0,0,0-.465-2.46,3.679,3.679,0,0,1,1.648-.387H78.425a3.725,3.725,0,0,1,3.721,3.721Z" transform="translate(-20.169 0)"/>
      </g>
    </g>
  </g>
</svg>
