<svg xmlns="http://www.w3.org/2000/svg" xmlns:xlink="http://www.w3.org/1999/xlink" width="113" height="113" viewBox="0 0 113 113">
  <defs>
    <filter id="Trazado_982547" x="0" y="0" width="113" height="113" filterUnits="userSpaceOnUse">
      <feOffset dy="3" input="SourceAlpha"/>
      <feGaussianBlur stdDeviation="3" result="blur"/>
      <feFlood flood-opacity="0.161"/>
      <feComposite operator="in" in2="blur"/>
      <feComposite in="SourceGraphic"/>
    </filter>
  </defs>
  <g id="Grupo_1241918" data-name="Grupo 1241918" transform="translate(-1216.438 -4891.963)">
    <g id="Grupo_1241019" data-name="Grupo 1241019" transform="translate(545.948 -7791.204)">
      <g id="Grupo_1240427" data-name="Grupo 1240427" transform="translate(679.49 12689.167)">
        <g id="Grupo_1239780" data-name="Grupo 1239780" transform="translate(0 0)">
          <g id="Grupo_1236603" data-name="Grupo 1236603">
            <g id="Grupo_1236145" data-name="Grupo 1236145">
              <g id="Grupo_1235107" data-name="Grupo 1235107">
                <g id="Grupo_1223796" data-name="Grupo 1223796">
                  <g id="Grupo_1208038" data-name="Grupo 1208038">
                    <g id="Grupo_1202104" data-name="Grupo 1202104">
                      <g id="Grupo_1201923" data-name="Grupo 1201923">
                        <g id="Grupo_1176928" data-name="Grupo 1176928" transform="translate(0)">
                          <g id="Grupo_1172322" data-name="Grupo 1172322">
                            <g id="Grupo_1164700" data-name="Grupo 1164700">
                              <g id="Grupo_1160931" data-name="Grupo 1160931">
                                <g id="Grupo_1160749" data-name="Grupo 1160749">
                                  <g id="Grupo_1158891" data-name="Grupo 1158891">
                                    <g id="Grupo_1157406" data-name="Grupo 1157406">
                                      <g id="Grupo_1155793" data-name="Grupo 1155793">
                                        <g id="Grupo_1154704" data-name="Grupo 1154704">
                                          <g id="Grupo_1150790" data-name="Grupo 1150790">
                                            <g id="Grupo_1154214" data-name="Grupo 1154214" transform="translate(0)">
                                              <g id="Grupo_1152583" data-name="Grupo 1152583">
                                                <g id="Grupo_1146973" data-name="Grupo 1146973">
                                                  <g id="Grupo_1146954" data-name="Grupo 1146954">
                                                    <g transform="matrix(1, 0, 0, 1, -9, -6)" filter="url(#Trazado_982547)">
                                                      <g id="Trazado_982547-2" data-name="Trazado 982547" transform="translate(9 6)" fill="#d6f5fb">
                                                        <path d="M 47.50000762939453 93.49986267089844 C 41.28937911987305 93.49986267089844 35.26534271240234 92.28383636474609 29.59519386291504 89.88558197021484 C 24.11772727966309 87.56880950927734 19.19814109802246 84.25183868408203 14.97310066223145 80.02679443359375 C 10.74804782867432 75.8017578125 7.431074142456055 70.88218688964844 5.114300727844238 65.40471649169922 C 2.716034412384033 59.73458480834961 1.500007629394531 53.71054458618164 1.500007629394531 47.49993133544922 C 1.500007629394531 41.2893180847168 2.716034412384033 35.26527786254883 5.114300727844238 29.59514427185059 C 7.431074142456055 24.11767768859863 10.74804782867432 19.19810485839844 14.97310066223145 14.97306442260742 C 19.19814109802246 10.74802494049072 24.11772727966309 7.431051254272461 29.59519386291504 5.114277839660645 C 35.26534271240234 2.71602463722229 41.28937911987305 1.499997973442078 47.50000762939453 1.499997973442078 C 53.71063613891602 1.499997973442078 59.73467254638672 2.71602463722229 65.40482330322266 5.114277839660645 C 70.88228607177734 7.431051254272461 75.80187225341797 10.74802494049072 80.02691650390625 14.97306442260742 C 84.25196838378906 19.19810485839844 87.56893920898438 24.11767768859863 89.88571166992188 29.59514427185059 C 92.28398132324219 35.26527786254883 93.50000762939453 41.2893180847168 93.50000762939453 47.49993133544922 C 93.50000762939453 53.71054458618164 92.28398132324219 59.73458480834961 89.88571166992188 65.40471649169922 C 87.56893920898438 70.88218688964844 84.25196838378906 75.8017578125 80.02691650390625 80.02679443359375 C 75.80187225341797 84.25183868408203 70.88228607177734 87.56880950927734 65.40482330322266 89.88558197021484 C 59.73467254638672 92.28383636474609 53.71063613891602 93.49986267089844 47.50000762939453 93.49986267089844 Z" stroke="none"/>
                                                        <path d="M 47.50000762939453 2.999992370605469 C 41.4912223815918 2.999992370605469 35.66377639770508 4.1761474609375 30.17951202392578 6.495796203613281 C 24.88085174560547 8.736930847167969 20.12152862548828 11.94596099853516 16.03376007080078 16.03372955322266 C 11.94597625732422 20.12148284912109 8.736961364746094 24.88080596923828 6.495803833007812 30.17946624755859 C 4.176162719726562 35.66371536254883 3.000007629394531 41.49116134643555 3.000007629394531 47.49993133544922 C 3.000007629394531 53.50870132446289 4.176162719726562 59.33614730834961 6.495803833007812 64.82038879394531 C 8.736961364746094 70.11905670166016 11.94597625732422 74.87836456298828 16.03376007080078 78.96613311767578 C 20.12152862548828 83.05390167236328 24.88085174560547 86.26291656494141 30.17951202392578 88.50406646728516 C 35.66377639770508 90.82369995117188 41.4912223815918 91.99985504150391 47.50000762939453 91.99985504150391 C 53.50879287719727 91.99985504150391 59.33623886108398 90.82369995117188 64.82049560546875 88.50406646728516 C 70.11916351318359 86.26291656494141 74.87848663330078 83.05390167236328 78.96625518798828 78.96613311767578 C 83.05403900146484 74.87836456298828 86.26305389404297 70.11905670166016 88.50421142578125 64.82038879394531 C 90.8238525390625 59.33614730834961 92.00000762939453 53.50870132446289 92.00000762939453 47.49993133544922 C 92.00000762939453 41.49116134643555 90.8238525390625 35.66371536254883 88.50421142578125 30.17946624755859 C 86.26305389404297 24.88080596923828 83.05403900146484 20.12148284912109 78.96625518798828 16.03372955322266 C 74.87848663330078 11.94596099853516 70.11916351318359 8.736930847167969 64.82049560546875 6.495796203613281 C 59.33623886108398 4.1761474609375 53.50879287719727 2.999992370605469 47.50000762939453 2.999992370605469 M 47.50000762939453 -7.62939453125e-06 C 73.73352813720703 -7.62939453125e-06 95.00000762939453 21.26644134521484 95.00000762939453 47.49993133544922 C 95.00000762939453 73.73342132568359 73.73352813720703 94.99985504150391 47.50000762939453 94.99985504150391 C 21.26648712158203 94.99985504150391 7.62939453125e-06 73.73342132568359 7.62939453125e-06 47.49993133544922 C 7.62939453125e-06 21.26644134521484 21.26648712158203 -7.62939453125e-06 47.50000762939453 -7.62939453125e-06 Z" stroke="none" fill="#1d7083"/>
                                                      </g>
                                                    </g>
                                                  </g>
                                                </g>
                                              </g>
                                            </g>
                                          </g>
                                        </g>
                                      </g>
                                    </g>
                                  </g>
                                </g>
                              </g>
                            </g>
                          </g>
                        </g>
                      </g>
                    </g>
                  </g>
                </g>
              </g>
            </g>
          </g>
        </g>
      </g>
    </g>
    <g id="lista-de-verificacion_7_" data-name="lista-de-verificacion (7)" transform="translate(1207.836 4914.556)">
      <g id="Grupo_1241891" data-name="Grupo 1241891" transform="translate(39.796 0.905)">
        <path id="Trazado_1239382" data-name="Trazado 1239382" d="M89.32,67.5H48.342a1.951,1.951,0,0,1-1.951-1.951V9.451A1.951,1.951,0,0,1,48.342,7.5H89.321a1.951,1.951,0,0,1,1.951,1.951v56.1A1.951,1.951,0,0,1,89.32,67.5Z" transform="translate(-46.391 -7.5)" fill="#ecf4ff"/>
      </g>
      <g id="Grupo_1241892" data-name="Grupo 1241892" transform="translate(80.286 0.905)">
        <path id="Trazado_1239383" data-name="Trazado 1239383" d="M384.2,7.5h-2.439a1.951,1.951,0,0,1,1.951,1.951v56.1a1.951,1.951,0,0,1-1.951,1.951H384.2a1.951,1.951,0,0,0,1.951-1.951V9.451A1.951,1.951,0,0,0,384.2,7.5Z" transform="translate(-381.765 -7.5)" fill="#ddeafb"/>
      </g>
      <g id="Grupo_1241911" data-name="Grupo 1241911" transform="translate(44.552 8.711)">
        <g id="Grupo_1241898" data-name="Grupo 1241898" transform="translate(0)">
          <g id="Grupo_1241897" data-name="Grupo 1241897">
            <g id="Grupo_1241896" data-name="Grupo 1241896">
              <g id="Grupo_1241895" data-name="Grupo 1241895">
                <g id="Grupo_1241893" data-name="Grupo 1241893" transform="translate(0)">
                  <path id="Trazado_1239384" data-name="Trazado 1239384" d="M96.242,84.346H87.53A1.742,1.742,0,0,1,85.788,82.6V73.892A1.742,1.742,0,0,1,87.53,72.15h8.711a1.742,1.742,0,0,1,1.742,1.742V82.6A1.742,1.742,0,0,1,96.242,84.346Z" transform="translate(-85.788 -72.15)" fill="#b3e59f"/>
                </g>
                <g id="Grupo_1241894" data-name="Grupo 1241894" transform="translate(0 0.007)">
                  <path id="Trazado_1239385" data-name="Trazado 1239385" d="M96.388,72.212q.028.363.028.733a9.539,9.539,0,0,1-9.539,9.539,9.647,9.647,0,0,1-1.089-.062v.237A1.742,1.742,0,0,0,87.53,84.4h8.711a1.742,1.742,0,0,0,1.742-1.742V73.947A1.741,1.741,0,0,0,96.388,72.212Z" transform="translate(-85.788 -72.212)" fill="#95d6a4"/>
                </g>
              </g>
            </g>
          </g>
        </g>
        <g id="Grupo_1241904" data-name="Grupo 1241904" transform="translate(0 16.099)">
          <g id="Grupo_1241903" data-name="Grupo 1241903">
            <g id="Grupo_1241902" data-name="Grupo 1241902">
              <g id="Grupo_1241901" data-name="Grupo 1241901">
                <g id="Grupo_1241899" data-name="Grupo 1241899" transform="translate(0)">
                  <path id="Trazado_1239386" data-name="Trazado 1239386" d="M96.242,217.688H87.53a1.742,1.742,0,0,1-1.742-1.742v-8.711a1.742,1.742,0,0,1,1.742-1.742h8.711a1.742,1.742,0,0,1,1.742,1.742v8.711A1.742,1.742,0,0,1,96.242,217.688Z" transform="translate(-85.788 -205.492)" fill="#b3e59f"/>
                </g>
                <g id="Grupo_1241900" data-name="Grupo 1241900" transform="translate(0 0.007)">
                  <path id="Trazado_1239387" data-name="Trazado 1239387" d="M96.388,205.553q.028.363.028.733a9.539,9.539,0,0,1-10.628,9.477V216a1.742,1.742,0,0,0,1.742,1.742h8.711A1.742,1.742,0,0,0,97.984,216v-8.711A1.742,1.742,0,0,0,96.388,205.553Z" transform="translate(-85.788 -205.553)" fill="#95d6a4"/>
                </g>
              </g>
            </g>
          </g>
        </g>
        <g id="Grupo_1241910" data-name="Grupo 1241910" transform="translate(0 32.197)">
          <g id="Grupo_1241909" data-name="Grupo 1241909">
            <g id="Grupo_1241908" data-name="Grupo 1241908">
              <g id="Grupo_1241907" data-name="Grupo 1241907">
                <g id="Grupo_1241905" data-name="Grupo 1241905" transform="translate(0)">
                  <path id="Trazado_1239388" data-name="Trazado 1239388" d="M96.242,351.03H87.53a1.742,1.742,0,0,1-1.742-1.742v-8.711a1.742,1.742,0,0,1,1.742-1.742h8.711a1.742,1.742,0,0,1,1.742,1.742v8.711A1.742,1.742,0,0,1,96.242,351.03Z" transform="translate(-85.788 -338.834)" fill="#b3e59f"/>
                </g>
                <g id="Grupo_1241906" data-name="Grupo 1241906" transform="translate(0 0.007)">
                  <path id="Trazado_1239389" data-name="Trazado 1239389" d="M96.388,338.895q.028.363.028.733a9.539,9.539,0,0,1-9.539,9.539,9.636,9.636,0,0,1-1.089-.062v.236a1.742,1.742,0,0,0,1.742,1.742h8.711a1.742,1.742,0,0,0,1.742-1.742V340.63A1.741,1.741,0,0,0,96.388,338.895Z" transform="translate(-85.788 -338.895)" fill="#95d6a4"/>
                </g>
              </g>
            </g>
          </g>
        </g>
      </g>
      <g id="Grupo_1241916" data-name="Grupo 1241916" transform="translate(70.663 29.694)">
        <g id="Grupo_1241912" data-name="Grupo 1241912" transform="translate(0)">
          <path id="Trazado_1239390" data-name="Trazado 1239390" d="M304.66,276.172l-2.282.991-.283-2.472a4.878,4.878,0,0,1,.622-2.994l14.867-25.75,4.225,2.439-14.867,25.75A4.878,4.878,0,0,1,304.66,276.172Z" transform="translate(-302.064 -245.947)" fill="#4a80aa"/>
        </g>
        <g id="Grupo_1241913" data-name="Grupo 1241913" transform="translate(0.105 1.342)">
          <path id="Trazado_1239391" data-name="Trazado 1239391" d="M320.671,257.059,305.8,282.809a4.878,4.878,0,0,1-2.282,2.036l-.591.256.21,1.832,2.282-.991a4.879,4.879,0,0,0,2.282-2.036l14.867-25.75Z" transform="translate(-302.932 -257.059)" fill="#407093"/>
        </g>
        <g id="Grupo_1241914" data-name="Grupo 1241914" transform="translate(11.373 3.804)">
          <path id="Trazado_1239392" data-name="Trazado 1239392" d="M0,0H3.9V4.878H0Z" transform="matrix(0.5, -0.866, 0.866, 0.5, 0, 3.38)" fill="#ffe07d"/>
        </g>
        <g id="Grupo_1241915" data-name="Grupo 1241915" transform="translate(13.696 5.145)">
          <path id="Trazado_1239393" data-name="Trazado 1239393" d="M0,0H3.9V2.2H0Z" transform="matrix(0.5, -0.866, 0.866, 0.5, 0, 3.38)" fill="#ffd064"/>
        </g>
      </g>
      <g id="Grupo_1241917" data-name="Grupo 1241917" transform="translate(38.89 0)">
        <path id="Trazado_1239394" data-name="Trazado 1239394" d="M39.8,49.784a.905.905,0,0,0,.905-.905V2.857a1.047,1.047,0,0,1,1.046-1.046H82.725a1.047,1.047,0,0,1,1.046,1.046v9.6a.905.905,0,0,0,1.811,0v-9.6A2.86,2.86,0,0,0,82.725,0H41.747A2.86,2.86,0,0,0,38.89,2.857V48.878a.906.906,0,0,0,.905.905Z" transform="translate(-38.89 0)"/>
        <path id="Trazado_1239395" data-name="Trazado 1239395" d="M92.294,67.3a2.651,2.651,0,0,0-2.648-2.648H80.935A2.651,2.651,0,0,0,78.287,67.3v8.711a2.651,2.651,0,0,0,2.648,2.648h8.711a2.651,2.651,0,0,0,2.648-2.648Zm-1.811,8.711a.838.838,0,0,1-.837.837H80.935a.838.838,0,0,1-.837-.837V67.3a.838.838,0,0,1,.837-.837h8.711a.838.838,0,0,1,.837.837Z" transform="translate(-73.531 -56.845)"/>
        <path id="Trazado_1239396" data-name="Trazado 1239396" d="M115.513,102.629l-2.449,2.449-.9-.9a.905.905,0,1,0-1.28,1.28L112.423,107a.905.905,0,0,0,1.28,0l3.09-3.09a.905.905,0,1,0-1.28-1.281Z" transform="translate(-101.954 -90.005)"/>
        <path id="Trazado_1239397" data-name="Trazado 1239397" d="M226.676,114.95h14.269a.905.905,0,0,0,0-1.811H226.676a.905.905,0,1,0,0,1.811Z" transform="translate(-203.208 -99.48)"/>
        <path id="Trazado_1239398" data-name="Trazado 1239398" d="M309.078,80.813h-8.659a.905.905,0,0,0,0,1.811h8.659a.905.905,0,1,0,0-1.811Z" transform="translate(-268.047 -71.056)"/>
        <path id="Trazado_1239399" data-name="Trazado 1239399" d="M226.676,82.624h4.634a.905.905,0,1,0,0-1.811h-4.634a.905.905,0,1,0,0,1.811Z" transform="translate(-203.208 -71.056)"/>
        <path id="Trazado_1239400" data-name="Trazado 1239400" d="M272.133,145.464a.905.905,0,1,0,0,1.811h4.756a.905.905,0,1,0,0-1.811Z" transform="translate(-243.177 -127.902)"/>
        <path id="Trazado_1239401" data-name="Trazado 1239401" d="M226.676,147.275h1.22a.905.905,0,0,0,0-1.811h-1.22a.905.905,0,1,0,0,1.811Z" transform="translate(-203.208 -127.902)"/>
        <path id="Trazado_1239402" data-name="Trazado 1239402" d="M92.294,200.64a2.651,2.651,0,0,0-2.648-2.648H80.935a2.651,2.651,0,0,0-2.648,2.648v8.711A2.651,2.651,0,0,0,80.935,212h8.711a2.651,2.651,0,0,0,2.648-2.648Zm-1.811,8.711a.838.838,0,0,1-.837.837H80.935a.838.838,0,0,1-.837-.837V200.64a.838.838,0,0,1,.837-.837h8.711a.838.838,0,0,1,.837.837Z" transform="translate(-73.531 -174.088)"/>
        <path id="Trazado_1239403" data-name="Trazado 1239403" d="M115.513,235.971l-2.449,2.449-.9-.9a.905.905,0,0,0-1.28,1.281l1.545,1.545a.905.905,0,0,0,1.28,0l3.09-3.089a.905.905,0,0,0-1.28-1.281Z" transform="translate(-101.954 -207.248)"/>
        <path id="Trazado_1239404" data-name="Trazado 1239404" d="M241.851,247.385a.905.905,0,0,0-.905-.905H226.676a.905.905,0,1,0,0,1.811h14.269A.905.905,0,0,0,241.851,247.385Z" transform="translate(-203.208 -216.721)"/>
        <path id="Trazado_1239405" data-name="Trazado 1239405" d="M309.983,215.059a.905.905,0,0,0-.906-.905h-8.659a.905.905,0,0,0,0,1.811h8.659A.905.905,0,0,0,309.983,215.059Z" transform="translate(-268.047 -188.299)"/>
        <path id="Trazado_1239406" data-name="Trazado 1239406" d="M226.676,215.965h4.634a.905.905,0,0,0,0-1.811h-4.634a.905.905,0,1,0,0,1.811Z" transform="translate(-203.208 -188.299)"/>
        <path id="Trazado_1239407" data-name="Trazado 1239407" d="M277.8,279.711a.905.905,0,0,0-.905-.906h-4.756a.906.906,0,1,0,0,1.811h4.756A.906.906,0,0,0,277.8,279.711Z" transform="translate(-243.178 -245.144)"/>
        <path id="Trazado_1239408" data-name="Trazado 1239408" d="M226.676,280.616h1.22a.906.906,0,0,0,0-1.811h-1.22a.906.906,0,1,0,0,1.811Z" transform="translate(-203.208 -245.144)"/>
        <path id="Trazado_1239409" data-name="Trazado 1239409" d="M89.646,331.333H80.935a2.651,2.651,0,0,0-2.648,2.648v8.711a2.651,2.651,0,0,0,2.648,2.648h8.711a2.651,2.651,0,0,0,2.648-2.648v-8.711A2.651,2.651,0,0,0,89.646,331.333Zm.837,11.359a.838.838,0,0,1-.837.837H80.935a.838.838,0,0,1-.837-.837v-8.711a.838.838,0,0,1,.837-.837h8.711a.838.838,0,0,1,.837.837Z" transform="translate(-73.531 -291.331)"/>
        <path id="Trazado_1239410" data-name="Trazado 1239410" d="M115.513,369.311l-2.449,2.449-.9-.9a.905.905,0,0,0-1.28,1.281l1.545,1.545a.906.906,0,0,0,1.28,0l3.09-3.09a.905.905,0,0,0-1.28-1.281Z" transform="translate(-101.954 -324.49)"/>
        <path id="Trazado_1239411" data-name="Trazado 1239411" d="M226.676,349.307h4.634a.905.905,0,1,0,0-1.811h-4.634a.905.905,0,1,0,0,1.811Z" transform="translate(-203.208 -305.542)"/>
        <path id="Trazado_1239412" data-name="Trazado 1239412" d="M227.9,413.957a.905.905,0,1,0,0-1.811h-1.22a.905.905,0,1,0,0,1.811Z" transform="translate(-203.208 -362.387)"/>
        <path id="Trazado_1239413" data-name="Trazado 1239413" d="M91.283,146.766a.905.905,0,0,0-.422-.55l-4.224-2.439a.905.905,0,0,0-1.055.109V131.546a.905.905,0,1,0-1.811,0v15.385l-5.711,9.891h-6.8a.905.905,0,1,0,0,1.811h5.754l-1.207,2.091H62.358a.905.905,0,0,0,0,1.811h12.4l-1.208,2.092H67.846a.905.905,0,1,0,0,1.811h4.662l-1.975,3.421a5.739,5.739,0,0,0-.737,3.55l.167,1.463H41.747a1.047,1.047,0,0,1-1.046-1.046v-5.854a.905.905,0,1,0-1.811,0v5.854a2.86,2.86,0,0,0,2.857,2.856H82.725a2.86,2.86,0,0,0,2.857-2.856V157.172l5.611-9.719a.9.9,0,0,0,.09-.687Zm-5.353,6.18-2.656-1.534L84.32,149.6l2.656,1.533Zm-2.16,20.88a1.047,1.047,0,0,1-1.046,1.046H74.87a5.81,5.81,0,0,0,1.456-1.669l3.542-6.134a.906.906,0,1,0-1.568-.906L74.758,172.3a4,4,0,0,1-1.859,1.658l-1.16.5L71.6,173.2a3.942,3.942,0,0,1,.506-2.438l10.268-17.783,2.656,1.534L80.412,162.5a.905.905,0,1,0,1.568.905l1.79-3.1v13.517Zm4.111-24.26-2.656-1.533,1.29-2.234,2.656,1.533Z" transform="translate(-38.89 -114.868)"/>
      </g>
    </g>
  </g>
</svg>
