<svg id="entrevista-de-trabajo" xmlns="http://www.w3.org/2000/svg" width="85.393" height="85.392" viewBox="0 0 85.393 85.392">
  <g id="Grupo_1241800" data-name="Grupo 1241800" transform="translate(1.268 1.268)">
    <path id="Trazado_1239241" data-name="Trazado 1239241" d="M86.209,392.281H11.646A4.146,4.146,0,0,1,7.5,388.134v-3.166a4.146,4.146,0,0,1,4.146-4.146H86.209a4.146,4.146,0,0,1,4.146,4.146v3.166A4.146,4.146,0,0,1,86.209,392.281Z" transform="translate(-7.5 -317.696)" fill="#f9a74d"/>
    <rect id="Rectángulo_424007" data-name="Rectángulo 424007" width="70.514" height="8.271" transform="translate(6.171 74.585)" fill="#e06919"/>
    <g id="Grupo_1241796" data-name="Grupo 1241796" transform="translate(3.827 0)">
      <path id="Trazado_1239242" data-name="Trazado 1239242" d="M123.309,284.688v2.628h-32.8v-2.628a16.4,16.4,0,1,1,32.8,0Z" transform="translate(-80.299 -224.19)" fill="#4cbfd4"/>
      <path id="Trazado_1239243" data-name="Trazado 1239243" d="M159.928,286.777V289.4H134.579v-2.628A16.408,16.408,0,0,1,147.253,270.8a16.411,16.411,0,0,1,12.675,15.976Z" transform="translate(-116.918 -226.279)" fill="#96efff"/>
      <path id="Trazado_1239244" data-name="Trazado 1239244" d="M138.019,287.6a8.713,8.713,0,0,0,8.367,6.282c.076,0,.152,0,.228,0h.012a8.714,8.714,0,0,0,8.127-6.278" transform="translate(-119.777 -240.236)" fill="#e89876"/>
      <path id="Trazado_1239245" data-name="Trazado 1239245" d="M71.185,50.211c20.319,0,9.052-10.628,9.052-23.933S69.668,7.5,56.744,7.5,33.251,12.972,33.251,26.277,21.984,50.21,42.3,50.21H71.185Z" transform="translate(-30.135 -7.5)" fill="#ffe563"/>
      <path id="Trazado_1239246" data-name="Trazado 1239246" d="M44.843,26.278c0,13.3-5.708,23.933,4.585,23.933H42.3c-20.32,0-9.052-10.629-9.052-23.933S43.821,7.5,56.744,7.5C50.2,7.5,44.843,12.973,44.843,26.278Z" transform="translate(-30.135 -7.501)" fill="#ffa829"/>
      <path id="Trazado_1239247" data-name="Trazado 1239247" d="M123.312,81.528V92.384a16.393,16.393,0,0,1-15.952,16.395h-.022c-.142,0-.284.006-.428.006a16.4,16.4,0,0,1-16.4-16.4V81.528c7.2-.6,14.1-4.089,16.4-11.893C109.213,77.438,116.106,80.932,123.312,81.528Z" transform="translate(-80.301 -59.128)" fill="#ffcbb3"/>
      <path id="Trazado_1239248" data-name="Trazado 1239248" d="M109.875,160.908a16.4,16.4,0,0,1-2.515.263h-.022c-.142,0-.284.006-.428.006a16.4,16.4,0,0,1-16.4-16.4V133.92a23.935,23.935,0,0,0,5.933-1.231v12.087A16.4,16.4,0,0,0,109.875,160.908Z" transform="translate(-80.301 -111.52)" fill="#e89876"/>
      <g id="Grupo_1241795" data-name="Grupo 1241795" transform="translate(5.674 56.874)">
        <path id="Trazado_1239249" data-name="Trazado 1239249" d="M63.688,346.976a3.123,3.123,0,0,0,3.125,3.125H87.146v-1.436a4.751,4.751,0,0,0-.085-.9,4.814,4.814,0,0,0-4.731-3.92H66.813a3.126,3.126,0,0,0-3.125,3.127Z" transform="translate(-63.688 -343.849)" fill="#4cbfd4"/>
        <path id="Trazado_1239250" data-name="Trazado 1239250" d="M65.018,345.811a3.126,3.126,0,0,0,2.9,1.958H88.167a4.814,4.814,0,0,0-4.731-3.92H67.918A3.122,3.122,0,0,0,65.018,345.811Z" transform="translate(-64.793 -343.849)" fill="#96efff"/>
        <g id="Grupo_1241794" data-name="Grupo 1241794" transform="translate(13.575)">
          <path id="Trazado_1239251" data-name="Trazado 1239251" d="M172.267,346.976a3.123,3.123,0,0,1-3.125,3.125H143.972v-1.436a4.752,4.752,0,0,1,.085-.9,4.815,4.815,0,0,1,4.731-3.92h20.355a3.126,3.126,0,0,1,3.125,3.127Z" transform="translate(-143.972 -343.849)" fill="#4cbfd4"/>
          <path id="Trazado_1239252" data-name="Trazado 1239252" d="M172.458,345.811a3.126,3.126,0,0,1-2.9,1.958H144.472a4.814,4.814,0,0,1,4.731-3.92h20.355A3.122,3.122,0,0,1,172.458,345.811Z" transform="translate(-144.387 -343.849)" fill="#96efff"/>
          <path id="Trazado_1239253" data-name="Trazado 1239253" d="M151.882,343.849V350.1h-7.91v-1.436a4.751,4.751,0,0,1,.085-.9,4.815,4.815,0,0,1,4.731-3.92Z" transform="translate(-143.972 -343.849)" fill="#ffcbb3"/>
          <path id="Trazado_1239254" data-name="Trazado 1239254" d="M151.882,367.029v2.332h-7.91v-1.436a4.752,4.752,0,0,1,.085-.9Z" transform="translate(-143.972 -363.109)" fill="#e89876"/>
        </g>
      </g>
    </g>
    <g id="Grupo_1241797" data-name="Grupo 1241797" transform="translate(62.668)">
      <path id="Trazado_1239255" data-name="Trazado 1239255" d="M394.994,15.938a8.429,8.429,0,1,1-6.539-8.225A8.445,8.445,0,0,1,394.994,15.938Z" transform="translate(-378.113 -7.499)" fill="#0e9c80"/>
      <path id="Trazado_1239256" data-name="Trazado 1239256" d="M413.672,16.994a6.712,6.712,0,1,1-6.539-8.225A8.445,8.445,0,0,1,413.672,16.994Z" transform="translate(-396.792 -8.554)" fill="#70e6d1"/>
    </g>
    <g id="Grupo_1241798" data-name="Grupo 1241798" transform="translate(62.668 21.239)">
      <path id="Trazado_1239257" data-name="Trazado 1239257" d="M394.994,141.543a8.429,8.429,0,1,1-6.539-8.225A8.445,8.445,0,0,1,394.994,141.543Z" transform="translate(-378.113 -133.104)" fill="#0e9c80"/>
      <path id="Trazado_1239258" data-name="Trazado 1239258" d="M413.672,142.6a6.712,6.712,0,1,1-6.539-8.225A8.445,8.445,0,0,1,413.672,142.6Z" transform="translate(-396.792 -134.159)" fill="#70e6d1"/>
    </g>
    <g id="Grupo_1241799" data-name="Grupo 1241799" transform="translate(62.668 42.478)">
      <path id="Trazado_1239259" data-name="Trazado 1239259" d="M394.994,267.148a8.429,8.429,0,1,1-6.539-8.225A8.445,8.445,0,0,1,394.994,267.148Z" transform="translate(-378.113 -258.709)" fill="#0e9c80"/>
      <path id="Trazado_1239260" data-name="Trazado 1239260" d="M413.672,268.2a6.712,6.712,0,1,1-6.539-8.225A8.445,8.445,0,0,1,413.672,268.2Z" transform="translate(-396.792 -259.764)" fill="#70e6d1"/>
    </g>
  </g>
  <g id="Grupo_1241801" data-name="Grupo 1241801" transform="translate(0 0)">
    <path id="Trazado_1239261" data-name="Trazado 1239261" d="M79.978,63.127h-7.9a1.268,1.268,0,0,0,0,2.536h7.9a2.881,2.881,0,0,1,2.878,2.878v3.166a2.881,2.881,0,0,1-2.878,2.878H5.415a2.881,2.881,0,0,1-2.878-2.878V68.542a2.881,2.881,0,0,1,2.878-2.878H67a1.268,1.268,0,1,0,0-2.536H53.5a4.392,4.392,0,0,0-3.981-6.252h-.831a17.629,17.629,0,0,0-4.486-7.6c-.4-.4-.811-.772-1.243-1.129a17.744,17.744,0,0,0,2.788-2.9h.4c6.583,0,10.339-1.066,12.179-3.455,2.16-2.806,1.127-6.713-.07-11.236a41.177,41.177,0,0,1-1.789-10.51c0-6.621-2.57-11.95-7.432-15.412C44.774,1.6,38.783,0,31.705,0S18.634,1.6,14.376,4.635C9.514,8.1,6.943,13.426,6.943,20.047a41.176,41.176,0,0,1-1.789,10.51c-1.2,4.524-2.23,8.43-.07,11.236,1.84,2.39,5.6,3.455,12.179,3.455h.409a17.831,17.831,0,0,0,2.786,2.894A17.742,17.742,0,0,0,18.17,50.41a1.268,1.268,0,1,0,1.942,1.631,15.224,15.224,0,0,1,2.3-2.214,10.033,10.033,0,0,0,9.3,6.354c.085,0,.171,0,.24,0h.036A9.939,9.939,0,0,0,33.6,56,10.058,10.058,0,0,0,41,49.832a15.048,15.048,0,0,1,5.028,7.043H17.383c.137-.4.288-.8.458-1.185a1.268,1.268,0,0,0-2.322-1.02,17.585,17.585,0,0,0-.8,2.205h-.829A4.4,4.4,0,0,0,9.91,63.127h-4.5A5.421,5.421,0,0,0,0,68.542v3.166a5.421,5.421,0,0,0,5.415,5.414h.756v7a1.268,1.268,0,0,0,1.268,1.268H77.953a1.268,1.268,0,0,0,1.268-1.268v-7h.757a5.421,5.421,0,0,0,5.415-5.414V68.542A5.421,5.421,0,0,0,79.978,63.127Zm-63.4-28.6V24.812c7.065-.877,12.4-4.3,15.132-9.624,2.732,5.327,8.066,8.747,15.134,9.624v9.713a15.125,15.125,0,0,1-14.7,15.127H32.1c-.13,0-.26.005-.391.005A15.149,15.149,0,0,1,16.573,34.525Zm-9.479,5.72c-1.4-1.817-.556-5,.512-9.04A43.178,43.178,0,0,0,9.48,20.047C9.48,14.2,11.622,9.709,15.847,6.7c3.827-2.724,9.31-4.164,15.858-4.164S43.735,3.978,47.562,6.7c4.225,3.008,6.367,7.5,6.367,13.345A43.178,43.178,0,0,0,55.8,31.205c1.067,4.036,1.911,7.223.512,9.04C55.133,41.78,52.2,42.584,47.368,42.7a17.611,17.611,0,0,0,2.007-8.172V23.668A1.268,1.268,0,0,0,48.211,22.4a20.173,20.173,0,0,1-9.445-3.038,14.024,14.024,0,0,1-5.845-7.95,1.268,1.268,0,0,0-1.216-.909h0a1.268,1.268,0,0,0-1.216.909,14.032,14.032,0,0,1-5.845,7.95A20.17,20.17,0,0,1,15.2,22.4a1.268,1.268,0,0,0-1.164,1.264V34.525A17.56,17.56,0,0,0,16.044,42.7C11.21,42.585,8.275,41.78,7.094,40.246ZM33.118,53.512a7.428,7.428,0,0,1-1.192.132H31.7a7.47,7.47,0,0,1-5.355-2.282,17.6,17.6,0,0,0,5.355.83c.149,0,.3,0,.445-.006h.039a17.523,17.523,0,0,0,4.868-.824A7.449,7.449,0,0,1,33.118,53.512Zm-3.958,5.9h1.828v3.715H25.612V62.96A3.552,3.552,0,0,1,29.16,59.412Zm22.212,1.858a1.86,1.86,0,0,1-1.857,1.858H33.524V59.412H49.515A1.86,1.86,0,0,1,51.372,61.269ZM13.894,59.412H24.222a6.05,6.05,0,0,0-1.146,3.548v.167H13.894a1.857,1.857,0,0,1,0-3.715ZM76.685,82.857H8.707V77.122H76.685Z" transform="translate(0 -0.001)"/>
    <path id="Trazado_1239262" data-name="Trazado 1239262" d="M162.209,219.7a1.268,1.268,0,0,0-1.794,0,5.949,5.949,0,0,1-8.4,0,1.268,1.268,0,0,0-1.794,1.793,8.488,8.488,0,0,0,11.991,0A1.268,1.268,0,0,0,162.209,219.7Z" transform="translate(-124.509 -182.245)"/>
    <path id="Trazado_1239263" data-name="Trazado 1239263" d="M140.285,164.184v-4.031a1.268,1.268,0,1,0-2.536,0v4.031a1.268,1.268,0,0,0,2.536,0Z" transform="translate(-114.457 -132.018)"/>
    <path id="Trazado_1239264" data-name="Trazado 1239264" d="M223.527,165.452a1.268,1.268,0,0,0,1.268-1.268v-4.031a1.268,1.268,0,1,0-2.536,0v4.031A1.268,1.268,0,0,0,223.527,165.452Z" transform="translate(-184.676 -132.018)"/>
    <path id="Trazado_1239265" data-name="Trazado 1239265" d="M380.324,19.416a9.708,9.708,0,1,0-9.708-9.708A9.719,9.719,0,0,0,380.324,19.416Zm0-16.88a7.172,7.172,0,1,1-7.172,7.172A7.18,7.18,0,0,1,380.324,2.536Z" transform="translate(-307.947 0)"/>
    <path id="Trazado_1239266" data-name="Trazado 1239266" d="M402.512,39.77a1.268,1.268,0,0,0,.976.459,1.228,1.228,0,0,0,.127-.006,1.268,1.268,0,0,0,.991-.663l4.077-7.6a1.268,1.268,0,1,0-2.235-1.2L403.262,36.7l-1.992-2.4a1.268,1.268,0,0,0-1.953,1.618Z" transform="translate(-331.553 -25.002)"/>
    <path id="Trazado_1239267" data-name="Trazado 1239267" d="M380.324,145.021a9.708,9.708,0,1,0-9.708-9.708A9.719,9.719,0,0,0,380.324,145.021Zm0-16.88a7.172,7.172,0,1,1-7.172,7.172A7.18,7.18,0,0,1,380.324,128.141Z" transform="translate(-307.947 -104.366)"/>
    <path id="Trazado_1239268" data-name="Trazado 1239268" d="M402.512,165.375a1.268,1.268,0,0,0,.976.459,1.22,1.22,0,0,0,.127-.006,1.268,1.268,0,0,0,.991-.662l4.077-7.6a1.268,1.268,0,1,0-2.235-1.2l-3.186,5.941-1.992-2.4a1.268,1.268,0,0,0-1.953,1.618Z" transform="translate(-331.553 -129.368)"/>
    <path id="Trazado_1239269" data-name="Trazado 1239269" d="M380.324,270.626a9.708,9.708,0,1,0-9.708-9.708A9.719,9.719,0,0,0,380.324,270.626Zm0-16.88a7.172,7.172,0,1,1-7.172,7.172A7.18,7.18,0,0,1,380.324,253.746Z" transform="translate(-307.947 -208.732)"/>
    <path id="Trazado_1239270" data-name="Trazado 1239270" d="M402.512,290.98a1.268,1.268,0,0,0,.976.459,1.237,1.237,0,0,0,.127-.006,1.268,1.268,0,0,0,.991-.663l4.077-7.6a1.268,1.268,0,1,0-2.235-1.2l-3.186,5.94-1.992-2.4a1.268,1.268,0,0,0-1.953,1.618Z" transform="translate(-331.553 -233.734)"/>
  </g>
</svg>
