<svg xmlns="http://www.w3.org/2000/svg" xmlns:xlink="http://www.w3.org/1999/xlink" width="108" height="108" viewBox="0 0 108 108">
  <defs>
    <filter id="Trazado_904820" x="0" y="0" width="108" height="108" filterUnits="userSpaceOnUse">
      <feOffset dy="3" input="SourceAlpha"/>
      <feGaussianBlur stdDeviation="3" result="blur"/>
      <feFlood flood-opacity="0.161"/>
      <feComposite operator="in" in2="blur"/>
      <feComposite in="SourceGraphic"/>
    </filter>
  </defs>
  <g id="Grupo_1241494" data-name="Grupo 1241494" transform="translate(-198 -482)">
    <g id="Grupo_1235108" data-name="Grupo 1235108" transform="translate(0 -42)">
      <g id="Grupo_1233829" data-name="Grupo 1233829" transform="translate(207 530)">
        <g id="Grupo_1228307" data-name="Grupo 1228307" transform="translate(0 0)">
          <g id="Grupo_1228100" data-name="Grupo 1228100" transform="translate(0)">
            <g id="Grupo_1221597" data-name="Grupo 1221597">
              <g id="Grupo_1219744" data-name="Grupo 1219744">
                <g id="Grupo_1202418" data-name="Grupo 1202418">
                  <g id="Grupo_1177315" data-name="Grupo 1177315">
                    <g id="Grupo_1173585" data-name="Grupo 1173585">
                      <g id="Grupo_1173428" data-name="Grupo 1173428">
                        <g id="Grupo_1171958" data-name="Grupo 1171958">
                          <g id="Grupo_1167341" data-name="Grupo 1167341">
                            <g id="Grupo_1166792" data-name="Grupo 1166792">
                              <g transform="matrix(1, 0, 0, 1, -9, -6)" filter="url(#Trazado_904820)">
                                <g id="Trazado_904820-2" data-name="Trazado 904820" transform="translate(9 6)" fill="#fbfbf9">
                                  <path d="M 44.99999618530273 88.49994659423828 C 39.12687301635742 88.49994659423828 33.43022155761719 87.35002136230469 28.06829643249512 85.08212280273438 C 22.88852119445801 82.89125823974609 18.23629570007324 79.75454711914062 14.24084663391113 75.75910186767578 C 10.24540901184082 71.76364898681641 7.108683586120605 67.11143493652344 4.917821407318115 61.93165969848633 C 2.649921178817749 56.56973648071289 1.499996185302734 50.87309646606445 1.499996185302734 44.99997329711914 C 1.499996185302734 39.12685012817383 2.649921178817749 33.43021011352539 4.917821407318115 28.06828498840332 C 7.108683586120605 22.88851165771484 10.24540901184082 18.23629760742188 14.24084663391113 14.24084854125977 C 18.23629570007324 10.24539852142334 22.88852119445801 7.108685970306396 28.06829643249512 4.917823314666748 C 33.43022155761719 2.649923324584961 39.12687301635742 1.499998331069946 44.99999618530273 1.499998331069946 C 50.87311935424805 1.499998331069946 56.56977081298828 2.649923324584961 61.93169784545898 4.917823314666748 C 67.11147308349609 7.108685970306396 71.76369476318359 10.24539852142334 75.75914764404297 14.24084854125977 C 79.75458526611328 18.23629760742188 82.89131164550781 22.88851165771484 85.08216857910156 28.06828498840332 C 87.35007476806641 33.43021011352539 88.5 39.12685012817383 88.5 44.99997329711914 C 88.5 50.87309646606445 87.35007476806641 56.56973648071289 85.08216857910156 61.93165969848633 C 82.89131164550781 67.11143493652344 79.75458526611328 71.76364898681641 75.75914764404297 75.75910186767578 C 71.76369476318359 79.75454711914062 67.11147308349609 82.89125823974609 61.93169784545898 85.08212280273438 C 56.56977081298828 87.35002136230469 50.87311935424805 88.49994659423828 44.99999618530273 88.49994659423828 Z" stroke="none"/>
                                  <path d="M 44.99999618530273 3 C 39.32870864868164 3 33.82865142822266 4.110061645507812 28.65262603759766 6.299331665039062 C 23.65165710449219 8.414573669433594 19.15968322753906 11.44332885742188 15.301513671875 15.30149841308594 C 11.44333648681641 19.15969085693359 8.414566040039062 23.65164184570312 6.299339294433594 28.65261459350586 C 4.110054016113281 33.82864379882812 2.999992370605469 39.32868576049805 2.999992370605469 44.99997329711914 C 2.999992370605469 50.67126083374023 4.110054016113281 56.17130279541016 6.299339294433594 61.34732818603516 C 8.414566040039062 66.34829711914062 11.44333648681641 70.84025573730469 15.301513671875 74.69844055175781 C 19.15968322753906 78.55661773681641 23.65165710449219 81.58537292480469 28.65262603759766 83.70061492919922 C 33.82865142822266 85.88988494873047 39.32870864868164 86.99994659423828 44.99999618530273 86.99994659423828 C 50.67128372192383 86.99994659423828 56.17134094238281 85.88988494873047 61.34736633300781 83.70061492919922 C 66.34834289550781 81.58537292480469 70.84030914306641 78.55661773681641 74.69847869873047 74.69844055175781 C 78.55665588378906 70.84025573730469 81.58542633056641 66.34829711914062 83.70065307617188 61.34732818603516 C 85.88993835449219 56.17130279541016 87 50.67126083374023 87 44.99997329711914 C 87 39.32868576049805 85.88993835449219 33.82864379882812 83.70065307617188 28.65261459350586 C 81.58542633056641 23.65164184570312 78.55665588378906 19.15969085693359 74.69847869873047 15.30149841308594 C 70.84030914306641 11.44332885742188 66.34834289550781 8.414573669433594 61.34736633300781 6.299331665039062 C 56.17134094238281 4.110061645507812 50.67128372192383 3 44.99999618530273 3 M 44.99999618530273 0 C 69.85281372070312 0 90 20.14717102050781 90 44.99997329711914 C 90 69.85277557373047 69.85281372070312 89.99994659423828 44.99999618530273 89.99994659423828 C 20.14717864990234 89.99994659423828 -7.62939453125e-06 69.85277557373047 -7.62939453125e-06 44.99997329711914 C -7.62939453125e-06 20.14717102050781 20.14717864990234 0 44.99999618530273 0 Z" stroke="none" fill="#7b776f"/>
                                </g>
                              </g>
                            </g>
                          </g>
                        </g>
                      </g>
                    </g>
                  </g>
                </g>
              </g>
            </g>
          </g>
        </g>
      </g>
    </g>
    <g id="capacitacion" transform="translate(220.954 440.028)">
      <g id="Grupo_1241492" data-name="Grupo 1241492" transform="translate(1.213 71.685)">
        <path id="Trazado_1238679" data-name="Trazado 1238679" d="M69.667,82.9a2.425,2.425,0,0,0-2.426-2.426H12.426A2.425,2.425,0,0,0,10,82.9v7.277H69.667Z" transform="translate(-10 -80.472)" fill="#b5b4ee"/>
        <path id="Trazado_1238680" data-name="Trazado 1238680" d="M10,160.472v30.447a2.425,2.425,0,0,0,2.426,2.426H67.242a2.425,2.425,0,0,0,2.426-2.426V160.472Z" transform="translate(-10 -150.77)" fill="#ffda8f"/>
        <circle id="Elipse_12313" data-name="Elipse 12313" cx="5.263" cy="5.263" r="5.263" transform="translate(18.016 15.524)" fill="#ffc8b8"/>
        <path id="Trazado_1238681" data-name="Trazado 1238681" d="M314.086,201.281v5.236l-1.744,2.258a.63.63,0,0,0,.5,1.015h15.014a2.52,2.52,0,0,0,2.52-2.52v-5.988a2.52,2.52,0,0,0-2.52-2.52H316.607A2.52,2.52,0,0,0,314.086,201.281Z" transform="translate(-275.559 -184.415)" fill="#fff"/>
        <path id="Trazado_1238682" data-name="Trazado 1238682" d="M205.068,340.2a3.112,3.112,0,1,0,0,6.225h1.739V340.2h-1.739Z" transform="translate(-178.676 -308.7)" fill="#ffc8b8"/>
        <path id="Trazado_1238683" data-name="Trazado 1238683" d="M163.694,340.2h-1.739v6.225h1.739a3.112,3.112,0,0,0,0-6.225Z" transform="translate(-143.527 -308.701)" fill="#ffc8b8"/>
        <path id="Trazado_1238684" data-name="Trazado 1238684" d="M119.623,302.466l-2.641-4.156a6.531,6.531,0,0,0-5.513-3.029h-8.99a6.531,6.531,0,0,0-5.513,3.029l-2.641,4.156a2.921,2.921,0,0,0,2.466,4.488h5.332v-6.225h1.739a3.112,3.112,0,0,1,3.112,3.112,3.112,3.112,0,0,1,3.112-3.112h1.739v6.225h5.332A2.921,2.921,0,0,0,119.623,302.466Z" transform="translate(-83.696 -269.231)" fill="#ff7d97"/>
      </g>
      <g id="Grupo_1241493" data-name="Grupo 1241493" transform="translate(0 70.472)">
        <path id="Trazado_1238685" data-name="Trazado 1238685" d="M58.455,70.472H3.638A3.642,3.642,0,0,0,0,74.11v37.723a3.642,3.642,0,0,0,3.638,3.638H38.1a1.213,1.213,0,1,0,0-2.426H3.638a1.214,1.214,0,0,1-1.213-1.213V82.6H59.667v29.234a1.214,1.214,0,0,1-1.213,1.213H49.149a1.213,1.213,0,0,0,0,2.426h9.306a3.642,3.642,0,0,0,3.638-3.638V74.11A3.642,3.642,0,0,0,58.455,70.472Zm-56.029,9.7V74.11A1.214,1.214,0,0,1,3.638,72.9H58.455a1.214,1.214,0,0,1,1.213,1.213v6.064Z" transform="translate(0 -70.472)"/>
        <path id="Trazado_1238686" data-name="Trazado 1238686" d="M49.883,221.893a1.213,1.213,0,0,0,1.213,1.213h34.46a1.213,1.213,0,1,0,0-2.426H82.272A4.073,4.073,0,0,0,82,216.755L79.357,212.6a7.7,7.7,0,0,0-6-3.572,6.476,6.476,0,1,0-10.066,0,7.7,7.7,0,0,0-6,3.572l-2.641,4.156a4.073,4.073,0,0,0-.275,3.925H51.1A1.213,1.213,0,0,0,49.883,221.893Zm14.8-1.213v-3.8h.526a1.9,1.9,0,1,1,0,3.8h-.526Zm6.751,0a1.9,1.9,0,1,1,0-3.8h.526v3.8h-.526Zm-3.112-19.774a4.051,4.051,0,1,1-4.051,4.051A4.055,4.055,0,0,1,68.326,200.906Zm-11.68,18.888a1.686,1.686,0,0,1,.056-1.739l2.641-4.156a5.293,5.293,0,0,1,4.489-2.466h8.99A5.293,5.293,0,0,1,77.31,213.9l2.641,4.156a1.708,1.708,0,0,1-1.442,2.625H74.389v-3.8H74.7a1.213,1.213,0,1,0,0-2.426H71.438a4.312,4.312,0,0,0-3.113,1.327,4.312,4.312,0,0,0-3.113-1.327H62.368a1.212,1.212,0,0,0-.106,2.42v3.8H58.143a1.686,1.686,0,0,1-1.5-.886Z" transform="translate(-43.833 -182.957)"/>
        <path id="Trazado_1238687" data-name="Trazado 1238687" d="M304.047,202.216h15.014a3.737,3.737,0,0,0,3.733-3.733v-5.988a3.737,3.737,0,0,0-3.733-3.733H307.814a3.737,3.737,0,0,0-3.733,3.733v4.822l-1.491,1.93a1.843,1.843,0,0,0,1.458,2.97Zm2.206-3.744a1.213,1.213,0,0,0,.253-.741v-5.236a1.309,1.309,0,0,1,1.308-1.308h11.248a1.309,1.309,0,0,1,1.308,1.308v5.988a1.309,1.309,0,0,1-1.308,1.308H305.234Z" transform="translate(-265.553 -174.415)"/>
        <circle id="Elipse_12314" data-name="Elipse 12314" cx="1.213" cy="1.213" r="1.213" transform="translate(42.4 42.574)"/>
        <circle id="Elipse_12315" data-name="Elipse 12315" cx="1.213" cy="1.213" r="1.213" transform="translate(5.728 4.964)"/>
        <circle id="Elipse_12316" data-name="Elipse 12316" cx="1.213" cy="1.213" r="1.213" transform="translate(11.792 4.964)"/>
        <circle id="Elipse_12317" data-name="Elipse 12317" cx="1.213" cy="1.213" r="1.213" transform="translate(17.857 4.964)"/>
      </g>
    </g>
  </g>
</svg>
