<svg xmlns="http://www.w3.org/2000/svg" xmlns:xlink="http://www.w3.org/1999/xlink" width="108" height="108" viewBox="0 0 108 108">
  <defs>
    <filter id="Trazado_904820" x="0" y="0" width="108" height="108" filterUnits="userSpaceOnUse">
      <feOffset dy="3" input="SourceAlpha"/>
      <feGaussianBlur stdDeviation="3" result="blur"/>
      <feFlood flood-opacity="0.161"/>
      <feComposite operator="in" in2="blur"/>
      <feComposite in="SourceGraphic"/>
    </filter>
  </defs>
  <g id="Grupo_1241271" data-name="Grupo 1241271" transform="translate(-197.12 -558)">
    <g id="Grupo_1235052" data-name="Grupo 1235052" transform="translate(206.12 564)">
      <g id="Grupo_1233816" data-name="Grupo 1233816" transform="translate(0 0)">
        <g id="Grupo_1228307" data-name="Grupo 1228307">
          <g id="Grupo_1228100" data-name="Grupo 1228100">
            <g id="Grupo_1221597" data-name="Grupo 1221597" transform="translate(0)">
              <g id="Grupo_1219744" data-name="Grupo 1219744">
                <g id="Grupo_1202418" data-name="Grupo 1202418">
                  <g id="Grupo_1177315" data-name="Grupo 1177315">
                    <g id="Grupo_1173585" data-name="Grupo 1173585">
                      <g id="Grupo_1173428" data-name="Grupo 1173428">
                        <g id="Grupo_1171958" data-name="Grupo 1171958">
                          <g id="Grupo_1167341" data-name="Grupo 1167341">
                            <g id="Grupo_1166792" data-name="Grupo 1166792">
                              <g transform="matrix(1, 0, 0, 1, -9, -6)" filter="url(#Trazado_904820)">
                                <g id="Trazado_904820-2" data-name="Trazado 904820" transform="translate(9 6)" fill="#fff4e6">
                                  <path d="M 45.00000762939453 88.49994659423828 C 39.12688446044922 88.49994659423828 33.43023300170898 87.35002136230469 28.06830787658691 85.08212280273438 C 22.8885326385498 82.89125823974609 18.23630714416504 79.75454711914062 14.24085807800293 75.75909423828125 C 10.24542045593262 71.76364135742188 7.108695030212402 67.11141967773438 4.917832851409912 61.93165588378906 C 2.649932622909546 56.56973266601562 1.500007629394531 50.87308120727539 1.500007629394531 44.99996948242188 C 1.500007629394531 39.12684631347656 2.649932622909546 33.43020629882812 4.917832851409912 28.06828117370605 C 7.108695030212402 22.88850784301758 10.24542045593262 18.23629379272461 14.24085807800293 14.2408447265625 C 18.23630714416504 10.24540710449219 22.8885326385498 7.108694553375244 28.06830787658691 4.917831897735596 C 33.43023300170898 2.649931907653809 39.12688446044922 1.500007033348083 45.00000762939453 1.500007033348083 C 50.87313079833984 1.500007033348083 56.56978225708008 2.649931907653809 61.93170928955078 4.917831897735596 C 67.11148071289062 7.108694553375244 71.76371002197266 10.24540710449219 75.7591552734375 14.2408447265625 C 79.75459289550781 18.23629379272461 82.89131927490234 22.88850784301758 85.08218383789062 28.06828117370605 C 87.35008239746094 33.43020629882812 88.50000762939453 39.12684631347656 88.50000762939453 44.99996948242188 C 88.50000762939453 50.87308120727539 87.35008239746094 56.56973266601562 85.08218383789062 61.93165588378906 C 82.89131927490234 67.11141967773438 79.75459289550781 71.76364135742188 75.7591552734375 75.75909423828125 C 71.76371002197266 79.75454711914062 67.11148071289062 82.89125823974609 61.93170928955078 85.08212280273438 C 56.56978225708008 87.35002136230469 50.87313079833984 88.49994659423828 45.00000762939453 88.49994659423828 Z" stroke="none"/>
                                  <path d="M 45.00000762939453 3 C 39.32872009277344 3 33.82866287231445 4.110054016113281 28.65263748168945 6.299324035644531 C 23.65166473388672 8.414566040039062 19.15969085693359 11.44332885742188 15.30152130126953 15.30149841308594 C 11.44335174560547 19.15968322753906 8.414581298828125 23.65164184570312 6.299346923828125 28.65261077880859 C 4.110061645507812 33.82863998413086 3.000007629394531 39.32868194580078 3.000007629394531 44.99996948242188 C 3.000007629394531 50.67125701904297 4.110061645507812 56.17129898071289 6.299346923828125 61.34732818603516 C 8.414581298828125 66.34829711914062 11.44335174560547 70.84025573730469 15.30152130126953 74.69842529296875 C 19.15969085693359 78.55659484863281 23.65166473388672 81.58537292480469 28.65263748168945 83.70059967041016 C 33.82866287231445 85.88988494873047 39.32872009277344 86.99993896484375 45.00000762939453 86.99993896484375 C 50.67129516601562 86.99993896484375 56.17135238647461 85.88988494873047 61.34738159179688 83.70059967041016 C 66.34835052490234 81.58537292480469 70.84032440185547 78.55659484863281 74.69849395751953 74.69842529296875 C 78.55666351318359 70.84025573730469 81.58543395996094 66.34829711914062 83.70066833496094 61.34732818603516 C 85.88995361328125 56.17129898071289 87.00000762939453 50.67125701904297 87.00000762939453 44.99996948242188 C 87.00000762939453 39.32868194580078 85.88995361328125 33.82863998413086 83.70066833496094 28.65261077880859 C 81.58543395996094 23.65164184570312 78.55666351318359 19.15968322753906 74.69849395751953 15.30149841308594 C 70.84032440185547 11.44332885742188 66.34835052490234 8.414566040039062 61.34738159179688 6.299324035644531 C 56.17135238647461 4.110054016113281 50.67129516601562 3 45.00000762939453 3 M 45.00000762939453 0 C 69.85282135009766 0 90.00000762939453 20.14717102050781 90.00000762939453 44.99996948242188 C 90.00000762939453 69.85275268554688 69.85282135009766 89.99993896484375 45.00000762939453 89.99993896484375 C 20.14719390869141 89.99993896484375 7.62939453125e-06 69.85275268554688 7.62939453125e-06 44.99996948242188 C 7.62939453125e-06 20.14717102050781 20.14719390869141 0 45.00000762939453 0 Z" stroke="none" fill="#8b550e"/>
                                </g>
                              </g>
                            </g>
                          </g>
                        </g>
                      </g>
                    </g>
                  </g>
                </g>
              </g>
            </g>
          </g>
        </g>
      </g>
    </g>
    <g id="busqueda-de-talentos" transform="translate(222.484 580.456)">
      <g id="Grupo_1241240" data-name="Grupo 1241240" transform="translate(10.066 0.836)">
        <path id="Trazado_1238035" data-name="Trazado 1238035" d="M107.932,10.642a19.223,19.223,0,0,1,18.477,13.926V7.5H89.452V24.568a19.229,19.229,0,0,1,18.48-13.926Z" transform="translate(-89.452 -7.5)" fill="#eff6ff" fill-rule="evenodd"/>
      </g>
      <g id="Grupo_1241241" data-name="Grupo 1241241" transform="translate(10.066 28.489)">
        <path id="Trazado_1238036" data-name="Trazado 1238036" d="M119.959,265.2a19.226,19.226,0,0,1-30.506-9.7v10.945a.877.877,0,0,1,.638.326l1.214,1.454,1.931,2.317,2.911,1.021,1.824.642a.855.855,0,0,1,.458,1.308l-1.056,1.561-1.716,2.5-.114,2.974-.041,1.4H126.41V255.5A19.243,19.243,0,0,1,119.959,265.2Z" transform="translate(-89.453 -255.502)" fill="#eff6ff" fill-rule="evenodd"/>
      </g>
      <g id="Grupo_1241242" data-name="Grupo 1241242" transform="translate(29.03 0.836)">
        <path id="Trazado_1238037" data-name="Trazado 1238037" d="M262.181,10.9a19.235,19.235,0,0,1,15.338,13.67V7.5H259.526A24.857,24.857,0,0,1,262.181,10.9Z" transform="translate(-259.526 -7.5)" fill="#d9eeff" fill-rule="evenodd"/>
      </g>
      <g id="Grupo_1241243" data-name="Grupo 1241243" transform="translate(30.771 28.489)">
        <path id="Trazado_1238038" data-name="Trazado 1238038" d="M284.873,265.257a19.262,19.262,0,0,1-3.565,2.247,42.427,42.427,0,0,1-3.565,10.231,29.978,29.978,0,0,1-2.6,4.22H291.4V255.5a19.241,19.241,0,0,1-6.451,9.7Z" transform="translate(-275.145 -255.503)" fill="#d9eeff" fill-rule="evenodd"/>
      </g>
      <g id="Grupo_1241244" data-name="Grupo 1241244" transform="translate(12.057 6.674)">
        <path id="Trazado_1238039" data-name="Trazado 1238039" d="M140.287,76.342a16.489,16.489,0,1,0-28.006,11.8c-.025,7.7,28.006,10.111,28.006-11.8Z" transform="translate(-107.309 -59.856)" fill="#9fd4fe" fill-rule="evenodd"/>
      </g>
      <g id="Grupo_1241245" data-name="Grupo 1241245" transform="translate(18.021 27.895)">
        <path id="Trazado_1238040" data-name="Trazado 1238040" d="M165.937,250.174a6.517,6.517,0,0,0-5.139,6.081,15.01,15.01,0,0,0,8.426,4.141v-6.037l-1.369.926Z" transform="translate(-160.798 -250.174)" fill="#ffd772" fill-rule="evenodd"/>
      </g>
      <g id="Grupo_1241246" data-name="Grupo 1241246" transform="translate(23.16 27.756)">
        <path id="Trazado_1238041" data-name="Trazado 1238041" d="M206.888,249.066l1.919,5.111,1.369-.926,2.1-1.419-3.11-2.9h-.932A6.478,6.478,0,0,0,206.888,249.066Z" transform="translate(-206.888 -248.927)" fill="#eff6ff" fill-rule="evenodd"/>
      </g>
      <g id="Grupo_1241247" data-name="Grupo 1241247" transform="translate(26.447 30.661)">
        <path id="Trazado_1238042" data-name="Trazado 1238042" d="M236.368,276.4v6.037a15.22,15.22,0,0,0,4.2,0V276.4l-2.1-1.419Z" transform="translate(-236.368 -274.977)" fill="#eb5468" fill-rule="evenodd"/>
      </g>
      <g id="Grupo_1241248" data-name="Grupo 1241248" transform="translate(28.546 27.756)">
        <path id="Trazado_1238043" data-name="Trazado 1238043" d="M255.189,251.832l2.1,1.419,1.365.926,1.922-5.111a6.476,6.476,0,0,0-1.343-.139H258.3Z" transform="translate(-255.189 -248.927)" fill="#eff6ff" fill-rule="evenodd"/>
      </g>
      <g id="Grupo_1241249" data-name="Grupo 1241249" transform="translate(30.645 27.895)">
        <path id="Trazado_1238044" data-name="Trazado 1238044" d="M277.3,250.174l-1.922,5.111-1.365-.926V260.4a15.02,15.02,0,0,0,8.426-4.141A6.52,6.52,0,0,0,277.3,250.174Z" transform="translate(-274.011 -250.174)" fill="#ffd772" fill-rule="evenodd"/>
      </g>
      <g id="Grupo_1241250" data-name="Grupo 1241250" transform="translate(25.436 24.88)">
        <path id="Trazado_1238045" data-name="Trazado 1238045" d="M227.3,223.132v2.876l3.11,2.9,3.11-2.9v-2.876A4.515,4.515,0,0,1,227.3,223.132Z" transform="translate(-227.297 -223.132)" fill="#fed1a3" fill-rule="evenodd"/>
      </g>
      <g id="Grupo_1241251" data-name="Grupo 1241251" transform="translate(22.721 15.088)">
        <path id="Trazado_1238046" data-name="Trazado 1238046" d="M205.663,145.106a4.514,4.514,0,0,0,6.22,0c1.571-1.388,2.715-3.948,2.715-7.671,0-.164-.006-.329-.022-.49-3.673,1.637-8.354.613-11.226-1.631a5.766,5.766,0,0,0-.4,2.121C202.948,141.158,204.092,143.718,205.663,145.106Z" transform="translate(-202.948 -135.314)" fill="#ffe5c1" fill-rule="evenodd"/>
      </g>
      <g id="Grupo_1241252" data-name="Grupo 1241252" transform="translate(23.122 11.383)">
        <path id="Trazado_1238047" data-name="Trazado 1238047" d="M206.548,105.8c2.873,2.244,7.554,3.268,11.226,1.631a5.823,5.823,0,0,0-11.226-1.631Z" transform="translate(-206.548 -102.092)" fill="#375e7d" fill-rule="evenodd"/>
      </g>
      <g id="Grupo_1241253" data-name="Grupo 1241253" transform="translate(9.33 3.978)">
        <path id="Trazado_1238048" data-name="Trazado 1238048" d="M102.063,39.826a15.068,15.068,0,0,1,2.1,29.989,15.22,15.22,0,0,1-4.2,0,15.068,15.068,0,0,1,2.1-29.989Zm0-4.15a19.236,19.236,0,0,0-18.48,24.508v0a19.223,19.223,0,0,0,36.957,0v0a19.217,19.217,0,0,0-18.477-24.508Z" transform="translate(-82.847 -35.676)" fill="#375e7d" fill-rule="evenodd"/>
      </g>
      <g id="Grupo_1241254" data-name="Grupo 1241254" transform="translate(0.941 39.435)">
        <path id="Trazado_1238049" data-name="Trazado 1238049" d="M8.946,362.477l1.587,2.32.117,2.974.054,1.859a.9.9,0,0,0,1.15.831L13.737,370l3-.736,3,.736,1.884.462a.9.9,0,0,0,1.15-.831l.013-.455.041-1.4.114-2.974,1.716-2.5,1.056-1.561a.855.855,0,0,0-.458-1.308l-1.824-.642-2.911-1.021-1.931-2.317-1.214-1.454a.786.786,0,0,0-1.274,0l-1.214,1.454-1.934,2.317-2.908,1.021-1.827.642a.855.855,0,0,0-.455,1.308Z" transform="translate(-7.611 -353.668)" fill="#ffd772" fill-rule="evenodd"/>
      </g>
      <g id="Grupo_1241255" data-name="Grupo 1241255" transform="translate(43.009 41.018)">
        <path id="Trazado_1238050" data-name="Trazado 1238050" d="M386,368.827a3.549,3.549,0,0,0-.145,5l1.928,2.045,3.774-1.16,1.375-3.7-1.928-2.045a3.3,3.3,0,0,0-.556-.477A3.549,3.549,0,0,0,386,368.827Z" transform="translate(-384.896 -367.865)" fill="#f5a96c" fill-rule="evenodd"/>
      </g>
      <g id="Grupo_1241256" data-name="Grupo 1241256" transform="translate(48.293 46.711)">
        <path id="Trazado_1238051" data-name="Trazado 1238051" d="M437.442,418.921l-3.771,1.157-1.378,3.7.269.288,1.659,1.76a3.539,3.539,0,1,0,5.149-4.858Z" transform="translate(-432.293 -418.921)" fill="#f5a96c" fill-rule="evenodd"/>
      </g>
      <g id="Grupo_1241257" data-name="Grupo 1241257" transform="translate(0.941 39.435)">
        <path id="Trazado_1238052" data-name="Trazado 1238052" d="M7.764,360.735l1.182,1.742,1.587,2.32.117,2.974.054,1.859a.9.9,0,0,0,1.15.831L13.738,370l3-.736,3,.736,1.884.462a.9.9,0,0,0,1.15-.831l.013-.455.041-1.4.114-2.974,1.716-2.5,1.056-1.561a.855.855,0,0,0-.458-1.308l-1.824-.642-2.911-1.021-1.931-2.317-1.214-1.454a.786.786,0,0,0-1.274,0l-1.214,1.454-1.934,2.317-2.908,1.021-1.827.642a.855.855,0,0,0-.455,1.309Z" transform="translate(-7.612 -353.668)" fill="#ffd772" fill-rule="evenodd"/>
      </g>
      <g id="Grupo_1241258" data-name="Grupo 1241258" transform="translate(9.469 39.435)">
        <path id="Trazado_1238053" data-name="Trazado 1238053" d="M85.33,353.993a.877.877,0,0,0-.638-.326.612.612,0,0,0-.107.009c.038.142.073.284.107.43a28.281,28.281,0,0,1,.752,6.647,26.258,26.258,0,0,1-1.35,8.657l.6-.149,3,.736,1.884.462a.9.9,0,0,0,1.15-.831l.013-.455.041-1.4L90.9,364.8l1.716-2.5,1.056-1.561a.855.855,0,0,0-.458-1.308l-1.824-.642-2.911-1.021-1.931-2.317Z" transform="translate(-84.094 -353.667)" fill="#fbba58" fill-rule="evenodd"/>
      </g>
      <g id="Grupo_1241259" data-name="Grupo 1241259" transform="translate(43.306 41.018)">
        <path id="Trazado_1238054" data-name="Trazado 1238054" d="M393.3,372.908l2-1.89-1.928-2.045a3.3,3.3,0,0,0-.556-.477,3.549,3.549,0,0,0-4.447.332,3.485,3.485,0,0,0-.809,1.147,3.563,3.563,0,0,1,3.252.408,3.467,3.467,0,0,1,.556.48Z" transform="translate(-387.563 -367.866)" fill="#ea9a58" fill-rule="evenodd"/>
      </g>
      <g id="Grupo_1241260" data-name="Grupo 1241260" transform="translate(51.438 46.711)">
        <path id="Trazado_1238055" data-name="Trazado 1238055" d="M462.5,418.921l-2,1.887,1.931,2.048a3.55,3.55,0,0,1,.661,3.853,3.461,3.461,0,0,0,1.195-.74,3.549,3.549,0,0,0,.145-5Z" transform="translate(-460.497 -418.921)" fill="#ea9a58" fill-rule="evenodd"/>
      </g>
      <g id="Grupo_1241261" data-name="Grupo 1241261" transform="translate(27.535 11.383)">
        <path id="Trazado_1238056" data-name="Trazado 1238056" d="M246.119,102.181a5.844,5.844,0,0,1,3.407,5.3c0,.253,0,.5-.013.74a9.511,9.511,0,0,0,3.42-.79,5.843,5.843,0,0,0-5.8-5.335A5.931,5.931,0,0,0,246.119,102.181Z" transform="translate(-246.119 -102.092)" fill="#2b4d66" fill-rule="evenodd"/>
      </g>
      <g id="Grupo_1241262" data-name="Grupo 1241262" transform="translate(26.315 16.719)">
        <path id="Trazado_1238057" data-name="Trazado 1238057" d="M243.211,149.941a9.513,9.513,0,0,1-3.42.79c-.2,4.665-2.273,7.333-4.615,8a4.48,4.48,0,0,0,5.341-.632c1.571-1.388,2.715-3.948,2.715-7.671C243.233,150.267,243.227,150.1,243.211,149.941Z" transform="translate(-235.177 -149.941)" fill="#fed1a3" fill-rule="evenodd"/>
      </g>
      <g id="Grupo_1241263" data-name="Grupo 1241263" transform="translate(25.436 24.88)">
        <path id="Trazado_1238058" data-name="Trazado 1238058" d="M227.3,224.569a4.551,4.551,0,0,0,4.011,1.144c.651-.139.569.028.569.7v1.125l1.64-1.53v-2.876a4.48,4.48,0,0,1-5.341.632,5.258,5.258,0,0,1-.879-.632Z" transform="translate(-227.297 -223.131)" fill="#ffbc85" fill-rule="evenodd"/>
      </g>
      <g id="Grupo_1241264" data-name="Grupo 1241264" transform="translate(33.138 27.895)">
        <path id="Trazado_1238059" data-name="Trazado 1238059" d="M296.376,252.289a6.521,6.521,0,0,1,4.232,5.4,14.974,14.974,0,0,0,1.7-1.432,6.52,6.52,0,0,0-5.139-6.081Z" transform="translate(-296.376 -250.174)" fill="#fbba58" fill-rule="evenodd"/>
      </g>
      <g id="Grupo_1241265" data-name="Grupo 1241265" transform="translate(29.918 27.756)">
        <path id="Trazado_1238060" data-name="Trazado 1238060" d="M269.274,250.691a6.433,6.433,0,0,1,1.438.49l.793-2.115a6.477,6.477,0,0,0-1.343-.139h-.932l-1.64,1.53-.1.092h.439A6.477,6.477,0,0,1,269.274,250.691Z" transform="translate(-267.491 -248.927)" fill="#d9eeff" fill-rule="evenodd"/>
      </g>
      <g id="Grupo_1241266" data-name="Grupo 1241266" transform="translate(45.898 44.169)">
        <path id="Trazado_1238061" data-name="Trazado 1238061" d="M415.956,396.13l-5.149,4.858,2.4,2.538,5.149-4.855Z" transform="translate(-410.807 -396.13)" fill="#eb5468" fill-rule="evenodd"/>
      </g>
      <g id="Grupo_1241267" data-name="Grupo 1241267" transform="translate(49.043 44.169)">
        <path id="Trazado_1238062" data-name="Trazado 1238062" d="M441.015,396.13l-2,1.89,2.4,2.538,2-1.887Z" transform="translate(-439.011 -396.13)" fill="#e5384f" fill-rule="evenodd"/>
      </g>
      <g id="Grupo_1241268" data-name="Grupo 1241268" transform="translate(27.857 8.128)">
        <path id="Trazado_1238063" data-name="Trazado 1238063" d="M260.2,87.475a15.037,15.037,0,0,1-1.76,7.077,6.477,6.477,0,0,1,1.779,4.191A15.067,15.067,0,0,0,249.7,72.9c-.231,0-.461.006-.689.016A15.075,15.075,0,0,1,260.2,87.475Z" transform="translate(-249.01 -72.895)" fill="#85beef" fill-rule="evenodd"/>
      </g>
      <g id="Grupo_1241269" data-name="Grupo 1241269" transform="translate(24.023 3.978)">
        <path id="Trazado_1238064" data-name="Trazado 1238064" d="M234.216,54.893a15.025,15.025,0,0,1-4.542,10.781c-.259.253-.525.5-.8.727a19.181,19.181,0,0,1-14.248,7.175,19.228,19.228,0,0,0,23-13.389v0A19.217,19.217,0,0,0,219.15,35.676c-.247,0-.493.006-.74.016a19.256,19.256,0,0,1,12.544,9.839,15,15,0,0,1,3.262,9.362Z" transform="translate(-214.627 -35.676)" fill="#2b4d66" fill-rule="evenodd"/>
      </g>
      <g id="Grupo_1241270" data-name="Grupo 1241270" transform="translate(0.103 0)">
        <path id="Trazado_1238065" data-name="Trazado 1238065" d="M228.231,415.587a.836.836,0,1,0,0-1.673H222.9a.836.836,0,1,0,0,1.673Z" transform="translate(-197.317 -367.763)"/>
        <path id="Trazado_1238066" data-name="Trazado 1238066" d="M195.448,448.228a.836.836,0,0,0,.836.836h11.65a.836.836,0,0,0,0-1.673h-11.65A.836.836,0,0,0,195.448,448.228Z" transform="translate(-173.667 -397.507)"/>
        <path id="Trazado_1238067" data-name="Trazado 1238067" d="M55.979,48.182,49.726,41.55a4.349,4.349,0,0,0-1.867-1.168V28.6a20.089,20.089,0,0,0,0-10.8V.836A.836.836,0,0,0,47.023,0H20a.836.836,0,1,0,0,1.673H46.187V13.666a20.046,20.046,0,0,0-35.284.006v-12h5.166a.836.836,0,0,0,0-1.673h-6A.836.836,0,0,0,9.23.836v16.97a20.089,20.089,0,0,0,0,10.778V38.846a1.951,1.951,0,0,0-.421.356l-.02.023-3,3.594L1.271,44.4l-.039.015A1.763,1.763,0,0,0,.184,45.5a1.71,1.71,0,0,0,.2,1.445l.02.03,1.182,1.742,0,0,1.451,2.121.107,2.725L3.2,55.42c0,.014,0,.029,0,.043A1.716,1.716,0,0,0,4.94,57.089a2.05,2.05,0,0,0,.41-.042l.032-.007,4.684-1.149,4.687,1.149.031.007a1.806,1.806,0,0,0,1.466-.3,1.707,1.707,0,0,0,.632-.968h19.6a.836.836,0,0,0,0-1.673h-19.5l.015-.535.1-2.732,1.583-2.306,1.056-1.561.019-.029a1.708,1.708,0,0,0,.2-1.446A1.765,1.765,0,0,0,18.9,44.418l-.037-.014-4.518-1.586-3-3.594-.022-.025a1.962,1.962,0,0,0-.422-.354V32.717A20.033,20.033,0,0,0,40.41,39.351L42.991,42a4.39,4.39,0,0,0,.37,5.558L45.289,49.6h0l.012.013.885.938V54.1H40.414a.836.836,0,0,0,0,1.673h6.609a.836.836,0,0,0,.836-.836V52.327l1.754,1.861a4.376,4.376,0,0,0,6.365-6.006ZM13.207,44.066a.835.835,0,0,0,.366.254l4.711,1.654a.063.063,0,0,1,.038.1L17.3,47.59l-1.716,2.5a.836.836,0,0,0-.146.441l-.114,2.982-.053,1.828a.091.091,0,0,1-.136.069l-4.867-1.193a.838.838,0,0,0-.4,0L5,55.41a.111.111,0,0,1-.136-.066L4.814,53.5,4.7,50.53a.836.836,0,0,0-.145-.439L2.966,47.773,1.8,46.052c-.009-.016-.018-.058.052-.078L6.56,44.32a.834.834,0,0,0,.365-.253l3.136-3.757a.015.015,0,0,1,.015,0Zm15.339-2.49A18.381,18.381,0,1,1,46.926,23.2a18.4,18.4,0,0,1-18.38,18.381ZM41.721,38.3a20.187,20.187,0,0,0,4.465-5.576v7.471a4.354,4.354,0,0,0-1.977.657Zm4.211,9.545-1.354-1.437a2.713,2.713,0,0,1,.111-3.821h0a2.706,2.706,0,0,1,3.821.111l1.355,1.437Zm1.148,1.217,3.932-3.71,1.248,1.324-3.932,3.708Zm7.571,4.089a2.709,2.709,0,0,1-3.821-.11L49.474,51.6l3.933-3.709,1.355,1.437A2.706,2.706,0,0,1,54.651,53.15Z" transform="translate(-0.103 0)"/>
        <path id="Trazado_1238068" data-name="Trazado 1238068" d="M128.469,65.4a15.9,15.9,0,1,0,15.9,15.9A15.921,15.921,0,0,0,128.469,65.4Zm-2.935,29.829a14.208,14.208,0,0,1-6.725-3.486,5.723,5.723,0,0,1,3.763-4.721l1.646,4.386a.836.836,0,0,0,1.251.4l.064-.043v3.465Zm-.122-5.4L124.24,86.7c.062,0,.789,0,.789,0l2.1,1.964Zm2.809-13.535a12.681,12.681,0,0,0,2.089.177,10.916,10.916,0,0,0,3.131-.445c-.211,5.057-2.674,7.371-4.972,7.371-2.4,0-4.989-2.528-4.989-8.077a5.008,5.008,0,0,1,.058-.763A13.124,13.124,0,0,0,128.221,76.288Zm-4.127-3.37a4.988,4.988,0,0,1,9.258,1.371A10.908,10.908,0,0,1,124.094,72.918Zm6.649,11.62V85.5l-2.274,2.124L126.2,85.5v-.959a5.187,5.187,0,0,0,4.547,0Zm-1.011,10.936c-.416.037-.837.057-1.262.057s-.846-.02-1.262-.057V90.628l1.262-.854,1.263.855v4.844Zm2.177-8.777s.727,0,.789,0l-1.174,3.122-1.717-1.163Zm-.5,8.529V91.762l.06.041a.836.836,0,0,0,1.252-.4l1.649-4.386a5.73,5.73,0,0,1,3.763,4.721A14.208,14.208,0,0,1,131.4,95.225Zm8.122-4.978a7.352,7.352,0,0,0-7.015-5.223h-.1V83.353c1.576-1.554,2.715-4.2,2.715-8.04a6.661,6.661,0,1,0-13.323,0c0,3.845,1.139,6.486,2.715,8.04v1.671h-.1a7.352,7.352,0,0,0-7.015,5.222,14.23,14.23,0,1,1,22.115,0Z" transform="translate(-100.026 -58.104)"/>
      </g>
    </g>
  </g>
</svg>
