<svg xmlns="http://www.w3.org/2000/svg" xmlns:xlink="http://www.w3.org/1999/xlink" width="106.16" height="106.16" viewBox="0 0 106.16 106.16">
  <defs>
    <filter id="Trazado_982547" x="0" y="0" width="106.16" height="106.16" filterUnits="userSpaceOnUse">
      <feOffset dy="3" input="SourceAlpha"/>
      <feGaussianBlur stdDeviation="3" result="blur"/>
      <feFlood flood-opacity="0.161"/>
      <feComposite operator="in" in2="blur"/>
      <feComposite in="SourceGraphic"/>
    </filter>
  </defs>
  <g id="Grupo_1241281" data-name="Grupo 1241281" transform="translate(-190.54 -1089)">
    <g id="Grupo_1235053" data-name="Grupo 1235053" transform="translate(1.37 -2028.593)">
      <g id="Grupo_1233884" data-name="Grupo 1233884" transform="translate(198.17 3123.593)">
        <g id="Grupo_1228506" data-name="Grupo 1228506" transform="translate(0 0)">
          <g id="Grupo_1206132" data-name="Grupo 1206132">
            <g id="Grupo_1203794" data-name="Grupo 1203794">
              <g id="Grupo_1203345" data-name="Grupo 1203345" transform="translate(0 0)">
                <g id="Grupo_1177900" data-name="Grupo 1177900">
                  <g id="Grupo_1172010" data-name="Grupo 1172010" transform="translate(0)">
                    <g id="Grupo_1171046" data-name="Grupo 1171046">
                      <g id="Grupo_1148525" data-name="Grupo 1148525">
                        <g transform="matrix(1, 0, 0, 1, -9, -6)" filter="url(#Trazado_982547)">
                          <g id="Trazado_982547-2" data-name="Trazado 982547" transform="translate(9 6)" fill="#e9f9fd">
                            <path d="M 44.0802001953125 86.660400390625 C 38.33124923706055 86.660400390625 32.75506210327148 85.53479766845703 27.50652503967285 83.31484985351562 C 22.43628692626953 81.17032623291016 17.88242530822754 78.09992218017578 13.97144985198975 74.18894958496094 C 10.06047534942627 70.27797698974609 6.99007511138916 65.72411346435547 4.845550060272217 60.65387344360352 C 2.625600099563599 55.40533828735352 1.500000238418579 49.82915115356445 1.500000238418579 44.0802001953125 C 1.500000238418579 38.33124923706055 2.625600099563599 32.75506210327148 4.845550060272217 27.50652503967285 C 6.99007511138916 22.43628692626953 10.06047534942627 17.88242530822754 13.97144985198975 13.97144985198975 C 17.88242530822754 10.06047534942627 22.43628692626953 6.99007511138916 27.50652503967285 4.845550060272217 C 32.75506210327148 2.625600099563599 38.33124923706055 1.500000238418579 44.0802001953125 1.500000238418579 C 49.82915115356445 1.500000238418579 55.40533828735352 2.625600099563599 60.65387344360352 4.845550060272217 C 65.72411346435547 6.99007511138916 70.27797698974609 10.06047534942627 74.18894958496094 13.97144985198975 C 78.09992218017578 17.88242530822754 81.17032623291016 22.43628692626953 83.31484985351562 27.50652503967285 C 85.53479766845703 32.75506210327148 86.660400390625 38.33124923706055 86.660400390625 44.0802001953125 C 86.660400390625 49.82915115356445 85.53479766845703 55.40533828735352 83.31484985351562 60.65387344360352 C 81.17032623291016 65.72411346435547 78.09992218017578 70.27797698974609 74.18894958496094 74.18894958496094 C 70.27797698974609 78.09992218017578 65.72411346435547 81.17032623291016 60.65387344360352 83.31484985351562 C 55.40533828735352 85.53479766845703 49.82915115356445 86.660400390625 44.0802001953125 86.660400390625 Z" stroke="none"/>
                            <path d="M 44.0802001953125 3 C 38.53308486938477 3 33.15349960327148 4.085746765136719 28.09085845947266 6.227058410644531 C 23.19941711425781 8.29595947265625 18.80581665039062 11.25841522216797 15.03211212158203 15.03211212158203 C 11.25841522216797 18.80581665039062 8.29595947265625 23.19941711425781 6.227058410644531 28.09085845947266 C 4.085746765136719 33.15349960327148 3 38.53308486938477 3 44.0802001953125 C 3 49.62731552124023 4.085746765136719 55.00691604614258 6.227058410644531 60.06954193115234 C 8.29595947265625 64.96098327636719 11.25841522216797 69.35458374023438 15.03211212158203 73.12828826904297 C 18.80581665039062 76.90198516845703 23.19941711425781 79.86444091796875 28.09085845947266 81.93334197998047 C 33.15349960327148 84.07466125488281 38.53308486938477 85.160400390625 44.0802001953125 85.160400390625 C 49.62731552124023 85.160400390625 55.00691604614258 84.07466125488281 60.06954193115234 81.93334197998047 C 64.96099853515625 79.86444091796875 69.35458374023438 76.90198516845703 73.12828826904297 73.12828826904297 C 76.90198516845703 69.35458374023438 79.86444091796875 64.96099853515625 81.93334197998047 60.06954193115234 C 84.07466125488281 55.00691604614258 85.160400390625 49.62731552124023 85.160400390625 44.0802001953125 C 85.160400390625 38.53308486938477 84.07466125488281 33.15349960327148 81.93334197998047 28.09085845947266 C 79.86444091796875 23.19941711425781 76.90198516845703 18.80581665039062 73.12828826904297 15.03211212158203 C 69.35458374023438 11.25841522216797 64.96098327636719 8.29595947265625 60.06954193115234 6.227058410644531 C 55.00691604614258 4.085746765136719 49.62731552124023 3 44.0802001953125 3 M 44.0802001953125 0 C 68.42502593994141 0 88.160400390625 19.73538970947266 88.160400390625 44.0802001953125 C 88.160400390625 68.42502593994141 68.42502593994141 88.160400390625 44.0802001953125 88.160400390625 C 19.73538970947266 88.160400390625 0 68.42502593994141 0 44.0802001953125 C 0 19.73538970947266 19.73538970947266 0 44.0802001953125 0 Z" stroke="none" fill="#1d7083"/>
                          </g>
                        </g>
                      </g>
                    </g>
                  </g>
                </g>
              </g>
            </g>
          </g>
        </g>
      </g>
    </g>
    <g id="reclutamiento" transform="translate(217.901 1110.823)">
      <g id="Grupo_1241279" data-name="Grupo 1241279" transform="translate(0.753 0.753)">
        <path id="Trazado_1238069" data-name="Trazado 1238069" d="M44.036,57.432H9.53A2.03,2.03,0,0,1,7.5,55.4V9.53A2.03,2.03,0,0,1,9.53,7.5H33.809a2.639,2.639,0,0,1,1.866.773l9.618,9.618a2.639,2.639,0,0,1,.773,1.866V55.4a2.03,2.03,0,0,1-2.03,2.03Z" transform="translate(-7.5 -7.5)" fill="#eaf6ff"/>
        <path id="Trazado_1238070" data-name="Trazado 1238070" d="M265.191,17.89l-9.618-9.618a2.639,2.639,0,0,0-1.866-.773h-1.749v8.525a5.48,5.48,0,0,0,5.48,5.48H261.7a1.421,1.421,0,0,1,1.421,1.421V55.4a2.03,2.03,0,0,1-2.03,2.03h2.842a2.03,2.03,0,0,0,2.03-2.03V19.756a2.638,2.638,0,0,0-.773-1.866Z" transform="translate(-227.398 -7.499)" fill="#d8ecfe"/>
        <path id="Trazado_1238071" data-name="Trazado 1238071" d="M280.243,18.152a2.639,2.639,0,0,0,2.639,2.639h8.287a2.637,2.637,0,0,0-.535-.773L281.016,10.4a2.638,2.638,0,0,0-.773-.535v8.287Z" transform="translate(-252.841 -9.627)" fill="#b3dafe"/>
        <g id="Grupo_1241272" data-name="Grupo 1241272" transform="translate(20.668 20.668)">
          <path id="Trazado_1238072" data-name="Trazado 1238072" d="M0,0H4.06V4.465H0Z" transform="translate(18.774 21.537) rotate(-45)" fill="#ffd15b"/>
          <circle id="Elipse_12301" data-name="Elipse 12301" cx="12.179" cy="12.179" r="12.179" fill="#918291"/>
          <path id="Trazado_1238073" data-name="Trazado 1238073" d="M256.317,239.214a12.179,12.179,0,0,1-17.1,17.1,12.179,12.179,0,1,0,17.1-17.1Z" transform="translate(-236.601 -236.602)" fill="#7a6d79"/>
          <circle id="Elipse_12302" data-name="Elipse 12302" cx="8.931" cy="8.931" r="8.931" transform="translate(3.248 3.248)" fill="#00f2a6"/>
          <path id="Trazado_1238074" data-name="Trazado 1238074" d="M290.331,305.082l1.148,1.148,2.727-2.727a1.624,1.624,0,0,1,2.3,2.3l-3.875,3.875a1.624,1.624,0,0,1-2.3,0l-2.3-2.3a1.624,1.624,0,0,1,2.3-2.3Z" transform="translate(-280.09 -294.005)" fill="#eaf6ff"/>
          <path id="Trazado_1238075" data-name="Trazado 1238075" d="M428.991,423.987a.812.812,0,0,0-1.148,0l-3.856,3.856a.812.812,0,0,0,0,1.148l2.871,2.871h4.193a.812.812,0,0,0,.812-.812v-4.193Z" transform="translate(-402.597 -402.597)" fill="#918291"/>
          <path id="Trazado_1238076" data-name="Trazado 1238076" d="M446.509,423.987,444.5,426a.812.812,0,0,1,1.148,0l4.88,4.88v-4.019l-2.871-2.871A.812.812,0,0,0,446.509,423.987Z" transform="translate(-421.263 -402.597)" fill="#7a6d79"/>
        </g>
        <g id="Grupo_1241278" data-name="Grupo 1241278" transform="translate(3.248 4.06)">
          <path id="Trazado_1238077" data-name="Trazado 1238077" d="M40.84,47.907H59.717a1.015,1.015,0,0,1,1.015,1.015v1.421a1.015,1.015,0,0,1-1.015,1.015H40.84a1.015,1.015,0,0,1-1.015-1.015V48.922A1.015,1.015,0,0,1,40.84,47.907Z" transform="translate(-39.825 -47.907)" fill="#7a6d79"/>
          <path id="Trazado_1238078" data-name="Trazado 1238078" d="M212.374,47.907h-2.842a1.015,1.015,0,0,1,1.015,1.015v1.421a1.015,1.015,0,0,1-1.015,1.015h2.842a1.015,1.015,0,0,0,1.015-1.015V48.922A1.015,1.015,0,0,0,212.374,47.907Z" transform="translate(-192.482 -47.907)" fill="#685e68"/>
          <g id="Grupo_1241273" data-name="Grupo 1241273" transform="translate(0 6.698)">
            <circle id="Elipse_12303" data-name="Elipse 12303" cx="2.784" cy="2.784" r="2.784" transform="translate(1.785)" fill="#fed2a4"/>
            <path id="Trazado_1238079" data-name="Trazado 1238079" d="M44.395,169.992a4.568,4.568,0,0,0-4.569,4.568v1.523a1.333,1.333,0,0,0,1.333,1.333h6.472a1.333,1.333,0,0,0,1.333-1.333V174.56A4.568,4.568,0,0,0,44.395,169.992Z" transform="translate(-39.826 -164.425)" fill="#fd8087"/>
            <path id="Trazado_1238080" data-name="Trazado 1238080" d="M74.914,169.992a4.574,4.574,0,0,0-1.16.149,4.569,4.569,0,0,1,3.409,4.419v1.523a1.332,1.332,0,0,1-1.333,1.333h2.32a1.332,1.332,0,0,0,1.332-1.333V174.56A4.568,4.568,0,0,0,74.914,169.992Z" transform="translate(-70.345 -164.425)" fill="#fe646f"/>
          </g>
          <g id="Grupo_1241277" data-name="Grupo 1241277" transform="translate(0 22.936)">
            <g id="Grupo_1241274" data-name="Grupo 1241274">
              <path id="Trazado_1238081" data-name="Trazado 1238081" d="M42.262,279.452H40.638a.812.812,0,0,1-.812-.812v-1.624a.812.812,0,0,1,.812-.812h1.624a.812.812,0,0,1,.812.812v1.624A.812.812,0,0,1,42.262,279.452Z" transform="translate(-39.826 -276.204)" fill="#00f2a6"/>
            </g>
            <g id="Grupo_1241275" data-name="Grupo 1241275" transform="translate(0 7.815)">
              <path id="Trazado_1238082" data-name="Trazado 1238082" d="M42.262,357.234H40.638a.812.812,0,0,1-.812-.812V354.8a.812.812,0,0,1,.812-.812h1.624a.812.812,0,0,1,.812.812v1.624A.812.812,0,0,1,42.262,357.234Z" transform="translate(-39.826 -353.986)" fill="#00f2a6"/>
            </g>
            <g id="Grupo_1241276" data-name="Grupo 1241276" transform="translate(0 15.629)">
              <path id="Trazado_1238083" data-name="Trazado 1238083" d="M42.262,435.017H40.638a.812.812,0,0,1-.812-.812v-1.624a.812.812,0,0,1,.812-.812h1.624a.812.812,0,0,1,.812.812V434.2A.812.812,0,0,1,42.262,435.017Z" transform="translate(-39.826 -431.769)" fill="#00f2a6"/>
            </g>
          </g>
        </g>
      </g>
      <g id="Grupo_1241280" data-name="Grupo 1241280" transform="translate(0 0)">
        <path id="Trazado_1238084" data-name="Trazado 1238084" d="M28.89,171.171H2.783A1.277,1.277,0,0,1,1.507,169.9V135.534a.754.754,0,1,0-1.507,0V169.9a2.786,2.786,0,0,0,2.783,2.783H28.89a.754.754,0,0,0,0-1.507Z" transform="translate(0 -121.239)"/>
        <path id="Trazado_1238085" data-name="Trazado 1238085" d="M288.618,295.527a2.362,2.362,0,0,0-1.681.7l-2.194,2.194-.615-.615a2.377,2.377,0,0,0-3.362,3.362l2.3,2.3a2.377,2.377,0,0,0,3.362,0l3.875-3.875a2.377,2.377,0,0,0-1.681-4.058Zm.615,2.993-3.875,3.875a.87.87,0,0,1-1.231,0l-2.3-2.3a.87.87,0,0,1,1.231-1.231l1.148,1.148a.754.754,0,0,0,1.066,0L288,297.289a.87.87,0,0,1,1.231,1.231Z" transform="translate(-251.932 -265.836)"/>
        <path id="Trazado_1238086" data-name="Trazado 1238086" d="M247.726,238.041a9.685,9.685,0,1,0,9.684,9.685A9.7,9.7,0,0,0,247.726,238.041Zm0,17.862a8.178,8.178,0,1,1,8.177-8.178A8.187,8.187,0,0,1,247.726,255.9Z" transform="translate(-214.126 -214.126)"/>
        <path id="Trazado_1238087" data-name="Trazado 1238087" d="M51.219,45.149l-2.87-2.87a1.564,1.564,0,0,0-2.111-.093l-1.7-1.7a12.924,12.924,0,0,0,.5-12.921.754.754,0,1,0-1.332.7,11.437,11.437,0,1,1-1.945-2.665.754.754,0,0,0,1.077-1.054A13.005,13.005,0,0,0,40.072,22.4V13.011a3.37,3.37,0,0,0-.993-2.4L29.461.993A3.374,3.374,0,0,0,27.062,0H2.783A2.786,2.786,0,0,0,0,2.783v8a.754.754,0,0,0,1.507,0v-8A1.277,1.277,0,0,1,2.783,1.507H27.062a1.909,1.909,0,0,1,.34.032v7.74a3.4,3.4,0,0,0,3.392,3.392h7.739a1.866,1.866,0,0,1,.033.34v8.64a12.936,12.936,0,1,0,0,23.889v3.117a1.277,1.277,0,0,1-1.276,1.276H32.407a.754.754,0,1,0,0,1.507H37.29a2.786,2.786,0,0,0,2.783-2.783V44.792q.283-.164.557-.343L42.3,46.116l-.018.018a1.566,1.566,0,0,0,0,2.214l2.871,2.87a.754.754,0,1,0,1.066-1.066l-2.87-2.87a.056.056,0,0,1-.017-.041.055.055,0,0,1,.017-.041L47.2,43.344a.058.058,0,0,1,.083,0l2.871,2.87a.754.754,0,0,0,1.066-1.066ZM28.909,9.279V2.572L37.5,11.164H30.794A1.888,1.888,0,0,1,28.909,9.279ZM41.856,43.545a13.052,13.052,0,0,0,1.793-1.817l1.517,1.517-1.8,1.8Z" transform="translate(0 0)"/>
        <path id="Trazado_1238088" data-name="Trazado 1238088" d="M54.739,43.6V42.174a1.77,1.77,0,0,0-1.768-1.768H34.093a1.77,1.77,0,0,0-1.768,1.768V43.6a1.77,1.77,0,0,0,1.768,1.768H52.97A1.77,1.77,0,0,0,54.739,43.6Zm-20.907,0V42.174a.262.262,0,0,1,.261-.261H52.97a.262.262,0,0,1,.261.261V43.6a.262.262,0,0,1-.261.261H34.093A.262.262,0,0,1,33.832,43.6Z" transform="translate(-29.077 -36.347)"/>
        <path id="Trazado_1238089" data-name="Trazado 1238089" d="M32.324,119.489a2.088,2.088,0,0,0,2.086,2.086h6.472a2.088,2.088,0,0,0,2.086-2.086v-1.523a5.327,5.327,0,0,0-2.929-4.752,3.537,3.537,0,1,0-4.787,0,5.327,5.327,0,0,0-2.929,4.751v1.523Zm5.322-10.9a2.03,2.03,0,1,1-2.03,2.03A2.032,2.032,0,0,1,37.646,108.584Zm-3.815,9.382a3.815,3.815,0,0,1,7.63,0v1.523a.58.58,0,0,1-.579.579H34.41a.58.58,0,0,1-.579-.579v-1.523Z" transform="translate(-29.076 -96.319)"/>
        <path id="Trazado_1238090" data-name="Trazado 1238090" d="M32.325,271.892a1.567,1.567,0,0,0,1.565,1.565h1.624a1.567,1.567,0,0,0,1.565-1.565v-1.624a1.567,1.567,0,0,0-1.565-1.565H33.89a1.567,1.567,0,0,0-1.565,1.565Zm1.507-1.624a.059.059,0,0,1,.058-.058h1.624a.059.059,0,0,1,.058.058v1.624a.058.058,0,0,1-.058.058H33.89a.058.058,0,0,1-.058-.058Z" transform="translate(-29.077 -241.707)"/>
        <path id="Trazado_1238091" data-name="Trazado 1238091" d="M104.834,268.7h-7.1a.754.754,0,0,0,0,1.507h7.1a.754.754,0,1,0,0-1.507Z" transform="translate(-87.233 -241.707)"/>
        <path id="Trazado_1238092" data-name="Trazado 1238092" d="M104.834,301.028h-7.1a.754.754,0,0,0,0,1.507h7.1a.754.754,0,1,0,0-1.507Z" transform="translate(-87.233 -270.784)"/>
        <path id="Trazado_1238093" data-name="Trazado 1238093" d="M32.325,349.675a1.567,1.567,0,0,0,1.565,1.565h1.624a1.567,1.567,0,0,0,1.565-1.565v-1.624a1.567,1.567,0,0,0-1.565-1.565H33.89a1.567,1.567,0,0,0-1.565,1.565Zm1.507-1.624a.059.059,0,0,1,.058-.058h1.624a.059.059,0,0,1,.058.058v1.624a.058.058,0,0,1-.058.058H33.89a.059.059,0,0,1-.058-.058Z" transform="translate(-29.077 -311.675)"/>
        <path id="Trazado_1238094" data-name="Trazado 1238094" d="M104.834,346.485h-7.1a.754.754,0,0,0,0,1.507h7.1a.754.754,0,1,0,0-1.507Z" transform="translate(-87.233 -311.674)"/>
        <path id="Trazado_1238095" data-name="Trazado 1238095" d="M104.834,378.811h-7.1a.753.753,0,1,0,0,1.507h7.1a.753.753,0,1,0,0-1.507Z" transform="translate(-87.233 -340.753)"/>
        <path id="Trazado_1238096" data-name="Trazado 1238096" d="M32.325,427.458a1.567,1.567,0,0,0,1.565,1.566h1.624a1.567,1.567,0,0,0,1.565-1.566v-1.624a1.567,1.567,0,0,0-1.565-1.565H33.89a1.567,1.567,0,0,0-1.565,1.565Zm1.507-1.624a.058.058,0,0,1,.058-.058h1.624a.058.058,0,0,1,.058.058v1.624a.059.059,0,0,1-.058.058H33.89a.059.059,0,0,1-.058-.058Z" transform="translate(-29.077 -381.644)"/>
        <path id="Trazado_1238097" data-name="Trazado 1238097" d="M104.834,424.269h-7.1a.754.754,0,0,0,0,1.507h7.1a.754.754,0,0,0,0-1.507Z" transform="translate(-87.233 -381.644)"/>
        <path id="Trazado_1238098" data-name="Trazado 1238098" d="M104.834,456.594h-7.1a.754.754,0,0,0,0,1.507h7.1a.754.754,0,1,0,0-1.507Z" transform="translate(-87.233 -410.721)"/>
      </g>
    </g>
  </g>
</svg>
