<svg xmlns="http://www.w3.org/2000/svg" xmlns:xlink="http://www.w3.org/1999/xlink" width="295" height="171" viewBox="0 0 295 171">
  <defs>
    <clipPath id="clip-path">
      <rect id="Rectángulo_423918" data-name="Rectángulo 423918" width="295" height="171" transform="translate(1020 963)" fill="#fff" stroke="#707070" stroke-width="1"/>
    </clipPath>
  </defs>
  <g id="Grupo_1241714" data-name="Grupo 1241714" transform="translate(-1020 -963)">
    <rect id="Rectángulo_423998" data-name="Rectángulo 423998" width="190" height="171" transform="translate(1107 963)" fill="#e6f0cd"/>
    <g id="Enmascarar_grupo_1211520" data-name="Enmascarar grupo 1211520" clip-path="url(#clip-path)">
      <g id="OBJECTS" transform="translate(971.883 883.998)">
        <g id="Grupo_1241713" data-name="Grupo 1241713" transform="translate(48.117 89.683)">
          <g id="Grupo_1241647" data-name="Grupo 1241647" transform="translate(0 79.968)">
            <g id="Grupo_1241644" data-name="Grupo 1241644" transform="translate(19.655)">
              <path id="Trazado_1238889" data-name="Trazado 1238889" d="M129.156,302.93s-2.71-55.856-27.1-74.9-16.562,16.787-4.818,31.843,29.209,43.06,29.209,43.06Z" transform="translate(-86.072 -222.578)" fill="#e2bfcd"/>
              <g id="Grupo_1241643" data-name="Grupo 1241643" transform="translate(7.455 14.259)">
                <path id="Trazado_1238890" data-name="Trazado 1238890" d="M120.624,258.783s14.4,12.244,29.475,66.092h-1.858S137.282,285.553,120.624,258.783Z" transform="translate(-114.47 -258.783)" fill="#fff"/>
                <path id="Trazado_1238891" data-name="Trazado 1238891" d="M119.252,263.128c-.183.727-.352,1.455-.5,2.186s-.288,1.463-.43,2.195q-.394,2.2-.711,4.408l.671-.447c-1.093-.308-2.182-.637-3.282-.92l-1.648-.436-1.655-.408c-1.106-.264-2.214-.518-3.33-.745s-2.235-.444-3.368-.608c1.057.442,2.127.833,3.2,1.208s2.156.728,3.24,1.07l1.63.5,1.638.471c1.09.322,2.192.6,3.289.9l.606.164.065-.611q.235-2.219.4-4.447c.043-.744.1-1.487.126-2.233S119.25,263.877,119.252,263.128Z" transform="translate(-104.999 -261.417)" fill="#fff"/>
                <path id="Trazado_1238892" data-name="Trazado 1238892" d="M136.106,295.2c-.183.727-.352,1.455-.5,2.186s-.288,1.463-.43,2.2q-.394,2.2-.711,4.408l.671-.447c-1.093-.308-2.182-.637-3.282-.92l-1.648-.436-1.655-.408c-1.106-.264-2.214-.518-3.33-.745s-2.235-.444-3.368-.608c1.057.442,2.127.833,3.2,1.208s2.156.728,3.24,1.07l1.63.5,1.638.471c1.09.322,2.192.6,3.289.9l.606.164.065-.611q.235-2.219.4-4.447c.043-.744.1-1.487.126-2.233S136.1,295.949,136.106,295.2Z" transform="translate(-115.214 -280.857)" fill="#fff"/>
                <path id="Trazado_1238893" data-name="Trazado 1238893" d="M151.02,329.343c-.288.692-.562,1.388-.816,2.089s-.5,1.4-.748,2.108q-.713,2.117-1.352,4.256l.729-.344c-1.036-.466-2.064-.951-3.111-1.393l-1.566-.674-1.577-.647c-1.055-.423-2.114-.839-3.184-1.227s-2.145-.768-3.242-1.1c.98.592,1.982,1.136,2.99,1.666s2.026,1.038,3.048,1.535l1.539.734,1.551.707c1.03.479,2.08.915,3.121,1.369l.575.251.154-.6q.559-2.161,1.051-4.34c.152-.73.316-1.456.453-2.19S150.907,330.084,151.02,329.343Z" transform="translate(-123.883 -301.552)" fill="#fff"/>
              </g>
            </g>
            <g id="Grupo_1241646" data-name="Grupo 1241646" transform="translate(0 38.213)">
              <path id="Trazado_1238894" data-name="Trazado 1238894" d="M43.438,339.292c9.1,11.5,35.029,18.687,42.68,20.6,1.365.34,2.15.514,2.15.514H89.7s-9.564-17.844-21.081-27.1-22.583-14.225-27.778-13.663S32.709,325.741,43.438,339.292Z" transform="translate(-36.167 -319.601)" fill="#e2bfcd"/>
              <g id="Grupo_1241645" data-name="Grupo 1241645" transform="translate(12.032 7.357)">
                <path id="Trazado_1238895" data-name="Trazado 1238895" d="M66.717,338.28c13.967,9.342,27.925,22.6,37.918,32.939,1.365.34,2.15.514,2.15.514h1.147C80.547,342.257,66.717,338.28,66.717,338.28Z" transform="translate(-66.717 -338.28)" fill="#fff"/>
                <path id="Trazado_1238896" data-name="Trazado 1238896" d="M83.123,347.79c.505,1.512,1.059,3,1.641,4.479.282.742.59,1.473.886,2.21s.613,1.463.919,2.195l.384-.711c-1.461.191-2.915.425-4.372.646-1.453.242-2.907.474-4.356.747q-1.088.193-2.172.411c-.724.141-1.446.285-2.167.442-1.443.3-2.883.633-4.314,1.013,1.479-.08,2.95-.21,4.416-.366.734-.072,1.466-.158,2.2-.247s1.463-.176,2.193-.278c1.462-.187,2.917-.414,4.374-.631,1.454-.239,2.909-.464,4.358-.733l.668-.124-.284-.587c-.345-.714-.677-1.434-1.036-2.142s-.7-1.424-1.069-2.128C84.669,350.572,83.921,349.17,83.123,347.79Z" transform="translate(-68.448 -344.044)" fill="#fff"/>
                <path id="Trazado_1238897" data-name="Trazado 1238897" d="M110.2,366.235c.158.707.329,1.408.52,2.1s.389,1.387.586,2.08l.636,2.061.675,2.048.4-.7c-1.087.21-2.179.4-3.261.632l-1.626.34-1.62.369c-1.078.254-2.155.518-3.226.81s-2.14.594-3.2.951c1.114-.073,2.219-.2,3.319-.339s2.2-.3,3.291-.479l1.638-.276,1.633-.3c1.09-.195,2.171-.438,3.256-.658l.623-.126-.225-.576-.785-2.008-.823-1.995c-.289-.659-.568-1.323-.874-1.976S110.525,366.881,110.2,366.235Z" transform="translate(-86.94 -355.225)" fill="#fff"/>
              </g>
            </g>
          </g>
          <g id="Grupo_1241653" data-name="Grupo 1241653" transform="translate(231.431 73.198)">
            <g id="Grupo_1241648" data-name="Grupo 1241648">
              <path id="Trazado_1238898" data-name="Trazado 1238898" d="M579.737,202.114A58.194,58.194,0,0,0,552.479,235.6c-6.106,19.63.488,27.321,3.046,29.446-.935,6.974-1.745,14.917-2.345,23.955l1.791-.376s.643-9.847,2.585-23.329c10.355-4.168,15.752-15.529,15.676-28.866C573.153,222.628,579.737,202.114,579.737,202.114Z" transform="translate(-549.961 -202.114)" fill="#e2bfcd"/>
              <path id="Trazado_1238899" data-name="Trazado 1238899" d="M568.8,259.087l1.483-.786,1.47-.811c.976-.549,1.948-1.1,2.907-1.687s1.914-1.172,2.843-1.812c-1.06.387-2.1.82-3.124,1.267s-2.047.914-3.06,1.391l-1.513.728-1.5.753c-.347.171-.69.351-1.033.53.979-3.76,2.116-7.869,3.422-12.233.378-.219.754-.441,1.126-.672l1.185-.724,1.173-.749c.779-.508,1.554-1.023,2.317-1.565s1.523-1.092,2.26-1.691c-.853.344-1.685.734-2.511,1.139s-1.642.83-2.453,1.266l-1.211.666-1.2.691c-.078.044-.155.092-.233.137,1.646-5.413,3.548-11.192,5.73-17.168,0,0-3.775,5.746-7.618,17.739-.355-1.037-.716-2.072-1.092-3.1-.259-.684-.509-1.37-.781-2.049s-.543-1.357-.833-2.029c.154.723.318,1.442.5,2.156s.366,1.424.55,2.136q.578,2.126,1.214,4.229l.011.037c-1.084,3.517-2.163,7.531-3.153,12.057-.384-1.024-.775-2.046-1.185-3.061-.285-.677-.558-1.357-.859-2.029s-.6-1.343-.923-2.006c.154.722.321,1.439.507,2.149s.38,1.419.572,2.127q.607,2.115,1.286,4.206l.186.576h0c-.732,3.553-1.405,7.4-1.984,11.553-.5-.891-1-1.778-1.514-2.658-.381-.627-.752-1.26-1.148-1.88s-.791-1.24-1.208-1.848c.258.691.529,1.376.818,2.051s.585,1.347.88,2.02q.911,2,1.89,3.971l.047.094q-.452,3.471-.81,7.21s.418-2.55,1.339-6.98l.2-.14c.912-.649,1.835-1.281,2.732-1.951l1.352-1,1.335-1.019c.885-.686,1.765-1.379,2.628-2.1s1.72-1.441,2.546-2.21c-.991.538-1.952,1.119-2.9,1.712s-1.89,1.205-2.822,1.826l-1.389.943-1.373.966c-.669.463-1.323.946-1.977,1.428.736-3.441,1.732-7.8,3.021-12.834C567.547,259.742,568.178,259.423,568.8,259.087Z" transform="translate(-555.743 -217.81)" fill="#fff"/>
            </g>
            <g id="Grupo_1241650" data-name="Grupo 1241650" transform="translate(12.342 23.588)">
              <path id="Trazado_1238900" data-name="Trazado 1238900" d="M581.778,324.318s5.978-44.35,28.375-57.816,13.278,14.556,2.112,25.733-28.136,32.274-28.136,32.274Z" transform="translate(-581.778 -262.919)" fill="#e2bfcd"/>
              <g id="Grupo_1241649" data-name="Grupo 1241649" transform="translate(0 10.778)">
                <path id="Trazado_1238901" data-name="Trazado 1238901" d="M611.641,290.7s-13.288,8.747-29.863,50.621l1.612.131S595.451,310.873,611.641,290.7Z" transform="translate(-581.778 -290.703)" fill="#fff"/>
                <path id="Trazado_1238902" data-name="Trazado 1238902" d="M640.149,292.746c.111.592.211,1.185.292,1.779s.155,1.187.231,1.781c.133,1.188.241,2.376.331,3.565l-.553-.4c.969-.169,1.934-.354,2.907-.5l1.457-.231,1.463-.209c.976-.132,1.954-.257,2.937-.359s1.968-.2,2.961-.247c-.945.278-1.9.514-2.857.737s-1.918.429-2.881.625l-1.447.283-1.452.26c-.966.18-1.94.323-2.911.482l-.537.088-.016-.492q-.06-1.786-.059-3.575c.011-.6.011-1.192.036-1.789S640.1,293.343,640.149,292.746Z" transform="translate(-617.424 -291.953)" fill="#fff"/>
                <path id="Trazado_1238903" data-name="Trazado 1238903" d="M623.189,317.5c.111.592.21,1.185.291,1.779s.155,1.187.231,1.781c.133,1.188.241,2.376.331,3.565l-.553-.4c.969-.169,1.934-.354,2.907-.5l1.458-.232,1.462-.209c.976-.132,1.954-.257,2.937-.359s1.967-.2,2.961-.247c-.945.278-1.9.514-2.857.737s-1.918.429-2.881.625l-1.447.283-1.452.26c-.966.18-1.94.323-2.911.482l-.537.088-.017-.492q-.06-1.786-.059-3.575c.011-.6.011-1.192.036-1.79S623.143,318.1,623.189,317.5Z" transform="translate(-607.043 -307.107)" fill="#fff"/>
                <path id="Trazado_1238904" data-name="Trazado 1238904" d="M607.181,344.009c.2.572.4,1.146.572,1.723s.343,1.156.512,1.734q.481,1.739.9,3.489l-.61-.325c.929-.3,1.852-.612,2.789-.891l1.4-.427,1.41-.4c.943-.263,1.889-.519,2.843-.753s1.911-.461,2.884-.645c-.889.4-1.793.766-2.7,1.117s-1.824.684-2.744,1.009l-1.383.476-1.391.455c-.925.309-1.864.583-2.8.872l-.515.16-.1-.485q-.345-1.763-.63-3.535c-.085-.593-.18-1.184-.251-1.779S607.231,344.608,607.181,344.009Z" transform="translate(-597.327 -323.33)" fill="#fff"/>
              </g>
            </g>
            <g id="Grupo_1241652" data-name="Grupo 1241652" transform="translate(14.888 62.608)">
              <path id="Trazado_1238905" data-name="Trazado 1238905" d="M628.172,378.905c-9.4,7.114-30.735,7.361-36.988,7.274-1.115-.017-1.751-.043-1.751-.043l-1.094-.3s11.1-11.985,21.869-16.845,20.278-6.451,24.127-4.932S639.251,370.522,628.172,378.905Z" transform="translate(-588.339 -363.507)" fill="#e2bfcd"/>
              <g id="Grupo_1241651" data-name="Grupo 1241651" transform="translate(0.218 4.64)">
                <path id="Trazado_1238906" data-name="Trazado 1238906" d="M627.5,375.759c-12.657,4.415-26.14,11.9-35.973,17.919-1.115-.017-1.751-.043-1.751-.043l-.876-.238C616.091,376,627.5,375.759,627.5,375.759Z" transform="translate(-588.901 -375.646)" fill="#fff"/>
                <path id="Trazado_1238907" data-name="Trazado 1238907" d="M648.8,375.468c-.707,1.079-1.447,2.13-2.206,3.166-.373.523-.764,1.031-1.147,1.546s-.779,1.018-1.169,1.528l-.142-.636c1.076.452,2.137.938,3.2,1.413,1.059.491,2.12.975,3.169,1.489q.79.376,1.572.773c.522.26,1.044.523,1.561.8,1.038.537,2.068,1.094,3.08,1.688-1.113-.369-2.209-.776-3.3-1.2-.545-.209-1.087-.428-1.627-.649s-1.08-.442-1.616-.673c-1.077-.45-2.141-.929-3.207-1.4-1.06-.488-2.124-.967-3.174-1.478l-.484-.236.342-.4c.416-.487.822-.982,1.247-1.462s.837-.97,1.269-1.444C647.029,377.325,647.9,376.383,648.8,375.468Z" transform="translate(-622.21 -375.468)" fill="#fff"/>
                <path id="Trazado_1238908" data-name="Trazado 1238908" d="M629.32,385.539c-.271.52-.551,1.035-.845,1.539s-.592,1.005-.89,1.507l-.925,1.482-.951,1.463-.154-.633c.786.389,1.581.763,2.357,1.171l1.17.6,1.159.625c.77.423,1.536.853,2.292,1.3s1.509.909,2.241,1.408c-.836-.288-1.653-.615-2.464-.954S630.7,394.36,629.9,394l-1.193-.556-1.183-.578c-.791-.379-1.566-.793-2.348-1.191l-.449-.228.294-.4,1.026-1.409,1.053-1.391c.361-.456.715-.917,1.087-1.366S628.933,385.976,629.32,385.539Z" transform="translate(-610.829 -381.632)" fill="#fff"/>
              </g>
            </g>
          </g>
          <g id="Grupo_1241712" data-name="Grupo 1241712" transform="translate(34.275)">
            <g id="Grupo_1241659" data-name="Grupo 1241659" transform="translate(97.26 6)">
              <path id="Trazado_1238909" data-name="Trazado 1238909" d="M461.384,95.529v62.736a6.154,6.154,0,0,1-6.419,5.847H346.452a6.154,6.154,0,0,1-6.419-5.847V95.529a1.245,1.245,0,0,1,0-.129,6.164,6.164,0,0,1,6.415-5.717H454.966A6.164,6.164,0,0,1,461.38,95.4,1.267,1.267,0,0,1,461.384,95.529Z" transform="translate(-340.033 -89.683)" fill="#dfdcf4"/>
              <g id="Grupo_1241656" data-name="Grupo 1241656" transform="translate(10.825 10.055)">
                <g id="Grupo_1241655" data-name="Grupo 1241655">
                  <rect id="Rectángulo_423969" data-name="Rectángulo 423969" width="2.772" height="21.308" transform="translate(4.004 34.836)" fill="#a5a3cc"/>
                  <path id="Trazado_1238910" data-name="Trazado 1238910" d="M440.043,117.594v52.918H362.782v.389h77.65V117.594Z" transform="translate(-362.782 -114.368)" fill="#a5a3cc"/>
                  <rect id="Rectángulo_423970" data-name="Rectángulo 423970" width="2.772" height="46.868" transform="translate(66.077 9.276)" fill="#a5a3cc"/>
                  <rect id="Rectángulo_423971" data-name="Rectángulo 423971" width="2.772" height="40.451" transform="translate(53.663 15.693)" fill="#a5a3cc"/>
                  <rect id="Rectángulo_423972" data-name="Rectángulo 423972" width="2.772" height="27.576" transform="translate(41.248 28.568)" fill="#a5a3cc"/>
                  <rect id="Rectángulo_423973" data-name="Rectángulo 423973" width="2.772" height="34.618" transform="translate(28.834 21.527)" fill="#a5a3cc"/>
                  <rect id="Rectángulo_423974" data-name="Rectángulo 423974" width="2.772" height="27.576" transform="translate(16.419 28.568)" fill="#a5a3cc"/>
                  <g id="Grupo_1241654" data-name="Grupo 1241654" transform="translate(5.145 1.183)">
                    <path id="Trazado_1238911" data-name="Trazado 1238911" d="M374.085,141.059l-.49-.748,25.088-16.423,12.388,8.984L435.635,113.3l.557.7-25.1,20-12.44-9.021Z" transform="translate(-373.595 -113.299)" fill="#a5a3cc"/>
                  </g>
                  <path id="Trazado_1238912" data-name="Trazado 1238912" d="M499.221,111.509l2.671,3.394,1.736-4.089Z" transform="translate(-434.295 -110.814)" fill="#a5a3cc"/>
                  <rect id="Rectángulo_423975" data-name="Rectángulo 423975" width="0.578" height="0.578" transform="translate(16.968 57.708)" fill="#96b4d6"/>
                  <rect id="Rectángulo_423976" data-name="Rectángulo 423976" width="0.578" height="0.578" transform="translate(18.065 57.708)" fill="#96b4d6"/>
                  <rect id="Rectángulo_423977" data-name="Rectángulo 423977" width="0.578" height="0.578" transform="translate(29.382 57.708)" fill="#96b4d6"/>
                  <rect id="Rectángulo_423978" data-name="Rectángulo 423978" width="0.578" height="0.578" transform="translate(30.479 57.708)" fill="#96b4d6"/>
                  <rect id="Rectángulo_423979" data-name="Rectángulo 423979" width="0.578" height="0.578" transform="translate(41.797 57.708)" fill="#96b4d6"/>
                  <rect id="Rectángulo_423980" data-name="Rectángulo 423980" width="0.578" height="0.578" transform="translate(42.894 57.708)" fill="#96b4d6"/>
                  <rect id="Rectángulo_423981" data-name="Rectángulo 423981" width="0.578" height="0.578" transform="translate(54.211 57.708)" fill="#96b4d6"/>
                  <rect id="Rectángulo_423982" data-name="Rectángulo 423982" width="0.578" height="0.578" transform="translate(55.309 57.708)" fill="#96b4d6"/>
                  <rect id="Rectángulo_423983" data-name="Rectángulo 423983" width="0.578" height="0.578" transform="translate(66.626 57.708)" fill="#96b4d6"/>
                  <rect id="Rectángulo_423984" data-name="Rectángulo 423984" width="0.578" height="0.578" transform="translate(67.723 57.708)" fill="#96b4d6"/>
                </g>
              </g>
              <g id="Grupo_1241658" data-name="Grupo 1241658" transform="translate(0.004)">
                <path id="Trazado_1238913" data-name="Trazado 1238913" d="M461.384,95.4H340.042a6.164,6.164,0,0,1,6.415-5.717H454.97A6.164,6.164,0,0,1,461.384,95.4Z" transform="translate(-340.042 -89.683)" fill="#a5a3cc"/>
                <g id="Grupo_1241657" data-name="Grupo 1241657" transform="translate(6.007 1.744)">
                  <path id="Trazado_1238914" data-name="Trazado 1238914" d="M354.895,94.462a1.115,1.115,0,1,1-1.115-1.115A1.115,1.115,0,0,1,354.895,94.462Z" transform="translate(-352.665 -93.347)" fill="#fff"/>
                  <path id="Trazado_1238915" data-name="Trazado 1238915" d="M364.679,94.462a1.115,1.115,0,1,1-1.115-1.115A1.115,1.115,0,0,1,364.679,94.462Z" transform="translate(-357.793 -93.347)" fill="#fff"/>
                  <path id="Trazado_1238916" data-name="Trazado 1238916" d="M374.463,94.462a1.115,1.115,0,1,1-1.115-1.115A1.115,1.115,0,0,1,374.463,94.462Z" transform="translate(-362.921 -93.347)" fill="#fff"/>
                </g>
              </g>
            </g>
            <g id="Grupo_1241674" data-name="Grupo 1241674" transform="translate(180.148 16.108)">
              <g id="Grupo_1241660" data-name="Grupo 1241660" transform="translate(9.791)">
                <path id="Trazado_1238917" data-name="Trazado 1238917" d="M561.35,171.946s-5.623,6.891-10.479,5.142a4.457,4.457,0,0,1-3.214-3.341,5.684,5.684,0,0,1,.3-2.974l1.259-.383,1.237-3.284,5.98-3.829c.576.142,1.307.345,1.949.525.063.889.158,1.959.288,2.766a7.252,7.252,0,0,0,.155.74A28.044,28.044,0,0,0,561.35,171.946Z" transform="translate(-541.491 -144.364)" fill="#efaca5"/>
                <path id="Trazado_1238918" data-name="Trazado 1238918" d="M558.668,166.566a11.344,11.344,0,0,1-11.011,7.179,5.684,5.684,0,0,1,.3-2.974l1.259-.383,1.237-3.284,5.98-3.829c.576.142,1.307.345,1.949.525C558.443,164.69,558.538,165.759,558.668,166.566Z" transform="translate(-541.491 -144.363)" fill="#d98a88"/>
                <path id="Trazado_1238919" data-name="Trazado 1238919" d="M539.8,154.869c-.243.972-1.551,1.482-2.923,1.139s-2.287-1.408-2.044-2.379,1.551-1.482,2.923-1.139S540.044,153.9,539.8,154.869Z" transform="translate(-534.795 -138.654)" fill="#d98a88"/>
                <path id="Trazado_1238920" data-name="Trazado 1238920" d="M555.992,145.151a9.538,9.538,0,0,1-9.146,8.82c-4.443-.023-6.971-4.009-6.735-8.9s-.015-8.82,8.263-8.82C552.818,136.248,556.228,140.257,555.992,145.151Z" transform="translate(-537.573 -130.197)" fill="#efaca5"/>
                <path id="Trazado_1238921" data-name="Trazado 1238921" d="M547.873,154.87a4.278,4.278,0,0,0-.017,2.742" transform="translate(-541.524 -139.958)" fill="none" stroke="#dd4b47" stroke-linecap="round" stroke-miterlimit="10" stroke-width="1"/>
                <path id="Trazado_1238922" data-name="Trazado 1238922" d="M553.292,153.7c0,.253-.067.459-.149.459s-.149-.205-.149-.459.067-.459.149-.459S553.292,153.447,553.292,153.7Z" transform="translate(-544.333 -139.105)" fill="none" stroke="#2c1106" stroke-linecap="round" stroke-miterlimit="10" stroke-width="1"/>
                <path id="Trazado_1238923" data-name="Trazado 1238923" d="M542.628,152.737c0,.253-.067.459-.149.459s-.149-.206-.149-.459.067-.459.149-.459S542.628,152.484,542.628,152.737Z" transform="translate(-538.744 -138.599)" fill="none" stroke="#2c1106" stroke-linecap="round" stroke-miterlimit="10" stroke-width="1"/>
                <path id="Trazado_1238924" data-name="Trazado 1238924" d="M540.877,141.338s3.072,3.242,11.433.853c0,0,.267,2.632,1.456,3.588s4.315-5.649,0-6.7a29.4,29.4,0,0,0-8.218-.921,10.628,10.628,0,0,0-2.24.448,24.638,24.638,0,0,0-2.809,1.958Z" transform="translate(-537.784 -131.183)" fill="#d98a88"/>
                <path id="Trazado_1238925" data-name="Trazado 1238925" d="M538.728,140.552s-1.1,5.162.455,7.274a42.612,42.612,0,0,1,1.081-6.463C540.946,139.187,538.728,140.552,538.728,140.552Z" transform="translate(-536.659 -132.232)" fill="#2c1106"/>
                <path id="Trazado_1238926" data-name="Trazado 1238926" d="M555.19,139.92l-2.541.89a15,15,0,0,1-1.823-7.133s-6.462,2.051-10.94.128a6.93,6.93,0,0,1-2.812-1.994c-.019-.024-.038-.052-.057-.076-1.3-1.737-.833-3.774.214-5.387,2.046-3.16,12.7-4.787,16.013,1.323.057.1.109.209.162.314a7.63,7.63,0,0,1,.566,1.6S559.244,131.426,555.19,139.92Z" transform="translate(-535.544 -123.533)" fill="#2c1106"/>
                <path id="Trazado_1238927" data-name="Trazado 1238927" d="M553.244,127.672c-2.313-1.4-7.3-3.854-11.592-2.084-3.869,1.594-4.587,4.435-4.635,6.148-1.3-1.737-.833-3.774.214-5.387C539.277,123.189,549.927,121.562,553.244,127.672Z" transform="translate(-535.544 -123.533)" fill="#683518"/>
                <path id="Trazado_1238928" data-name="Trazado 1238928" d="M573.266,158.228c0,1-1.146,1.813-2.56,1.813s-2.56-.812-2.56-1.813,1.146-1.813,2.56-1.813S573.266,157.226,573.266,158.228Z" transform="translate(-552.276 -140.768)" fill="#efaca5"/>
                <path id="Trazado_1238929" data-name="Trazado 1238929" d="M541.462,148.927a1.9,1.9,0,0,1,2.351.256" transform="translate(-538.289 -136.684)" fill="none" stroke="#2c1106" stroke-linecap="round" stroke-miterlimit="10" stroke-width="1"/>
                <path id="Trazado_1238930" data-name="Trazado 1238930" d="M552.468,149.515a2.047,2.047,0,0,1,2.453.256" transform="translate(-544.058 -136.992)" fill="none" stroke="#2c1106" stroke-linecap="round" stroke-miterlimit="10" stroke-width="1"/>
                <path id="Trazado_1238931" data-name="Trazado 1238931" d="M554.136,154.883l-1.611-.678s-.667,4.435-4.38,6.43c-.12-.629-.795-2.941-4.235-2.81-2.831.107-3.113,1.344-3.04,2.048a9.861,9.861,0,0,1-1.808-4.668s-1.863,4.117-.329,7.442a6.752,6.752,0,0,0,8.281,3.585C550.253,165.273,554.288,160.717,554.136,154.883Z" transform="translate(-536.542 -139.609)" fill="#2c1106"/>
                <path id="Trazado_1238932" data-name="Trazado 1238932" d="M547.079,163.833a16.971,16.971,0,0,0,3.626-.384,2.385,2.385,0,0,1-1.536,1.792A1.518,1.518,0,0,1,547.079,163.833Z" transform="translate(-541.234 -144.455)" fill="#fff"/>
              </g>
              <g id="Grupo_1241662" data-name="Grupo 1241662" transform="translate(2.739 29.264)">
                <path id="Trazado_1238933" data-name="Trazado 1238933" d="M527.053,290.374c-.339.806-.921-.168-.921-.168s-.12,1.468-.7.934a6.218,6.218,0,0,1-.93-2.465,11.709,11.709,0,0,1,.107,1.316c0,.585-.646,1.61-1.281-.769a30.75,30.75,0,0,1-.313-6.581c.041-1.7.123-3.016.123-3.016l3.244.165.253.013S527.392,289.567,527.053,290.374Z" transform="translate(-521.553 -234.612)" fill="#efaca5"/>
                <path id="Trazado_1238934" data-name="Trazado 1238934" d="M526.815,282.438l-3.772.2c.041-1.7.123-3.016.123-3.016l3.244.165C526.6,281.039,526.815,282.438,526.815,282.438Z" transform="translate(-521.583 -234.611)" fill="#d88b87"/>
                <g id="Grupo_1241661" data-name="Grupo 1241661">
                  <path id="Trazado_1238935" data-name="Trazado 1238935" d="M529.065,185.03s-.072.065-.2.207c-.814.9-3.873,4.875-4.883,14.772-1.169,11.455-3.143,29.949-3.143,29.949l5.034,1.621Z" transform="translate(-520.428 -185.03)" fill="#3b95ed"/>
                  <path id="Trazado_1238936" data-name="Trazado 1238936" d="M519.975,276.552l.1-2.558,7.012.273-1.9,4.135Z" transform="translate(-519.975 -231.66)" fill="#52acf7"/>
                </g>
              </g>
              <g id="Grupo_1241670" data-name="Grupo 1241670" transform="translate(0 59.261)">
                <g id="Grupo_1241663" data-name="Grupo 1241663" transform="translate(27.41 74.679)">
                  <path id="Trazado_1238937" data-name="Trazado 1238937" d="M575.048,405.386l.256,3.2h8.383L583.175,405Z" transform="translate(-573.512 -405.002)" fill="#efaca5"/>
                  <path id="Trazado_1238938" data-name="Trazado 1238938" d="M590.55,418.4H571.822a12.262,12.262,0,0,1,.069-1.449,18.756,18.756,0,0,1,1.253-4.908l8.85.108a21.215,21.215,0,0,1,6.337,2.2,4.575,4.575,0,0,1,2.038,2.6A4.141,4.141,0,0,1,590.55,418.4Z" transform="translate(-571.821 -408.69)" fill="#021c3d"/>
                  <path id="Trazado_1238939" data-name="Trazado 1238939" d="M590.55,423.8H571.822a12.264,12.264,0,0,1,.069-1.449H590.37A4.147,4.147,0,0,1,590.55,423.8Z" transform="translate(-571.821 -414.096)" fill="#0f43a9"/>
                </g>
                <g id="Grupo_1241664" data-name="Grupo 1241664" transform="translate(0 74.679)">
                  <path id="Trazado_1238940" data-name="Trazado 1238940" d="M540.851,405.386l-.256,3.2h-8.383l.512-3.584Z" transform="translate(-523.65 -405.002)" fill="#efaca5"/>
                  <path id="Trazado_1238941" data-name="Trazado 1238941" d="M514.227,418.4h18.728a12.262,12.262,0,0,0-.07-1.449,18.754,18.754,0,0,0-1.253-4.908l-8.85.108a21.219,21.219,0,0,0-6.338,2.2,4.576,4.576,0,0,0-2.038,2.6A4.146,4.146,0,0,0,514.227,418.4Z" transform="translate(-514.219 -408.69)" fill="#021c3d"/>
                  <path id="Trazado_1238942" data-name="Trazado 1238942" d="M514.227,423.8h18.728a12.264,12.264,0,0,0-.07-1.449H514.407A4.146,4.146,0,0,0,514.227,423.8Z" transform="translate(-514.219 -414.096)" fill="#0f43a9"/>
                </g>
                <g id="Grupo_1241669" data-name="Grupo 1241669" transform="translate(7.263)">
                  <g id="Grupo_1241666" data-name="Grupo 1241666">
                    <g id="Grupo_1241665" data-name="Grupo 1241665" transform="translate(0 0)">
                      <path id="Trazado_1238943" data-name="Trazado 1238943" d="M561.441,324H548.984l-5.8-45.9-1.256,24.711-.844,21.277-11.606-.171.053-75.852,25.854,1.781.247,3.4Z" transform="translate(-529.482 -248.068)" fill="#0f43a9"/>
                    </g>
                    <path id="Trazado_1238944" data-name="Trazado 1238944" d="M555.694,253.247c-17.089,4.541-26.1-1.231-26.1-1.231v-3.949l25.854,1.782Z" transform="translate(-529.54 -248.067)" fill="#0d339e"/>
                    <path id="Trazado_1238945" data-name="Trazado 1238945" d="M552.381,298.4l-1.256,24.711-.051-.139-4.053-36.179h4.053Z" transform="translate(-538.675 -268.365)" fill="#0d339e"/>
                  </g>
                  <g id="Grupo_1241667" data-name="Grupo 1241667" transform="translate(7.044 5.667)">
                    <path id="Trazado_1238946" data-name="Trazado 1238946" d="M548.656,259.977s.915,11.452,2.829,14.06" transform="translate(-546.576 -259.977)" fill="none" stroke="#0b2a84" stroke-linecap="round" stroke-linejoin="round" stroke-miterlimit="10" stroke-width="1"/>
                    <path id="Trazado_1238947" data-name="Trazado 1238947" d="M544.285,259.977s.2,6.437,2.765,6.38" transform="translate(-544.285 -259.977)" fill="none" stroke="#0b2a84" stroke-linecap="round" stroke-linejoin="round" stroke-miterlimit="10" stroke-width="1"/>
                  </g>
                  <g id="Grupo_1241668" data-name="Grupo 1241668" transform="translate(19.523 5.179)">
                    <line id="Línea_626" data-name="Línea 626" x2="6.818" y2="68.76" transform="translate(3.982)" fill="none" stroke="#0b2a84" stroke-linecap="round" stroke-linejoin="round" stroke-miterlimit="10" stroke-width="1"/>
                    <path id="Trazado_1238948" data-name="Trazado 1238948" d="M575.782,265.122s-2.625.179-3.873-5.145" transform="translate(-571.242 -259.489)" fill="none" stroke="#0b2a84" stroke-linecap="round" stroke-linejoin="round" stroke-miterlimit="10" stroke-width="1"/>
                    <line id="Línea_627" data-name="Línea 627" x2="11.687" transform="translate(0 68.76)" fill="none" stroke="#0b2a84" stroke-linecap="round" stroke-linejoin="round" stroke-miterlimit="10" stroke-width="1"/>
                  </g>
                  <line id="Línea_628" data-name="Línea 628" x1="10.854" transform="translate(0.383 73.939)" fill="none" stroke="#0b2a84" stroke-linecap="round" stroke-linejoin="round" stroke-miterlimit="10" stroke-width="1"/>
                </g>
              </g>
              <path id="Trazado_1238949" data-name="Trazado 1238949" d="M549.947,178.637a12.355,12.355,0,0,1,6.294,3.164c2.56,2.613-2.048,27.442-1.28,33.842,0,0-20.734,3.654-27.517-1.722,0,0,.883-19.151,2.809-28.09A8.251,8.251,0,0,1,535,180a21.275,21.275,0,0,1,2.294-.857s-.408,4.02,3.24,4.5S549.094,180.429,549.947,178.637Z" transform="translate(-521.15 -152.415)" fill="#2d79e9"/>
              <g id="Grupo_1241672" data-name="Grupo 1241672" transform="translate(2.19 28.461)">
                <g id="Grupo_1241671" data-name="Grupo 1241671" transform="translate(0 22.976)">
                  <path id="Trazado_1238950" data-name="Trazado 1238950" d="M534.945,235.931l-2.118.489s-1.067-2.432-2.346-2.944a48.63,48.63,0,0,0-4.607-1.834c-.768-.128-.9.64,0,1.322s2.3,1.706,2.3,1.706a17.062,17.062,0,0,1-3.755-.647,25.909,25.909,0,0,1-3.989-2.062c-.32-.107-1.109-.235-.981.6s3.264,3.136,5.013,3.626a9.118,9.118,0,0,1-2.709-.3c-1-.363-2.176-1.322-2.581-1.173a.792.792,0,0,0-.149,1.194,1.167,1.167,0,0,0,.192,1.493s-.171.533.747,1.344a11.945,11.945,0,0,0,6.692,2.41c3.227.171,7.834,0,7.834,0Z" transform="translate(-518.822 -231.627)" fill="#efaca5"/>
                  <path id="Trazado_1238951" data-name="Trazado 1238951" d="M524.133,242.372a8.672,8.672,0,0,1-4.884-1.749" transform="translate(-519.046 -236.342)" fill="none" stroke="#dd4b47" stroke-linecap="round" stroke-miterlimit="10" stroke-width="0.75"/>
                  <path id="Trazado_1238952" data-name="Trazado 1238952" d="M519.652,243.761a7.116,7.116,0,0,0,4.874,2.048" transform="translate(-519.257 -237.987)" fill="none" stroke="#dd4b47" stroke-linecap="round" stroke-miterlimit="10" stroke-width="0.75"/>
                </g>
                <path id="Trazado_1238953" data-name="Trazado 1238953" d="M562.807,187.328c1.792-5.5,4.735-4.16,6.015-2.688s4.842,10.132,4.757,26.344c0,0,.043,2.261-.725,3.221s-5.759,2.112-9.343,2.176S550.84,216,550.84,216l.521-5.5,11.445-2.433S561.015,192.832,562.807,187.328Z" transform="translate(-535.604 -183.344)" fill="#3b95ed"/>
                <path id="Trazado_1238954" data-name="Trazado 1238954" d="M551.362,239.815l2.5-.532,1.448,6.866-4.473-.832Z" transform="translate(-535.604 -212.664)" fill="#52acf7"/>
              </g>
              <g id="Grupo_1241673" data-name="Grupo 1241673" transform="translate(14.607 26.222)">
                <path id="Trazado_1238955" data-name="Trazado 1238955" d="M563.369,178.637s-2,5.509-7.017,7.3l-3.3-2.506S559.61,182.058,563.369,178.637Z" transform="translate(-549.18 -178.637)" fill="#52acf7"/>
                <path id="Trazado_1238956" data-name="Trazado 1238956" d="M548.524,183.885l-2.952,1.864s-1.954-4.312.876-6.043C546.448,179.706,546.609,182.918,548.524,183.885Z" transform="translate(-544.915 -179.197)" fill="#52acf7"/>
                <circle id="Elipse_12327" data-name="Elipse 12327" cx="0.604" cy="0.604" r="0.604" transform="translate(2.555 6.52)" fill="#52acf7"/>
                <circle id="Elipse_12328" data-name="Elipse 12328" cx="0.604" cy="0.604" r="0.604" transform="translate(2.238 9.607)" fill="#52acf7"/>
              </g>
            </g>
            <g id="Grupo_1241711" data-name="Grupo 1241711" transform="translate(0 28.276)">
              <g id="Grupo_1241706" data-name="Grupo 1241706" transform="translate(0 15.717)">
                <g id="Grupo_1241683" data-name="Grupo 1241683" transform="translate(0 2.511)">
                  <g id="Grupo_1241675" data-name="Grupo 1241675" transform="translate(0 46.461)">
                    <path id="Trazado_1238957" data-name="Trazado 1238957" d="M157.3,358.315l-4.8,32.1h-3.23l4.894-32.1Z" transform="translate(-142.789 -323.449)" fill="#fa8595"/>
                    <path id="Trazado_1238958" data-name="Trazado 1238958" d="M155.449,340.128h-3.173l-1.4-9.4-.519-3.473h3.132l.53,3.473Z" transform="translate(-143.354 -307.17)" fill="#fa8595"/>
                    <path id="Trazado_1238959" data-name="Trazado 1238959" d="M186.146,340.128h-3.169l-1.4-9.4-.519-3.473h3.133l.53,3.473Z" transform="translate(-159.445 -307.17)" fill="#fa8595"/>
                    <path id="Trazado_1238960" data-name="Trazado 1238960" d="M177.047,358.315l-4.8,32.1h-3.23l4.894-32.1Z" transform="translate(-153.138 -323.449)" fill="#f15771"/>
                    <path id="Trazado_1238961" data-name="Trazado 1238961" d="M228.67,358.315l4.8,32.1h3.23l-4.894-32.1Z" transform="translate(-184.403 -323.449)" fill="#f15771"/>
                    <path id="Trazado_1238962" data-name="Trazado 1238962" d="M200.491,358.315l4.8,32.1h3.23l-4.894-32.1Z" transform="translate(-169.633 -323.449)" fill="#fa8595"/>
                    <path id="Trazado_1238963" data-name="Trazado 1238963" d="M153.485,327.257l.53,3.473h-3.144l-.519-3.473Z" transform="translate(-143.354 -307.17)" fill="#f15771"/>
                    <path id="Trazado_1238964" data-name="Trazado 1238964" d="M184.715,330.73h-3.143l-.519-3.473h3.133Z" transform="translate(-159.445 -307.17)" fill="#f15771"/>
                    <path id="Trazado_1238965" data-name="Trazado 1238965" d="M157.58,285.045H135.644l3.547,20.549h21.936Z" transform="translate(-135.644 -285.045)" fill="#f15771"/>
                    <path id="Trazado_1238966" data-name="Trazado 1238966" d="M162.7,285.045H140.766l3.547,20.549h21.936Z" transform="translate(-138.329 -285.045)" fill="#fa8595"/>
                    <path id="Trazado_1238967" data-name="Trazado 1238967" d="M189.774,355.815H147.1a2.349,2.349,0,0,1-2.349-2.349h0a2.349,2.349,0,0,1,2.349-2.349h42.674a2.349,2.349,0,0,1,2.349,2.349h0A2.349,2.349,0,0,1,189.774,355.815Z" transform="translate(-140.417 -319.676)" fill="#fa8595"/>
                  </g>
                  <g id="Grupo_1241682" data-name="Grupo 1241682" transform="translate(12.399)">
                    <g id="Grupo_1241676" data-name="Grupo 1241676" transform="translate(4.081)">
                      <path id="Trazado_1238968" data-name="Trazado 1238968" d="M178.122,206.692s-2.865-3.351-6.3-.946-.164,8.125.573,10.912a2.675,2.675,0,0,1-1.8,3.471s6.794,3.6,8.758-1.347S178.122,206.692,178.122,206.692Z" transform="translate(-170.276 -196.565)" fill="#3a070c"/>
                      <path id="Trazado_1238969" data-name="Trazado 1238969" d="M188.569,190.608l-1.493-.72a6.569,6.569,0,0,0-5.5,5.235c-1.447,5.6.263,13.133,7.991,14.815,9.2,2,13.428-6.622,10.91-14.05-.193-.568-.367-.475-.367-.475Z" transform="translate(-175.953 -188.709)" fill="#58110d"/>
                      <path id="Trazado_1238970" data-name="Trazado 1238970" d="M199.536,239.227c2.638-1.439,3.042-4.8,3.042-4.8l-.561-1.681s-.059-.087-.154-.261a10.563,10.563,0,0,1-.965-5.981c.4-4-6.479-1.278-6.479-1.278s-.285,1.78-.633,3.627a34.654,34.654,0,0,1-.807,3.572C192.416,234.11,196.9,240.667,199.536,239.227Z" transform="translate(-182.15 -206.758)" fill="#f4ac96"/>
                      <path id="Trazado_1238971" data-name="Trazado 1238971" d="M194.727,228.857a9.709,9.709,0,0,0,8.077,3.631,10.563,10.563,0,0,1-.965-5.981c.4-4-6.479-1.278-6.479-1.278S195.075,227.01,194.727,228.857Z" transform="translate(-183.092 -206.758)" fill="#df776c"/>
                      <path id="Trazado_1238972" data-name="Trazado 1238972" d="M221.537,214.9c.1,1.053-.979,2.021-2.419,2.164s-2.691-.6-2.8-1.649.979-2.021,2.419-2.164S221.433,213.845,221.537,214.9Z" transform="translate(-194.408 -200.944)" fill="#df776c"/>
                      <path id="Trazado_1238973" data-name="Trazado 1238973" d="M198.925,218.143c2.179-.158,4.794-3.133,5.6-7.452a15.061,15.061,0,0,0,.249-2.077,0,0,0,0,1,0,0,11.886,11.886,0,0,0-.226-3.1c-.4-1.827-1.262-3.109-2.453-3.374-5.625-1.246-9.042-.55-11.067,1.112a7.518,7.518,0,0,0-2.5,4.592C187.732,212.158,193.313,218.554,198.925,218.143Z" transform="translate(-179.809 -194.794)" fill="#f4ac96"/>
                      <path id="Trazado_1238974" data-name="Trazado 1238974" d="M191.459,208.614c.491-2.773,4.553-3.56,8.472-3.639s4.877-.641,4.877-.641a3.916,3.916,0,0,1,1.175,1.175c-.4-1.827-1.262-3.109-2.453-3.374-5.625-1.246-9.042-.55-11.067,1.112C190.771,206.419,191.131,210.486,191.459,208.614Z" transform="translate(-181.234 -194.795)" fill="#df776c"/>
                      <path id="Trazado_1238975" data-name="Trazado 1238975" d="M188.4,221.583l.041.02S188.41,221.675,188.4,221.583Z" transform="translate(-179.778 -205.321)" fill="#58110d"/>
                      <path id="Trazado_1238976" data-name="Trazado 1238976" d="M199.62,196.085a.04.04,0,0,1-.015.005,6.315,6.315,0,0,1-1.066.179c-6.182.533-10.556.8-11.412,4.532a23.723,23.723,0,0,0-.625,3.178l-2.573-1.256s-1.835-2.934-.959-8.9a6.185,6.185,0,0,1,4.957-5.234l.005-.005c.154-.087,3.327-1.835,8.638-.9C201.66,188.58,204.367,194.855,199.62,196.085Z" transform="translate(-176.805 -187.41)" fill="#58110d"/>
                      <path id="Trazado_1238977" data-name="Trazado 1238977" d="M182.784,218.941c-.1,1.053.979,2.021,2.419,2.164s2.691-.6,2.8-1.649-.979-2.021-2.419-2.164S182.889,217.888,182.784,218.941Z" transform="translate(-176.829 -203.063)" fill="#f4ac96"/>
                      <path id="Trazado_1238978" data-name="Trazado 1238978" d="M211.727,219.9a4.383,4.383,0,0,1,.245,2.631" transform="translate(-192.002 -204.44)" fill="none" stroke="#be494f" stroke-linecap="round" stroke-miterlimit="10" stroke-width="1"/>
                      <path id="Trazado_1238979" data-name="Trazado 1238979" d="M215.548,212.835a2.047,2.047,0,0,1,2.639.132" transform="translate(-194.005 -200.511)" fill="none" stroke="#58110d" stroke-linecap="round" stroke-miterlimit="10" stroke-width="1"/>
                      <path id="Trazado_1238980" data-name="Trazado 1238980" d="M201.3,212.835a2.047,2.047,0,0,1,2.639.132" transform="translate(-186.537 -200.511)" fill="none" stroke="#58110d" stroke-linecap="round" stroke-miterlimit="10" stroke-width="1"/>
                      <path id="Trazado_1238981" data-name="Trazado 1238981" d="M205.31,216.73c0,.41-.164.741-.366.741s-.366-.332-.366-.741.164-.742.366-.742S205.31,216.32,205.31,216.73Z" transform="translate(-188.255 -202.389)" fill="#282d33"/>
                      <path id="Trazado_1238982" data-name="Trazado 1238982" d="M218.925,216.73c0,.41-.164.741-.366.741s-.366-.332-.366-.741.164-.742.366-.742S218.925,216.32,218.925,216.73Z" transform="translate(-195.391 -202.389)" fill="#282d33"/>
                      <path id="Trazado_1238983" data-name="Trazado 1238983" d="M205.772,228.549a4.99,4.99,0,0,0,3.245.469" transform="translate(-188.881 -208.972)" fill="none" stroke="#be494f" stroke-linecap="round" stroke-miterlimit="10" stroke-width="1"/>
                      <path id="Trazado_1238984" data-name="Trazado 1238984" d="M205.341,196.085c.195-.092,2.5-1.23.046-5.142-2.563-4.075-11.739-2.353-11.739-2.353l.005-.005c.154-.087,3.327-1.835,8.638-.9C207.382,188.58,210.088,194.855,205.341,196.085Z" transform="translate(-182.526 -187.41)" fill="#751a17"/>
                    </g>
                    <g id="Grupo_1241677" data-name="Grupo 1241677" transform="translate(35.42 60.901)">
                      <path id="Trazado_1238985" data-name="Trazado 1238985" d="M236.132,326.554l5.578.873,4.262,34.712,5.9-.479-.886-40.373a3.9,3.9,0,0,0-2.887-3.634l-8.429-2.263Z" transform="translate(-236.132 -315.391)" fill="#df776c"/>
                      <path id="Trazado_1238986" data-name="Trazado 1238986" d="M261.522,409.99l.17,1.4s9.047,1.552,9.352,6.116H260.207L259,416.7l-.4.806h-3.759s-.068-3.207,1.04-4.851l-.151-1.341Z" transform="translate(-245.936 -364.974)" fill="#df776c"/>
                      <path id="Trazado_1238987" data-name="Trazado 1238987" d="M271.04,421.11H260.2l-1.21-.81-.4.81h-3.757a12.572,12.572,0,0,1,.5-3.67c.641.344,2.758,1.235,6.9.979,3.507-.21,4.742-1.051,5.167-1.553C269.266,417.829,270.912,419.2,271.04,421.11Z" transform="translate(-245.932 -368.578)" fill="#264066"/>
                    </g>
                    <g id="Grupo_1241678" data-name="Grupo 1241678" transform="translate(31.88 67.009)">
                      <path id="Trazado_1238988" data-name="Trazado 1238988" d="M228.693,339.8h1.273l1.939,29.187,5.907-.453,3.32-35.014a3.81,3.81,0,0,0-3.053-3.838l-7.179-1.453Z" transform="translate(-228.693 -328.227)" fill="#f4ac96"/>
                      <path id="Trazado_1238989" data-name="Trazado 1238989" d="M249.655,417.429H238.818l-1.21-.81-.4.81h-3.758a12.572,12.572,0,0,1,.5-3.67,4.817,4.817,0,0,1,.533-1.133l-.113-1.374,6.08-1.41-.144,1.466A22.752,22.752,0,0,1,246,413.184C247.882,414.148,249.527,415.521,249.655,417.429Z" transform="translate(-231.183 -371.005)" fill="#f4ac96"/>
                      <path id="Trazado_1238990" data-name="Trazado 1238990" d="M249.655,421.11H238.818l-1.21-.81-.4.81h-3.758a12.573,12.573,0,0,1,.5-3.67c.641.344,2.758,1.235,6.9.979,3.507-.21,4.742-1.051,5.167-1.553C247.882,417.829,249.527,419.2,249.655,421.11Z" transform="translate(-231.183 -374.686)" fill="#2e4a79"/>
                    </g>
                    <g id="Grupo_1241679" data-name="Grupo 1241679" transform="translate(27.932 26.14)">
                      <path id="Trazado_1238991" data-name="Trazado 1238991" d="M220.872,247.869s1.909,1.273,3.341,5.727,3.341,8.432,4.057,8.83,9.431-8.685,9.431-8.685l2.145,3.72s-4.1,7.431-7.757,11.249-4.772,3.5-5.806,3.1-5.884-5.292-5.884-5.292Z" transform="translate(-220.398 -245.239)" fill="#f4ac96"/>
                      <path id="Trazado_1238992" data-name="Trazado 1238992" d="M256.719,251.332a1.8,1.8,0,0,1-.224-1.378,42.269,42.269,0,0,1,1.661-5.562c.864-1.989,1.343-2.071,1.574-2.048s.734.4-.843,4.211c0,0,1.145-1.1,1.7.18a1.134,1.134,0,0,1,1.343,1.018,2.26,2.26,0,0,1,.965,2.308c-.3,1.527-1.252.683-1.252.683a2.656,2.656,0,0,1-1.053,2.805c-1.536,1.051-1.846,1.012-1.846,1.012Z" transform="translate(-239.291 -242.342)" fill="#f4ac96"/>
                      <path id="Trazado_1238993" data-name="Trazado 1238993" d="M257.614,255.675A18.5,18.5,0,0,1,260,252.908c.619-.357.739.18.288,1.145a4.749,4.749,0,0,0-.479,1.327,2.669,2.669,0,0,1-.4,2.929" transform="translate(-239.904 -247.822)" fill="none" stroke="#be494f" stroke-linecap="round" stroke-miterlimit="10" stroke-width="0.5"/>
                      <path id="Trazado_1238994" data-name="Trazado 1238994" d="M263.936,252.236s.055,2.159-.586,2.838-.877-.165-.854-.481" transform="translate(-242.463 -247.528)" fill="none" stroke="#be494f" stroke-linecap="round" stroke-miterlimit="10" stroke-width="0.5"/>
                      <path id="Trazado_1238995" data-name="Trazado 1238995" d="M266.17,254.032s-.022,1.823-.624,2.277a.573.573,0,0,1-.958-.491" transform="translate(-243.557 -248.469)" fill="none" stroke="#be494f" stroke-linecap="round" stroke-miterlimit="10" stroke-width="0.5"/>
                    </g>
                    <g id="Grupo_1241680" data-name="Grupo 1241680" transform="translate(3.932 24.905)">
                      <path id="Trazado_1238996" data-name="Trazado 1238996" d="M199.356,254.511a32.065,32.065,0,0,0-2.1-10.173.806.806,0,0,0-.14-.309c-1.16-1.36-4.678-2.925-4.678-2.925a11.165,11.165,0,0,1-2.57,4.46c-3.04-.76-6.516-5.42-6.516-5.42s-6.123,1.46-7.723,3.079-1.986,26.871,3.41,28.791,17.743.323,17.743.323c0-2.8-.64-6.185-.58-9.362,0-.089,0-.178.006-.267C198.507,261.771,199.755,260.352,199.356,254.511Z" transform="translate(-172.384 -239.954)" fill="#0f43a9"/>
                      <path id="Trazado_1238997" data-name="Trazado 1238997" d="M198.261,245.355a8.617,8.617,0,0,1-4.96,2.224c-3.2.376-2.933-7.291-2.346-7.644a1.1,1.1,0,0,1,1.048-.1A22.172,22.172,0,0,0,198.261,245.355Z" transform="translate(-180.774 -239.746)" fill="#2d79e9"/>
                      <path id="Trazado_1238998" data-name="Trazado 1238998" d="M206.709,246.537a13.361,13.361,0,0,0,4.026,1.453c2.069.321-.267-5.451-.647-5.753a1.158,1.158,0,0,0-.834-.228A13.608,13.608,0,0,1,206.709,246.537Z" transform="translate(-189.222 -240.928)" fill="#2d79e9"/>
                      <path id="Trazado_1238999" data-name="Trazado 1238999" d="M173.169,291.575s-.506,6.021-1.751,9.027-3.861,16.732,3.772,18.89,24.166,1.361,24.166,1.361,1.608-13.235,11.678-15.854a.578.578,0,0,0,0-1.118L194.5,299.545l-2.113-6.847Z" transform="translate(-169.961 -266.912)" fill="#0f43a9"/>
                      <path id="Trazado_1239000" data-name="Trazado 1239000" d="M207.552,255.8a.618.618,0,1,1-.618-.618A.618.618,0,0,1,207.552,255.8Z" transform="translate(-189.016 -247.838)" fill="#2d79e9"/>
                      <path id="Trazado_1239001" data-name="Trazado 1239001" d="M207.552,261a.618.618,0,1,1-.618-.618A.618.618,0,0,1,207.552,261Z" transform="translate(-189.016 -250.559)" fill="#2d79e9"/>
                    </g>
                    <g id="Grupo_1241681" data-name="Grupo 1241681" transform="translate(0 27.855)">
                      <path id="Trazado_1239002" data-name="Trazado 1239002" d="M179.575,275.313v.005c-.092,0-.21-.005-.338-.005l-3.527-.261c-2.337-.205-4.911-.472-5.541-.564-1.087-.154-7.859-.979-8.325-2.327s.21-7.336,1.707-13.9,3.67-10.647,4.6-11.683,3.255-1.138,4.7,2.43-.657,9.335-1.9,11.867a51.957,51.957,0,0,0-2.488,7.171l9.277,3.036.307.1Z" transform="translate(-161.699 -245.946)" fill="#f4ac96"/>
                      <path id="Trazado_1239003" data-name="Trazado 1239003" d="M205.344,297.016c-.57-.028-.817-.6-1.527-1.382A2.569,2.569,0,0,0,202,294.9a3.53,3.53,0,0,1,1.685,1.3c.812,1.074,1.326,3.188.836,3.179s-1.106-.878-1.106-.878c.131.439.108,1.522-.406,1.47s-.868-.719-.868-.719c.117.495-.173,1.377-.761.9a13.561,13.561,0,0,1-1.615-2.03,9.7,9.7,0,0,1-3.366,2.012h-.864l-3.212-.238-.158-3.776,3.02-.355.033,0s4.818-3.034,6.951-2.4,2.88,1.746,3.039,2.138S205.918,297.044,205.344,297.016Z" transform="translate(-177.665 -270.753)" fill="#f4ac96"/>
                      <path id="Trazado_1239004" data-name="Trazado 1239004" d="M211.063,302.527a5.559,5.559,0,0,0-1.519-1.87" transform="translate(-186.777 -274.622)" fill="none" stroke="#be494f" stroke-linecap="round" stroke-miterlimit="10" stroke-width="0.5"/>
                      <path id="Trazado_1239005" data-name="Trazado 1239005" d="M214.062,300.526a7.311,7.311,0,0,0-1.744-2.374" transform="translate(-188.231 -273.31)" fill="none" stroke="#be494f" stroke-linecap="round" stroke-miterlimit="10" stroke-width="0.5"/>
                    </g>
                  </g>
                </g>
                <g id="Grupo_1241688" data-name="Grupo 1241688" transform="translate(19.006 37.114)">
                  <g id="Grupo_1241685" data-name="Grupo 1241685" transform="translate(71.415)">
                    <path id="Trazado_1239006" data-name="Trazado 1239006" d="M385.7,260.126H356.353l-2.943,18.151h29.352Z" transform="translate(-340.205 -260.126)" fill="#999"/>
                    <rect id="Rectángulo_423985" data-name="Rectángulo 423985" width="29.351" height="2.476" transform="translate(11.433 18.151)" fill="#999"/>
                    <path id="Trazado_1239007" data-name="Trazado 1239007" d="M381.982,260.126H352.63l-2.942,18.151H379.04Z" transform="translate(-338.255 -260.126)" fill="#b7b7b7"/>
                    <path id="Trazado_1239008" data-name="Trazado 1239008" d="M382.13,262.786l-1.443,8.916-1.088,6.7H352.812l.458-2.818.556-3.429,1.517-9.373Z" transform="translate(-339.892 -261.52)" fill="#79dee8"/>
                    <g id="Grupo_1241684" data-name="Grupo 1241684" transform="translate(12.92 1.266)">
                      <path id="Trazado_1239009" data-name="Trazado 1239009" d="M366.579,262.786l-11.635,9.373,1.517-9.373Z" transform="translate(-353.929 -262.786)" fill="#c5f8f9"/>
                      <path id="Trazado_1239010" data-name="Trazado 1239010" d="M373.559,262.786l-20.112,15.62h-.635l.458-2.818,16.033-12.8Z" transform="translate(-352.812 -262.786)" fill="#c5f8f9"/>
                      <path id="Trazado_1239011" data-name="Trazado 1239011" d="M399.426,281.522l-1.088,6.7h-9.773Z" transform="translate(-371.552 -272.606)" fill="#c5f8f9"/>
                    </g>
                    <rect id="Rectángulo_423986" data-name="Rectángulo 423986" width="29.351" height="2.476" transform="translate(0 18.151)" fill="#a8a8a8"/>
                  </g>
                  <g id="Grupo_1241687" data-name="Grupo 1241687" transform="translate(0 20.627)">
                    <rect id="Rectángulo_423987" data-name="Rectángulo 423987" width="2.983" height="55.401" transform="translate(14.061 57.985) rotate(180)" fill="#e0dcf5"/>
                    <g id="Grupo_1241686" data-name="Grupo 1241686" transform="translate(0 0)">
                      <rect id="Rectángulo_423988" data-name="Rectángulo 423988" width="2.983" height="55.401" transform="translate(153.304 57.985) rotate(180)" fill="#a5a3cb"/>
                      <rect id="Rectángulo_423989" data-name="Rectángulo 423989" width="111.347" height="4.103" transform="translate(111.347 4.103) rotate(180)" fill="#e0dcf5"/>
                      <rect id="Rectángulo_423990" data-name="Rectángulo 423990" width="45.705" height="4.103" transform="translate(157.053 4.103) rotate(180)" fill="#a5a3cb"/>
                      <rect id="Rectángulo_423991" data-name="Rectángulo 423991" width="2.983" height="55.401" transform="translate(119.488 57.985) rotate(180)" fill="#a5a3cb"/>
                    </g>
                  </g>
                </g>
                <g id="Grupo_1241705" data-name="Grupo 1241705" transform="translate(47.5)">
                  <g id="Grupo_1241698" data-name="Grupo 1241698" transform="translate(11.53)">
                    <g id="Grupo_1241690" data-name="Grupo 1241690" transform="translate(0)">
                      <path id="Trazado_1239012" data-name="Trazado 1239012" d="M292.056,214.685s.443,1.449-.633,4.613a3.518,3.518,0,0,1-3,2.534,4.388,4.388,0,0,1-1.322-.01l.591,2.6.4,1.74-10.742-1.623.272-3.461c-1.642-7.42,2.924-11.787,6.831-13.583a7.362,7.362,0,0,1,4.4-.87,2.741,2.741,0,0,1,1.133.7c1.449,1.433,1.544,4.23,1.544,4.23s1.478.528,1.585,1.55S292.056,214.685,292.056,214.685Z" transform="translate(-268.91 -194.921)" fill="#ffcac6"/>
                      <path id="Trazado_1239013" data-name="Trazado 1239013" d="M302.414,229.638a6.347,6.347,0,0,1-2.349-.229" transform="translate(-280.854 -206.912)" fill="none" stroke="#dd4b47" stroke-linecap="round" stroke-miterlimit="10" stroke-width="0.75"/>
                      <path id="Trazado_1239014" data-name="Trazado 1239014" d="M301.7,212.091a1.386,1.386,0,0,0-1.785.564" transform="translate(-280.774 -197.767)" fill="none" stroke="#2c1106" stroke-linecap="round" stroke-miterlimit="10" stroke-width="1"/>
                      <path id="Trazado_1239015" data-name="Trazado 1239015" d="M302.5,214.974c.071.265.024.507-.1.541s-.289-.152-.36-.417-.024-.507.1-.541S302.428,214.709,302.5,214.974Z" transform="translate(-281.87 -199.125)" fill="#011e3c"/>
                      <path id="Trazado_1239016" data-name="Trazado 1239016" d="M293.253,237.986l.592,2.6a13.311,13.311,0,0,1-4.83-3.217C291.358,237.795,293.253,237.986,293.253,237.986Z" transform="translate(-275.062 -211.084)" fill="#f9a0a0"/>
                      <path id="Trazado_1239017" data-name="Trazado 1239017" d="M297.412,207.324c-1.93,1.753-5.961,2.484-5.961,2.484l.43-2.313a7.362,7.362,0,0,1,4.4-.87A2.748,2.748,0,0,1,297.412,207.324Z" transform="translate(-276.339 -194.92)" fill="#f9a0a0"/>
                      <g id="Grupo_1241689" data-name="Grupo 1241689">
                        <path id="Trazado_1239018" data-name="Trazado 1239018" d="M282.153,189.537c0,.006,0,.016,0,.022,0,.228-.006.455-.022.68,0,0,0,0,0,0-.006.079-.013.158-.022.234v0a4.673,4.673,0,0,1-1.9,3.623c-4.129,2.749-4.771,2.692-4.771,2.692l.032,2.753s-1.864-.747-2.686.221a2.481,2.481,0,0,0,2.221,3.835s-.848,4.449-6.6,4.683c0,0-3.591-.747-7-7.493s-1.06-8.818,1.18-8.781a2.527,2.527,0,0,1,.917-3,5.774,5.774,0,0,1,2.43-.88c4.664-.756,10.764-4.471,10.236-6,0,0,3.012.541,3.354,2.2l1.066-1.74A20.855,20.855,0,0,1,282.153,189.537Z" transform="translate(-259.694 -182.133)" fill="#011e3c"/>
                        <path id="Trazado_1239019" data-name="Trazado 1239019" d="M286.351,189.537a12.661,12.661,0,0,0-1.934-4.505L283.03,186.6s-.676-2.272-1.572-2.785-2.4,2.88-6.977,4.417a23.735,23.735,0,0,1-6.774.788l0,0a5.774,5.774,0,0,1,2.43-.88c4.664-.756,10.764-4.471,10.236-6,0,0,3.012.541,3.354,2.2l1.066-1.74A20.826,20.826,0,0,1,286.351,189.537Z" transform="translate(-263.892 -182.132)" fill="#083a66"/>
                      </g>
                    </g>
                    <g id="Grupo_1241692" data-name="Grupo 1241692" transform="translate(1.878 59.793)">
                      <g id="Grupo_1241691" data-name="Grupo 1241691" transform="translate(26.526 46.262)">
                        <path id="Trazado_1239020" data-name="Trazado 1239020" d="M322.611,405.386l.256,3.2h8.383L330.738,405Z" transform="translate(-321.075 -405.002)" fill="#efaca5"/>
                        <path id="Trazado_1239021" data-name="Trazado 1239021" d="M338.113,418.4H319.385a12.275,12.275,0,0,1,.069-1.449,18.753,18.753,0,0,1,1.253-4.908l8.85.108a21.219,21.219,0,0,1,6.338,2.2,4.576,4.576,0,0,1,2.038,2.6A4.148,4.148,0,0,1,338.113,418.4Z" transform="translate(-319.384 -408.69)" fill="#021428"/>
                        <path id="Trazado_1239022" data-name="Trazado 1239022" d="M338.113,423.8H319.385a12.277,12.277,0,0,1,.069-1.449h18.479A4.148,4.148,0,0,1,338.113,423.8Z" transform="translate(-319.384 -414.096)" fill="#0d3a82"/>
                      </g>
                      <path id="Trazado_1239023" data-name="Trazado 1239023" d="M331.158,339.735v33a42.244,42.244,0,0,1-11.774.854v-29.6A100.78,100.78,0,0,0,331.158,339.735Z" transform="translate(-292.858 -324.531)" fill="#2f5ed2"/>
                      <path id="Trazado_1239024" data-name="Trazado 1239024" d="M263.645,307.785s-.385,16.889,5.826,19.193,13.505.256,13.505.256l-2.245-16.766Z" transform="translate(-263.64 -307.785)" fill="#2f5ed2"/>
                    </g>
                    <g id="Grupo_1241694" data-name="Grupo 1241694" transform="translate(7.796 61.984)">
                      <g id="Grupo_1241693" data-name="Grupo 1241693" transform="translate(35.509 44.071)">
                        <path id="Trazado_1239025" data-name="Trazado 1239025" d="M353.923,405.386l.256,3.2h8.383L362.05,405Z" transform="translate(-352.387 -405.002)" fill="#efaca5"/>
                        <path id="Trazado_1239026" data-name="Trazado 1239026" d="M369.425,418.4H350.7a12.281,12.281,0,0,1,.07-1.449,18.756,18.756,0,0,1,1.253-4.908l8.85.108a21.221,21.221,0,0,1,6.338,2.2,4.576,4.576,0,0,1,2.038,2.6A4.146,4.146,0,0,1,369.425,418.4Z" transform="translate(-350.696 -408.69)" fill="#021c3d"/>
                        <path id="Trazado_1239027" data-name="Trazado 1239027" d="M369.425,423.8H350.7a12.283,12.283,0,0,1,.07-1.449h18.479A4.147,4.147,0,0,1,369.425,423.8Z" transform="translate(-350.696 -414.096)" fill="#0f43a9"/>
                      </g>
                      <path id="Trazado_1239028" data-name="Trazado 1239028" d="M276.076,313.35s1.782,13.762,6.805,16.553c8.063,4.48,28.328-2.389,28.328-2.389v31.741a42.311,42.311,0,0,0,11.775-.853V318.715a6.325,6.325,0,0,0-7.461-6.222l-19.16,3.5-16.853-3.605" transform="translate(-276.076 -312.389)" fill="#377ee8"/>
                    </g>
                    <g id="Grupo_1241695" data-name="Grupo 1241695" transform="translate(0 28.245)">
                      <path id="Trazado_1239029" data-name="Trazado 1239029" d="M287.477,279.553s-21.111,5.617-27.784,0c0,0,1.307-20.007,1.26-28.658-.013-1.867,1.313-9.641,7.626-9.407,6.335.237,16.333,3.721,17.707,8.97a33.362,33.362,0,0,1,.668,5.278c.187,2.531.307,5.575.386,8.625.029,1.126.054,2.253.073,3.357C287.518,274.035,287.477,279.553,287.477,279.553Z" transform="translate(-259.693 -241.487)" fill="#c6c6c6"/>
                      <path id="Trazado_1239030" data-name="Trazado 1239030" d="M306.3,276.878a14.641,14.641,0,0,1-6.157-3.284c-5.414-5.091-4.326-14.64-4.326-14.64l6.974,1.74,3.05,4.2c.187,2.531.307,5.575.386,8.625C306.252,274.647,306.277,275.773,306.3,276.878Z" transform="translate(-278.578 -250.642)" fill="#9b9b9b"/>
                    </g>
                    <g id="Grupo_1241697" data-name="Grupo 1241697" transform="translate(17.234 16.342)">
                      <path id="Trazado_1239031" data-name="Trazado 1239031" d="M347.5,246.993s-7.012,16.333-8.781,16.992a19.2,19.2,0,0,1-4.632.339c-3.091,0-6.5-.19-6.5-.19l2.193-10.3,2.234.307,3.806.525,7.214-10.189Z" transform="translate(-312.513 -231.152)" fill="#ffcac6"/>
                      <g id="Grupo_1241696" data-name="Grupo 1241696" transform="translate(29.805)">
                        <path id="Trazado_1239032" data-name="Trazado 1239032" d="M359.261,229.8a6.807,6.807,0,0,1-.647-4.18c.341-2.56,1.653-2.912,1.653-2.912s.864-4,2.357-5.706.992,1.237.778,1.706-.832,2.592-.832,2.592a1.222,1.222,0,0,1,1.408-.16,1.158,1.158,0,0,1,.48,1.28s.256-.554,1.066-.043a1.028,1.028,0,0,1,.468,1.283,1.068,1.068,0,0,1,1.366.338c.555.768.853,2.73.3,3.328a.9.9,0,0,1-1.152.213s.068,4.3-2.782,4.775S359.261,229.8,359.261,229.8Z" transform="translate(-358.542 -216.475)" fill="#ffcac6"/>
                        <path id="Trazado_1239033" data-name="Trazado 1239033" d="M365.986,226.615a4.416,4.416,0,0,0-.928,2.08" transform="translate(-361.957 -221.79)" fill="none" stroke="#dd4b47" stroke-linecap="round" stroke-miterlimit="10" stroke-width="0.75"/>
                        <path id="Trazado_1239034" data-name="Trazado 1239034" d="M369.642,228.968a2.948,2.948,0,0,0-1.211,2" transform="translate(-363.725 -223.023)" fill="none" stroke="#dd4b47" stroke-linecap="round" stroke-miterlimit="10" stroke-width="0.75"/>
                        <path id="Trazado_1239035" data-name="Trazado 1239035" d="M373.074,231.575a4.184,4.184,0,0,0-1.023,2.183" transform="translate(-365.623 -224.389)" fill="none" stroke="#dd4b47" stroke-linecap="round" stroke-miterlimit="10" stroke-width="0.75"/>
                        <path id="Trazado_1239036" data-name="Trazado 1239036" d="M375,237.859a3.622,3.622,0,0,1-.224-1.7" transform="translate(-367.037 -226.794)" fill="none" stroke="#dd4b47" stroke-linecap="round" stroke-miterlimit="10" stroke-width="0.75"/>
                        <path id="Trazado_1239037" data-name="Trazado 1239037" d="M374.821,237.4a.813.813,0,0,1,.666-.5" transform="translate(-367.075 -227.182)" fill="none" stroke="#dd4b47" stroke-linecap="round" stroke-miterlimit="10" stroke-width="0.75"/>
                      </g>
                      <path id="Trazado_1239038" data-name="Trazado 1239038" d="M334.088,274.628c-3.091,0-6.5-.19-6.5-.19l2.193-10.3,2.234.307A24.008,24.008,0,0,1,334.088,274.628Z" transform="translate(-312.514 -241.458)" fill="#f9a0a0"/>
                      <path id="Trazado_1239039" data-name="Trazado 1239039" d="M313.388,255.73l-9.344-4.227s-4.442-1.971-6.511-.523-2.74,7.8,1.522,12.356,14.144,5.8,14.144,5.8S315.891,261.718,313.388,255.73Z" transform="translate(-295.909 -234.282)" fill="#b2b2b2"/>
                    </g>
                  </g>
                  <g id="Grupo_1241704" data-name="Grupo 1241704" transform="translate(0 48.972)">
                    <g id="Grupo_1241702" data-name="Grupo 1241702">
                      <g id="Grupo_1241699" data-name="Grupo 1241699" transform="translate(8.032 20.087)">
                        <path id="Trazado_1239040" data-name="Trazado 1239040" d="M257.439,340.128h-3.172l-1.4-9.4-.519-3.473h3.133l.53,3.473Z" transform="translate(-252.343 -327.257)" fill="#fa8595"/>
                        <path id="Trazado_1239041" data-name="Trazado 1239041" d="M255.476,327.257l.53,3.473h-3.143l-.519-3.473Z" transform="translate(-252.343 -327.257)" fill="#f15771"/>
                      </g>
                      <g id="Grupo_1241700" data-name="Grupo 1241700" transform="translate(22.642 20.087)">
                        <path id="Trazado_1239042" data-name="Trazado 1239042" d="M288.136,340.128h-3.168l-1.4-9.4-.519-3.473h3.132l.53,3.473Z" transform="translate(-283.044 -327.257)" fill="#fa8595"/>
                        <path id="Trazado_1239043" data-name="Trazado 1239043" d="M286.706,330.73h-3.143l-.519-3.473h3.132Z" transform="translate(-283.044 -327.257)" fill="#f15771"/>
                      </g>
                      <g id="Grupo_1241701" data-name="Grupo 1241701">
                        <path id="Trazado_1239044" data-name="Trazado 1239044" d="M264.11,285.045H242.174l3.547,20.549h21.936Z" transform="translate(-238.981 -285.045)" fill="#f15771"/>
                        <path id="Trazado_1239045" data-name="Trazado 1239045" d="M257.4,285.045H235.463l3.546,20.549h21.936Z" transform="translate(-235.463 -285.045)" fill="#fa8595"/>
                      </g>
                    </g>
                    <g id="Grupo_1241703" data-name="Grupo 1241703" transform="translate(5.367 31.441)">
                      <path id="Trazado_1239046" data-name="Trazado 1239046" d="M259.292,358.315l-4.8,32.1h-3.23l4.894-32.1Z" transform="translate(-249.113 -354.89)" fill="#fa8595"/>
                      <path id="Trazado_1239047" data-name="Trazado 1239047" d="M279.038,358.315l-4.8,32.1h-3.23l4.894-32.1Z" transform="translate(-259.462 -354.89)" fill="#f15771"/>
                      <path id="Trazado_1239048" data-name="Trazado 1239048" d="M330.661,358.315l4.8,32.1h3.23l-4.894-32.1Z" transform="translate(-290.727 -354.89)" fill="#f15771"/>
                      <path id="Trazado_1239049" data-name="Trazado 1239049" d="M302.482,358.315l4.8,32.1h3.23l-4.894-32.1Z" transform="translate(-275.957 -354.89)" fill="#fa8595"/>
                      <path id="Trazado_1239050" data-name="Trazado 1239050" d="M291.764,355.815H249.09a2.349,2.349,0,0,1-2.349-2.349h0a2.349,2.349,0,0,1,2.349-2.349h42.674a2.349,2.349,0,0,1,2.349,2.349h0A2.348,2.348,0,0,1,291.764,355.815Z" transform="translate(-246.741 -351.117)" fill="#fa8595"/>
                    </g>
                  </g>
                </g>
              </g>
              <g id="Grupo_1241708" data-name="Grupo 1241708" transform="translate(45.172)">
                <path id="Trazado_1239051" data-name="Trazado 1239051" d="M257.335,156.321a7.215,7.215,0,0,1-7.218,7.223h-9.492l-8.224,3.438,2.76-3.932A7.221,7.221,0,0,1,237.8,149.1h12.322A7.219,7.219,0,0,1,257.335,156.321Z" transform="translate(-230.572 -149.104)" fill="#fa8595"/>
                <g id="Grupo_1241707" data-name="Grupo 1241707" transform="translate(6.372 5.716)">
                  <rect id="Rectángulo_423992" data-name="Rectángulo 423992" width="3.223" height="3.223" fill="#fff"/>
                  <rect id="Rectángulo_423993" data-name="Rectángulo 423993" width="3.223" height="3.223" transform="translate(5.874)" fill="#fff"/>
                  <rect id="Rectángulo_423994" data-name="Rectángulo 423994" width="3.223" height="3.223" transform="translate(11.915)" fill="#fff"/>
                </g>
              </g>
              <g id="Grupo_1241710" data-name="Grupo 1241710" transform="translate(91.043)">
                <path id="Trazado_1239052" data-name="Trazado 1239052" d="M353.73,156.321a7.215,7.215,0,0,1-7.218,7.223H337.02l-8.224,3.438,2.76-3.932A7.221,7.221,0,0,1,334.19,149.1h12.322A7.219,7.219,0,0,1,353.73,156.321Z" transform="translate(-326.967 -149.104)" fill="#fa8595"/>
                <g id="Grupo_1241709" data-name="Grupo 1241709" transform="translate(6.218 5.716)">
                  <rect id="Rectángulo_423995" data-name="Rectángulo 423995" width="3.223" height="3.223" fill="#fff"/>
                  <rect id="Rectángulo_423996" data-name="Rectángulo 423996" width="3.223" height="3.223" transform="translate(5.874)" fill="#fff"/>
                  <rect id="Rectángulo_423997" data-name="Rectángulo 423997" width="3.223" height="3.223" transform="translate(11.915)" fill="#fff"/>
                </g>
              </g>
            </g>
          </g>
        </g>
      </g>
    </g>
  </g>
</svg>
