<svg xmlns="http://www.w3.org/2000/svg" xmlns:xlink="http://www.w3.org/1999/xlink" width="106.16" height="106.16" viewBox="0 0 106.16 106.16">
  <defs>
    <filter id="Trazado_982547" x="0" y="0" width="106.16" height="106.16" filterUnits="userSpaceOnUse">
      <feOffset dy="3" input="SourceAlpha"/>
      <feGaussianBlur stdDeviation="3" result="blur"/>
      <feFlood flood-opacity="0.161"/>
      <feComposite operator="in" in2="blur"/>
      <feComposite in="SourceGraphic"/>
    </filter>
  </defs>
  <g id="Grupo_1241287" data-name="Grupo 1241287" transform="translate(-820.54 -1090)">
    <g id="Grupo_1235054" data-name="Grupo 1235054" transform="translate(1.37 -2027.593)">
      <g id="Grupo_1233885" data-name="Grupo 1233885" transform="translate(828.17 3123.593)">
        <g id="Grupo_1228507" data-name="Grupo 1228507" transform="translate(0 0)">
          <g id="Grupo_1206132" data-name="Grupo 1206132">
            <g id="Grupo_1203794" data-name="Grupo 1203794">
              <g id="Grupo_1203345" data-name="Grupo 1203345" transform="translate(0 0)">
                <g id="Grupo_1177900" data-name="Grupo 1177900">
                  <g id="Grupo_1172010" data-name="Grupo 1172010" transform="translate(0)">
                    <g id="Grupo_1171046" data-name="Grupo 1171046">
                      <g id="Grupo_1148525" data-name="Grupo 1148525">
                        <g transform="matrix(1, 0, 0, 1, -9, -6)" filter="url(#Trazado_982547)">
                          <g id="Trazado_982547-2" data-name="Trazado 982547" transform="translate(9 6)" fill="#e9f9fd">
                            <path d="M 44.0802001953125 86.660400390625 C 38.33124923706055 86.660400390625 32.75506210327148 85.53479766845703 27.50652503967285 83.31484985351562 C 22.43628692626953 81.17032623291016 17.88242530822754 78.09992218017578 13.97144985198975 74.18894958496094 C 10.06047534942627 70.27797698974609 6.99007511138916 65.72411346435547 4.845550060272217 60.65387344360352 C 2.625600099563599 55.40533828735352 1.500000238418579 49.82915115356445 1.500000238418579 44.0802001953125 C 1.500000238418579 38.33124923706055 2.625600099563599 32.75506210327148 4.845550060272217 27.50652503967285 C 6.99007511138916 22.43628692626953 10.06047534942627 17.88242530822754 13.97144985198975 13.97144985198975 C 17.88242530822754 10.06047534942627 22.43628692626953 6.99007511138916 27.50652503967285 4.845550060272217 C 32.75506210327148 2.625600099563599 38.33124923706055 1.500000238418579 44.0802001953125 1.500000238418579 C 49.82915115356445 1.500000238418579 55.40533828735352 2.625600099563599 60.65387344360352 4.845550060272217 C 65.72411346435547 6.99007511138916 70.27797698974609 10.06047534942627 74.18894958496094 13.97144985198975 C 78.09992218017578 17.88242530822754 81.17032623291016 22.43628692626953 83.31484985351562 27.50652503967285 C 85.53479766845703 32.75506210327148 86.660400390625 38.33124923706055 86.660400390625 44.0802001953125 C 86.660400390625 49.82915115356445 85.53479766845703 55.40533828735352 83.31484985351562 60.65387344360352 C 81.17032623291016 65.72411346435547 78.09992218017578 70.27797698974609 74.18894958496094 74.18894958496094 C 70.27797698974609 78.09992218017578 65.72411346435547 81.17032623291016 60.65387344360352 83.31484985351562 C 55.40533828735352 85.53479766845703 49.82915115356445 86.660400390625 44.0802001953125 86.660400390625 Z" stroke="none"/>
                            <path d="M 44.0802001953125 3 C 38.53308486938477 3 33.15349960327148 4.085746765136719 28.09085845947266 6.227058410644531 C 23.19941711425781 8.29595947265625 18.80581665039062 11.25841522216797 15.03211212158203 15.03211212158203 C 11.25841522216797 18.80581665039062 8.29595947265625 23.19941711425781 6.227058410644531 28.09085845947266 C 4.085746765136719 33.15349960327148 3 38.53308486938477 3 44.0802001953125 C 3 49.62731552124023 4.085746765136719 55.00691604614258 6.227058410644531 60.06954193115234 C 8.29595947265625 64.96098327636719 11.25841522216797 69.35458374023438 15.03211212158203 73.12828826904297 C 18.80581665039062 76.90198516845703 23.19941711425781 79.86444091796875 28.09085845947266 81.93334197998047 C 33.15349960327148 84.07466125488281 38.53308486938477 85.160400390625 44.0802001953125 85.160400390625 C 49.62731552124023 85.160400390625 55.00691604614258 84.07466125488281 60.06954193115234 81.93334197998047 C 64.96099853515625 79.86444091796875 69.35458374023438 76.90198516845703 73.12828826904297 73.12828826904297 C 76.90198516845703 69.35458374023438 79.86444091796875 64.96099853515625 81.93334197998047 60.06954193115234 C 84.07466125488281 55.00691604614258 85.160400390625 49.62731552124023 85.160400390625 44.0802001953125 C 85.160400390625 38.53308486938477 84.07466125488281 33.15349960327148 81.93334197998047 28.09085845947266 C 79.86444091796875 23.19941711425781 76.90198516845703 18.80581665039062 73.12828826904297 15.03211212158203 C 69.35458374023438 11.25841522216797 64.96098327636719 8.29595947265625 60.06954193115234 6.227058410644531 C 55.00691604614258 4.085746765136719 49.62731552124023 3 44.0802001953125 3 M 44.0802001953125 0 C 68.42502593994141 0 88.160400390625 19.73538970947266 88.160400390625 44.0802001953125 C 88.160400390625 68.42502593994141 68.42502593994141 88.160400390625 44.0802001953125 88.160400390625 C 19.73538970947266 88.160400390625 0 68.42502593994141 0 44.0802001953125 C 0 19.73538970947266 19.73538970947266 0 44.0802001953125 0 Z" stroke="none" fill="#1d7083"/>
                          </g>
                        </g>
                      </g>
                    </g>
                  </g>
                </g>
              </g>
            </g>
          </g>
        </g>
      </g>
    </g>
    <g id="empresario_1_" data-name="empresario (1)" transform="translate(828.138 1105.634)">
      <g id="Grupo_1241285" data-name="Grupo 1241285" transform="translate(17.393 0.887)">
        <path id="Trazado_1238099" data-name="Trazado 1238099" d="M127.411,7.349A12.047,12.047,0,0,0,115.364,19.4v4.767a3.841,3.841,0,0,1,3.069-1v-.6a.821.821,0,0,1,.88-.818A21.569,21.569,0,0,0,132.3,18.256a.821.821,0,0,1,1.05.128c3.064,3.294,3.046,3.166,3.046,3.6v1.179a3.645,3.645,0,0,1,3.068.9V19.4A12.047,12.047,0,0,0,127.411,7.349Z" transform="translate(-104.255 -7.349)" fill="#576574"/>
        <g id="Grupo_1241282" data-name="Grupo 1241282" transform="translate(11.109 0)">
          <path id="Trazado_1238100" data-name="Trazado 1238100" d="M117.779,19.4A12.048,12.048,0,0,1,128.619,7.41q-.6-.059-1.207-.06A12.047,12.047,0,0,0,115.364,19.4v4.767a3.9,3.9,0,0,1,2.415-1.028Z" transform="translate(-115.364 -7.35)" fill="#3e4b5a"/>
        </g>
        <path id="Trazado_1238101" data-name="Trazado 1238101" d="M288.14,133.981v6.6c0,.071,0,.142-.005.214a3.475,3.475,0,1,0,.005-6.813Z" transform="translate(-256.164 -118.65)" fill="#f2bb88"/>
        <path id="Trazado_1238102" data-name="Trazado 1238102" d="M111.815,140.711v-6.6a3.659,3.659,0,0,0-4.159,3.4,3.5,3.5,0,0,0,4.164,3.406C111.819,140.853,111.815,140.782,111.815,140.711Z" transform="translate(-97.477 -118.781)" fill="#f2bb88"/>
        <path id="Trazado_1238103" data-name="Trazado 1238103" d="M290.555,134.4a3.734,3.734,0,0,0-2.415-.42v6.6c0,.072,0,.142-.005.213a3.73,3.73,0,0,0,2.42-.419Z" transform="translate(-256.164 -118.65)" fill="#e3a76f"/>
        <path id="Trazado_1238104" data-name="Trazado 1238104" d="M111.815,140.506a3.347,3.347,0,0,1,0-5.877v-.515a3.659,3.659,0,0,0-4.159,3.4,3.5,3.5,0,0,0,4.164,3.406c0-.071-.005-.142-.005-.213v-.206Z" transform="translate(-97.477 -118.781)" fill="#e3a76f"/>
        <path id="Trazado_1238105" data-name="Trazado 1238105" d="M179.386,249.579a9.293,9.293,0,0,1-5.056-1.428v4.728l5.034,6.214,5.034-6.214v-4.862A8.8,8.8,0,0,1,179.386,249.579Z" transform="translate(-156.101 -218.957)" fill="#f2bb88"/>
        <path id="Trazado_1238106" data-name="Trazado 1238106" d="M176.746,250.2a8.927,8.927,0,0,1-2.415-1.074v4.728l2.415,2.981Z" transform="translate(-156.102 -219.929)" fill="#e3a76f"/>
        <path id="Trazado_1238107" data-name="Trazado 1238107" d="M64.976,290.793l-13.317-5.157-5.034,6.214-5.034-6.214-13.3,5.157a8.438,8.438,0,0,0-4.926,7.64V310.9a1.146,1.146,0,0,0,1.146,1.146H68.766a1.136,1.136,0,0,0,1.136-1.136V298.434A8.438,8.438,0,0,0,64.976,290.793Z" transform="translate(-23.361 -252.034)" fill="#e4eaf8"/>
        <g id="Grupo_1241283" data-name="Grupo 1241283" transform="translate(0 38.359)">
          <path id="Trazado_1238108" data-name="Trazado 1238108" d="M25.775,345.531V331.862a8.2,8.2,0,0,1,3.545-6.834l-1.034.4a8.438,8.438,0,0,0-4.926,7.64v12.462a1.146,1.146,0,0,0,1.146,1.146h2.415A1.146,1.146,0,0,1,25.775,345.531Z" transform="translate(-23.36 -325.028)" fill="#d8dce5"/>
        </g>
        <path id="Trazado_1238109" data-name="Trazado 1238109" d="M155.69,94.187a.821.821,0,0,0-1.05-.128,21.569,21.569,0,0,1-12.983,3.487.821.821,0,0,0-.88.818v7.2a8.98,8.98,0,0,0,17.958,0V97.783C158.736,97.353,158.754,97.48,155.69,94.187Z" transform="translate(-126.6 -83.471)" fill="#f2d1a5"/>
        <path id="Trazado_1238110" data-name="Trazado 1238110" d="M143.194,131.909v-7.971c-.512.006-1.024-.008-1.535-.045a.821.821,0,0,0-.88.818v7.2a9.078,9.078,0,0,0,10.186,8.782A8.862,8.862,0,0,1,143.194,131.909Z" transform="translate(-126.601 -109.819)" fill="#f2bb88"/>
        <path id="Trazado_1238111" data-name="Trazado 1238111" d="M222.1,295.042l3.764-7.544-4.809-1.862-5.034,6.214,4.908,3.486A.794.794,0,0,0,222.1,295.042Z" transform="translate(-192.758 -252.033)" fill="#d8dce5"/>
        <path id="Trazado_1238112" data-name="Trazado 1238112" d="M138.329,295.042l-3.764-7.544,4.809-1.862,5.034,6.214-4.908,3.486A.794.794,0,0,1,138.329,295.042Z" transform="translate(-121.137 -252.033)" fill="#d8dce5"/>
        <path id="Trazado_1238113" data-name="Trazado 1238113" d="M190.038,337.1v0l0,0,0,0v0l-3.57,2.535,1.687,2.54h3.771l1.687-2.54Z" transform="translate(-166.768 -297.28)" fill="#ee5253"/>
        <path id="Trazado_1238114" data-name="Trazado 1238114" d="M179.253,394.274h8.887l-2.558-15.112h-3.771Z" transform="translate(-160.429 -334.266)" fill="#ff6b6b"/>
        <path id="Trazado_1238115" data-name="Trazado 1238115" d="M191.242,337.957l-1.2-.855v0l0,0,0,0v0l-3.57,2.535,1.687,2.54h2.415l-1.314-1.977a.7.7,0,0,1,.177-.953Z" transform="translate(-166.768 -297.281)" fill="#d83941"/>
        <path id="Trazado_1238116" data-name="Trazado 1238116" d="M181.811,379.161l-2.558,15.112h2.415l2.558-15.112Z" transform="translate(-160.429 -334.266)" fill="#ee5253"/>
        <g id="Grupo_1241284" data-name="Grupo 1241284" transform="translate(32.635 31.76)">
          <path id="Trazado_1238117" data-name="Trazado 1238117" d="M305.326,293.757a11.688,11.688,0,1,1,11.689-11.688A11.7,11.7,0,0,1,305.326,293.757Z" transform="translate(-293.638 -270.38)" fill="#15ba8b"/>
        </g>
        <path id="Trazado_1238118" data-name="Trazado 1238118" d="M296.052,282.062a11.7,11.7,0,0,1,10.481-11.626,11.688,11.688,0,1,0,0,23.253A11.705,11.705,0,0,1,296.052,282.062Z" transform="translate(-261.002 -238.613)" fill="#11aa7b"/>
        <path id="Trazado_1238119" data-name="Trazado 1238119" d="M328.522,296.761a8.5,8.5,0,1,0,8.5,8.5A8.512,8.512,0,0,0,328.522,296.761Z" transform="translate(-284.198 -261.815)" fill="#3fefbc"/>
        <path id="Trazado_1238120" data-name="Trazado 1238120" d="M322.434,305.263a8.515,8.515,0,0,1,7.3-8.416,8.5,8.5,0,1,0,0,16.832A8.515,8.515,0,0,1,322.434,305.263Z" transform="translate(-284.198 -261.815)" fill="#1dd1a1"/>
      </g>
      <g id="Grupo_1241286" data-name="Grupo 1241286" transform="translate(16.574)">
        <path id="Trazado_1238121" data-name="Trazado 1238121" d="M18.625,61.819H62.884a2.044,2.044,0,0,0,2.041-2.041V56.555a12.6,12.6,0,0,0-.853-24.588.906.906,0,0,0-.327,1.781,10.784,10.784,0,0,1,.131,21.186l-.029,0a10.783,10.783,0,1,1-4-21.19.906.906,0,0,0-.327-1.781,12.555,12.555,0,0,0-7.207,4.1l-5.63-2.181V30.745a9.755,9.755,0,0,0,3.767-6.587,4.351,4.351,0,0,0,3.14-7.23V12.953a12.953,12.953,0,1,0-25.906,0V17.03a4.1,4.1,0,0,0-1.09,2.773,4.367,4.367,0,0,0,4.23,4.355A9.648,9.648,0,0,0,34.8,30.9v2.991L22.078,38.821l-.017.007a9.28,9.28,0,0,0-5.487,8.478V59.768A2.054,2.054,0,0,0,18.625,61.819ZM56.543,55.8a12.519,12.519,0,0,0,5.254,1.15,12.68,12.68,0,0,0,1.318-.069v2.9a.23.23,0,0,1-.23.23H56.543Zm-5.36-18.226a12.591,12.591,0,0,0,3.549,17.2v5.233H45.955l-.813-4.8a.906.906,0,1,0-1.786.3l.762,4.5H37.375l2.251-13.3h2.241l.774,4.574a.906.906,0,1,0,1.786-.3L43.585,46l.972-1.463.57.4a1.7,1.7,0,0,0,2.5-.627h0l3.4-6.807ZM40.746,41.835l2.333,1.657-.933,1.4h-2.8l-.933-1.4Zm0-2.556-4.132-5.1v-2.26a10.659,10.659,0,0,0,4.15.834,9.73,9.73,0,0,0,4.107-.908v2.343Zm8.585-2.423-3.262,6.538-4.015-2.852,4.011-4.951Zm2.662-15.139a2.633,2.633,0,0,1-1.472.62V17.27A2.539,2.539,0,0,1,51.993,21.716Zm-21.241.62A2.548,2.548,0,0,1,28.4,19.8a2.69,2.69,0,0,1,2.348-2.492Zm.03-6.855a5.143,5.143,0,0,0-1.287.3V12.953a11.142,11.142,0,1,1,22.284,0v2.754a4.547,4.547,0,0,0-1.257-.254c0-1.088.132-.779-3.023-4.164a2.1,2.1,0,0,0-1.174-.8,1.721,1.721,0,0,0-1.3.245,20.565,20.565,0,0,1-12.314,3.348A1.714,1.714,0,0,0,30.781,15.482ZM32.563,23V15.89a22.406,22.406,0,0,0,13.392-3.6c1.636,1.758,2.517,2.671,2.754,2.977,0,9.033,0,7.426-.005,7.927A8.075,8.075,0,0,1,32.563,23Zm2.859,12.6,4.012,4.952-4.011,2.849-3.262-6.538ZM18.385,47.306a7.474,7.474,0,0,1,4.359-6.8l7.721-2.993,3.4,6.807h0a1.7,1.7,0,0,0,1.108.89,2.214,2.214,0,0,0,1.967-.668L37.908,46l-2.37,14H26.769V49.236a.906.906,0,1,0-1.811,0V60.008H18.625a.24.24,0,0,1-.24-.24Z" transform="translate(-16.574)"/>
        <path id="Trazado_1238122" data-name="Trazado 1238122" d="M363.793,348.546a.906.906,0,0,0,1.266,0l4.194-4.088a.906.906,0,1,0-1.264-1.3l-3.56,3.47-1.492-1.462a.906.906,0,0,0-1.268,1.294Z" transform="translate(-319.761 -301.501)"/>
        <path id="Trazado_1238123" data-name="Trazado 1238123" d="M313.174,298.821a9.409,9.409,0,1,0,9.409-9.409A9.419,9.419,0,0,0,313.174,298.821Zm9.409-7.6a7.6,7.6,0,1,1-7.6,7.6A7.606,7.606,0,0,1,322.583,291.223Z" transform="translate(-277.36 -254.466)"/>
      </g>
    </g>
  </g>
</svg>
