<svg xmlns="http://www.w3.org/2000/svg" xmlns:xlink="http://www.w3.org/1999/xlink" width="108" height="108" viewBox="0 0 108 108">
  <defs>
    <filter id="Trazado_904820" x="0" y="0" width="108" height="108" filterUnits="userSpaceOnUse">
      <feOffset dy="3" input="SourceAlpha"/>
      <feGaussianBlur stdDeviation="3" result="blur"/>
      <feFlood flood-opacity="0.161"/>
      <feComposite operator="in" in2="blur"/>
      <feComposite in="SourceGraphic"/>
    </filter>
  </defs>
  <g id="Grupo_1242021" data-name="Grupo 1242021" transform="translate(-621 -1254.142)">
    <g id="Grupo_1241853" data-name="Grupo 1241853" transform="translate(4 434.687)">
      <g id="Grupo_1233818" data-name="Grupo 1233818" transform="translate(0 13.455)">
        <g id="Grupo_1228307" data-name="Grupo 1228307" transform="translate(0 -3017.921)">
          <g id="Grupo_1228100" data-name="Grupo 1228100" transform="translate(626 3829.921)">
            <g id="Grupo_1221597" data-name="Grupo 1221597" transform="translate(0 0)">
              <g id="Grupo_1219744" data-name="Grupo 1219744">
                <g id="Grupo_1202418" data-name="Grupo 1202418">
                  <g id="Grupo_1177315" data-name="Grupo 1177315">
                    <g id="Grupo_1173585" data-name="Grupo 1173585">
                      <g id="Grupo_1173428" data-name="Grupo 1173428">
                        <g id="Grupo_1171958" data-name="Grupo 1171958">
                          <g id="Grupo_1167341" data-name="Grupo 1167341">
                            <g id="Grupo_1166792" data-name="Grupo 1166792">
                              <g transform="matrix(1, 0, 0, 1, -9, -6)" filter="url(#Trazado_904820)">
                                <g id="Trazado_904820-2" data-name="Trazado 904820" transform="translate(9 6)" fill="#f6f3ef">
                                  <path d="M 44.99999618530273 88.49995422363281 C 39.12687301635742 88.49995422363281 33.43022155761719 87.35002899169922 28.06829643249512 85.08213043212891 C 22.88852119445801 82.89126586914062 18.23629570007324 79.75455474853516 14.24084663391113 75.75910186767578 C 10.24540901184082 71.76364898681641 7.108683586120605 67.11144256591797 4.917821407318115 61.93166351318359 C 2.649921178817749 56.56974029541016 1.499996185302734 50.87310028076172 1.499996185302734 44.99997711181641 C 1.499996185302734 39.12685394287109 2.649921178817749 33.43021392822266 4.917821407318115 28.06828880310059 C 7.108683586120605 22.88851547241211 10.24540901184082 18.23630142211914 14.24084663391113 14.24085235595703 C 18.23629570007324 10.24540233612061 22.88852119445801 7.108689785003662 28.06829643249512 4.917827129364014 C 33.43022155761719 2.649927139282227 39.12687301635742 1.500002145767212 44.99999618530273 1.500002145767212 C 50.87311935424805 1.500002145767212 56.56977081298828 2.649927139282227 61.93169784545898 4.917827129364014 C 67.11147308349609 7.108689785003662 71.76369476318359 10.24540233612061 75.75914764404297 14.24085235595703 C 79.75458526611328 18.23630142211914 82.89131164550781 22.88851547241211 85.08216857910156 28.06828880310059 C 87.35007476806641 33.43021392822266 88.5 39.12685394287109 88.5 44.99997711181641 C 88.5 50.87310028076172 87.35007476806641 56.56974029541016 85.08216857910156 61.93166351318359 C 82.89131164550781 67.11144256591797 79.75458526611328 71.76364898681641 75.75914764404297 75.75910186767578 C 71.76369476318359 79.75455474853516 67.11147308349609 82.89126586914062 61.93169784545898 85.08213043212891 C 56.56977081298828 87.35002899169922 50.87311935424805 88.49995422363281 44.99999618530273 88.49995422363281 Z" stroke="none"/>
                                  <path d="M 44.99999618530273 2.999992370605469 C 39.32870864868164 2.999992370605469 33.82865142822266 4.11004638671875 28.65262603759766 6.299331665039062 C 23.65165710449219 8.414566040039062 19.15968322753906 11.44333648681641 15.301513671875 15.30150604248047 C 11.44333648681641 19.15967559814453 8.414566040039062 23.65163421630859 6.299339294433594 28.65260696411133 C 4.110054016113281 33.82864761352539 2.999992370605469 39.32868957519531 2.999992370605469 44.99997711181641 C 2.999992370605469 50.6712646484375 4.110054016113281 56.17130661010742 6.299339294433594 61.34733581542969 C 8.414566040039062 66.34830474853516 11.44333648681641 70.84026336669922 15.301513671875 74.69844818115234 C 19.15968322753906 78.55661773681641 23.65165710449219 81.58537292480469 28.65262603759766 83.70062255859375 C 33.82865142822266 85.889892578125 39.32870864868164 86.99994659423828 44.99999618530273 86.99994659423828 C 50.67128372192383 86.99994659423828 56.17134094238281 85.889892578125 61.34736633300781 83.70062255859375 C 66.34834289550781 81.58537292480469 70.84030914306641 78.55661773681641 74.69847869873047 74.69844818115234 C 78.55665588378906 70.84026336669922 81.58542633056641 66.34830474853516 83.70065307617188 61.34733581542969 C 85.88993835449219 56.17130661010742 87 50.6712646484375 87 44.99997711181641 C 87 39.32868957519531 85.88993835449219 33.82864761352539 83.70065307617188 28.65260696411133 C 81.58542633056641 23.65163421630859 78.55665588378906 19.15967559814453 74.69847869873047 15.30150604248047 C 70.84030914306641 11.44333648681641 66.34834289550781 8.414566040039062 61.34736633300781 6.299331665039062 C 56.17134094238281 4.11004638671875 50.67128372192383 2.999992370605469 44.99999618530273 2.999992370605469 M 44.99999618530273 -7.62939453125e-06 C 69.85281372070312 -7.62939453125e-06 90 20.14717864990234 90 44.99997711181641 C 90 69.85277557373047 69.85281372070312 89.99994659423828 44.99999618530273 89.99994659423828 C 20.14717864990234 89.99994659423828 -7.62939453125e-06 69.85277557373047 -7.62939453125e-06 44.99997711181641 C -7.62939453125e-06 20.14717864990234 20.14717864990234 -7.62939453125e-06 44.99999618530273 -7.62939453125e-06 Z" stroke="none" fill="#7b776f"/>
                                </g>
                              </g>
                            </g>
                          </g>
                        </g>
                      </g>
                    </g>
                  </g>
                </g>
              </g>
            </g>
          </g>
        </g>
      </g>
    </g>
    <g id="proceso-de-trabajo_6_" data-name="proceso-de-trabajo (6)" transform="translate(640.185 1270.327)">
      <g id="Grupo_1242019" data-name="Grupo 1242019" transform="translate(1.088 1.088)">
        <path id="Trazado_1239379" data-name="Trazado 1239379" d="M60.931,10.788h0A30.943,30.943,0,0,0,30.148,38.606l8.168-.382A22.926,22.926,0,0,1,60.931,18.845l-.036.013v3.127l7.9-6.381L60.895,8v2.8" transform="translate(-27.136 -8)" fill="#ffe27a"/>
        <path id="Trazado_1239380" data-name="Trazado 1239380" d="M111.018,75.336l5.948-4.806a22.9,22.9,0,0,0-28.8,21.057l.279-.013A22.926,22.926,0,0,1,111.055,72.2l-.036.013Z" transform="translate(-77.259 -61.35)" fill="#f9cf58"/>
        <path id="Trazado_1239381" data-name="Trazado 1239381" d="M173.515,156.9l-2.587-.389a12.073,12.073,0,0,0-1.9-4.592l1.555-2.105a.926.926,0,0,0-.09-1.2l-1.339-1.339a.926.926,0,0,0-1.2-.09l-2.105,1.555a12.072,12.072,0,0,0-4.592-1.9l-.389-2.587a.926.926,0,0,0-.915-.788H158.05a.926.926,0,0,0-.915.788l-.389,2.587a12.071,12.071,0,0,0-4.592,1.9l-2.105-1.555a.926.926,0,0,0-1.2.09l-1.339,1.339a.926.926,0,0,0-.09,1.2l1.555,2.105a12.072,12.072,0,0,0-1.9,4.592l-2.587.389a.926.926,0,0,0-.788.915v1.894a.926.926,0,0,0,.788.916l2.587.389a12.073,12.073,0,0,0,1.9,4.592l-1.555,2.105a.926.926,0,0,0,.09,1.2l1.339,1.339a.926.926,0,0,0,1.2.09l2.105-1.555a12.072,12.072,0,0,0,4.592,1.9l.389,2.587a.926.926,0,0,0,.915.788h1.894a.926.926,0,0,0,.915-.788l.389-2.587a12.071,12.071,0,0,0,4.592-1.9l2.105,1.555a.926.926,0,0,0,1.2-.09l1.339-1.339a.926.926,0,0,0,.09-1.2l-1.555-2.105a12.073,12.073,0,0,0,1.9-4.592l2.587-.389a.926.926,0,0,0,.788-.916v-1.894a.926.926,0,0,0-.788-.915ZM159,164.888a6.126,6.126,0,1,1,6.126-6.126A6.126,6.126,0,0,1,159,164.888Z" transform="translate(-125.238 -125.034)" fill="#ff4755"/>
        <path id="Trazado_1239382" data-name="Trazado 1239382" d="M10.82,205.6c0,.01,0,.021,0,.032a30.943,30.943,0,0,0,27.819,30.783l-.48-8.184a22.887,22.887,0,0,1-19.282-22.6c0-.01,0-.021,0-.032h3.108l-6.381-7.9L8,205.6h2.8" transform="translate(-8 -171.901)" fill="#8bcaff"/>
        <path id="Trazado_1239383" data-name="Trazado 1239383" d="M205.6,298.253h.063a22.887,22.887,0,0,0,22.6-19.276l8.192-.557a30.942,30.942,0,0,1-30.79,27.89H205.6V309.1l-7.9-7.605,7.9-6.381v3.127Z" transform="translate(-171.901 -241.645)" fill="#98db7c"/>
        <path id="Trazado_1239384" data-name="Trazado 1239384" d="M223.438,266.224a6.152,6.152,0,0,0-.123-1.224,6.127,6.127,0,0,1-12.007,0,6.127,6.127,0,1,0,12.13,1.224Z" transform="translate(-183.552 -230.049)" fill="#fc2b3a"/>
        <path id="Trazado_1239385" data-name="Trazado 1239385" d="M217.272,303.864a31.081,31.081,0,0,1-6.132-.609l6.069,5.845v-2.789h.063a30.942,30.942,0,0,0,30.79-27.89l-.421.438A30.948,30.948,0,0,1,217.272,303.864Z" transform="translate(-183.514 -241.645)" fill="#82d361"/>
        <path id="Trazado_1239386" data-name="Trazado 1239386" d="M53.54,283.682a30.955,30.955,0,0,1-24.712-27.914h-.095c0,.01,0,.021,0,.032a30.943,30.943,0,0,0,27.819,30.783Z" transform="translate(-25.913 -222.072)" fill="#6cc4ff"/>
        <path id="Trazado_1239387" data-name="Trazado 1239387" d="M306.552,60.423c0-.01,0-.021,0-.032A30.942,30.942,0,0,0,278.664,29.6l4.846,4.667-4.35,3.514A22.887,22.887,0,0,1,298.5,60.391c0,.01,0,.021,0,.032h-3.171l6.381,7.9,7.605-7.9Z" transform="translate(-241.855 -26.664)" fill="#ffba57"/>
        <g id="Grupo_1242018" data-name="Grupo 1242018" transform="translate(37.306 9.18)">
          <path id="Trazado_1239388" data-name="Trazado 1239388" d="M284.716,75.5l-2.4,1.94a22.889,22.889,0,0,1,19.3,21.39q.032-.611.033-1.23A22.89,22.89,0,0,0,284.716,75.5Z" transform="translate(-282.316 -75.501)" fill="#ffac3e"/>
        </g>
      </g>
      <g id="Grupo_1242020" data-name="Grupo 1242020" transform="translate(0 0)">
        <path id="Trazado_1239389" data-name="Trazado 1239389" d="M210.731,203.347a7.165,7.165,0,0,0-6.727,9.62,1.022,1.022,0,1,0,1.92-.7,5.117,5.117,0,1,1,2.171,2.629,1.022,1.022,0,0,0-1.055,1.751,7.161,7.161,0,1,0,3.691-13.3Z" transform="translate(-175.886 -175.692)"/>
        <path id="Trazado_1239390" data-name="Trazado 1239390" d="M167,149.195l-1.9-.285a13.019,13.019,0,0,0-1.515-3.655l1.139-1.542a1.938,1.938,0,0,0-.19-2.537l-1.342-1.342a1.938,1.938,0,0,0-2.537-.19l-1.542,1.139a13.014,13.014,0,0,0-3.655-1.515l-.285-1.9a1.938,1.938,0,0,0-1.928-1.66h-1.9a1.938,1.938,0,0,0-1.928,1.66l-.285,1.9a13.014,13.014,0,0,0-3.655,1.515l-1.542-1.139a1.938,1.938,0,0,0-2.537.19l-1.342,1.342a1.938,1.938,0,0,0-.19,2.537l1.139,1.542a13.005,13.005,0,0,0-1.515,3.655l-1.895.285a1.938,1.938,0,0,0-1.66,1.928v1.9a1.938,1.938,0,0,0,1.66,1.928l1.9.285a13.015,13.015,0,0,0,1.515,3.655l-1.139,1.542a1.938,1.938,0,0,0,.189,2.537l1.342,1.342a1.938,1.938,0,0,0,2.537.189l1.542-1.139a13.012,13.012,0,0,0,3.655,1.515l.285,1.9a1.938,1.938,0,0,0,1.928,1.66h1.9a1.938,1.938,0,0,0,1.928-1.66l.285-1.895a13.014,13.014,0,0,0,3.655-1.515l1.542,1.139a1.938,1.938,0,0,0,2.537-.19l1.342-1.342a1.938,1.938,0,0,0,.189-2.537l-1.139-1.542a13.01,13.01,0,0,0,1.515-3.655l1.895-.285a1.938,1.938,0,0,0,1.66-1.928v-1.9a1.937,1.937,0,0,0-1.66-1.928Zm-.384,3.744-2.512.378a1.022,1.022,0,0,0-.852.822,11.019,11.019,0,0,1-1.746,4.213,1.022,1.022,0,0,0,.022,1.184l1.51,2.044-1.227,1.227-2.044-1.51a1.023,1.023,0,0,0-1.184-.022,11.019,11.019,0,0,1-4.213,1.746,1.022,1.022,0,0,0-.822.853l-.378,2.512h-1.735l-.378-2.512a1.022,1.022,0,0,0-.822-.853,11.019,11.019,0,0,1-4.213-1.746,1.021,1.021,0,0,0-1.184.022l-2.044,1.51-1.227-1.227,1.51-2.044a1.022,1.022,0,0,0,.022-1.184,11.017,11.017,0,0,1-1.746-4.213,1.022,1.022,0,0,0-.852-.822l-2.512-.378V151.2l2.512-.378a1.022,1.022,0,0,0,.852-.822,11.018,11.018,0,0,1,1.746-4.213,1.022,1.022,0,0,0-.022-1.184l-1.51-2.044,1.227-1.227,2.044,1.51a1.022,1.022,0,0,0,1.184.022,11.021,11.021,0,0,1,4.213-1.746,1.022,1.022,0,0,0,.822-.853l.378-2.512h1.735l.378,2.512a1.022,1.022,0,0,0,.822.853,11.017,11.017,0,0,1,4.213,1.746,1.022,1.022,0,0,0,1.184-.022l2.044-1.51,1.227,1.227-1.51,2.044a1.022,1.022,0,0,0-.022,1.184A11.018,11.018,0,0,1,163.25,150a1.022,1.022,0,0,0,.852.822l2.512.378Z" transform="translate(-117.455 -117.256)"/>
        <path id="Trazado_1239391" data-name="Trazado 1239391" d="M69.549,34.447a1.022,1.022,0,0,0-.94-.622H66.853A32.023,32.023,0,0,0,38.36,2.986L35.554.283a1.029,1.029,0,0,0-1.731.736V2.807a31.8,31.8,0,0,0-17.41,5.818A1.022,1.022,0,1,0,17.591,10.3,29.784,29.784,0,0,1,34.846,4.835a1.022,1.022,0,0,0,1.022-1.022V3.423l5.348,5.15-5.348,4.321V11.887a1.022,1.022,0,0,0-1.022-1.022A23.957,23.957,0,0,0,11.625,28.939l-2.19-2.711A1.029,1.029,0,0,0,7.9,26.162L5.5,28.654a29.942,29.942,0,0,1,9.013-15.873,1.022,1.022,0,0,0-1.386-1.5A31.959,31.959,0,0,0,3.024,31.229L.283,34.075a1.029,1.029,0,0,0,.736,1.731H2.838A32.024,32.024,0,0,0,31.26,66.638l2.813,2.709a1.028,1.028,0,0,0,1.731-.736V66.825A31.776,31.776,0,0,0,53.495,60.85,1.022,1.022,0,0,0,52.3,59.19a29.771,29.771,0,0,1-17.47,5.605h-.051a1.022,1.022,0,0,0-1.022,1.022v.391l-5.348-5.15,5.348-4.321v1.006a1.022,1.022,0,0,0,1.015,1.022h.07A23.957,23.957,0,0,0,58.05,40.75L60.193,43.4a1.028,1.028,0,0,0,1.531.067l2.48-2.575A29.959,29.959,0,0,1,55.36,56.675a1.022,1.022,0,1,0,1.4,1.49,31.978,31.978,0,0,0,9.915-19.837l2.67-2.773a1.021,1.021,0,0,0,.2-1.109ZM26.227,60.2a1.028,1.028,0,0,0-.066,1.531l2.526,2.433a29.988,29.988,0,0,1-23.82-29.34v-.035a1.022,1.022,0,0,0-1.022-1.022H3.422l5.15-5.348,4.321,5.348h-.975A1.019,1.019,0,0,0,10.9,34.78v.035a23.957,23.957,0,0,0,18.02,23.207Zm22.91-8.779A21.9,21.9,0,0,1,35.8,56.7V54.6a1.029,1.029,0,0,0-1.664-.8l-3.185,2.573a21.912,21.912,0,0,1-17.993-20.57h2.071a1.029,1.029,0,0,0,.8-1.664l-2.553-3.159A21.911,21.911,0,0,1,33.823,12.933v2.1a1.029,1.029,0,0,0,1.664.8l3.2-2.583A21.912,21.912,0,0,1,56.729,33.825H54.595a1.029,1.029,0,0,0-.8,1.664l2.6,3.223a21.917,21.917,0,0,1-7.266,12.7Zm11.918-10.2-4.321-5.348h1.038a1.019,1.019,0,0,0,1.022-1.018v-.035A23.958,23.958,0,0,0,40.727,11.6L43.4,9.435A1.028,1.028,0,0,0,43.467,7.9L40.925,5.456a29.987,29.987,0,0,1,23.9,29.356v.035a1.022,1.022,0,0,0,1.022,1.022h.359Z" transform="translate(0 0)"/>
      </g>
    </g>
  </g>
</svg>
