<svg xmlns="http://www.w3.org/2000/svg" xmlns:xlink="http://www.w3.org/1999/xlink" width="106.16" height="106.16" viewBox="0 0 106.16 106.16">
  <defs>
    <filter id="Trazado_982547" x="0" y="0" width="106.16" height="106.16" filterUnits="userSpaceOnUse">
      <feOffset dy="3" input="SourceAlpha"/>
      <feGaussianBlur stdDeviation="3" result="blur"/>
      <feFlood flood-opacity="0.161"/>
      <feComposite operator="in" in2="blur"/>
      <feComposite in="SourceGraphic"/>
    </filter>
  </defs>
  <g id="Grupo_1241288" data-name="Grupo 1241288" transform="translate(-190.54 -1240)">
    <g id="Grupo_1235055" data-name="Grupo 1235055" transform="translate(1.37 -2025.897)">
      <g id="Grupo_1233886" data-name="Grupo 1233886" transform="translate(198.17 3271.897)">
        <g id="Grupo_1228508" data-name="Grupo 1228508" transform="translate(0 0)">
          <g id="Grupo_1206132" data-name="Grupo 1206132" transform="translate(0)">
            <g id="Grupo_1203794" data-name="Grupo 1203794">
              <g id="Grupo_1203345" data-name="Grupo 1203345">
                <g id="Grupo_1177900" data-name="Grupo 1177900">
                  <g id="Grupo_1172010" data-name="Grupo 1172010">
                    <g id="Grupo_1171046" data-name="Grupo 1171046">
                      <g id="Grupo_1148525" data-name="Grupo 1148525">
                        <g transform="matrix(1, 0, 0, 1, -9, -6)" filter="url(#Trazado_982547)">
                          <g id="Trazado_982547-2" data-name="Trazado 982547" transform="translate(9 6)" fill="#e9f9fd">
                            <path d="M 44.0802001953125 86.660400390625 C 38.33124923706055 86.660400390625 32.75506210327148 85.53479766845703 27.50652503967285 83.31484985351562 C 22.43628692626953 81.17032623291016 17.88242530822754 78.09992218017578 13.97144985198975 74.18894958496094 C 10.06047534942627 70.27797698974609 6.99007511138916 65.72411346435547 4.845550060272217 60.65387344360352 C 2.625600099563599 55.40533828735352 1.500000238418579 49.82915115356445 1.500000238418579 44.0802001953125 C 1.500000238418579 38.33124923706055 2.625600099563599 32.75506210327148 4.845550060272217 27.50652503967285 C 6.99007511138916 22.43628692626953 10.06047534942627 17.88242530822754 13.97144985198975 13.97144985198975 C 17.88242530822754 10.06047534942627 22.43628692626953 6.99007511138916 27.50652503967285 4.845550060272217 C 32.75506210327148 2.625600099563599 38.33124923706055 1.500000238418579 44.0802001953125 1.500000238418579 C 49.82915115356445 1.500000238418579 55.40533828735352 2.625600099563599 60.65387344360352 4.845550060272217 C 65.72411346435547 6.99007511138916 70.27797698974609 10.06047534942627 74.18894958496094 13.97144985198975 C 78.09992218017578 17.88242530822754 81.17032623291016 22.43628692626953 83.31484985351562 27.50652503967285 C 85.53479766845703 32.75506210327148 86.660400390625 38.33124923706055 86.660400390625 44.0802001953125 C 86.660400390625 49.82915115356445 85.53479766845703 55.40533828735352 83.31484985351562 60.65387344360352 C 81.17032623291016 65.72411346435547 78.09992218017578 70.27797698974609 74.18894958496094 74.18894958496094 C 70.27797698974609 78.09992218017578 65.72411346435547 81.17032623291016 60.65387344360352 83.31484985351562 C 55.40533828735352 85.53479766845703 49.82915115356445 86.660400390625 44.0802001953125 86.660400390625 Z" stroke="none"/>
                            <path d="M 44.0802001953125 3 C 38.53308486938477 3 33.15349960327148 4.085746765136719 28.09085845947266 6.227058410644531 C 23.19941711425781 8.29595947265625 18.80581665039062 11.25841522216797 15.03211212158203 15.03211212158203 C 11.25841522216797 18.80581665039062 8.29595947265625 23.19941711425781 6.227058410644531 28.09085845947266 C 4.085746765136719 33.15349960327148 3 38.53308486938477 3 44.0802001953125 C 3 49.62731552124023 4.085746765136719 55.00691604614258 6.227058410644531 60.06954193115234 C 8.29595947265625 64.96098327636719 11.25841522216797 69.35458374023438 15.03211212158203 73.12828826904297 C 18.80581665039062 76.90198516845703 23.19941711425781 79.86444091796875 28.09085845947266 81.93334197998047 C 33.15349960327148 84.07466125488281 38.53308486938477 85.160400390625 44.0802001953125 85.160400390625 C 49.62731552124023 85.160400390625 55.00691604614258 84.07466125488281 60.06954193115234 81.93334197998047 C 64.96099853515625 79.86444091796875 69.35458374023438 76.90198516845703 73.12828826904297 73.12828826904297 C 76.90198516845703 69.35458374023438 79.86444091796875 64.96099853515625 81.93334197998047 60.06954193115234 C 84.07466125488281 55.00691604614258 85.160400390625 49.62731552124023 85.160400390625 44.0802001953125 C 85.160400390625 38.53308486938477 84.07466125488281 33.15349960327148 81.93334197998047 28.09085845947266 C 79.86444091796875 23.19941711425781 76.90198516845703 18.80581665039062 73.12828826904297 15.03211212158203 C 69.35458374023438 11.25841522216797 64.96098327636719 8.29595947265625 60.06954193115234 6.227058410644531 C 55.00691604614258 4.085746765136719 49.62731552124023 3 44.0802001953125 3 M 44.0802001953125 0 C 68.42502593994141 0 88.160400390625 19.73538970947266 88.160400390625 44.0802001953125 C 88.160400390625 68.42502593994141 68.42502593994141 88.160400390625 44.0802001953125 88.160400390625 C 19.73538970947266 88.160400390625 0 68.42502593994141 0 44.0802001953125 C 0 19.73538970947266 19.73538970947266 0 44.0802001953125 0 Z" stroke="none" fill="#1d7083"/>
                          </g>
                        </g>
                      </g>
                    </g>
                  </g>
                </g>
              </g>
            </g>
          </g>
        </g>
      </g>
    </g>
    <g id="Page-1" transform="translate(216.036 1262.497)">
      <g id="_038---Employee-Benefits" data-name="038---Employee-Benefits" transform="translate(0)">
        <g id="Icons" transform="translate(0.919 0.917)">
          <path id="Shape" d="M56.066,7.758V20.63a2.758,2.758,0,0,1-2.758,2.758H37.963A11.048,11.048,0,0,0,34,18.1V7.758A2.758,2.758,0,0,1,36.758,5h16.55a2.758,2.758,0,0,1,2.758,2.758Z" transform="translate(-2.739 -1.32)" fill="#60a917"/>
          <path id="Shape-2" data-name="Shape" d="M54.758,5H52a2.758,2.758,0,0,1,2.758,2.758V20.63A2.758,2.758,0,0,1,52,23.389h2.758a2.758,2.758,0,0,0,2.758-2.758V7.758A2.758,2.758,0,0,0,54.758,5Z" transform="translate(-4.189 -1.32)" fill="#549414"/>
          <path id="Shape-3" data-name="Shape" d="M8.275,35.839V55.147a1.839,1.839,0,0,1-1.839,1.839h-4.6A1.844,1.844,0,0,1,0,55.147V35.839A1.844,1.844,0,0,1,1.839,34h4.6A1.844,1.844,0,0,1,8.275,35.839Z" transform="translate(0 -3.656)" fill="#02a9f4"/>
          <path id="Shape-4" data-name="Shape" d="M6.758,34H4a1.844,1.844,0,0,1,1.839,1.839V55.147A1.839,1.839,0,0,1,4,56.986H6.758A1.839,1.839,0,0,0,8.6,55.147V35.839A1.844,1.844,0,0,0,6.758,34Z" transform="translate(-0.322 -3.656)" fill="#0377bc"/>
          <path id="Shape-5" data-name="Shape" d="M52.817,44.8,35.587,55.29a6.436,6.436,0,0,1-3.347.938H8.73a1.839,1.839,0,0,0,.248-.919V36h2.574a8.421,8.421,0,0,1,5.241,1.839,8.321,8.321,0,0,0,4.137,1.756,7.428,7.428,0,0,0,1.1.083h4.809a4.591,4.591,0,0,1,3.944,2.234,3.058,3.058,0,0,1,.414,1.581,3.781,3.781,0,0,1-1.076,2.62h2.4a3.616,3.616,0,0,0,1.168-.193l17.019-5.673a2.533,2.533,0,0,1,2.813.883v.009a2.51,2.51,0,0,1-.708,3.659Z" transform="translate(-0.703 -3.817)" fill="#ffe0b2"/>
          <path id="Shape-6" data-name="Shape" d="M55.343,41.5v-.009a2.533,2.533,0,0,0-2.813-.883l-.689.23a2.515,2.515,0,0,1,.744.653V41.5a2.51,2.51,0,0,1-.708,3.659L34.647,55.651a6.436,6.436,0,0,1-3.347.938h2.758a6.436,6.436,0,0,0,3.347-.938L54.635,45.16a2.51,2.51,0,0,0,.708-3.659Z" transform="translate(-2.522 -4.179)" fill="#dfc49c"/>
          <circle id="Oval" cx="5.517" cy="5.517" r="5.517" transform="translate(36.777 7.358)" fill="#f5f5f5"/>
          <path id="Shape-7" data-name="Shape" d="M22.55,4.291V9.33a18.737,18.737,0,0,1-1.306,7.153,11.033,11.033,0,0,0-6.289,6.445,1.752,1.752,0,0,1-1.379-.009C6.864,19.959,6,13.054,6,9.33V4.291a.919.919,0,0,1,.873-.929c3.917-.156,5.94-1.388,6.822-2.151a.892.892,0,0,1,1.158,0c.883.763,2.905,2,6.822,2.151a.919.919,0,0,1,.873.929Z" transform="translate(-0.483 -0.998)" fill="#60a917"/>
          <path id="Shape-8" data-name="Shape" d="M22.241,3.363c-3.917-.156-5.94-1.388-6.822-2.151a.892.892,0,0,0-1.158,0,6.509,6.509,0,0,1-.8.578,12.152,12.152,0,0,0,6.022,1.573.919.919,0,0,1,.873.929V9.33a18.737,18.737,0,0,1-1.306,7.153,11.033,11.033,0,0,0-6.042,5.867c.359.2.736.394,1.132.569a1.752,1.752,0,0,0,1.379.009,11.033,11.033,0,0,1,6.289-6.445A18.737,18.737,0,0,0,23.115,9.33V4.291a.919.919,0,0,0-.873-.929Z" transform="translate(-1.048 -0.998)" fill="#549414"/>
          <path id="Shape-9" data-name="Shape" d="M37.066,28.033A11.042,11.042,0,0,1,29.3,38.579a4.541,4.541,0,0,0-1.949-.432H22.539a7.428,7.428,0,0,1-1.1-.083,11.033,11.033,0,1,1,15-13.709,10.849,10.849,0,0,1,.634,3.678Z" transform="translate(-1.208 -2.287)" fill="#ffdc00"/>
          <path id="Shape-10" data-name="Shape" d="M37.279,24.355A10.929,10.929,0,0,0,25.51,17.092a10.92,10.92,0,0,1,5.048,1.977,11.048,11.048,0,0,1,3.963,5.287,10.849,10.849,0,0,1,.634,3.678,11.033,11.033,0,0,1-6.667,10.129,4.519,4.519,0,0,1,1.655.417,11.042,11.042,0,0,0,7.77-10.546,10.849,10.849,0,0,0-.634-3.678Z" transform="translate(-2.055 -2.286)" fill="#fec108"/>
        </g>
        <g id="Icons_copy">
          <path id="Shape-11" data-name="Shape" d="M46.436,8a6.436,6.436,0,1,0,6.436,6.436A6.436,6.436,0,0,0,46.436,8Zm0,11.033a4.6,4.6,0,1,1,4.6-4.6A4.6,4.6,0,0,1,46.436,19.033Z" transform="translate(-3.223 -0.645)"/>
          <path id="Shape-12" data-name="Shape" d="M48.6,13.839h-.919v-.919a.919.919,0,0,0-1.839,0v.919h-.919a.919.919,0,1,0,0,1.839h.919V16.6a.919.919,0,0,0,1.839,0v-.919H48.6a.919.919,0,1,0,0-1.839Z" transform="translate(-3.545 -0.967)"/>
          <path id="Shape-13" data-name="Shape" d="M51.488,3.678H48.73V2.758A2.758,2.758,0,0,0,45.972,0H40.455A2.758,2.758,0,0,0,37.7,2.758v.919H34.939a3.678,3.678,0,0,0-3.678,3.678v8.715a11.8,11.8,0,0,0-8.119-1.066,20.667,20.667,0,0,0,.763-5.754V4.213a1.832,1.832,0,0,0-1.756-1.847C18.471,2.22,16.651,1.1,15.89.435a1.818,1.818,0,0,0-2.359,0c-.759.657-2.584,1.782-6.252,1.931A1.832,1.832,0,0,0,5.517,4.213V9.251c0,6.993,2.886,12.117,8.12,14.427a2.526,2.526,0,0,0,.5.163,11.8,11.8,0,0,0,1.489,9.185,9.335,9.335,0,0,0-3.862-.846H9.945a2.758,2.758,0,0,0-2.589-1.839h-4.6A2.758,2.758,0,0,0,0,33.1V52.408a2.758,2.758,0,0,0,2.758,2.758h4.6A2.745,2.745,0,0,0,9.4,54.247H32.456a7.345,7.345,0,0,0,3.825-1.072l17.23-10.489a3.429,3.429,0,0,0,1.029-4.913.76.76,0,0,0-.063-.092,3.452,3.452,0,0,0-3.838-1.2L33.613,42.151a2.707,2.707,0,0,1-.872.143H32a4.3,4.3,0,0,0-.208-3.757,5.439,5.439,0,0,0-.87-1.1,11.894,11.894,0,0,0,6.444-13.534H51.488a3.678,3.678,0,0,0,3.678-3.678V7.355a3.678,3.678,0,0,0-3.678-3.678ZM8.275,52.408a.919.919,0,0,1-.919.919h-4.6a.919.919,0,0,1-.919-.919V33.1a.919.919,0,0,1,.919-.919h4.6a.919.919,0,0,1,.919.919ZM39.536,2.758a.919.919,0,0,1,.919-.919h5.517a.919.919,0,0,1,.919.919v.919H39.536ZM14.384,22C8.575,19.435,7.355,13.652,7.355,9.251L7.346,4.2c4.229-.168,6.445-1.563,7.343-2.374.942.815,3.154,2.206,7.378,2.384V9.251a17.723,17.723,0,0,1-1.119,6.471,12.023,12.023,0,0,0-6.237,6.344A.792.792,0,0,1,14.384,22ZM32.741,44.133a4.525,4.525,0,0,0,1.459-.24l17.012-5.672a1.612,1.612,0,0,1,1.747.5c.014.023.029.044.045.066a1.591,1.591,0,0,1-.451,2.322L35.325,51.6a5.509,5.509,0,0,1-2.869.8H10.114V34.019h1.655a7.5,7.5,0,0,1,4.667,1.638A9.347,9.347,0,0,0,22.25,37.7h4.81a3.693,3.693,0,0,1,3.153,1.786,2.6,2.6,0,0,1-.293,2.812H24.568a9.216,9.216,0,0,0-5.1,1.544l-.672.451a.92.92,0,1,0,1.026,1.528l.666-.449a7.374,7.374,0,0,1,4.081-1.235Zm-3.717-7.907a5.489,5.489,0,0,0-1.962-.368H22.25a7.327,7.327,0,0,1-.827-.052,10.114,10.114,0,1,1,7.6.424Zm24.3-16a1.839,1.839,0,0,1-1.839,1.839H36.777a12.008,12.008,0,0,0-3.678-4.8V7.355a1.839,1.839,0,0,1,1.839-1.839h16.55a1.839,1.839,0,0,1,1.839,1.839Z" transform="translate(0)"/>
          <path id="Shape-14" data-name="Shape" d="M19.828,7.184a.919.919,0,0,0-1.287.184l-4.88,6.508-1.09-1.09a.919.919,0,0,0-1.3,1.3l1.839,1.839a.919.919,0,0,0,.65.269h.065a.919.919,0,0,0,.67-.368l5.517-7.355a.919.919,0,0,0-.184-1.287Z" transform="translate(-0.887 -0.564)"/>
          <path id="Shape-15" data-name="Shape" d="M27.678,23.758A1.839,1.839,0,0,1,29.517,25.6a.919.919,0,1,0,1.839,0A3.678,3.678,0,0,0,28.6,22.05v-.131a.919.919,0,1,0-1.839,0v.131a3.67,3.67,0,0,0,.919,7.225,1.839,1.839,0,1,1-1.839,1.839.919.919,0,1,0-1.839,0,3.678,3.678,0,0,0,2.758,3.547v.131a.919.919,0,1,0,1.839,0v-.131a3.67,3.67,0,0,0-.919-7.225,1.839,1.839,0,1,1,0-3.678Z" transform="translate(-1.934 -1.692)"/>
        </g>
      </g>
    </g>
  </g>
</svg>
