<svg xmlns="http://www.w3.org/2000/svg" xmlns:xlink="http://www.w3.org/1999/xlink" width="106.16" height="106.16" viewBox="0 0 106.16 106.16">
  <defs>
    <filter id="Trazado_982547" x="0" y="0" width="106.16" height="106.16" filterUnits="userSpaceOnUse">
      <feOffset dy="3" input="SourceAlpha"/>
      <feGaussianBlur stdDeviation="3" result="blur"/>
      <feFlood flood-opacity="0.161"/>
      <feComposite operator="in" in2="blur"/>
      <feComposite in="SourceGraphic"/>
    </filter>
  </defs>
  <g id="Grupo_1241289" data-name="Grupo 1241289" transform="translate(-820.54 -1240)">
    <g id="Grupo_1235056" data-name="Grupo 1235056" transform="translate(1.37 -2028.523)">
      <g id="Grupo_1233887" data-name="Grupo 1233887" transform="translate(828.17 3274.522)">
        <g id="Grupo_1228509" data-name="Grupo 1228509" transform="translate(0 0)">
          <g id="Grupo_1206132" data-name="Grupo 1206132">
            <g id="Grupo_1203794" data-name="Grupo 1203794">
              <g id="Grupo_1203345" data-name="Grupo 1203345" transform="translate(0 0)">
                <g id="Grupo_1177900" data-name="Grupo 1177900">
                  <g id="Grupo_1172010" data-name="Grupo 1172010" transform="translate(0)">
                    <g id="Grupo_1171046" data-name="Grupo 1171046">
                      <g id="Grupo_1148525" data-name="Grupo 1148525">
                        <g transform="matrix(1, 0, 0, 1, -9, -6)" filter="url(#Trazado_982547)">
                          <g id="Trazado_982547-2" data-name="Trazado 982547" transform="translate(9 6)" fill="#e9f9fd">
                            <path d="M 44.0802001953125 86.660400390625 C 38.33124923706055 86.660400390625 32.75506210327148 85.53479766845703 27.50652503967285 83.31484985351562 C 22.43628692626953 81.17032623291016 17.88242530822754 78.09992218017578 13.97144985198975 74.18894958496094 C 10.06047534942627 70.27797698974609 6.99007511138916 65.72411346435547 4.845550060272217 60.65387344360352 C 2.625600099563599 55.40533828735352 1.500000238418579 49.82915115356445 1.500000238418579 44.0802001953125 C 1.500000238418579 38.33124923706055 2.625600099563599 32.75506210327148 4.845550060272217 27.50652503967285 C 6.99007511138916 22.43628692626953 10.06047534942627 17.88242530822754 13.97144985198975 13.97144985198975 C 17.88242530822754 10.06047534942627 22.43628692626953 6.99007511138916 27.50652503967285 4.845550060272217 C 32.75506210327148 2.625600099563599 38.33124923706055 1.500000238418579 44.0802001953125 1.500000238418579 C 49.82915115356445 1.500000238418579 55.40533828735352 2.625600099563599 60.65387344360352 4.845550060272217 C 65.72411346435547 6.99007511138916 70.27797698974609 10.06047534942627 74.18894958496094 13.97144985198975 C 78.09992218017578 17.88242530822754 81.17032623291016 22.43628692626953 83.31484985351562 27.50652503967285 C 85.53479766845703 32.75506210327148 86.660400390625 38.33124923706055 86.660400390625 44.0802001953125 C 86.660400390625 49.82915115356445 85.53479766845703 55.40533828735352 83.31484985351562 60.65387344360352 C 81.17032623291016 65.72411346435547 78.09992218017578 70.27797698974609 74.18894958496094 74.18894958496094 C 70.27797698974609 78.09992218017578 65.72411346435547 81.17032623291016 60.65387344360352 83.31484985351562 C 55.40533828735352 85.53479766845703 49.82915115356445 86.660400390625 44.0802001953125 86.660400390625 Z" stroke="none"/>
                            <path d="M 44.0802001953125 3 C 38.53308486938477 3 33.15349960327148 4.085746765136719 28.09085845947266 6.227058410644531 C 23.19941711425781 8.29595947265625 18.80581665039062 11.25841522216797 15.03211212158203 15.03211212158203 C 11.25841522216797 18.80581665039062 8.29595947265625 23.19941711425781 6.227058410644531 28.09085845947266 C 4.085746765136719 33.15349960327148 3 38.53308486938477 3 44.0802001953125 C 3 49.62731552124023 4.085746765136719 55.00691604614258 6.227058410644531 60.06954193115234 C 8.29595947265625 64.96098327636719 11.25841522216797 69.35458374023438 15.03211212158203 73.12828826904297 C 18.80581665039062 76.90198516845703 23.19941711425781 79.86444091796875 28.09085845947266 81.93334197998047 C 33.15349960327148 84.07466125488281 38.53308486938477 85.160400390625 44.0802001953125 85.160400390625 C 49.62731552124023 85.160400390625 55.00691604614258 84.07466125488281 60.06954193115234 81.93334197998047 C 64.96099853515625 79.86444091796875 69.35458374023438 76.90198516845703 73.12828826904297 73.12828826904297 C 76.90198516845703 69.35458374023438 79.86444091796875 64.96099853515625 81.93334197998047 60.06954193115234 C 84.07466125488281 55.00691604614258 85.160400390625 49.62731552124023 85.160400390625 44.0802001953125 C 85.160400390625 38.53308486938477 84.07466125488281 33.15349960327148 81.93334197998047 28.09085845947266 C 79.86444091796875 23.19941711425781 76.90198516845703 18.80581665039062 73.12828826904297 15.03211212158203 C 69.35458374023438 11.25841522216797 64.96098327636719 8.29595947265625 60.06954193115234 6.227058410644531 C 55.00691604614258 4.085746765136719 49.62731552124023 3 44.0802001953125 3 M 44.0802001953125 0 C 68.42502593994141 0 88.160400390625 19.73538970947266 88.160400390625 44.0802001953125 C 88.160400390625 68.42502593994141 68.42502593994141 88.160400390625 44.0802001953125 88.160400390625 C 19.73538970947266 88.160400390625 0 68.42502593994141 0 44.0802001953125 C 0 19.73538970947266 19.73538970947266 0 44.0802001953125 0 Z" stroke="none" fill="#1d7083"/>
                          </g>
                        </g>
                      </g>
                    </g>
                  </g>
                </g>
              </g>
            </g>
          </g>
        </g>
      </g>
    </g>
    <g id="flechas" transform="translate(846.363 1261.102)">
      <path id="Trazado_1238124" data-name="Trazado 1238124" d="M22.9,79.572,15.249,68.5,7.6,79.572h2.8V117.84H20.1V79.572Zm0,0" transform="translate(-6.741 -60.743)" fill="#79bbe8"/>
      <path id="Trazado_1238125" data-name="Trazado 1238125" d="M78.448,308.4,70.8,297.328,63.153,308.4h2.8v12.365h9.692V308.4Zm0,0" transform="translate(-56.003 -263.671)" fill="#f74866"/>
      <path id="Trazado_1238126" data-name="Trazado 1238126" d="M354.155,18.68,346.507,7.605,338.86,18.68h2.8V63.841h9.691V18.68Zm0,0" transform="translate(-300.501 -6.744)" fill="#ffc627"/>
      <path id="Trazado_1238127" data-name="Trazado 1238127" d="M181.727,417.34h4.66a4.326,4.326,0,0,1,4.326,4.326v5.56H166.332v-5.56a4.326,4.326,0,0,1,4.326-4.326h4.66" transform="translate(-147.503 -370.098)" fill="#515f75"/>
      <path id="Trazado_1238128" data-name="Trazado 1238128" d="M226.938,417.34l2.816,9.885h5.028l2.817-9.885" transform="translate(-201.248 -370.098)" fill="#f2f2f2"/>
      <path id="Trazado_1238129" data-name="Trazado 1238129" d="M252.128,368.249V373.8l-3.2,1.805-.99-.558-2.214-1.248v-5.558h2.214Zm0,0" transform="translate(-217.903 -326.561)" fill="#f9c2af"/>
      <path id="Trazado_1238130" data-name="Trazado 1238130" d="M251.973,480.025l2.547-3.146,2.464,3.146" transform="translate(-223.45 -422.897)" fill="#f74866"/>
      <path id="Trazado_1238131" data-name="Trazado 1238131" d="M247.933,368.243h-2.214V373.8l2.214,1.248v-2.57c.327.032.659.05.994.05a10.037,10.037,0,0,0,3.2-.52v-3.763Zm0,0" transform="translate(-217.903 -326.558)" fill="#ea9e8f"/>
      <path id="Trazado_1238132" data-name="Trazado 1238132" d="M161.537,274.241a2.721,2.721,0,1,1,0-5.409h20.118a2.721,2.721,0,1,1,0,5.409" transform="translate(-140.571 -238.401)" fill="#ea9e8f"/>
      <path id="Trazado_1238133" data-name="Trazado 1238133" d="M205.322,216.543V226.6a10.059,10.059,0,0,1-20.119,0v-10.06" transform="translate(-164.238 -192.031)" fill="#f9c2af"/>
      <path id="Trazado_1238134" data-name="Trazado 1238134" d="M195.192,236.662A10.059,10.059,0,0,1,185.2,226.6v-10.06h4.529V226.6a15.076,15.076,0,0,0,1.619,7.113c.986,1.792,2.34,2.911,3.839,2.946Zm0,0" transform="translate(-164.238 -192.031)" fill="#ea9e8f"/>
      <path id="Trazado_1238135" data-name="Trazado 1238135" d="M185.276,133.132a15.925,15.925,0,0,1-9.67.176h0a16.931,16.931,0,0,1-3.563-1.4s-.918,4.415-4.392,4.415c0,0-2.311-4.089-2.239-7.872a3.493,3.493,0,0,1,4.538-3.269,6.4,6.4,0,0,1,6.4-4.147q.658.041,1.323.1l.255.023.026,0c4.6.432,9.254,1.272,11.991-1.755,0,0,4.522,10.417-4.672,13.729Zm0,0" transform="translate(-146.686 -105.887)" fill="#515f75"/>
      <path id="Trazado_1238136" data-name="Trazado 1238136" d="M176.353,133.683c.439.027.88.062,1.323.1-4.057-.171-7.279,8.762-2.07,12.175a16.961,16.961,0,0,1-3.563-1.4s-.918,4.415-4.392,4.415c0,0-2.311-4.089-2.239-7.872a3.495,3.495,0,0,1,4.538-3.269,6.4,6.4,0,0,1,6.4-4.146Zm0,0" transform="translate(-146.686 -118.539)" fill="#3b485b"/>
      <path id="Trazado_1238137" data-name="Trazado 1238137" d="M254.551,435.5l2.138,2.729L258.9,435.5l-2.142-2.2Z" transform="translate(-225.736 -384.245)" fill="#f74866"/>
      <path id="Trazado_1238138" data-name="Trazado 1238138" d="M276.048,134.886l-.028,0,.026,0Zm0,0" transform="translate(-244.774 -119.614)" fill="#f4af9d"/>
      <path id="Trazado_1238139" data-name="Trazado 1238139" d="M54.362,11.447,46.714.371a.861.861,0,0,0-1.417,0L37.651,11.447a.861.861,0,0,0,.708,1.35H40.3v1.618c-2.1.7-4.784.422-7.576.136-.985-.1-2-.205-3-.266A7.226,7.226,0,0,0,22.754,18.3a4.362,4.362,0,0,0-4.889,4.241,17.575,17.575,0,0,0,1.8,7.233,3.605,3.605,0,0,0-2.587,3.361A3.673,3.673,0,0,0,20.3,36.647a10.953,10.953,0,0,0,6.654,8.063v1.67h-3.8a5.153,5.153,0,0,0-2.651.731V45.594h1.941a.861.861,0,0,0,.708-1.35L15.506,33.167a.86.86,0,0,0-1.291-.143V19.689h1.942a.861.861,0,0,0,.708-1.35L9.216,7.265a.861.861,0,0,0-1.417,0L.153,18.34a.861.861,0,0,0,.708,1.35H2.8v8.631a.861.861,0,1,0,1.721,0V18.829a.861.861,0,0,0-.861-.861H2.5l6.007-8.7,6.008,8.7H13.353a.86.86,0,0,0-.86.861v16.65L6.441,44.244a.861.861,0,0,0,.708,1.35H9.09V56.236H4.524V31.764a.861.861,0,0,0-1.721,0V57.1a.861.861,0,0,0,.86.861H50.851a.861.861,0,0,0,.861-.861V51.5a.861.861,0,1,0-1.721,0v4.732h-5.92V51.567a5.149,5.149,0,0,0-2.05-4.127V36.6a3.5,3.5,0,0,0,0-6.919V26.334a8.262,8.262,0,0,0,2.429-3.188c1.938-4.486-.3-9.751-.4-9.972a.861.861,0,0,0-1.428-.235,4.978,4.978,0,0,1-.6.564V11.936a.861.861,0,0,0-.86-.861H40l6.007-8.7,6.007,8.7H50.851a.861.861,0,0,0-.86.861V48.061a.861.861,0,1,0,1.721,0V12.8h1.942a.861.861,0,0,0,.708-1.35ZM18.805,33.136a1.862,1.862,0,0,1,1.3-1.69v3.126c0,.085,0,.171,0,.256a1.864,1.864,0,0,1-1.3-1.691Zm3.021,1.436v-3.36A5.024,5.024,0,0,0,25.2,28.667a8.628,8.628,0,0,0,.681-1.427,17.69,17.69,0,0,0,13,.815,12.272,12.272,0,0,0,1.341-.574v7.09a9.2,9.2,0,1,1-18.4,0ZM38.885,46.381h-3.8V44.708a10.984,10.984,0,0,0,5.215-4.38v6.249A5.194,5.194,0,0,0,38.885,46.381Zm-.747,6.848-2.118.529a.861.861,0,0,0-.4,1.444l1.065,1.065H34.675L37,48.1h.935Zm-11.5,1.135a.861.861,0,0,0-.621-.605L23.9,53.229l.2-5.127h.936l2.326,8.164H25.354L26.419,55.2a.861.861,0,0,0,.221-.838Zm.948-6.261,2.021,1.139L27.7,51.152l-.869-3.05Zm6.863,0h.759l-.869,3.05-1.911-1.911ZM31.02,50.265l1.014,1.013L30.964,52.6l-1-1.278Zm-2.283,2.283,1.174,1.5-1.026,1.267-.646-2.267Zm4.521-.046.544.544-.633,2.22-1.056-1.349Zm-2.2,2.861.707.9H30.328Zm-.034-9.872a10.937,10.937,0,0,0,2.34-.253v1.5L31.02,48.06l-2.344-1.32v-1.5a11.019,11.019,0,0,0,2.348.252ZM10.811,56.236v-11.5a.861.861,0,0,0-.861-.86H8.79l6.007-8.7,6.007,8.7H19.643a.86.86,0,0,0-.86.86v4.051a5.154,5.154,0,0,0-.814,2.784v4.669Zm8.879-4.669a3.47,3.47,0,0,1,2.688-3.376l-.224,5.669a.861.861,0,0,0,.651.869l1.322.33L22.92,56.267H19.69Zm22.66,4.7H39.12L37.913,55.06l1.322-.33a.861.861,0,0,0,.651-.869l-.224-5.668a3.459,3.459,0,0,1,2.688,3.375Zm.895-23.131a1.847,1.847,0,0,1-1.223,1.659V31.477a1.847,1.847,0,0,1,1.223,1.659Zm-.366-18.117c.5,1.652,1.143,4.778-.008,7.445A7.4,7.4,0,0,1,38.3,26.436C31.951,28.723,25.846,25.3,25.786,25.27a.862.862,0,0,0-1.271.569c-.008.035-.724,3.274-3.05,3.688a16.653,16.653,0,0,1-1.877-6.952,2.641,2.641,0,0,1,2.631-2.585,2.653,2.653,0,0,1,.791.121.861.861,0,0,0,1.063-.522A5.515,5.515,0,0,1,29.615,16c.965.059,1.965.161,2.933.26,3.736.382,7.583.777,10.331-1.244Zm0,0"/>
      <path id="Trazado_1238140" data-name="Trazado 1238140" d="M298.935,281.713a.861.861,0,0,0,.861-.861v-1.4a.861.861,0,1,0-1.722,0v1.4A.861.861,0,0,0,298.935,281.713Zm0,0" transform="translate(-264.332 -247.057)"/>
      <path id="Trazado_1238141" data-name="Trazado 1238141" d="M236.573,280.852v-1.4a.861.861,0,1,0-1.721,0v1.4a.861.861,0,1,0,1.721,0Zm0,0" transform="translate(-208.267 -247.058)"/>
      <path id="Trazado_1238142" data-name="Trazado 1238142" d="M251.069,329.4a.861.861,0,0,0-1.217,0,2.63,2.63,0,0,1-3.718,0,.861.861,0,1,0-1.217,1.217,4.356,4.356,0,0,0,6.153,0A.861.861,0,0,0,251.069,329.4Zm0,0" transform="translate(-216.968 -291.893)"/>
    </g>
  </g>
</svg>
