<svg xmlns="http://www.w3.org/2000/svg" xmlns:xlink="http://www.w3.org/1999/xlink" width="400" height="366" viewBox="0 0 400 366">
  <defs>
    <clipPath id="clip-path">
      <rect id="Rectángulo_423946" data-name="Rectángulo 423946" width="400" height="366" transform="translate(180 1986)" fill="#fff" stroke="#707070" stroke-width="1"/>
    </clipPath>
  </defs>
  <g id="Enmascarar_grupo_1211525" data-name="Enmascarar grupo 1211525" transform="translate(-180 -1986)" clip-path="url(#clip-path)">
    <g id="Grupo_1242022" data-name="Grupo 1242022" transform="translate(1087.277 -3808.936)">
      <path id="Trazado_1239393" data-name="Trazado 1239393" d="M1664.125,902.457l3.57,3.56a17.793,17.793,0,0,1,2.21,2.229,1.326,1.326,0,0,1,.282.923,2.106,2.106,0,0,1-.234,1.151c-.871,1.429-2.784,2.909-3.984,4.1l-6.311,6.414a2.332,2.332,0,0,1,.142-1.463l.185-.3a38.112,38.112,0,0,1,5.147-6.556,28.016,28.016,0,0,0,3.1-3.516c-1.156-2.246-3.139-3.916-4.471-6.041Z" transform="translate(-2448.859 4939.378)" fill="#f74055"/>
      <path id="Trazado_1239394" data-name="Trazado 1239394" d="M3318.289,853.553a3.52,3.52,0,0,1,1.287,1.4l.032,10.1c0,1.781.311,4.243-.309,5.911l-.841.692-1.011-.212-.086-15.931A9.7,9.7,0,0,1,3318.289,853.553Z" transform="translate(-3944.488 4983.5)" fill="#1d9d7d"/>
      <path id="Trazado_1239395" data-name="Trazado 1239395" d="M1656.982,854.6a33.19,33.19,0,0,1,4.468,4.68l-.363.494c1.332,2.125,3.316,3.794,4.471,6.041a28.014,28.014,0,0,1-3.1,3.516,38.116,38.116,0,0,0-5.148,6.556l-.185.3a2.334,2.334,0,0,0-.142,1.463l-.181.231a17.869,17.869,0,0,1-.143-3.517l.035-6.077.051-9.74A16.385,16.385,0,0,1,1656.982,854.6Z" transform="translate(-2446.185 4982.556)" fill="#f77f98"/>
      <path id="Trazado_1239396" data-name="Trazado 1239396" d="M853.513,1948.21a40.518,40.518,0,0,1,5.864,5.3,27.8,27.8,0,0,1,4.439,4.773c-1.771,2.731-4.277,5.03-6.51,7.392-1.089,1.152-2.164,2.679-3.576,3.417C853.251,1968.24,853.521,1950.846,853.513,1948.21Z" transform="translate(-1721.536 3995.896)" fill="#1d9d7d"/>
      <path id="Trazado_1239397" data-name="Trazado 1239397" d="M4061.071,2380.983l-10.855-11.065,10.874-11.308Z" transform="translate(-4605.673 3625.632)" fill="#f99aaf"/>
      <path id="Trazado_1239398" data-name="Trazado 1239398" d="M753.614,1968.835a4.432,4.432,0,0,1-.8,0c-.923-.168-5.937-5.646-6.959-6.637l-2.681-2.493c-.713-.73-.676-.959-.694-1.929a15.472,15.472,0,0,1,2.855-3.116l4.34-4.55c.6-.613,1.606-1.9,2.429-2.139a6.321,6.321,0,0,1,1.3-.018C753.405,1950.593,753.135,1967.986,753.614,1968.835Z" transform="translate(-1621.42 3996.15)" fill="#1ad3ab"/>
      <path id="Trazado_1239399" data-name="Trazado 1239399" d="M4161.234,2357l.283-.175a339.271,339.271,0,0,1,11.364,11.628c-2.2,2.59-4.8,4.894-7.182,7.313-.956.97-2.956,3.548-4.149,3.889l-.334-.282Z" transform="translate(-4705.817 3627.243)" fill="#f77f98"/>
      <path id="Trazado_1239400" data-name="Trazado 1239400" d="M1535.967,873.687a3.505,3.505,0,0,1-1.906.233c-2.341-1.906-4.361-4.453-6.5-6.6a51.851,51.851,0,0,1-4.4-4.261,2.158,2.158,0,0,1-.453-1.419c.574-1.374,10.355-11.346,11.4-11.625a2.5,2.5,0,0,1,2.035.384,16.385,16.385,0,0,0-.236,3.951l-.051,9.74-.035,6.078A17.812,17.812,0,0,0,1535.967,873.687Z" transform="translate(-2325.348 4986.754)" fill="#f99aaf"/>
      <path id="Trazado_1239401" data-name="Trazado 1239401" d="M832.908,3645l1.678.063.2.373-.256,25.724c-.044,6.243-.5,12.721-.058,18.938a3.146,3.146,0,0,0,.608,2.01l.134.138.189.238.121.137-6.858.045.019-11.788-.023-22.34,0-7.917a28.218,28.218,0,0,1,.055-4.031,2.28,2.28,0,0,1,.691-1.2C830.375,3644.833,831.812,3645.013,832.908,3645Z" transform="translate(-1699.137 2465.063)" fill="#fbb644"/>
      <path id="Trazado_1239402" data-name="Trazado 1239402" d="M3168.188,871.663l-9.309.034a48.193,48.193,0,0,1-6.883-.2,2.614,2.614,0,0,1-1.108-1.116L3150.882,858a15.157,15.157,0,0,1,.048-3.446,3.185,3.185,0,0,1,.386-.609c.973-.591,3.079-.318,4.257-.319l7.94.007a40.8,40.8,0,0,0,4.167-.034l.338-.038a9.715,9.715,0,0,0-.929,1.962l.086,15.931Z" transform="translate(-3794.218 4983.495)" fill="#1ad3ab"/>
      <path id="Trazado_1239403" data-name="Trazado 1239403" d="M3193.89,889.547l-13.48.047,13.394-15.979Z" transform="translate(-3820.932 4965.398)" fill="#16b383"/>
      <path id="Trazado_1239404" data-name="Trazado 1239404" d="M941.106,3990.63c5.762-.336,11.522-.734,17.076-2.431a59.971,59.971,0,0,0,9.078-3.838l-.019,9.206a13.688,13.688,0,0,0,.108,3.469,3.94,3.94,0,0,0,.966,1.469l.518.488,1.3.4a18.559,18.559,0,0,0,4.651.256l6.893-.059,18.274-.058,25.532.041,13.511.086a4.7,4.7,0,0,0,2.582-.66,3.429,3.429,0,0,1,.925-.455l.224-.042.25.031c4.484.508,9.344.146,13.872.141a17.927,17.927,0,0,1,4.249.077,1.9,1.9,0,0,1,.872.677,1.441,1.441,0,0,1,.186,1.391,1.644,1.644,0,0,1-1.2.923c-2.36.376-5.335.056-7.742.055l-18.823-.011-69.454,0-245.729.163c-1.232,0-4.4.387-5.367-.3-.633-.449-.576-.932-.641-1.624a1.848,1.848,0,0,1,.919-1.117l10.421-.062,6.858-.045,83.181.04,21.914.108c-.532.466-2,.156-2.758.206l-31.943.056c-.26.26-.107.2-.446.2H763.733c-.354-.35-1.028-.2-1.522-.2-.292.292-.318.2-.71.2-.479-.474-4.738-.2-5.829-.2H738.74c-2.306,0-4.8-.231-7.073-.053-2.491.194-5.1-.219-7.56.023-2.008.2-4.12-.032-6.139.027a16.7,16.7,0,0,0-2.892.048l-.761.155,0,2.031a1.538,1.538,0,0,0,.607.042,4.565,4.565,0,0,1,1.861.168l.273.094c.72-.48,2.252-.115,3.146-.2,1.651-.161,3.337.154,4.972-.05a40.76,40.76,0,0,1,6.494,0c1.322.063,2.639-.089,3.957-.049a17.614,17.614,0,0,0,2.942.056,39.633,39.633,0,0,1,7.51-.007c2.526.119,5.086-.02,7.607-.057l7.334.117,9.007-.01a1.718,1.718,0,0,0,.3.2,5.475,5.475,0,0,0,1.18.006l4.463-.114,24.089.108.3-.2a2.2,2.2,0,0,0,.913.2l.3-.3c1.205.145,2.369-.031,3.552.049a37.757,37.757,0,0,0,4.972.05,17.287,17.287,0,0,1,3.348-.056,25.287,25.287,0,0,0,3.884.068c1.337,0,2.811.122,4.134-.012l.609-.1,1.928.149a27.873,27.873,0,0,0,4.262,0c.491-.063.909.085,1.394.006,2.477-.4,5.541-.063,8.071-.063h19.883l60.452,0H937.5c3.469,0,7.046.167,10.5-.051.613-.039,1.226.042,1.826,0s1.22.039,1.827,0c3.078-.2,6.244-.052,9.336-.049.433-.289.713-.2,1.218-.2l.2-.2a2.634,2.634,0,0,0,.761-.152l-.049-.457-.357.254c-.235-.235-.375-.2-.7-.232l-.263-.023c-.369-.276-.4-.267-.505-.708l-.915-.1c-.644-.428-1.493-.177-2.232-.252-1.734-.175-3.575-.057-5.328-.057l-8.274.012-4.054.044a3.136,3.136,0,0,1-1.419-.051l-.2-.152c-.483-.192-.164.138-.455-.253a2.9,2.9,0,0,1,1.331-1.616l.247-.125c.236-.165.171-.085.327-.339A8.053,8.053,0,0,0,941.106,3990.63Z" transform="translate(-1595.001 2158.874)" fill="#0d257e"/>
      <path id="Trazado_1239405" data-name="Trazado 1239405" d="M3020.716,3990.63c5.762-.336,11.522-.734,17.076-2.431a59.986,59.986,0,0,0,9.078-3.838l-.02,9.206a13.69,13.69,0,0,0,.109,3.469,3.943,3.943,0,0,0,.966,1.469l.518.488-30.216-.082a12.5,12.5,0,0,0,1.382-1.736c.236-.165.171-.085.327-.339A8.057,8.057,0,0,0,3020.716,3990.63Z" transform="translate(-3674.611 2158.874)" fill="#fff"/>
      <path id="Trazado_1239406" data-name="Trazado 1239406" d="M835.951,2146.257l-10.34-16.494c-7.52-15.014-11.328-32.68-8.95-49.428a74.3,74.3,0,0,1,10.607-28.4c1.068-1.724,2.153-3.465,3.359-5.094,1.225-1.654,2.623-3.212,3.957-4.781.446-.525,1.261-1.249,1.381-1.919l.154-1.927Z" transform="translate(-1687.715 3914.689)" fill="#9ce4f5"/>
      <path id="Trazado_1239407" data-name="Trazado 1239407" d="M887.051,3649.6c.855,1.006.831,2.559,1,3.827a46.4,46.4,0,0,0,.9,5.438,29,29,0,0,0,2.184,5.76c2.039,2.826,4.383,5.082,8,5.685,2.981.5,6.506.151,9.539.153l15.356-.038-.016-4.657a11.335,11.335,0,0,1,.065-2.255,2.7,2.7,0,0,1,.831-1.249c1.436-.654,4.358-.3,6-.275a6.3,6.3,0,0,1,2.32.221,1.557,1.557,0,0,1,.826.811,8.944,8.944,0,0,1,.168,2.706l-.021,4.791,5.111.016,14.424-.01c3.2-.007,7.343.468,10.385-.511a11.538,11.538,0,0,0,4.588-3.131c.406-1.112,1.16-2.251,1.635-3.374l.388.076-.051,21.865-.008,5a11.664,11.664,0,0,1-.1,2.648,7.4,7.4,0,0,1-2.327,3.257l-.413.387,3.149.085-83.181-.04-.121-.137-.189-.238-.134-.138a3.146,3.146,0,0,1-.608-2.01c-.444-6.218.013-12.7.058-18.938Z" transform="translate(-1751.4 2460.897)" fill="#fdc750"/>
      <path id="Trazado_1239408" data-name="Trazado 1239408" d="M1287.221,3950.01a13.185,13.185,0,0,1,.184,3.486l-.12.162a55.44,55.44,0,0,1-9.085-.083l-.467-2.485,7.912,0C1286.382,3951.023,1286.752,3950.522,1287.221,3950.01Z" transform="translate(-2104.33 2189.866)" fill="#fbb644"/>
      <path id="Trazado_1239409" data-name="Trazado 1239409" d="M933.44,3803.24c2.039,2.825,4.382,5.081,8,5.684,2.981.5,6.506.151,9.538.154l15.356-.038.011,3.874a64.147,64.147,0,0,0-7.152-.12l-11.805.031a30.029,30.029,0,0,1-5.907-.14c-2.3-.491-4.674-2.684-5.93-4.632l-.173-.274C934.555,3806.49,933.5,3804.785,933.44,3803.24Z" transform="translate(-1793.709 2322.282)" fill="#fbb644"/>
      <path id="Trazado_1239410" data-name="Trazado 1239410" d="M1373.78,3829.94l5.111.016,14.424-.011c3.2-.007,7.343.468,10.385-.511a11.534,11.534,0,0,0,4.587-3.131c0,1.588-1.259,3.341-2.327,4.411a12.886,12.886,0,0,1-2,1.682l-.247.166a7.418,7.418,0,0,1-2.624,1.161,36.2,36.2,0,0,1-6.014.065l-13.647-.143a65.618,65.618,0,0,0-7.627.045Z" transform="translate(-2190.985 2301.475)" fill="#fbb644"/>
      <path id="Trazado_1239411" data-name="Trazado 1239411" d="M1269.049,3783.631l-.016-4.656a11.344,11.344,0,0,1,.065-2.255,2.705,2.705,0,0,1,.831-1.249c1.436-.654,4.358-.3,6-.275a6.308,6.308,0,0,1,2.321.221,1.559,1.559,0,0,1,.826.812,8.953,8.953,0,0,1,.168,2.706l-.021,4.791.02,3.75a44.581,44.581,0,0,0,.076,4.712c-.469.512-.84,1.013-1.576,1.085l-7.912,0c-1.2-1.644-.794-3.805-.77-5.761Z" transform="translate(-2096.428 2347.691)" fill="#8285a7"/>
      <path id="Trazado_1239412" data-name="Trazado 1239412" d="M3310.405,3829.469v-8.853a22.256,22.256,0,0,1,.088-4.358,4.869,4.869,0,0,1,1.2-2.211c1.743-1.819,5.045-1.3,7.332-1.292a3.462,3.462,0,0,0,1.639.459l9.5,0,19.591-.018,33.336-.033a5.156,5.156,0,0,1,3.528,2.306,4.657,4.657,0,0,1,.655,2.359c.222,3.051-.061,6.292-.069,9.359l0,9.86a19.989,19.989,0,0,1-.13,4.515,4.8,4.8,0,0,1-1.209,2.051l-.224.042a3.446,3.446,0,0,0-.926.455,4.7,4.7,0,0,1-2.581.661l-13.511-.087-25.531-.041-18.274.058-6.893.059a18.523,18.523,0,0,1-4.651-.255l-1.3-.4-.517-.487a3.936,3.936,0,0,1-.966-1.469,13.666,13.666,0,0,1-.109-3.468Z" transform="translate(-3938.145 2313.766)" fill="#f74055"/>
      <path id="Trazado_1239413" data-name="Trazado 1239413" d="M3349.734,3835.19a1.083,1.083,0,0,1,.708.425l.143,16.886.036,5.609a17.306,17.306,0,0,1-.081,3.133l-1.1.2-.833-.137a2.159,2.159,0,0,1-.208-.324,5.045,5.045,0,0,1,0-1.051l.011-3.575.019-12.637c0-2.188-.153-4.507.03-6.684A3.018,3.018,0,0,1,3349.734,3835.19Z" transform="translate(-3972.468 2293.457)" fill="#fd706d"/>
      <path id="Trazado_1239414" data-name="Trazado 1239414" d="M3399.472,3838.872c.682,0,1.688-.178,2.225.231l-.006,25.487a7.624,7.624,0,0,1-2.256-.081c-.425-4.123-.072-8.552-.074-12.72l0-8.1A36.006,36.006,0,0,1,3399.472,3838.872Z" transform="translate(-4018.348 2290.169)" fill="#fd706d"/>
      <path id="Trazado_1239415" data-name="Trazado 1239415" d="M3450.4,3842h40.036l11.964.014a56.339,56.339,0,0,1,5.757.054,3.756,3.756,0,0,1,2.2,1,1.78,1.78,0,0,1,.307.951l.042,13.732c0,1.975.325,4.532-.046,6.421a6.024,6.024,0,0,1-1.392,1.961,7.534,7.534,0,0,1-1.894,1.486,10.683,10.683,0,0,1-2.272.017h-9.21l-45.513-.179Z" transform="translate(-4064.494 2287.344)" fill="#fd706d"/>
      <path id="Trazado_1239416" data-name="Trazado 1239416" d="M3927.325,3936.41a7.326,7.326,0,0,1,1.987.3,4.728,4.728,0,0,1,2.45,2.309,3.918,3.918,0,0,1,.147,3.356,5.012,5.012,0,0,1-3.249,2.637,5.167,5.167,0,0,1-2.951-.57,4.251,4.251,0,0,1-1.973-2.6,4.323,4.323,0,0,1,.453-3.4A4.586,4.586,0,0,1,3927.325,3936.41Z" transform="translate(-4491.421 2202.136)" fill="#2e339f"/>
      <path id="Trazado_1239417" data-name="Trazado 1239417" d="M3948.421,3960.44a3.059,3.059,0,0,1,1.973.759c.254.6.452.834.293,1.5-.2.846-.8,1.181-1.492,1.609l-.248-.01a2.42,2.42,0,0,1-1.924-1,1.934,1.934,0,0,1-.188-1.1C3947.044,3961.281,3947.679,3960.925,3948.421,3960.44Z" transform="translate(-4512.376 2180.456)" fill="#b0cffe"/>
      <path id="Trazado_1239418" data-name="Trazado 1239418" d="M861.318,881.076a19.155,19.155,0,0,1,5.721-13.183,19.587,19.587,0,0,1,10.606-5.391c3.185-.443,6.755-.147,9.984-.138a31.581,31.581,0,0,1-.814-6.6,11.557,11.557,0,0,1,4.054-7.982,11.219,11.219,0,0,1,8.734-2.468,10.855,10.855,0,0,1,7.341,4c3.171,3.925,2.666,8.379,2.121,13.078,3.809-.023,8.287-.513,11.974.453l.381.1a17.668,17.668,0,0,1,4,1.626c5.652,3.087,8.767,8.2,10.512,14.2a7.956,7.956,0,0,1,2.633,2.466l67.995,0,18.212,0c2.962,0,6.305-.305,9.232.1a9.356,9.356,0,0,1,5.324,2.658,10.351,10.351,0,0,1,2.975,5.491c.415,2.338.14,5.228.146,7.608l.027,16.421,0,94.688.059,11.918c0,1.119-.315,3.62.15,4.544a73.969,73.969,0,0,1,25.291,39.016,71.251,71.251,0,0,1,2.233,10.654c1.318,11.534-.841,24.664-8.307,33.929l-3.722,3.884.005,13.192a31.98,31.98,0,0,1-.154,6.246,3.168,3.168,0,0,1-.932,1.6,4.642,4.642,0,0,1-2.191,1.265,17.371,17.371,0,0,1-4.625-.154l.007,1.616-33.336.032-19.591.018-9.5,0a3.462,3.462,0,0,1-1.638-.459c-2.288-.011-5.59-.527-7.333,1.292a4.867,4.867,0,0,0-1.2,2.21,22.26,22.26,0,0,0-.089,4.358l0,8.853a59.978,59.978,0,0,1-9.078,3.838c-5.554,1.7-11.315,2.094-17.076,2.43a8.057,8.057,0,0,1-.779,6.206c-.156.253-.092.173-.328.339l-.247.125a2.906,2.906,0,0,0-1.331,1.616c.291.391-.028.061.455.252l.2.152a3.138,3.138,0,0,0,1.419.051l4.054-.045,8.274-.012c1.753,0,3.594-.118,5.328.057.74.075,1.589-.175,2.232.253l.915.1c.11.442.137.432.505.708l.263.023c.326.031.466,0,.7.233l.357-.254.049.457a2.625,2.625,0,0,1-.761.152l-.2.205c-.505,0-.785-.086-1.218.2-3.092,0-6.258-.147-9.336.049-.607.039-1.212-.042-1.827,0s-1.213-.039-1.827,0c-3.459.218-7.036.051-10.5.051H928.417l-60.451,0-19.883,0c-2.53,0-5.594-.342-8.071.063-.486.079-.9-.069-1.394-.006a27.921,27.921,0,0,1-4.262,0l-1.928-.149-.609.1c-1.323.135-2.8.013-4.134.013a25.317,25.317,0,0,1-3.884-.069,17.239,17.239,0,0,0-3.348.056,37.9,37.9,0,0,1-4.972-.05c-1.183-.081-2.346.095-3.552-.049l-.3.3a2.21,2.21,0,0,1-.913-.2l-.3.2-24.089-.108-4.463.114a5.467,5.467,0,0,1-1.18-.006,1.736,1.736,0,0,1-.3-.2l-9.007.01-7.334-.117c-2.521.037-5.081.177-7.607.058a39.634,39.634,0,0,0-7.51.006,17.573,17.573,0,0,1-2.942-.056c-1.318-.04-2.636.112-3.958.049a40.688,40.688,0,0,0-6.494,0c-1.635.2-3.321-.111-4.972.05-.893.087-2.425-.277-3.146.2l-.273-.094a4.56,4.56,0,0,0-1.861-.168,1.536,1.536,0,0,1-.607-.042l0-2.031.761-.155a16.694,16.694,0,0,1,2.893-.048c2.019-.058,4.131.17,6.139-.027,2.459-.241,5.069.172,7.56-.023,2.275-.177,4.767.053,7.073.054h16.931c1.09,0,5.35-.275,5.829.2.392,0,.418.089.71-.2.494,0,1.168-.147,1.522.2h37.607c.339,0,.186.057.446-.2l31.943-.056c.763-.05,2.226.26,2.758-.206-1.794-1.76-2.8-3.2-2.888-5.783a6.89,6.89,0,0,1,2.079-5.209c2.831-2.832,5.823-2.619,9.481-2.6l6.329.043.414-5.827c-.049-.3-.026-.5-.294-.72-.128-.1-2.41-.056-2.745-.074a34.155,34.155,0,0,1-8.765-1.482c-9.645-3.152-17.481-9.1-25.267-15.41a19.374,19.374,0,0,0,.813-3.671l1.587-7.236-5.652-.03c-4.447.329-9.171-.026-13.646-.043l-9.711-.042a31.049,31.049,0,0,1-5.588-.217c-7.379-4.053-14.027-9.359-20.372-14.859a40.193,40.193,0,0,1-4.692-4.31,4.263,4.263,0,0,0-.576-.609l-.191-.148-.8.013c-3.8.037-6.644-.458-9.428-3.227a11.414,11.414,0,0,1-2.993-5.3c-.5-2.168-.234-4.939-.249-7.179l-.093-12.965.169-108.038.028-52.162-.006-13.42a43.405,43.405,0,0,1,.108-6.734,9.689,9.689,0,0,1,2.654-5.086,10.323,10.323,0,0,1,5.6-2.978c2.818-.409,6.089-.1,8.967-.1l19.254-.019,68.66.03C859.823,881.427,860.707,881.622,861.318,881.076Z" transform="translate(-1605.347 4990.999)" fill="#2e339f"/>
      <path id="Trazado_1239419" data-name="Trazado 1239419" d="M2884.98,1188.19a7.951,7.951,0,0,1,2.633,2.466l-2.151.029A10.156,10.156,0,0,1,2884.98,1188.19Z" transform="translate(-3554.394 4681.588)" fill="#ffd9ca"/>
      <path id="Trazado_1239420" data-name="Trazado 1239420" d="M2098.47,1212.03c.807-.011,1.692.183,2.3-.362l0,4.79-.168.037a6.648,6.648,0,0,0-.206-2.644l-1.926.05Z" transform="translate(-2844.802 4660.407)" fill="#8f5dcb"/>
      <path id="Trazado_1239421" data-name="Trazado 1239421" d="M2889.715,1240.372l-.025-6.122,47.84.019-.241.021-42.168.171a29.553,29.553,0,0,1,2.4,5.878Z" transform="translate(-3558.643 4640.033)" fill="#8f5dcb"/>
      <path id="Trazado_1239422" data-name="Trazado 1239422" d="M2449.656,906.211a4.937,4.937,0,0,1,3.892,1,6.177,6.177,0,0,1,2.154,4.364,8.623,8.623,0,0,1-.3,2.978,10.409,10.409,0,0,1-1.24,1.383l-2.548,0-5.132-.007-.763-1.739c-.535-1.6-.951-3.48-.1-5.052A5.856,5.856,0,0,1,2449.656,906.211Z" transform="translate(-3157.561 4936.011)" fill="#fff"/>
      <path id="Trazado_1239423" data-name="Trazado 1239423" d="M2406.281,859.049a9.577,9.577,0,0,1,3.934.155l.286.062a10.351,10.351,0,0,1,5.99,4.307c1.558,2.457,1.536,5.12,1.311,7.934a5.1,5.1,0,0,1-.53,1.932l-3.292-.008.638-2.083.048-.226a8.507,8.507,0,0,0-1.226-6.362c-1.351-1.871-3.089-2.281-5.207-2.7-2.29.3-4.043.891-5.543,2.763-1.485,1.853-1.421,3.714-1.131,5.918a7.725,7.725,0,0,1,.75,2.551,14.38,14.38,0,0,1-3.558.067,9.111,9.111,0,0,1-.353-1.076c-.288-3.387-.578-6.128,1.5-9.074A9.544,9.544,0,0,1,2406.281,859.049Z" transform="translate(-3115.215 4978.664)" fill="#fff"/>
      <path id="Trazado_1239424" data-name="Trazado 1239424" d="M2184.12,3447.167c.086-1.23.791-10.928,1.216-11.388l59.3-.01.957,11.509Z" transform="translate(-2922.076 2653.816)" fill="#cacfe4"/>
      <path id="Trazado_1239425" data-name="Trazado 1239425" d="M2059.209,4015.574l48.886-.016,15.924.032c2.959.006,5.995-.12,8.943.083a3.79,3.79,0,0,1,1.5.364l.24.133a5.5,5.5,0,0,1,1.6,1.242,5.718,5.718,0,0,1,1.323,4.651,5.488,5.488,0,0,1-2.3,3.658,4.585,4.585,0,0,1-1.942.845,31.309,31.309,0,0,1-4.234.061l-7.84-.011-50.062-.006-15.52,0a70.189,70.189,0,0,1-7.378-.047,6.683,6.683,0,0,1-3.719-1.76,5.482,5.482,0,0,1-.245-7.939,6.487,6.487,0,0,1,1.464-1.139,11.354,11.354,0,0,1,3.308-.148Z" transform="translate(-2794.582 2130.748)" fill="#8285a7"/>
      <path id="Trazado_1239426" data-name="Trazado 1239426" d="M2196.426,1038.8l2.118.413a19.405,19.405,0,0,1,11.508,9,20.421,20.421,0,0,1,2.487,6.684,27.336,27.336,0,0,1,.193,4.4l.057,7.153a24.335,24.335,0,0,1-.088,5.266,5,5,0,0,1-2.472,2.987,2,2,0,0,1-1.112.261l-45.445-.008-12.684-.011a46.4,46.4,0,0,1-5.886-.051,4.25,4.25,0,0,1-2.27-1.156,5.059,5.059,0,0,1-1.351-2.729l.031-.178c.067-.337-.093-.877.226-1,.056-.022.82.087.938.1l2.492.14a63.126,63.126,0,0,0,8.406-.49,59.541,59.541,0,0,0,27.825-10.387,38.469,38.469,0,0,0,12.171-13.193A22.676,22.676,0,0,0,2196.426,1038.8Z" transform="translate(-2883.607 4816.369)" fill="#fda117"/>
      <path id="Trazado_1239427" data-name="Trazado 1239427" d="M2141.48,1052.213l.007-16.25a18,18,0,0,1,3.63-9.094,16.977,16.977,0,0,1,9.7-6.43c3.211-.668,6.811-.4,10.089-.416.834,0,1.93.145,2.605-.41a2.917,2.917,0,0,1,.406-1.4c1.805-.232,16.981-.431,17.7.02a9.112,9.112,0,0,0,.252,1.488c.669.431,2.059.227,2.85.229l7.705.05a22.679,22.679,0,0,1-2.855,7.193,38.463,38.463,0,0,1-12.171,13.192,59.541,59.541,0,0,1-27.825,10.387,63.166,63.166,0,0,1-8.406.49l-2.492-.14c-.118-.011-.882-.12-.938-.1-.318.127-.159.668-.226,1Z" transform="translate(-2883.606 4835.163)" fill="#fbb644"/>
      <path id="Trazado_1239428" data-name="Trazado 1239428" d="M1159.13,3435.95l24.481.024,74.881,0-3.057,35.288-.932,10.314a17.645,17.645,0,0,1-.273,3.227c-.049-.3-.026-.505-.293-.72-.128-.1-2.41-.056-2.745-.074a34.138,34.138,0,0,1-8.765-1.481c-9.645-3.152-17.481-9.1-25.267-15.41a19.38,19.38,0,0,0,.813-3.67l1.587-7.236-5.652-.03c-4.447.329-9.171-.026-13.647-.043l-9.712-.041a31.1,31.1,0,0,1-5.588-.217c-7.379-4.053-14.026-9.359-20.372-14.86a40.176,40.176,0,0,1-4.692-4.31,4.264,4.264,0,0,0-.576-.609Z" transform="translate(-1997.327 2653.652)" fill="#9ce4f5"/>
      <path id="Trazado_1239429" data-name="Trazado 1239429" d="M2151.988,3552.32l61.47.111,3.973,43.164-68.926-.023Z" transform="translate(-2889.944 2548.663)" fill="#fff"/>
      <path id="Trazado_1239430" data-name="Trazado 1239430" d="M1144.322,1233.441l1.926-.05a6.643,6.643,0,0,1,.205,2.644l.169-.037.016,3.7.033,1.592-72.4.015-17.2,0-3.932,0a6.063,6.063,0,0,0-1.714.1,5.953,5.953,0,0,0-1.543,1.082,3.857,3.857,0,0,0-1.2,2.52c-.2,2.453-.018,5.064-.013,7.53l.028,15.295-.051,49.346.077,80.63.1,22.564.03,11.715a7.082,7.082,0,0,0,2.518,4.9,5.267,5.267,0,0,0,3.654,1.353l17.111.01,34.7,0,103.19.053,69.2-.031,22.147.023c3.707,0,7.539.2,11.232-.017a6.446,6.446,0,0,0,4.625-2.387,7.106,7.106,0,0,0,1.428-4.331l-.087-10.132-.026-23.9-.028-72.208.048-54.372.011-17.114c0-3.395.114-6.834-.092-10.221a4.418,4.418,0,0,0-2.7-2.256,27.69,27.69,0,0,0-5.607-.1l-12.291.034-42.827-.029-25.5-.049c-2.579-.643-5.179.118-7.715-.3,0-.578-.066-.638.3-1.068l1.952-.1-2.376-.31,7.8-.034a29.576,29.576,0,0,0-2.4-5.878l42.168-.17.241-.021,30.541-.021h12.341c2.393,0,5.633-.387,7.852.434a7.706,7.706,0,0,1,4.427,4.192,7.481,7.481,0,0,1,.7,2.3,52.7,52.7,0,0,1,.041,5.344l0,10.071.006,33.381.007,109.7.026,27.3.012,8.246c0,1.438.216,3.39-.313,4.732l-.121.28a10.807,10.807,0,0,1-4.847,5.3,6.918,6.918,0,0,1-2.823.962c-1.79.176-3.731.033-5.535.034l-11.326,0-36.017.126-167.223.685-34.439.031-9.4-.012c-1.91,0-4.142.216-5.978-.325a9.424,9.424,0,0,1-5.361-4.783,7.233,7.233,0,0,1-.87-3.144l-.156-16.019-.2-41.882.17-98.263.049-27.214.029-10.124c.011-1.838-.236-4.321.424-6.033l.1-.252a7.754,7.754,0,0,1,3.62-4.081,9.581,9.581,0,0,1,3.652-.767l25.7-.039,43.657-.038Z" transform="translate(-1890.653 4640.868)" fill="#a288ed"/>
      <path id="Trazado_1239431" data-name="Trazado 1239431" d="M1199.168,1260.685l.168-.037.016,3.7.033,1.592-72.4.015-17.2,0-3.932,0a6.075,6.075,0,0,0-1.714.1,5.952,5.952,0,0,0-1.544,1.082,3.858,3.858,0,0,0-1.2,2.52c-.2,2.452-.018,5.064-.013,7.53l.028,15.295-.051,49.346.077,80.63.1,22.564.03,11.714a7.082,7.082,0,0,0,2.518,4.9,5.265,5.265,0,0,0,3.654,1.353l17.111.011,34.7,0,103.19.053,69.2-.031,22.147.023c3.707,0,7.539.2,11.232-.017a6.445,6.445,0,0,0,4.625-2.387,7.106,7.106,0,0,0,1.428-4.331l-.087-10.132-.026-23.9-.027-72.208.048-54.372.011-17.114c0-3.395.114-6.833-.092-10.221a4.417,4.417,0,0,0-2.7-2.256,27.675,27.675,0,0,0-5.607-.1l-12.291.034-42.827-.029-25.5-.049c-2.579-.643-5.179.118-7.715-.3,0-.578-.066-.638.3-1.068l1.952-.1-2.376-.31,7.8-.034,65.953-.038,14.322.006c2.055,0,4.869-.344,6.811.2a5.221,5.221,0,0,1,3.307,2.641,5.356,5.356,0,0,1,.578,2.25l-.038,15.386-.038,27.573.035,101.925-.025,27.954.039,10.825c.007,1.99.317,4.719-.32,6.6a8.235,8.235,0,0,1-4.11,4.767,11.157,11.157,0,0,1-4.924.905l-43.827.07-108.87.215-68.774.1-22.946-.009c-3.847-.008-7.812.177-11.645-.082a9.506,9.506,0,0,1-2.709-.549,9.236,9.236,0,0,1-5.145-4.965,6.011,6.011,0,0,1-.594-2.28l.038-25.93.031-58.141v-68.53l-.015-22.862.057-12.048a7.076,7.076,0,0,1,.482-2.346,5.547,5.547,0,0,1,3.025-3.206l.228-.084c1.554-.583,3.458-.384,5.1-.387l7.938-.008,23.889.02,59.114-.043Z" transform="translate(-1943.369 4616.217)" fill="#2e339f"/>
      <path id="Trazado_1239432" data-name="Trazado 1239432" d="M2937.932,2680.031a73.965,73.965,0,0,1,25.29,39.015,71.2,71.2,0,0,1,2.233,10.654c1.318,11.534-.841,24.664-8.306,33.929l-3.722,3.885,0,13.191a31.975,31.975,0,0,1-.153,6.246,3.168,3.168,0,0,1-.931,1.6,4.643,4.643,0,0,1-2.192,1.265,17.387,17.387,0,0,1-4.625-.154l.007,1.616-33.336.033-19.591.018-9.5,0a3.462,3.462,0,0,1-1.638-.459c-2.288-.011-5.59-.527-7.333,1.292a4.871,4.871,0,0,0-1.2,2.21,22.258,22.258,0,0,0-.089,4.358l0,8.853a59.974,59.974,0,0,1-9.078,3.838c-5.554,1.7-11.314,2.094-17.076,2.43l-.228-.441-.431-.852c-2.637-4.879-8.649-3.906-13.29-3.917a10.276,10.276,0,0,1-2.691-.119l-4.712-54.707c.719-.37,2.852-.117,3.713-.115l11.918.015,56.062-.405,20.72-.127c3.378-.019,7,.22,10.357-.1a8.606,8.606,0,0,0,3.315-1.02,12.933,12.933,0,0,0,5.958-7.357l.089-.293a17.3,17.3,0,0,0,.441-4.937l.037-7.137.011-20.576Z" transform="translate(-3500.589 3335.645)" fill="#67cef9"/>
      <path id="Trazado_1239433" data-name="Trazado 1239433" d="M3383.387,3455.54l.283-.3a3.756,3.756,0,0,1,2.486-1.077,81.228,81.228,0,0,1,8.3.035l12.475.108,47.179.25c-.387.149-.828.195-1.009.591-.315.692-.053,1.273-.564,1.9-1.815.177-3.753.053-5.582.054l-10.126,0-35.078-.188-13.89-.461-2.2.452-.759-.052-.2.2-.406,0c-.306.3-.4.2-.812.2-.292.289-.321.2-.71.2l-.024-.363a3.3,3.3,0,0,0,.613-1.277Z" transform="translate(-4003.485 2637.319)" fill="#1f4ca2"/>
      <path id="Trazado_1239434" data-name="Trazado 1239434" d="M3445.684,3459.15a5.641,5.641,0,0,1,2.2,2.3l.011,8.992.005,13.192a31.972,31.972,0,0,1-.154,6.246,3.164,3.164,0,0,1-.932,1.6,4.642,4.642,0,0,1-2.191,1.265,17.381,17.381,0,0,1-4.625-.154l.007,1.616-33.336.032-19.591.018-9.5,0a3.467,3.467,0,0,1-1.639-.459l-.871-.981a3.72,3.72,0,0,1-.6-.444,4.2,4.2,0,0,1-1.034-2.924l-.01-18.28,0-5.517a14.049,14.049,0,0,1,.108-2.825,5.444,5.444,0,0,1,1.425-2.69l-.023.277a3.3,3.3,0,0,1-.613,1.276l.024.364c.389,0,.418.085.71-.2.412,0,.507.1.812-.2l.406,0,.2-.2.758.052,2.2-.452,13.891.461,35.077.187,10.126,0c1.83,0,3.768.122,5.583-.054.511-.629.249-1.211.564-1.9C3444.856,3459.344,3445.3,3459.3,3445.684,3459.15Z" transform="translate(-3995.053 2632.721)" fill="#1ad3ab"/>
      <path id="Trazado_1239435" data-name="Trazado 1239435" d="M3954.939,3591.97a5.37,5.37,0,0,1,2.087.383,4.638,4.638,0,0,1,2.646,2.581,3.72,3.72,0,0,1-.06,2.763,5.4,5.4,0,0,1-3.5,2.575,5.633,5.633,0,0,1-2.938-.633,4.2,4.2,0,0,1-2.046-2.636,3.648,3.648,0,0,1,.369-2.93A5.378,5.378,0,0,1,3954.939,3591.97Z" transform="translate(-4516.141 2512.891)" fill="#2e339f"/>
      <path id="Trazado_1239436" data-name="Trazado 1239436" d="M3978.08,3613.79a2.811,2.811,0,0,1,1.892.715,1.923,1.923,0,0,1,.534,1.439c-.053,1.01-.726,1.411-1.441,1.979l-.495-.011a2.207,2.207,0,0,1-1.806-.979,2.068,2.068,0,0,1-.192-1.443C3976.739,3614.63,3977.409,3614.251,3978.08,3613.79Z" transform="translate(-4539.188 2493.204)" fill="#9ce4f5"/>
      <path id="Trazado_1239437" data-name="Trazado 1239437" d="M4097.953,3459.15a5.643,5.643,0,0,1,2.2,2.3l.011,8.992,0,13.192a32.011,32.011,0,0,1-.153,6.246,3.175,3.175,0,0,1-.932,1.6,4.641,4.641,0,0,1-2.191,1.265c.1-.789.647-1.4.825-2.184a26.457,26.457,0,0,0,.191-5.384c.365-4.291.051-8.872.055-13.191l0-6.24a15.028,15.028,0,0,0-.143-3.43,2.09,2.09,0,0,0-1.44-.671c.511-.629.249-1.211.564-1.9C4097.125,3459.344,4097.565,3459.3,4097.953,3459.15Z" transform="translate(-4647.322 2632.721)" fill="#104e6c"/>
      <path id="Trazado_1239438" data-name="Trazado 1239438" d="M3375.071,3501.938a3.751,3.751,0,0,1-.6-.445,4.2,4.2,0,0,1-1.034-2.924l-.01-18.28,0-5.517a14.05,14.05,0,0,1,.108-2.826,5.447,5.447,0,0,1,1.425-2.69l-.023.277a3.311,3.311,0,0,1-.613,1.276l.023.363c.39,0,.419.085.71-.2.412,0,.507.1.812-.2l.406,0,.2-.2.759.052,2.2-.452,13.891.461c-1.2.03-3.48-.258-4.53.224a2,2,0,0,0-1.168,1.38,9.048,9.048,0,0,0-.167,2.6v5.753l-.019,18.267,29.809-.13,18.168.071,4.937-.068a7.666,7.666,0,0,0,1.873-.127,6.427,6.427,0,0,0,1.906-1.422,8.68,8.68,0,0,0,.9-1.137l.126-.179a3.476,3.476,0,0,0,.478-1.559,26.454,26.454,0,0,1-.192,5.384c-.177.783-.726,1.4-.825,2.184a17.38,17.38,0,0,1-4.625-.155l.007,1.616-33.336.032-19.592.019-9.5,0a3.461,3.461,0,0,1-1.638-.458Z" transform="translate(-3995.057 2623.603)" fill="#16b383"/>
      <path id="Trazado_1239439" data-name="Trazado 1239439" d="M3409.342,3478.993l2.2-.452-.017,28.867a3.8,3.8,0,0,1-2.233.226,1.726,1.726,0,0,1-.259-.385,7.008,7.008,0,0,1,.032-1.5l.073-5.24-.005-14.538c0-2.029-.289-4.613.119-6.585Z" transform="translate(-4027.162 2615.227)" fill="#1ad3ab"/>
      <path id="Trazado_1239440" data-name="Trazado 1239440" d="M3461.9,3485.31l1.412.08.213.466c-.258,2.6-.139,5.3-.148,7.921l-.047,13.738c0,1.263.377,5.015-.234,5.979l-1.55.227-1.263.048a1.761,1.761,0,0,1-.2-.312c-.163-.424-.054-24.626.175-25.978A3.107,3.107,0,0,1,3461.9,3485.31Z" transform="translate(-4073.181 2609.119)" fill="#1ad3ab"/>
      <path id="Trazado_1239441" data-name="Trazado 1239441" d="M3390.39,3798.107a10.31,10.31,0,0,1,3.378-.262l6.024-.027,37.019-.192,12.924-.015c1.554.006,4.167-.311,5.583.266l.008,1.616-33.336.032-19.591.018-9.5,0a3.469,3.469,0,0,1-1.638-.459Z" transform="translate(-4010.377 2327.434)" fill="#1f4ca2"/>
      <path id="Trazado_1239442" data-name="Trazado 1239442" d="M1326.088,1314.539l42.827.029,12.292-.034a27.708,27.708,0,0,1,5.607.1,4.417,4.417,0,0,1,2.7,2.256c.206,3.387.093,6.826.092,10.221l-.011,17.114-.048,54.372.027,72.208.026,23.9.087,10.132a7.107,7.107,0,0,1-1.428,4.331,6.446,6.446,0,0,1-4.625,2.387c-3.694.218-7.526.02-11.232.017l-22.147-.023-69.2.031-103.19-.053-34.7,0-17.111-.011a5.265,5.265,0,0,1-3.654-1.353,7.082,7.082,0,0,1-2.518-4.9l-.03-11.714-.1-22.564-.077-80.63.051-49.346-.028-15.294c0-2.466-.184-5.078.013-7.53a3.858,3.858,0,0,1,1.2-2.52,5.953,5.953,0,0,1,1.544-1.082,6.067,6.067,0,0,1,1.714-.1l3.932,0,17.2,0,72.4-.014c-.044,3.271-.714,6.782,1.863,9.314a6.245,6.245,0,0,0,3.142,1.6,31.267,31.267,0,0,0,5.569.086l16.287.033,31.005-.024,8.106-.012a29.435,29.435,0,0,0,4.028-.064,5.562,5.562,0,0,0,3.116-1.712c2.478-2.493,1.951-5.951,1.956-9.179l7.818-.02Z" transform="translate(-1961.681 4567.69)" fill="#fff"/>
      <path id="Trazado_1239443" data-name="Trazado 1239443" d="M2823.87,2063.2a11.353,11.353,0,0,1,6.48,3.746l.834.216-6.453-.142A11.763,11.763,0,0,0,2823.87,2063.2Z" transform="translate(-3499.26 3892.152)" fill="#cacfe4"/>
      <path id="Trazado_1239444" data-name="Trazado 1239444" d="M1859.515,2499.92l15.177.009.317.405-.122.844-14.931-.017c-.3-.023-.338-.2-.522-.42Z" transform="translate(-2629.143 3498.141)" fill="#2e339f"/>
      <path id="Trazado_1239445" data-name="Trazado 1239445" d="M3416.483,1399.968a6.133,6.133,0,0,1,1.13.03,3.17,3.17,0,0,1,2.244,1.467,3.535,3.535,0,0,1,.215,2.433,3.748,3.748,0,0,1-1.968,2.181l-1.334-.032a3.119,3.119,0,0,1-2.071-1.513,3.877,3.877,0,0,1-.216-2.561A3.8,3.8,0,0,1,3416.483,1399.968Z" transform="translate(-4032 4490.532)" fill="#2e339f"/>
      <path id="Trazado_1239446" data-name="Trazado 1239446" d="M3527.095,1400.177l1.531,0a3.261,3.261,0,0,1,2.071,1.616,3.468,3.468,0,0,1,.209,2.459,3.616,3.616,0,0,1-1.935,2.012l-1.157.047a2.8,2.8,0,0,1-2.054-1.046,3.432,3.432,0,0,1-.636-2.756A3.508,3.508,0,0,1,3527.095,1400.177Z" transform="translate(-4131.883 4490.335)" fill="#2e339f"/>
      <path id="Trazado_1239447" data-name="Trazado 1239447" d="M3637.406,1400.28l1.433.04a3.1,3.1,0,0,1,1.977,1.331,2.924,2.924,0,0,1,.386,2.459,3.8,3.8,0,0,1-2.15,2.267l-1.532-.043a2.905,2.905,0,0,1-1.863-1.256,3.385,3.385,0,0,1-.364-2.556C3635.61,1401.31,3636.365,1400.866,3637.406,1400.28Z" transform="translate(-4231.237 4490.24)" fill="#2e339f"/>
      <path id="Trazado_1239448" data-name="Trazado 1239448" d="M1246.231,2747.38a5.589,5.589,0,0,1,.958.28,8.847,8.847,0,0,1,.216,3.312l-.009,7.894,7.918-.021a8.762,8.762,0,0,1,3.035.162l.1,1.149h-12.313c-.184-2.142-.066-4.365-.062-6.517A45.548,45.548,0,0,1,1246.231,2747.38Z" transform="translate(-2075.734 3274.883)" fill="#2e339f"/>
      <path id="Trazado_1239449" data-name="Trazado 1239449" d="M2831.085,2102.26l6.453.142h18.435l-.046,1.379-18.321.029-6.694-.009Z" transform="translate(-3505.614 3856.912)" fill="#1f4ca2"/>
      <path id="Trazado_1239450" data-name="Trazado 1239450" d="M2332.618,1705.46l6.723.009-.031,5.36-6.79.022Z" transform="translate(-3055.963 4214.906)" fill="#fda117"/>
      <path id="Trazado_1239451" data-name="Trazado 1239451" d="M2332.619,1915.96l6.626.044.022,5.456-6.672-.026Z" transform="translate(-3056.031 4024.992)" fill="#fda117"/>
      <path id="Trazado_1239452" data-name="Trazado 1239452" d="M2332.47,1811.01l6.758.012.015,5.37-6.764.016Z" transform="translate(-3055.917 4119.679)" fill="#fda117"/>
      <path id="Trazado_1239453" data-name="Trazado 1239453" d="M2331.81,1597.25l6.833.005-.019,5.464-6.81.01Z" transform="translate(-3055.323 4312.533)" fill="#48c74d"/>
      <path id="Trazado_1239454" data-name="Trazado 1239454" d="M2647.46,1760.592l15.078-.01c1.02,0,3.639-.28,4.308.254l-.038,1.739c-1.858-.013-18.413.26-18.954.03a2.091,2.091,0,0,1-.341-.231Z" transform="translate(-3340.103 4165.242)" fill="#1ad3ab"/>
      <path id="Trazado_1239455" data-name="Trazado 1239455" d="M1881.718,2308.01c.7.048,1.16-.049,1.713.408a1.289,1.289,0,0,1-.385,1.111l-24.3-.046a3.344,3.344,0,0,1-1.674-.224,1.354,1.354,0,0,1,.066-1.044,7.941,7.941,0,0,1,2.578-.181l4.487-.006Z" transform="translate(-2626.944 3671.283)" fill="#2e339f"/>
      <path id="Trazado_1239456" data-name="Trazado 1239456" d="M2646.85,1623.6l15-.015,2.922-.009a6.136,6.136,0,0,1,1.106,0c.114.045.182.164.273.245l.031,1.786-14.115,0c-1.114,0-4.242.337-5.1-.218Z" transform="translate(-3339.553 4288.813)" fill="#1ad3ab"/>
      <path id="Trazado_1239457" data-name="Trazado 1239457" d="M2567.4,1618.333l.064-.386a37.138,37.138,0,0,0,.072-5.49l.006-11.846c.014-2.292-.185-4.6.674-6.762l.384-1.037a47.789,47.789,0,0,1,.4,8.851l-.117,16.5,15.472.023c1.036,0,4.234-.321,5.023.167Z" transform="translate(-3267.873 4316.536)" fill="#cacfe4"/>
      <path id="Trazado_1239458" data-name="Trazado 1239458" d="M2648.408,1691.583l14.865,0c.918,0,3.688-.259,4.308.258l.031,1.817-15.441-.014a15.783,15.783,0,0,1-3.468-.026,1.3,1.3,0,0,1-.3-.255Z" transform="translate(-3340.952 4227.481)" fill="#1ad3ab"/>
      <path id="Trazado_1239459" data-name="Trazado 1239459" d="M2937.674,1616.085l-.032-25.857a8.6,8.6,0,0,1,1.673,3.126l.052.209c.408,1.814.125,4.127.126,6.015l-.218,16.511Z" transform="translate(-3601.906 4318.869)" fill="#cacfe4"/>
      <path id="Trazado_1239460" data-name="Trazado 1239460" d="M1974.012,2866.15l0,1.51-10.268-.009-25.75-.156c-.556-.146-.728-.822-.972-1.289Z" transform="translate(-2699.141 3167.728)" fill="#2e339f"/>
      <path id="Trazado_1239461" data-name="Trazado 1239461" d="M2244.678,2308.075c-2.541.254-5.234.061-7.8.057l-15.763-.035-8.713-.011a19.831,19.831,0,0,1-2.134.121,1.172,1.172,0,0,1-.508-.189c-.093-.538-.154-.608.093-1.084a1.594,1.594,0,0,1,.618-.252,18.629,18.629,0,0,1,3.237-.036l6.6,0,15.56.006c3.062,0,6.173-.118,9.224.1l-1.759.213a4.978,4.978,0,0,0,1.746.165l.2.2C2245.141,2307.818,2245.056,2307.786,2244.678,2308.075Z" transform="translate(-2945.137 3672.567)" fill="#2e339f"/>
      <path id="Trazado_1239462" data-name="Trazado 1239462" d="M1859.422,2401.74l24.965-.039,6.574,0a15.251,15.251,0,0,1,3.51.149l.285.511-.234.716a45.783,45.783,0,0,1-4.793.079l-8.87.023-21.3-.024C1859.172,2402.612,1859.334,2402.382,1859.422,2401.74Z" transform="translate(-2629.034 3586.783)" fill="#2e339f"/>
      <path id="Trazado_1239463" data-name="Trazado 1239463" d="M2566.246,2106.4l.215,1.333c-1.875-.014-7.56-.591-8.719.8-.947,1.139-.5,5.02-.507,6.492l0,23.66-1.414-.106c.011-3.542.352-7.417-.072-10.917l-.641-.223c.379-.289.464-.257.6-.737l-.2-.2a4.97,4.97,0,0,1-1.745-.164l1.759-.213c.636-.494.368-2.392.374-3.219l.067-9.752a24.455,24.455,0,0,1,.092-4.206,2.779,2.779,0,0,1,.8-1.45c1.374-1.4,3.329-1.094,5.112-1.094Z" transform="translate(-3255.571 3853.195)" fill="#1f4ca2"/>
      <path id="Trazado_1239464" data-name="Trazado 1239464" d="M2566.874,1853.76l21.979.025,14.262.059,1.6,0,9.326-.006c.889,0,2.385-.214,3.167.222l.119.693c-.108.1-.182.257-.323.3a9.364,9.364,0,0,1-1.851,0l-4.758,0-23.878,0,.023,15.405-1.324-.065-.012-15.369-13.937.015c-1.023,0-3.727.295-4.453-.287Z" transform="translate(-3267.346 4081.109)" fill="#1f4ca2"/>
      <path id="Trazado_1239465" data-name="Trazado 1239465" d="M1596.775,1661.884a6.1,6.1,0,0,1,2.391.391,5.942,5.942,0,0,1,2.975,3.134,5.6,5.6,0,0,1-.252,4.132c-1.13,2.359-3.12,3.574-5.5,4.414a4.359,4.359,0,0,1-1.134-.161,9.845,9.845,0,0,1-2.691-1.175,5.06,5.06,0,0,1-2.019-3.354,5.889,5.889,0,0,1,1.126-4.417A6.907,6.907,0,0,1,1596.775,1661.884Z" transform="translate(-2386.495 4254.221)" fill="#fd706d"/>
      <path id="Trazado_1239466" data-name="Trazado 1239466" d="M1613.9,1695.9l.813.1a16,16,0,0,1,1.193,1.613,8.786,8.786,0,0,1,2.055-1.624l.286.21c-.036.872-.937,1.606-1.5,2.276l.633,1.478-.235.081-.913-.97-.493.112a10,10,0,0,0-2.28,2.477l-.111.172-.667.035-.244-.385c.792-.831,2.742-2.5,3-3.552l-.928-.484C1613.883,1696.976,1613.933,1696.6,1613.9,1695.9Z" transform="translate(-2406.3 4223.531)" fill="#fff"/>
      <path id="Trazado_1239467" data-name="Trazado 1239467" d="M2738.04,2123.039a8.137,8.137,0,0,0,4.46-.1c2.5-.91,3.615-2.616,4.622-4.934l6.694.009c.495,2.81.714,5.236-1.017,7.716a7.7,7.7,0,0,1-4.858,3.236,8.436,8.436,0,0,1-6.3-1.477A10.944,10.944,0,0,1,2738.04,2123.039Z" transform="translate(-3421.824 3842.703)" fill="#cacfe4"/>
      <path id="Trazado_1239468" data-name="Trazado 1239468" d="M1785.1,2814.85l4.236,5.074c.245.467.416,1.143.972,1.289l25.75.156-.252.021-24.618.067.038,10.339-9.633.023a15.89,15.89,0,0,1-4.147-.159c-1.183-1.225-3.552-3.352-4.118-4.945l11.729.021Z" transform="translate(-2551.46 3214.011)" fill="#cacfe4"/>
      <path id="Trazado_1239469" data-name="Trazado 1239469" d="M1957.22,1918.758l30.559-.009-.013,4.5-30.54.046Z" transform="translate(-2717.366 4022.476)" fill="#67cef9"/>
      <path id="Trazado_1239470" data-name="Trazado 1239470" d="M1954.36,1601.4l30.825,0-.014,4.576-30.81.081Z" transform="translate(-2714.786 4308.786)" fill="#546af3"/>
      <path id="Trazado_1239471" data-name="Trazado 1239471" d="M1955.94,1811.434l30.682-.061-.035,4.857-30.636.135Z" transform="translate(-2716.211 4119.351)" fill="#fda286"/>
      <path id="Trazado_1239472" data-name="Trazado 1239472" d="M1956.027,1707.16l30.652.021v4.944l-30.657-.039Z" transform="translate(-2716.286 4213.372)" fill="#fda286"/>
      <path id="Trazado_1239473" data-name="Trazado 1239473" d="M1421.8,2813.39c.023.584-.093,1.567.318,1.959,1.153,0,3.469-.294,4.263.567a4.861,4.861,0,0,1,.98,2.484l6.554-.005a15.338,15.338,0,0,1,3.526.16l.431.515c-.244.381-.357.7-.838.816a11.978,11.978,0,0,1-2.248.018,39.16,39.16,0,0,0-6.709.122c.446,3.321.1,7.06.079,10.427l-14.04.023-3.911-4.372a1.563,1.563,0,0,1-.327-.527l11.859-.058Z" transform="translate(-2223.555 3215.328)" fill="#cacfe4"/>
      <path id="Trazado_1239474" data-name="Trazado 1239474" d="M1588.1,2867.668l-.715-.245a1.209,1.209,0,0,1-.07-.978c.613-.372,2.027-.19,2.776-.19l7.374-.057.43.515c-.243.381-.357.7-.838.815a11.933,11.933,0,0,1-2.248.019A39.064,39.064,0,0,0,1588.1,2867.668Z" transform="translate(-2383.571 3167.685)" fill="#2e339f"/>
      <path id="Trazado_1239475" data-name="Trazado 1239475" d="M1395.026,2825.525l-1.256.01c-.551-.592-.295-2.734-.291-3.636l.071-8.564,13.4.006-.063,12.126Z" transform="translate(-2208.701 3215.377)" fill="#fbb644"/>
      <path id="Trazado_1239476" data-name="Trazado 1239476" d="M2687.938,2023.842l1.324.064c2.244.251,3.661,1.583,5.013,3.272l.4.509a11.753,11.753,0,0,1,.862,3.82l-.173,1.54c-1.007,2.318-2.124,4.025-4.623,4.934a8.133,8.133,0,0,1-4.46.1,9.416,9.416,0,0,1-5.327-4.809l-.214-1.333-.07-1.307a7.413,7.413,0,0,1,7.267-6.786Z" transform="translate(-3370.066 3927.665)" fill="#fd706d"/>
      <path id="Trazado_1239477" data-name="Trazado 1239477" d="M1743.853,2825.573l-3.2-.028.012-11.96,14.955.123-.042,11.886Z" transform="translate(-2521.983 3215.152)" fill="#fbb644"/>
      <path id="Trazado_1239478" data-name="Trazado 1239478" d="M1272.934,2386.4l17.375,7.381,1.276.106c-4.884,4.436-11.046,7.623-15.843,12.145a9.919,9.919,0,0,1-1.875-2.738C1270.991,2397.741,1271.111,2392.209,1272.934,2386.4Z" transform="translate(-2098.821 3600.56)" fill="#2e339f"/>
      <path id="Trazado_1239479" data-name="Trazado 1239479" d="M1285.01,2264.782a21.169,21.169,0,0,1,16.147-13.183,71.944,71.944,0,0,0,.356,8.694l.872,11.871Z" transform="translate(-2110.896 3722.177)" fill="#fd706d"/>
      <path id="Trazado_1239480" data-name="Trazado 1239480" d="M2928.72,2480.53l.025.2.1,2.661c2.314.015,4.078-.094,5.792,1.73a7.135,7.135,0,0,1,1.244,1.805,8.2,8.2,0,0,1,.075,1.81l.042,6.487-.023,22.878,8.608.032.023.208.037,1.429h-8.72l-7.164-.009.034-1.531Z" transform="translate(-3593.856 3515.635)" fill="#cacfe4"/>
      <path id="Trazado_1239481" data-name="Trazado 1239481" d="M2929.116,2866.02l15.813.112.037,1.429h-8.72l-7.164-.009Z" transform="translate(-3594.183 3167.845)" fill="#2e339f"/>
      <path id="Trazado_1239482" data-name="Trazado 1239482" d="M1453.6,2250.516l1.374.053c5.911.559,9.9,3.339,13.932,7.492a23.87,23.87,0,0,1,4.079,9.948l-20.521,3.317-.192-.044-1.276-.107-.872-11.871a72,72,0,0,1-.356-8.694l1.376-.106Z" transform="translate(-2259.508 3723.165)" fill="#fbb644"/>
      <path id="Trazado_1239483" data-name="Trazado 1239483" d="M1449.767,2250.616l1.376-.107,1.137,15.891a21.978,21.978,0,0,1,.183,4.931l-.192-.044-1.276-.107-.872-11.87A71.952,71.952,0,0,1,1449.767,2250.616Z" transform="translate(-2259.507 3723.161)" fill="#81236e"/>
      <path id="Trazado_1239484" data-name="Trazado 1239484" d="M2453.171,1315l25.5.049c-2.331.53-5.364.162-7.781.167l-17.824.025v9.813a21.093,21.093,0,0,1-.179,4.884,6.658,6.658,0,0,1-1.564,2.745,5.16,5.16,0,0,1-2.442,1.5,17.509,17.509,0,0,1-3.807.15l-6.67-.046-20.448-.059c-3.756-.076-6.477-3.953-8.987-6.37a8.52,8.52,0,0,0-2.046-1.627,8.117,8.117,0,0,0-1.668-.006l-5.134-.024a11.75,11.75,0,0,1-2.98-.19l31.006-.024,8.106-.012a29.419,29.419,0,0,0,4.028-.064,5.563,5.563,0,0,0,3.116-1.712c2.478-2.493,1.95-5.951,1.956-9.179Z" transform="translate(-3114.264 4567.18)" fill="#cacfe4"/>
      <path id="Trazado_1239485" data-name="Trazado 1239485" d="M1365.389,1483.12c1.418,0,2.729-.091,3.834.961l.86.981.152.177a2.261,2.261,0,0,1,.332,1.511l.029,35.013,0,12.488a50.146,50.146,0,0,1-.04,5.531,2.65,2.65,0,0,1-1.3,1.885,3.55,3.55,0,0,1-.783.5,9.035,9.035,0,0,1-1.783.053l-4.764.083-25.672.047-.018,15.886-1.374-.053-.026-1.888a26.96,26.96,0,0,1-.134-4.7l-.022-9.332-14.738.026c-.525-.057-.923-.1-1.229-.578a5.184,5.184,0,0,1-.5-3.26c2.992.292,6.183.052,9.2.089l23.167.07,8.49.049a27.823,27.823,0,0,0,4.83-.07,2.407,2.407,0,0,0,1.593-1.1,2.6,2.6,0,0,0,.409-1.285c.219-3.01.035-6.183.037-9.208l-.038-19.209-.074-12.237a39.337,39.337,0,0,0-.22-6.315A31.807,31.807,0,0,1,1365.389,1483.12Z" transform="translate(-2140.771 4415.503)" fill="#cacfe4"/>
      <path id="Trazado_1239486" data-name="Trazado 1239486" d="M1488.753,2088.365c.223-3.907.033-7.937.031-11.858,0-.9-.249-2.91.25-3.618a1.043,1.043,0,0,1,1.047.313l.089,1.219-.018,15.885-1.373-.053Z" transform="translate(-2294.686 3883.429)" fill="#2e339f"/>
      <path id="Trazado_1239487" data-name="Trazado 1239487" d="M1241.094,1458.959a1.805,1.805,0,0,1-.543-.38l.016-5.065a7.342,7.342,0,0,1,.462-3.459,1.735,1.735,0,0,1,1.117-.478c1.809-.151,3.736-.022,5.556-.022l11.036.009,36.621.107.045,3.122a31.8,31.8,0,0,0,.219,6.1Z" transform="translate(-2070.785 4445.831)" fill="#fbb644"/>
      <path id="Trazado_1239488" data-name="Trazado 1239488" d="M2416.222,2881.68l7.164.01.126,18.881c0,2.867.319,6.226-.13,9.045a3.928,3.928,0,0,1-.979,2.015,4.871,4.871,0,0,1-3.6,1.515l-33.659-.018-12.087-.065a41.339,41.339,0,0,1-5.85-.2,8.24,8.24,0,0,1-4.164-2.046c-1.664-1.6-2.124-3.286-2.417-5.513l50.243-.01a5.167,5.167,0,0,0,4.224-1.716,4.244,4.244,0,0,0,1.1-1.968,35.8,35.8,0,0,0,.083-5.937Z" transform="translate(-3081.323 3153.717)" fill="#cacfe4"/>
      <path id="Trazado_1239489" data-name="Trazado 1239489" d="M3215.165,2536.64c2.343.3,3.8.508,5.359,2.443a5.261,5.261,0,0,1,.986,2.4l.046.24a43.713,43.713,0,0,1,.12,7.144l-.027,15.212v21.872c.011,3.758.21,7.621.015,11.37a4.711,4.711,0,0,1-.769,2.508,4.462,4.462,0,0,1-2.967,1.989,47.542,47.542,0,0,1-5.44.049h-11.884l-34.11-.021a4.861,4.861,0,0,1-1.844-.335l-.226-.09a10.558,10.558,0,0,1-5.184-5.52,13.915,13.915,0,0,1-.6-2.2l37.385,0,10.241-.008a44.838,44.838,0,0,0,5.208-.048,4.21,4.21,0,0,0,2.374-1.342,3.492,3.492,0,0,0,1.147-2.217Z" transform="translate(-3801.293 3465.013)" fill="#cacfe4"/>
      <path id="Trazado_1239490" data-name="Trazado 1239490" d="M3200.413,1670.58l.088,2.063c2.012.089,4,.1,5.513,1.652a5.773,5.773,0,0,1,1.536,3.453c.246,2.336.041,4.937.043,7.3l.011,15.659v22.021c0,3.745.177,7.6-.03,11.332a5.03,5.03,0,0,1-1.869,3.76,3.844,3.844,0,0,1-2.162.909c-3.737.338-7.642.137-11.4.141l-21.327,0-15.535-.012a63.313,63.313,0,0,1-7.4-.067,5.812,5.812,0,0,1-3.816-2.161,4.449,4.449,0,0,1-.624-1.171l-.1-.245a11.525,11.525,0,0,1-.548-3.808l13.423-.023,26.862.018,9.365.016a29.263,29.263,0,0,0,4.164-.016,4.382,4.382,0,0,0,2.2-1.215,5.028,5.028,0,0,0,1.624-3.23,38.182,38.182,0,0,0,.052-4.695v-9.487l-.043-27.521C3200.43,1680.385,3200.18,1675.435,3200.413,1670.58Z" transform="translate(-3787 4246.375)" fill="#cacfe4"/>
      <path id="Trazado_1239491" data-name="Trazado 1239491" d="M1346.2,2327.78c2.3.894,4.8,3.663,6.206,5.681l.212.3c3.328,4.806,4.329,11.4,3.218,17.094a21.218,21.218,0,0,1-8.995,13.272,19.409,19.409,0,0,1-14.584,3.024l-.544-.144c-4.211-1.1-8.722-3.6-10.9-7.53l-.276-.573c-1.278-.963-2.685-1.759-3.926-2.774a27.694,27.694,0,0,1-2.885-2.987c4.8-4.522,10.959-7.709,15.843-12.145l.192.044,20.521-3.317A23.861,23.861,0,0,0,1346.2,2327.78Z" transform="translate(-2136.801 3653.447)" fill="#cacfe4"/>
      <path id="Trazado_1239492" data-name="Trazado 1239492" d="M1498.206,2429.5c.294,6.452-1.27,12.079-5.675,16.938l-1.964,1.882-3.967-4.928-5.4-6.289c-1.141-1.292-2.849-2.7-3.511-4.285Z" transform="translate(-2284.728 3561.675)" fill="#16b383"/>
      <path id="Trazado_1239493" data-name="Trazado 1239493" d="M1329.564,2462.97l.192.044c.662,1.588,2.37,2.992,3.511,4.285l5.4,6.289,3.967,4.928a20.4,20.4,0,0,1-14.131,4.57,27.955,27.955,0,0,1-7.975-2.211c-1.279-.963-2.685-1.758-3.926-2.774a27.741,27.741,0,0,1-2.885-2.987C1318.518,2470.593,1324.68,2467.406,1329.564,2462.97Z" transform="translate(-2136.799 3531.478)" fill="#67cef9"/>
      <path id="Trazado_1239494" data-name="Trazado 1239494" d="M3090.462,2524.485c.234-2.791.055-5.75.054-8.556l.005-16.684a61.679,61.679,0,0,1,.042-7.5,4.78,4.78,0,0,1,.985-2,4.6,4.6,0,0,1,3.024-1.963,57.635,57.635,0,0,1,8.178-.116l17.29.018,19.724-.006a90.208,90.208,0,0,1,9.936.091,4.269,4.269,0,0,1,2.208.976,4.43,4.43,0,0,1,1.7,3.629l-.168,53.438a3.489,3.489,0,0,1-1.147,2.218,4.211,4.211,0,0,1-2.374,1.342,44.942,44.942,0,0,1-5.208.048l-10.241.008-37.385,0a14.679,14.679,0,0,1-2.618-.282l-.2-.056a4.345,4.345,0,0,1-2.169-1.173,5.533,5.533,0,0,1-1.448-2.442c-.437-1.846-.119-4.525-.116-6.451l-.015-12.9-.037-1.429Z" transform="translate(-3739.739 3509.285)" fill="#028cf0"/>
      <path id="Trazado_1239495" data-name="Trazado 1239495" d="M3208.818,2863.125l23.727-.009.247.308-.188,1.467c-2.113.131-4.284.034-6.4.034l-12.137,0c-1.023,0-4.566.274-5.25-.28Z" transform="translate(-3846.558 3170.466)" fill="#fff"/>
      <path id="Trazado_1239496" data-name="Trazado 1239496" d="M3207.75,2926.931l20.192-.063,6.469.01a11.393,11.393,0,0,1,3.345.177c.422.676.328.829.261,1.6-2.774.265-5.679.11-8.469.111l-14.848-.023-4.544-.02a10.788,10.788,0,0,1-2.067-.011c-.158-.041-.268-.187-.4-.28Z" transform="translate(-3845.541 3112.97)" fill="#fff"/>
      <path id="Trazado_1239497" data-name="Trazado 1239497" d="M3210.625,2686.3l9.543-.029a14.528,14.528,0,0,1,4.408.214c.664.876.278,7.375.221,8.992-4.112.457-8.6.093-12.754.083a2.192,2.192,0,0,1-1.471-.243,5.292,5.292,0,0,1,.1-1.44c1.142-.6,10.312-.272,12.248-.281l.055-5.306-12.094-.03C3210.457,2687.827,3210.623,2686.915,3210.625,2686.3Z" transform="translate(-3848.128 3330.069)" fill="#fff"/>
      <path id="Trazado_1239498" data-name="Trazado 1239498" d="M3469.11,2686.49l11.258.006a45.659,45.659,0,0,1-.075,8.808,17.191,17.191,0,0,1-4.315.222l-6.863-.063Z" transform="translate(-4081.398 3329.817)" fill="#fff"/>
      <path id="Trazado_1239499" data-name="Trazado 1239499" d="M3492.656,2704.41l1.236.048c.625.925.233,4.267.23,5.519l-6.167,0-1.167-.021c-.568-.615-.239-4.454-.237-5.5Z" transform="translate(-4097.047 3313.65)" fill="#028cf0"/>
      <path id="Trazado_1239500" data-name="Trazado 1239500" d="M2339.688,2435.155l1.414.106,20.8-.053,5.29-.008a14.841,14.841,0,0,1,2.923.12,5.436,5.436,0,0,1,2.737,1.594,7.074,7.074,0,0,1,1.449,2.625l.069,37.7-.034,1.532.061,13.993a35.8,35.8,0,0,1-.083,5.938,4.252,4.252,0,0,1-1.1,1.968,5.168,5.168,0,0,1-4.224,1.716l-50.243.01a6.859,6.859,0,0,1-3.045-1.615,4.649,4.649,0,0,1-1.319-2.487,36.334,36.334,0,0,1-.07-6.2l0-13.335,0-1.51-.022-29.936.014-6.712a8.5,8.5,0,0,1,.055-1.973,6.806,6.806,0,0,1,1.208-1.784,4.782,4.782,0,0,1,2.3-1.494c1.9-.462,4.448-.156,6.422-.151Z" transform="translate(-3039.435 3556.626)" fill="#1ad3ab"/>
      <path id="Trazado_1239501" data-name="Trazado 1239501" d="M2440.38,2948.587l16.52-.037,5.228,0a14.933,14.933,0,0,1,3.363.168c.414.575.288.883.263,1.577l-25.022.034C2440.276,2949.85,2440.411,2949.235,2440.38,2948.587Z" transform="translate(-3153.275 3093.395)" fill="#fff"/>
      <path id="Trazado_1239502" data-name="Trazado 1239502" d="M2439.94,2820.79l36.519.138c.424.519.316,1.059.351,1.718-1.591.217-36.092.206-36.476.05a1.628,1.628,0,0,1-.33-.251Z" transform="translate(-3152.877 3208.652)" fill="#fff"/>
      <path id="Trazado_1239503" data-name="Trazado 1239503" d="M2440.525,2884.92l35.878.139.368.473a1.49,1.49,0,0,1-.317,1.42c-3.608.229-7.337.066-10.954.045l-18.085-.082-5.18-.013a7.934,7.934,0,0,1-1.652,0,1.983,1.983,0,0,1-.332-.249C2440.248,2885.994,2440.073,2885.413,2440.525,2884.92Z" transform="translate(-3153.126 3150.793)" fill="#fff"/>
      <path id="Trazado_1239504" data-name="Trazado 1239504" d="M2502.976,2575.4c2.169,1.563,4.771,3.623,6.2,5.9.025,3.149.724,6.871-1.724,9.288a6.063,6.063,0,0,1-2.069,1.46,9.767,9.767,0,0,1-3.233.394l-6.006.06a8.232,8.232,0,0,1-2.227-.2,10.858,10.858,0,0,1-2.343-2.014l-.851-.951a3.7,3.7,0,0,1-1.01-1.475c2.154.029,11.42.555,12.618-.5a2.879,2.879,0,0,0,.524-.662,9.015,9.015,0,0,0,.078-2.639C2502.919,2581.178,2502.816,2578.276,2502.976,2575.4Z" transform="translate(-3197.784 3430.043)" fill="#1d9d7d"/>
      <path id="Trazado_1239505" data-name="Trazado 1239505" d="M2466.832,2569.1a4.267,4.267,0,0,1-1.429-.541,1.874,1.874,0,0,1-.9-1.637c-.167-1.756-.025-3.673-.046-5.45a42.022,42.022,0,0,1-.008-5.478,1.779,1.779,0,0,1,.5-1.111c1.1-.456,13.372-.307,14.558.138a2.652,2.652,0,0,1,.586,1.618c-.16,2.876-.056,5.779-.042,8.658a9.03,9.03,0,0,1-.078,2.639,2.85,2.85,0,0,1-.524.662C2478.251,2569.66,2468.986,2569.134,2466.832,2569.1Z" transform="translate(-3174.903 3448.8)" fill="#fd706d"/>
      <path id="Trazado_1239506" data-name="Trazado 1239506" d="M2486.031,2561.678a4.657,4.657,0,0,1,1.806.031,5.986,5.986,0,0,1-.022,2.111,3.659,3.659,0,0,1-2.048-.588A2.377,2.377,0,0,1,2486.031,2561.678Z" transform="translate(-3194.19 3442.49)" fill="#fff"/>
      <path id="Trazado_1239507" data-name="Trazado 1239507" d="M2487.43,2590.21l.629.209.262,1.421c-.245.7-.2.8-.867,1.2a5.223,5.223,0,0,1-1.258-.8,2.157,2.157,0,0,1-.072-.609C2486.165,2590.825,2486.835,2590.593,2487.43,2590.21Z" transform="translate(-3194.543 3416.682)" fill="#fff"/>
      <path id="Trazado_1239508" data-name="Trazado 1239508" d="M2486.6,2652.59l.726.421a5.8,5.8,0,0,1,.138,2.007l-.84.667-1.107-.789a1.972,1.972,0,0,1-.108-.589C2485.41,2653.566,2486.11,2653.058,2486.6,2652.59Z" transform="translate(-3193.901 3360.402)" fill="#fff"/>
      <path id="Trazado_1239509" data-name="Trazado 1239509" d="M2487.635,2621.05a2.257,2.257,0,0,1,.637.44,9.088,9.088,0,0,1-.083,2.233l-1.228.369-.542-.573a3.1,3.1,0,0,1-.022-1.5C2486.563,2621.454,2487.132,2621.325,2487.635,2621.05Z" transform="translate(-3194.714 3388.858)" fill="#fff"/>
      <path id="Trazado_1239510" data-name="Trazado 1239510" d="M3086.481,1665.853l-.071-34.949.032-6.561a12.446,12.446,0,0,1,.059-2.53,7.342,7.342,0,0,1,3.729-3.229,55.446,55.446,0,0,1,8.156-.068l14.646.017,22.01-.006a95.018,95.018,0,0,1,10.307.057,4.549,4.549,0,0,1,2.287.974,5.108,5.108,0,0,1,1.9,3.936c-.233,4.855.016,9.8.037,14.672l.043,27.521v9.487a38.134,38.134,0,0,1-.052,4.695,5.025,5.025,0,0,1-1.624,3.23,4.379,4.379,0,0,1-2.2,1.214,29.281,29.281,0,0,1-4.164.017l-9.365-.016-26.862-.018-13.423.023a6.261,6.261,0,0,1-4.3-1.722,4.007,4.007,0,0,1-1.082-1.964,28.9,28.9,0,0,1-.077-4.43l-.031-8.973Z" transform="translate(-3736.121 4293.46)" fill="#fdc750"/>
      <path id="Trazado_1239511" data-name="Trazado 1239511" d="M3212.917,2099.8l20.155-.067,6.486.01a27.618,27.618,0,0,1,3.426.054c.618.082.645.137,1,.607a1.79,1.79,0,0,1-.713,1.254l-20.209.013c-3.179,0-6.611.267-9.749-.037a1.282,1.282,0,0,1-1-.418,1.6,1.6,0,0,1,.02-1.218Z" transform="translate(-3849.621 3859.209)" fill="#fff"/>
      <path id="Trazado_1239512" data-name="Trazado 1239512" d="M3210.1,1957.04l32.061.033c.7.06.883.074,1.334.6a1.679,1.679,0,0,1-.232,1.408l-.654.053-8.947.012-16.523-.1-5.166-.055a8.391,8.391,0,0,1-1.734-.046c-.213-.078-.337-.306-.506-.458A1.93,1.93,0,0,1,3210.1,1957.04Z" transform="translate(-3847.391 3987.93)" fill="#fff"/>
      <path id="Trazado_1239513" data-name="Trazado 1239513" d="M3209.019,2029.18l32.221.087c1.664.02,7.408-.305,8.407.4a2.116,2.116,0,0,1,.007,1.513l-29.7-.125-7.51-.047c-.969-.006-2.536.19-3.351-.31A2.052,2.052,0,0,1,3209.019,2029.18Z" transform="translate(-3846.644 3922.845)" fill="#fff"/>
      <path id="Trazado_1239514" data-name="Trazado 1239514" d="M3206.041,1742.676l8.424-.007a29.485,29.485,0,0,1,4.584.092,1.55,1.55,0,0,1,.866.459c.494.9.31,2.23.315,3.248v6.625a24.662,24.662,0,0,1-.049,3.833c-.108.639-.683.988-1.184,1.322-2.679.248-5.437.144-8.127.157-1.548.008-3.559.267-5.031-.213a4.406,4.406,0,0,1-.549-.641,8.8,8.8,0,0,1-.228-3.14c-.02-3.305-.274-6.9.005-10.169C3205.141,1743.343,3205.391,1743.216,3206.041,1742.676Z" transform="translate(-3843.058 4181.376)" fill="#fff"/>
    </g>
  </g>
</svg>
