<svg xmlns="http://www.w3.org/2000/svg" xmlns:xlink="http://www.w3.org/1999/xlink" width="103" height="103" viewBox="0 0 103 103">
  <defs>
    <filter id="Trazado_978624" x="0" y="0" width="103" height="103" filterUnits="userSpaceOnUse">
      <feOffset dy="3" input="SourceAlpha"/>
      <feGaussianBlur stdDeviation="3" result="blur"/>
      <feFlood flood-opacity="0.161"/>
      <feComposite operator="in" in2="blur"/>
      <feComposite in="SourceGraphic"/>
    </filter>
  </defs>
  <g id="Grupo_1241490" data-name="Grupo 1241490" transform="translate(-171 -3446)">
    <g id="Grupo_1235081" data-name="Grupo 1235081" transform="translate(0 -819)">
      <g id="Grupo_1233827" data-name="Grupo 1233827" transform="translate(0 2673)">
        <g id="Grupo_1228308" data-name="Grupo 1228308" transform="translate(0 579)">
          <g id="Grupo_1220654" data-name="Grupo 1220654" transform="translate(180 1019)">
            <g id="Grupo_1176881" data-name="Grupo 1176881">
              <g id="Grupo_1175148" data-name="Grupo 1175148">
                <g id="Grupo_1173798" data-name="Grupo 1173798">
                  <g id="Grupo_1171925" data-name="Grupo 1171925">
                    <g id="Grupo_1164524" data-name="Grupo 1164524">
                      <g id="Grupo_1144123" data-name="Grupo 1144123">
                        <g transform="matrix(1, 0, 0, 1, -9, -6)" filter="url(#Trazado_978624)">
                          <g id="Trazado_978624-2" data-name="Trazado 978624" transform="translate(9 6)" fill="#e9f9fd">
                            <path d="M 42.5 83.5 C 36.96437835693359 83.5 31.59512901306152 82.41617584228516 26.54141235351562 80.27863311767578 C 21.65934181213379 78.21369171142578 17.27447128295898 75.25723266601562 13.50862312316895 71.49137878417969 C 9.742764472961426 67.72553253173828 6.786305904388428 63.34066009521484 4.721364498138428 58.45858764648438 C 2.583823442459106 53.40486907958984 1.5 48.03562164306641 1.5 42.5 C 1.5 36.96437835693359 2.583823442459106 31.59512901306152 4.721364498138428 26.54141235351562 C 6.786305904388428 21.65934181213379 9.742764472961426 17.27447128295898 13.50862312316895 13.50862312316895 C 17.27447128295898 9.742764472961426 21.65934181213379 6.786305904388428 26.54141235351562 4.721364498138428 C 31.59512901306152 2.583823442459106 36.96437835693359 1.5 42.5 1.5 C 48.03562164306641 1.5 53.40486907958984 2.583823442459106 58.45858764648438 4.721364498138428 C 63.34066009521484 6.786305904388428 67.72553253173828 9.742764472961426 71.49137878417969 13.50862312316895 C 75.25723266601562 17.27447128295898 78.21369171142578 21.65934181213379 80.27863311767578 26.54141235351562 C 82.41617584228516 31.59512901306152 83.5 36.96437835693359 83.5 42.5 C 83.5 48.03562164306641 82.41617584228516 53.40486907958984 80.27863311767578 58.45858764648438 C 78.21369171142578 63.34066009521484 75.25723266601562 67.72553253173828 71.49137878417969 71.49137878417969 C 67.72553253173828 75.25723266601562 63.34066009521484 78.21369171142578 58.45858764648438 80.27863311767578 C 53.40486907958984 82.41617584228516 48.03562164306641 83.5 42.5 83.5 Z" stroke="none"/>
                            <path d="M 42.5 3 C 37.16621398925781 3 31.99356079101562 4.043960571289062 27.125732421875 6.102882385253906 C 22.42246627807617 8.092185974121094 18.19785308837891 10.94070434570312 14.56928253173828 14.56928253173828 C 10.94070434570312 18.19785308837891 8.092185974121094 22.42246627807617 6.102882385253906 27.125732421875 C 4.043960571289062 31.99356079101562 3 37.16621398925781 3 42.5 C 3 47.83378601074219 4.043960571289062 53.00643920898438 6.102882385253906 57.87425231933594 C 8.092185974121094 62.57753372192383 10.94070434570312 66.80213165283203 14.56928253173828 70.43071746826172 C 18.19786834716797 74.05929565429688 22.42246627807617 76.90781402587891 27.125732421875 78.89711761474609 C 31.99356079101562 80.95603942871094 37.16621398925781 82 42.5 82 C 47.83378601074219 82 53.00642395019531 80.95603942871094 57.87425231933594 78.89711761474609 C 62.57753372192383 76.90781402587891 66.80213165283203 74.05929565429688 70.43071746826172 70.43071746826172 C 74.05929565429688 66.80213165283203 76.90781402587891 62.57753372192383 78.89711761474609 57.87425231933594 C 80.95603942871094 53.00642395019531 82 47.83378601074219 82 42.5 C 82 37.16621398925781 80.95603942871094 31.99356079101562 78.89711761474609 27.125732421875 C 76.90781402587891 22.42246627807617 74.05929565429688 18.19786834716797 70.43071746826172 14.56928253173828 C 66.80213165283203 10.94070434570312 62.57753372192383 8.092185974121094 57.87425231933594 6.102882385253906 C 53.00643920898438 4.043960571289062 47.83378601074219 3 42.5 3 M 42.5 0 C 65.97209167480469 0 85 19.02789306640625 85 42.5 C 85 65.97209167480469 65.97209167480469 85 42.5 85 C 19.02789306640625 85 0 65.97209167480469 0 42.5 C 0 19.02789306640625 19.02789306640625 0 42.5 0 Z" stroke="none" fill="#36ceef"/>
                          </g>
                        </g>
                      </g>
                    </g>
                  </g>
                </g>
              </g>
            </g>
          </g>
        </g>
      </g>
    </g>
    <g id="ayudar" transform="translate(194.083 3464.54)">
      <path id="Trazado_1238645" data-name="Trazado 1238645" d="M257.982,167.133l-2.194-.167a5.727,5.727,0,0,0-.447-1.106l1.469-1.659a.452.452,0,0,0-.019-.618l-1.469-1.469a.451.451,0,0,0-.613-.023l-1.669,1.432a5.73,5.73,0,0,0-1.1-.466l-.134-2.211a.451.451,0,0,0-.451-.424h-2.077a.451.451,0,0,0-.45.417l-.168,2.194a5.719,5.719,0,0,0-1.185.491l-1.669-1.433a.451.451,0,0,0-.613.023l-1.469,1.469a.451.451,0,0,0-.019.618l1.469,1.659a5.7,5.7,0,0,0-.448,1.106l-2.194.168a.451.451,0,0,0-.417.45v2.077a.451.451,0,0,0,.424.451l2.211.134a5.728,5.728,0,0,0,.466,1.1l-1.432,1.669a.451.451,0,0,0,.023.613l1.469,1.469a.451.451,0,0,0,.618.019l1.659-1.469a5.727,5.727,0,0,0,1.106.447l.167,2.194a.452.452,0,0,0,.45.417h2.077a.451.451,0,0,0,.451-.424l.134-2.211a5.683,5.683,0,0,0,1.019-.423l1.659,1.469a.451.451,0,0,0,.618-.019l1.469-1.469a.451.451,0,0,0,.023-.613l-1.432-1.669a5.726,5.726,0,0,0,.466-1.1l2.211-.134a.451.451,0,0,0,.424-.45v-2.078a.451.451,0,0,0-.416-.45Zm-7.724,3.816a2.387,2.387,0,1,1,2.387-2.387A2.387,2.387,0,0,1,250.258,170.949Zm0,0" transform="translate(-215.241 -142.17)" fill="#89b4c9"/>
      <path id="Trazado_1238646" data-name="Trazado 1238646" d="M100.444,53.074l-2.217-.17a9.134,9.134,0,0,0-.964-2.376l1.491-1.684a.651.651,0,0,0-.027-.891l-2.119-2.119a.651.651,0,0,0-.884-.033l-1.687,1.448a9.152,9.152,0,0,0-2.362-1l-.136-2.243a.65.65,0,0,0-.65-.611h-3a.651.651,0,0,0-.649.6l-.17,2.217a9.152,9.152,0,0,0-2.5,1.037L82.887,45.8a.651.651,0,0,0-.884.034l-2.119,2.119a.651.651,0,0,0-.027.892l1.491,1.684a9.133,9.133,0,0,0-.964,2.376l-2.217.17a.651.651,0,0,0-.6.649v3a.651.651,0,0,0,.611.65l2.243.136a9.145,9.145,0,0,0,1,2.362l-1.448,1.687a.65.65,0,0,0,.034.884l2.119,2.119a.651.651,0,0,0,.891.027L84.7,63.092a9.145,9.145,0,0,0,2.376.964l.169,2.217a.651.651,0,0,0,.649.6h3a.65.65,0,0,0,.649-.611l.137-2.243a9.111,9.111,0,0,0,2.235-.928L95.6,64.582a.65.65,0,0,0,.891-.027l2.119-2.119a.651.651,0,0,0,.034-.884l-1.448-1.687a9.115,9.115,0,0,0,1-2.362l2.243-.136a.65.65,0,0,0,.611-.65v-3a.65.65,0,0,0-.6-.649ZM89.306,60.387a5.253,5.253,0,1,1,5.252-5.253A5.253,5.253,0,0,1,89.306,60.387Zm0,0" transform="translate(-68.956 -38.133)" fill="#a7c7d3"/>
      <path id="Trazado_1238647" data-name="Trazado 1238647" d="M246.215,176.974l-.7-.813q.112-.247.212-.5l1.094-.067c.049,0,.1-.01.145-.016l-1.161-1a.451.451,0,0,0-.613.023l-1.469,1.469a.451.451,0,0,0-.019.618l1.469,1.659a5.7,5.7,0,0,0-.447,1.106l-2.194.168a.451.451,0,0,0-.417.45v2.077a.451.451,0,0,0,.424.451l.944.057a2.344,2.344,0,0,0,.49-.374l2.119-2.118A2.362,2.362,0,0,0,246.215,176.974Zm0,0" transform="translate(-215.241 -154.661)" fill="#618aaa"/>
      <path id="Trazado_1238648" data-name="Trazado 1238648" d="M302.156,161.353v-.259a.448.448,0,0,0-.2.342l-.078,1.027A2.335,2.335,0,0,0,302.156,161.353Zm0,0" transform="translate(-268.365 -142.767)" fill="#618aaa"/>
      <path id="Trazado_1238649" data-name="Trazado 1238649" d="M100.444,53.074l-2.217-.17a9.134,9.134,0,0,0-.964-2.376l1.491-1.684a.651.651,0,0,0-.027-.891l-2.119-2.119a.651.651,0,0,0-.884-.033l-1.687,1.448a9.152,9.152,0,0,0-2.362-1l-.136-2.243a.65.65,0,0,0-.65-.611h-3a.651.651,0,0,0-.649.6l-.17,2.217a9.152,9.152,0,0,0-2.5,1.037L82.887,45.8a.651.651,0,0,0-.884.034l-2.119,2.119a.651.651,0,0,0-.027.892l1.491,1.684a9.133,9.133,0,0,0-.964,2.376l-2.217.17a.651.651,0,0,0-.6.649v3a.651.651,0,0,0,.611.65l2.243.136a9.145,9.145,0,0,0,1,2.362l-1.448,1.687a.65.65,0,0,0,.034.884l2.119,2.119a.651.651,0,0,0,.891.027L84.7,63.092a9.145,9.145,0,0,0,2.376.964l.169,2.217a.651.651,0,0,0,.649.6h3a.65.65,0,0,0,.649-.611l.137-2.243a9.111,9.111,0,0,0,2.235-.928L95.6,64.582a.65.65,0,0,0,.891-.027l2.119-2.119a.651.651,0,0,0,.034-.884l-1.448-1.687a9.115,9.115,0,0,0,1-2.362l2.243-.136a.65.65,0,0,0,.611-.65v-3a.65.65,0,0,0-.6-.649ZM89.306,60.387a5.253,5.253,0,1,1,5.252-5.253A5.253,5.253,0,0,1,89.306,60.387Zm0,0" transform="translate(-68.956 -38.133)" fill="#a7c7d3"/>
      <path id="Trazado_1238650" data-name="Trazado 1238650" d="M39.907,231.382a1.114,1.114,0,0,1-.7-.16l-5.082-3.257a2.168,2.168,0,0,0-2.8.392l-.385.438a3.6,3.6,0,0,0-.9,2.353l-.055,6.626,5.8-.078.069-5.116,2.906,1.616a1.115,1.115,0,0,0,.677.132l4.254-.524a3.141,3.141,0,0,0,2.758-3.118Zm0,0" transform="translate(-26.656 -201.911)" fill="#ff84a7"/>
      <path id="Trazado_1238651" data-name="Trazado 1238651" d="M44.461,255.427a6.177,6.177,0,0,1-6.782,1.3l-1.651-.918a.858.858,0,0,0-1.275.738,3.78,3.78,0,0,1-3.729,3.729L30,260.292l-.016,2.011,5.8-.078.069-5.116,2.906,1.616a1.112,1.112,0,0,0,.677.132l4.254-.523a3.142,3.142,0,0,0,2.758-3.118Zm0,0" transform="translate(-26.656 -226.44)" fill="#ef6085"/>
      <path id="Trazado_1238652" data-name="Trazado 1238652" d="M35.778,318.363l5.917,6.154a1.7,1.7,0,0,1,.244,2.072l-3.527,8.58H36.377l1.705-7.591a.637.637,0,0,0-.076-.611l-8.025-8.527Zm0,0" transform="translate(-26.653 -282.579)" fill="#38627c"/>
      <path id="Trazado_1238653" data-name="Trazado 1238653" d="M12.708,318.441l5.8-.078-5.8,16.807H10.551Zm0,0" transform="translate(-9.38 -282.579)" fill="#4f7693"/>
      <path id="Trazado_1238654" data-name="Trazado 1238654" d="M42.726,182.318l-.183,1.941a1.659,1.659,0,0,0,1.5,1.807l.768.073a1.659,1.659,0,0,0,1.807-1.5L46.8,182.7a1.659,1.659,0,0,0-1.5-1.807l-.768-.072a1.658,1.658,0,0,0-1.807,1.5Zm0,0" transform="translate(-37.813 -160.299)" fill="#fedfc5"/>
      <path id="Trazado_1238655" data-name="Trazado 1238655" d="M381.127,203.437l-10.866-5.9a4,4,0,0,0,1.781,4.481l5.468,3.323L377.4,212.1l5.3,2.17v-8.19A3.008,3.008,0,0,0,381.127,203.437Zm0,0" transform="translate(-329.033 -175.163)" fill="#83d9ff"/>
      <path id="Trazado_1238656" data-name="Trazado 1238656" d="M376.058,216.364a3.131,3.131,0,0,0-1.5-2.724l-3.936-2.391c-.094-.057-.186-.118-.274-.182a4,4,0,0,0,1.9,2.979Zm0,0" transform="translate(-329.234 -187.192)" fill="#5fc9ed"/>
      <path id="Trazado_1238657" data-name="Trazado 1238657" d="M439.488,250.473l-.052-.028v4.136a2.637,2.637,0,0,1-3.637,2.44l-.033,2.118,5.3,2.17v-8.19A3.01,3.01,0,0,0,439.488,250.473Zm0,0" transform="translate(-387.394 -222.2)" fill="#5fc9ed"/>
      <path id="Trazado_1238658" data-name="Trazado 1238658" d="M394.472,328.762l-4.83,6.714a1.732,1.732,0,0,0-.316,1.19l.816,7.867h1.91l.5-6.285a1.731,1.731,0,0,1,.549-1.134l6.672-6.182Zm0,0" transform="translate(-346.1 -291.823)" fill="#38627c"/>
      <path id="Trazado_1238659" data-name="Trazado 1238659" d="M438.13,330.932l-1.5,6.038a1.593,1.593,0,0,0,.136,1.125l3.385,6.437H438.13l-5.2-6.053a1.914,1.914,0,0,1-.46-1.33l.364-8.388Zm0,0" transform="translate(-384.462 -291.824)" fill="#4f7693"/>
      <path id="Trazado_1238660" data-name="Trazado 1238660" d="M450.149,201.207l-.889,1.735a1.658,1.658,0,0,0,.72,2.232l.687.352a1.658,1.658,0,0,0,2.232-.72l.889-1.735a1.659,1.659,0,0,0-.72-2.232l-.687-.352A1.659,1.659,0,0,0,450.149,201.207Zm0,0" transform="translate(-399.228 -177.625)" fill="#fedfc5"/>
      <path id="Trazado_1238661" data-name="Trazado 1238661" d="M289.665,204.75a3.22,3.22,0,1,0,3.22,3.22,3.223,3.223,0,0,0-3.22-3.22Zm0,4.773a1.554,1.554,0,1,1,1.554-1.554A1.556,1.556,0,0,1,289.665,209.523Zm0,0" transform="translate(-254.648 -181.577)"/>
      <path id="Trazado_1238662" data-name="Trazado 1238662" d="M139.556,98.518a.833.833,0,0,0-.645.986,4.42,4.42,0,1,1-4.326-3.51,4.37,4.37,0,0,1,2.751.961.833.833,0,1,0,1.038-1.3,6.073,6.073,0,1,0,2.168,3.512A.834.834,0,0,0,139.556,98.518Zm0,0" transform="translate(-114.236 -83.413)"/>
      <path id="Trazado_1238663" data-name="Trazado 1238663" d="M4.206,488H.833a.833.833,0,0,0,0,1.666H4.206a.833.833,0,0,0,0-1.666Zm0,0" transform="translate(0 -433.382)"/>
      <path id="Trazado_1238664" data-name="Trazado 1238664" d="M81.542,488H78.169a.833.833,0,1,0,0,1.666h3.373a.833.833,0,0,0,0-1.666Zm0,0" transform="translate(-68.751 -433.382)"/>
      <path id="Trazado_1238665" data-name="Trazado 1238665" d="M55.744,84.715a.833.833,0,0,0,.632.29H58.4a.833.833,0,0,0,.738-1.221l-3.385-6.437a.76.76,0,0,1-.065-.537l1.495-6.034h0v0s0-.008,0-.011c0-.02.008-.039.012-.058s0-.012,0-.018v0s0-.009,0-.013,0-.029,0-.044,0-.012,0-.017,0-.036,0-.054V68.986a.833.833,0,1,0-1.666,0v.344l-3.621-1.484L52,63.106l.475.289a.833.833,0,0,0,.865-1.424l-1.725-1.048-.02-.012L46.15,57.6a3.184,3.184,0,0,1-1.511-2.44l8.306,4.511c.045.027.089.054.136.078l.141.072,1.183.643a2.175,2.175,0,0,1,1.137,1.913v3.26a.833.833,0,0,0,1.666,0v-3.26a3.838,3.838,0,0,0-.882-2.447,2.48,2.48,0,0,0,.794-.911l.888-1.735a2.491,2.491,0,0,0-1.082-3.353l-.687-.352a2.5,2.5,0,0,0-3.354,1.082L52,56.4a2.485,2.485,0,0,0-.241.735L45.17,53.556a1.278,1.278,0,0,0-.322-1.269l-1.469-1.47a1.289,1.289,0,0,0-1.745-.066l-1.252,1.074c-.058-.026-.116-.05-.175-.074l-.1-1.664a1.286,1.286,0,0,0-1.282-1.205H36.746a1.289,1.289,0,0,0-1.115.652V47.052a1.49,1.49,0,0,0-1.37-1.479l-1.637-.125a10.019,10.019,0,0,0-.6-1.473l1.1-1.248a1.486,1.486,0,0,0-.062-2.032L30.95,38.575a1.49,1.49,0,0,0-2.015-.077l-1.246,1.069a9.992,9.992,0,0,0-1.464-.62l-.1-1.662a1.485,1.485,0,0,0-1.481-1.394h-3a1.49,1.49,0,0,0-1.479,1.371L20.042,38.9a10,10,0,0,0-1.615.669L17.181,38.5a1.49,1.49,0,0,0-2.015.077l-2.119,2.119a1.486,1.486,0,0,0-.062,2.032l1.105,1.248a9.906,9.906,0,0,0-.6,1.473l-1.637.125a1.49,1.49,0,0,0-1.37,1.479v3a1.486,1.486,0,0,0,1.393,1.481l1.663.1a9.965,9.965,0,0,0,.62,1.464L13.093,54.34a1.49,1.49,0,0,0,.077,2.015l2.119,2.119a1.485,1.485,0,0,0,2.032.062l1.248-1.1a10,10,0,0,0,1.473.6l.124,1.619-4.294.458a.282.282,0,0,1-.173-.038L11.59,57.435a2.476,2.476,0,0,0,.747-1.551l.183-1.941a2.491,2.491,0,0,0-2.247-2.714l-.768-.073A2.492,2.492,0,0,0,6.791,53.4l-.183,1.941a2.473,2.473,0,0,0,.469,1.7,3.068,3.068,0,0,0-.324.314l-.386.438a4.437,4.437,0,0,0-1.108,2.9L5.2,67.267,3.054,83.947a.833.833,0,0,0,.826.94H6.036a.833.833,0,0,0,.787-.561l5.354-15.52,4.98,5.181a.864.864,0,0,1,.124,1.055.837.837,0,0,0-.058.115L13.91,83.221h-.437L14.939,76.7a1.464,1.464,0,0,0-.2-1.332.888.888,0,0,0-.068-.082l-1.536-1.632a.833.833,0,0,0-1.213,1.142l1.4,1.492-1.7,7.588a.832.832,0,0,0,.813,1.016h2.036a.833.833,0,0,0,.771-.516l3.505-8.527a2.525,2.525,0,0,0-.392-3.02l-5.68-5.909.045-3.379,1.688.938a1.931,1.931,0,0,0,1.184.23l4.254-.523a3.98,3.98,0,0,0,3.407-3.146h1.393a1.486,1.486,0,0,0,1.481-1.394l.1-1.662a9.986,9.986,0,0,0,1.323-.549l1.2,1.066v.457a1.286,1.286,0,0,0,1.205,1.282l1.663.1c.024.059.049.117.075.175L30.62,61.765a1.291,1.291,0,0,0,.068,1.742l1.471,1.473a1.287,1.287,0,0,0,1.757.051l1.248-1.1q.088.037.177.072l.125,1.642a1.288,1.288,0,0,0,1.28,1.189h2.078a1.286,1.286,0,0,0,1.282-1.205l.1-1.663.081-.033,1.247,1.1a1.289,1.289,0,0,0,1.76-.053l1.468-1.47a1.291,1.291,0,0,0,.067-1.744l-1.074-1.252c.026-.058.051-.116.075-.175l1.664-.1a1.281,1.281,0,0,0,.943-.507L50.345,62.1l-.094,6.023-4.678,6.5a2.565,2.565,0,0,0-.469,1.762l.816,7.866A.833.833,0,0,0,46.75,85h1.91a.833.833,0,0,0,.83-.768l.494-6.283a.89.89,0,0,1,.041-.2,2.734,2.734,0,0,0,.519.912ZM53.431,57.789a.821.821,0,0,1,.051-.63l.888-1.735a.827.827,0,0,1,1.111-.359l.687.352a.826.826,0,0,1,.359,1.111l-.888,1.735a.826.826,0,0,1-1.111.359L54,58.353l-.249-.135A.819.819,0,0,1,53.431,57.789ZM35.408,50.827l-.068.885q-.138.053-.273.113l-.438-.376A1.489,1.489,0,0,0,35.408,50.827ZM8.267,55.5l.183-1.941a.825.825,0,0,1,.82-.748c.026,0,.052,0,.079,0l.768.072a.826.826,0,0,1,.745.9l-.183,1.941a.826.826,0,0,1-.784.746,2.969,2.969,0,0,0-1.107-.129.827.827,0,0,1-.52-.846ZM5.443,83.22H4.827L6.771,68.148l3.89-.052Zm14.2-20.692-4.254.523a.278.278,0,0,1-.17-.033L12.321,61.41l-.027-.015L10.33,60.3a.833.833,0,1,0-.81,1.456l1.543.858-.051,3.807-4.136.056.048-5.774A2.768,2.768,0,0,1,7.617,58.9L8,58.459a1.33,1.33,0,0,1,.709-.421c.048.007.095.016.144.021l.7.066a1.332,1.332,0,0,1,.172.094l5.082,3.257.011.007a1.963,1.963,0,0,0,1.23.28l5.413-.577a2.311,2.311,0,0,1-1.822,1.343ZM27.246,55.7a8.319,8.319,0,0,1-2.031.843.833.833,0,0,0-.617.754l-.126,2.071H21.816l-.157-2.048a.833.833,0,0,0-.629-.745A8.323,8.323,0,0,1,18.87,55.7a.832.832,0,0,0-.97.1l-1.555,1.377L14.468,55.3l1.338-1.559a.833.833,0,0,0,.082-.972,8.306,8.306,0,0,1-.909-2.146A.833.833,0,0,0,14.223,50l-2.071-.126V47.221l2.048-.157a.833.833,0,0,0,.745-.629,8.3,8.3,0,0,1,.876-2.159.833.833,0,0,0-.1-.97L14.347,41.75l1.878-1.878,1.559,1.338a.832.832,0,0,0,.972.082,8.317,8.317,0,0,1,2.274-.942.832.832,0,0,0,.629-.745l.157-2.048h2.655l.126,2.071a.833.833,0,0,0,.617.754,8.324,8.324,0,0,1,2.147.909.833.833,0,0,0,.972-.082l1.559-1.338,1.878,1.877-1.377,1.555a.833.833,0,0,0-.1.97,8.305,8.305,0,0,1,.876,2.159.833.833,0,0,0,.745.63l2.048.156v2.655L31.894,50a.833.833,0,0,0-.754.617,8.314,8.314,0,0,1-.909,2.146.833.833,0,0,0,.082.972L31.649,55.3l-1.878,1.878L28.216,55.8a.833.833,0,0,0-.97-.1ZM43.18,58.707a.834.834,0,0,0-.746.587,4.919,4.919,0,0,1-.4.938.833.833,0,0,0,.1.947l1.2,1.4-.964.965-1.39-1.231a.832.832,0,0,0-.945-.111,4.906,4.906,0,0,1-.87.361.833.833,0,0,0-.587.746l-.113,1.852H37.1l-.141-1.842a.834.834,0,0,0-.6-.737,4.839,4.839,0,0,1-.943-.381.834.834,0,0,0-.945.111L33.08,63.544l-.964-.965,1.2-1.4a.834.834,0,0,0,.1-.947,4.9,4.9,0,0,1-.4-.938.834.834,0,0,0-.746-.588l-1.6-.1a1.51,1.51,0,0,0,.159-.136s2.541-2.912,2.552-2.933a.834.834,0,0,0-.113-.941l-.606-.685-.007-.008-.013-.015-.014-.016-.581-.677L33,52.245l1.4,1.2a.832.832,0,0,0,.947.1,4.851,4.851,0,0,1,1.013-.419.834.834,0,0,0,.6-.737l.141-1.841h1.364l.113,1.853a.833.833,0,0,0,.587.746,4.92,4.92,0,0,1,.938.4.832.832,0,0,0,.946-.1l1.4-1.2.951.952a.83.83,0,0,0-.209.264L42.184,54.6a.832.832,0,0,0-.111.945,4.9,4.9,0,0,1,.382.946.834.834,0,0,0,.736.6l.314.024a4.836,4.836,0,0,0,1.2,1.5ZM57.023,83.339h-.264l-4.95-5.763a1.076,1.076,0,0,1-.26-.751l.313-7.2,3.533,1.448-1.323,5.339a2.425,2.425,0,0,0,.208,1.713Zm-7.883-7.2a2.562,2.562,0,0,0-.816,1.68l-.434,5.518H47.5l-.739-7.118a.9.9,0,0,1,.164-.619l3.2-4.45L49.943,75.4Zm0,0" transform="translate(-2.708 -31.462)"/>
      <path id="Trazado_1238666" data-name="Trazado 1238666" d="M470.808,488h-3.374a.833.833,0,0,0,0,1.666h3.374a.833.833,0,0,0,0-1.666Zm0,0" transform="translate(-414.807 -433.382)"/>
      <path id="Trazado_1238667" data-name="Trazado 1238667" d="M381.41,488h-3.374a.833.833,0,0,0,0,1.666h3.374a.833.833,0,1,0,0-1.666Zm0,0" transform="translate(-335.332 -433.382)"/>
      <path id="Trazado_1238668" data-name="Trazado 1238668" d="M321.454,119.439a9.657,9.657,0,0,1,7.582,3.643l-.621-.151a.833.833,0,0,0-.393,1.62l2.587.627a.835.835,0,0,0,1.072-.6l.595-2.454a.833.833,0,1,0-1.619-.392l-.133.547a11.313,11.313,0,0,0-9.069-4.507.833.833,0,0,0,0,1.666Zm0,0" transform="translate(-285.031 -104.255)"/>
      <path id="Trazado_1238669" data-name="Trazado 1238669" d="M30.108,10.832a.9.9,0,0,0,1.13.667l2.746-1a.833.833,0,1,0-.571-1.565l-.815.3A14.254,14.254,0,0,1,44.937,2.166a.833.833,0,1,0,0-1.666A15.913,15.913,0,0,0,31.055,8.57l-.323-.885a.833.833,0,0,0-1.565.572Zm0,0" transform="translate(-25.884 0)"/>
    </g>
  </g>
</svg>
