<svg xmlns="http://www.w3.org/2000/svg" xmlns:xlink="http://www.w3.org/1999/xlink" width="190" height="321" viewBox="0 0 190 321">
  <defs>
    <clipPath id="clip-path">
      <rect id="Rectángulo_424006" data-name="Rectángulo 424006" width="190" height="321" transform="translate(180 2164)" fill="#fff" stroke="#707070" stroke-width="1"/>
    </clipPath>
  </defs>
  <g id="Enmascarar_grupo_1211521" data-name="Enmascarar grupo 1211521" transform="translate(-180 -2164)" clip-path="url(#clip-path)">
    <g id="OBJECTS" transform="translate(153.484 2224.411)">
      <g id="Grupo_1241788" data-name="Grupo 1241788" transform="translate(30.32 -29.022)">
        <g id="Grupo_1241726" data-name="Grupo 1241726" transform="translate(2.159 286.395)">
          <path id="Trazado_1239098" data-name="Trazado 1239098" d="M193.777,478.653H34.126c-.618,0-1.119-.72-1.119-1.608s.5-1.608,1.119-1.608H193.777c.618,0,1.119.72,1.119,1.608S194.395,478.653,193.777,478.653Z" transform="translate(-33.007 -475.437)" fill="#263238"/>
        </g>
        <g id="Grupo_1241761" data-name="Grupo 1241761" transform="translate(-1.841 -13.75)">
          <g id="Grupo_1241758" data-name="Grupo 1241758" transform="translate(0 -17.749)">
            <g id="Grupo_1241731" data-name="Grupo 1241731" transform="translate(83.749 49.366)">
              <g id="Grupo_1241730" data-name="Grupo 1241730">
                <g id="Grupo_1241728" data-name="Grupo 1241728" transform="translate(79.884 4.922)">
                  <g id="Grupo_1241727" data-name="Grupo 1241727">
                    <path id="Trazado_1239099" data-name="Trazado 1239099" d="M250.442,156.985a3.552,3.552,0,0,0-1.414.156,24.985,24.985,0,0,0-9.589,4.785c-2.874,2.391-.041,5.315,2.744,3.182a20.705,20.705,0,0,0,2.127-2.173,11.582,11.582,0,0,1,4.993-3.027,5.33,5.33,0,0,0,1.6-.625,1.4,1.4,0,0,0,.629-1.484A1.33,1.33,0,0,0,250.442,156.985Z" transform="translate(-235.019 -156.962)" fill="#b96e2b"/>
                    <path id="Trazado_1239100" data-name="Trazado 1239100" d="M253.125,160.206a3.551,3.551,0,0,0-1.414.156,24.986,24.986,0,0,0-9.589,4.785c-2.874,2.391-.041,5.315,2.744,3.182a20.7,20.7,0,0,0,2.127-2.173,11.582,11.582,0,0,1,4.993-3.027,5.326,5.326,0,0,0,1.6-.625,1.393,1.393,0,0,0,.629-1.483A1.329,1.329,0,0,0,253.125,160.206Z" transform="translate(-235.483 -157.519)" fill="#b96e2b"/>
                    <path id="Trazado_1239101" data-name="Trazado 1239101" d="M253.049,164.288a3.566,3.566,0,0,0-1.414.156,24.985,24.985,0,0,0-9.589,4.785c-2.874,2.391-.04,5.315,2.744,3.182a20.71,20.71,0,0,0,2.127-2.173,11.582,11.582,0,0,1,4.993-3.027,5.327,5.327,0,0,0,1.6-.625,1.393,1.393,0,0,0,.629-1.483A1.327,1.327,0,0,0,253.049,164.288Z" transform="translate(-235.47 -158.224)" fill="#b96e2b"/>
                    <path id="Trazado_1239102" data-name="Trazado 1239102" d="M250.727,168.8a2.9,2.9,0,0,1,1.154-.127,1.086,1.086,0,0,1,.889.665,1.137,1.137,0,0,1-.514,1.211,4.36,4.36,0,0,1-1.307.51,9.451,9.451,0,0,0-4.076,2.472,17,17,0,0,1-1.736,1.774c-2.273,1.741-4.587-.646-2.24-2.6A20.4,20.4,0,0,1,250.727,168.8Z" transform="translate(-235.655 -158.983)" fill="#b96e2b"/>
                    <path id="Trazado_1239103" data-name="Trazado 1239103" d="M238.431,163.095a17.642,17.642,0,0,0-3.115,4.7,8.4,8.4,0,0,0-.566,6.4,5.172,5.172,0,0,0,5.039,3.489A5.75,5.75,0,0,0,243.2,175.9a8.881,8.881,0,0,0-1.837-13.967Z" transform="translate(-234.347 -157.821)" fill="#b96e2b"/>
                  </g>
                </g>
                <g id="Grupo_1241729" data-name="Grupo 1241729">
                  <path id="Trazado_1239104" data-name="Trazado 1239104" d="M137.855,156.275c-.507,5.058,1.378,10.1,4.2,14.146s6.522,7.235,10.183,10.384l28.744,24.718c1.712,1.472,3.5,2.984,5.63,3.529,3.261.833,6.62-.751,9.583-2.483a87.583,87.583,0,0,0,24.141-21.005c2.079-2.607,4.142-5.782,3.655-9.171a7.8,7.8,0,0,0-5.728-6.138,14.35,14.35,0,0,0-8.426.766c-7.446,2.6-13.806,7.9-20,13.1-8.8-6.956-18.587-14.634-26.446-22.8-3.525-3.662-7.016-7.669-11.615-9.471S138.384,150.99,137.855,156.275Z" transform="translate(-137.772 -151.012)" fill="#f5a42e"/>
                  <path id="Trazado_1239105" data-name="Trazado 1239105" d="M238.35,182.172a6.711,6.711,0,0,1,2.117-1.728,3.515,3.515,0,0,0,1.717-2.058,3.247,3.247,0,0,0-.2-1.651,9.247,9.247,0,0,0-8.016-6.119,14.706,14.706,0,0,0-3.608,5.148Z" transform="translate(-153.773 -154.4)" fill="#f5a42e"/>
                </g>
              </g>
              <path id="Trazado_1239106" data-name="Trazado 1239106" d="M199.284,190.979a15.187,15.187,0,0,0-1.884,11.929c.122.463.86.335.738-.133a14.445,14.445,0,0,1,1.757-11.361C200.153,191.008,199.544,190.572,199.284,190.979Z" transform="translate(-147.994 -157.891)" fill="#a66f1f"/>
              <path id="Trazado_1239107" data-name="Trazado 1239107" d="M198.8,197.02a7.218,7.218,0,0,0,.019,4.5.377.377,0,0,0,.5.18.385.385,0,0,0,.18-.5,6.358,6.358,0,0,1,0-3.918C199.646,196.826,198.945,196.561,198.8,197.02Z" transform="translate(-148.258 -158.922)" fill="#a66f1f"/>
              <path id="Trazado_1239108" data-name="Trazado 1239108" d="M231.9,173.38c-.478.061-.345.8.133.738a6.676,6.676,0,0,1,7.541,5.876c.06.478.8.345.737-.133a7.425,7.425,0,0,0-8.412-6.481Z" transform="translate(-153.988 -154.867)" fill="#a66f1f"/>
            </g>
            <g id="Grupo_1241749" data-name="Grupo 1241749" transform="translate(40.26)">
              <g id="Grupo_1241737" data-name="Grupo 1241737" transform="translate(0 145.474)">
                <g id="Grupo_1241736" data-name="Grupo 1241736">
                  <g id="Grupo_1241733" data-name="Grupo 1241733" transform="translate(39.14 0.001)">
                    <path id="Trazado_1239109" data-name="Trazado 1239109" d="M159.206,267.2c-27.089,3.245-26.691,20.124-26.691,20.124l15.189,65.19,12.4,59.331h14.275c1.266-22.1,2.578-48.452,2.047-59.885C174.191,303.915,159.206,267.2,159.206,267.2Z" transform="translate(-132.515 -267.201)" fill="#386ca6"/>
                    <path id="Trazado_1239110" data-name="Trazado 1239110" d="M165.865,442.066l.909,7.127h12.921q.244-3.577.446-7.127Z" transform="translate(-138.278 -297.422)" fill="#488bd6"/>
                    <path id="Trazado_1239111" data-name="Trazado 1239111" d="M168.254,450.682c0,1.919.016,3.786.038,5.578h10.225l.571-5.578Z" transform="translate(-138.691 -298.911)" fill="#b96e2b"/>
                    <g id="Grupo_1241732" data-name="Grupo 1241732" transform="translate(26.008 156.156)">
                      <path id="Trazado_1239112" data-name="Trazado 1239112" d="M166.9,456.341l11.968-.358c3.335,3.779,23.417,8.533,24.58,13.617H164.131A59.657,59.657,0,0,1,166.9,456.341Z" transform="translate(-163.987 -455.983)" fill="#f5a42e"/>
                      <path id="Trazado_1239113" data-name="Trazado 1239113" d="M203.412,472.445c.112.487.226.973.315,1.466a1.221,1.221,0,0,1-1.114,1.5H165.1a1.2,1.2,0,0,1-1.138-1.328c.04-.546.089-1.09.141-1.635Z" transform="translate(-163.957 -458.828)" fill="#a66f1f"/>
                    </g>
                  </g>
                  <g id="Grupo_1241735" data-name="Grupo 1241735" transform="translate(0 3.393)">
                    <path id="Trazado_1239114" data-name="Trazado 1239114" d="M133.027,287.065s12.05-8.407,13.461-15.763l-45.234,1.751S90.909,328.6,93.9,412.553h14.21Z" transform="translate(-86.608 -271.302)" fill="#508dba"/>
                    <path id="Trazado_1239115" data-name="Trazado 1239115" d="M94.012,442.066c-.021,2.452-.028,4.834-.02,7.127h12.815l1.415-7.127Z" transform="translate(-86.717 -300.814)" fill="#62ace3"/>
                    <path id="Trazado_1239116" data-name="Trazado 1239116" d="M95.277,450.682c0,1.919.016,3.786.038,5.578H105.54l.571-5.578Z" transform="translate(-86.939 -302.303)" fill="#b96e2b"/>
                    <g id="Grupo_1241734" data-name="Grupo 1241734" transform="translate(0 152.764)">
                      <path id="Trazado_1239117" data-name="Trazado 1239117" d="M104.447,456.341l-11.968-.358A31.161,31.161,0,0,0,85.6,469.6h21.607A59.655,59.655,0,0,0,104.447,456.341Z" transform="translate(-85.267 -455.983)" fill="#f5a42e"/>
                      <path id="Trazado_1239118" data-name="Trazado 1239118" d="M85.534,472.445c-.112.487-.226.973-.314,1.466a1.221,1.221,0,0,0,1.114,1.5h19.81a1.2,1.2,0,0,0,1.138-1.328c-.04-.546-.089-1.09-.141-1.635Z" transform="translate(-85.197 -458.828)" fill="#a66f1f"/>
                    </g>
                  </g>
                  <path id="Trazado_1239119" data-name="Trazado 1239119" d="M143.966,277.985c2.392-2.615,4.486-5.6,5.028-8.431L103.281,267.2s-.371,5.351-.546,7.574A115.5,115.5,0,0,0,143.966,277.985Z" transform="translate(-88.228 -267.2)" fill="#386ca6"/>
                </g>
                <path id="Trazado_1239120" data-name="Trazado 1239120" d="M105.1,379.1c-1.484-2.777-3.036-5.482-4.265-8.41a83.616,83.616,0,0,1-3.029-9.135c-.11-.379-.6-.221-.54.162a44.439,44.439,0,0,0,2.822,9.326,39.588,39.588,0,0,0,4.487,8.5C104.819,379.873,105.291,379.451,105.1,379.1Z" transform="translate(-87.283 -283.469)" fill="#386ca6"/>
              </g>
              <path id="Trazado_1239121" data-name="Trazado 1239121" d="M121.833,129.561c-.173-2.907-.347-5.818-.79-8.7a46.873,46.873,0,0,0-2.08-8.329c-.953.275-1.923-.91-2.46-1.745a2.391,2.391,0,0,1,.191-2.771c.3-.344.689-.6.956-.967.816-1.123.146-2.68-.51-3.9s-1.254-2.838-.347-3.889c1.161-1.344,3.351-.319,5.106-.589,2.034-.312,3.261-2.331,4.439-4.019a8.149,8.149,0,0,1,3.194-2.975,3.557,3.557,0,0,1,4.07.663,18.788,18.788,0,0,0,1.352,1.973c1.173,1.061,3,.5,4.538.132s3.682-.108,3.962,1.449c.179.991-.572,1.931-.569,2.939,0,1.569,1.7,2.506,3.161,3.088s3.165,1.478,3.222,3.046c.068,1.869-2.351,3.179-2.167,5.04a5.512,5.512,0,0,0,1.48,2.5c.588.788.963,1.988.273,2.688s-2.037.493-2.491,1.344c-.565,1.056.967,2.394.385,3.441a1.416,1.416,0,0,1-1.659.49,6.651,6.651,0,0,1-1.6-.953,7.487,7.487,0,0,0-9.48,1.289,18.463,18.463,0,0,0-2.521,4.689,8.9,8.9,0,0,1-3.186,4.187C126.768,130.606,122.856,131.021,121.833,129.561Z" transform="translate(-90.546 -91.331)" fill="#3b1411"/>
              <path id="Trazado_1239122" data-name="Trazado 1239122" d="M147.1,110.009c-.184-1.861,2.235-3.171,2.167-5.04-.057-1.568-1.764-2.464-3.222-3.046s-3.157-1.52-3.161-3.089c0-1.007.749-1.948.569-2.939-.28-1.557-2.424-1.821-3.962-1.449s-3.365.93-4.538-.132a19.044,19.044,0,0,1-1.352-1.973,3.557,3.557,0,0,0-4.07-.663,8.152,8.152,0,0,0-3.194,2.974c-1.177,1.687-2.4,3.707-4.439,4.019-1.755.269-3.946-.755-5.106.589-.907,1.051-.31,2.665.347,3.889s1.327,2.78.51,3.9c-.267.367-.661.622-.956.967a2.391,2.391,0,0,0-.191,2.771c.537.835,1.507,2.02,2.46,1.745.506,1.445.935,2.917,1.3,4.4a12.4,12.4,0,0,0-.176-3.454c-.337-1.559-2.025-2.587-1.2-4.35.262-.562.974-1.263.976-1.863a3.527,3.527,0,0,0-.557-1.209,11.487,11.487,0,0,1-.561-1.175,3.2,3.2,0,0,1,1.835-4.235c1.238-.481,2.927.163,4.006-.634a8.067,8.067,0,0,0,1.746-2.207c.955-1.477,2.125-3.5,4.147-3.446a4.871,4.871,0,0,1,3.053,1.607,2.983,2.983,0,0,0,1.318.922,3.753,3.753,0,0,0,1.419-.22c1.165-.27,2.6-.644,3.582.275.866.806.9,2.1,1.057,3.193.209,1.478,1,1.987,2.377,2.363,1.2.328,2.493.814,2.869,2.137a4.819,4.819,0,0,1-.192,2.6,2.778,2.778,0,0,0-.085,1.974c.5,1.067,1.421,1.943,1.156,3.24-.2.99-1.007,1.453-1.568,2.209-.734.989.141,2.341-.188,3.482a5.908,5.908,0,0,1-1.1,1.849,3.534,3.534,0,0,0,.917.476,1.416,1.416,0,0,0,1.659-.49c.581-1.048-.95-2.385-.385-3.441.455-.851,1.814-.656,2.491-1.344s.315-1.9-.273-2.688A5.528,5.528,0,0,1,147.1,110.009Z" transform="translate(-90.546 -91.332)" fill="#96332b"/>
              <path id="Trazado_1239123" data-name="Trazado 1239123" d="M173.089,173.673H142.407c.146.223.294.446.446.663,2.819,4.042,6.522,7.235,10.183,10.384l28.744,24.718c1.712,1.472,3.5,2.984,5.63,3.529a7.635,7.635,0,0,0,2.408.208V187.386C184.354,183.067,178.556,178.482,173.089,173.673Z" transform="translate(-95.084 -105.562)" fill="#f5a42e" opacity="0.44"/>
              <path id="Trazado_1239124" data-name="Trazado 1239124" d="M151.473,160.145a9.634,9.634,0,0,0-5.947-8.372,52.241,52.241,0,0,0-23.33-3.549,88.5,88.5,0,0,0-21.316,4.331,9.672,9.672,0,0,0-6.555,10.756,420.236,420.236,0,0,1,4.949,81.855c-.069,1.769-.234,4.318,1.457,4.845,15.556,4.853,37.733,5.651,52.536,1.709,3.672-.978.779-4.364.79-8.163C154.13,216.361,152.874,187.055,151.473,160.145Z" transform="translate(-86.754 -101.143)" fill="#f5a42e"/>
              <path id="Trazado_1239125" data-name="Trazado 1239125" d="M154.269,247.974c.065-24.154-.919-49.972-2.122-74.3H95.433a419.244,419.244,0,0,1,4.054,75.911,12.322,12.322,0,0,0,.133,3.195h55.556A21.584,21.584,0,0,1,154.269,247.974Z" transform="translate(-86.966 -105.562)" fill="#f5a42e" opacity="0.44"/>
              <path id="Trazado_1239126" data-name="Trazado 1239126" d="M143.94,262.453a37.5,37.5,0,0,1-18.894-3.188,37.236,37.236,0,0,1-18.836-19.526c-.185-.445-.848-.093-.663.349a38.162,38.162,0,0,0,10.546,14.377,37.678,37.678,0,0,0,17.017,8.165,38.257,38.257,0,0,0,11,.553C144.585,263.138,144.415,262.409,143.94,262.453Z" transform="translate(-88.709 -116.944)" fill="#a66f1f"/>
              <path id="Trazado_1239127" data-name="Trazado 1239127" d="M134.309,156.882a15.616,15.616,0,0,1-14.771-3.566c-.35-.328-.9.175-.553.506a16.38,16.38,0,0,0,15.491,3.79C134.938,157.481,134.775,156.749,134.309,156.882Z" transform="translate(-91.017 -102.025)" fill="#a66f1f"/>
              <g id="Grupo_1241743" data-name="Grupo 1241743" transform="translate(26.577 14.134)">
                <g id="Grupo_1241742" data-name="Grupo 1241742">
                  <g id="Grupo_1241741" data-name="Grupo 1241741">
                    <g id="Grupo_1241738" data-name="Grupo 1241738" transform="translate(3.502 15.678)">
                      <path id="Trazado_1239128" data-name="Trazado 1239128" d="M122,127.371a90.346,90.346,0,0,1-.417,18.19,3.314,3.314,0,0,0,1.372,3.132,13.562,13.562,0,0,0,9.655,2.3,3.274,3.274,0,0,0,2.742-3.52,108.3,108.3,0,0,1-.33-11.692C131.708,131.58,127.1,129.011,122,127.371Z" transform="translate(-121.561 -127.371)" fill="#b96e2b"/>
                    </g>
                    <g id="Grupo_1241739" data-name="Grupo 1241739" transform="translate(3.945 15.678)">
                      <path id="Trazado_1239129" data-name="Trazado 1239129" d="M135.117,135.785c-3.317-4.205-7.923-6.774-13.021-8.413.2,2.582.285,5.173.265,7.763,2.308,6.315,6.484,12.335,12.113,14.96a3.307,3.307,0,0,0,.974-2.617A108.115,108.115,0,0,1,135.117,135.785Z" transform="translate(-122.096 -127.372)" fill="#6c301e"/>
                    </g>
                    <g id="Grupo_1241740" data-name="Grupo 1241740">
                      <path id="Trazado_1239130" data-name="Trazado 1239130" d="M142.709,114.22c1.128,8.458-2.376,24.116-7.024,23.6a17.275,17.275,0,0,1-13.791-12.061,1.829,1.829,0,0,1-1.419.462,3.53,3.53,0,0,1-2.077-1.486c-.764-1.144-1.542-2.927-.72-4.237.988-1.575,3.177-1.9,4.1-.047-.069-3.093.941-5.955,2.014-8.843a3.288,3.288,0,0,1,1.98-1.97,23.862,23.862,0,0,1,14.418-.208,2.821,2.821,0,0,1,1.836,1.855A19.616,19.616,0,0,1,142.709,114.22Z" transform="translate(-117.327 -108.418)" fill="#b96e2b"/>
                      <path id="Trazado_1239131" data-name="Trazado 1239131" d="M135.606,115.888c-1.362-1.728-5.107-.536-6.485.574-.252.2-.556.462-.525.821a.431.431,0,0,0,.3.4c.423.121.826-.23,1.178-.414a5.967,5.967,0,0,1,3.412-.653,7.323,7.323,0,0,0,1.855.264C135.837,116.8,135.845,116.191,135.606,115.888Z" transform="translate(-119.274 -109.558)" fill="#3b1411"/>
                      <path id="Trazado_1239132" data-name="Trazado 1239132" d="M134.331,119.626a.858.858,0,0,0-.76-.511l-.221.03a.834.834,0,0,0-.366.213l-.13.168a.823.823,0,0,0-.113.419v.089a.856.856,0,0,0,.831.831l.221-.03a.841.841,0,0,0,.367-.213l.13-.168a.823.823,0,0,0,.113-.419v-.089A.624.624,0,0,0,134.331,119.626Z" transform="translate(-119.991 -110.267)" fill="#3b1411"/>
                      <path id="Trazado_1239133" data-name="Trazado 1239133" d="M145.329,120.248a.856.856,0,0,0-.759-.511l-.221.03a.834.834,0,0,0-.366.213l-.13.168a.822.822,0,0,0-.113.419v.089a.856.856,0,0,0,.831.831l.221-.03a.834.834,0,0,0,.366-.213l.13-.168a.822.822,0,0,0,.113-.419v-.089A.628.628,0,0,0,145.329,120.248Z" transform="translate(-121.891 -110.374)" fill="#3b1411"/>
                      <path id="Trazado_1239134" data-name="Trazado 1239134" d="M146.794,117.255a2.516,2.516,0,0,0-1.682-1.124,3.926,3.926,0,0,0-1.968-.037.622.622,0,0,0-.446.683c.068.505.5.523.9.528a4.018,4.018,0,0,1,1.555.289c.337.143,2.1,1.024,1.746-.09A1.639,1.639,0,0,0,146.794,117.255Z" transform="translate(-121.711 -109.726)" fill="#3b1411"/>
                      <path id="Trazado_1239135" data-name="Trazado 1239135" d="M137.8,137.613a2.875,2.875,0,0,0-.808,0,5.763,5.763,0,0,1-.712-.045,6.76,6.76,0,0,1-.737-.149,2.351,2.351,0,0,0-.792-.161.325.325,0,0,0-.227.547,1.522,1.522,0,0,0,.768.424,4.749,4.749,0,0,0,.807.2,6.466,6.466,0,0,0,.866.079,1.862,1.862,0,0,0,.936-.121A.426.426,0,0,0,137.8,137.613Z" transform="translate(-120.284 -113.401)" fill="#6c301e"/>
                      <path id="Trazado_1239136" data-name="Trazado 1239136" d="M121.261,126.168a.531.531,0,0,1-.687-.348.493.493,0,0,1,.146-.4.484.484,0,0,1,.366-.186.336.336,0,0,0,.321-.421,2.041,2.041,0,0,0-1.985-1.695,1.284,1.284,0,0,0-1.06.725.932.932,0,0,0-.055.624c.031.121.184.433.355.277.1-.093.069-.23.1-.35a1.22,1.22,0,0,1,.163-.358.7.7,0,0,1,.671-.282,1.345,1.345,0,0,1,1.052.917,1.092,1.092,0,0,0-.628,1.266,1.148,1.148,0,0,0,1.392.787C121.766,126.613,121.61,126.05,121.261,126.168Z" transform="translate(-117.491 -110.956)" fill="#6c301e"/>
                    </g>
                  </g>
                </g>
                <path id="Trazado_1239137" data-name="Trazado 1239137" d="M142.122,125.669a10.424,10.424,0,0,1-1.285-2.707c-.141-.457-.874-.3-.73.167a11.251,11.251,0,0,0,.977,2.279,11.454,11.454,0,0,0,.7,1.079c.242.33.525.633.742.98a.994.994,0,0,1,.155,1.052,1.908,1.908,0,0,1-.883.637,5.941,5.941,0,0,1-2.615.526.375.375,0,0,0-.033.749,6.818,6.818,0,0,0,2.941-.586c.759-.34,1.526-.913,1.429-1.841S142.607,126.4,142.122,125.669Z" transform="translate(-121.039 -110.884)" fill="#6c301e"/>
                <path id="Trazado_1239138" data-name="Trazado 1239138" d="M139.13,134.074a5.416,5.416,0,0,1-5.365-1.648c-.318-.363-.871.144-.553.506A6.168,6.168,0,0,0,139.3,134.8C139.762,134.683,139.6,133.952,139.13,134.074Z" transform="translate(-120.056 -112.545)" fill="#3b1411"/>
              </g>
              <g id="Grupo_1241748" data-name="Grupo 1241748" transform="translate(30.436 20.485)">
                <g id="Grupo_1241744" data-name="Grupo 1241744" transform="translate(6.044)">
                  <path id="Trazado_1239139" data-name="Trazado 1239139" d="M133.549,124.6a4.25,4.25,0,1,1,4.25-4.25A4.255,4.255,0,0,1,133.549,124.6Zm0-7.939a3.688,3.688,0,1,0,3.688,3.688A3.692,3.692,0,0,0,133.549,116.657Z" transform="translate(-129.299 -116.096)" fill="#fff"/>
                </g>
                <g id="Grupo_1241745" data-name="Grupo 1241745" transform="translate(16.278)">
                  <path id="Trazado_1239140" data-name="Trazado 1239140" d="M145.921,124.6a4.25,4.25,0,1,1,4.251-4.25A4.255,4.255,0,0,1,145.921,124.6Zm0-7.939a3.688,3.688,0,1,0,3.689,3.688A3.692,3.692,0,0,0,145.921,116.657Z" transform="translate(-141.671 -116.096)" fill="#fff"/>
                </g>
                <g id="Grupo_1241746" data-name="Grupo 1241746" transform="translate(13.828 1.719)">
                  <path id="Trazado_1239141" data-name="Trazado 1239141" d="M141.5,119.261a1.148,1.148,0,0,0-1.109-.52,3.706,3.706,0,0,0-1.415.513l-.262-.5a4.224,4.224,0,0,1,1.637-.576,1.69,1.69,0,0,1,1.654.833Z" transform="translate(-138.709 -118.174)" fill="#fff"/>
                </g>
                <g id="Grupo_1241747" data-name="Grupo 1241747" transform="translate(0 3.195)">
                  <path id="Trazado_1239142" data-name="Trazado 1239142" d="M122.219,121.756l-.227-.514a15.109,15.109,0,0,1,6.441-1.28l-.014.562A14.553,14.553,0,0,0,122.219,121.756Z" transform="translate(-121.992 -119.958)" fill="#fff"/>
                </g>
              </g>
            </g>
            <g id="Grupo_1241752" data-name="Grupo 1241752" transform="translate(0 71.024)">
              <path id="Trazado_1239212" data-name="Trazado 1239212" d="M0,0H131.167V71.872H0Z" fill="#36ceef"/>
              <g id="Grupo_1241750" data-name="Grupo 1241750" transform="translate(47.013 35.936)">
                <line id="Línea_629" data-name="Línea 629" x2="77.687" transform="translate(0)" fill="none" stroke="#fff" stroke-linecap="round" stroke-miterlimit="10" stroke-width="2"/>
                <line id="Línea_630" data-name="Línea 630" x2="77.687" transform="translate(0 4.797)" fill="none" stroke="#fff" stroke-linecap="round" stroke-miterlimit="10" stroke-width="2"/>
                <line id="Línea_631" data-name="Línea 631" x2="77.687" transform="translate(0 9.593)" fill="none" stroke="#fff" stroke-linecap="round" stroke-miterlimit="10" stroke-width="2"/>
                <line id="Línea_632" data-name="Línea 632" x2="42.916" transform="translate(34.771 14.389)" fill="none" stroke="#fff" stroke-linecap="round" stroke-miterlimit="10" stroke-width="2"/>
              </g>
              <g id="Grupo_1241751" data-name="Grupo 1241751" transform="translate(48.976 11.425)">
                <path id="Trazado_1239143" data-name="Trazado 1239143" d="M181.118,191.007l2.013,4.078,4.5.653-3.257,3.175.768,4.482-4.025-2.116-4.026,2.116.769-4.482-3.257-3.175,4.5-.653Z" transform="translate(-109.365 -191.007)" fill="#fff"/>
                <path id="Trazado_1239144" data-name="Trazado 1239144" d="M154.828,191.007l2.012,4.078,4.5.653-3.257,3.175.768,4.482-4.025-2.116L150.8,203.4l.768-4.482-3.257-3.175,4.5-.653Z" transform="translate(-104.821 -191.007)" fill="#fff"/>
                <path id="Trazado_1239145" data-name="Trazado 1239145" d="M128.537,191.007l2.013,4.078,4.5.653-3.257,3.175.768,4.482-4.026-2.116-4.025,2.116.768-4.482-3.257-3.175,4.5-.653Z" transform="translate(-100.278 -191.007)" fill="#fff"/>
                <path id="Trazado_1239146" data-name="Trazado 1239146" d="M102.247,191.007l2.013,4.078,4.5.653-3.257,3.175.769,4.482-4.026-2.116L98.221,203.4l.769-4.482-3.257-3.175,4.5-.653Z" transform="translate(-95.734 -191.007)" fill="#fff"/>
              </g>
              <rect id="Rectángulo_424001" data-name="Rectángulo 424001" width="28.205" height="40.087" transform="translate(11.173 7.003)" fill="#fff"/>
            </g>
            <g id="Grupo_1241757" data-name="Grupo 1241757" transform="translate(7.329 51.275)">
              <g id="Grupo_1241756" data-name="Grupo 1241756">
                <g id="Grupo_1241754" data-name="Grupo 1241754" transform="translate(35.029 80.366)">
                  <g id="Grupo_1241753" data-name="Grupo 1241753">
                    <path id="Trazado_1239147" data-name="Trazado 1239147" d="M110.352,265.845a3.551,3.551,0,0,0-.222-1.4,24.97,24.97,0,0,0-5.227-9.356c-2.522-2.76-5.31.208-3.051,2.888a20.744,20.744,0,0,0,2.27,2.023,11.582,11.582,0,0,1,3.257,4.846,5.338,5.338,0,0,0,.7,1.57,1.4,1.4,0,0,0,1.511.559A1.327,1.327,0,0,0,110.352,265.845Z" transform="translate(-90.03 -251.083)" fill="#b96e2b"/>
                    <path id="Trazado_1239148" data-name="Trazado 1239148" d="M107.26,268.676a3.551,3.551,0,0,0-.222-1.4,24.97,24.97,0,0,0-5.227-9.356c-2.522-2.76-5.31.208-3.051,2.888a20.731,20.731,0,0,0,2.27,2.023,11.583,11.583,0,0,1,3.257,4.846,5.338,5.338,0,0,0,.7,1.57,1.394,1.394,0,0,0,1.511.559A1.333,1.333,0,0,0,107.26,268.676Z" transform="translate(-89.495 -251.572)" fill="#b96e2b"/>
                    <path id="Trazado_1239149" data-name="Trazado 1239149" d="M103.179,268.79a3.551,3.551,0,0,0-.222-1.4,24.976,24.976,0,0,0-5.227-9.356c-2.522-2.76-5.31.208-3.051,2.889a20.753,20.753,0,0,0,2.27,2.023,11.582,11.582,0,0,1,3.257,4.846,5.359,5.359,0,0,0,.7,1.57,1.4,1.4,0,0,0,1.511.559A1.33,1.33,0,0,0,103.179,268.79Z" transform="translate(-88.79 -251.592)" fill="#b96e2b"/>
                    <path id="Trazado_1239150" data-name="Trazado 1239150" d="M98.9,266.669a2.9,2.9,0,0,1,.181,1.147,1.085,1.085,0,0,1-.624.92,1.138,1.138,0,0,1-1.234-.457,4.351,4.351,0,0,1-.57-1.281A9.457,9.457,0,0,0,94,263.041a16.948,16.948,0,0,1-1.853-1.652c-1.845-2.19.432-4.612,2.491-2.358A20.381,20.381,0,0,1,98.9,266.669Z" transform="translate(-88.378 -251.8)" fill="#b96e2b"/>
                    <path id="Trazado_1239151" data-name="Trazado 1239151" d="M102.283,254.158a17.642,17.642,0,0,0-4.843-2.893A8.4,8.4,0,0,0,91.024,251a5.173,5.173,0,0,0-3.251,5.2,5.747,5.747,0,0,0,1.943,3.325,8.88,8.88,0,0,0,13.866-2.486Z" transform="translate(-87.733 -250.477)" fill="#b96e2b"/>
                  </g>
                </g>
                <g id="Grupo_1241755" data-name="Grupo 1241755">
                  <path id="Trazado_1239152" data-name="Trazado 1239152" d="M95.988,153.343c-5.076-.27-10.03,1.847-13.935,4.851s-6.924,6.852-9.9,10.656L48.8,198.713c-1.391,1.778-2.819,3.634-3.263,5.789-.68,3.3,1.059,6.578,2.927,9.456a87.6,87.6,0,0,0,22.106,23.137c2.7,1.955,5.969,3.868,9.331,3.224a7.8,7.8,0,0,0,5.865-6.008,14.36,14.36,0,0,0-1.157-8.382c-2.942-7.317-8.532-13.424-14.014-19.368,6.538-9.11,13.752-19.248,21.54-27.479,3.494-3.692,7.335-7.366,8.92-12.044S101.291,153.626,95.988,153.343Z" transform="translate(-45.385 -153.32)" fill="#f5a42e"/>
                  <path id="Trazado_1239153" data-name="Trazado 1239153" d="M84.131,254.922a6.7,6.7,0,0,1,1.825,2.034,3.512,3.512,0,0,0,2.136,1.62,3.256,3.256,0,0,0,1.639-.277,9.246,9.246,0,0,0,5.739-8.292,14.7,14.7,0,0,0-5.31-3.364Z" transform="translate(-52.081 -169.448)" fill="#f5a42e"/>
                </g>
              </g>
              <path id="Trazado_1239154" data-name="Trazado 1239154" d="M73.274,216.336a15.188,15.188,0,0,0-12-1.327c-.457.143-.294.875.167.73a14.438,14.438,0,0,1,11.43,1.227C73.286,217.205,73.693,216.576,73.274,216.336Z" transform="translate(-48.083 -163.865)" fill="#a66f1f"/>
              <path id="Trazado_1239155" data-name="Trazado 1239155" d="M68.766,216.073a7.214,7.214,0,0,0-4.493.228.376.376,0,0,0-.156.506.383.383,0,0,0,.506.156,6.357,6.357,0,0,1,3.913-.178C69,216.913,69.232,216.2,68.766,216.073Z" transform="translate(-48.615 -164.121)" fill="#a66f1f"/>
              <path id="Trazado_1239156" data-name="Trazado 1239156" d="M93.574,248.02c-.084-.475-.814-.308-.73.167a6.676,6.676,0,0,1-5.519,7.807c-.475.082-.308.812.167.73a7.426,7.426,0,0,0,6.082-8.7Z" transform="translate(-52.584 -169.637)" fill="#a66f1f"/>
            </g>
          </g>
          <g id="Grupo_1241760" data-name="Grupo 1241760" transform="translate(154.121 4.777)">
            <g id="Grupo_1241759" data-name="Grupo 1241759">
              <rect id="Rectángulo_424002" data-name="Rectángulo 424002" width="30.647" height="37.184" transform="translate(3.269)" fill="#36ceef"/>
              <path id="Trazado_1239157" data-name="Trazado 1239157" d="M237.017,167.863a5.945,5.945,0,0,0,3.045-.479,2.047,2.047,0,0,0,.986-2.623,9.553,9.553,0,0,0,3.36-4.279.421.421,0,0,0-.612-.519,33.513,33.513,0,0,0-6.763,4.918C236.444,165.5,236.64,167.1,237.017,167.863Z" transform="translate(-223.66 -127.122)" fill="#b96e2b"/>
            </g>
            <path id="Trazado_1239158" data-name="Trazado 1239158" d="M271.052,136.771a3.4,3.4,0,0,0-3.012-2.656,5.513,5.513,0,0,0-3.65,1.4,5.484,5.484,0,0,0-3.643-1.4,3.4,3.4,0,0,0-3.019,2.656c-.405,1.812.592,3.64,1.68,4.975a17.865,17.865,0,0,0,4.866,4.21.458.458,0,0,0,.116.07l.116-.07a17.973,17.973,0,0,0,4.873-4.21C270.46,140.411,271.457,138.583,271.052,136.771Z" transform="translate(-245.798 -121.474)" fill="#fff"/>
          </g>
        </g>
        <g id="Grupo_1241786" data-name="Grupo 1241786" transform="translate(129.501 92.655)">
          <path id="Trazado_1239211" data-name="Trazado 1239211" d="M0,0H36.461V34.12H0Z" transform="translate(0 0)" fill="#36ceef"/>
          <g id="Grupo_1241785" data-name="Grupo 1241785" transform="translate(9.862 9.573)">
            <path id="Trazado_1239210" data-name="Trazado 1239210" d="M191.446,82.506l2.166-4.791a1.241,1.241,0,0,1,1.131-.73h0a1.241,1.241,0,0,1,1.241,1.241v4.279h2.566a2.9,2.9,0,0,1,2.853,3.426l-.672,3.65a2.9,2.9,0,0,1-2.853,2.376h-8.624v-8.47Z" transform="translate(-184.715 -76.985)" fill="none" stroke="#fff" stroke-miterlimit="10" stroke-width="2"/>
            <rect id="Rectángulo_424005" data-name="Rectángulo 424005" width="4.537" height="8.47" transform="translate(0 6.503)" fill="none" stroke="#fff" stroke-miterlimit="10" stroke-width="2"/>
          </g>
        </g>
      </g>
    </g>
  </g>
</svg>
