<svg id="trabajo-en-equipo_11_" data-name="trabajo-en-equipo (11)" xmlns="http://www.w3.org/2000/svg" width="75.184" height="75.183" viewBox="0 0 75.184 75.183">
  <g id="Grupo_1241802" data-name="Grupo 1241802" transform="translate(1.102 1.101)">
    <path id="Trazado_1239271" data-name="Trazado 1239271" d="M110.278,269.24v-7.978l-1.247-1.128-1.054-.928-5.433-.459-1.322-3.555-4.405-1.064-3.573.549s-1.689,4.456-1.762,4.53a2.922,2.922,0,0,1-.5.027l.253.9-.782,2.6v7.783l6.535,10.646,6.278,4.369,1.515-.067a1.7,1.7,0,0,1,1.519-.634,24.744,24.744,0,0,0,2.732.153l1.247-1.3-.734-6.9-4.8-3.994,1.077-2.957Z" transform="translate(-78.273 -217.911)" fill="#ce7bbc"/>
    <path id="Trazado_1239272" data-name="Trazado 1239272" d="M20.466,289.638c0-.3.006-.606.015-.908-1.045.037-5.3-.02-5.3-.02l-1.764.928a24.647,24.647,0,0,0,.151,2.734,1.694,1.694,0,0,1-1.034,1.753l-3.984,1.65a1.693,1.693,0,0,0-.916,2.213l3.067,7.4a1.693,1.693,0,0,0,2.213.916l3.984-1.65a1.7,1.7,0,0,1,1.973.51,24.682,24.682,0,0,0,3.858,3.856A1.7,1.7,0,0,1,23.242,311l-1.651,3.986a1.694,1.694,0,0,0,.916,2.213l7.4,3.067a1.693,1.693,0,0,0,2.213-.917l1.651-3.986a1.7,1.7,0,0,1,.236-.4,30.415,30.415,0,0,1-13.545-25.326Z" transform="translate(-7.503 -247.416)" fill="#c464b0"/>
    <path id="Trazado_1239273" data-name="Trazado 1239273" d="M214.969,301.169l-3.986-1.651a1.694,1.694,0,0,1-1.034-1.755q.1-.9.135-1.809a.893.893,0,0,0-.9-.922h-6.246a1.428,1.428,0,0,0-1.44,1.407,4.019,4.019,0,0,1-3.853,4.049,3.965,3.965,0,0,1-4.076-3.963v-.083a1.41,1.41,0,0,0-1.41-1.41h-6.906v6.906a1.41,1.41,0,0,1-1.41,1.41A4.019,4.019,0,0,0,179.8,307.2a3.965,3.965,0,0,0,3.963,4.076h.083a1.41,1.41,0,0,1,1.41,1.41v7.188a24.631,24.631,0,0,0,2.734-.151,1.693,1.693,0,0,1,1.753,1.034l1.65,3.984a1.693,1.693,0,0,0,2.213.916l7.4-3.067a1.693,1.693,0,0,0,.916-2.212l-1.65-3.984a1.693,1.693,0,0,1,.508-1.97,24.69,24.69,0,0,0,3.863-3.866,1.7,1.7,0,0,1,1.973-.51l3.986,1.651a1.694,1.694,0,0,0,2.213-.916l3.067-7.4A1.693,1.693,0,0,0,214.969,301.169Z" transform="translate(-154.498 -252.809)" fill="#00c2fb"/>
    <path id="Trazado_1239274" data-name="Trazado 1239274" d="M114.488,135.492a4.019,4.019,0,0,0-4.046-3.854,1.41,1.41,0,0,1-1.41-1.41v-6.277a.893.893,0,0,0-.921-.9q-.9.033-1.813.134a1.694,1.694,0,0,1-1.516-.632h-2.042s-7.391,7.707-7.391,7.854-3.822,8.957-3.822,8.957L90.455,145.1l.782,2.788h.139a1.411,1.411,0,0,0,1.41-1.41,4.019,4.019,0,0,1,3.853-4.046,3.965,3.965,0,0,1,4.076,3.963v.083a1.41,1.41,0,0,0,1.41,1.41h6.906v-6.906a1.41,1.41,0,0,1,1.41-1.41h.083A3.965,3.965,0,0,0,114.488,135.492Z" transform="translate(-78.274 -105.662)" fill="#ffe02f"/>
    <path id="Trazado_1239275" data-name="Trazado 1239275" d="M34.011,91a1.69,1.69,0,0,1-.237-.4l-1.65-3.984a1.693,1.693,0,0,0-2.213-.916l-7.4,3.067a1.693,1.693,0,0,0-.916,2.213l1.65,3.984a1.7,1.7,0,0,1-.51,1.973,24.684,24.684,0,0,0-3.855,3.857,1.7,1.7,0,0,1-1.978.516l-3.986-1.651a1.694,1.694,0,0,0-2.213.916l-3.067,7.4a1.693,1.693,0,0,0,.917,2.213l3.986,1.651a1.694,1.694,0,0,1,1.034,1.755,24.758,24.758,0,0,0-.153,2.732h7.05A30.415,30.415,0,0,1,34.011,91Z" transform="translate(-7.502 -74.105)" fill="#fbc700"/>
    <path id="Trazado_1239276" data-name="Trazado 1239276" d="M325.662,81.026l-3.067-7.4a1.694,1.694,0,0,0-2.213-.917l-3.984,1.65a1.7,1.7,0,0,1-1.973-.51,24.685,24.685,0,0,0-3.858-3.856,1.7,1.7,0,0,1-.516-1.978l.247-.6h-3.7l-7.734,3.518-.272,2.8a3.946,3.946,0,0,1-2.066,7.32h-.083a1.41,1.41,0,0,0-1.41,1.41v6.011a.9.9,0,0,0,.895.895h6.011a1.41,1.41,0,0,1,1.41,1.41v.083a3.965,3.965,0,0,0,2.4,3.646c.084.036.17.069.256.1a3.963,3.963,0,0,0,1.6.21,4.019,4.019,0,0,0,3.67-4.035h0a1.41,1.41,0,0,1,1.41-1.41h6.277a.893.893,0,0,0,.9-.921q-.033-.905-.134-1.813a1.694,1.694,0,0,1,1.034-1.753l3.984-1.65a1.693,1.693,0,0,0,.917-2.213Z" transform="translate(-252.811 -58.618)" fill="#73d578"/>
    <path id="Trazado_1239277" data-name="Trazado 1239277" d="M296.445,22.01a4.089,4.089,0,0,1,2.148.61A22.666,22.666,0,0,1,310.3,16.3l1.4-3.39a1.693,1.693,0,0,0-.916-2.213l-7.4-3.067a1.693,1.693,0,0,0-2.213.917l-1.651,3.986a1.694,1.694,0,0,1-1.755,1.034q-.9-.1-1.809-.135a.893.893,0,0,0-.923.9V20.6A1.41,1.41,0,0,0,296.445,22.01Z" transform="translate(-252.813 -7.497)" fill="#00c63a"/>
  </g>
  <g id="Grupo_1241803" data-name="Grupo 1241803" transform="translate(0 0)">
    <path id="Trazado_1239278" data-name="Trazado 1239278" d="M5.71,113.4l-3.984,1.65A2.793,2.793,0,0,0,.214,118.7l3.067,7.4a2.8,2.8,0,0,0,3.652,1.512l3.984-1.65a.59.59,0,0,1,.691.181,25.827,25.827,0,0,0,4.03,4.028.6.6,0,0,1,.187.7l-1.651,3.986a2.8,2.8,0,0,0,1.512,3.652l7.4,3.067a2.8,2.8,0,0,0,3.652-1.513l1.651-3.986a.6.6,0,0,1,.615-.361,25.812,25.812,0,0,0,5.709,0,.6.6,0,0,1,.614.361l1.65,3.984a2.793,2.793,0,0,0,3.652,1.512l1.326-.549a1.1,1.1,0,1,0-.843-2.035l-1.326.549a.592.592,0,0,1-.774-.32l-1.65-3.984a2.809,2.809,0,0,0-2.892-1.707c-.5.055-1,.1-1.511.119v-6.062a2.515,2.515,0,0,0-2.512-2.512,2.86,2.86,0,0,1-2.945-2.945,2.932,2.932,0,0,1,2.945-2.782,2.515,2.515,0,0,0,2.512-2.512v-5.8h5.8a.309.309,0,0,1,.309.309v.083a5.062,5.062,0,0,0,5.208,5.064,5.142,5.142,0,0,0,4.925-5.151.329.329,0,0,1,.338-.3h6.031c-.024.5-.064,1.009-.12,1.508a2.81,2.81,0,0,0,1.707,2.894l3.986,1.651a.592.592,0,0,1,.321.774l-3.067,7.4a.592.592,0,0,1-.774.321l-3.986-1.651a2.81,2.81,0,0,0-3.254.84,23.633,23.633,0,0,1-3.691,3.694,2.808,2.808,0,0,0-.837,3.252l1.65,3.984a.592.592,0,0,1-.321.774l-1.329.551a1.1,1.1,0,0,0,.843,2.035l1.329-.551a2.793,2.793,0,0,0,1.513-3.652l-1.65-3.984a.6.6,0,0,1,.178-.689,25.828,25.828,0,0,0,4.036-4.039.6.6,0,0,1,.691-.18l3.986,1.651a2.8,2.8,0,0,0,3.651-1.512l3.067-7.4a2.793,2.793,0,0,0-1.512-3.652L58.008,113.4a.6.6,0,0,1-.361-.615c.07-.626.117-1.262.141-1.89a2,2,0,0,0-2-2.065H49.546A2.527,2.527,0,0,0,47,111.34a2.925,2.925,0,0,1-2.782,2.947,2.861,2.861,0,0,1-2.945-2.862v-.083a2.514,2.514,0,0,0-2.512-2.512h-5.8v-5.8a.309.309,0,0,1,.309-.309h.083a5.062,5.062,0,0,0,5.064-5.207,5.143,5.143,0,0,0-5.147-4.925.309.309,0,0,1-.309-.309V86a2.01,2.01,0,0,0-.612-1.44A1.967,1.967,0,0,0,30.9,84c-.63.023-1.268.07-1.894.14a.6.6,0,0,1-.614-.361L26.741,79.8a2.8,2.8,0,0,0-3.652-1.512l-7.4,3.067A2.793,2.793,0,0,0,14.173,85l1.65,3.984a.6.6,0,0,1-.181.691,25.828,25.828,0,0,0-4.028,4.03.6.6,0,0,1-.7.187L6.932,92.245a2.8,2.8,0,0,0-3.651,1.513l-3.067,7.4a2.8,2.8,0,0,0,1.512,3.652l3.986,1.651a.6.6,0,0,1,.361.615,25.832,25.832,0,0,0,0,5.709.6.6,0,0,1-.361.614ZM2.569,102.777A.593.593,0,0,1,2.249,102l3.067-7.4a.593.593,0,0,1,.774-.321l3.986,1.651a2.816,2.816,0,0,0,3.259-.846A23.629,23.629,0,0,1,17.018,91.4a2.811,2.811,0,0,0,.84-3.254l-1.65-3.984a.592.592,0,0,1,.321-.774l7.4-3.067a.593.593,0,0,1,.774.32l1.65,3.984a2.81,2.81,0,0,0,2.892,1.707c.5-.056,1.007-.1,1.511-.119v6.062a2.515,2.515,0,0,0,2.512,2.512,2.925,2.925,0,0,1,2.945,2.782,2.861,2.861,0,0,1-2.862,2.945h-.083a2.514,2.514,0,0,0-2.512,2.512v5.8h-5.8a.309.309,0,0,1-.309-.309,5.067,5.067,0,1,0-10.132,0,.309.309,0,0,1-.309.309H8.143c.024-.5.064-1.009.119-1.508a2.81,2.81,0,0,0-1.707-2.894Zm3.984,12.659a2.809,2.809,0,0,0,1.707-2.892c-.056-.5-.1-1.005-.119-1.511H14.2a2.514,2.514,0,0,0,2.512-2.512,2.865,2.865,0,1,1,5.727,0,2.516,2.516,0,0,0,2.512,2.512h5.8v5.8a.309.309,0,0,1-.309.309,5.144,5.144,0,0,0-5.147,4.924,5.059,5.059,0,0,0,5.147,5.208.309.309,0,0,1,.309.309v6.061c-.5-.024-1.009-.064-1.508-.119a2.808,2.808,0,0,0-2.894,1.707l-1.651,3.986a.592.592,0,0,1-.774.321l-7.4-3.067a.593.593,0,0,1-.321-.774l1.651-3.986a2.816,2.816,0,0,0-.846-3.259,23.636,23.636,0,0,1-3.686-3.683,2.811,2.811,0,0,0-3.254-.84l-3.984,1.65a.593.593,0,0,1-.774-.32l-3.067-7.4a.592.592,0,0,1,.321-.774Z" transform="translate(0 -66.609)"/>
    <path id="Trazado_1239279" data-name="Trazado 1239279" d="M302.641,10.074a2.816,2.816,0,0,0,.846,3.259,23.635,23.635,0,0,1,3.685,3.683,2.811,2.811,0,0,0,3.254.84l3.984-1.65a.593.593,0,0,1,.774.321l.507,1.225a1.1,1.1,0,1,0,2.035-.843l-.507-1.225a2.8,2.8,0,0,0-3.652-1.513l-3.984,1.65a.6.6,0,0,1-.691-.181,25.841,25.841,0,0,0-4.03-4.028.6.6,0,0,1-.187-.7l1.651-3.986a2.8,2.8,0,0,0-1.512-3.652l-7.4-3.067a2.8,2.8,0,0,0-3.652,1.513l-1.651,3.986a.6.6,0,0,1-.615.361c-.625-.07-1.261-.117-1.889-.141a2,2,0,0,0-2.065,2V14.2a2.515,2.515,0,0,0,2.512,2.512,2.925,2.925,0,0,1,2.945,2.782,2.861,2.861,0,0,1-2.945,2.945,2.514,2.514,0,0,0-2.512,2.512v6.011a2,2,0,0,0,2,2h6.011a.309.309,0,0,1,.309.309A5.065,5.065,0,0,0,301.3,38.4a5.128,5.128,0,0,0,4.69-5.135.309.309,0,0,1,.309-.309h6.277a2,2,0,0,0,2-2.063c-.023-.63-.07-1.267-.14-1.894a.6.6,0,0,1,.361-.614l3.984-1.65a2.8,2.8,0,0,0,1.512-3.652l-.592-1.429a1.1,1.1,0,1,0-2.035.843l.592,1.429a.593.593,0,0,1-.321.774l-3.984,1.65a2.809,2.809,0,0,0-1.707,2.892c.056.5.1,1.007.119,1.511H306.3a2.515,2.515,0,0,0-2.512,2.513,2.917,2.917,0,0,1-2.649,2.937,2.863,2.863,0,0,1-3.078-2.938,2.515,2.515,0,0,0-2.512-2.512h-5.8v-5.8a.309.309,0,0,1,.309-.309h.083a5.062,5.062,0,0,0,5.064-5.208,5.142,5.142,0,0,0-5.147-4.925.309.309,0,0,1-.309-.309V8.142c.5.024,1.009.064,1.508.12a2.809,2.809,0,0,0,2.894-1.707l1.651-3.986a.593.593,0,0,1,.774-.321l7.4,3.067a.592.592,0,0,1,.321.774Z" transform="translate(-245.315 0)"/>
  </g>
</svg>
